<?xml version="1.0" encoding="utf-8" standalone="no"?>
<!DOCTYPE svg PUBLIC "-//W3C//DTD SVG 1.1//EN"
  "http://www.w3.org/Graphics/SVG/1.1/DTD/svg11.dtd">
<svg xmlns:xlink="http://www.w3.org/1999/xlink" width="460.8pt" height="345.6pt" viewBox="0 0 460.8 345.6" xmlns="http://www.w3.org/2000/svg" version="1.1">
 <metadata>
  <rdf:RDF xmlns:dc="http://purl.org/dc/elements/1.1/" xmlns:cc="http://creativecommons.org/ns#" xmlns:rdf="http://www.w3.org/1999/02/22-rdf-syntax-ns#">
   <cc:Work>
    <dc:type rdf:resource="http://purl.org/dc/dcmitype/StillImage"/>
    <dc:date>2022-07-09T20:44:57.607286</dc:date>
    <dc:format>image/svg+xml</dc:format>
    <dc:creator>
     <cc:Agent>
      <dc:title>Matplotlib v3.5.2, https://matplotlib.org/</dc:title>
     </cc:Agent>
    </dc:creator>
   </cc:Work>
  </rdf:RDF>
 </metadata>
 <defs>
  <style type="text/css">*{stroke-linejoin: round; stroke-linecap: butt}</style>
 </defs>
 <g id="figure_1">
  <g id="patch_1">
   <path d="M 0 345.6 
L 460.8 345.6 
L 460.8 0 
L 0 0 
z
" style="fill: #ffffff"/>
  </g>
  <g id="axes_1">
   <g id="patch_2">
    <path d="M 57.6 307.584 
L 414.72 307.584 
L 414.72 41.472 
L 57.6 41.472 
z
" style="fill: #ffffff"/>
   </g>
   <g id="matplotlib.axis_1">
    <g id="xtick_1">
     <g id="line2d_1">
      <defs>
       <path id="m14fdd36055" d="M 0 0 
L 0 3.5 
" style="stroke: #000000; stroke-width: 0.8"/>
      </defs>
      <g>
       <use xlink:href="#m14fdd36055" x="73.738257" y="307.584" style="stroke: #000000; stroke-width: 0.8"/>
      </g>
     </g>
     <g id="text_1">
      <!-- 0 -->
      <g transform="translate(70.557007 322.182437)scale(0.1 -0.1)">
       <defs>
        <path id="DejaVuSans-30" d="M 2034 4250 
Q 1547 4250 1301 3770 
Q 1056 3291 1056 2328 
Q 1056 1369 1301 889 
Q 1547 409 2034 409 
Q 2525 409 2770 889 
Q 3016 1369 3016 2328 
Q 3016 3291 2770 3770 
Q 2525 4250 2034 4250 
z
M 2034 4750 
Q 2819 4750 3233 4129 
Q 3647 3509 3647 2328 
Q 3647 1150 3233 529 
Q 2819 -91 2034 -91 
Q 1250 -91 836 529 
Q 422 1150 422 2328 
Q 422 3509 836 4129 
Q 1250 4750 2034 4750 
z
" transform="scale(0.015625)"/>
       </defs>
       <use xlink:href="#DejaVuSans-30"/>
      </g>
     </g>
    </g>
    <g id="xtick_2">
     <g id="line2d_2">
      <g>
       <use xlink:href="#m14fdd36055" x="120.812543" y="307.584" style="stroke: #000000; stroke-width: 0.8"/>
      </g>
     </g>
     <g id="text_2">
      <!-- 50 -->
      <g transform="translate(114.450043 322.182437)scale(0.1 -0.1)">
       <defs>
        <path id="DejaVuSans-35" d="M 691 4666 
L 3169 4666 
L 3169 4134 
L 1269 4134 
L 1269 2991 
Q 1406 3038 1543 3061 
Q 1681 3084 1819 3084 
Q 2600 3084 3056 2656 
Q 3513 2228 3513 1497 
Q 3513 744 3044 326 
Q 2575 -91 1722 -91 
Q 1428 -91 1123 -41 
Q 819 9 494 109 
L 494 744 
Q 775 591 1075 516 
Q 1375 441 1709 441 
Q 2250 441 2565 725 
Q 2881 1009 2881 1497 
Q 2881 1984 2565 2268 
Q 2250 2553 1709 2553 
Q 1456 2553 1204 2497 
Q 953 2441 691 2322 
L 691 4666 
z
" transform="scale(0.015625)"/>
       </defs>
       <use xlink:href="#DejaVuSans-35"/>
       <use xlink:href="#DejaVuSans-30" x="63.623047"/>
      </g>
     </g>
    </g>
    <g id="xtick_3">
     <g id="line2d_3">
      <g>
       <use xlink:href="#m14fdd36055" x="167.886828" y="307.584" style="stroke: #000000; stroke-width: 0.8"/>
      </g>
     </g>
     <g id="text_3">
      <!-- 100 -->
      <g transform="translate(158.343078 322.182437)scale(0.1 -0.1)">
       <defs>
        <path id="DejaVuSans-31" d="M 794 531 
L 1825 531 
L 1825 4091 
L 703 3866 
L 703 4441 
L 1819 4666 
L 2450 4666 
L 2450 531 
L 3481 531 
L 3481 0 
L 794 0 
L 794 531 
z
" transform="scale(0.015625)"/>
       </defs>
       <use xlink:href="#DejaVuSans-31"/>
       <use xlink:href="#DejaVuSans-30" x="63.623047"/>
       <use xlink:href="#DejaVuSans-30" x="127.246094"/>
      </g>
     </g>
    </g>
    <g id="xtick_4">
     <g id="line2d_4">
      <g>
       <use xlink:href="#m14fdd36055" x="214.961114" y="307.584" style="stroke: #000000; stroke-width: 0.8"/>
      </g>
     </g>
     <g id="text_4">
      <!-- 150 -->
      <g transform="translate(205.417364 322.182437)scale(0.1 -0.1)">
       <use xlink:href="#DejaVuSans-31"/>
       <use xlink:href="#DejaVuSans-35" x="63.623047"/>
       <use xlink:href="#DejaVuSans-30" x="127.246094"/>
      </g>
     </g>
    </g>
    <g id="xtick_5">
     <g id="line2d_5">
      <g>
       <use xlink:href="#m14fdd36055" x="262.0354" y="307.584" style="stroke: #000000; stroke-width: 0.8"/>
      </g>
     </g>
     <g id="text_5">
      <!-- 200 -->
      <g transform="translate(252.49165 322.182437)scale(0.1 -0.1)">
       <defs>
        <path id="DejaVuSans-32" d="M 1228 531 
L 3431 531 
L 3431 0 
L 469 0 
L 469 531 
Q 828 903 1448 1529 
Q 2069 2156 2228 2338 
Q 2531 2678 2651 2914 
Q 2772 3150 2772 3378 
Q 2772 3750 2511 3984 
Q 2250 4219 1831 4219 
Q 1534 4219 1204 4116 
Q 875 4013 500 3803 
L 500 4441 
Q 881 4594 1212 4672 
Q 1544 4750 1819 4750 
Q 2544 4750 2975 4387 
Q 3406 4025 3406 3419 
Q 3406 3131 3298 2873 
Q 3191 2616 2906 2266 
Q 2828 2175 2409 1742 
Q 1991 1309 1228 531 
z
" transform="scale(0.015625)"/>
       </defs>
       <use xlink:href="#DejaVuSans-32"/>
       <use xlink:href="#DejaVuSans-30" x="63.623047"/>
       <use xlink:href="#DejaVuSans-30" x="127.246094"/>
      </g>
     </g>
    </g>
    <g id="xtick_6">
     <g id="line2d_6">
      <g>
       <use xlink:href="#m14fdd36055" x="309.109686" y="307.584" style="stroke: #000000; stroke-width: 0.8"/>
      </g>
     </g>
     <g id="text_6">
      <!-- 250 -->
      <g transform="translate(299.565936 322.182437)scale(0.1 -0.1)">
       <use xlink:href="#DejaVuSans-32"/>
       <use xlink:href="#DejaVuSans-35" x="63.623047"/>
       <use xlink:href="#DejaVuSans-30" x="127.246094"/>
      </g>
     </g>
    </g>
    <g id="xtick_7">
     <g id="line2d_7">
      <g>
       <use xlink:href="#m14fdd36055" x="356.183971" y="307.584" style="stroke: #000000; stroke-width: 0.8"/>
      </g>
     </g>
     <g id="text_7">
      <!-- 300 -->
      <g transform="translate(346.640221 322.182437)scale(0.1 -0.1)">
       <defs>
        <path id="DejaVuSans-33" d="M 2597 2516 
Q 3050 2419 3304 2112 
Q 3559 1806 3559 1356 
Q 3559 666 3084 287 
Q 2609 -91 1734 -91 
Q 1441 -91 1130 -33 
Q 819 25 488 141 
L 488 750 
Q 750 597 1062 519 
Q 1375 441 1716 441 
Q 2309 441 2620 675 
Q 2931 909 2931 1356 
Q 2931 1769 2642 2001 
Q 2353 2234 1838 2234 
L 1294 2234 
L 1294 2753 
L 1863 2753 
Q 2328 2753 2575 2939 
Q 2822 3125 2822 3475 
Q 2822 3834 2567 4026 
Q 2313 4219 1838 4219 
Q 1578 4219 1281 4162 
Q 984 4106 628 3988 
L 628 4550 
Q 988 4650 1302 4700 
Q 1616 4750 1894 4750 
Q 2613 4750 3031 4423 
Q 3450 4097 3450 3541 
Q 3450 3153 3228 2886 
Q 3006 2619 2597 2516 
z
" transform="scale(0.015625)"/>
       </defs>
       <use xlink:href="#DejaVuSans-33"/>
       <use xlink:href="#DejaVuSans-30" x="63.623047"/>
       <use xlink:href="#DejaVuSans-30" x="127.246094"/>
      </g>
     </g>
    </g>
    <g id="xtick_8">
     <g id="line2d_8">
      <g>
       <use xlink:href="#m14fdd36055" x="403.258257" y="307.584" style="stroke: #000000; stroke-width: 0.8"/>
      </g>
     </g>
     <g id="text_8">
      <!-- 350 -->
      <g transform="translate(393.714507 322.182437)scale(0.1 -0.1)">
       <use xlink:href="#DejaVuSans-33"/>
       <use xlink:href="#DejaVuSans-35" x="63.623047"/>
       <use xlink:href="#DejaVuSans-30" x="127.246094"/>
      </g>
     </g>
    </g>
    <g id="text_9">
     <!-- time(s) -->
     <g transform="translate(218.357656 335.860562)scale(0.1 -0.1)">
      <defs>
       <path id="DejaVuSans-74" d="M 1172 4494 
L 1172 3500 
L 2356 3500 
L 2356 3053 
L 1172 3053 
L 1172 1153 
Q 1172 725 1289 603 
Q 1406 481 1766 481 
L 2356 481 
L 2356 0 
L 1766 0 
Q 1100 0 847 248 
Q 594 497 594 1153 
L 594 3053 
L 172 3053 
L 172 3500 
L 594 3500 
L 594 4494 
L 1172 4494 
z
" transform="scale(0.015625)"/>
       <path id="DejaVuSans-69" d="M 603 3500 
L 1178 3500 
L 1178 0 
L 603 0 
L 603 3500 
z
M 603 4863 
L 1178 4863 
L 1178 4134 
L 603 4134 
L 603 4863 
z
" transform="scale(0.015625)"/>
       <path id="DejaVuSans-6d" d="M 3328 2828 
Q 3544 3216 3844 3400 
Q 4144 3584 4550 3584 
Q 5097 3584 5394 3201 
Q 5691 2819 5691 2113 
L 5691 0 
L 5113 0 
L 5113 2094 
Q 5113 2597 4934 2840 
Q 4756 3084 4391 3084 
Q 3944 3084 3684 2787 
Q 3425 2491 3425 1978 
L 3425 0 
L 2847 0 
L 2847 2094 
Q 2847 2600 2669 2842 
Q 2491 3084 2119 3084 
Q 1678 3084 1418 2786 
Q 1159 2488 1159 1978 
L 1159 0 
L 581 0 
L 581 3500 
L 1159 3500 
L 1159 2956 
Q 1356 3278 1631 3431 
Q 1906 3584 2284 3584 
Q 2666 3584 2933 3390 
Q 3200 3197 3328 2828 
z
" transform="scale(0.015625)"/>
       <path id="DejaVuSans-65" d="M 3597 1894 
L 3597 1613 
L 953 1613 
Q 991 1019 1311 708 
Q 1631 397 2203 397 
Q 2534 397 2845 478 
Q 3156 559 3463 722 
L 3463 178 
Q 3153 47 2828 -22 
Q 2503 -91 2169 -91 
Q 1331 -91 842 396 
Q 353 884 353 1716 
Q 353 2575 817 3079 
Q 1281 3584 2069 3584 
Q 2775 3584 3186 3129 
Q 3597 2675 3597 1894 
z
M 3022 2063 
Q 3016 2534 2758 2815 
Q 2500 3097 2075 3097 
Q 1594 3097 1305 2825 
Q 1016 2553 972 2059 
L 3022 2063 
z
" transform="scale(0.015625)"/>
       <path id="DejaVuSans-28" d="M 1984 4856 
Q 1566 4138 1362 3434 
Q 1159 2731 1159 2009 
Q 1159 1288 1364 580 
Q 1569 -128 1984 -844 
L 1484 -844 
Q 1016 -109 783 600 
Q 550 1309 550 2009 
Q 550 2706 781 3412 
Q 1013 4119 1484 4856 
L 1984 4856 
z
" transform="scale(0.015625)"/>
       <path id="DejaVuSans-73" d="M 2834 3397 
L 2834 2853 
Q 2591 2978 2328 3040 
Q 2066 3103 1784 3103 
Q 1356 3103 1142 2972 
Q 928 2841 928 2578 
Q 928 2378 1081 2264 
Q 1234 2150 1697 2047 
L 1894 2003 
Q 2506 1872 2764 1633 
Q 3022 1394 3022 966 
Q 3022 478 2636 193 
Q 2250 -91 1575 -91 
Q 1294 -91 989 -36 
Q 684 19 347 128 
L 347 722 
Q 666 556 975 473 
Q 1284 391 1588 391 
Q 1994 391 2212 530 
Q 2431 669 2431 922 
Q 2431 1156 2273 1281 
Q 2116 1406 1581 1522 
L 1381 1569 
Q 847 1681 609 1914 
Q 372 2147 372 2553 
Q 372 3047 722 3315 
Q 1072 3584 1716 3584 
Q 2034 3584 2315 3537 
Q 2597 3491 2834 3397 
z
" transform="scale(0.015625)"/>
       <path id="DejaVuSans-29" d="M 513 4856 
L 1013 4856 
Q 1481 4119 1714 3412 
Q 1947 2706 1947 2009 
Q 1947 1309 1714 600 
Q 1481 -109 1013 -844 
L 513 -844 
Q 928 -128 1133 580 
Q 1338 1288 1338 2009 
Q 1338 2731 1133 3434 
Q 928 4138 513 4856 
z
" transform="scale(0.015625)"/>
      </defs>
      <use xlink:href="#DejaVuSans-74"/>
      <use xlink:href="#DejaVuSans-69" x="39.208984"/>
      <use xlink:href="#DejaVuSans-6d" x="66.992188"/>
      <use xlink:href="#DejaVuSans-65" x="164.404297"/>
      <use xlink:href="#DejaVuSans-28" x="225.927734"/>
      <use xlink:href="#DejaVuSans-73" x="264.941406"/>
      <use xlink:href="#DejaVuSans-29" x="317.041016"/>
     </g>
    </g>
   </g>
   <g id="matplotlib.axis_2">
    <g id="ytick_1">
     <g id="line2d_9">
      <defs>
       <path id="m47f67830fe" d="M 0 0 
L -3.5 0 
" style="stroke: #000000; stroke-width: 0.8"/>
      </defs>
      <g>
       <use xlink:href="#m47f67830fe" x="57.6" y="307.584" style="stroke: #000000; stroke-width: 0.8"/>
      </g>
     </g>
     <g id="text_10">
      <!-- 0 -->
      <g transform="translate(44.2375 311.383219)scale(0.1 -0.1)">
       <use xlink:href="#DejaVuSans-30"/>
      </g>
     </g>
    </g>
    <g id="ytick_2">
     <g id="line2d_10">
      <g>
       <use xlink:href="#m47f67830fe" x="57.6" y="263.232" style="stroke: #000000; stroke-width: 0.8"/>
      </g>
     </g>
     <g id="text_11">
      <!-- 50 -->
      <g transform="translate(37.875 267.031219)scale(0.1 -0.1)">
       <use xlink:href="#DejaVuSans-35"/>
       <use xlink:href="#DejaVuSans-30" x="63.623047"/>
      </g>
     </g>
    </g>
    <g id="ytick_3">
     <g id="line2d_11">
      <g>
       <use xlink:href="#m47f67830fe" x="57.6" y="218.88" style="stroke: #000000; stroke-width: 0.8"/>
      </g>
     </g>
     <g id="text_12">
      <!-- 100 -->
      <g transform="translate(31.5125 222.679219)scale(0.1 -0.1)">
       <use xlink:href="#DejaVuSans-31"/>
       <use xlink:href="#DejaVuSans-30" x="63.623047"/>
       <use xlink:href="#DejaVuSans-30" x="127.246094"/>
      </g>
     </g>
    </g>
    <g id="ytick_4">
     <g id="line2d_12">
      <g>
       <use xlink:href="#m47f67830fe" x="57.6" y="174.528" style="stroke: #000000; stroke-width: 0.8"/>
      </g>
     </g>
     <g id="text_13">
      <!-- 150 -->
      <g transform="translate(31.5125 178.327219)scale(0.1 -0.1)">
       <use xlink:href="#DejaVuSans-31"/>
       <use xlink:href="#DejaVuSans-35" x="63.623047"/>
       <use xlink:href="#DejaVuSans-30" x="127.246094"/>
      </g>
     </g>
    </g>
    <g id="ytick_5">
     <g id="line2d_13">
      <g>
       <use xlink:href="#m47f67830fe" x="57.6" y="130.176" style="stroke: #000000; stroke-width: 0.8"/>
      </g>
     </g>
     <g id="text_14">
      <!-- 200 -->
      <g transform="translate(31.5125 133.975219)scale(0.1 -0.1)">
       <use xlink:href="#DejaVuSans-32"/>
       <use xlink:href="#DejaVuSans-30" x="63.623047"/>
       <use xlink:href="#DejaVuSans-30" x="127.246094"/>
      </g>
     </g>
    </g>
    <g id="ytick_6">
     <g id="line2d_14">
      <g>
       <use xlink:href="#m47f67830fe" x="57.6" y="85.824" style="stroke: #000000; stroke-width: 0.8"/>
      </g>
     </g>
     <g id="text_15">
      <!-- 250 -->
      <g transform="translate(31.5125 89.623219)scale(0.1 -0.1)">
       <use xlink:href="#DejaVuSans-32"/>
       <use xlink:href="#DejaVuSans-35" x="63.623047"/>
       <use xlink:href="#DejaVuSans-30" x="127.246094"/>
      </g>
     </g>
    </g>
    <g id="ytick_7">
     <g id="line2d_15">
      <g>
       <use xlink:href="#m47f67830fe" x="57.6" y="41.472" style="stroke: #000000; stroke-width: 0.8"/>
      </g>
     </g>
     <g id="text_16">
      <!-- 300 -->
      <g transform="translate(31.5125 45.271219)scale(0.1 -0.1)">
       <use xlink:href="#DejaVuSans-33"/>
       <use xlink:href="#DejaVuSans-30" x="63.623047"/>
       <use xlink:href="#DejaVuSans-30" x="127.246094"/>
      </g>
     </g>
    </g>
    <g id="text_17">
     <!-- Mbps -->
     <g transform="translate(25.432812 187.795187)rotate(-90)scale(0.1 -0.1)">
      <defs>
       <path id="DejaVuSans-4d" d="M 628 4666 
L 1569 4666 
L 2759 1491 
L 3956 4666 
L 4897 4666 
L 4897 0 
L 4281 0 
L 4281 4097 
L 3078 897 
L 2444 897 
L 1241 4097 
L 1241 0 
L 628 0 
L 628 4666 
z
" transform="scale(0.015625)"/>
       <path id="DejaVuSans-62" d="M 3116 1747 
Q 3116 2381 2855 2742 
Q 2594 3103 2138 3103 
Q 1681 3103 1420 2742 
Q 1159 2381 1159 1747 
Q 1159 1113 1420 752 
Q 1681 391 2138 391 
Q 2594 391 2855 752 
Q 3116 1113 3116 1747 
z
M 1159 2969 
Q 1341 3281 1617 3432 
Q 1894 3584 2278 3584 
Q 2916 3584 3314 3078 
Q 3713 2572 3713 1747 
Q 3713 922 3314 415 
Q 2916 -91 2278 -91 
Q 1894 -91 1617 61 
Q 1341 213 1159 525 
L 1159 0 
L 581 0 
L 581 4863 
L 1159 4863 
L 1159 2969 
z
" transform="scale(0.015625)"/>
       <path id="DejaVuSans-70" d="M 1159 525 
L 1159 -1331 
L 581 -1331 
L 581 3500 
L 1159 3500 
L 1159 2969 
Q 1341 3281 1617 3432 
Q 1894 3584 2278 3584 
Q 2916 3584 3314 3078 
Q 3713 2572 3713 1747 
Q 3713 922 3314 415 
Q 2916 -91 2278 -91 
Q 1894 -91 1617 61 
Q 1341 213 1159 525 
z
M 3116 1747 
Q 3116 2381 2855 2742 
Q 2594 3103 2138 3103 
Q 1681 3103 1420 2742 
Q 1159 2381 1159 1747 
Q 1159 1113 1420 752 
Q 1681 391 2138 391 
Q 2594 391 2855 752 
Q 3116 1113 3116 1747 
z
" transform="scale(0.015625)"/>
      </defs>
      <use xlink:href="#DejaVuSans-4d"/>
      <use xlink:href="#DejaVuSans-62" x="86.279297"/>
      <use xlink:href="#DejaVuSans-70" x="149.755859"/>
      <use xlink:href="#DejaVuSans-73" x="213.232422"/>
     </g>
    </g>
   </g>
   <g id="line2d_16">
    <path d="M 73.832727 293.29474 
L 74.021916 298.868812 
L 74.116301 298.176721 
L 74.210904 300.108434 
L 74.402285 295.592558 
L 74.591803 301.921843 
L 74.686081 296.632321 
L 74.780233 299.112329 
L 74.874438 291.752358 
L 74.968715 301.110952 
L 75.15742 296.070487 
L 75.349386 300.337471 
L 75.632585 295.121112 
L 75.726794 304.34251 
L 75.821667 299.202113 
L 75.916418 302.283246 
L 76.010824 302.086735 
L 76.204785 304.095058 
L 76.395493 303.013083 
L 76.490294 298.810136 
L 76.586364 302.322266 
L 76.688549 297.02665 
L 76.782717 303.591494 
L 76.877172 300.65972 
L 77.066208 286.622717 
L 77.16105 293.706353 
L 77.25523 215.066456 
L 77.443706 291.758644 
L 77.540163 255.171666 
L 77.63792 261.216457 
L 77.829805 304.023335 
L 77.924343 299.949834 
L 78.023523 296.405714 
L 78.119122 297.621384 
L 78.213666 305.412223 
L 78.403469 302.443106 
L 78.592765 305.850095 
L 78.68964 305.383761 
L 78.784134 305.90726 
L 78.879177 304.069954 
L 79.084047 305.976983 
L 79.178216 304.74752 
L 79.272846 301.043933 
L 79.479535 303.268629 
L 79.573737 303.197523 
L 79.765819 298.610284 
L 79.860641 297.968107 
L 80.053135 299.71303 
L 80.242599 296.753921 
L 80.434704 305.064695 
L 80.529105 306.112544 
L 80.817748 303.729803 
L 80.913521 304.547388 
L 81.007673 303.311799 
L 81.102935 305.257666 
L 81.294412 304.031758 
L 81.392376 300.759316 
L 81.487067 305.528971 
L 81.58139 304.320958 
L 81.770792 297.41523 
L 81.962672 302.597324 
L 82.257505 306.388389 
L 82.35207 305.138112 
L 82.446429 305.933633 
L 82.540697 303.6723 
L 82.635464 305.294412 
L 82.925946 301.895182 
L 83.029678 302.113993 
L 83.126118 302.745268 
L 83.223332 304.286792 
L 83.41188 300.743692 
L 83.507788 302.539341 
L 83.609014 301.311222 
L 83.704058 302.714878 
L 83.79826 299.358569 
L 84.179583 305.647368 
L 84.274 304.448651 
L 84.370703 305.101134 
L 84.560646 303.384073 
L 84.655733 302.990844 
L 84.750165 305.079076 
L 84.939828 301.23369 
L 85.128613 303.354213 
L 85.319017 303.871958 
L 85.41651 305.701271 
L 85.607141 302.855875 
L 85.702235 299.331113 
L 85.796796 299.587197 
L 85.987101 304.049069 
L 86.179584 305.444311 
L 86.276469 302.727064 
L 86.371261 294.67853 
L 86.466152 304.739427 
L 86.562093 303.521487 
L 86.65642 304.44281 
L 86.750909 300.415675 
L 86.845928 302.500672 
L 86.940472 300.394072 
L 87.037563 302.472387 
L 87.133337 301.178065 
L 87.22774 303.389951 
L 87.416801 298.797532 
L 87.511405 284.14893 
L 87.605562 298.029649 
L 87.699711 291.390024 
L 87.794687 294.85703 
L 87.890401 302.477861 
L 87.987905 291.02492 
L 88.177062 305.005805 
L 88.272021 300.924786 
L 88.36733 301.546039 
L 88.461661 297.966574 
L 88.555896 300.755501 
L 88.650354 297.663494 
L 88.746479 302.772675 
L 88.840727 299.571965 
L 88.935062 301.861095 
L 89.030154 299.068612 
L 89.127182 300.180108 
L 89.221772 305.458236 
L 89.316611 299.902335 
L 89.601123 304.67384 
L 89.790091 293.165458 
L 89.978665 302.903984 
L 90.072826 303.147752 
L 90.167692 302.45529 
L 90.358417 305.089067 
L 90.453344 304.55444 
L 90.548909 306.413955 
L 90.738792 301.933444 
L 90.931561 305.177548 
L 91.120055 296.302812 
L 91.214555 298.015482 
L 91.308901 294.902954 
L 91.403053 285.778991 
L 91.6937 301.013628 
L 91.979019 294.157599 
L 92.172398 296.434218 
L 92.266892 296.114241 
L 92.456985 293.596857 
L 92.557644 299.462147 
L 92.655306 299.26597 
L 92.753624 302.976326 
L 92.853271 299.866058 
L 92.948549 304.287983 
L 93.043863 302.538498 
L 93.14033 302.985669 
L 93.234515 305.015327 
L 93.424199 302.919815 
L 93.613498 299.745181 
L 93.803327 304.18095 
L 93.897951 300.038357 
L 94.001456 305.055415 
L 94.096577 304.39356 
L 94.19466 306.429447 
L 94.386715 305.091093 
L 94.483505 305.976318 
L 94.672139 286.786204 
L 94.860492 305.396091 
L 94.955132 303.342566 
L 95.054186 301.372888 
L 95.148748 295.456344 
L 95.244191 298.655737 
L 95.339567 288.332714 
L 95.528693 299.793569 
L 95.624579 301.236717 
L 95.719312 300.254211 
L 95.90907 289.74369 
L 96.003342 293.048147 
L 96.100744 289.012818 
L 96.29283 299.079365 
L 96.387008 303.22994 
L 96.481897 298.773108 
L 96.576486 304.526371 
L 96.678172 303.270661 
L 96.772998 303.891397 
L 96.867743 302.273328 
L 96.967533 306.080463 
L 97.063155 303.776059 
L 97.266956 304.907732 
L 97.459584 299.881937 
L 97.647916 304.650079 
L 97.742781 302.24179 
L 97.935352 305.027493 
L 98.034431 300.415655 
L 98.322574 305.913034 
L 98.519349 295.089174 
L 98.613708 295.163674 
L 98.812899 304.414105 
L 98.907113 295.631974 
L 99.099505 302.89551 
L 99.194294 298.268455 
L 99.382766 304.615561 
L 99.573634 302.041462 
L 99.668024 303.465711 
L 99.762187 303.072304 
L 99.857889 301.755095 
L 99.952268 303.106059 
L 100.046454 298.54931 
L 100.141266 302.309583 
L 100.235706 302.28586 
L 100.335105 303.954352 
L 100.43499 303.619953 
L 100.529532 300.361175 
L 100.625321 303.872681 
L 100.719623 303.073385 
L 100.814234 304.822581 
L 100.908395 293.159641 
L 101.098329 300.839486 
L 101.288393 294.716617 
L 101.477126 295.039855 
L 101.571367 279.385285 
L 101.760558 291.49483 
L 101.854778 292.448159 
L 101.949006 289.965239 
L 102.043413 289.984409 
L 102.138621 297.950315 
L 102.233701 296.275195 
L 102.422697 290.199045 
L 102.516862 291.641237 
L 102.705798 277.438799 
L 102.802445 294.808247 
L 102.896666 294.737794 
L 102.991525 292.881307 
L 103.088678 286.830124 
L 103.183183 295.494079 
L 103.28448 293.066726 
L 103.378809 297.474816 
L 103.472987 289.009761 
L 103.56729 270.160571 
L 103.665138 296.031275 
L 103.761609 291.844479 
L 103.855878 297.421819 
L 103.950095 296.694483 
L 104.049243 297.907631 
L 104.144157 295.357275 
L 104.333355 298.728856 
L 104.525151 296.067393 
L 104.619407 290.013065 
L 104.809282 299.3705 
L 104.903596 300.584902 
L 105.093772 298.634718 
L 105.188619 296.143298 
L 105.284495 299.965249 
L 105.473236 288.95084 
L 105.662175 298.184144 
L 105.756553 302.000971 
L 105.850852 293.196131 
L 105.945601 298.119558 
L 106.134502 296.266078 
L 106.230437 304.889933 
L 106.516684 296.412957 
L 106.707252 299.096704 
L 106.801586 298.073647 
L 106.990318 295.213276 
L 107.085614 300.691593 
L 107.369124 296.764606 
L 107.463636 280.873279 
L 107.558582 298.245244 
L 107.74695 283.551087 
L 107.93766 299.318396 
L 108.03181 298.901216 
L 108.128257 300.028288 
L 108.222475 294.185718 
L 108.317442 299.753606 
L 108.412435 297.142504 
L 108.601365 279.287864 
L 108.695552 296.675508 
L 108.789713 291.97142 
L 108.884305 298.032157 
L 108.978483 290.506912 
L 109.072687 291.201103 
L 109.167038 289.781721 
L 109.356055 300.778772 
L 109.4505 298.610508 
L 109.545966 299.001839 
L 109.737213 305.144387 
L 109.832672 303.072192 
L 110.021117 291.906838 
L 110.115707 300.529062 
L 110.211791 299.669549 
L 110.400247 304.243666 
L 110.494531 300.909613 
L 110.590104 301.54656 
L 110.684959 297.764059 
L 110.874025 303.252763 
L 111.062665 300.785299 
L 111.156887 294.781877 
L 111.251813 302.159386 
L 111.346256 293.880181 
L 111.440465 298.983108 
L 111.629707 294.921456 
L 111.822294 303.013365 
L 111.91659 303.273594 
L 112.011296 304.117796 
L 112.105928 303.315835 
L 112.200143 299.988176 
L 112.295259 304.05572 
L 112.484249 290.067824 
L 112.672895 302.470971 
L 112.864823 302.35841 
L 112.959191 304.849367 
L 113.055348 304.29818 
L 113.155502 299.67016 
L 113.351163 303.743547 
L 113.446188 302.712438 
L 113.540583 300.286353 
L 113.640279 302.313902 
L 113.734602 301.726872 
L 113.82902 302.324512 
L 114.206223 287.777247 
L 114.397367 301.73807 
L 114.491795 295.013809 
L 114.680494 300.577093 
L 114.775396 301.724128 
L 114.966533 300.08844 
L 115.068774 300.565524 
L 115.167514 296.374523 
L 115.261698 304.49848 
L 115.453113 299.182773 
L 115.642 302.58195 
L 115.736515 298.571753 
L 115.925531 301.758102 
L 116.115407 240.507207 
L 116.398054 264.315667 
L 116.492806 300.360704 
L 116.58716 298.007571 
L 116.681379 299.712635 
L 116.775868 295.883929 
L 116.870742 265.786746 
L 116.966883 304.774205 
L 117.062892 302.601824 
L 117.251587 302.608817 
L 117.443256 298.817733 
L 117.632153 294.226924 
L 117.823361 303.712739 
L 117.917578 300.20562 
L 118.106034 304.522145 
L 118.200744 303.500324 
L 118.295345 303.634787 
L 118.389564 303.526361 
L 118.672819 295.840372 
L 119.14619 284.788499 
L 119.240441 279.776487 
L 119.429423 300.927544 
L 119.523703 288.976607 
L 119.712618 299.315392 
L 119.806915 298.815095 
L 119.901225 300.395251 
L 119.995619 299.251038 
L 120.089868 301.266661 
L 120.375896 293.35478 
L 120.470174 294.904582 
L 120.564328 293.81673 
L 120.848571 298.820558 
L 120.9439 301.422445 
L 121.038173 300.158338 
L 121.13378 302.665045 
L 121.322574 299.124848 
L 121.417417 300.889514 
L 121.511706 299.001152 
L 121.7012 300.272795 
L 121.795753 292.224165 
L 121.892307 300.927417 
L 121.986855 300.207216 
L 122.0828 290.064056 
L 122.27194 302.156342 
L 122.36689 296.377579 
L 122.557292 300.494362 
L 122.746946 292.256583 
L 122.843008 301.768826 
L 122.937407 297.653683 
L 123.031724 300.235045 
L 123.126027 293.025842 
L 123.220217 294.097414 
L 123.316073 297.170439 
L 123.411219 290.763963 
L 123.505901 301.387083 
L 123.601791 291.9393 
L 123.7902 302.503563 
L 123.980979 291.800189 
L 124.17022 303.115629 
L 124.264666 296.845264 
L 124.360175 300.551176 
L 124.454641 299.279489 
L 124.548966 291.278573 
L 124.643813 299.44016 
L 124.739368 296.990747 
L 124.833561 298.788049 
L 125.117729 291.438386 
L 125.212928 294.975005 
L 125.30866 289.542782 
L 125.500271 293.322297 
L 125.595196 294.436746 
L 125.878923 280.654879 
L 125.974605 294.368747 
L 126.164944 283.128092 
L 126.260453 285.521809 
L 126.355306 276.429751 
L 126.449692 281.158367 
L 126.544037 271.150146 
L 126.732416 283.936818 
L 126.82693 279.60582 
L 127.015351 295.638262 
L 127.110103 295.081185 
L 127.204646 288.736357 
L 127.396913 305.086368 
L 127.497682 304.578386 
L 127.592111 301.147993 
L 127.686559 302.911701 
L 127.781927 300.619197 
L 127.876145 282.777391 
L 128.162882 299.941815 
L 128.257123 294.875708 
L 128.351497 295.558466 
L 128.45013 300.779988 
L 128.544638 296.987066 
L 128.641943 298.556044 
L 128.736292 287.096091 
L 128.831887 302.804432 
L 128.926043 297.220148 
L 129.117495 304.949055 
L 129.214685 303.219263 
L 129.309908 304.570939 
L 129.404783 303.267261 
L 129.499421 305.199122 
L 129.593611 300.958614 
L 129.691508 303.846443 
L 129.785752 303.826308 
L 129.881442 301.564173 
L 129.975621 292.652192 
L 130.070508 294.713018 
L 130.164687 300.507313 
L 130.26817 298.604771 
L 130.362785 303.399248 
L 130.457331 299.923216 
L 130.553042 303.142492 
L 130.743613 300.8115 
L 130.837796 292.701038 
L 130.932024 298.986382 
L 131.027436 295.684343 
L 131.121616 283.340627 
L 131.215954 285.643217 
L 131.310146 295.04065 
L 131.404653 292.192531 
L 131.594965 293.764258 
L 131.784097 290.431209 
L 131.878412 291.587206 
L 132.066974 300.680236 
L 132.161262 294.011407 
L 132.255416 261.604855 
L 132.353466 267.143393 
L 132.449873 304.642425 
L 132.549114 301.41993 
L 132.744448 304.443069 
L 132.934151 306.346137 
L 133.03042 305.459849 
L 133.125135 302.03787 
L 133.219469 305.927312 
L 133.319025 303.218072 
L 133.413677 303.674846 
L 133.702072 305.997617 
L 133.802791 303.954411 
L 133.902424 305.221727 
L 134.091111 300.476708 
L 134.385066 304.759312 
L 134.479556 304.455741 
L 134.575488 305.004996 
L 134.669724 304.676307 
L 134.766 304.913037 
L 134.86209 302.915219 
L 134.958233 304.315326 
L 135.053859 304.125053 
L 135.248718 299.391409 
L 135.536022 303.349985 
L 135.630407 301.116488 
L 135.724562 301.587 
L 135.819822 299.338913 
L 135.915126 302.966159 
L 136.010961 301.174045 
L 136.105676 302.000926 
L 136.296582 290.251504 
L 136.392287 299.035999 
L 136.582932 290.83397 
L 136.774065 297.20623 
L 136.868604 297.714247 
L 136.967373 300.829259 
L 137.062142 300.511992 
L 137.156355 278.562385 
L 137.25204 298.312208 
L 137.346511 294.869179 
L 137.442988 303.340634 
L 137.538342 301.192684 
L 137.822047 303.867357 
L 137.916772 301.99925 
L 138.010928 304.405897 
L 138.105093 300.006083 
L 138.200018 303.738848 
L 138.389188 301.638805 
L 138.578055 304.113209 
L 138.768976 301.775646 
L 138.86371 295.013584 
L 139.058643 302.987172 
L 139.153368 301.271396 
L 139.247873 303.007243 
L 139.535702 297.665446 
L 139.630444 299.774485 
L 139.724952 291.831188 
L 139.819284 295.933121 
L 139.914132 275.648638 
L 140.011046 305.696944 
L 140.10523 297.023988 
L 140.199502 300.330605 
L 140.299467 297.69944 
L 140.395699 269.324503 
L 140.686908 304.14154 
L 140.787969 305.219742 
L 140.884222 304.134015 
L 140.97983 304.714027 
L 141.073994 304.149395 
L 141.263138 305.078466 
L 141.357425 302.758096 
L 141.461171 305.814692 
L 141.555781 301.850045 
L 141.65506 303.436324 
L 141.74975 297.753298 
L 141.844396 298.155855 
L 141.942691 296.412845 
L 142.037127 297.501351 
L 142.226205 295.728362 
L 142.321219 298.234765 
L 142.609324 281.468992 
L 142.70381 280.989904 
L 142.896303 303.182329 
L 143.090263 295.062538 
L 143.278668 301.041464 
L 143.467697 297.744088 
L 143.656918 250.184118 
L 143.753311 300.110276 
L 143.848233 297.910019 
L 144.044272 299.506795 
L 144.13944 299.777883 
L 144.339353 305.099311 
L 144.530023 299.319436 
L 144.62433 302.738636 
L 144.909449 300.03327 
L 145.00373 302.117887 
L 145.294785 293.810351 
L 145.484135 300.811619 
L 145.578948 294.466231 
L 145.673224 295.95047 
L 145.767405 295.737998 
L 145.861754 294.18931 
L 145.957168 271.075512 
L 146.05166 304.936644 
L 146.146207 292.566787 
L 146.24043 304.0155 
L 146.33643 296.334304 
L 146.432176 303.578461 
L 146.526327 297.907263 
L 146.630322 305.850412 
L 146.725553 301.598156 
L 146.820492 301.757668 
L 146.92045 305.502732 
L 147.015321 304.883967 
L 147.203877 301.239957 
L 147.393637 304.821955 
L 147.48784 299.649962 
L 147.583267 299.774157 
L 147.681821 300.128796 
L 147.781857 299.688864 
L 148.067236 305.047158 
L 148.161597 303.384936 
L 148.45733 306.253375 
L 148.646487 296.823847 
L 148.742945 297.461598 
L 148.837361 297.677668 
L 149.12262 304.342566 
L 149.217344 301.31606 
L 149.312489 303.105564 
L 149.50646 298.036108 
L 149.602453 299.54865 
L 149.792072 304.378449 
L 149.89357 304.022464 
L 150.085962 298.92823 
L 150.276679 304.98165 
L 150.470546 300.392257 
L 150.566301 300.828599 
L 150.662821 304.081122 
L 150.757131 303.081559 
L 150.8541 305.235691 
L 150.949043 304.994358 
L 151.137374 299.940386 
L 151.23162 281.182644 
L 151.326144 236.150962 
L 151.420446 302.432592 
L 151.514619 301.178397 
L 151.611065 290.77211 
L 151.705978 291.970814 
L 151.80506 294.338993 
L 151.899437 301.995323 
L 151.99434 298.909117 
L 152.088552 285.272167 
L 152.372286 299.335483 
L 152.466856 304.229855 
L 152.561266 303.702823 
L 152.6558 300.062349 
L 152.75396 304.692585 
L 152.848778 303.749682 
L 152.943372 304.027339 
L 153.038145 302.552369 
L 153.132354 280.878159 
L 153.416983 304.652433 
L 153.511756 304.433735 
L 153.60591 302.170668 
L 153.700354 304.129036 
L 153.796242 303.583974 
L 153.986823 299.904459 
L 154.080999 300.188167 
L 154.176865 302.457123 
L 154.273022 300.426931 
L 154.368427 302.821284 
L 154.462683 299.294302 
L 154.556838 303.262349 
L 154.651713 303.070356 
L 154.749185 306.01052 
L 154.843462 303.594997 
L 154.938232 304.947966 
L 155.034755 303.550333 
L 155.129384 306.095834 
L 155.322348 302.891262 
L 155.417463 305.137246 
L 155.511691 302.993483 
L 155.607487 304.490469 
L 155.701874 295.971974 
L 155.897112 305.438746 
L 155.999839 304.173323 
L 156.096869 295.861153 
L 156.192241 304.820356 
L 156.286758 304.764782 
L 156.381839 303.908238 
L 156.479511 301.453047 
L 156.574496 294.513034 
L 156.669253 296.242931 
L 156.763844 289.757592 
L 156.955487 301.228303 
L 157.050089 303.825297 
L 157.144421 303.399172 
L 157.23944 304.247452 
L 157.336173 299.938866 
L 157.434738 300.257645 
L 157.529395 301.35869 
L 157.626974 300.210857 
L 157.723566 300.871303 
L 157.912977 295.293423 
L 158.008818 301.005694 
L 158.200593 298.050812 
L 158.295289 304.347698 
L 158.389564 302.675759 
L 158.484048 303.195689 
L 158.57973 302.256053 
L 158.674184 303.521632 
L 158.868033 296.974107 
L 158.964574 301.157899 
L 159.155591 298.046929 
L 159.252726 301.631827 
L 159.346949 297.472496 
L 159.538928 302.019687 
L 159.728417 301.442268 
L 159.917644 283.023817 
L 160.202186 169.444371 
L 160.39053 42.590309 
L 160.579722 55.217921 
L 160.768226 303.380838 
L 160.866029 302.996103 
L 160.960247 297.240576 
L 161.054398 278.855326 
L 161.338382 302.81163 
L 161.433655 301.702345 
L 161.623251 303.490512 
L 161.814579 290.314762 
L 161.911165 293.691628 
L 162.005706 296.328538 
L 162.101981 302.518459 
L 162.197586 300.386096 
L 162.385905 284.65881 
L 162.480641 296.664501 
L 162.575325 283.893102 
L 162.66964 287.750308 
L 162.763798 286.786199 
L 162.857991 279.272961 
L 163.048496 287.771755 
L 163.142846 287.691856 
L 163.331453 282.802315 
L 163.42622 283.82446 
L 163.710999 294.431371 
L 163.806152 292.253678 
L 163.901097 292.745673 
L 163.995476 290.188494 
L 164.089804 290.270345 
L 164.184766 292.827762 
L 164.280291 290.035334 
L 164.375801 298.590872 
L 164.470344 297.372956 
L 164.564539 289.547362 
L 164.659403 297.863431 
L 164.94282 287.085523 
L 165.039996 303.883224 
L 165.229518 287.461672 
L 165.328668 305.479928 
L 165.422939 301.900724 
L 165.517959 304.760627 
L 165.612204 304.368314 
L 165.706415 300.618195 
L 165.802171 302.652658 
L 165.896569 301.725538 
L 165.99077 304.532313 
L 166.085303 300.695774 
L 166.17952 304.685329 
L 166.369815 302.495541 
L 166.465846 302.546219 
L 166.560093 304.06801 
L 166.654453 302.485628 
L 166.749065 304.833343 
L 166.843863 301.992442 
L 166.940248 304.630026 
L 167.128986 301.923611 
L 167.223149 304.113971 
L 167.506136 297.03211 
L 167.605789 303.126351 
L 167.794765 299.757283 
L 167.991441 302.043912 
L 168.085653 299.084491 
L 168.180081 268.345178 
L 168.274528 300.192534 
L 168.369548 285.799674 
L 168.559567 298.27837 
L 168.654101 298.631782 
L 168.753552 297.919097 
L 168.847888 295.514544 
L 168.946334 297.205977 
L 169.040896 294.520706 
L 169.235128 298.591084 
L 169.32944 297.105381 
L 169.425043 299.165915 
L 169.519219 294.130775 
L 169.613686 296.00933 
L 169.712898 293.968631 
L 169.808943 304.975589 
L 169.904689 304.571906 
L 170.106082 301.455082 
L 170.20041 302.878105 
L 170.393177 301.232298 
L 170.487751 296.895953 
L 170.58226 301.07996 
L 170.772393 295.519285 
L 170.867179 300.643934 
L 170.96144 299.23011 
L 171.055737 299.472204 
L 171.151508 301.575257 
L 171.246876 298.75879 
L 171.437551 304.403873 
L 171.532333 302.929454 
L 171.627605 299.197842 
L 171.817038 305.110391 
L 172.008536 301.210502 
L 172.103323 297.675364 
L 172.201789 301.546913 
L 172.390192 299.620564 
L 172.484625 299.330958 
L 172.591522 304.006168 
L 172.689645 301.316805 
L 172.789128 303.501844 
L 172.884311 302.724167 
L 172.980776 298.359549 
L 173.076303 299.189559 
L 173.276521 303.369857 
L 173.466657 295.103942 
L 173.560831 286.009643 
L 173.655023 288.716077 
L 173.751666 302.949367 
L 173.853155 301.694223 
L 174.136952 285.116643 
L 174.326003 301.187131 
L 174.420338 303.255635 
L 174.514586 280.748073 
L 174.706116 298.478862 
L 174.802769 302.865549 
L 174.897016 301.034583 
L 175.085917 303.845547 
L 175.37462 291.101469 
L 175.469128 288.08806 
L 175.660839 299.781073 
L 175.849755 292.61981 
L 175.94398 285.769192 
L 176.227355 302.424121 
L 176.515551 300.167562 
L 176.609762 301.932877 
L 176.705304 294.271651 
L 176.89898 302.041807 
L 176.996216 300.976243 
L 177.095477 303.379795 
L 177.189763 300.42515 
L 177.378514 302.042194 
L 177.474111 301.822114 
L 177.669052 297.782604 
L 177.858497 303.603008 
L 177.953167 303.616964 
L 178.143747 302.971331 
L 178.238367 300.608748 
L 178.429089 304.103089 
L 178.523982 298.396864 
L 178.622531 298.750129 
L 178.910916 304.395444 
L 179.005169 303.657478 
L 179.100004 304.574135 
L 179.291158 300.743046 
L 179.386916 301.90658 
L 179.481173 302.655156 
L 179.578324 302.5083 
L 179.672565 303.125152 
L 179.771133 302.711776 
L 180.054171 298.296385 
L 180.243782 304.978087 
L 180.432945 301.373406 
L 180.621533 305.254252 
L 180.814353 302.077177 
L 180.90939 303.898451 
L 181.00371 303.01932 
L 181.098862 303.7821 
L 181.297735 306.522398 
L 181.491144 304.010499 
L 181.585925 305.295671 
L 181.682398 304.665334 
L 181.778246 302.770082 
L 181.87269 298.443243 
L 182.062907 300.995484 
L 182.163842 298.937314 
L 182.259432 304.256968 
L 182.353718 301.585998 
L 182.448887 302.926286 
L 182.544085 302.383175 
L 182.732862 294.904658 
L 182.924849 305.628617 
L 183.020478 302.537366 
L 183.114939 303.846291 
L 183.317133 302.967078 
L 183.411497 305.977739 
L 183.50587 303.343039 
L 183.600235 297.476386 
L 183.698274 298.048807 
L 183.888136 303.365292 
L 183.985958 298.254301 
L 184.080427 299.753196 
L 184.177745 304.920298 
L 184.463752 254.767483 
L 184.746634 74.518737 
L 184.840786 63.76434 
L 184.935109 128.633957 
L 185.029938 302.110313 
L 185.132963 300.005634 
L 185.324403 287.227972 
L 185.514492 305.095488 
L 185.610032 298.123209 
L 185.709602 302.935873 
L 185.803971 302.271565 
L 185.993052 305.561935 
L 186.087446 304.857596 
L 186.281209 302.718184 
L 186.375571 304.077691 
L 186.575795 301.004659 
L 186.675154 302.080878 
L 186.769439 305.765955 
L 186.866519 305.501759 
L 186.963733 303.964588 
L 187.153823 297.01886 
L 187.343066 304.292736 
L 187.533756 305.433594 
L 187.627986 304.444815 
L 187.722157 301.886333 
L 187.816726 304.719231 
L 187.911212 295.946717 
L 188.100561 301.721534 
L 188.195631 301.306738 
L 188.290237 302.609912 
L 188.384391 293.615136 
L 188.573455 297.925565 
L 188.667622 294.794143 
L 188.856151 301.843423 
L 188.952958 298.437792 
L 189.047686 300.442579 
L 189.236958 293.692414 
L 189.427876 299.588011 
L 189.522534 295.409939 
L 189.61739 296.293844 
L 189.712689 290.866968 
L 189.997743 298.910945 
L 190.186464 285.422994 
L 190.280938 281.300816 
L 190.375725 262.956488 
L 190.569984 301.446163 
L 190.669164 299.913748 
L 190.953746 306.092341 
L 191.048205 305.8087 
L 191.143027 303.646085 
L 191.332517 306.329837 
L 191.521906 301.521212 
L 191.624833 304.756665 
L 191.720372 304.632838 
L 191.815226 301.539931 
L 191.909381 278.79349 
L 192.01081 302.349511 
L 192.104997 297.328624 
L 192.199516 304.106309 
L 192.298749 303.999238 
L 192.393762 305.154477 
L 192.583489 295.179439 
L 192.771807 58.670034 
L 192.865973 60.48035 
L 192.960125 41.813209 
L 193.156006 295.351 
L 193.251991 305.779158 
L 193.444676 301.953823 
L 193.727247 231.294021 
L 193.916191 299.619688 
L 194.012549 303.510995 
L 194.106747 301.424911 
L 194.201023 304.115832 
L 194.295232 303.055238 
L 194.489526 306.216386 
L 194.678074 304.018002 
L 194.873805 305.234795 
L 194.969316 305.342016 
L 195.066329 299.754805 
L 195.354924 305.556447 
L 195.546158 304.020153 
L 195.641207 305.037008 
L 195.735463 301.579476 
L 195.829631 261.205308 
L 196.018252 302.880488 
L 196.209858 304.251053 
L 196.304048 300.832995 
L 196.398561 302.615253 
L 196.587502 300.14251 
L 196.681948 301.573757 
L 196.871602 297.698321 
L 196.969006 303.681246 
L 197.065587 295.461351 
L 197.254184 304.297677 
L 197.348721 295.856847 
L 197.537955 301.531907 
L 197.632725 292.828985 
L 197.822689 303.724097 
L 197.918003 303.530285 
L 198.014163 305.296446 
L 198.110913 299.313518 
L 198.211317 301.413576 
L 198.305625 289.858445 
L 198.399997 292.19054 
L 198.494148 299.879943 
L 198.590073 299.620287 
L 198.685039 300.436274 
L 198.779674 304.805089 
L 198.973314 297.145967 
L 199.163066 305.652008 
L 199.25738 303.627937 
L 199.362178 305.18427 
L 199.457239 304.207517 
L 199.552195 304.53246 
L 199.741083 300.479964 
L 199.835437 302.510511 
L 199.932115 300.254582 
L 200.028194 303.783944 
L 200.123577 302.902787 
L 200.219857 298.653145 
L 200.31548 301.330757 
L 200.409747 298.34274 
L 200.504006 300.462012 
L 200.598846 286.233149 
L 200.693102 288.487891 
L 200.976024 301.10103 
L 201.070209 292.35245 
L 201.260299 299.840703 
L 201.354554 301.653226 
L 201.542978 300.071402 
L 201.637134 296.041601 
L 201.732095 283.069872 
L 201.826634 298.857757 
L 201.920974 296.820428 
L 202.015894 302.056898 
L 202.111726 296.041877 
L 202.206999 302.118509 
L 202.303644 298.2567 
L 202.493948 301.837445 
L 202.588387 294.496827 
L 202.682974 297.511615 
L 202.777693 283.562145 
L 202.871951 288.930709 
L 202.966215 282.608586 
L 203.156757 303.726012 
L 203.256305 302.816453 
L 203.353174 304.261908 
L 203.447351 303.318389 
L 203.542444 304.183829 
L 203.641182 301.229284 
L 203.735921 303.308522 
L 203.832482 295.43295 
L 203.929261 295.880476 
L 204.023448 290.933516 
L 204.117729 292.736431 
L 204.21354 292.621245 
L 204.307858 289.825221 
L 204.496683 271.683023 
L 204.591005 283.336529 
L 204.779532 226.378611 
L 205.062618 255.13691 
L 205.25173 284.859 
L 205.345957 279.882864 
L 205.534742 284.509999 
L 205.628949 269.449509 
L 205.72348 287.65501 
L 205.817851 282.598528 
L 205.912021 285.426834 
L 206.007834 284.29242 
L 206.101987 285.041219 
L 206.196148 291.078331 
L 206.290837 287.267471 
L 206.385691 288.249828 
L 206.479908 285.159601 
L 206.574195 288.467976 
L 206.668799 287.591479 
L 206.763945 290.343484 
L 206.858138 286.188139 
L 206.95246 289.222155 
L 207.046914 288.525582 
L 207.141101 294.10533 
L 207.238485 293.707838 
L 207.431331 295.730743 
L 207.52699 291.638612 
L 207.622289 294.741768 
L 207.716583 293.726189 
L 208.18849 300.992717 
L 208.282815 296.732719 
L 208.377166 256.31957 
L 208.47312 296.367276 
L 208.567888 292.90359 
L 208.663117 302.773357 
L 208.855434 281.948536 
L 209.045052 297.765506 
L 209.139279 293.499907 
L 209.233517 294.041609 
L 209.330521 295.772513 
L 209.428784 295.284022 
L 209.618045 298.810227 
L 209.713834 299.57681 
L 209.808082 302.215895 
L 210.001082 297.912944 
L 210.189936 256.208901 
L 210.285688 301.352089 
L 210.37994 300.862256 
L 210.48057 302.964622 
L 210.574781 301.990634 
L 210.858862 295.59191 
L 211.049843 297.321449 
L 211.145326 297.434935 
L 211.242777 302.983273 
L 211.339268 300.621957 
L 211.531728 303.764191 
L 211.626069 301.818078 
L 211.815884 304.149843 
L 211.910251 300.813586 
L 212.004455 304.808629 
L 212.196129 302.611157 
L 212.296195 302.260532 
L 212.394039 286.853428 
L 212.583126 302.558465 
L 212.678054 304.14091 
L 212.773183 303.639874 
L 212.871644 302.068469 
L 212.966001 298.441199 
L 213.060224 301.927795 
L 213.154983 301.190815 
L 213.249243 295.641676 
L 213.343737 298.187931 
L 213.439253 294.532333 
L 213.534148 297.065661 
L 213.723084 295.476869 
L 213.818519 294.573273 
L 213.912766 296.807052 
L 214.101534 293.307206 
L 214.29067 296.417449 
L 214.384874 296.130879 
L 214.479078 298.794042 
L 214.578903 296.160197 
L 214.675524 299.568562 
L 214.963338 294.939701 
L 215.154083 296.835012 
L 215.343415 292.65704 
L 215.437679 296.397147 
L 215.532726 295.046544 
L 215.722189 297.00019 
L 215.820208 303.95001 
L 216.103964 300.14797 
L 216.199694 299.35475 
L 216.294176 300.088439 
L 216.388743 302.511146 
L 216.48706 300.17685 
L 216.586048 301.522531 
L 216.680242 298.995937 
L 216.77481 303.222865 
L 216.869126 302.723987 
L 216.964535 302.290358 
L 217.061631 297.967319 
L 217.156949 302.035351 
L 217.441707 291.726752 
L 217.631958 303.865706 
L 217.728099 298.459672 
L 217.829542 301.991082 
L 218.12598 300.253241 
L 218.222487 301.23269 
L 218.316714 299.464367 
L 218.410994 301.857453 
L 218.505155 297.724004 
L 218.601764 298.057104 
L 218.699344 299.338387 
L 218.795313 293.031247 
L 218.892603 299.886393 
L 218.987383 299.095738 
L 219.082928 301.177064 
L 219.179341 297.212003 
L 219.374605 299.914065 
L 219.469467 299.948024 
L 219.660637 296.161804 
L 219.756759 298.616575 
L 219.85124 295.084013 
L 219.947638 296.507444 
L 220.042197 299.961075 
L 220.237443 296.892077 
L 220.332246 298.89049 
L 220.615413 283.969896 
L 220.710142 286.531913 
L 220.807825 290.625592 
L 220.902078 300.940131 
L 221.093623 297.203388 
L 221.187823 300.868234 
L 221.28247 297.504866 
L 221.378352 301.77626 
L 221.473075 298.358407 
L 221.567536 304.046893 
L 221.949181 294.081066 
L 222.138026 282.801877 
L 222.327723 295.432998 
L 222.612633 303.738842 
L 222.801641 303.860886 
L 222.991901 298.222478 
L 223.086942 292.621021 
L 223.18193 304.063574 
L 223.276089 296.571519 
L 223.657918 302.677832 
L 223.755997 302.342416 
L 223.946646 304.391369 
L 224.04125 302.963332 
L 224.135864 284.925065 
L 224.326193 297.359708 
L 224.42041 292.129877 
L 224.514677 293.695679 
L 224.608861 297.173127 
L 224.703074 295.17169 
L 224.797293 300.943288 
L 224.891741 299.957033 
L 224.988287 304.819012 
L 225.08518 304.600979 
L 225.181899 305.283695 
L 225.466734 301.253521 
L 225.564028 303.763767 
L 225.658266 301.447035 
L 225.854963 303.957049 
L 225.950115 299.633058 
L 226.048512 304.969903 
L 226.145254 303.549495 
L 226.243426 304.688922 
L 226.338338 301.721755 
L 226.438239 304.158627 
L 226.537698 301.063832 
L 226.631911 302.727824 
L 226.822176 291.234985 
L 226.916541 288.392045 
L 227.296543 303.695433 
L 227.494343 285.723225 
L 227.685303 217.114131 
L 227.782066 231.979623 
L 228.064595 40.648143 
L 228.158769 52.122015 
L 228.351047 303.23477 
L 228.450177 304.559412 
L 228.549 304.197213 
L 228.645544 299.89768 
L 228.740115 304.657238 
L 228.836072 302.023723 
L 229.120226 281.886218 
L 229.214582 304.099055 
L 229.311327 303.423202 
L 229.405635 305.436419 
L 229.50038 303.818974 
L 229.604259 306.130383 
L 229.69866 303.743878 
L 229.88854 304.733947 
L 230.174938 302.34599 
L 230.368515 304.27772 
L 230.462732 301.623678 
L 230.651128 303.722739 
L 230.746483 302.866654 
L 230.94441 305.061399 
L 231.038683 305.859258 
L 231.321647 301.862267 
L 231.514836 303.877372 
L 231.798041 293.26755 
L 231.893806 293.953568 
L 231.991843 304.969907 
L 232.086073 303.408747 
L 232.180993 305.502107 
L 232.276456 303.51495 
L 232.370908 303.537363 
L 232.468286 304.438643 
L 232.562448 298.610906 
L 232.658469 305.406131 
L 232.84739 302.576447 
L 232.94211 304.889131 
L 233.036965 300.119109 
L 233.131654 305.795242 
L 233.32297 299.988593 
L 233.522881 304.940727 
L 233.721321 301.702984 
L 233.822661 303.024099 
L 233.916969 301.758839 
L 234.011515 302.049739 
L 234.296343 291.018543 
L 234.393116 302.865585 
L 234.489364 301.911362 
L 234.680297 300.046532 
L 234.779927 301.977223 
L 234.970354 293.185153 
L 235.069977 298.918699 
L 235.172969 297.871471 
L 235.267182 291.568521 
L 235.364623 303.544822 
L 235.554435 297.985876 
L 235.648794 298.259201 
L 235.744053 299.627246 
L 235.839021 294.512316 
L 236.027863 275.948658 
L 236.217496 302.720172 
L 236.312459 296.905201 
L 236.418097 301.830566 
L 236.606864 293.750681 
L 236.701122 300.765589 
L 236.890877 285.641522 
L 236.989492 290.762811 
L 237.177855 301.527125 
L 237.3683 291.376395 
L 237.462733 295.974967 
L 237.560175 291.873434 
L 237.749862 301.534988 
L 237.955859 300.657033 
L 238.052649 302.720778 
L 238.241519 300.47496 
L 238.347428 300.245559 
L 238.441814 302.125964 
L 238.536151 300.965822 
L 238.726567 304.477539 
L 238.824511 299.536755 
L 238.920194 300.765147 
L 239.110657 294.376542 
L 239.20486 294.65507 
L 239.299495 280.655614 
L 239.393668 293.028491 
L 239.488215 273.737416 
L 239.772512 299.20781 
L 240.05777 277.392986 
L 240.15192 269.80157 
L 240.246088 247.076624 
L 240.340693 249.8704 
L 240.529469 285.946423 
L 240.625168 291.527688 
L 240.814461 287.694013 
L 241.006245 299.351829 
L 241.102221 297.507617 
L 241.197052 298.228516 
L 241.291672 300.085733 
L 241.483519 293.819631 
L 241.580194 300.771407 
L 241.674714 299.316425 
L 241.769701 299.872499 
L 241.864864 301.603139 
L 241.959097 299.503949 
L 242.053254 300.158402 
L 242.244188 293.197311 
L 242.432732 300.175579 
L 242.528355 299.212582 
L 242.622975 295.071994 
L 242.71733 235.097377 
L 242.906864 300.002585 
L 243.095588 293.752763 
L 243.18994 297.073441 
L 243.28415 296.010234 
L 243.378807 300.811575 
L 243.567192 232.900843 
L 243.756796 296.104237 
L 243.852313 297.422727 
L 244.138362 282.068075 
L 244.328232 300.282489 
L 244.422457 286.22063 
L 244.516686 295.614005 
L 244.611319 290.468622 
L 244.800235 299.29901 
L 244.895256 298.276879 
L 244.990797 292.102846 
L 245.085063 301.139846 
L 245.180473 291.941639 
L 245.274965 293.270226 
L 245.558949 276.846609 
L 245.653102 278.910731 
L 245.747291 271.828123 
L 245.841837 222.432958 
L 246.124486 293.92325 
L 246.218684 291.353501 
L 246.314006 293.788293 
L 246.408416 291.660819 
L 246.502681 299.516493 
L 246.596877 295.021873 
L 246.69205 295.440078 
L 246.786484 297.114104 
L 246.975899 301.564865 
L 247.071121 301.183975 
L 247.165476 302.10195 
L 247.354984 299.076691 
L 247.449479 296.891526 
L 247.544393 287.560057 
L 247.638549 301.171624 
L 247.736837 299.728003 
L 247.837535 302.931919 
L 247.932952 296.37947 
L 248.027208 301.325102 
L 248.122664 296.240402 
L 248.217729 301.495908 
L 248.312223 298.547122 
L 248.50147 299.810978 
L 248.596207 297.806338 
L 248.790928 301.878223 
L 249.176583 286.548587 
L 249.366097 295.241852 
L 249.55648 290.908983 
L 249.745978 293.4365 
L 249.840376 289.857015 
L 250.029141 291.351555 
L 250.220271 300.660442 
L 250.314421 301.048951 
L 250.408893 300.000546 
L 250.506502 302.878844 
L 250.887777 293.279374 
L 251.076185 240.892765 
L 251.264928 261.873392 
L 251.359669 261.580811 
L 251.453826 285.85039 
L 251.642458 268.475444 
L 251.831707 300.695779 
L 251.92633 297.513504 
L 252.115995 301.687482 
L 252.210491 298.455534 
L 252.304719 298.55477 
L 252.398871 297.364554 
L 252.687924 301.706341 
L 252.782428 298.687471 
L 252.877281 274.237818 
L 252.972675 298.020771 
L 253.074847 296.908486 
L 253.169112 302.165368 
L 253.358698 298.539159 
L 253.452854 301.132104 
L 253.549879 300.166102 
L 253.646636 301.745589 
L 253.835784 292.846135 
L 254.025758 303.373079 
L 254.120017 299.056069 
L 254.214182 301.824677 
L 254.404555 288.848316 
L 254.498919 279.496954 
L 254.69484 302.491716 
L 254.789014 286.918215 
L 254.978141 301.063822 
L 255.07233 301.861699 
L 255.169148 300.31706 
L 255.272384 303.150623 
L 255.473825 299.118421 
L 255.569358 301.972119 
L 255.663711 300.468376 
L 255.75797 301.0791 
L 255.852127 300.179582 
L 256.138376 290.944472 
L 256.234702 291.962737 
L 256.330733 297.383766 
L 256.424949 288.397315 
L 256.709976 298.853213 
L 256.80457 293.908606 
L 256.902649 294.192283 
L 256.997065 295.174074 
L 257.091285 290.854777 
L 257.28176 300.316032 
L 257.375923 292.752573 
L 257.661861 302.29671 
L 257.756022 302.037934 
L 257.945442 300.276844 
L 258.039771 300.27889 
L 258.134099 301.189554 
L 258.229091 299.98342 
L 258.323283 292.407852 
L 258.513742 303.70875 
L 258.608257 300.378369 
L 258.708952 301.500121 
L 258.991523 295.16904 
L 259.08591 295.099626 
L 259.180493 297.489017 
L 259.274807 292.418477 
L 259.370902 293.773812 
L 259.560891 297.752899 
L 259.843602 277.975052 
L 259.938007 281.537544 
L 260.032171 298.46838 
L 260.129456 297.239361 
L 260.223698 299.061026 
L 260.413184 296.006988 
L 260.513353 298.537897 
L 260.607568 297.629125 
L 260.702249 292.822651 
L 260.797253 296.711638 
L 260.894128 292.443701 
L 260.988302 298.231296 
L 261.083434 294.371939 
L 261.177696 295.946207 
L 261.271865 291.550803 
L 261.366172 291.81564 
L 261.461055 295.91802 
L 261.651035 280.26713 
L 261.843569 287.734649 
L 261.938028 288.888084 
L 262.128339 297.275749 
L 262.223075 291.804373 
L 262.318664 296.474854 
L 262.419083 282.2953 
L 262.514411 299.356339 
L 262.702963 286.748022 
L 262.797453 286.492787 
L 262.891716 283.312592 
L 263.363805 299.531583 
L 263.457974 295.308825 
L 263.552753 296.265555 
L 263.649144 295.662309 
L 263.745271 295.938246 
L 263.934621 298.043566 
L 264.031512 288.24407 
L 264.125822 295.667031 
L 264.220246 295.513267 
L 264.41009 281.402705 
L 264.504251 233.239163 
L 264.694644 294.556525 
L 264.884521 293.853961 
L 265.073638 299.924528 
L 265.356541 295.843419 
L 265.450793 294.972888 
L 265.544982 298.974673 
L 265.640189 298.759058 
L 265.923468 282.818992 
L 266.112524 299.563321 
L 266.20678 281.102804 
L 266.301794 298.840312 
L 266.396185 296.754606 
L 266.490415 291.210352 
L 266.678915 297.086506 
L 266.871022 300.040933 
L 266.967115 301.310472 
L 267.064414 297.544546 
L 267.158765 301.815875 
L 267.254283 295.755697 
L 267.349424 303.362015 
L 267.445057 300.961198 
L 267.539671 295.677402 
L 267.634729 301.977486 
L 267.728982 300.269397 
L 267.917392 236.566754 
L 268.011558 234.764838 
L 268.106522 238.050164 
L 268.295957 300.343493 
L 268.390119 300.303714 
L 268.484291 242.856116 
L 268.679956 302.879136 
L 268.868541 295.873311 
L 268.967144 301.083297 
L 269.062245 291.579038 
L 269.25339 300.501413 
L 269.350516 300.51433 
L 269.446409 303.507759 
L 269.635725 298.236161 
L 269.730493 298.031144 
L 269.82505 296.156729 
L 269.919581 298.603677 
L 270.108748 284.679999 
L 270.297689 299.203549 
L 270.394075 296.221058 
L 270.489361 298.557487 
L 270.67816 294.58034 
L 270.772345 302.62327 
L 270.866945 302.131142 
L 270.961317 303.16273 
L 271.056725 301.961604 
L 271.151382 297.778281 
L 271.340025 302.234193 
L 271.434849 303.035705 
L 271.529029 298.817485 
L 271.720165 303.900582 
L 272.00337 298.246207 
L 272.200402 304.504668 
L 272.393969 301.433185 
L 272.489643 303.305082 
L 272.680713 301.420422 
L 272.778606 304.329637 
L 272.87314 299.962269 
L 272.96759 301.459989 
L 273.061798 295.874872 
L 273.156407 299.911757 
L 273.25258 298.607601 
L 273.34675 301.094302 
L 273.441561 297.508975 
L 273.536668 299.849434 
L 273.725249 284.772712 
L 273.819545 297.136103 
L 273.913699 296.130311 
L 274.115958 303.479516 
L 274.211168 300.855571 
L 274.305903 302.860759 
L 274.500293 301.799396 
L 274.597224 304.881044 
L 274.693227 303.246432 
L 274.787544 299.161666 
L 274.883592 301.58647 
L 274.978525 299.668928 
L 275.074535 302.853106 
L 275.359303 292.739216 
L 275.45491 298.374538 
L 275.549087 293.570858 
L 275.643247 277.836917 
L 275.832794 303.191053 
L 275.930033 300.744803 
L 276.024862 304.510296 
L 276.121008 304.246666 
L 276.314996 302.286837 
L 276.409175 301.81749 
L 276.503376 300.114875 
L 276.695902 301.192684 
L 276.790234 290.711154 
L 276.980796 298.571785 
L 277.077111 288.938016 
L 277.171315 291.659268 
L 277.266177 300.146025 
L 277.36191 300.139285 
L 277.460595 300.819134 
L 277.652929 299.603051 
L 277.749288 299.874365 
L 277.846259 300.724236 
L 277.940905 299.417775 
L 278.036885 302.096304 
L 278.22766 300.527202 
L 278.323324 304.577253 
L 278.418716 303.484553 
L 278.60717 296.079786 
L 278.702911 302.483893 
L 278.797115 300.86884 
L 278.892526 301.918975 
L 278.986831 301.840474 
L 279.081774 301.944475 
L 279.17629 304.555237 
L 279.461999 301.287029 
L 279.6511 302.402142 
L 279.840424 298.860145 
L 279.935362 300.373008 
L 280.030237 298.133393 
L 280.315738 303.721213 
L 280.409905 299.958329 
L 280.604591 304.377576 
L 280.703633 304.487195 
L 280.797982 300.889626 
L 280.892804 302.792435 
L 280.987442 289.232633 
L 281.177003 303.677288 
L 281.2712 301.436219 
L 281.365426 302.049331 
L 281.462122 301.776093 
L 281.744994 298.569359 
L 282.030283 302.296487 
L 282.125903 299.453951 
L 282.220678 301.468608 
L 282.509223 298.093515 
L 282.60418 290.749869 
L 282.987884 304.798193 
L 283.276262 299.537208 
L 283.467415 302.800769 
L 283.562901 302.347219 
L 283.657322 303.416658 
L 283.84711 298.111671 
L 284.037858 299.670177 
L 284.13212 298.473726 
L 284.327035 303.462056 
L 284.610106 299.949233 
L 284.706032 300.396304 
L 284.803002 301.490965 
L 284.992057 292.567926 
L 285.180779 301.793811 
L 285.277373 297.781807 
L 285.467659 301.470768 
L 285.562895 297.468794 
L 285.657469 300.870656 
L 285.84742 293.585974 
L 285.943976 301.288437 
L 286.038664 300.246205 
L 286.133106 300.451907 
L 286.419495 302.743402 
L 286.513819 296.359981 
L 286.608042 302.373562 
L 286.702485 301.362688 
L 286.7967 302.344606 
L 286.892011 294.532242 
L 287.083386 302.895968 
L 287.177541 299.761024 
L 287.273484 301.049789 
L 287.367683 299.219594 
L 287.556876 302.766238 
L 287.745799 293.781803 
L 287.840046 295.262958 
L 287.934383 300.536263 
L 288.030377 298.546602 
L 288.126209 292.191796 
L 288.22081 292.604215 
L 288.3152 301.641578 
L 288.411374 296.332705 
L 288.506244 298.437323 
L 288.601047 296.631673 
L 288.695446 298.91458 
L 288.789971 298.774015 
L 288.884277 299.442191 
L 289.073164 294.51097 
L 289.270004 296.911846 
L 289.369583 302.949494 
L 289.465395 300.907594 
L 289.559559 301.33981 
L 289.655902 298.789806 
L 289.750302 292.717966 
L 289.844503 295.721259 
L 289.938769 290.213579 
L 290.033514 298.783384 
L 290.13226 291.28685 
L 290.321572 301.861255 
L 290.416568 296.419039 
L 290.607124 304.857753 
L 290.703984 301.022319 
L 290.79833 302.091733 
L 290.898877 305.941597 
L 291.088787 303.932887 
L 291.186617 304.049341 
L 291.284265 303.660884 
L 291.378876 304.129532 
L 291.473256 297.922117 
L 291.573434 304.607296 
L 291.667778 303.654419 
L 291.764376 304.622616 
L 291.954369 299.55388 
L 292.148776 301.362501 
L 292.243055 300.220074 
L 292.337237 302.215453 
L 292.432028 295.872115 
L 292.528072 299.185245 
L 292.718479 295.78823 
L 292.911469 304.716893 
L 293.005649 306.075869 
L 293.109154 305.267137 
L 293.203385 302.121687 
L 293.488526 305.303412 
L 293.582733 304.352928 
L 293.771762 300.996576 
L 293.871045 299.849295 
L 293.965419 304.440393 
L 294.154648 296.341943 
L 294.249221 302.940524 
L 294.34487 280.901318 
L 294.43902 228.480986 
L 294.533319 228.496263 
L 294.627525 229.420809 
L 294.914521 305.204609 
L 295.00979 304.662552 
L 295.110964 306.469253 
L 295.213498 305.367476 
L 295.307877 305.465727 
L 295.404639 305.003225 
L 295.499381 302.971717 
L 295.688169 282.247588 
L 295.978608 304.736205 
L 296.078599 302.252712 
L 296.173305 305.365457 
L 296.362472 300.404354 
L 296.456808 301.241662 
L 296.552034 304.48896 
L 296.648814 302.767528 
L 296.743025 304.830871 
L 296.837313 301.323916 
L 296.933022 304.379658 
L 297.027839 303.511761 
L 297.122092 304.350318 
L 297.501707 293.260309 
L 297.595929 294.040932 
L 297.690101 295.167651 
L 297.784808 293.672766 
L 297.87919 293.940898 
L 297.973939 294.758909 
L 298.069718 294.328842 
L 298.459371 303.691324 
L 298.553826 304.139669 
L 298.743182 300.777613 
L 298.934228 293.52855 
L 299.220734 305.005251 
L 299.315047 305.090721 
L 299.409951 304.481651 
L 299.507629 304.721629 
L 299.602472 304.644712 
L 299.697258 304.791142 
L 299.791747 304.443203 
L 299.886134 304.824868 
L 299.980334 296.593542 
L 300.171338 301.035006 
L 300.265878 293.464593 
L 300.454726 296.116983 
L 300.54934 302.151432 
L 300.644315 297.967113 
L 300.837423 304.594271 
L 300.931808 305.047044 
L 301.02944 301.584806 
L 301.124423 302.215607 
L 301.218739 300.951533 
L 301.312995 301.115546 
L 301.407327 291.325669 
L 301.598201 301.777547 
L 301.787438 305.425151 
L 301.888549 304.687921 
L 301.98512 304.742255 
L 302.080315 302.184368 
L 302.175141 303.69556 
L 302.26969 298.59064 
L 302.36414 302.667589 
L 302.557389 300.672045 
L 302.746525 306.372131 
L 302.943774 305.216578 
L 303.133377 298.464651 
L 303.227814 294.049451 
L 303.326564 301.700502 
L 303.515756 288.942208 
L 303.609954 290.749808 
L 303.902295 304.315675 
L 303.996985 305.223439 
L 304.188631 304.053038 
L 304.284156 304.837469 
L 304.474389 300.992683 
L 304.570059 302.024737 
L 304.664847 300.646491 
L 304.760322 294.579191 
L 304.854487 296.123634 
L 304.948719 302.581662 
L 305.042972 301.109674 
L 305.137388 301.604232 
L 305.327376 293.621003 
L 305.421697 301.577059 
L 305.516669 299.230712 
L 305.610963 300.721416 
L 305.705322 294.048371 
L 305.80116 297.305717 
L 305.895372 295.610416 
L 305.997083 299.005378 
L 306.094243 298.955844 
L 306.192748 300.824831 
L 306.287075 296.55292 
L 306.381545 297.125555 
L 306.475711 303.23702 
L 306.668706 302.163293 
L 306.763115 302.789053 
L 306.859936 302.711696 
L 306.954533 303.137414 
L 307.048976 303.021233 
L 307.24051 295.229917 
L 307.335058 297.125739 
L 307.716623 304.114285 
L 307.811681 302.550176 
L 308.001792 305.249961 
L 308.097863 305.224944 
L 308.286646 298.361845 
L 308.380841 298.083592 
L 308.475028 232.810586 
L 308.569257 233.748191 
L 308.757607 246.951853 
L 309.04371 304.749054 
L 309.149051 304.624818 
L 309.243351 302.923431 
L 309.343087 303.499841 
L 309.532031 298.046929 
L 309.632972 296.829033 
L 309.839056 303.167348 
L 309.935887 304.109275 
L 310.030192 303.699902 
L 310.125096 303.766772 
L 310.219614 299.718153 
L 310.313866 300.149872 
L 310.409764 306.143752 
L 310.789508 301.029104 
L 310.884047 301.505412 
L 310.980628 300.12926 
L 311.074882 304.494001 
L 311.17625 304.033705 
L 311.271199 298.046943 
L 311.365428 301.358721 
L 311.459765 298.592847 
L 311.648907 304.56152 
L 311.744031 299.200418 
L 311.935331 304.011221 
L 312.030767 304.206787 
L 312.126073 305.244797 
L 312.508091 298.186393 
L 312.697439 301.323312 
L 312.791695 300.798576 
L 312.888032 297.45135 
L 312.985353 303.054626 
L 313.08055 295.690106 
L 313.174814 303.402204 
L 313.269201 296.583116 
L 313.363424 297.516721 
L 313.555819 305.206762 
L 313.65073 302.858443 
L 313.841253 304.313509 
L 313.935869 304.26368 
L 314.030086 304.849025 
L 314.218893 295.624156 
L 314.503881 301.827466 
L 314.890071 297.857207 
L 314.984294 276.683625 
L 315.176461 304.401796 
L 315.271034 299.851252 
L 315.365193 301.455346 
L 315.459576 293.981269 
L 315.553937 300.298452 
L 315.648488 299.419819 
L 315.745156 299.947241 
L 315.939535 303.101533 
L 316.044337 292.364002 
L 316.237673 304.593463 
L 316.427691 304.390825 
L 316.52198 303.803782 
L 316.618451 304.321835 
L 316.713566 303.14742 
L 316.813228 303.296917 
L 316.911454 304.649054 
L 317.005733 302.648971 
L 317.104379 302.918901 
L 317.199147 302.679325 
L 317.293369 300.087243 
L 317.387527 300.480374 
L 317.581052 303.883897 
L 317.675326 295.832215 
L 317.959633 303.249175 
L 318.055372 303.596193 
L 318.150939 302.845309 
L 318.245742 304.1782 
L 318.343218 303.981989 
L 318.543873 301.145114 
L 318.733396 294.797447 
L 318.829459 298.972256 
L 318.923715 295.24142 
L 319.017915 298.183523 
L 319.210983 293.487517 
L 319.403581 303.188206 
L 319.499473 297.015224 
L 319.784971 303.283346 
L 319.87985 305.050658 
L 319.974523 304.979522 
L 320.165793 302.772808 
L 320.358626 302.199386 
L 320.453459 305.009919 
L 320.548094 304.374825 
L 320.738832 255.607032 
L 320.928768 297.308025 
L 321.023773 300.143889 
L 321.21356 291.598635 
L 321.308657 302.845932 
L 321.40348 302.711849 
L 321.974474 285.120588 
L 322.068635 258.698258 
L 322.262557 287.660346 
L 322.358186 280.692117 
L 322.45279 284.849803 
L 322.54759 303.287691 
L 322.64184 302.208377 
L 322.737229 301.060693 
L 322.931024 283.44021 
L 323.026331 297.401379 
L 323.12167 294.323519 
L 323.311621 300.400405 
L 323.410939 302.169283 
L 323.505163 299.734881 
L 323.599366 289.939991 
L 323.886347 299.1019 
L 323.980603 297.384908 
L 324.07575 298.799274 
L 324.170613 298.366475 
L 324.359526 304.464304 
L 324.643997 296.633597 
L 324.738774 298.794579 
L 324.839134 296.561806 
L 324.93527 300.419888 
L 325.029863 298.861697 
L 325.124835 293.204331 
L 325.313849 297.460312 
L 325.502978 292.199746 
L 325.597218 292.586638 
L 325.691466 301.395857 
L 325.78577 300.667375 
L 325.880197 297.443058 
L 325.974398 298.544059 
L 326.06926 293.308936 
L 326.163504 300.636586 
L 326.261244 299.93533 
L 326.355473 305.318516 
L 326.449706 295.508515 
L 326.63909 302.109259 
L 326.733293 299.707521 
L 326.827458 304.470324 
L 326.922127 299.862932 
L 327.016974 301.524411 
L 327.302935 283.021754 
L 327.39718 286.280965 
L 327.585625 295.83505 
L 327.679894 295.24255 
L 327.77673 296.008484 
L 327.871696 298.426555 
L 327.965925 295.195639 
L 328.155714 303.205297 
L 328.251407 300.700501 
L 328.346034 301.077879 
L 328.635032 305.100326 
L 328.729989 305.403941 
L 328.922929 301.819311 
L 329.018165 303.166258 
L 329.209053 304.9449 
L 329.305795 305.69029 
L 329.400735 300.436568 
L 329.495229 304.438469 
L 329.589749 300.291504 
L 329.683941 284.177525 
L 329.778323 284.890322 
L 329.872487 304.044649 
L 330.061079 298.998524 
L 330.156636 304.971412 
L 330.250826 294.591974 
L 330.345314 302.81188 
L 330.535296 298.27089 
L 330.724481 303.996493 
L 330.915518 304.371642 
L 331.104666 284.127731 
L 331.20384 287.939861 
L 331.39409 302.59724 
L 331.488363 299.859946 
L 331.677232 304.099791 
L 331.771814 299.480152 
L 331.961962 303.515665 
L 332.056177 303.334406 
L 332.150588 302.682923 
L 332.244943 295.290682 
L 332.435795 302.507864 
L 332.533209 300.65552 
L 332.62901 295.817705 
L 332.725411 296.93256 
L 332.822046 304.437015 
L 332.916303 296.632415 
L 333.107886 301.715861 
L 333.202834 300.631209 
L 333.299248 306.708165 
L 333.395303 294.796014 
L 333.681718 304.949348 
L 333.777392 303.415167 
L 333.974315 305.959296 
L 334.073507 304.612116 
L 334.168451 304.766239 
L 334.263923 305.90834 
L 334.358079 303.896845 
L 334.452252 295.728323 
L 334.546449 296.474165 
L 334.642235 298.39666 
L 334.832854 304.683175 
L 334.927804 300.794479 
L 335.022693 304.724732 
L 335.117512 304.339713 
L 335.213375 304.196522 
L 335.307845 301.622736 
L 335.40218 304.0579 
L 335.510154 299.187624 
L 335.699848 303.368259 
L 335.796888 302.05942 
L 335.895089 305.700635 
L 336.184834 300.726002 
L 336.279026 300.793829 
L 336.476818 305.699062 
L 336.571609 306.356342 
L 336.665805 304.128072 
L 336.760077 304.333865 
L 336.85596 304.952843 
L 336.96053 306.437639 
L 337.058635 295.12026 
L 337.153294 304.467503 
L 337.250769 303.244064 
L 337.453212 305.433894 
L 337.644168 300.891134 
L 337.739007 292.037778 
L 337.833343 293.375058 
L 338.117248 305.614097 
L 338.305628 298.568699 
L 338.399988 300.483188 
L 338.494386 294.241277 
L 338.589445 294.83548 
L 338.686941 300.33582 
L 338.878114 292.88648 
L 339.073946 300.228671 
L 339.168333 295.090446 
L 339.360519 300.108497 
L 339.455134 297.712371 
L 339.554381 299.816388 
L 339.648795 295.132593 
L 339.747899 297.059257 
L 339.938747 295.166933 
L 340.033585 296.543764 
L 340.222625 293.071831 
L 340.412293 297.566633 
L 340.506566 293.353175 
L 340.601408 296.769728 
L 340.790009 293.304438 
L 340.885972 276.528486 
L 340.980348 233.303347 
L 341.172061 288.716522 
L 341.26851 287.465444 
L 341.363129 305.826298 
L 341.457778 304.161099 
L 341.552094 304.388488 
L 341.646376 303.540592 
L 341.750792 305.323605 
L 341.939131 303.426528 
L 342.034311 304.383967 
L 342.132945 300.805182 
L 342.335424 303.015918 
L 342.525964 297.816916 
L 342.621428 299.932005 
L 342.71595 297.156189 
L 342.810265 300.945657 
L 342.906468 297.957312 
L 343.00124 298.710084 
L 343.095408 301.678498 
L 343.189609 294.629245 
L 343.283777 297.690291 
L 343.571953 292.366103 
L 343.669119 297.618962 
L 343.857855 294.604389 
L 343.952114 287.798245 
L 344.142216 298.467136 
L 344.237176 294.840325 
L 344.335013 301.192123 
L 344.431567 293.949925 
L 344.53081 298.35563 
L 344.627507 295.89369 
L 344.723313 300.234301 
L 344.915624 295.679251 
L 345.009773 295.830797 
L 345.198376 290.418019 
L 345.388144 296.850274 
L 345.482294 296.413727 
L 345.578229 299.831674 
L 345.676894 295.110635 
L 345.771062 296.588047 
L 345.86771 304.253775 
L 345.962634 300.271917 
L 346.058873 302.574787 
L 346.15315 298.013003 
L 346.341601 305.453345 
L 346.435782 304.593168 
L 346.530005 291.485821 
L 346.718582 303.399999 
L 346.812791 300.110406 
L 346.907866 300.857302 
L 347.00227 303.187085 
L 347.195036 301.757722 
L 347.289257 305.535204 
L 347.489488 303.552369 
L 347.587979 305.010545 
L 347.690168 304.400607 
L 347.973339 306.431935 
L 348.068393 303.6961 
L 348.168251 304.332291 
L 348.268265 302.564474 
L 348.362547 305.86727 
L 348.464577 305.659533 
L 348.559227 303.482848 
L 348.653531 306.000428 
L 348.841958 304.164034 
L 348.936139 305.433001 
L 349.03056 301.15693 
L 349.220441 305.752568 
L 349.60102 291.381423 
L 349.695457 296.878102 
L 349.790107 295.112934 
L 349.885624 295.858041 
L 349.979874 303.783034 
L 350.074116 301.930751 
L 350.170694 304.181408 
L 350.359135 248.06801 
L 350.453299 258.411489 
L 350.645909 303.637351 
L 350.834407 280.992684 
L 350.928558 286.03186 
L 351.117345 295.721898 
L 351.306839 291.930671 
L 351.403649 293.337776 
L 351.498695 299.035854 
L 351.59312 296.540244 
L 351.689616 298.05975 
L 351.785367 296.83767 
L 351.975693 300.200626 
L 352.070094 292.206571 
L 352.165915 295.272548 
L 352.261074 289.682958 
L 352.355907 296.417936 
L 352.451786 293.704946 
L 352.546713 295.581694 
L 352.64095 294.011657 
L 352.735265 295.013952 
L 352.829565 299.496163 
L 352.923733 296.001441 
L 353.026084 300.150452 
L 353.121842 296.921516 
L 353.218841 299.585977 
L 353.316492 273.313773 
L 353.410921 288.364505 
L 353.50508 285.91741 
L 353.599248 291.139029 
L 353.693498 290.441357 
L 353.787679 289.677097 
L 353.882741 302.022682 
L 354.073738 294.486205 
L 354.264356 296.803085 
L 354.363679 301.981259 
L 354.552635 294.944595 
L 354.646826 302.838138 
L 354.742953 293.988063 
L 354.837362 299.370999 
L 354.931614 296.128399 
L 355.025806 301.756074 
L 355.217767 290.124511 
L 355.407998 304.127256 
L 355.502191 303.945903 
L 355.597583 303.911763 
L 355.69634 297.590733 
L 355.793703 305.456821 
L 355.987011 303.287823 
L 356.087461 304.951195 
L 356.277311 303.157163 
L 356.470914 305.782917 
L 356.567976 305.828414 
L 356.662753 300.520151 
L 356.855388 305.793284 
L 356.95267 304.652658 
L 357.047165 304.811375 
L 357.143775 304.335082 
L 357.238467 306.421148 
L 357.427789 301.665452 
L 357.522024 300.74563 
L 357.618228 302.684637 
L 357.712471 299.1202 
L 357.901573 303.181796 
L 357.996735 303.096229 
L 358.091305 306.102297 
L 358.185606 301.019661 
L 358.374606 304.95803 
L 358.469936 304.87356 
L 358.565302 302.957142 
L 358.661616 303.302498 
L 358.756341 301.081039 
L 358.851395 304.145514 
L 358.946298 303.644409 
L 359.040809 303.663881 
L 359.135454 306.605287 
L 359.230147 304.603663 
L 359.418789 306.06913 
L 359.51317 306.369918 
L 359.804776 298.911932 
L 359.899092 303.306721 
L 359.99765 302.192512 
L 360.187171 305.652168 
L 360.281756 301.995884 
L 360.387177 305.451578 
L 360.483379 300.1859 
L 360.671736 246.614307 
L 360.860895 299.046014 
L 360.957704 294.529628 
L 361.150659 305.742779 
L 361.339106 303.714696 
L 361.433302 302.881646 
L 361.527613 300.829191 
L 361.621807 302.669578 
L 361.716018 302.16335 
L 361.810209 303.806819 
L 361.904726 297.4086 
L 362.101567 304.0278 
L 362.196069 306.061051 
L 362.388895 303.028846 
L 362.483592 304.343661 
L 362.578226 302.640078 
L 362.67278 303.814059 
L 362.767275 299.046176 
L 362.862421 304.575324 
L 362.961306 303.450359 
L 363.24688 306.033468 
L 363.435601 305.266278 
L 363.533749 296.763263 
L 363.732761 305.242652 
L 363.828163 306.343513 
L 363.922816 306.16088 
L 364.018244 296.066652 
L 364.113341 303.656235 
L 364.403677 297.161474 
L 364.594109 305.44597 
L 364.881631 280.615526 
L 365.071134 301.756946 
L 365.261037 293.171182 
L 365.355291 288.162433 
L 365.54635 303.651749 
L 366.027576 294.145312 
L 366.121794 302.772632 
L 366.219815 294.406681 
L 366.314263 295.559369 
L 366.502872 304.033826 
L 366.785697 292.576434 
L 367.07178 300.488015 
L 367.261234 289.130186 
L 367.355572 288.928229 
L 367.450252 291.236803 
L 367.546372 287.976491 
L 367.739053 295.758174 
L 367.835848 292.951194 
L 367.930408 297.733255 
L 368.024567 296.409227 
L 368.118732 296.787285 
L 368.213074 291.490732 
L 368.308942 298.763292 
L 368.404298 285.933323 
L 368.504318 286.828017 
L 368.692987 284.520071 
L 368.787234 285.64861 
L 368.977314 295.463663 
L 369.071507 295.145894 
L 369.165763 287.437283 
L 369.259996 289.030396 
L 369.354193 288.918049 
L 369.448657 295.038737 
L 369.543374 294.990953 
L 369.638326 292.896008 
L 369.733053 297.495153 
L 369.827477 294.487456 
L 369.92173 283.931581 
L 370.110326 300.847956 
L 370.39541 292.985912 
L 370.489574 301.737816 
L 370.773492 292.168747 
L 370.963049 296.865428 
L 371.152686 293.630266 
L 371.24689 293.507689 
L 371.341214 298.121239 
L 371.436419 293.130701 
L 371.531545 293.689765 
L 371.625985 302.545811 
L 371.817802 296.871097 
L 372.007743 303.843868 
L 372.196378 295.43061 
L 372.487209 305.889743 
L 372.678072 303.022126 
L 372.86951 304.940717 
L 373.058827 290.776953 
L 373.344771 299.506717 
L 373.43903 298.280667 
L 373.534913 301.743091 
L 373.629553 298.220597 
L 373.723863 302.992673 
L 373.818278 298.466534 
L 373.912959 303.038567 
L 374.007368 302.310017 
L 374.102241 304.225631 
L 374.19888 302.333976 
L 374.293889 303.623873 
L 374.389017 294.267799 
L 374.58013 304.45962 
L 374.674853 303.914131 
L 374.770879 305.246351 
L 374.865201 302.002761 
L 374.959415 285.981705 
L 375.053579 305.266228 
L 375.149748 303.64063 
L 375.247204 305.890226 
L 375.345741 303.881072 
L 375.441707 304.38658 
L 375.535861 298.802241 
L 375.631973 305.228258 
L 375.727044 300.729297 
L 375.918343 304.03257 
L 376.112983 302.57532 
L 376.207383 303.70719 
L 376.590651 294.901676 
L 376.685167 295.933419 
L 376.781234 304.586586 
L 376.876518 304.110004 
L 376.970816 303.190301 
L 377.160257 295.619103 
L 377.254951 298.040059 
L 377.349146 305.455083 
L 377.443942 304.207806 
L 377.542686 302.075523 
L 377.638149 297.347601 
L 377.733707 304.82388 
L 377.82848 299.796878 
L 377.924343 304.126667 
L 378.018571 302.930373 
L 378.112912 305.175325 
L 378.20735 304.880018 
L 378.403338 305.165111 
L 378.497648 306.014035 
L 378.874599 292.335344 
L 379.068341 297.210168 
L 379.162568 296.804818 
L 379.352378 303.220499 
L 379.447135 303.009613 
L 379.54129 301.590451 
L 379.636164 302.124727 
L 379.73576 301.846087 
L 379.829986 303.743571 
L 379.927512 303.483718 
L 380.12003 303.75672 
L 380.215732 301.960685 
L 380.310154 290.996449 
L 380.410388 302.970574 
L 380.504583 293.447974 
L 380.694464 304.211877 
L 380.883887 300.432547 
L 381.072721 302.520152 
L 381.263034 305.726748 
L 381.357692 305.614327 
L 381.451961 304.006126 
L 381.546916 304.632306 
L 381.643134 301.823698 
L 381.738437 304.612713 
L 381.832605 301.782967 
L 381.927074 304.758533 
L 382.024172 304.219602 
L 382.120876 304.308398 
L 382.217501 305.802146 
L 382.312632 303.882237 
L 382.409978 305.232667 
L 382.504304 303.447286 
L 382.601397 303.479236 
L 382.697865 304.372399 
L 382.888585 297.129563 
L 382.984229 293.571864 
L 383.079465 273.707908 
L 383.269397 293.501113 
L 383.363726 292.982291 
L 383.458691 302.545637 
L 383.553563 299.623593 
L 383.647722 288.698444 
L 383.742327 292.426336 
L 383.930848 290.157297 
L 384.025018 300.721292 
L 384.310411 291.801164 
L 384.503228 302.504115 
L 384.597382 304.554405 
L 384.980022 294.55161 
L 385.076014 302.987519 
L 385.17021 301.928659 
L 385.264393 301.765765 
L 385.359429 304.310866 
L 385.45364 303.909938 
L 385.739502 290.424668 
L 385.930451 302.191176 
L 386.025764 301.585317 
L 386.119926 302.185176 
L 386.215017 297.064205 
L 386.498151 305.283356 
L 386.593365 303.607382 
L 386.688551 304.656394 
L 386.783791 304.492398 
L 386.879456 303.846184 
L 386.974411 304.125527 
L 387.165653 300.01357 
L 387.260397 304.675165 
L 387.455021 302.81491 
L 387.553033 304.67305 
L 387.648233 302.214485 
L 387.742589 303.964068 
L 387.838842 298.35348 
L 388.030985 303.166968 
L 388.127116 302.354182 
L 388.223919 303.237401 
L 388.324466 302.453819 
L 388.41863 296.749623 
L 388.513233 297.638018 
L 388.607397 297.735366 
L 388.701675 305.31958 
L 388.890797 300.439921 
L 389.08043 303.27411 
L 389.368267 305.442299 
L 389.464114 301.436715 
L 389.655162 305.065845 
L 389.751493 305.85371 
L 390.038894 299.254021 
L 390.133178 300.325397 
L 390.325862 304.194293 
L 390.423514 305.167828 
L 390.61298 300.014002 
L 390.707167 303.654934 
L 390.801331 253.319074 
L 390.895522 302.703862 
L 390.989803 298.337907 
L 391.089794 303.393461 
L 391.278947 295.321835 
L 391.373306 298.736916 
L 391.468915 291.032753 
L 391.566121 305.670295 
L 391.663034 304.456224 
L 391.757234 295.240365 
L 391.851986 301.829676 
L 391.948905 301.519325 
L 392.044732 302.340379 
L 392.147223 301.908699 
L 392.24633 303.179732 
L 392.342458 302.720369 
L 392.439764 304.310643 
L 392.632094 303.393235 
L 392.726277 301.711035 
L 392.917926 304.075661 
L 393.012803 299.786719 
L 393.298647 306.199736 
L 393.393195 304.393081 
L 393.487509 305.899131 
L 393.582762 304.567544 
L 393.676981 306.10105 
L 393.778749 305.395132 
L 393.875042 303.404891 
L 394.070383 304.374117 
L 394.165367 306.287932 
L 394.263019 304.038006 
L 394.35747 296.895016 
L 394.452219 297.15134 
L 394.552103 302.43727 
L 394.646342 296.781242 
L 394.931491 305.431008 
L 395.028652 305.447077 
L 395.126213 304.884545 
L 395.507745 295.692376 
L 395.602868 297.67655 
L 395.79643 304.866825 
L 395.891807 302.786157 
L 395.991925 304.692755 
L 396.086603 304.150949 
L 396.18345 304.893969 
L 396.278507 301.687932 
L 396.57088 305.304132 
L 396.665542 304.225485 
L 396.764126 305.363472 
L 396.859192 305.237324 
L 397.048162 297.158891 
L 397.14238 304.073818 
L 397.236872 303.984942 
L 397.333618 300.476192 
L 397.428351 304.684705 
L 397.522623 295.236352 
L 397.61757 301.497689 
L 397.712436 301.300943 
L 397.909279 281.48497 
L 398.100727 304.834947 
L 398.194962 305.796703 
L 398.289298 305.414098 
L 398.383488 305.981804 
L 398.487273 305.115601 
L 398.487273 305.115601 
" clip-path="url(#p5eb373b2aa)" style="fill: none; stroke: #1f77b4; stroke-width: 1.5; stroke-linecap: square"/>
   </g>
   <g id="patch_3">
    <path d="M 57.6 307.584 
L 57.6 41.472 
" style="fill: none; stroke: #000000; stroke-width: 0.8; stroke-linejoin: miter; stroke-linecap: square"/>
   </g>
   <g id="patch_4">
    <path d="M 414.72 307.584 
L 414.72 41.472 
" style="fill: none; stroke: #000000; stroke-width: 0.8; stroke-linejoin: miter; stroke-linecap: square"/>
   </g>
   <g id="patch_5">
    <path d="M 57.6 307.584 
L 414.72 307.584 
" style="fill: none; stroke: #000000; stroke-width: 0.8; stroke-linejoin: miter; stroke-linecap: square"/>
   </g>
   <g id="patch_6">
    <path d="M 57.6 41.472 
L 414.72 41.472 
" style="fill: none; stroke: #000000; stroke-width: 0.8; stroke-linejoin: miter; stroke-linecap: square"/>
   </g>
   <g id="text_18">
    <!-- pt1 link speed per 100ms -->
    <g transform="translate(159.425625 35.472)scale(0.12 -0.12)">
     <defs>
      <path id="DejaVuSans-20" transform="scale(0.015625)"/>
      <path id="DejaVuSans-6c" d="M 603 4863 
L 1178 4863 
L 1178 0 
L 603 0 
L 603 4863 
z
" transform="scale(0.015625)"/>
      <path id="DejaVuSans-6e" d="M 3513 2113 
L 3513 0 
L 2938 0 
L 2938 2094 
Q 2938 2591 2744 2837 
Q 2550 3084 2163 3084 
Q 1697 3084 1428 2787 
Q 1159 2491 1159 1978 
L 1159 0 
L 581 0 
L 581 3500 
L 1159 3500 
L 1159 2956 
Q 1366 3272 1645 3428 
Q 1925 3584 2291 3584 
Q 2894 3584 3203 3211 
Q 3513 2838 3513 2113 
z
" transform="scale(0.015625)"/>
      <path id="DejaVuSans-6b" d="M 581 4863 
L 1159 4863 
L 1159 1991 
L 2875 3500 
L 3609 3500 
L 1753 1863 
L 3688 0 
L 2938 0 
L 1159 1709 
L 1159 0 
L 581 0 
L 581 4863 
z
" transform="scale(0.015625)"/>
      <path id="DejaVuSans-64" d="M 2906 2969 
L 2906 4863 
L 3481 4863 
L 3481 0 
L 2906 0 
L 2906 525 
Q 2725 213 2448 61 
Q 2172 -91 1784 -91 
Q 1150 -91 751 415 
Q 353 922 353 1747 
Q 353 2572 751 3078 
Q 1150 3584 1784 3584 
Q 2172 3584 2448 3432 
Q 2725 3281 2906 2969 
z
M 947 1747 
Q 947 1113 1208 752 
Q 1469 391 1925 391 
Q 2381 391 2643 752 
Q 2906 1113 2906 1747 
Q 2906 2381 2643 2742 
Q 2381 3103 1925 3103 
Q 1469 3103 1208 2742 
Q 947 2381 947 1747 
z
" transform="scale(0.015625)"/>
      <path id="DejaVuSans-72" d="M 2631 2963 
Q 2534 3019 2420 3045 
Q 2306 3072 2169 3072 
Q 1681 3072 1420 2755 
Q 1159 2438 1159 1844 
L 1159 0 
L 581 0 
L 581 3500 
L 1159 3500 
L 1159 2956 
Q 1341 3275 1631 3429 
Q 1922 3584 2338 3584 
Q 2397 3584 2469 3576 
Q 2541 3569 2628 3553 
L 2631 2963 
z
" transform="scale(0.015625)"/>
     </defs>
     <use xlink:href="#DejaVuSans-70"/>
     <use xlink:href="#DejaVuSans-74" x="63.476562"/>
     <use xlink:href="#DejaVuSans-31" x="102.685547"/>
     <use xlink:href="#DejaVuSans-20" x="166.308594"/>
     <use xlink:href="#DejaVuSans-6c" x="198.095703"/>
     <use xlink:href="#DejaVuSans-69" x="225.878906"/>
     <use xlink:href="#DejaVuSans-6e" x="253.662109"/>
     <use xlink:href="#DejaVuSans-6b" x="317.041016"/>
     <use xlink:href="#DejaVuSans-20" x="374.951172"/>
     <use xlink:href="#DejaVuSans-73" x="406.738281"/>
     <use xlink:href="#DejaVuSans-70" x="458.837891"/>
     <use xlink:href="#DejaVuSans-65" x="522.314453"/>
     <use xlink:href="#DejaVuSans-65" x="583.837891"/>
     <use xlink:href="#DejaVuSans-64" x="645.361328"/>
     <use xlink:href="#DejaVuSans-20" x="708.837891"/>
     <use xlink:href="#DejaVuSans-70" x="740.625"/>
     <use xlink:href="#DejaVuSans-65" x="804.101562"/>
     <use xlink:href="#DejaVuSans-72" x="865.625"/>
     <use xlink:href="#DejaVuSans-20" x="906.738281"/>
     <use xlink:href="#DejaVuSans-31" x="938.525391"/>
     <use xlink:href="#DejaVuSans-30" x="1002.148438"/>
     <use xlink:href="#DejaVuSans-30" x="1065.771484"/>
     <use xlink:href="#DejaVuSans-6d" x="1129.394531"/>
     <use xlink:href="#DejaVuSans-73" x="1226.806641"/>
    </g>
   </g>
  </g>
 </g>
 <defs>
  <clipPath id="p5eb373b2aa">
   <rect x="57.6" y="41.472" width="357.12" height="266.112"/>
  </clipPath>
 </defs>
</svg>
