<?xml version="1.0" encoding="utf-8" standalone="no"?>
<!DOCTYPE svg PUBLIC "-//W3C//DTD SVG 1.1//EN"
  "http://www.w3.org/Graphics/SVG/1.1/DTD/svg11.dtd">
<svg xmlns:xlink="http://www.w3.org/1999/xlink" width="460.8pt" height="345.6pt" viewBox="0 0 460.8 345.6" xmlns="http://www.w3.org/2000/svg" version="1.1">
 <metadata>
  <rdf:RDF xmlns:dc="http://purl.org/dc/elements/1.1/" xmlns:cc="http://creativecommons.org/ns#" xmlns:rdf="http://www.w3.org/1999/02/22-rdf-syntax-ns#">
   <cc:Work>
    <dc:type rdf:resource="http://purl.org/dc/dcmitype/StillImage"/>
    <dc:date>2022-07-10T03:00:45.645061</dc:date>
    <dc:format>image/svg+xml</dc:format>
    <dc:creator>
     <cc:Agent>
      <dc:title>Matplotlib v3.5.2, https://matplotlib.org/</dc:title>
     </cc:Agent>
    </dc:creator>
   </cc:Work>
  </rdf:RDF>
 </metadata>
 <defs>
  <style type="text/css">*{stroke-linejoin: round; stroke-linecap: butt}</style>
 </defs>
 <g id="figure_1">
  <g id="patch_1">
   <path d="M 0 345.6 
L 460.8 345.6 
L 460.8 0 
L 0 0 
z
" style="fill: #ffffff"/>
  </g>
  <g id="axes_1">
   <g id="patch_2">
    <path d="M 57.6 307.584 
L 414.72 307.584 
L 414.72 41.472 
L 57.6 41.472 
z
" style="fill: #ffffff"/>
   </g>
   <g id="matplotlib.axis_1">
    <g id="xtick_1">
     <g id="line2d_1">
      <defs>
       <path id="m956996e905" d="M 0 0 
L 0 3.5 
" style="stroke: #000000; stroke-width: 0.8"/>
      </defs>
      <g>
       <use xlink:href="#m956996e905" x="73.740987" y="307.584" style="stroke: #000000; stroke-width: 0.8"/>
      </g>
     </g>
     <g id="text_1">
      <!-- 0 -->
      <g transform="translate(70.559737 322.182437)scale(0.1 -0.1)">
       <defs>
        <path id="DejaVuSans-30" d="M 2034 4250 
Q 1547 4250 1301 3770 
Q 1056 3291 1056 2328 
Q 1056 1369 1301 889 
Q 1547 409 2034 409 
Q 2525 409 2770 889 
Q 3016 1369 3016 2328 
Q 3016 3291 2770 3770 
Q 2525 4250 2034 4250 
z
M 2034 4750 
Q 2819 4750 3233 4129 
Q 3647 3509 3647 2328 
Q 3647 1150 3233 529 
Q 2819 -91 2034 -91 
Q 1250 -91 836 529 
Q 422 1150 422 2328 
Q 422 3509 836 4129 
Q 1250 4750 2034 4750 
z
" transform="scale(0.015625)"/>
       </defs>
       <use xlink:href="#DejaVuSans-30"/>
      </g>
     </g>
    </g>
    <g id="xtick_2">
     <g id="line2d_2">
      <g>
       <use xlink:href="#m956996e905" x="119.496186" y="307.584" style="stroke: #000000; stroke-width: 0.8"/>
      </g>
     </g>
     <g id="text_2">
      <!-- 50 -->
      <g transform="translate(113.133686 322.182437)scale(0.1 -0.1)">
       <defs>
        <path id="DejaVuSans-35" d="M 691 4666 
L 3169 4666 
L 3169 4134 
L 1269 4134 
L 1269 2991 
Q 1406 3038 1543 3061 
Q 1681 3084 1819 3084 
Q 2600 3084 3056 2656 
Q 3513 2228 3513 1497 
Q 3513 744 3044 326 
Q 2575 -91 1722 -91 
Q 1428 -91 1123 -41 
Q 819 9 494 109 
L 494 744 
Q 775 591 1075 516 
Q 1375 441 1709 441 
Q 2250 441 2565 725 
Q 2881 1009 2881 1497 
Q 2881 1984 2565 2268 
Q 2250 2553 1709 2553 
Q 1456 2553 1204 2497 
Q 953 2441 691 2322 
L 691 4666 
z
" transform="scale(0.015625)"/>
       </defs>
       <use xlink:href="#DejaVuSans-35"/>
       <use xlink:href="#DejaVuSans-30" x="63.623047"/>
      </g>
     </g>
    </g>
    <g id="xtick_3">
     <g id="line2d_3">
      <g>
       <use xlink:href="#m956996e905" x="165.251385" y="307.584" style="stroke: #000000; stroke-width: 0.8"/>
      </g>
     </g>
     <g id="text_3">
      <!-- 100 -->
      <g transform="translate(155.707635 322.182437)scale(0.1 -0.1)">
       <defs>
        <path id="DejaVuSans-31" d="M 794 531 
L 1825 531 
L 1825 4091 
L 703 3866 
L 703 4441 
L 1819 4666 
L 2450 4666 
L 2450 531 
L 3481 531 
L 3481 0 
L 794 0 
L 794 531 
z
" transform="scale(0.015625)"/>
       </defs>
       <use xlink:href="#DejaVuSans-31"/>
       <use xlink:href="#DejaVuSans-30" x="63.623047"/>
       <use xlink:href="#DejaVuSans-30" x="127.246094"/>
      </g>
     </g>
    </g>
    <g id="xtick_4">
     <g id="line2d_4">
      <g>
       <use xlink:href="#m956996e905" x="211.006584" y="307.584" style="stroke: #000000; stroke-width: 0.8"/>
      </g>
     </g>
     <g id="text_4">
      <!-- 150 -->
      <g transform="translate(201.462834 322.182437)scale(0.1 -0.1)">
       <use xlink:href="#DejaVuSans-31"/>
       <use xlink:href="#DejaVuSans-35" x="63.623047"/>
       <use xlink:href="#DejaVuSans-30" x="127.246094"/>
      </g>
     </g>
    </g>
    <g id="xtick_5">
     <g id="line2d_5">
      <g>
       <use xlink:href="#m956996e905" x="256.761783" y="307.584" style="stroke: #000000; stroke-width: 0.8"/>
      </g>
     </g>
     <g id="text_5">
      <!-- 200 -->
      <g transform="translate(247.218033 322.182437)scale(0.1 -0.1)">
       <defs>
        <path id="DejaVuSans-32" d="M 1228 531 
L 3431 531 
L 3431 0 
L 469 0 
L 469 531 
Q 828 903 1448 1529 
Q 2069 2156 2228 2338 
Q 2531 2678 2651 2914 
Q 2772 3150 2772 3378 
Q 2772 3750 2511 3984 
Q 2250 4219 1831 4219 
Q 1534 4219 1204 4116 
Q 875 4013 500 3803 
L 500 4441 
Q 881 4594 1212 4672 
Q 1544 4750 1819 4750 
Q 2544 4750 2975 4387 
Q 3406 4025 3406 3419 
Q 3406 3131 3298 2873 
Q 3191 2616 2906 2266 
Q 2828 2175 2409 1742 
Q 1991 1309 1228 531 
z
" transform="scale(0.015625)"/>
       </defs>
       <use xlink:href="#DejaVuSans-32"/>
       <use xlink:href="#DejaVuSans-30" x="63.623047"/>
       <use xlink:href="#DejaVuSans-30" x="127.246094"/>
      </g>
     </g>
    </g>
    <g id="xtick_6">
     <g id="line2d_6">
      <g>
       <use xlink:href="#m956996e905" x="302.516982" y="307.584" style="stroke: #000000; stroke-width: 0.8"/>
      </g>
     </g>
     <g id="text_6">
      <!-- 250 -->
      <g transform="translate(292.973232 322.182437)scale(0.1 -0.1)">
       <use xlink:href="#DejaVuSans-32"/>
       <use xlink:href="#DejaVuSans-35" x="63.623047"/>
       <use xlink:href="#DejaVuSans-30" x="127.246094"/>
      </g>
     </g>
    </g>
    <g id="xtick_7">
     <g id="line2d_7">
      <g>
       <use xlink:href="#m956996e905" x="348.272181" y="307.584" style="stroke: #000000; stroke-width: 0.8"/>
      </g>
     </g>
     <g id="text_7">
      <!-- 300 -->
      <g transform="translate(338.728431 322.182437)scale(0.1 -0.1)">
       <defs>
        <path id="DejaVuSans-33" d="M 2597 2516 
Q 3050 2419 3304 2112 
Q 3559 1806 3559 1356 
Q 3559 666 3084 287 
Q 2609 -91 1734 -91 
Q 1441 -91 1130 -33 
Q 819 25 488 141 
L 488 750 
Q 750 597 1062 519 
Q 1375 441 1716 441 
Q 2309 441 2620 675 
Q 2931 909 2931 1356 
Q 2931 1769 2642 2001 
Q 2353 2234 1838 2234 
L 1294 2234 
L 1294 2753 
L 1863 2753 
Q 2328 2753 2575 2939 
Q 2822 3125 2822 3475 
Q 2822 3834 2567 4026 
Q 2313 4219 1838 4219 
Q 1578 4219 1281 4162 
Q 984 4106 628 3988 
L 628 4550 
Q 988 4650 1302 4700 
Q 1616 4750 1894 4750 
Q 2613 4750 3031 4423 
Q 3450 4097 3450 3541 
Q 3450 3153 3228 2886 
Q 3006 2619 2597 2516 
z
" transform="scale(0.015625)"/>
       </defs>
       <use xlink:href="#DejaVuSans-33"/>
       <use xlink:href="#DejaVuSans-30" x="63.623047"/>
       <use xlink:href="#DejaVuSans-30" x="127.246094"/>
      </g>
     </g>
    </g>
    <g id="xtick_8">
     <g id="line2d_8">
      <g>
       <use xlink:href="#m956996e905" x="394.02738" y="307.584" style="stroke: #000000; stroke-width: 0.8"/>
      </g>
     </g>
     <g id="text_8">
      <!-- 350 -->
      <g transform="translate(384.48363 322.182437)scale(0.1 -0.1)">
       <use xlink:href="#DejaVuSans-33"/>
       <use xlink:href="#DejaVuSans-35" x="63.623047"/>
       <use xlink:href="#DejaVuSans-30" x="127.246094"/>
      </g>
     </g>
    </g>
    <g id="text_9">
     <!-- time(s) -->
     <g transform="translate(218.357656 335.860562)scale(0.1 -0.1)">
      <defs>
       <path id="DejaVuSans-74" d="M 1172 4494 
L 1172 3500 
L 2356 3500 
L 2356 3053 
L 1172 3053 
L 1172 1153 
Q 1172 725 1289 603 
Q 1406 481 1766 481 
L 2356 481 
L 2356 0 
L 1766 0 
Q 1100 0 847 248 
Q 594 497 594 1153 
L 594 3053 
L 172 3053 
L 172 3500 
L 594 3500 
L 594 4494 
L 1172 4494 
z
" transform="scale(0.015625)"/>
       <path id="DejaVuSans-69" d="M 603 3500 
L 1178 3500 
L 1178 0 
L 603 0 
L 603 3500 
z
M 603 4863 
L 1178 4863 
L 1178 4134 
L 603 4134 
L 603 4863 
z
" transform="scale(0.015625)"/>
       <path id="DejaVuSans-6d" d="M 3328 2828 
Q 3544 3216 3844 3400 
Q 4144 3584 4550 3584 
Q 5097 3584 5394 3201 
Q 5691 2819 5691 2113 
L 5691 0 
L 5113 0 
L 5113 2094 
Q 5113 2597 4934 2840 
Q 4756 3084 4391 3084 
Q 3944 3084 3684 2787 
Q 3425 2491 3425 1978 
L 3425 0 
L 2847 0 
L 2847 2094 
Q 2847 2600 2669 2842 
Q 2491 3084 2119 3084 
Q 1678 3084 1418 2786 
Q 1159 2488 1159 1978 
L 1159 0 
L 581 0 
L 581 3500 
L 1159 3500 
L 1159 2956 
Q 1356 3278 1631 3431 
Q 1906 3584 2284 3584 
Q 2666 3584 2933 3390 
Q 3200 3197 3328 2828 
z
" transform="scale(0.015625)"/>
       <path id="DejaVuSans-65" d="M 3597 1894 
L 3597 1613 
L 953 1613 
Q 991 1019 1311 708 
Q 1631 397 2203 397 
Q 2534 397 2845 478 
Q 3156 559 3463 722 
L 3463 178 
Q 3153 47 2828 -22 
Q 2503 -91 2169 -91 
Q 1331 -91 842 396 
Q 353 884 353 1716 
Q 353 2575 817 3079 
Q 1281 3584 2069 3584 
Q 2775 3584 3186 3129 
Q 3597 2675 3597 1894 
z
M 3022 2063 
Q 3016 2534 2758 2815 
Q 2500 3097 2075 3097 
Q 1594 3097 1305 2825 
Q 1016 2553 972 2059 
L 3022 2063 
z
" transform="scale(0.015625)"/>
       <path id="DejaVuSans-28" d="M 1984 4856 
Q 1566 4138 1362 3434 
Q 1159 2731 1159 2009 
Q 1159 1288 1364 580 
Q 1569 -128 1984 -844 
L 1484 -844 
Q 1016 -109 783 600 
Q 550 1309 550 2009 
Q 550 2706 781 3412 
Q 1013 4119 1484 4856 
L 1984 4856 
z
" transform="scale(0.015625)"/>
       <path id="DejaVuSans-73" d="M 2834 3397 
L 2834 2853 
Q 2591 2978 2328 3040 
Q 2066 3103 1784 3103 
Q 1356 3103 1142 2972 
Q 928 2841 928 2578 
Q 928 2378 1081 2264 
Q 1234 2150 1697 2047 
L 1894 2003 
Q 2506 1872 2764 1633 
Q 3022 1394 3022 966 
Q 3022 478 2636 193 
Q 2250 -91 1575 -91 
Q 1294 -91 989 -36 
Q 684 19 347 128 
L 347 722 
Q 666 556 975 473 
Q 1284 391 1588 391 
Q 1994 391 2212 530 
Q 2431 669 2431 922 
Q 2431 1156 2273 1281 
Q 2116 1406 1581 1522 
L 1381 1569 
Q 847 1681 609 1914 
Q 372 2147 372 2553 
Q 372 3047 722 3315 
Q 1072 3584 1716 3584 
Q 2034 3584 2315 3537 
Q 2597 3491 2834 3397 
z
" transform="scale(0.015625)"/>
       <path id="DejaVuSans-29" d="M 513 4856 
L 1013 4856 
Q 1481 4119 1714 3412 
Q 1947 2706 1947 2009 
Q 1947 1309 1714 600 
Q 1481 -109 1013 -844 
L 513 -844 
Q 928 -128 1133 580 
Q 1338 1288 1338 2009 
Q 1338 2731 1133 3434 
Q 928 4138 513 4856 
z
" transform="scale(0.015625)"/>
      </defs>
      <use xlink:href="#DejaVuSans-74"/>
      <use xlink:href="#DejaVuSans-69" x="39.208984"/>
      <use xlink:href="#DejaVuSans-6d" x="66.992188"/>
      <use xlink:href="#DejaVuSans-65" x="164.404297"/>
      <use xlink:href="#DejaVuSans-28" x="225.927734"/>
      <use xlink:href="#DejaVuSans-73" x="264.941406"/>
      <use xlink:href="#DejaVuSans-29" x="317.041016"/>
     </g>
    </g>
   </g>
   <g id="matplotlib.axis_2">
    <g id="ytick_1">
     <g id="line2d_9">
      <defs>
       <path id="m934e9caa2f" d="M 0 0 
L -3.5 0 
" style="stroke: #000000; stroke-width: 0.8"/>
      </defs>
      <g>
       <use xlink:href="#m934e9caa2f" x="57.6" y="307.584" style="stroke: #000000; stroke-width: 0.8"/>
      </g>
     </g>
     <g id="text_10">
      <!-- 0 -->
      <g transform="translate(44.2375 311.383219)scale(0.1 -0.1)">
       <use xlink:href="#DejaVuSans-30"/>
      </g>
     </g>
    </g>
    <g id="ytick_2">
     <g id="line2d_10">
      <g>
       <use xlink:href="#m934e9caa2f" x="57.6" y="263.232" style="stroke: #000000; stroke-width: 0.8"/>
      </g>
     </g>
     <g id="text_11">
      <!-- 50 -->
      <g transform="translate(37.875 267.031219)scale(0.1 -0.1)">
       <use xlink:href="#DejaVuSans-35"/>
       <use xlink:href="#DejaVuSans-30" x="63.623047"/>
      </g>
     </g>
    </g>
    <g id="ytick_3">
     <g id="line2d_11">
      <g>
       <use xlink:href="#m934e9caa2f" x="57.6" y="218.88" style="stroke: #000000; stroke-width: 0.8"/>
      </g>
     </g>
     <g id="text_12">
      <!-- 100 -->
      <g transform="translate(31.5125 222.679219)scale(0.1 -0.1)">
       <use xlink:href="#DejaVuSans-31"/>
       <use xlink:href="#DejaVuSans-30" x="63.623047"/>
       <use xlink:href="#DejaVuSans-30" x="127.246094"/>
      </g>
     </g>
    </g>
    <g id="ytick_4">
     <g id="line2d_12">
      <g>
       <use xlink:href="#m934e9caa2f" x="57.6" y="174.528" style="stroke: #000000; stroke-width: 0.8"/>
      </g>
     </g>
     <g id="text_13">
      <!-- 150 -->
      <g transform="translate(31.5125 178.327219)scale(0.1 -0.1)">
       <use xlink:href="#DejaVuSans-31"/>
       <use xlink:href="#DejaVuSans-35" x="63.623047"/>
       <use xlink:href="#DejaVuSans-30" x="127.246094"/>
      </g>
     </g>
    </g>
    <g id="ytick_5">
     <g id="line2d_13">
      <g>
       <use xlink:href="#m934e9caa2f" x="57.6" y="130.176" style="stroke: #000000; stroke-width: 0.8"/>
      </g>
     </g>
     <g id="text_14">
      <!-- 200 -->
      <g transform="translate(31.5125 133.975219)scale(0.1 -0.1)">
       <use xlink:href="#DejaVuSans-32"/>
       <use xlink:href="#DejaVuSans-30" x="63.623047"/>
       <use xlink:href="#DejaVuSans-30" x="127.246094"/>
      </g>
     </g>
    </g>
    <g id="ytick_6">
     <g id="line2d_14">
      <g>
       <use xlink:href="#m934e9caa2f" x="57.6" y="85.824" style="stroke: #000000; stroke-width: 0.8"/>
      </g>
     </g>
     <g id="text_15">
      <!-- 250 -->
      <g transform="translate(31.5125 89.623219)scale(0.1 -0.1)">
       <use xlink:href="#DejaVuSans-32"/>
       <use xlink:href="#DejaVuSans-35" x="63.623047"/>
       <use xlink:href="#DejaVuSans-30" x="127.246094"/>
      </g>
     </g>
    </g>
    <g id="ytick_7">
     <g id="line2d_15">
      <g>
       <use xlink:href="#m934e9caa2f" x="57.6" y="41.472" style="stroke: #000000; stroke-width: 0.8"/>
      </g>
     </g>
     <g id="text_16">
      <!-- 300 -->
      <g transform="translate(31.5125 45.271219)scale(0.1 -0.1)">
       <use xlink:href="#DejaVuSans-33"/>
       <use xlink:href="#DejaVuSans-30" x="63.623047"/>
       <use xlink:href="#DejaVuSans-30" x="127.246094"/>
      </g>
     </g>
    </g>
    <g id="text_17">
     <!-- Mbps -->
     <g transform="translate(25.432812 187.795187)rotate(-90)scale(0.1 -0.1)">
      <defs>
       <path id="DejaVuSans-4d" d="M 628 4666 
L 1569 4666 
L 2759 1491 
L 3956 4666 
L 4897 4666 
L 4897 0 
L 4281 0 
L 4281 4097 
L 3078 897 
L 2444 897 
L 1241 4097 
L 1241 0 
L 628 0 
L 628 4666 
z
" transform="scale(0.015625)"/>
       <path id="DejaVuSans-62" d="M 3116 1747 
Q 3116 2381 2855 2742 
Q 2594 3103 2138 3103 
Q 1681 3103 1420 2742 
Q 1159 2381 1159 1747 
Q 1159 1113 1420 752 
Q 1681 391 2138 391 
Q 2594 391 2855 752 
Q 3116 1113 3116 1747 
z
M 1159 2969 
Q 1341 3281 1617 3432 
Q 1894 3584 2278 3584 
Q 2916 3584 3314 3078 
Q 3713 2572 3713 1747 
Q 3713 922 3314 415 
Q 2916 -91 2278 -91 
Q 1894 -91 1617 61 
Q 1341 213 1159 525 
L 1159 0 
L 581 0 
L 581 4863 
L 1159 4863 
L 1159 2969 
z
" transform="scale(0.015625)"/>
       <path id="DejaVuSans-70" d="M 1159 525 
L 1159 -1331 
L 581 -1331 
L 581 3500 
L 1159 3500 
L 1159 2969 
Q 1341 3281 1617 3432 
Q 1894 3584 2278 3584 
Q 2916 3584 3314 3078 
Q 3713 2572 3713 1747 
Q 3713 922 3314 415 
Q 2916 -91 2278 -91 
Q 1894 -91 1617 61 
Q 1341 213 1159 525 
z
M 3116 1747 
Q 3116 2381 2855 2742 
Q 2594 3103 2138 3103 
Q 1681 3103 1420 2742 
Q 1159 2381 1159 1747 
Q 1159 1113 1420 752 
Q 1681 391 2138 391 
Q 2594 391 2855 752 
Q 3116 1113 3116 1747 
z
" transform="scale(0.015625)"/>
      </defs>
      <use xlink:href="#DejaVuSans-4d"/>
      <use xlink:href="#DejaVuSans-62" x="86.279297"/>
      <use xlink:href="#DejaVuSans-70" x="149.755859"/>
      <use xlink:href="#DejaVuSans-73" x="213.232422"/>
     </g>
    </g>
   </g>
   <g id="line2d_16">
    <path d="M 73.832727 298.740737 
L 73.925836 301.662743 
L 74.018354 297.91911 
L 74.110371 254.9606 
L 74.294825 299.968567 
L 74.3867 296.01409 
L 74.575566 300.626459 
L 74.759335 296.155464 
L 74.85107 302.233195 
L 74.9427 299.992601 
L 75.034316 300.726044 
L 75.125991 298.876111 
L 75.312258 303.887383 
L 75.502819 297.736135 
L 75.597415 293.553577 
L 75.972557 304.767622 
L 76.165782 297.512577 
L 76.350965 302.57519 
L 76.442804 288.981202 
L 76.629539 301.522338 
L 76.721954 291.664587 
L 76.81931 301.789816 
L 76.911685 301.127565 
L 77.003913 300.29823 
L 77.095474 302.782134 
L 77.187112 302.490137 
L 77.278972 297.491219 
L 77.371313 301.453161 
L 77.463135 297.179003 
L 77.557216 300.156772 
L 77.649115 297.394928 
L 77.742844 298.401808 
L 77.834434 300.882213 
L 77.926211 299.130246 
L 78.01798 302.070087 
L 78.112516 302.022985 
L 78.205401 302.236719 
L 78.389006 295.168901 
L 78.480603 299.340379 
L 78.572323 296.364189 
L 78.664514 301.629998 
L 78.756918 300.730367 
L 78.84846 297.436557 
L 79.125384 303.936355 
L 79.495453 299.802882 
L 79.683462 301.217008 
L 79.775208 298.818441 
L 79.958658 287.341683 
L 80.142113 293.00511 
L 80.234343 289.050011 
L 80.325858 291.253094 
L 80.417969 280.471061 
L 80.509659 293.858912 
L 80.60188 290.945053 
L 80.693566 292.01474 
L 80.785456 291.902211 
L 80.877451 288.809541 
L 80.969496 293.847668 
L 81.06175 280.387953 
L 81.153304 282.029251 
L 81.336554 288.874019 
L 81.428498 275.754344 
L 81.520422 292.873204 
L 81.612148 284.323235 
L 81.796235 298.651408 
L 81.887855 295.173416 
L 81.985622 296.244694 
L 82.170927 281.028237 
L 82.263082 286.109733 
L 82.355329 298.029539 
L 82.448605 296.379153 
L 82.633671 302.87026 
L 82.909327 286.525208 
L 83.002347 296.257811 
L 83.278477 286.906654 
L 83.370757 287.052819 
L 83.462433 303.496742 
L 83.556926 301.944625 
L 83.648651 290.518779 
L 83.833297 301.828631 
L 84.016374 303.767088 
L 84.108006 301.948486 
L 84.201206 293.341559 
L 84.295519 301.272593 
L 84.390241 299.567177 
L 84.482448 300.269304 
L 84.576022 298.268363 
L 84.667686 299.661839 
L 84.759229 298.396666 
L 84.851058 301.796408 
L 84.942921 297.858767 
L 85.132728 303.57696 
L 85.22702 301.55216 
L 85.319017 301.823831 
L 85.412846 302.880232 
L 85.504385 298.286766 
L 85.688701 302.795004 
L 85.780608 299.500816 
L 85.87289 303.515695 
L 85.964509 302.690116 
L 86.150483 304.607692 
L 86.335461 302.044398 
L 86.427335 302.736996 
L 86.518945 302.669617 
L 86.613842 301.194411 
L 86.798819 292.556369 
L 86.89104 291.477559 
L 87.074435 294.206924 
L 87.259785 299.273901 
L 87.445633 294.505982 
L 87.53737 295.143694 
L 87.72402 302.473008 
L 87.90716 292.616086 
L 87.999567 297.160067 
L 88.091258 294.667062 
L 88.18297 295.844798 
L 88.366649 300.334485 
L 88.458185 298.393901 
L 88.733241 278.06618 
L 88.918772 299.604843 
L 89.010989 297.525176 
L 89.197412 302.270384 
L 89.381539 294.791314 
L 89.568926 302.266512 
L 89.660437 300.458624 
L 89.751959 288.243828 
L 90.029547 302.706671 
L 90.121337 301.645763 
L 90.213522 298.043366 
L 90.396786 300.837461 
L 90.488305 299.704474 
L 90.580002 300.560048 
L 90.671525 299.581985 
L 90.763212 301.74632 
L 90.854889 299.253992 
L 91.131282 302.123841 
L 91.222821 249.074904 
L 91.411 302.884117 
L 91.503209 303.21198 
L 91.597369 297.554475 
L 91.689226 300.281038 
L 91.780866 295.068701 
L 91.878798 302.18476 
L 91.970548 300.315507 
L 92.062293 301.326334 
L 92.337432 296.513857 
L 92.429033 297.203811 
L 92.521177 301.287367 
L 92.704599 294.507636 
L 92.888317 299.98049 
L 92.980745 300.036558 
L 93.072962 301.084847 
L 93.164882 298.030818 
L 93.35253 303.81903 
L 93.44438 297.888464 
L 93.536146 298.309801 
L 93.628576 300.981114 
L 93.720307 296.63932 
L 93.811837 299.022799 
L 93.903372 298.227304 
L 93.995093 294.182669 
L 94.086974 296.890478 
L 94.180538 294.184137 
L 94.364088 299.062189 
L 94.455605 299.115646 
L 94.547864 294.509668 
L 94.639381 246.549118 
L 94.823853 300.751503 
L 94.917405 291.357462 
L 95.107158 302.042913 
L 95.198694 299.914015 
L 95.290223 300.843893 
L 95.38189 299.10154 
L 95.570485 286.712846 
L 95.753772 302.331907 
L 96.030262 300.231364 
L 96.122806 296.713381 
L 96.307737 302.63219 
L 96.399492 296.724233 
L 96.49125 301.854665 
L 96.676701 299.752886 
L 96.768722 294.10329 
L 97.044551 302.109904 
L 97.324796 304.768205 
L 97.6015 298.986693 
L 97.694793 302.506856 
L 97.786885 255.646355 
L 98.075925 303.566906 
L 98.170617 301.115703 
L 98.35637 303.136385 
L 98.448481 302.187472 
L 98.54132 302.450081 
L 98.726123 301.628631 
L 98.818749 297.208148 
L 99.005147 278.104866 
L 99.190815 299.405143 
L 99.282716 298.823488 
L 99.465903 279.595365 
L 99.558704 298.819516 
L 99.65057 274.828703 
L 99.841026 298.117182 
L 99.932858 283.590699 
L 100.117065 299.132835 
L 100.301484 279.654635 
L 100.484916 288.962694 
L 100.576694 300.511084 
L 100.673964 280.727295 
L 100.858693 301.123924 
L 100.950749 289.300452 
L 101.134225 298.753358 
L 101.319512 296.791247 
L 101.503659 300.507569 
L 101.595248 297.532301 
L 101.780264 300.828505 
L 101.872447 298.560316 
L 101.964314 292.718653 
L 102.057044 300.0737 
L 102.150482 299.421959 
L 102.33535 301.763357 
L 102.427074 298.039995 
L 102.518858 301.077344 
L 102.799367 297.200269 
L 102.987715 299.974074 
L 103.172393 295.914431 
L 103.355693 298.605589 
L 103.540352 293.171513 
L 103.633552 297.245813 
L 103.822871 292.541032 
L 104.007268 296.319856 
L 104.099867 293.88472 
L 104.28322 298.274833 
L 104.374986 288.979453 
L 104.466653 295.280737 
L 104.649957 285.890508 
L 104.834733 297.382085 
L 104.927129 290.929713 
L 105.110796 297.812949 
L 105.206235 293.319162 
L 105.298475 300.277282 
L 105.577291 289.165016 
L 105.761664 298.680389 
L 105.854761 297.682158 
L 105.946276 294.877086 
L 106.039638 295.137714 
L 106.131535 295.109304 
L 106.315314 301.74343 
L 106.407275 300.893261 
L 106.590926 297.437586 
L 106.68247 300.689441 
L 106.957951 287.354639 
L 107.049486 260.355131 
L 107.23565 293.753086 
L 107.327539 290.96342 
L 107.42037 291.811286 
L 107.512013 298.348413 
L 107.605913 291.162011 
L 107.702375 296.434327 
L 107.793931 285.502941 
L 107.886083 288.914474 
L 108.071927 297.834449 
L 108.163568 294.170014 
L 108.256734 294.390646 
L 108.348331 294.107125 
L 108.440379 285.400314 
L 108.532585 265.31666 
L 108.624099 219.456468 
L 108.990499 290.152509 
L 109.190419 296.266918 
L 109.374416 301.165882 
L 109.466051 298.992806 
L 109.557924 294.000984 
L 109.742718 299.415538 
L 109.834631 292.238699 
L 110.019112 297.820908 
L 110.110684 292.942545 
L 110.20389 293.295562 
L 110.386993 289.056317 
L 110.571135 295.955274 
L 110.66268 293.56129 
L 110.75431 299.616275 
L 111.031545 295.298289 
L 111.123114 296.404078 
L 111.215484 294.300868 
L 111.306996 288.255584 
L 111.583234 302.40036 
L 111.674813 301.806849 
L 111.766479 299.582219 
L 111.955091 302.742332 
L 112.046647 275.35822 
L 112.229851 298.991045 
L 112.321662 295.353739 
L 112.413253 290.586079 
L 112.597229 299.048429 
L 112.688797 299.30225 
L 112.783779 295.729817 
L 112.968668 279.076853 
L 113.155362 301.301244 
L 113.339323 299.639271 
L 113.523722 291.375945 
L 113.616181 297.940987 
L 113.707707 297.519209 
L 113.893225 293.06734 
L 113.984858 296.330386 
L 114.167952 293.924336 
L 114.260669 297.422079 
L 114.353634 295.394832 
L 114.72374 305.611231 
L 114.908433 293.425848 
L 115.003135 304.725434 
L 115.09494 295.916618 
L 115.188991 303.749746 
L 115.285147 303.45097 
L 115.563215 299.872148 
L 115.746487 284.611513 
L 115.933385 303.416626 
L 116.026195 298.308775 
L 116.120922 300.474758 
L 116.212535 305.671121 
L 116.400742 299.907749 
L 116.586086 303.955625 
L 116.6776 303.671211 
L 116.864345 298.982122 
L 117.050581 305.466401 
L 117.142261 299.884905 
L 117.234099 302.779254 
L 117.32748 301.229327 
L 117.418997 291.048174 
L 117.510975 300.461314 
L 117.603141 300.323952 
L 117.695066 298.690004 
L 117.787962 303.316947 
L 117.882052 298.257987 
L 117.973573 299.371785 
L 118.065089 297.836159 
L 118.156625 299.172225 
L 118.250591 294.525553 
L 118.342115 283.683416 
L 118.618497 301.992401 
L 118.710008 302.997929 
L 118.803353 299.311491 
L 118.986935 303.32359 
L 119.17033 295.43454 
L 119.262669 293.373461 
L 119.448679 302.684232 
L 119.631954 299.823108 
L 119.723604 302.320516 
L 119.998696 295.439276 
L 120.194963 302.993439 
L 120.472433 297.831351 
L 120.564049 300.799455 
L 120.656553 298.173327 
L 120.748843 287.835746 
L 120.937134 302.188006 
L 121.028776 301.364624 
L 121.120439 296.852841 
L 121.212171 285.985568 
L 121.397054 301.687218 
L 121.488697 300.707149 
L 121.673161 303.901243 
L 121.952571 299.587473 
L 122.136926 304.245437 
L 122.22844 299.314335 
L 122.412224 301.447424 
L 122.504307 302.121433 
L 122.596387 297.513173 
L 122.780443 305.288342 
L 122.871978 305.092444 
L 122.966265 305.300335 
L 123.059211 299.184711 
L 123.242603 252.849307 
L 123.334132 248.030585 
L 123.427359 302.395253 
L 123.518976 301.996807 
L 123.703547 304.809075 
L 123.795617 304.207475 
L 123.887937 301.775571 
L 123.981951 304.181371 
L 124.073637 303.103127 
L 124.165321 304.666221 
L 124.256862 303.668827 
L 124.35445 305.702961 
L 124.447538 300.291909 
L 124.539712 303.513039 
L 124.631357 288.73943 
L 124.727422 290.297946 
L 124.819082 291.595222 
L 124.910594 288.232845 
L 125.004415 304.664156 
L 125.098519 302.202724 
L 125.19123 304.971276 
L 125.374477 302.162215 
L 125.466324 289.196432 
L 125.6494 301.352511 
L 125.740981 301.784252 
L 125.832884 291.798263 
L 126.017129 304.827887 
L 126.109162 300.483463 
L 126.201621 304.972646 
L 126.293214 304.306534 
L 126.384786 301.063273 
L 126.476392 301.791824 
L 126.568457 301.665548 
L 126.665134 301.745799 
L 126.859717 303.188891 
L 127.043988 302.300262 
L 127.135915 300.431474 
L 127.227531 302.925075 
L 127.319062 266.578727 
L 127.503834 302.520744 
L 127.68845 296.705527 
L 127.872483 286.377046 
L 127.965263 301.909386 
L 128.057368 300.669774 
L 128.148941 298.366059 
L 128.24047 299.007404 
L 128.42524 302.99044 
L 128.609977 297.0302 
L 128.701493 302.286793 
L 128.793061 301.617326 
L 128.88888 302.271889 
L 129.072294 293.073367 
L 129.164084 302.708127 
L 129.256282 301.220726 
L 129.442533 291.126614 
L 129.535231 295.532128 
L 129.626795 283.863557 
L 129.812635 299.743261 
L 130.087436 278.485972 
L 130.180182 300.052924 
L 130.271967 295.060732 
L 130.547692 300.523122 
L 130.639207 284.092881 
L 130.916705 302.881948 
L 131.100423 293.508399 
L 131.194191 301.929304 
L 131.390835 295.15825 
L 131.482933 296.149952 
L 131.574754 297.96782 
L 131.666722 289.747223 
L 131.758677 299.487502 
L 131.850476 295.523186 
L 132.037085 301.290314 
L 132.128621 301.550228 
L 132.220216 294.588327 
L 132.313642 298.706397 
L 132.405315 297.857219 
L 132.497806 301.54895 
L 132.682049 297.453641 
L 132.774801 299.711706 
L 132.86718 295.89228 
L 133.052107 303.266877 
L 133.145091 298.061969 
L 133.236842 303.604303 
L 133.329164 301.656407 
L 133.611318 304.977481 
L 133.703181 303.739994 
L 133.794789 299.97388 
L 133.886355 284.85508 
L 133.977985 288.004997 
L 134.069701 288.995156 
L 134.164759 303.087483 
L 134.256308 301.061035 
L 134.347954 301.338107 
L 134.439566 303.691887 
L 134.531126 299.687387 
L 134.622743 305.124697 
L 134.717351 298.244173 
L 134.808962 301.266715 
L 134.902293 301.227232 
L 134.994402 302.701923 
L 135.085915 300.570698 
L 135.178148 301.987705 
L 135.270338 301.072569 
L 135.362786 302.057597 
L 135.454568 301.092936 
L 135.547506 303.796262 
L 135.640839 303.290763 
L 135.8385 299.637479 
L 135.930911 301.330906 
L 136.025371 296.029558 
L 136.11761 296.104624 
L 136.396247 299.949799 
L 136.487943 294.527085 
L 136.76853 304.067592 
L 136.86007 302.220719 
L 136.952409 304.462313 
L 137.229056 298.62222 
L 137.322411 300.953213 
L 137.416922 290.413856 
L 137.508967 298.775551 
L 137.600537 297.515651 
L 137.69356 298.021364 
L 137.785086 295.540285 
L 137.968607 301.569306 
L 138.06183 300.736438 
L 138.153639 290.99741 
L 138.337707 304.012185 
L 138.431929 298.868171 
L 138.527686 303.103497 
L 138.619923 300.003593 
L 138.718458 303.041673 
L 138.813704 299.603899 
L 138.905679 304.58738 
L 138.99743 304.441551 
L 139.366824 294.016596 
L 139.741964 304.949436 
L 139.83349 300.836789 
L 139.92539 305.380052 
L 140.021593 302.260474 
L 140.113652 302.812406 
L 140.206872 302.822799 
L 140.302096 301.979927 
L 140.393805 304.248123 
L 140.487396 302.622446 
L 140.579181 302.690899 
L 140.856052 297.788327 
L 140.954147 303.957844 
L 141.046458 299.230041 
L 141.140345 303.723861 
L 141.238589 300.369234 
L 141.42652 303.217329 
L 141.518492 294.286474 
L 141.612229 300.205818 
L 141.703776 298.771198 
L 141.796457 301.452693 
L 141.985346 299.445829 
L 142.07772 300.077676 
L 142.263894 304.829583 
L 142.355495 303.165153 
L 142.448271 305.584226 
L 142.541367 302.883755 
L 142.63296 303.645199 
L 142.731968 303.291064 
L 142.823762 300.084206 
L 143.010177 303.702134 
L 143.102794 303.620036 
L 143.194864 302.533288 
L 143.38184 304.830909 
L 143.565924 302.730694 
L 143.661611 305.6012 
L 143.753177 305.033071 
L 143.936575 303.156354 
L 144.122746 304.414459 
L 144.307449 302.751522 
L 144.399851 302.898156 
L 144.491437 303.093446 
L 144.584786 305.509191 
L 144.679979 305.47502 
L 144.865415 302.953899 
L 144.958608 305.716319 
L 145.052397 304.866773 
L 145.145442 292.682456 
L 145.331661 303.318697 
L 145.423196 304.236983 
L 145.707988 300.46501 
L 145.802266 300.463999 
L 145.986026 292.787867 
L 146.081864 300.422693 
L 146.174115 298.188271 
L 146.268389 291.121125 
L 146.45311 299.252149 
L 146.545922 294.383943 
L 146.639779 298.513516 
L 146.731316 285.892082 
L 146.824038 288.795962 
L 146.915837 304.359323 
L 147.008196 301.379202 
L 147.290711 298.813394 
L 147.38646 295.110239 
L 147.573856 303.642339 
L 147.760011 298.957024 
L 147.85303 301.638459 
L 148.039588 296.711512 
L 148.135388 296.466769 
L 148.229262 301.959448 
L 148.320996 300.982769 
L 148.41361 302.290021 
L 148.505131 295.072869 
L 148.598254 297.730135 
L 148.689783 295.145513 
L 148.781595 295.554129 
L 148.873243 301.175445 
L 148.965677 297.562914 
L 149.057495 302.099237 
L 149.149443 298.398578 
L 149.241213 298.412411 
L 149.332806 298.998816 
L 149.424326 303.055387 
L 149.51893 302.619063 
L 149.611402 302.634392 
L 149.796921 299.721395 
L 149.88874 293.319666 
L 150.074128 300.136985 
L 150.165858 296.144268 
L 150.349972 299.031756 
L 150.443131 283.654899 
L 150.63119 295.775202 
L 150.722762 276.037407 
L 150.907731 298.118163 
L 150.999827 263.677252 
L 151.091913 300.540887 
L 151.183471 296.754265 
L 151.275694 245.624992 
L 151.459961 299.033627 
L 151.551649 266.120105 
L 151.643353 299.408434 
L 151.734931 295.584421 
L 151.918223 301.651655 
L 152.28845 306.12303 
L 152.479215 295.845325 
L 152.577251 297.323758 
L 152.668864 300.854751 
L 152.760587 299.303401 
L 152.854371 304.824114 
L 153.133292 299.618083 
L 153.225463 302.571039 
L 153.317919 301.823591 
L 153.411012 296.881208 
L 153.603436 305.813231 
L 153.699336 305.582987 
L 153.796273 304.614903 
L 153.892393 305.225418 
L 154.078442 300.852798 
L 154.170083 304.885741 
L 154.261973 292.979605 
L 154.454788 303.978394 
L 154.642512 300.040702 
L 154.735124 301.719118 
L 154.828791 301.455579 
L 155.014852 300.360759 
L 155.107784 298.537794 
L 155.199901 300.655271 
L 155.384083 296.515068 
L 155.475758 286.451287 
L 155.661484 301.904665 
L 155.7531 299.537467 
L 155.936691 302.161763 
L 156.028438 299.935062 
L 156.119959 289.503765 
L 156.397027 304.916329 
L 156.580984 302.464788 
L 156.673826 298.73017 
L 156.766643 301.732604 
L 156.860083 298.452021 
L 157.047322 305.716101 
L 157.140614 303.315753 
L 157.252845 304.792254 
L 157.34478 303.596367 
L 157.436346 295.573055 
L 157.528209 298.203504 
L 157.620652 304.944497 
L 157.712369 304.226917 
L 157.803897 302.637348 
L 157.89637 304.184573 
L 157.989114 303.781298 
L 158.0839 304.703668 
L 158.269098 300.17802 
L 158.360734 291.176992 
L 158.453252 304.347745 
L 158.544915 301.924522 
L 158.636479 306.701149 
L 158.729166 302.984952 
L 158.823539 305.494364 
L 158.916258 303.994018 
L 159.197097 297.392522 
L 159.291558 297.874521 
L 159.383344 292.315808 
L 159.658978 304.892463 
L 159.751369 302.294588 
L 160.026622 300.564579 
L 160.120806 300.525919 
L 160.212807 294.914986 
L 160.304533 295.621437 
L 160.397346 294.981744 
L 160.588297 304.890387 
L 160.680604 305.453156 
L 160.772883 300.343819 
L 160.958974 302.480333 
L 161.051324 295.75861 
L 161.1429 275.720212 
L 161.330591 303.681647 
L 161.422736 300.725824 
L 161.522902 290.358202 
L 161.707779 303.483032 
L 161.799295 305.308223 
L 161.891049 298.95933 
L 162.08297 304.728673 
L 162.176577 304.699025 
L 162.268156 301.222984 
L 162.452164 304.37332 
L 162.638136 302.006919 
L 162.914592 288.027398 
L 163.006108 291.02182 
L 163.098576 288.997974 
L 163.195076 295.642148 
L 163.380339 285.722295 
L 163.471959 289.351623 
L 163.563644 284.163374 
L 163.838556 297.372902 
L 163.930321 298.220287 
L 164.023427 295.633781 
L 164.116628 289.224153 
L 164.208386 299.373357 
L 164.391504 293.598173 
L 164.483628 294.404664 
L 164.66721 282.929372 
L 164.943669 295.806109 
L 165.035407 295.853882 
L 165.127264 295.766779 
L 165.2195 299.11454 
L 165.311301 291.851137 
L 165.496429 300.613871 
L 165.681377 295.44714 
L 166.050704 305.596881 
L 166.142488 305.78332 
L 166.235563 302.107858 
L 166.327117 303.526213 
L 166.420217 301.797796 
L 166.511743 290.019233 
L 166.704211 303.713914 
L 166.795737 304.309961 
L 166.89065 296.426481 
L 166.982162 304.44905 
L 167.073687 301.163817 
L 167.165219 278.312114 
L 167.257308 282.594695 
L 167.349433 298.600516 
L 167.442727 290.376924 
L 167.534303 303.371238 
L 167.62583 300.902964 
L 167.718044 299.650402 
L 167.810605 302.670969 
L 167.904336 301.534832 
L 168.090636 302.451159 
L 168.182767 306.165657 
L 168.275803 305.277151 
L 168.369324 301.866156 
L 168.462442 305.035509 
L 168.554114 304.091412 
L 168.645645 301.588433 
L 168.740718 303.333492 
L 169.01819 295.232817 
L 169.109705 261.461336 
L 169.20418 301.160242 
L 169.295757 271.011337 
L 169.480467 305.263145 
L 169.572219 304.658925 
L 169.668261 305.977223 
L 169.85262 303.154546 
L 169.945782 302.87653 
L 170.043334 304.084131 
L 170.13654 298.956687 
L 170.234967 305.439949 
L 170.328529 304.660839 
L 170.420171 299.866124 
L 170.512182 299.875202 
L 170.604634 301.279839 
L 170.697248 300.840428 
L 170.880461 303.516637 
L 170.972143 299.874319 
L 171.063841 300.78988 
L 171.157611 303.728814 
L 171.249383 301.728857 
L 171.621866 305.668762 
L 171.810027 304.361174 
L 171.902964 300.154651 
L 171.994755 301.264886 
L 172.086534 300.548332 
L 172.180562 295.724865 
L 172.272618 297.100161 
L 172.366052 303.376783 
L 172.457856 302.426337 
L 172.646407 305.007125 
L 172.738012 303.601322 
L 172.925164 304.719441 
L 173.01668 300.080154 
L 173.200238 287.144706 
L 173.293117 296.974115 
L 173.384717 289.414481 
L 173.674766 305.408036 
L 173.858077 304.483232 
L 173.949617 251.781519 
L 174.041215 304.1111 
L 174.134754 304.084115 
L 174.226406 303.528724 
L 174.318083 305.733052 
L 174.501399 302.79498 
L 174.874172 248.026082 
L 175.060828 303.450072 
L 175.152936 302.473253 
L 175.248012 305.375431 
L 175.34154 304.170844 
L 175.438332 306.192235 
L 175.623887 304.059861 
L 175.71652 304.199877 
L 176.098007 306.632932 
L 176.191921 304.585984 
L 176.283597 305.400738 
L 176.375542 304.90775 
L 176.926954 295.735845 
L 177.118452 305.505579 
L 177.210561 301.563743 
L 177.303314 304.960418 
L 177.396662 304.404779 
L 177.488251 303.674648 
L 177.579782 301.826657 
L 177.672074 304.10781 
L 177.766742 290.71111 
L 177.950679 302.046915 
L 178.04222 296.988116 
L 178.225692 305.165228 
L 178.317673 304.979081 
L 178.503618 298.989359 
L 178.694242 304.900556 
L 178.785791 303.604373 
L 178.879185 304.659813 
L 178.971311 303.163727 
L 179.063698 304.660397 
L 179.15589 303.917369 
L 179.24755 304.234095 
L 179.431944 298.610286 
L 179.616016 303.466869 
L 179.707706 302.822981 
L 179.800399 301.66728 
L 179.891983 298.029597 
L 179.985364 302.838591 
L 180.079153 301.746798 
L 180.170823 303.110362 
L 180.262818 302.338168 
L 180.354515 270.479399 
L 180.538317 301.616261 
L 180.630026 297.993429 
L 180.723165 303.249971 
L 180.816419 301.66256 
L 180.907972 296.270069 
L 180.999502 248.792319 
L 181.185065 302.158512 
L 181.276706 299.181885 
L 181.369628 300.992106 
L 181.461711 287.74149 
L 181.55343 303.581846 
L 181.645869 301.111806 
L 181.829182 295.912708 
L 181.920701 293.90031 
L 182.111733 304.085919 
L 182.203482 304.440071 
L 182.296128 303.238194 
L 182.387994 304.043877 
L 182.759649 299.185936 
L 182.851212 299.65889 
L 182.946858 304.795229 
L 183.041661 303.583931 
L 183.134448 304.718584 
L 183.226109 302.038863 
L 183.318426 303.521078 
L 183.506906 299.339085 
L 183.600905 299.726035 
L 183.694142 300.921037 
L 183.78624 288.114823 
L 183.97016 303.164067 
L 184.153755 275.279417 
L 184.336787 215.90068 
L 184.428446 211.70867 
L 184.519965 213.145868 
L 184.703011 206.665083 
L 184.794552 209.091934 
L 184.982354 298.488319 
L 185.074147 293.636349 
L 185.167995 298.612541 
L 185.259879 293.829389 
L 185.53682 301.727976 
L 185.628632 296.472234 
L 185.720211 303.996964 
L 185.81188 303.595998 
L 185.906052 304.08986 
L 185.999104 297.924236 
L 186.092916 302.311277 
L 186.184464 302.048428 
L 186.276812 300.613561 
L 186.376505 304.255406 
L 186.65757 301.030372 
L 186.751758 297.217032 
L 186.843852 303.017273 
L 186.941021 299.722675 
L 187.129175 302.430533 
L 187.225404 300.304329 
L 187.413367 303.616265 
L 187.508282 298.512584 
L 187.600783 302.481168 
L 187.693404 290.402413 
L 187.785408 299.384473 
L 187.882235 296.946795 
L 187.974326 305.169208 
L 188.069823 302.943251 
L 188.161971 305.506487 
L 188.254987 304.304176 
L 188.441765 298.729331 
L 188.625117 304.693062 
L 188.716678 301.537043 
L 188.994217 304.698057 
L 189.177943 302.254093 
L 189.273061 303.269452 
L 189.365346 301.389994 
L 189.55092 302.987872 
L 189.642927 301.212206 
L 189.735517 305.411793 
L 190.011654 298.835725 
L 190.105313 289.005362 
L 190.380406 303.988583 
L 190.472204 300.73722 
L 190.564009 302.240891 
L 190.655852 300.333756 
L 190.74803 303.762125 
L 190.841038 303.044382 
L 190.933439 304.012444 
L 191.025104 302.98069 
L 191.116686 304.549484 
L 191.208207 303.336501 
L 191.301292 298.975249 
L 191.393807 301.006803 
L 191.580654 297.871255 
L 191.676108 302.780148 
L 191.768475 301.711314 
L 191.957688 295.088563 
L 192.050734 304.272627 
L 192.142804 298.080965 
L 192.326518 301.854931 
L 192.418077 297.406084 
L 192.509995 297.808287 
L 192.60239 302.012329 
L 192.693917 298.287224 
L 192.969376 302.169668 
L 193.154322 299.406443 
L 193.34479 302.232625 
L 193.533788 300.233721 
L 193.626883 300.259614 
L 193.810771 293.540352 
L 193.902899 301.453485 
L 193.994939 301.240998 
L 194.086527 300.588073 
L 194.178336 298.649221 
L 194.457839 303.294323 
L 194.549358 301.771715 
L 194.642691 301.903301 
L 194.741085 295.382634 
L 194.832608 297.164336 
L 194.925336 301.951531 
L 195.016983 301.798558 
L 195.108799 302.972949 
L 195.202599 299.968345 
L 195.294707 300.050058 
L 195.386238 299.764836 
L 195.480166 300.472643 
L 195.573492 303.36946 
L 195.665449 299.678525 
L 195.758109 302.282863 
L 195.941163 251.005797 
L 196.125901 301.113463 
L 196.218381 298.596233 
L 196.402025 286.536623 
L 196.494761 298.919024 
L 196.586291 296.829504 
L 196.680782 287.424014 
L 196.864632 298.217087 
L 196.956435 294.662864 
L 197.048048 296.415793 
L 197.140087 294.549463 
L 197.323359 296.851619 
L 197.417636 292.178322 
L 197.60455 303.164965 
L 197.697397 303.729867 
L 197.789033 301.943642 
L 197.883769 304.914034 
L 197.975762 300.47053 
L 198.068911 300.80984 
L 198.16208 302.231051 
L 198.253702 305.775338 
L 198.345926 305.126347 
L 198.530077 277.48594 
L 198.621794 304.511088 
L 198.713419 303.474153 
L 198.805345 303.765944 
L 198.897348 304.99054 
L 198.98969 302.582274 
L 199.081245 303.575024 
L 199.175082 300.565233 
L 199.358419 302.920671 
L 199.450609 301.61139 
L 199.635239 305.202978 
L 199.728231 301.580429 
L 199.911561 305.069041 
L 200.003651 294.06142 
L 200.096482 299.488231 
L 200.188185 298.077717 
L 200.373412 302.642439 
L 200.470003 302.27596 
L 200.561746 303.164762 
L 200.65341 302.645062 
L 200.745555 303.62705 
L 200.931345 299.974557 
L 201.023598 285.735432 
L 201.209197 300.994111 
L 201.303794 296.938844 
L 201.489098 302.784932 
L 201.67216 292.534474 
L 201.855874 301.683804 
L 202.130717 292.980293 
L 202.222681 299.589724 
L 202.315139 297.882588 
L 202.407298 299.684919 
L 202.591178 296.002975 
L 202.682869 294.74271 
L 202.774821 301.965354 
L 202.866982 301.540413 
L 202.958682 302.391766 
L 203.050504 301.014917 
L 203.142326 303.136085 
L 203.233864 299.86363 
L 203.325642 292.110739 
L 203.417283 302.932076 
L 203.509399 299.99372 
L 203.601114 301.297804 
L 203.695243 304.246628 
L 203.878666 292.297446 
L 203.97195 298.786109 
L 204.063655 296.068927 
L 204.159992 300.918314 
L 204.251604 267.878973 
L 204.344657 304.269427 
L 204.437093 303.659902 
L 204.530216 301.796092 
L 204.622699 303.175495 
L 204.807221 300.2731 
L 204.898741 302.838981 
L 204.991349 301.754989 
L 205.267751 296.245286 
L 205.359422 295.344315 
L 205.451045 299.474965 
L 205.543151 281.500541 
L 205.635247 301.614625 
L 205.726798 298.813849 
L 205.911389 300.527957 
L 206.003309 299.988186 
L 206.278259 274.984542 
L 206.369941 241.811628 
L 206.461517 242.006687 
L 206.553098 243.116355 
L 206.644698 240.579311 
L 206.736228 247.298277 
L 206.827816 244.038657 
L 206.919469 248.682096 
L 207.011063 243.723315 
L 207.195294 266.736827 
L 207.471079 264.382883 
L 207.658253 299.460249 
L 207.751428 302.71212 
L 208.034414 297.649037 
L 208.126336 298.149882 
L 208.218526 284.037138 
L 208.408853 304.930826 
L 208.686801 294.342512 
L 208.872147 302.725194 
L 208.964448 303.039851 
L 209.05599 300.647696 
L 209.150438 303.114727 
L 209.333928 300.945236 
L 209.428509 302.555264 
L 209.800494 301.098917 
L 209.892219 298.028612 
L 210.079534 302.111101 
L 210.264232 297.850894 
L 210.357008 289.071904 
L 210.448921 292.209977 
L 210.54282 301.756197 
L 210.635385 301.231233 
L 210.729224 291.79283 
L 210.8208 300.369199 
L 210.914689 299.255591 
L 211.006202 295.418642 
L 211.097729 297.446538 
L 211.189997 297.053874 
L 211.281577 291.259473 
L 211.373253 294.756061 
L 211.464926 304.133297 
L 211.557586 303.4868 
L 211.742198 299.510308 
L 211.833861 292.79224 
L 211.925531 292.925159 
L 212.017133 287.709766 
L 212.209529 300.766209 
L 212.301692 300.377224 
L 212.393797 300.461062 
L 212.485636 270.546178 
L 212.669075 289.962224 
L 212.85626 303.33067 
L 212.948316 303.217662 
L 213.040888 302.163448 
L 213.407414 276.561625 
L 213.499157 286.375898 
L 213.773915 276.986271 
L 213.865476 281.303165 
L 213.957274 278.074124 
L 214.048986 278.814652 
L 214.140531 289.696982 
L 214.232168 277.646702 
L 214.32478 288.417198 
L 214.416823 287.126647 
L 214.60008 289.35902 
L 214.691611 276.113564 
L 214.783198 292.840831 
L 214.875669 286.999043 
L 215.060633 297.241663 
L 215.245265 265.748922 
L 215.523513 299.267031 
L 215.615026 294.715566 
L 215.894294 299.900062 
L 215.985862 288.823708 
L 216.077599 298.513149 
L 216.169128 291.79136 
L 216.353406 302.089441 
L 216.448177 300.343633 
L 216.540233 301.744872 
L 216.632653 305.238593 
L 216.72496 302.428913 
L 216.816605 293.180554 
L 216.908177 302.365009 
L 217.000917 301.353458 
L 217.096294 303.143988 
L 217.28133 293.547858 
L 217.469517 305.1466 
L 217.563947 303.939158 
L 217.656571 299.294894 
L 217.748224 301.476855 
L 217.840009 300.805154 
L 217.932255 292.610186 
L 218.0245 305.220521 
L 218.121589 304.355661 
L 218.215141 290.418497 
L 218.39938 301.289532 
L 218.492533 286.736243 
L 218.584961 293.981639 
L 218.683829 285.098089 
L 218.870082 298.439423 
L 219.055449 302.067289 
L 219.147002 298.284102 
L 219.239161 301.239916 
L 219.331031 300.305987 
L 219.514972 293.944947 
L 219.79605 302.348213 
L 220.07746 296.76411 
L 220.169219 299.369659 
L 220.261369 298.033018 
L 220.352921 290.846175 
L 220.536021 293.06514 
L 220.627612 286.027727 
L 220.905081 300.937028 
L 220.996711 301.532576 
L 221.088282 301.078087 
L 221.181641 301.788905 
L 221.365591 299.277833 
L 221.460316 305.394849 
L 221.551903 301.918217 
L 221.643417 304.878024 
L 221.735384 304.491691 
L 221.826954 302.707543 
L 221.919055 295.787437 
L 222.011835 301.704597 
L 222.104654 301.012717 
L 222.196684 302.457644 
L 222.289239 300.633149 
L 222.380812 293.912436 
L 222.472383 295.839716 
L 222.655659 285.067061 
L 222.747635 302.212505 
L 222.931909 295.405142 
L 223.023771 298.655778 
L 223.209785 295.217148 
L 223.396377 301.795341 
L 223.67345 290.357033 
L 223.765471 301.198755 
L 223.856993 298.871064 
L 223.94909 291.725067 
L 224.041015 292.995976 
L 224.133132 286.654951 
L 224.316208 250.099024 
L 224.500526 299.07101 
L 224.592607 304.503842 
L 224.68494 304.197696 
L 224.868112 302.773813 
L 224.961179 299.59908 
L 225.053112 302.369797 
L 225.238007 297.518691 
L 225.329527 301.0356 
L 225.512854 288.646693 
L 225.605694 303.303909 
L 225.698391 300.781681 
L 225.790695 300.15729 
L 225.976912 298.080451 
L 226.069151 299.005956 
L 226.252883 303.13033 
L 226.436469 304.162883 
L 226.622559 298.317915 
L 226.715336 300.064128 
L 226.903368 303.782604 
L 226.996406 302.641411 
L 227.087934 302.607257 
L 227.179511 301.476253 
L 227.456623 305.933146 
L 227.827004 299.570996 
L 227.920207 299.602698 
L 228.012087 303.646154 
L 228.104386 298.781962 
L 228.197826 302.850493 
L 228.381937 288.64986 
L 228.473463 285.968105 
L 228.751158 305.823023 
L 228.939162 304.398161 
L 229.215928 298.862351 
L 229.307498 300.750413 
L 229.399175 298.848 
L 229.491693 304.8126 
L 229.583882 300.203832 
L 229.769893 304.229169 
L 229.861761 304.457189 
L 229.953477 301.726711 
L 230.047015 295.012444 
L 230.230966 305.418278 
L 230.324031 300.924025 
L 230.416415 303.366992 
L 230.601213 297.665441 
L 230.699271 303.03525 
L 230.791358 297.550391 
L 230.978047 304.992993 
L 231.069979 306.077377 
L 231.253901 303.006897 
L 231.34559 295.796209 
L 231.437611 296.896384 
L 231.529334 297.982374 
L 231.620998 301.97275 
L 231.713352 301.113755 
L 231.804885 275.20497 
L 231.897294 275.695184 
L 232.267333 302.594942 
L 232.361351 305.659186 
L 232.456053 301.825398 
L 232.547728 303.543247 
L 232.639725 296.906545 
L 232.826343 305.150774 
L 232.919442 304.058819 
L 233.013323 304.332969 
L 233.105276 295.06064 
L 233.289395 302.434107 
L 233.474068 299.477838 
L 233.658327 303.465146 
L 233.750107 300.253329 
L 233.84359 303.199741 
L 233.935751 302.110131 
L 234.120225 293.981799 
L 234.212567 297.917286 
L 234.396926 253.860159 
L 234.58495 303.858369 
L 234.676952 301.355138 
L 234.768895 303.553009 
L 234.860484 297.861802 
L 235.045526 302.598089 
L 235.137364 299.427355 
L 235.230681 304.24388 
L 235.323122 304.167685 
L 235.417568 303.507768 
L 235.511136 303.674083 
L 235.602838 302.604046 
L 235.694455 302.707729 
L 235.88477 304.844736 
L 236.075034 305.701406 
L 236.16674 303.363634 
L 236.259332 304.632557 
L 236.35134 297.854231 
L 236.44445 303.539004 
L 236.537623 295.481363 
L 236.629519 301.059166 
L 236.721713 300.474842 
L 236.907375 296.984697 
L 236.999111 287.44673 
L 237.093967 301.094424 
L 237.193249 297.683923 
L 237.377706 304.442501 
L 237.469314 304.093702 
L 237.562205 304.925211 
L 237.841022 300.432679 
L 237.93287 303.101387 
L 238.116919 295.066614 
L 238.310604 305.335684 
L 238.403134 304.473785 
L 238.495068 298.092603 
L 238.772103 302.629236 
L 238.866204 303.59378 
L 239.053218 300.301015 
L 239.14488 303.981913 
L 239.241947 288.002991 
L 239.334686 302.344473 
L 239.426574 299.134721 
L 239.519652 302.676636 
L 239.795678 293.636129 
L 239.887745 294.572179 
L 240.071986 292.625646 
L 240.164091 284.25633 
L 240.347212 297.038605 
L 240.439886 294.788545 
L 240.532983 288.570867 
L 240.624629 269.513704 
L 240.716799 294.11113 
L 240.808332 292.344229 
L 240.899894 289.057419 
L 241.086503 303.283947 
L 241.178996 304.331044 
L 241.454099 295.217525 
L 241.546039 297.882159 
L 241.637564 294.723125 
L 241.821115 302.050243 
L 241.913191 292.618773 
L 242.096613 304.760125 
L 242.281622 302.775589 
L 242.373152 303.026249 
L 242.563417 305.20373 
L 242.656422 292.784809 
L 242.748335 297.739007 
L 242.842418 296.908761 
L 242.934216 301.57276 
L 243.119986 299.386641 
L 243.211542 296.121732 
L 243.399021 305.449499 
L 243.493721 305.14745 
L 243.586847 304.152064 
L 243.863342 293.497315 
L 244.046599 300.424797 
L 244.231495 302.035365 
L 244.511874 294.669475 
L 244.606441 294.852191 
L 244.79113 300.877713 
L 244.883744 302.03866 
L 244.975294 300.508832 
L 245.250239 303.375071 
L 245.433609 284.101623 
L 245.620209 303.396263 
L 245.804015 298.790867 
L 245.895904 301.986497 
L 246.083845 300.780302 
L 246.178074 299.250174 
L 246.269915 295.262491 
L 246.546232 297.638591 
L 246.638174 296.252927 
L 246.731455 299.940723 
L 246.915078 294.322778 
L 247.105318 299.148737 
L 247.19692 294.490118 
L 247.294077 301.228583 
L 247.397123 298.855551 
L 247.488826 305.463636 
L 247.767839 297.774955 
L 247.859393 299.827206 
L 247.951609 297.364367 
L 248.043193 300.116808 
L 248.140311 295.469533 
L 248.328317 300.081653 
L 248.511623 303.73432 
L 248.603544 302.665886 
L 248.696969 298.108118 
L 248.788543 302.773183 
L 248.88015 300.93642 
L 249.161805 304.858145 
L 249.25341 295.911934 
L 249.345034 303.754847 
L 249.436979 303.243388 
L 249.625853 303.495988 
L 249.909048 295.890354 
L 250.094863 301.611801 
L 250.189971 300.852171 
L 250.375008 297.387247 
L 250.468983 290.692898 
L 250.560542 252.762106 
L 251.114899 297.268442 
L 251.390301 302.176481 
L 251.482128 298.180704 
L 251.573902 300.515657 
L 251.757527 298.004288 
L 251.849069 302.984875 
L 251.944176 296.964183 
L 252.220999 303.670588 
L 252.40422 288.036628 
L 252.587329 301.357146 
L 252.67898 285.642162 
L 252.772575 300.617519 
L 252.95563 237.287404 
L 253.047491 233.399524 
L 253.139004 236.562564 
L 253.322301 291.923068 
L 253.414395 285.177586 
L 253.600924 297.748445 
L 253.69257 299.593909 
L 253.784126 286.585095 
L 253.876217 302.105123 
L 253.967953 301.802864 
L 254.152358 294.014835 
L 254.245495 301.385872 
L 254.338079 300.790736 
L 254.521338 302.257363 
L 254.614118 298.545143 
L 254.804435 246.403752 
L 254.987794 303.477801 
L 255.079957 300.839134 
L 255.172625 302.62258 
L 255.26416 293.047918 
L 255.35663 294.932095 
L 255.448224 298.086591 
L 255.540319 295.294254 
L 255.723718 301.558851 
L 255.819199 299.129441 
L 256.003006 302.215216 
L 256.095294 296.676046 
L 256.188982 303.675225 
L 256.28104 293.664241 
L 256.372617 299.007348 
L 256.464214 295.944807 
L 256.649895 302.423748 
L 256.744744 302.066865 
L 256.836728 297.949435 
L 257.019998 302.043724 
L 257.112652 296.989014 
L 257.296169 300.306685 
L 257.387708 296.503022 
L 257.573743 305.67715 
L 257.759305 298.468554 
L 257.851539 302.700501 
L 257.943175 300.911511 
L 258.035071 302.618755 
L 258.126921 291.545894 
L 258.222357 303.289347 
L 258.314229 301.66922 
L 258.412162 302.567649 
L 258.504019 302.263058 
L 258.602218 304.870826 
L 258.697211 299.891247 
L 258.789999 301.448221 
L 258.882075 298.147473 
L 259.070832 302.631284 
L 259.163349 299.379901 
L 259.25616 288.339699 
L 259.352084 302.819263 
L 259.443637 300.038178 
L 259.535321 302.657562 
L 259.627911 297.559618 
L 259.811382 299.96873 
L 259.914524 294.531715 
L 260.006681 303.800468 
L 260.098454 302.94528 
L 260.374523 293.826042 
L 260.466146 283.867094 
L 260.652784 302.465315 
L 260.746863 302.109152 
L 260.93036 299.299458 
L 261.299189 292.665048 
L 261.482916 294.359924 
L 261.579371 293.398687 
L 261.764116 282.420173 
L 261.855937 294.496418 
L 261.947953 293.560551 
L 262.039758 288.653778 
L 262.132164 293.549279 
L 262.501547 289.183643 
L 262.595977 296.083688 
L 262.687728 293.551314 
L 262.780879 299.42525 
L 262.872601 290.977975 
L 262.969257 296.71146 
L 263.06134 295.667211 
L 263.152888 298.333806 
L 263.245017 295.033425 
L 263.337059 302.92089 
L 263.523851 295.924997 
L 263.617403 299.83926 
L 263.709269 296.83936 
L 263.895286 299.153389 
L 264.079191 295.691325 
L 264.172147 291.696514 
L 264.355487 297.500684 
L 264.448602 296.949244 
L 264.818535 304.441306 
L 264.912512 302.265558 
L 265.004917 302.918179 
L 265.097004 298.203342 
L 265.188909 301.185761 
L 265.283258 300.724395 
L 265.375218 302.17814 
L 265.468281 296.360669 
L 265.560278 303.464833 
L 265.651807 302.635386 
L 265.743457 300.398284 
L 265.928356 303.61896 
L 266.204221 286.701622 
L 266.295939 290.934841 
L 266.387655 302.524117 
L 266.481127 301.382838 
L 266.572877 303.871896 
L 266.664706 295.745122 
L 266.764594 303.599031 
L 266.857214 302.440314 
L 266.950231 295.497208 
L 267.041981 300.656314 
L 267.133665 295.174263 
L 267.226489 296.333925 
L 267.318455 301.453267 
L 267.414605 299.020086 
L 267.506166 289.849342 
L 267.597685 302.879062 
L 267.693174 300.401474 
L 267.877883 303.330529 
L 268.061281 301.129766 
L 268.248456 302.868408 
L 268.340068 302.126795 
L 268.431831 298.237378 
L 268.524141 302.598804 
L 268.616112 302.452091 
L 268.707871 301.038136 
L 268.800225 303.911528 
L 268.985557 299.821431 
L 269.170486 302.284971 
L 269.541098 288.768569 
L 269.724387 300.57028 
L 269.815993 300.448919 
L 270.000212 297.229191 
L 270.371034 290.779102 
L 270.462852 299.829236 
L 270.55754 294.283253 
L 270.740902 299.683025 
L 270.838632 301.96765 
L 271.021862 300.774657 
L 271.113681 305.109045 
L 271.205434 302.06309 
L 271.297646 302.653064 
L 271.484684 300.200792 
L 271.580999 279.358152 
L 271.67405 304.276882 
L 271.766009 303.899781 
L 271.868355 303.399927 
L 271.960221 300.67047 
L 272.052162 300.861417 
L 272.143991 301.548293 
L 272.419453 232.276637 
L 272.515528 303.250901 
L 272.610214 301.647596 
L 272.702034 294.088571 
L 272.793797 294.406336 
L 272.885806 302.645475 
L 272.978151 301.998293 
L 273.070272 301.740126 
L 273.162987 300.29494 
L 273.255296 300.440181 
L 273.53403 304.709887 
L 273.626358 301.972155 
L 273.723325 304.011898 
L 273.820293 302.700428 
L 274.008028 305.921786 
L 274.099759 304.53676 
L 274.283272 296.905434 
L 274.375466 305.544396 
L 274.467097 301.691001 
L 274.558777 304.346592 
L 274.65227 288.185389 
L 274.744949 302.821029 
L 274.836555 299.585677 
L 274.931446 301.129628 
L 275.02445 300.015089 
L 275.119484 304.940858 
L 275.211332 302.394701 
L 275.303169 304.295733 
L 275.395249 303.532318 
L 275.487667 301.210849 
L 275.675609 304.62071 
L 275.76877 301.882573 
L 275.860299 304.851257 
L 275.952401 303.797405 
L 276.044574 300.696019 
L 276.231395 304.533993 
L 276.415485 299.948248 
L 276.507165 299.695281 
L 276.784037 303.288808 
L 276.875668 303.078071 
L 277.058811 291.878424 
L 277.150959 247.40077 
L 277.336695 303.100106 
L 277.520418 301.17892 
L 277.612252 299.456014 
L 277.704924 291.832836 
L 277.980437 304.171819 
L 278.072664 301.88451 
L 278.166829 302.75756 
L 278.350654 299.654923 
L 278.442832 304.323867 
L 278.53557 298.629323 
L 278.727793 303.89423 
L 278.91182 301.562866 
L 279.004295 301.3343 
L 279.098692 296.115233 
L 279.284675 305.020999 
L 279.379546 303.410077 
L 279.471756 304.247594 
L 279.655475 302.267016 
L 279.748921 304.794485 
L 279.843658 304.650093 
L 279.935195 304.971999 
L 280.027037 304.439998 
L 280.118818 303.169852 
L 280.211576 304.17267 
L 280.303382 301.533837 
L 280.395087 301.987088 
L 280.582501 298.9903 
L 280.67432 301.920486 
L 280.76738 300.385051 
L 280.860088 270.087132 
L 281.049119 301.331011 
L 281.144151 298.995951 
L 281.239485 301.457074 
L 281.333018 295.990837 
L 281.42502 303.193896 
L 281.609187 291.577183 
L 281.79244 303.041122 
L 281.884808 301.849088 
L 281.976322 302.173876 
L 282.067987 299.389926 
L 282.159715 304.786445 
L 282.258144 304.086076 
L 282.350144 302.550338 
L 282.444401 304.973802 
L 282.628057 298.156134 
L 282.719765 301.318507 
L 282.812985 293.255546 
L 282.997205 304.144153 
L 283.089475 304.689036 
L 283.275822 302.507681 
L 283.463678 305.797596 
L 283.555406 303.221175 
L 283.647301 305.06924 
L 283.742198 302.431358 
L 283.83401 304.891512 
L 284.021835 300.564264 
L 284.113367 303.100946 
L 284.205585 298.507106 
L 284.297625 300.485307 
L 284.484257 292.180141 
L 284.576091 300.772048 
L 284.66811 298.890251 
L 284.761897 303.272077 
L 284.853713 295.123195 
L 285.038919 305.011027 
L 285.133483 300.891605 
L 285.318629 303.091925 
L 285.413257 303.138055 
L 285.504773 285.483584 
L 285.59883 303.374198 
L 285.874854 296.4674 
L 285.969782 299.432296 
L 286.155403 283.745351 
L 286.339443 299.092777 
L 286.431406 299.515016 
L 286.523403 292.765567 
L 286.706721 303.387259 
L 286.798255 302.450316 
L 286.984023 305.837444 
L 287.17402 300.864517 
L 287.265689 300.576115 
L 287.54108 294.538158 
L 287.725703 305.284457 
L 287.823523 305.102797 
L 288.006584 300.696545 
L 288.0981 300.811346 
L 288.189661 302.018427 
L 288.281774 300.28864 
L 288.375839 260.29674 
L 288.559185 305.027073 
L 288.650733 305.072296 
L 288.745817 304.749402 
L 288.93213 300.888235 
L 289.024918 304.314343 
L 289.11738 301.411733 
L 289.208968 292.789453 
L 289.301177 294.425294 
L 289.485688 296.794866 
L 289.670859 291.906621 
L 289.762957 298.834537 
L 289.85529 295.594268 
L 290.041019 304.528607 
L 290.224172 293.213102 
L 290.500694 298.774463 
L 290.593363 302.666402 
L 290.77652 295.432599 
L 290.872643 296.18652 
L 290.965718 304.417324 
L 291.057802 304.284514 
L 291.149416 305.018806 
L 291.333444 303.839906 
L 291.425086 305.376144 
L 291.608415 297.447121 
L 291.700093 301.429593 
L 291.884042 299.680969 
L 291.977041 298.541295 
L 292.072026 295.592718 
L 292.163885 304.728472 
L 292.255564 298.924305 
L 292.347978 299.327765 
L 292.441267 302.406946 
L 292.532944 299.234334 
L 292.718299 303.905966 
L 292.813239 303.772846 
L 292.904902 304.377665 
L 292.99644 302.975308 
L 293.271886 285.089086 
L 293.36344 302.93961 
L 293.455455 291.757919 
L 293.639794 305.328141 
L 293.920107 297.17548 
L 294.01318 297.86491 
L 294.105446 284.192139 
L 294.203889 299.247013 
L 294.295548 298.018703 
L 294.387443 302.070319 
L 294.479144 300.267765 
L 294.570686 296.248709 
L 294.754728 304.457986 
L 294.939369 292.300719 
L 295.12575 306.041021 
L 295.228518 305.58769 
L 295.412248 303.481789 
L 295.507016 305.179578 
L 295.598827 298.277324 
L 295.788286 304.822433 
L 295.88166 304.331766 
L 295.977568 307.089504 
L 296.073123 304.382235 
L 296.264845 306.527199 
L 296.356409 301.096911 
L 296.456276 303.939013 
L 296.732459 291.677319 
L 296.826392 287.686471 
L 297.010283 293.507265 
L 297.194648 289.069315 
L 297.378878 305.735916 
L 297.482222 306.688995 
L 297.57413 302.234355 
L 297.764262 304.95178 
L 297.856298 300.887816 
L 297.949089 303.616157 
L 298.135493 299.706229 
L 298.322379 302.789833 
L 298.413906 298.826252 
L 298.50583 300.629399 
L 298.597728 294.799172 
L 298.782503 299.653395 
L 298.967845 292.868992 
L 299.05939 292.787834 
L 299.151092 297.278183 
L 299.242648 284.488329 
L 299.33427 296.568613 
L 299.427779 294.429199 
L 299.614755 297.920755 
L 299.706482 293.360176 
L 299.798035 281.115178 
L 299.88956 289.725865 
L 299.981106 280.650948 
L 300.073502 284.90822 
L 300.165226 283.599926 
L 300.445289 275.108985 
L 300.812892 298.597916 
L 300.905354 286.446973 
L 301.089255 298.33447 
L 301.365717 287.636761 
L 301.457596 294.444843 
L 301.554217 284.796047 
L 301.650011 298.503585 
L 301.742314 293.245728 
L 301.834036 299.824286 
L 301.925559 293.560762 
L 302.017769 299.808522 
L 302.109342 292.67109 
L 302.385115 304.133299 
L 302.476683 303.704455 
L 302.568251 305.578541 
L 302.665339 302.350585 
L 302.75732 304.663603 
L 302.940873 299.880623 
L 303.032606 301.877031 
L 303.124663 298.701613 
L 303.313268 301.130846 
L 303.407108 302.741776 
L 303.498622 289.821984 
L 303.687834 304.099222 
L 303.779923 302.086843 
L 303.871606 255.721323 
L 304.057538 297.584553 
L 304.14995 296.010661 
L 304.241656 302.639901 
L 304.33337 301.506739 
L 304.519151 303.506159 
L 304.61208 301.261263 
L 304.798975 302.450946 
L 304.890795 302.309851 
L 304.98259 296.39983 
L 305.171233 300.476358 
L 305.263305 297.368397 
L 305.354966 299.296413 
L 305.446695 298.340601 
L 305.540508 302.599466 
L 305.632498 285.079938 
L 305.818527 300.140963 
L 305.910368 299.860433 
L 306.185468 287.754958 
L 306.279205 301.003263 
L 306.373281 298.336148 
L 306.465662 301.811873 
L 306.557216 300.141409 
L 306.65243 295.438237 
L 306.837202 302.254178 
L 306.928936 296.499538 
L 307.021385 297.026482 
L 307.113211 301.506372 
L 307.205685 301.116182 
L 307.301362 295.891975 
L 307.395917 304.419985 
L 307.487837 304.037535 
L 307.57979 304.194688 
L 307.67131 302.469508 
L 307.763285 295.281657 
L 307.854916 299.368245 
L 307.947321 299.106381 
L 308.039134 282.845858 
L 308.226276 301.198544 
L 308.318006 304.506386 
L 308.595045 295.70018 
L 308.687019 301.560332 
L 308.77884 297.084437 
L 308.972244 303.558774 
L 309.155494 274.861884 
L 309.248253 301.351606 
L 309.339997 298.577056 
L 309.523222 290.069649 
L 309.709767 303.125434 
L 309.98601 295.891204 
L 310.078004 289.339854 
L 310.169641 298.453625 
L 310.26131 293.473985 
L 310.446345 301.175476 
L 310.537919 299.59876 
L 310.629581 283.474461 
L 310.812977 297.937147 
L 311.087619 238.026439 
L 311.364559 301.44803 
L 311.457713 299.206249 
L 311.549614 297.489239 
L 311.643114 298.680052 
L 311.73958 298.316457 
L 311.923291 295.74972 
L 312.01481 301.160387 
L 312.198027 290.863366 
L 312.383262 299.604676 
L 312.476136 300.542225 
L 312.659698 291.821054 
L 312.846257 302.24605 
L 312.937853 302.983191 
L 313.12579 298.400551 
L 313.217988 298.959556 
L 313.309512 298.050048 
L 313.403165 299.192722 
L 313.494947 299.177782 
L 313.586467 296.33653 
L 313.678356 287.35675 
L 313.769906 296.819043 
L 313.861513 296.623817 
L 313.953302 301.541664 
L 314.045638 295.410515 
L 314.137877 300.004355 
L 314.231433 298.35392 
L 314.323632 300.350593 
L 314.415673 298.791666 
L 314.507458 295.10966 
L 314.599031 295.287944 
L 314.783453 300.420463 
L 315.059879 283.731153 
L 315.244045 297.691052 
L 315.338519 290.624248 
L 315.4301 294.866753 
L 315.522553 279.742212 
L 315.798322 299.928727 
L 315.982245 297.487743 
L 316.16574 287.541295 
L 316.258214 291.04176 
L 316.349856 283.082438 
L 316.441436 294.162656 
L 316.758349 304.610607 
L 316.941752 292.880928 
L 317.033321 297.266933 
L 317.217957 288.08777 
L 317.311387 289.450269 
L 317.681207 298.270829 
L 317.77559 297.782071 
L 317.86717 293.492842 
L 317.958925 281.457276 
L 318.421336 297.406893 
L 318.513705 291.748868 
L 318.788712 298.228089 
L 318.880902 294.475617 
L 318.974626 295.812251 
L 319.067903 290.205473 
L 319.342608 303.329756 
L 319.437847 300.908304 
L 319.530648 293.817543 
L 319.622161 294.511665 
L 319.89762 303.913055 
L 320.082406 298.646601 
L 320.174693 298.307327 
L 320.267711 303.055459 
L 320.364474 301.528573 
L 320.45702 304.445569 
L 320.548867 303.28569 
L 320.640926 303.444031 
L 320.920016 294.919032 
L 321.011669 302.874683 
L 321.103465 298.245252 
L 321.194985 300.56862 
L 321.286511 298.021414 
L 321.378283 300.788551 
L 321.469987 300.183169 
L 321.561749 300.54032 
L 321.653458 303.723151 
L 321.746619 301.37529 
L 321.930236 302.569411 
L 322.024021 304.70141 
L 322.301579 300.21322 
L 322.579186 303.315784 
L 322.67089 299.742575 
L 322.762736 303.96937 
L 322.854293 302.002985 
L 322.945804 302.13541 
L 323.037507 304.033199 
L 323.222093 286.339164 
L 323.314158 303.496963 
L 323.407873 299.152299 
L 323.499628 302.899943 
L 323.591773 298.472943 
L 323.684394 298.950781 
L 323.77658 297.930235 
L 323.868244 300.122692 
L 324.051361 291.496531 
L 324.234532 303.173624 
L 324.326212 302.832793 
L 324.417798 294.272261 
L 324.50942 300.220452 
L 324.693852 291.308145 
L 324.786192 299.402961 
L 324.878495 278.495411 
L 324.970024 292.233127 
L 325.061558 288.840652 
L 325.154389 303.803435 
L 325.246798 303.020968 
L 325.339402 304.505068 
L 325.431088 298.393746 
L 325.522756 302.39399 
L 325.614768 300.017825 
L 325.712349 302.723687 
L 325.990265 288.957398 
L 326.174209 303.091018 
L 326.357563 295.740772 
L 326.450825 296.216894 
L 326.640282 302.272402 
L 326.731969 304.387548 
L 326.823514 299.633684 
L 326.915082 300.565232 
L 327.006641 296.091096 
L 327.196784 304.635415 
L 327.564695 292.973947 
L 327.656355 295.642634 
L 327.748161 292.238476 
L 327.935666 301.788522 
L 328.027736 303.970437 
L 328.218158 301.439468 
L 328.309805 295.934576 
L 328.406898 300.090358 
L 328.498477 299.446744 
L 328.6822 295.757781 
L 328.774344 297.210806 
L 328.866383 294.890005 
L 328.958284 301.771984 
L 329.050275 298.038999 
L 329.14418 304.523039 
L 329.236151 302.396605 
L 329.328151 302.430045 
L 329.420827 302.901098 
L 329.512364 301.803255 
L 329.605593 304.186959 
L 329.789859 301.509731 
L 329.881976 303.74624 
L 330.068826 298.231245 
L 330.352314 306.544479 
L 330.535974 304.551599 
L 330.628103 305.150049 
L 330.817748 292.374469 
L 331.006159 302.09978 
L 331.098775 300.700874 
L 331.19536 304.586568 
L 331.287577 304.191951 
L 331.563548 301.430516 
L 331.657069 295.450608 
L 331.840912 300.32343 
L 331.932465 300.119554 
L 332.030624 301.182798 
L 332.122546 305.855556 
L 332.307648 297.63667 
L 332.399202 298.967121 
L 332.490774 300.825755 
L 332.582298 298.92251 
L 332.767657 304.301754 
L 332.863463 300.602073 
L 333.052212 306.564901 
L 333.14421 305.253284 
L 333.235767 300.970441 
L 333.328152 301.450304 
L 333.511439 241.82914 
L 333.695368 297.477586 
L 333.786956 293.83118 
L 333.878788 301.990334 
L 333.972363 298.332718 
L 334.065426 305.052572 
L 334.160645 303.332549 
L 334.252414 297.822766 
L 334.345617 299.536529 
L 334.437348 298.620627 
L 334.532826 295.404292 
L 334.624489 280.585845 
L 334.716452 287.720477 
L 334.809038 284.698783 
L 334.994597 298.043609 
L 335.086215 297.744926 
L 335.178489 296.445423 
L 335.270412 297.326893 
L 335.362066 295.287329 
L 335.45561 295.574002 
L 335.547383 295.025377 
L 335.640155 296.713112 
L 335.824654 290.336675 
L 336.00856 294.21159 
L 336.100108 282.330899 
L 336.652534 301.564436 
L 336.744132 299.523229 
L 337.117085 306.080416 
L 337.303444 301.138577 
L 337.395323 302.912556 
L 337.486873 296.856695 
L 337.580141 299.32871 
L 337.672953 292.888541 
L 337.767397 294.347337 
L 337.859102 277.871298 
L 337.951118 286.864522 
L 338.044221 284.745586 
L 338.320788 305.08934 
L 338.412314 301.562962 
L 338.50756 302.835733 
L 338.601536 302.606739 
L 338.693305 298.202263 
L 338.876724 304.736138 
L 338.97126 304.665725 
L 339.156568 302.485096 
L 339.248307 302.691313 
L 339.339856 301.312209 
L 339.523478 304.568661 
L 339.615606 296.949234 
L 339.799146 302.717584 
L 339.891147 303.772492 
L 340.074879 296.991383 
L 340.259881 302.36889 
L 340.351523 298.663913 
L 340.44342 301.893943 
L 340.718049 296.005466 
L 340.809676 275.013341 
L 340.901373 297.075087 
L 340.993013 293.81907 
L 341.084611 292.86376 
L 341.359453 243.526733 
L 341.543858 296.421854 
L 341.635377 294.684662 
L 341.81889 293.093944 
L 341.91123 295.468729 
L 342.002967 294.437962 
L 342.094741 280.966016 
L 342.372838 303.672221 
L 342.46444 300.844614 
L 342.649254 295.816495 
L 342.741713 287.110732 
L 342.834143 297.83381 
L 342.927277 293.923632 
L 343.01917 304.882306 
L 343.202413 294.853154 
L 343.385593 304.088933 
L 343.479618 302.657239 
L 343.571894 294.222067 
L 343.755621 302.428012 
L 343.849104 304.26318 
L 343.942191 303.246544 
L 344.03415 303.755863 
L 344.125793 305.908679 
L 344.309455 301.476207 
L 344.679009 306.165319 
L 344.770571 304.877632 
L 344.862335 305.513173 
L 344.953866 304.216923 
L 345.13726 298.356251 
L 345.231438 301.50768 
L 345.323003 301.249152 
L 345.414864 302.066007 
L 345.506473 297.285394 
L 345.598225 299.015114 
L 345.782006 292.938386 
L 345.967142 301.211078 
L 346.058697 293.652458 
L 346.150357 299.999891 
L 346.243572 296.55688 
L 346.427972 302.563149 
L 346.612984 300.686567 
L 346.797169 295.217704 
L 346.888757 300.272297 
L 346.980869 297.092798 
L 347.165033 301.98809 
L 347.25829 303.400982 
L 347.350113 302.667723 
L 347.533257 297.436963 
L 347.624798 281.392168 
L 347.716486 291.962184 
L 347.807999 285.325224 
L 348.176623 302.768332 
L 348.268601 296.14589 
L 348.360393 303.784811 
L 348.452305 299.254352 
L 348.544174 300.806445 
L 348.635737 299.602143 
L 348.822192 304.259641 
L 349.007318 306.198964 
L 349.190929 303.306521 
L 349.374059 304.380086 
L 349.651923 293.785413 
L 349.745092 304.625162 
L 349.836799 303.51643 
L 350.020138 285.402475 
L 350.207368 300.842997 
L 350.3 295.370656 
L 350.391774 297.565234 
L 350.485972 303.313937 
L 350.577537 302.528269 
L 350.763518 294.152317 
L 350.949491 298.809623 
L 351.04106 299.101262 
L 351.133191 295.950095 
L 351.321251 300.621201 
L 351.414549 300.185824 
L 351.506126 293.496065 
L 351.691912 301.261268 
L 351.784463 300.780623 
L 351.876603 295.488434 
L 352.060035 302.012364 
L 352.245008 297.101 
L 352.343593 302.825883 
L 352.435196 301.16433 
L 352.62002 296.332814 
L 352.806548 300.153284 
L 352.89817 296.845517 
L 353.083189 302.633872 
L 353.176623 299.749605 
L 353.269909 299.987105 
L 353.361678 302.102007 
L 353.453941 299.912933 
L 353.637807 306.335258 
L 353.730576 302.248712 
L 353.822848 302.968876 
L 353.914458 301.462766 
L 354.007965 304.022051 
L 354.099675 303.673218 
L 354.283274 306.343702 
L 354.375646 303.080304 
L 354.563239 306.416692 
L 354.655527 288.867301 
L 354.840374 303.956815 
L 355.023932 297.784251 
L 355.215592 305.226136 
L 355.307108 305.782037 
L 355.398688 305.481423 
L 355.490907 301.583739 
L 355.582453 305.516905 
L 355.674144 304.436036 
L 355.765689 293.348733 
L 356.040909 302.496562 
L 356.226213 304.011428 
L 356.31805 302.280653 
L 356.411845 302.394667 
L 356.50375 302.684681 
L 356.596324 300.460991 
L 356.688967 302.754485 
L 356.78129 302.664881 
L 356.873379 298.726672 
L 356.965442 301.537416 
L 357.14869 294.363229 
L 357.240219 303.382919 
L 357.335975 302.963842 
L 357.430471 305.218366 
L 357.613593 292.488676 
L 357.706552 301.674436 
L 357.798155 289.559818 
L 357.981829 302.177448 
L 358.073425 297.598251 
L 358.165343 302.496239 
L 358.25922 298.057724 
L 358.350931 303.250127 
L 358.442737 291.103902 
L 358.534414 292.714473 
L 358.720244 286.212302 
L 358.811961 292.835305 
L 358.903589 291.777191 
L 358.995115 294.809661 
L 359.086958 283.356146 
L 359.363262 296.278364 
L 359.455922 296.70004 
L 359.641826 290.746569 
L 359.73601 297.965611 
L 359.828468 286.094079 
L 360.10633 303.881502 
L 360.47345 268.720266 
L 360.657117 293.34567 
L 360.74952 284.360596 
L 360.842773 301.404228 
L 360.935348 276.106798 
L 361.026915 286.571448 
L 361.210174 275.902273 
L 361.487436 297.671142 
L 361.578954 293.17346 
L 361.762343 302.755892 
L 361.855416 297.364097 
L 362.040981 299.268968 
L 362.132518 277.643307 
L 362.224712 298.085598 
L 362.316419 292.485105 
L 362.407996 293.194993 
L 362.499522 290.542413 
L 362.591249 292.098583 
L 362.775321 289.983333 
L 362.867119 292.512368 
L 362.962176 300.168754 
L 363.053694 299.725113 
L 363.146167 296.356763 
L 363.238466 302.026792 
L 363.330029 300.606207 
L 363.423512 303.017317 
L 363.607807 299.27331 
L 363.791275 303.550798 
L 363.885814 300.162068 
L 363.97983 283.0692 
L 364.07271 301.59735 
L 364.165694 298.955055 
L 364.257456 302.556926 
L 364.349527 294.095592 
L 364.441164 303.453627 
L 364.533317 300.60278 
L 364.625229 304.955776 
L 364.716953 300.864563 
L 364.808502 303.719547 
L 364.996232 299.224153 
L 365.088166 300.811302 
L 365.179826 294.401266 
L 365.460227 304.138263 
L 365.737364 299.072101 
L 365.829222 300.33781 
L 365.92097 299.443992 
L 366.196163 294.717408 
L 366.288717 296.556474 
L 366.380806 292.545453 
L 366.474512 301.701098 
L 366.570237 298.22138 
L 366.666033 302.3332 
L 366.757753 299.565998 
L 366.942691 303.058814 
L 367.03562 297.438264 
L 367.220286 303.646359 
L 367.311947 297.667556 
L 367.404873 300.199958 
L 367.497031 297.47181 
L 367.77579 304.472333 
L 367.868637 302.384851 
L 367.960224 304.63277 
L 368.051976 299.40633 
L 368.143517 304.406552 
L 368.328132 298.506042 
L 368.422708 297.103716 
L 368.514248 301.129999 
L 368.605798 296.699309 
L 368.975012 303.554791 
L 369.071058 302.202681 
L 369.162751 294.608148 
L 369.254352 300.235256 
L 369.34588 292.453623 
L 369.437398 293.306906 
L 369.528945 301.824784 
L 369.621102 298.700588 
L 369.712718 298.901572 
L 369.897464 301.956043 
L 370.173475 295.153339 
L 370.264997 295.885529 
L 370.356922 301.995015 
L 370.448582 301.188164 
L 370.545759 302.95162 
L 370.637432 300.289016 
L 370.729109 304.827371 
L 371.004486 300.021425 
L 371.096201 301.53441 
L 371.188029 301.980669 
L 371.371454 298.932122 
L 371.463274 289.25661 
L 371.555458 302.806601 
L 371.647348 302.457921 
L 371.739396 298.170535 
L 371.927713 301.575498 
L 372.019944 301.053049 
L 372.11228 304.742775 
L 372.20389 303.888968 
L 372.29542 296.388828 
L 372.387028 299.182244 
L 372.478903 298.225749 
L 372.572576 291.020183 
L 372.664149 299.803338 
L 372.755933 294.204236 
L 372.939044 302.117016 
L 373.031195 301.529605 
L 373.122886 295.330062 
L 373.214818 298.110765 
L 373.306967 292.291187 
L 373.490811 303.31388 
L 373.582685 300.799705 
L 373.960886 305.093797 
L 374.056931 304.580321 
L 374.148461 300.799506 
L 374.240684 305.05268 
L 374.426632 303.095035 
L 374.519352 297.83566 
L 374.703578 300.26732 
L 374.79557 300.643136 
L 374.981406 293.44735 
L 375.167703 303.405072 
L 375.26073 303.540682 
L 375.352557 300.900118 
L 375.445263 301.386521 
L 375.630841 303.736246 
L 375.815479 301.84635 
L 375.907612 297.31379 
L 375.999466 299.522184 
L 376.091132 297.118474 
L 376.182665 298.734808 
L 376.365848 286.528915 
L 376.550092 301.688678 
L 376.644555 299.791651 
L 376.742055 301.333971 
L 376.834435 299.668112 
L 376.926475 295.485404 
L 377.295596 303.141771 
L 377.479981 302.296861 
L 377.571662 303.985672 
L 377.663245 301.112672 
L 377.755621 304.127136 
L 377.849356 302.599245 
L 377.941175 303.653103 
L 378.035025 302.756501 
L 378.129186 297.234039 
L 378.221093 305.231624 
L 378.312672 302.050579 
L 378.404408 292.571476 
L 378.594216 304.415146 
L 378.685815 303.86172 
L 378.777805 302.459171 
L 378.870246 304.070677 
L 379.151066 299.791576 
L 379.251675 301.504247 
L 379.528757 296.220926 
L 379.621403 290.085331 
L 379.811233 298.098731 
L 379.904902 297.266648 
L 380.089559 288.126629 
L 380.181359 277.173277 
L 380.366296 299.947182 
L 380.740409 306.047155 
L 380.833401 300.489827 
L 380.925646 301.046499 
L 381.108835 297.33544 
L 381.202262 298.438814 
L 381.294104 302.034765 
L 381.478298 299.441251 
L 381.570497 301.856963 
L 381.754476 298.450489 
L 381.846628 305.559546 
L 382.400082 298.596143 
L 382.492104 297.955315 
L 382.583676 302.823288 
L 382.675746 302.716181 
L 382.769312 301.045699 
L 382.953346 303.897556 
L 383.046027 303.917725 
L 383.138058 301.444803 
L 383.321358 282.801509 
L 383.597795 304.466355 
L 383.693666 301.075523 
L 383.785712 304.692279 
L 383.877415 304.195855 
L 383.96937 304.140237 
L 384.159768 302.924724 
L 384.252189 302.273131 
L 384.344677 300.703594 
L 384.437251 296.550644 
L 384.621345 304.196059 
L 384.712871 301.18282 
L 384.815404 304.810105 
L 384.908781 303.519434 
L 385.002984 303.989675 
L 385.289592 300.347974 
L 385.564642 288.228222 
L 385.656158 295.509944 
L 385.747954 291.8656 
L 385.839547 282.063354 
L 386.025188 293.289945 
L 386.11675 292.603963 
L 386.208318 298.785601 
L 386.393823 291.843847 
L 386.487325 293.88637 
L 386.584135 289.796805 
L 386.676372 297.188166 
L 386.768523 295.660546 
L 386.952002 288.672034 
L 387.228121 294.45984 
L 387.319637 304.334945 
L 387.413615 303.549496 
L 387.598449 299.861917 
L 387.690387 300.125033 
L 387.782026 298.611654 
L 387.873763 293.937387 
L 387.96531 295.73377 
L 388.056866 300.409353 
L 388.148401 288.518383 
L 388.241267 301.048096 
L 388.333215 296.640148 
L 388.424993 302.247092 
L 388.518299 301.32033 
L 388.609883 301.327168 
L 388.701866 293.851776 
L 388.79456 295.327223 
L 388.886116 294.988052 
L 388.978995 300.536104 
L 389.07168 293.477618 
L 389.163373 300.264474 
L 389.256697 299.716695 
L 389.348375 296.793556 
L 389.532918 300.112162 
L 389.808266 294.496283 
L 390.086999 300.247314 
L 390.17897 294.08635 
L 390.273113 297.270213 
L 390.365199 291.704883 
L 390.456872 296.70283 
L 390.548513 291.774535 
L 390.640374 296.258455 
L 390.73222 291.159203 
L 390.915551 299.471961 
L 391.007231 291.936125 
L 391.100078 295.283763 
L 391.285194 279.897334 
L 391.468474 292.119348 
L 391.560257 293.056493 
L 391.835288 285.82414 
L 392.018743 301.024395 
L 392.202322 291.073657 
L 392.294759 294.907487 
L 392.478585 259.880572 
L 392.573467 272.437108 
L 392.665012 300.017805 
L 392.758622 297.770797 
L 392.850454 298.672399 
L 392.942537 295.715417 
L 393.034639 300.732573 
L 393.126541 299.570687 
L 393.218089 292.987524 
L 393.401348 298.837174 
L 393.495446 300.881315 
L 393.586997 300.333835 
L 393.678552 294.255357 
L 393.863607 303.700495 
L 393.962659 295.570722 
L 394.055243 301.913035 
L 394.147001 297.764664 
L 394.239027 297.921915 
L 394.514753 289.54441 
L 394.606543 291.066737 
L 394.698388 297.329938 
L 394.883812 293.129253 
L 395.071517 300.167438 
L 395.163047 295.162215 
L 395.34751 299.685009 
L 395.439021 298.769453 
L 395.622649 291.337657 
L 395.806765 302.509237 
L 395.898559 299.002514 
L 396.084284 301.379642 
L 396.175869 296.822359 
L 396.455167 304.030991 
L 396.546873 301.561697 
L 396.638512 301.690044 
L 396.73016 301.236937 
L 396.822385 298.111365 
L 397.00759 303.272946 
L 397.191994 300.421574 
L 397.283525 300.942542 
L 397.375166 302.395544 
L 397.468205 302.271048 
L 397.560886 301.675608 
L 397.652665 304.238808 
L 397.837139 300.509862 
L 397.931215 300.318616 
L 398.024242 303.215834 
L 398.117067 302.1108 
L 398.30085 304.466454 
L 398.392833 303.173049 
L 398.487273 304.324839 
L 398.487273 304.324839 
" clip-path="url(#p4fda7f7350)" style="fill: none; stroke: #1f77b4; stroke-width: 1.5; stroke-linecap: square"/>
   </g>
   <g id="patch_3">
    <path d="M 57.6 307.584 
L 57.6 41.472 
" style="fill: none; stroke: #000000; stroke-width: 0.8; stroke-linejoin: miter; stroke-linecap: square"/>
   </g>
   <g id="patch_4">
    <path d="M 414.72 307.584 
L 414.72 41.472 
" style="fill: none; stroke: #000000; stroke-width: 0.8; stroke-linejoin: miter; stroke-linecap: square"/>
   </g>
   <g id="patch_5">
    <path d="M 57.6 307.584 
L 414.72 307.584 
" style="fill: none; stroke: #000000; stroke-width: 0.8; stroke-linejoin: miter; stroke-linecap: square"/>
   </g>
   <g id="patch_6">
    <path d="M 57.6 41.472 
L 414.72 41.472 
" style="fill: none; stroke: #000000; stroke-width: 0.8; stroke-linejoin: miter; stroke-linecap: square"/>
   </g>
   <g id="text_18">
    <!-- pt10 link speed per 100ms -->
    <g transform="translate(155.608125 35.472)scale(0.12 -0.12)">
     <defs>
      <path id="DejaVuSans-20" transform="scale(0.015625)"/>
      <path id="DejaVuSans-6c" d="M 603 4863 
L 1178 4863 
L 1178 0 
L 603 0 
L 603 4863 
z
" transform="scale(0.015625)"/>
      <path id="DejaVuSans-6e" d="M 3513 2113 
L 3513 0 
L 2938 0 
L 2938 2094 
Q 2938 2591 2744 2837 
Q 2550 3084 2163 3084 
Q 1697 3084 1428 2787 
Q 1159 2491 1159 1978 
L 1159 0 
L 581 0 
L 581 3500 
L 1159 3500 
L 1159 2956 
Q 1366 3272 1645 3428 
Q 1925 3584 2291 3584 
Q 2894 3584 3203 3211 
Q 3513 2838 3513 2113 
z
" transform="scale(0.015625)"/>
      <path id="DejaVuSans-6b" d="M 581 4863 
L 1159 4863 
L 1159 1991 
L 2875 3500 
L 3609 3500 
L 1753 1863 
L 3688 0 
L 2938 0 
L 1159 1709 
L 1159 0 
L 581 0 
L 581 4863 
z
" transform="scale(0.015625)"/>
      <path id="DejaVuSans-64" d="M 2906 2969 
L 2906 4863 
L 3481 4863 
L 3481 0 
L 2906 0 
L 2906 525 
Q 2725 213 2448 61 
Q 2172 -91 1784 -91 
Q 1150 -91 751 415 
Q 353 922 353 1747 
Q 353 2572 751 3078 
Q 1150 3584 1784 3584 
Q 2172 3584 2448 3432 
Q 2725 3281 2906 2969 
z
M 947 1747 
Q 947 1113 1208 752 
Q 1469 391 1925 391 
Q 2381 391 2643 752 
Q 2906 1113 2906 1747 
Q 2906 2381 2643 2742 
Q 2381 3103 1925 3103 
Q 1469 3103 1208 2742 
Q 947 2381 947 1747 
z
" transform="scale(0.015625)"/>
      <path id="DejaVuSans-72" d="M 2631 2963 
Q 2534 3019 2420 3045 
Q 2306 3072 2169 3072 
Q 1681 3072 1420 2755 
Q 1159 2438 1159 1844 
L 1159 0 
L 581 0 
L 581 3500 
L 1159 3500 
L 1159 2956 
Q 1341 3275 1631 3429 
Q 1922 3584 2338 3584 
Q 2397 3584 2469 3576 
Q 2541 3569 2628 3553 
L 2631 2963 
z
" transform="scale(0.015625)"/>
     </defs>
     <use xlink:href="#DejaVuSans-70"/>
     <use xlink:href="#DejaVuSans-74" x="63.476562"/>
     <use xlink:href="#DejaVuSans-31" x="102.685547"/>
     <use xlink:href="#DejaVuSans-30" x="166.308594"/>
     <use xlink:href="#DejaVuSans-20" x="229.931641"/>
     <use xlink:href="#DejaVuSans-6c" x="261.71875"/>
     <use xlink:href="#DejaVuSans-69" x="289.501953"/>
     <use xlink:href="#DejaVuSans-6e" x="317.285156"/>
     <use xlink:href="#DejaVuSans-6b" x="380.664062"/>
     <use xlink:href="#DejaVuSans-20" x="438.574219"/>
     <use xlink:href="#DejaVuSans-73" x="470.361328"/>
     <use xlink:href="#DejaVuSans-70" x="522.460938"/>
     <use xlink:href="#DejaVuSans-65" x="585.9375"/>
     <use xlink:href="#DejaVuSans-65" x="647.460938"/>
     <use xlink:href="#DejaVuSans-64" x="708.984375"/>
     <use xlink:href="#DejaVuSans-20" x="772.460938"/>
     <use xlink:href="#DejaVuSans-70" x="804.248047"/>
     <use xlink:href="#DejaVuSans-65" x="867.724609"/>
     <use xlink:href="#DejaVuSans-72" x="929.248047"/>
     <use xlink:href="#DejaVuSans-20" x="970.361328"/>
     <use xlink:href="#DejaVuSans-31" x="1002.148438"/>
     <use xlink:href="#DejaVuSans-30" x="1065.771484"/>
     <use xlink:href="#DejaVuSans-30" x="1129.394531"/>
     <use xlink:href="#DejaVuSans-6d" x="1193.017578"/>
     <use xlink:href="#DejaVuSans-73" x="1290.429688"/>
    </g>
   </g>
  </g>
 </g>
 <defs>
  <clipPath id="p4fda7f7350">
   <rect x="57.6" y="41.472" width="357.12" height="266.112"/>
  </clipPath>
 </defs>
</svg>
