<?xml version="1.0" encoding="utf-8" standalone="no"?>
<!DOCTYPE svg PUBLIC "-//W3C//DTD SVG 1.1//EN"
  "http://www.w3.org/Graphics/SVG/1.1/DTD/svg11.dtd">
<svg xmlns:xlink="http://www.w3.org/1999/xlink" width="460.8pt" height="345.6pt" viewBox="0 0 460.8 345.6" xmlns="http://www.w3.org/2000/svg" version="1.1">
 <metadata>
  <rdf:RDF xmlns:dc="http://purl.org/dc/elements/1.1/" xmlns:cc="http://creativecommons.org/ns#" xmlns:rdf="http://www.w3.org/1999/02/22-rdf-syntax-ns#">
   <cc:Work>
    <dc:type rdf:resource="http://purl.org/dc/dcmitype/StillImage"/>
    <dc:date>2022-07-10T03:41:09.774062</dc:date>
    <dc:format>image/svg+xml</dc:format>
    <dc:creator>
     <cc:Agent>
      <dc:title>Matplotlib v3.5.2, https://matplotlib.org/</dc:title>
     </cc:Agent>
    </dc:creator>
   </cc:Work>
  </rdf:RDF>
 </metadata>
 <defs>
  <style type="text/css">*{stroke-linejoin: round; stroke-linecap: butt}</style>
 </defs>
 <g id="figure_1">
  <g id="patch_1">
   <path d="M 0 345.6 
L 460.8 345.6 
L 460.8 0 
L 0 0 
z
" style="fill: #ffffff"/>
  </g>
  <g id="axes_1">
   <g id="patch_2">
    <path d="M 57.6 307.584 
L 414.72 307.584 
L 414.72 41.472 
L 57.6 41.472 
z
" style="fill: #ffffff"/>
   </g>
   <g id="matplotlib.axis_1">
    <g id="xtick_1">
     <g id="line2d_1">
      <defs>
       <path id="maba477349d" d="M 0 0 
L 0 3.5 
" style="stroke: #000000; stroke-width: 0.8"/>
      </defs>
      <g>
       <use xlink:href="#maba477349d" x="73.718789" y="307.584" style="stroke: #000000; stroke-width: 0.8"/>
      </g>
     </g>
     <g id="text_1">
      <!-- 0 -->
      <g transform="translate(70.537539 322.182437)scale(0.1 -0.1)">
       <defs>
        <path id="DejaVuSans-30" d="M 2034 4250 
Q 1547 4250 1301 3770 
Q 1056 3291 1056 2328 
Q 1056 1369 1301 889 
Q 1547 409 2034 409 
Q 2525 409 2770 889 
Q 3016 1369 3016 2328 
Q 3016 3291 2770 3770 
Q 2525 4250 2034 4250 
z
M 2034 4750 
Q 2819 4750 3233 4129 
Q 3647 3509 3647 2328 
Q 3647 1150 3233 529 
Q 2819 -91 2034 -91 
Q 1250 -91 836 529 
Q 422 1150 422 2328 
Q 422 3509 836 4129 
Q 1250 4750 2034 4750 
z
" transform="scale(0.015625)"/>
       </defs>
       <use xlink:href="#DejaVuSans-30"/>
      </g>
     </g>
    </g>
    <g id="xtick_2">
     <g id="line2d_2">
      <g>
       <use xlink:href="#maba477349d" x="130.494363" y="307.584" style="stroke: #000000; stroke-width: 0.8"/>
      </g>
     </g>
     <g id="text_2">
      <!-- 50 -->
      <g transform="translate(124.131863 322.182437)scale(0.1 -0.1)">
       <defs>
        <path id="DejaVuSans-35" d="M 691 4666 
L 3169 4666 
L 3169 4134 
L 1269 4134 
L 1269 2991 
Q 1406 3038 1543 3061 
Q 1681 3084 1819 3084 
Q 2600 3084 3056 2656 
Q 3513 2228 3513 1497 
Q 3513 744 3044 326 
Q 2575 -91 1722 -91 
Q 1428 -91 1123 -41 
Q 819 9 494 109 
L 494 744 
Q 775 591 1075 516 
Q 1375 441 1709 441 
Q 2250 441 2565 725 
Q 2881 1009 2881 1497 
Q 2881 1984 2565 2268 
Q 2250 2553 1709 2553 
Q 1456 2553 1204 2497 
Q 953 2441 691 2322 
L 691 4666 
z
" transform="scale(0.015625)"/>
       </defs>
       <use xlink:href="#DejaVuSans-35"/>
       <use xlink:href="#DejaVuSans-30" x="63.623047"/>
      </g>
     </g>
    </g>
    <g id="xtick_3">
     <g id="line2d_3">
      <g>
       <use xlink:href="#maba477349d" x="187.269938" y="307.584" style="stroke: #000000; stroke-width: 0.8"/>
      </g>
     </g>
     <g id="text_3">
      <!-- 100 -->
      <g transform="translate(177.726188 322.182437)scale(0.1 -0.1)">
       <defs>
        <path id="DejaVuSans-31" d="M 794 531 
L 1825 531 
L 1825 4091 
L 703 3866 
L 703 4441 
L 1819 4666 
L 2450 4666 
L 2450 531 
L 3481 531 
L 3481 0 
L 794 0 
L 794 531 
z
" transform="scale(0.015625)"/>
       </defs>
       <use xlink:href="#DejaVuSans-31"/>
       <use xlink:href="#DejaVuSans-30" x="63.623047"/>
       <use xlink:href="#DejaVuSans-30" x="127.246094"/>
      </g>
     </g>
    </g>
    <g id="xtick_4">
     <g id="line2d_4">
      <g>
       <use xlink:href="#maba477349d" x="244.045512" y="307.584" style="stroke: #000000; stroke-width: 0.8"/>
      </g>
     </g>
     <g id="text_4">
      <!-- 150 -->
      <g transform="translate(234.501762 322.182437)scale(0.1 -0.1)">
       <use xlink:href="#DejaVuSans-31"/>
       <use xlink:href="#DejaVuSans-35" x="63.623047"/>
       <use xlink:href="#DejaVuSans-30" x="127.246094"/>
      </g>
     </g>
    </g>
    <g id="xtick_5">
     <g id="line2d_5">
      <g>
       <use xlink:href="#maba477349d" x="300.821086" y="307.584" style="stroke: #000000; stroke-width: 0.8"/>
      </g>
     </g>
     <g id="text_5">
      <!-- 200 -->
      <g transform="translate(291.277336 322.182437)scale(0.1 -0.1)">
       <defs>
        <path id="DejaVuSans-32" d="M 1228 531 
L 3431 531 
L 3431 0 
L 469 0 
L 469 531 
Q 828 903 1448 1529 
Q 2069 2156 2228 2338 
Q 2531 2678 2651 2914 
Q 2772 3150 2772 3378 
Q 2772 3750 2511 3984 
Q 2250 4219 1831 4219 
Q 1534 4219 1204 4116 
Q 875 4013 500 3803 
L 500 4441 
Q 881 4594 1212 4672 
Q 1544 4750 1819 4750 
Q 2544 4750 2975 4387 
Q 3406 4025 3406 3419 
Q 3406 3131 3298 2873 
Q 3191 2616 2906 2266 
Q 2828 2175 2409 1742 
Q 1991 1309 1228 531 
z
" transform="scale(0.015625)"/>
       </defs>
       <use xlink:href="#DejaVuSans-32"/>
       <use xlink:href="#DejaVuSans-30" x="63.623047"/>
       <use xlink:href="#DejaVuSans-30" x="127.246094"/>
      </g>
     </g>
    </g>
    <g id="xtick_6">
     <g id="line2d_6">
      <g>
       <use xlink:href="#maba477349d" x="357.59666" y="307.584" style="stroke: #000000; stroke-width: 0.8"/>
      </g>
     </g>
     <g id="text_6">
      <!-- 250 -->
      <g transform="translate(348.05291 322.182437)scale(0.1 -0.1)">
       <use xlink:href="#DejaVuSans-32"/>
       <use xlink:href="#DejaVuSans-35" x="63.623047"/>
       <use xlink:href="#DejaVuSans-30" x="127.246094"/>
      </g>
     </g>
    </g>
    <g id="xtick_7">
     <g id="line2d_7">
      <g>
       <use xlink:href="#maba477349d" x="414.372235" y="307.584" style="stroke: #000000; stroke-width: 0.8"/>
      </g>
     </g>
     <g id="text_7">
      <!-- 300 -->
      <g transform="translate(404.828485 322.182437)scale(0.1 -0.1)">
       <defs>
        <path id="DejaVuSans-33" d="M 2597 2516 
Q 3050 2419 3304 2112 
Q 3559 1806 3559 1356 
Q 3559 666 3084 287 
Q 2609 -91 1734 -91 
Q 1441 -91 1130 -33 
Q 819 25 488 141 
L 488 750 
Q 750 597 1062 519 
Q 1375 441 1716 441 
Q 2309 441 2620 675 
Q 2931 909 2931 1356 
Q 2931 1769 2642 2001 
Q 2353 2234 1838 2234 
L 1294 2234 
L 1294 2753 
L 1863 2753 
Q 2328 2753 2575 2939 
Q 2822 3125 2822 3475 
Q 2822 3834 2567 4026 
Q 2313 4219 1838 4219 
Q 1578 4219 1281 4162 
Q 984 4106 628 3988 
L 628 4550 
Q 988 4650 1302 4700 
Q 1616 4750 1894 4750 
Q 2613 4750 3031 4423 
Q 3450 4097 3450 3541 
Q 3450 3153 3228 2886 
Q 3006 2619 2597 2516 
z
" transform="scale(0.015625)"/>
       </defs>
       <use xlink:href="#DejaVuSans-33"/>
       <use xlink:href="#DejaVuSans-30" x="63.623047"/>
       <use xlink:href="#DejaVuSans-30" x="127.246094"/>
      </g>
     </g>
    </g>
    <g id="text_8">
     <!-- time(s) -->
     <g transform="translate(218.357656 335.860562)scale(0.1 -0.1)">
      <defs>
       <path id="DejaVuSans-74" d="M 1172 4494 
L 1172 3500 
L 2356 3500 
L 2356 3053 
L 1172 3053 
L 1172 1153 
Q 1172 725 1289 603 
Q 1406 481 1766 481 
L 2356 481 
L 2356 0 
L 1766 0 
Q 1100 0 847 248 
Q 594 497 594 1153 
L 594 3053 
L 172 3053 
L 172 3500 
L 594 3500 
L 594 4494 
L 1172 4494 
z
" transform="scale(0.015625)"/>
       <path id="DejaVuSans-69" d="M 603 3500 
L 1178 3500 
L 1178 0 
L 603 0 
L 603 3500 
z
M 603 4863 
L 1178 4863 
L 1178 4134 
L 603 4134 
L 603 4863 
z
" transform="scale(0.015625)"/>
       <path id="DejaVuSans-6d" d="M 3328 2828 
Q 3544 3216 3844 3400 
Q 4144 3584 4550 3584 
Q 5097 3584 5394 3201 
Q 5691 2819 5691 2113 
L 5691 0 
L 5113 0 
L 5113 2094 
Q 5113 2597 4934 2840 
Q 4756 3084 4391 3084 
Q 3944 3084 3684 2787 
Q 3425 2491 3425 1978 
L 3425 0 
L 2847 0 
L 2847 2094 
Q 2847 2600 2669 2842 
Q 2491 3084 2119 3084 
Q 1678 3084 1418 2786 
Q 1159 2488 1159 1978 
L 1159 0 
L 581 0 
L 581 3500 
L 1159 3500 
L 1159 2956 
Q 1356 3278 1631 3431 
Q 1906 3584 2284 3584 
Q 2666 3584 2933 3390 
Q 3200 3197 3328 2828 
z
" transform="scale(0.015625)"/>
       <path id="DejaVuSans-65" d="M 3597 1894 
L 3597 1613 
L 953 1613 
Q 991 1019 1311 708 
Q 1631 397 2203 397 
Q 2534 397 2845 478 
Q 3156 559 3463 722 
L 3463 178 
Q 3153 47 2828 -22 
Q 2503 -91 2169 -91 
Q 1331 -91 842 396 
Q 353 884 353 1716 
Q 353 2575 817 3079 
Q 1281 3584 2069 3584 
Q 2775 3584 3186 3129 
Q 3597 2675 3597 1894 
z
M 3022 2063 
Q 3016 2534 2758 2815 
Q 2500 3097 2075 3097 
Q 1594 3097 1305 2825 
Q 1016 2553 972 2059 
L 3022 2063 
z
" transform="scale(0.015625)"/>
       <path id="DejaVuSans-28" d="M 1984 4856 
Q 1566 4138 1362 3434 
Q 1159 2731 1159 2009 
Q 1159 1288 1364 580 
Q 1569 -128 1984 -844 
L 1484 -844 
Q 1016 -109 783 600 
Q 550 1309 550 2009 
Q 550 2706 781 3412 
Q 1013 4119 1484 4856 
L 1984 4856 
z
" transform="scale(0.015625)"/>
       <path id="DejaVuSans-73" d="M 2834 3397 
L 2834 2853 
Q 2591 2978 2328 3040 
Q 2066 3103 1784 3103 
Q 1356 3103 1142 2972 
Q 928 2841 928 2578 
Q 928 2378 1081 2264 
Q 1234 2150 1697 2047 
L 1894 2003 
Q 2506 1872 2764 1633 
Q 3022 1394 3022 966 
Q 3022 478 2636 193 
Q 2250 -91 1575 -91 
Q 1294 -91 989 -36 
Q 684 19 347 128 
L 347 722 
Q 666 556 975 473 
Q 1284 391 1588 391 
Q 1994 391 2212 530 
Q 2431 669 2431 922 
Q 2431 1156 2273 1281 
Q 2116 1406 1581 1522 
L 1381 1569 
Q 847 1681 609 1914 
Q 372 2147 372 2553 
Q 372 3047 722 3315 
Q 1072 3584 1716 3584 
Q 2034 3584 2315 3537 
Q 2597 3491 2834 3397 
z
" transform="scale(0.015625)"/>
       <path id="DejaVuSans-29" d="M 513 4856 
L 1013 4856 
Q 1481 4119 1714 3412 
Q 1947 2706 1947 2009 
Q 1947 1309 1714 600 
Q 1481 -109 1013 -844 
L 513 -844 
Q 928 -128 1133 580 
Q 1338 1288 1338 2009 
Q 1338 2731 1133 3434 
Q 928 4138 513 4856 
z
" transform="scale(0.015625)"/>
      </defs>
      <use xlink:href="#DejaVuSans-74"/>
      <use xlink:href="#DejaVuSans-69" x="39.208984"/>
      <use xlink:href="#DejaVuSans-6d" x="66.992188"/>
      <use xlink:href="#DejaVuSans-65" x="164.404297"/>
      <use xlink:href="#DejaVuSans-28" x="225.927734"/>
      <use xlink:href="#DejaVuSans-73" x="264.941406"/>
      <use xlink:href="#DejaVuSans-29" x="317.041016"/>
     </g>
    </g>
   </g>
   <g id="matplotlib.axis_2">
    <g id="ytick_1">
     <g id="line2d_8">
      <defs>
       <path id="m6a5a53aba6" d="M 0 0 
L -3.5 0 
" style="stroke: #000000; stroke-width: 0.8"/>
      </defs>
      <g>
       <use xlink:href="#m6a5a53aba6" x="57.6" y="307.584" style="stroke: #000000; stroke-width: 0.8"/>
      </g>
     </g>
     <g id="text_9">
      <!-- 0 -->
      <g transform="translate(44.2375 311.383219)scale(0.1 -0.1)">
       <use xlink:href="#DejaVuSans-30"/>
      </g>
     </g>
    </g>
    <g id="ytick_2">
     <g id="line2d_9">
      <g>
       <use xlink:href="#m6a5a53aba6" x="57.6" y="263.232" style="stroke: #000000; stroke-width: 0.8"/>
      </g>
     </g>
     <g id="text_10">
      <!-- 50 -->
      <g transform="translate(37.875 267.031219)scale(0.1 -0.1)">
       <use xlink:href="#DejaVuSans-35"/>
       <use xlink:href="#DejaVuSans-30" x="63.623047"/>
      </g>
     </g>
    </g>
    <g id="ytick_3">
     <g id="line2d_10">
      <g>
       <use xlink:href="#m6a5a53aba6" x="57.6" y="218.88" style="stroke: #000000; stroke-width: 0.8"/>
      </g>
     </g>
     <g id="text_11">
      <!-- 100 -->
      <g transform="translate(31.5125 222.679219)scale(0.1 -0.1)">
       <use xlink:href="#DejaVuSans-31"/>
       <use xlink:href="#DejaVuSans-30" x="63.623047"/>
       <use xlink:href="#DejaVuSans-30" x="127.246094"/>
      </g>
     </g>
    </g>
    <g id="ytick_4">
     <g id="line2d_11">
      <g>
       <use xlink:href="#m6a5a53aba6" x="57.6" y="174.528" style="stroke: #000000; stroke-width: 0.8"/>
      </g>
     </g>
     <g id="text_12">
      <!-- 150 -->
      <g transform="translate(31.5125 178.327219)scale(0.1 -0.1)">
       <use xlink:href="#DejaVuSans-31"/>
       <use xlink:href="#DejaVuSans-35" x="63.623047"/>
       <use xlink:href="#DejaVuSans-30" x="127.246094"/>
      </g>
     </g>
    </g>
    <g id="ytick_5">
     <g id="line2d_12">
      <g>
       <use xlink:href="#m6a5a53aba6" x="57.6" y="130.176" style="stroke: #000000; stroke-width: 0.8"/>
      </g>
     </g>
     <g id="text_13">
      <!-- 200 -->
      <g transform="translate(31.5125 133.975219)scale(0.1 -0.1)">
       <use xlink:href="#DejaVuSans-32"/>
       <use xlink:href="#DejaVuSans-30" x="63.623047"/>
       <use xlink:href="#DejaVuSans-30" x="127.246094"/>
      </g>
     </g>
    </g>
    <g id="ytick_6">
     <g id="line2d_13">
      <g>
       <use xlink:href="#m6a5a53aba6" x="57.6" y="85.824" style="stroke: #000000; stroke-width: 0.8"/>
      </g>
     </g>
     <g id="text_14">
      <!-- 250 -->
      <g transform="translate(31.5125 89.623219)scale(0.1 -0.1)">
       <use xlink:href="#DejaVuSans-32"/>
       <use xlink:href="#DejaVuSans-35" x="63.623047"/>
       <use xlink:href="#DejaVuSans-30" x="127.246094"/>
      </g>
     </g>
    </g>
    <g id="ytick_7">
     <g id="line2d_14">
      <g>
       <use xlink:href="#m6a5a53aba6" x="57.6" y="41.472" style="stroke: #000000; stroke-width: 0.8"/>
      </g>
     </g>
     <g id="text_15">
      <!-- 300 -->
      <g transform="translate(31.5125 45.271219)scale(0.1 -0.1)">
       <use xlink:href="#DejaVuSans-33"/>
       <use xlink:href="#DejaVuSans-30" x="63.623047"/>
       <use xlink:href="#DejaVuSans-30" x="127.246094"/>
      </g>
     </g>
    </g>
    <g id="text_16">
     <!-- Mbps -->
     <g transform="translate(25.432812 187.795187)rotate(-90)scale(0.1 -0.1)">
      <defs>
       <path id="DejaVuSans-4d" d="M 628 4666 
L 1569 4666 
L 2759 1491 
L 3956 4666 
L 4897 4666 
L 4897 0 
L 4281 0 
L 4281 4097 
L 3078 897 
L 2444 897 
L 1241 4097 
L 1241 0 
L 628 0 
L 628 4666 
z
" transform="scale(0.015625)"/>
       <path id="DejaVuSans-62" d="M 3116 1747 
Q 3116 2381 2855 2742 
Q 2594 3103 2138 3103 
Q 1681 3103 1420 2742 
Q 1159 2381 1159 1747 
Q 1159 1113 1420 752 
Q 1681 391 2138 391 
Q 2594 391 2855 752 
Q 3116 1113 3116 1747 
z
M 1159 2969 
Q 1341 3281 1617 3432 
Q 1894 3584 2278 3584 
Q 2916 3584 3314 3078 
Q 3713 2572 3713 1747 
Q 3713 922 3314 415 
Q 2916 -91 2278 -91 
Q 1894 -91 1617 61 
Q 1341 213 1159 525 
L 1159 0 
L 581 0 
L 581 4863 
L 1159 4863 
L 1159 2969 
z
" transform="scale(0.015625)"/>
       <path id="DejaVuSans-70" d="M 1159 525 
L 1159 -1331 
L 581 -1331 
L 581 3500 
L 1159 3500 
L 1159 2969 
Q 1341 3281 1617 3432 
Q 1894 3584 2278 3584 
Q 2916 3584 3314 3078 
Q 3713 2572 3713 1747 
Q 3713 922 3314 415 
Q 2916 -91 2278 -91 
Q 1894 -91 1617 61 
Q 1341 213 1159 525 
z
M 3116 1747 
Q 3116 2381 2855 2742 
Q 2594 3103 2138 3103 
Q 1681 3103 1420 2742 
Q 1159 2381 1159 1747 
Q 1159 1113 1420 752 
Q 1681 391 2138 391 
Q 2594 391 2855 752 
Q 3116 1113 3116 1747 
z
" transform="scale(0.015625)"/>
      </defs>
      <use xlink:href="#DejaVuSans-4d"/>
      <use xlink:href="#DejaVuSans-62" x="86.279297"/>
      <use xlink:href="#DejaVuSans-70" x="149.755859"/>
      <use xlink:href="#DejaVuSans-73" x="213.232422"/>
     </g>
    </g>
   </g>
   <g id="line2d_15">
    <path d="M 73.832727 303.667895 
L 73.946479 299.3718 
L 74.060501 299.671351 
L 74.174138 236.03679 
L 74.289519 247.01001 
L 74.403396 301.399872 
L 74.517803 302.317455 
L 74.750736 291.816879 
L 74.865749 298.836601 
L 75.093591 294.805512 
L 75.440716 300.052516 
L 75.554751 300.461283 
L 75.669735 296.995616 
L 75.785537 297.369856 
L 76.014627 279.127641 
L 76.245476 301.812765 
L 76.472837 300.534105 
L 76.587494 301.633164 
L 76.818345 300.816355 
L 76.934002 300.813565 
L 77.161913 303.867692 
L 77.392046 302.469482 
L 77.506197 302.944552 
L 77.619875 303.916223 
L 77.735042 301.898789 
L 77.84943 305.491726 
L 78.19882 294.114012 
L 78.314582 302.89163 
L 78.428247 301.25716 
L 78.542285 306.173799 
L 78.656411 303.809264 
L 78.88458 305.185783 
L 79.002085 305.379086 
L 79.119354 304.0048 
L 79.347469 300.394166 
L 79.463519 299.905116 
L 79.580641 295.394355 
L 79.808378 301.605635 
L 79.926941 301.348033 
L 80.048892 300.732612 
L 80.163556 301.175912 
L 80.391747 290.469282 
L 80.505499 296.682658 
L 80.619146 288.536071 
L 80.733902 300.144626 
L 80.847605 296.598496 
L 80.963089 296.74238 
L 81.190878 299.793174 
L 81.304477 301.371063 
L 81.419908 291.556272 
L 81.535567 299.18499 
L 81.653323 298.629063 
L 81.767672 291.352511 
L 81.99509 297.16262 
L 82.22293 296.660229 
L 82.336978 294.516668 
L 82.45078 301.069714 
L 82.564496 300.789188 
L 82.678257 301.319811 
L 82.79617 293.441306 
L 83.0251 297.504333 
L 83.139483 297.49639 
L 83.253225 300.83034 
L 83.366804 299.234355 
L 83.481762 299.484618 
L 83.595358 298.547935 
L 83.711485 300.899007 
L 83.825436 298.329226 
L 84.053546 301.494234 
L 84.169045 297.465301 
L 84.284702 297.579075 
L 84.39891 291.268713 
L 84.512578 292.648044 
L 84.627894 298.403247 
L 84.742029 280.858416 
L 84.969226 298.808338 
L 85.083859 280.653795 
L 85.312549 295.756955 
L 85.42622 270.413767 
L 85.543802 300.528661 
L 85.660177 289.6695 
L 85.774126 300.3958 
L 85.888819 297.757457 
L 86.002636 301.657558 
L 86.116371 288.084156 
L 86.232179 300.889946 
L 86.345874 300.82237 
L 86.459772 301.728414 
L 86.573953 300.364083 
L 86.688728 303.893227 
L 86.803497 301.820792 
L 86.917082 296.81663 
L 87.031193 300.299356 
L 87.144847 300.047513 
L 87.258451 284.984865 
L 87.488756 302.354646 
L 87.715894 297.265549 
L 88.1713 304.241268 
L 88.288759 303.159448 
L 88.517261 303.894734 
L 88.746809 298.797505 
L 88.860411 300.644129 
L 88.974991 305.40053 
L 89.20457 292.771272 
L 89.319991 301.803525 
L 89.434901 301.247099 
L 89.550787 301.6503 
L 89.665897 298.33298 
L 89.893742 303.356754 
L 90.010344 299.85084 
L 90.126993 305.331896 
L 90.241251 304.316028 
L 90.354909 290.299881 
L 90.470217 301.04668 
L 90.584282 298.353892 
L 90.702589 303.457575 
L 90.816315 301.590524 
L 90.929875 291.751299 
L 91.165655 303.623682 
L 91.280118 302.150898 
L 91.510095 306.171607 
L 91.738373 301.24875 
L 91.852161 300.963242 
L 91.965859 301.29941 
L 92.197672 306.066742 
L 92.317749 303.914301 
L 92.432914 304.985828 
L 92.547998 295.891615 
L 92.661632 302.790775 
L 92.892218 290.769452 
L 93.125041 300.895098 
L 93.238926 297.958552 
L 93.352937 290.31392 
L 93.580945 305.441385 
L 93.813122 303.061882 
L 93.92758 302.431727 
L 94.043643 303.943841 
L 94.274396 281.438924 
L 94.389356 298.052197 
L 94.503837 296.564995 
L 94.618216 298.828859 
L 94.84574 296.711268 
L 94.959328 291.439585 
L 95.074727 293.759833 
L 95.306161 285.937166 
L 95.421057 299.38203 
L 95.650059 294.089629 
L 95.765199 294.106709 
L 95.993245 284.739484 
L 96.22137 297.216279 
L 96.336036 297.582752 
L 96.566514 301.452075 
L 96.794059 298.560698 
L 97.021895 285.402523 
L 97.13552 299.960744 
L 97.249076 298.805381 
L 97.363053 288.412757 
L 97.476707 299.695986 
L 97.59029 295.215654 
L 97.703873 282.706716 
L 97.817472 296.701906 
L 97.931242 291.892929 
L 98.045175 278.074794 
L 98.274181 295.95572 
L 98.387753 289.516578 
L 98.502408 292.62451 
L 98.616093 301.613582 
L 98.729793 301.223567 
L 98.849218 303.107822 
L 98.964406 289.720478 
L 99.079262 305.067761 
L 99.19627 300.167149 
L 99.311092 301.888925 
L 99.427654 296.122676 
L 99.541415 300.279258 
L 99.655768 296.486102 
L 99.769599 300.476851 
L 99.883263 294.788417 
L 99.997123 305.061884 
L 100.112124 305.199441 
L 100.340103 298.27534 
L 100.45864 292.969568 
L 100.573865 299.939079 
L 100.691536 299.582717 
L 100.919549 291.191028 
L 101.033117 297.63952 
L 101.147075 293.4799 
L 101.260646 297.79937 
L 101.374689 296.98901 
L 101.491551 301.458946 
L 101.718875 273.998277 
L 101.954437 297.825718 
L 102.069284 300.464932 
L 102.296439 296.666313 
L 102.410035 299.651567 
L 102.637204 292.68457 
L 102.868944 305.71571 
L 102.9833 305.414738 
L 103.096893 302.619247 
L 103.214279 294.706113 
L 103.328572 301.356736 
L 103.442777 291.540003 
L 103.557881 293.088532 
L 103.788478 304.787562 
L 103.903491 305.658252 
L 104.017142 288.579701 
L 104.246169 304.062644 
L 104.359726 304.602286 
L 104.473476 303.875225 
L 104.590523 304.828949 
L 104.704089 304.121954 
L 104.818133 305.478608 
L 104.932353 304.986809 
L 105.050235 297.876638 
L 105.169104 298.161704 
L 105.284613 304.928968 
L 105.399788 270.67718 
L 105.513505 301.625861 
L 105.627118 279.536986 
L 105.855661 304.191941 
L 105.969702 299.703014 
L 106.083345 277.601251 
L 106.196963 304.586919 
L 106.314282 303.798681 
L 106.428123 299.101829 
L 106.655574 306.042877 
L 106.769259 304.517304 
L 106.88359 305.017231 
L 106.998405 303.655762 
L 107.119014 304.996142 
L 107.237737 302.071629 
L 107.351413 302.300746 
L 107.465369 293.087827 
L 107.580182 297.942087 
L 107.694218 297.789688 
L 107.807833 300.889133 
L 107.921502 298.88588 
L 108.035135 302.034183 
L 108.149007 301.726252 
L 108.263179 291.191136 
L 108.380336 304.063647 
L 108.495437 300.866228 
L 108.609583 300.94649 
L 108.723291 301.550233 
L 108.837364 305.063749 
L 108.951603 303.847053 
L 109.180584 304.385207 
L 109.408852 302.421078 
L 109.523535 296.463199 
L 109.751563 304.610626 
L 109.867466 302.459733 
L 109.981262 303.490472 
L 110.209482 297.34418 
L 110.323308 298.051992 
L 110.553224 304.202098 
L 110.67729 300.292161 
L 110.79341 300.597571 
L 111.020815 296.686924 
L 111.13437 298.278073 
L 111.252846 301.936017 
L 111.480049 295.008593 
L 111.597879 291.575462 
L 111.712748 299.153027 
L 111.833189 298.159809 
L 112.066334 302.577083 
L 112.17997 301.834247 
L 112.416319 303.601224 
L 112.53045 299.776282 
L 112.766297 305.682557 
L 112.88305 305.203434 
L 113.117357 301.530365 
L 113.233575 302.222995 
L 113.347137 301.400541 
L 113.691204 305.249431 
L 113.806304 305.232333 
L 113.932798 304.941803 
L 114.04711 303.670004 
L 114.168115 303.664882 
L 114.284902 302.416376 
L 114.52967 304.728312 
L 114.648848 300.542766 
L 114.87673 304.642774 
L 114.990386 304.350989 
L 115.224927 297.139003 
L 115.340023 298.871163 
L 115.455219 294.081532 
L 115.684412 298.427149 
L 115.804021 300.981475 
L 115.920932 299.854649 
L 116.034509 300.421963 
L 116.148366 302.596582 
L 116.262001 300.6339 
L 116.375556 305.09512 
L 116.489166 304.236433 
L 116.602781 296.872495 
L 116.838936 303.698885 
L 116.953364 295.783853 
L 117.067019 302.660244 
L 117.18063 302.509196 
L 117.294537 304.810422 
L 117.409003 303.937611 
L 117.639961 300.036567 
L 117.755053 293.25148 
L 117.984132 301.521936 
L 118.216637 297.901121 
L 118.330352 303.536252 
L 118.443908 290.627496 
L 118.557462 245.629358 
L 118.671054 247.731903 
L 118.898862 304.29203 
L 119.012461 291.36879 
L 119.24 301.018308 
L 119.353643 299.251334 
L 119.811383 266.343356 
L 120.042274 304.845764 
L 120.157564 304.67483 
L 120.271541 303.077383 
L 120.38574 304.861855 
L 120.501189 299.03891 
L 120.615783 298.957063 
L 120.72953 299.167022 
L 120.843456 276.680323 
L 120.958569 302.909127 
L 121.075135 302.772233 
L 121.189497 299.988231 
L 121.307989 293.821077 
L 121.537796 303.194759 
L 121.770549 295.148739 
L 121.884346 304.135011 
L 121.999337 303.155884 
L 122.11354 304.171949 
L 122.228528 303.56315 
L 122.347168 303.714481 
L 122.688778 296.639557 
L 122.802352 290.921089 
L 122.916039 292.839913 
L 123.030011 290.034726 
L 123.25853 300.703931 
L 123.37212 258.961203 
L 123.610336 297.469338 
L 123.7239 299.929967 
L 123.951715 286.458121 
L 124.065356 283.959588 
L 124.292666 286.538045 
L 124.407128 282.380508 
L 124.522825 290.610324 
L 124.636501 290.779842 
L 124.750055 278.407321 
L 124.977918 296.265779 
L 125.207169 301.310239 
L 125.321051 301.661458 
L 125.438833 300.706811 
L 125.552763 303.053305 
L 125.666931 303.104208 
L 125.780924 303.793606 
L 125.896088 300.719332 
L 126.010764 301.067515 
L 126.124635 299.759521 
L 126.238216 303.800998 
L 126.469045 301.021789 
L 126.698035 303.394205 
L 126.811845 302.149843 
L 126.92704 298.207267 
L 127.040593 303.604636 
L 127.15625 301.489093 
L 127.26989 301.772814 
L 127.385312 303.433958 
L 127.49939 301.64344 
L 127.61883 304.595189 
L 127.847842 303.13059 
L 127.961429 304.871922 
L 128.191121 302.987991 
L 128.305272 303.131097 
L 128.418881 303.925959 
L 128.532919 303.542551 
L 128.647872 304.919058 
L 128.876298 303.503281 
L 129.111386 306.161652 
L 129.227449 304.526235 
L 129.455133 305.575399 
L 129.568885 303.215478 
L 129.682562 295.339883 
L 129.796403 303.388783 
L 130.13771 299.349375 
L 130.251264 285.108984 
L 130.366422 254.215192 
L 130.480461 300.415947 
L 130.596058 297.883884 
L 130.710121 289.133271 
L 130.825994 291.570482 
L 131.055769 299.215168 
L 131.170552 290.960804 
L 131.28436 290.908611 
L 131.398085 289.699006 
L 131.512791 281.466014 
L 131.744769 300.584454 
L 131.972817 293.836728 
L 132.086538 296.738062 
L 132.200135 296.153577 
L 132.313894 285.37974 
L 132.428152 300.051234 
L 132.542024 299.754481 
L 132.655611 296.764372 
L 132.771153 299.715229 
L 132.885216 295.150251 
L 132.998996 295.657023 
L 133.112619 305.400125 
L 133.339805 298.320337 
L 133.453384 303.47781 
L 133.567535 302.249994 
L 133.685541 293.92824 
L 133.800186 303.89834 
L 133.921101 298.867593 
L 134.034919 302.007491 
L 134.148483 296.931689 
L 134.262748 300.553125 
L 134.379774 294.374812 
L 134.840773 303.4384 
L 134.954575 291.816011 
L 135.184277 305.562294 
L 135.298012 305.332487 
L 135.417561 301.320895 
L 135.646264 303.070546 
L 135.876053 301.360875 
L 135.992592 302.583703 
L 136.110545 301.100019 
L 136.224398 305.326588 
L 136.338222 300.398714 
L 136.453993 305.049751 
L 136.567833 302.939163 
L 136.682792 303.155728 
L 136.796584 304.889314 
L 136.910259 303.216026 
L 137.024533 303.718955 
L 137.138703 305.044164 
L 137.260824 295.008224 
L 137.376043 304.638704 
L 137.490933 304.433948 
L 137.605133 305.285859 
L 137.833717 302.124683 
L 137.94863 304.670731 
L 138.064207 303.832457 
L 138.178062 303.92979 
L 138.40678 305.264266 
L 138.634433 299.417957 
L 138.748098 261.92002 
L 138.975746 301.788272 
L 139.091387 294.116626 
L 139.436047 304.901223 
L 139.551221 293.019185 
L 139.666762 303.207674 
L 139.78053 303.003586 
L 139.898934 303.965201 
L 140.01271 302.674436 
L 140.126276 303.023922 
L 140.241609 305.276258 
L 140.355279 303.230995 
L 140.470663 305.421071 
L 140.584405 300.620018 
L 140.926454 303.398149 
L 141.040073 302.054484 
L 141.268473 304.572216 
L 141.38238 303.788845 
L 141.504284 300.45458 
L 141.734322 302.50797 
L 141.847909 300.744843 
L 142.079311 303.510251 
L 142.193029 302.433864 
L 142.306733 292.491207 
L 142.542953 300.092355 
L 142.656656 301.130017 
L 142.770968 296.30802 
L 142.884605 303.546378 
L 143.339592 291.804892 
L 143.453835 291.847851 
L 143.568134 289.729166 
L 143.799223 302.458047 
L 143.913114 289.014741 
L 144.146722 301.235046 
L 144.260948 298.882905 
L 144.374547 292.452163 
L 144.83133 302.909316 
L 144.944974 303.107602 
L 145.172177 282.702458 
L 145.285749 293.408144 
L 145.3994 291.935835 
L 145.513287 295.396826 
L 145.626948 291.249849 
L 145.740938 292.172081 
L 145.854532 289.47315 
L 145.968427 290.322671 
L 146.082059 289.848077 
L 146.195679 296.744891 
L 146.309249 286.231657 
L 146.423386 295.95289 
L 146.766304 285.728487 
L 146.880099 289.41476 
L 147.109477 303.901179 
L 147.223813 301.016241 
L 147.342851 293.780483 
L 147.456595 298.717912 
L 147.570166 295.758314 
L 147.683835 298.904404 
L 147.798693 297.93573 
L 147.915011 301.762351 
L 148.142809 293.792898 
L 148.256369 297.607764 
L 148.37051 297.386582 
L 148.486903 297.840462 
L 148.600572 297.338729 
L 148.714198 295.745777 
L 148.827881 299.46826 
L 149.055427 295.614976 
L 149.168989 293.626111 
L 149.282545 286.498025 
L 149.402002 305.617368 
L 149.751386 293.989973 
L 149.871906 304.147416 
L 149.986123 303.780845 
L 150.100047 302.745419 
L 150.335228 304.823439 
L 150.449573 296.556636 
L 150.563409 300.702674 
L 150.677675 296.356488 
L 150.791992 278.711532 
L 150.912568 301.423991 
L 151.026339 286.248304 
L 151.140659 286.093005 
L 151.484108 236.615492 
L 151.712691 296.638912 
L 151.82635 292.710338 
L 151.94009 283.281499 
L 152.053927 285.612053 
L 152.167491 279.359604 
L 152.281244 239.435195 
L 152.51096 287.662137 
L 152.624516 299.788265 
L 152.738729 286.908784 
L 152.853446 299.390921 
L 152.969557 297.821199 
L 153.083436 291.791275 
L 153.311356 298.714284 
L 153.538649 296.188116 
L 153.654602 302.945941 
L 153.768156 302.184176 
L 153.884281 303.619184 
L 153.998461 302.533521 
L 154.227149 298.457249 
L 154.340908 303.610649 
L 154.456009 303.581605 
L 154.569974 302.682219 
L 154.798195 289.387255 
L 154.91182 301.464741 
L 155.141399 299.749894 
L 155.257059 302.64183 
L 155.373709 296.871385 
L 155.48741 302.154906 
L 155.60226 297.789101 
L 155.716909 302.974979 
L 155.83064 302.834351 
L 155.944248 302.116297 
L 156.060204 300.648024 
L 156.17706 302.950139 
L 156.406863 301.408043 
L 156.523959 292.023138 
L 156.637685 300.342136 
L 156.751247 299.851462 
L 156.864976 290.292066 
L 156.978857 299.343549 
L 157.094174 299.482632 
L 157.216882 297.648754 
L 157.330687 287.209014 
L 157.44818 291.380755 
L 157.562579 270.266698 
L 157.90348 72.446468 
L 158.017044 58.622712 
L 158.130622 58.532876 
L 158.476614 303.511756 
L 158.703788 270.000258 
L 158.817574 267.411099 
L 159.274788 302.5796 
L 159.388393 305.098379 
L 159.502362 295.570955 
L 159.72966 302.167312 
L 159.843218 301.610956 
L 159.957445 299.587904 
L 160.184667 258.38993 
L 160.415501 304.242808 
L 160.529133 302.570213 
L 160.642696 301.160448 
L 160.875296 304.669805 
L 160.990217 305.002067 
L 161.105109 304.444512 
L 161.224765 307.042021 
L 161.686699 299.830551 
L 161.914457 305.381645 
L 162.028244 305.091947 
L 162.143002 306.19423 
L 162.263159 305.997264 
L 162.382215 304.97335 
L 162.499239 305.232529 
L 162.615086 306.292733 
L 162.959848 303.93494 
L 163.077025 306.720485 
L 163.422071 300.796995 
L 163.539125 302.588262 
L 163.653353 295.073507 
L 163.883112 302.972995 
L 164.112722 302.113589 
L 164.22636 295.818556 
L 164.340291 298.556223 
L 164.454743 293.608388 
L 164.56859 295.985629 
L 164.682564 291.591903 
L 164.912813 293.757711 
L 165.026469 291.723478 
L 165.14058 292.500341 
L 165.256052 292.04929 
L 165.369829 293.755579 
L 165.484913 284.495641 
L 165.599364 290.830229 
L 165.712955 290.01962 
L 165.827222 297.638994 
L 165.941926 293.186541 
L 166.170581 298.335799 
L 166.285572 260.360582 
L 166.515161 296.347071 
L 166.629126 299.228453 
L 166.743298 293.246327 
L 166.857899 300.21775 
L 166.971591 295.785079 
L 167.200332 298.702939 
L 167.314272 300.558177 
L 167.427851 292.375894 
L 167.542474 294.697752 
L 167.656044 301.474525 
L 167.769664 300.784228 
L 167.883645 287.521282 
L 167.998787 287.398729 
L 168.226281 304.880985 
L 168.455241 296.429919 
L 168.569321 303.940396 
L 168.796866 299.093681 
L 168.9114 303.228075 
L 169.025266 301.858652 
L 169.139642 302.783734 
L 169.370558 301.535759 
L 169.484184 276.391434 
L 169.711811 286.253807 
L 169.826153 262.641238 
L 170.05536 304.210014 
L 170.16927 301.280565 
L 170.283089 303.206301 
L 170.51113 299.722619 
L 170.624755 290.437913 
L 170.739671 291.486443 
L 170.853422 281.470563 
L 171.080719 297.450937 
L 171.197258 299.252913 
L 171.42511 293.596849 
L 171.652754 284.159333 
L 171.766339 295.143577 
L 171.87995 286.794524 
L 171.994261 298.730082 
L 172.221787 292.509275 
L 172.336354 295.701666 
L 172.449925 283.012775 
L 172.563569 290.197122 
L 172.790954 281.719487 
L 173.018988 287.334637 
L 173.247369 294.327839 
L 173.363047 287.418314 
L 173.476721 298.638599 
L 173.594112 295.255764 
L 173.71149 295.21348 
L 173.943136 291.987534 
L 174.056828 296.499931 
L 174.171869 296.219423 
L 174.285837 294.662576 
L 174.403258 297.37131 
L 174.516824 291.232882 
L 174.746945 300.836863 
L 174.975168 303.67342 
L 175.089383 302.267093 
L 175.319156 291.859887 
L 175.432714 295.160216 
L 175.546337 287.958679 
L 175.774318 298.425003 
L 175.887956 299.997093 
L 176.116671 298.686857 
L 176.230336 298.83868 
L 176.349317 303.257754 
L 176.69404 292.985616 
L 176.807639 301.034923 
L 176.923562 298.44652 
L 177.038602 301.625437 
L 177.152884 291.877441 
L 177.266482 291.904874 
L 177.496147 298.680018 
L 177.610443 293.612894 
L 177.729091 303.518971 
L 177.843221 300.488782 
L 177.956797 290.337102 
L 178.070963 292.499128 
L 178.299359 280.826387 
L 178.414237 286.04626 
L 178.642152 300.029606 
L 178.756682 299.955965 
L 178.870769 290.296742 
L 179.098021 305.9109 
L 179.211687 294.602617 
L 179.453037 304.785902 
L 179.684051 290.4173 
L 179.799317 305.608729 
L 179.912883 301.835216 
L 180.146385 306.340458 
L 180.265681 296.330148 
L 180.493624 305.118725 
L 180.607485 303.682585 
L 180.722708 292.292923 
L 180.838358 304.743184 
L 181.070295 294.578504 
L 181.183925 303.485919 
L 181.2976 300.981303 
L 181.418075 276.551066 
L 181.654565 305.943656 
L 181.769293 292.308521 
L 181.88371 301.780619 
L 181.999215 301.856308 
L 182.11352 300.513554 
L 182.341996 306.324815 
L 182.455638 303.717257 
L 182.570799 304.180592 
L 182.684885 293.940262 
L 182.801875 303.47227 
L 183.031163 283.136179 
L 183.145 300.609314 
L 183.374316 291.557494 
L 183.488199 290.494909 
L 183.720256 303.144673 
L 183.835818 294.275735 
L 183.951053 306.077678 
L 184.066026 304.132303 
L 184.179754 285.06043 
L 184.413602 302.38914 
L 184.527861 295.515632 
L 184.641509 304.815504 
L 184.758853 304.459218 
L 184.988779 306.431736 
L 185.102468 301.257337 
L 185.332805 283.308391 
L 185.455085 291.123602 
L 185.568709 305.842801 
L 185.799281 297.611186 
L 185.913658 297.629055 
L 186.027214 284.124957 
L 186.257417 300.835653 
L 186.484705 297.093476 
L 186.598775 302.842916 
L 186.716867 292.743144 
L 186.836335 295.505021 
L 186.950973 291.249387 
L 187.179991 305.1363 
L 187.294026 301.956908 
L 187.407609 304.410691 
L 187.521779 300.908972 
L 187.635657 302.979134 
L 187.86318 285.732068 
L 188.090568 304.243352 
L 188.207535 305.480038 
L 188.32111 304.548499 
L 188.435129 301.817823 
L 188.54926 295.424498 
L 188.66324 296.947231 
L 188.77702 281.375084 
L 188.890605 291.121391 
L 189.004598 291.245991 
L 189.118635 293.867774 
L 189.232234 280.604335 
L 189.459933 291.730611 
L 189.688622 221.861569 
L 189.919568 300.997935 
L 190.034511 304.222775 
L 190.404937 302.134388 
L 190.51851 303.883447 
L 190.752814 291.597234 
L 190.984928 305.067602 
L 191.099028 303.172746 
L 191.213102 304.023411 
L 191.332886 303.508723 
L 191.446442 292.4657 
L 191.560041 297.219408 
L 191.673662 292.422453 
L 191.800611 301.913772 
L 191.914271 297.212762 
L 192.028033 302.67157 
L 192.255245 281.80692 
L 192.59659 290.04656 
L 192.826468 302.661117 
L 192.940026 305.526374 
L 193.16718 303.826632 
L 193.28421 293.532201 
L 193.513449 302.992094 
L 193.744725 304.473466 
L 193.858531 300.863959 
L 193.972107 293.291515 
L 194.087047 301.702292 
L 194.200728 301.253781 
L 194.316026 289.756606 
L 194.431242 294.694947 
L 194.544979 271.104995 
L 194.772528 297.896045 
L 194.888391 294.976736 
L 195.002415 298.360288 
L 195.116234 292.587113 
L 195.229836 297.80313 
L 195.343448 292.215008 
L 195.457114 300.636654 
L 195.571714 294.915746 
L 195.685723 295.088822 
L 195.79997 291.560567 
L 195.913655 295.674122 
L 196.25573 291.635783 
L 196.369342 276.304657 
L 196.482927 239.295463 
L 196.82729 300.170744 
L 197.054712 295.636559 
L 197.169729 296.903906 
L 197.399479 293.463934 
L 197.627485 303.768658 
L 197.741299 305.351728 
L 197.855062 304.597773 
L 198.085465 297.838374 
L 198.199832 298.030586 
L 198.313982 303.989094 
L 198.433835 302.444567 
L 198.548085 304.403677 
L 198.661937 302.475429 
L 198.775677 302.992714 
L 198.890411 304.234905 
L 199.005232 303.815244 
L 199.118848 304.692982 
L 199.351254 301.640027 
L 199.46779 305.580545 
L 199.58313 303.890431 
L 199.697576 298.382892 
L 199.811813 265.698864 
L 199.925403 301.552822 
L 200.040633 300.635427 
L 200.157535 301.960358 
L 200.273621 305.02888 
L 200.388074 301.002206 
L 200.502392 303.583455 
L 200.730223 294.586436 
L 200.844454 295.388044 
L 200.95837 294.786511 
L 201.073649 302.232772 
L 201.188512 300.097281 
L 201.302308 302.988319 
L 201.416146 300.190111 
L 201.643704 272.288145 
L 201.757336 273.849445 
L 201.871539 284.503621 
L 201.985151 257.143107 
L 202.212306 283.122727 
L 202.326109 283.564506 
L 202.439737 278.426159 
L 202.554176 287.733727 
L 202.667854 283.892102 
L 202.781909 286.182892 
L 202.895783 279.744571 
L 203.009484 280.261454 
L 203.123119 275.605885 
L 203.236676 281.762243 
L 203.466544 303.031992 
L 203.586355 295.862139 
L 203.816183 302.330007 
L 203.931102 299.49594 
L 204.164163 273.008073 
L 204.279219 299.889775 
L 204.397267 300.861795 
L 204.510819 300.871036 
L 204.625078 302.907704 
L 204.853723 299.580373 
L 204.968937 304.603542 
L 205.082634 300.405141 
L 205.198204 300.561752 
L 205.313333 303.166819 
L 205.427084 302.505411 
L 205.540758 300.067721 
L 205.654877 304.302432 
L 205.770982 300.692784 
L 205.999653 301.794332 
L 206.113868 300.54756 
L 206.227731 300.545381 
L 206.342672 298.986266 
L 206.456262 302.339557 
L 206.570772 298.990461 
L 206.684371 290.711461 
L 206.798472 295.255146 
L 206.912208 282.243706 
L 207.140856 304.697027 
L 207.255061 299.224719 
L 207.484303 303.320158 
L 207.712049 300.441449 
L 207.825639 302.31324 
L 207.940133 299.140283 
L 208.05418 300.493729 
L 208.168224 304.115712 
L 208.398814 300.058156 
L 208.512508 301.533153 
L 208.626525 299.528958 
L 208.74197 293.234082 
L 208.85582 301.127049 
L 208.969418 299.829775 
L 209.083369 300.83254 
L 209.197 302.859119 
L 209.310681 302.554385 
L 209.425707 299.988271 
L 209.540526 299.922052 
L 209.654374 300.042479 
L 209.882713 289.754495 
L 209.996461 301.784203 
L 210.110789 300.332063 
L 210.224411 301.230134 
L 210.452095 290.024098 
L 210.683332 295.557535 
L 210.797209 295.133011 
L 210.911356 294.814097 
L 211.025873 301.063166 
L 211.255275 298.894807 
L 211.368882 298.822655 
L 211.483304 299.037403 
L 211.597331 289.317153 
L 211.711015 302.323761 
L 211.93846 295.159697 
L 212.167268 302.969369 
L 212.282803 297.304095 
L 212.396361 297.798804 
L 212.510053 296.954825 
L 212.632857 297.427032 
L 212.748083 301.605789 
L 212.862493 301.48837 
L 212.976303 301.649979 
L 213.203683 296.744748 
L 213.320582 301.37493 
L 213.775908 292.381308 
L 213.890459 293.296011 
L 214.004577 291.926093 
L 214.348222 301.24607 
L 214.462935 300.847773 
L 214.577749 299.56072 
L 214.807855 302.526946 
L 214.921578 301.435864 
L 215.035142 301.961911 
L 215.264146 296.728168 
L 215.378526 301.469127 
L 215.494915 296.281374 
L 215.610685 296.814182 
L 215.7243 302.331308 
L 215.951702 291.292269 
L 216.065639 300.161314 
L 216.409817 295.967574 
L 216.524945 301.466153 
L 216.63909 299.211493 
L 216.867999 303.748628 
L 216.982185 302.967182 
L 217.325366 297.721923 
L 217.440856 302.706622 
L 217.554828 299.597366 
L 217.784497 280.374292 
L 217.899185 300.203728 
L 218.013846 299.782834 
L 218.127749 300.577725 
L 218.241345 285.338781 
L 218.472912 297.834497 
L 218.587498 294.62815 
L 218.703395 295.944397 
L 218.933435 289.008654 
L 219.047257 296.476797 
L 219.161257 286.756213 
L 219.274962 288.918688 
L 219.388619 268.448909 
L 219.50399 280.020521 
L 219.617556 253.972125 
L 219.84484 299.887759 
L 219.958728 300.8507 
L 220.073018 296.783954 
L 220.300453 298.197026 
L 220.414102 297.222477 
L 220.528582 291.655106 
L 220.642184 292.507409 
L 220.75705 295.678754 
L 220.870818 293.601549 
L 221.09843 273.946618 
L 221.326572 289.516921 
L 221.440586 289.256513 
L 221.554952 297.389629 
L 221.668512 297.154945 
L 221.785171 295.417484 
L 221.898948 301.007024 
L 222.014899 300.586117 
L 222.128807 298.963997 
L 222.360378 301.262237 
L 222.475289 300.056927 
L 222.59001 300.157013 
L 222.703588 298.974729 
L 222.817327 300.591906 
L 223.046936 296.185604 
L 223.280028 302.80391 
L 223.508137 290.130794 
L 223.624678 300.542179 
L 223.738525 276.115346 
L 223.860299 297.973043 
L 223.973893 284.4311 
L 224.087545 302.978836 
L 224.201516 302.037512 
L 224.438995 303.582519 
L 224.672793 300.404101 
L 224.788675 303.876793 
L 224.902979 303.88749 
L 225.13799 302.537361 
L 225.594019 285.703459 
L 225.82459 301.861924 
L 225.942272 295.648698 
L 226.055853 299.958651 
L 226.170827 294.875433 
L 226.401946 303.3431 
L 226.515647 301.038917 
L 226.6292 303.944334 
L 226.742854 303.730017 
L 226.977301 304.157422 
L 227.093187 302.220852 
L 227.210811 306.282319 
L 227.446448 304.370041 
L 227.563247 306.716637 
L 227.676907 305.024185 
L 227.790726 297.62573 
L 227.906094 304.973154 
L 228.020139 303.734698 
L 228.137021 305.643071 
L 228.250658 304.686633 
L 228.364933 301.043718 
L 228.48036 301.803477 
L 228.709291 305.910631 
L 229.060491 301.300128 
L 229.178509 300.745707 
L 229.301403 305.469398 
L 229.530141 303.619532 
L 229.646323 303.998772 
L 229.759962 300.844215 
L 229.874249 288.079607 
L 229.990001 300.523646 
L 230.123019 300.866856 
L 230.236743 300.703372 
L 230.466703 297.313803 
L 230.58255 304.501502 
L 230.69634 303.318555 
L 230.813579 305.268034 
L 230.928318 303.843769 
L 231.15559 288.207999 
L 231.269213 290.002121 
L 231.382807 294.59465 
L 231.496877 287.738222 
L 231.610727 290.849291 
L 231.72443 255.942203 
L 231.838005 292.401826 
L 231.951567 279.830772 
L 232.296035 301.825565 
L 232.410188 294.165508 
L 232.638099 301.308495 
L 232.865329 299.021687 
L 233.096338 303.948352 
L 233.211347 302.712178 
L 233.327213 302.936849 
L 233.441101 302.855076 
L 233.554795 302.486856 
L 233.789429 306.31548 
L 233.903035 305.140182 
L 234.131854 291.550335 
L 234.247909 282.457914 
L 234.362585 297.912336 
L 234.476947 290.406484 
L 234.590921 291.140131 
L 234.705599 281.409884 
L 234.933899 293.451076 
L 235.047525 287.110024 
L 235.161229 289.915576 
L 235.274864 281.455511 
L 235.620655 306.271793 
L 235.734352 302.243082 
L 235.970666 304.925889 
L 236.08521 304.803278 
L 236.20195 302.407453 
L 236.317499 304.302796 
L 236.434578 294.653618 
L 236.548354 304.818626 
L 236.665278 302.598851 
L 236.780137 304.576819 
L 237.009882 301.587788 
L 237.126822 305.142586 
L 237.241765 303.981057 
L 237.355466 305.110602 
L 237.469203 302.664883 
L 237.583117 297.79415 
L 237.696758 300.730339 
L 237.816533 293.011261 
L 237.932033 295.669746 
L 238.049248 294.201664 
L 238.162814 303.02717 
L 238.392025 294.774905 
L 238.5056 301.634992 
L 238.620633 297.402404 
L 238.740252 304.553032 
L 238.860587 303.527821 
L 238.976442 304.833363 
L 239.090084 302.67399 
L 239.321407 296.732767 
L 239.549813 303.364056 
L 239.664645 301.651126 
L 239.897135 302.642892 
L 240.010711 301.888576 
L 240.124415 302.440697 
L 240.238404 301.73442 
L 240.35452 304.569202 
L 240.471421 304.561893 
L 240.586353 304.129403 
L 240.814665 302.050291 
L 241.04211 305.031916 
L 241.158309 295.159226 
L 241.403492 305.742287 
L 241.631138 303.616039 
L 241.865354 306.126705 
L 241.979272 302.31365 
L 242.098105 306.054744 
L 242.22136 305.420228 
L 242.33587 305.418582 
L 242.565435 297.132125 
L 242.679009 298.085032 
L 242.792742 303.854264 
L 243.024839 299.946219 
L 243.13906 301.976915 
L 243.252747 285.131531 
L 243.367649 301.151223 
L 243.596432 299.633914 
L 243.710245 284.84954 
L 243.823836 299.582921 
L 243.937438 289.286409 
L 244.051163 291.989575 
L 244.164775 284.696067 
L 244.278544 294.0429 
L 244.506989 275.245485 
L 244.620579 293.481102 
L 244.734956 291.189082 
L 244.850018 295.221621 
L 244.965844 293.21765 
L 245.080242 295.221243 
L 245.19394 295.097278 
L 245.421782 294.17324 
L 245.53556 280.107224 
L 245.64953 295.964309 
L 245.763299 292.990464 
L 245.878566 294.999402 
L 246.107635 291.27819 
L 246.222385 296.966933 
L 246.336891 291.920138 
L 246.571629 300.728765 
L 246.689062 302.535817 
L 246.803845 298.93086 
L 246.917739 301.844695 
L 247.034448 299.592963 
L 247.148485 295.07111 
L 247.375976 299.281836 
L 247.48955 296.605732 
L 247.830683 301.435007 
L 247.946615 300.454502 
L 248.06023 294.501882 
L 248.1778 302.283471 
L 248.291739 292.248243 
L 248.405333 305.142982 
L 248.633937 302.995344 
L 248.74783 303.319321 
L 248.861387 305.003339 
L 248.975428 296.693921 
L 249.089338 302.524575 
L 249.203606 283.018601 
L 249.430878 303.580439 
L 249.544574 297.336283 
L 249.659292 301.415756 
L 249.77864 293.003364 
L 249.892343 300.390838 
L 250.005993 299.155817 
L 250.234856 303.210447 
L 250.352933 296.701571 
L 250.471327 305.59147 
L 250.701528 265.07757 
L 250.815594 296.617078 
L 250.929432 287.769664 
L 251.178932 306.425425 
L 251.408393 303.724346 
L 251.522403 304.798484 
L 251.63598 304.398286 
L 251.86452 292.731737 
L 251.978537 300.670435 
L 252.209029 296.159147 
L 252.323058 281.113409 
L 252.550261 244.296286 
L 252.663832 238.105778 
L 252.891234 294.348427 
L 253.119729 302.256973 
L 253.233589 299.154359 
L 253.347519 287.924278 
L 253.462159 290.378388 
L 253.689401 297.664675 
L 253.803388 295.190279 
L 253.917073 240.813938 
L 254.145193 304.249845 
L 254.258987 305.446906 
L 254.372683 291.168054 
L 254.600294 303.610603 
L 254.714497 303.57462 
L 254.828555 294.486514 
L 254.942136 298.689993 
L 255.0571 291.857912 
L 255.170901 296.351387 
L 255.287926 295.88056 
L 255.401602 297.371454 
L 255.51578 296.467019 
L 255.62941 292.476873 
L 255.856973 298.16833 
L 255.971746 298.004967 
L 256.085915 291.311833 
L 256.200278 292.40202 
L 256.427601 280.816837 
L 256.541698 295.654797 
L 256.656952 287.41415 
L 256.770936 291.324311 
L 256.884837 287.632032 
L 257.118606 299.762974 
L 257.232196 291.717146 
L 257.346723 292.87031 
L 257.460683 291.665424 
L 257.574348 265.296372 
L 257.801671 287.944813 
L 257.915291 285.829679 
L 258.029318 279.804439 
L 258.14519 294.006399 
L 258.25915 293.693269 
L 258.374312 288.224011 
L 258.48801 300.699358 
L 258.602922 301.101639 
L 258.832327 289.625959 
L 258.947856 288.869708 
L 259.061427 300.380127 
L 259.175207 300.03674 
L 259.29382 302.37845 
L 259.407985 299.38955 
L 259.522647 286.66803 
L 259.6384 297.077156 
L 259.752607 297.226735 
L 259.866538 289.551245 
L 259.982965 301.04869 
L 260.212217 299.197251 
L 260.326348 288.238857 
L 260.440307 292.219368 
L 260.786187 286.031306 
L 260.900019 299.264524 
L 261.014047 296.443038 
L 261.130571 284.608475 
L 261.244818 302.378347 
L 261.472866 291.963072 
L 261.586425 301.506464 
L 261.813612 288.615954 
L 262.042012 304.082937 
L 262.155682 304.314362 
L 262.383927 299.523975 
L 262.49762 301.530524 
L 262.611188 301.180666 
L 262.724777 301.289117 
L 262.843914 300.76282 
L 262.957621 294.79313 
L 263.071494 298.355926 
L 263.185414 283.479347 
L 263.301005 295.958067 
L 263.418843 294.444558 
L 263.532906 295.412667 
L 263.646516 294.90355 
L 263.763078 299.120704 
L 263.878788 286.395047 
L 263.99881 294.837399 
L 264.228962 288.486105 
L 264.342935 292.674656 
L 264.458181 301.609058 
L 264.691026 297.954872 
L 264.918936 292.057683 
L 265.032703 294.033105 
L 265.152927 299.398949 
L 265.268706 292.329106 
L 265.383165 295.004169 
L 265.496741 294.61591 
L 265.610651 299.340408 
L 265.725762 295.678619 
L 265.841055 302.609863 
L 265.955271 295.974258 
L 266.069651 301.921553 
L 266.186153 289.469207 
L 266.414067 301.960695 
L 266.645742 292.021955 
L 266.766329 300.870144 
L 266.996454 296.643961 
L 267.110598 294.789142 
L 267.224981 295.609916 
L 267.570588 300.0236 
L 267.684254 300.004523 
L 267.802026 301.371442 
L 267.915674 301.073031 
L 268.143628 298.545233 
L 268.258505 286.349417 
L 268.372512 298.956116 
L 268.486071 290.683495 
L 268.714485 299.286833 
L 268.831094 299.150575 
L 269.067872 281.046507 
L 269.183124 285.552332 
L 269.296688 287.790808 
L 269.41912 297.922685 
L 269.646418 286.712937 
L 269.760792 286.712245 
L 269.877232 287.396628 
L 270.105793 297.196279 
L 270.219759 295.632362 
L 270.333356 290.622504 
L 270.446996 291.95911 
L 270.560633 295.221124 
L 270.788407 282.418419 
L 270.911147 298.179 
L 271.143812 292.615532 
L 271.257446 295.821738 
L 271.484831 289.501057 
L 271.598889 290.43773 
L 271.831019 298.508974 
L 272.058703 295.187888 
L 272.175322 294.783181 
L 272.41505 292.145629 
L 272.52878 296.928326 
L 272.756213 293.284305 
L 272.875213 293.652985 
L 272.989099 274.274857 
L 273.224262 289.901062 
L 273.34114 289.844766 
L 273.574879 296.447242 
L 273.688559 297.843565 
L 273.802123 297.533222 
L 273.915681 297.813963 
L 274.260414 289.961735 
L 274.374006 291.826291 
L 274.488879 299.080108 
L 274.717649 291.133734 
L 274.835231 265.798327 
L 274.948841 296.337193 
L 275.063132 293.417485 
L 275.185297 295.370014 
L 275.299135 300.803326 
L 275.41405 297.393211 
L 275.52881 303.652155 
L 275.642977 303.771777 
L 275.757731 295.798463 
L 275.987886 304.861762 
L 276.101498 299.405873 
L 276.335798 306.396539 
L 276.449431 297.708416 
L 276.678313 304.593698 
L 276.793691 301.509904 
L 276.910754 306.332656 
L 277.025025 306.103101 
L 277.144035 302.464602 
L 277.372736 303.230502 
L 277.486368 284.930322 
L 277.600752 295.698598 
L 277.714806 294.65241 
L 277.828465 292.334418 
L 278.056792 296.670187 
L 278.284785 294.206095 
L 278.398863 294.562556 
L 278.513165 293.027532 
L 278.626725 296.060616 
L 278.740466 293.365377 
L 278.854644 294.745645 
L 278.9692 294.229965 
L 279.082895 289.731942 
L 279.196512 293.130813 
L 279.310369 281.640301 
L 279.425267 294.643965 
L 279.654041 289.19964 
L 279.767688 290.23777 
L 279.883089 288.027018 
L 280.111773 295.771284 
L 280.227404 292.711039 
L 280.34097 293.70178 
L 280.454918 291.904441 
L 280.568511 263.767759 
L 280.682252 288.626106 
L 280.796088 285.090077 
L 280.913135 287.212526 
L 281.026902 292.59063 
L 281.140469 288.769789 
L 281.824879 304.74107 
L 282.052016 294.100542 
L 282.165568 281.028966 
L 282.280285 283.171764 
L 282.508907 304.87682 
L 282.624669 298.756814 
L 282.738703 303.175859 
L 282.852314 298.817256 
L 282.967657 303.335759 
L 283.083101 303.283895 
L 283.197857 298.906371 
L 283.312694 285.120542 
L 283.426309 295.264488 
L 283.540783 288.78694 
L 283.7685 297.786828 
L 283.882066 296.364408 
L 283.995708 295.258663 
L 284.111006 301.363024 
L 284.225963 297.35783 
L 284.342265 301.484108 
L 284.455828 294.94715 
L 284.571107 296.81875 
L 284.688088 293.418661 
L 284.916038 303.389823 
L 285.257254 295.95209 
L 285.371072 295.987395 
L 285.606304 303.853317 
L 285.834065 298.510606 
L 285.950579 299.426288 
L 286.067258 285.699804 
L 286.181083 291.96323 
L 286.296399 287.404417 
L 286.41254 292.464156 
L 286.527582 291.247439 
L 286.642614 303.779542 
L 286.871173 297.898289 
L 286.988105 302.086711 
L 287.215275 284.191619 
L 287.44395 297.28182 
L 287.557726 290.67836 
L 287.671337 291.338241 
L 287.784945 290.295594 
L 287.898511 285.977526 
L 288.012138 271.907981 
L 288.240999 291.589888 
L 288.35495 288.849395 
L 288.469748 289.180911 
L 288.698309 290.42008 
L 288.927515 260.947156 
L 289.041237 276.258324 
L 289.154822 274.320504 
L 289.268424 278.28545 
L 289.382066 291.331804 
L 289.495713 268.022433 
L 289.609292 279.82465 
L 289.837398 272.474058 
L 289.950995 288.092103 
L 290.064614 281.64306 
L 290.294048 300.023788 
L 290.52254 288.5022 
L 290.749824 272.47021 
L 290.863589 273.449843 
L 290.977456 267.113508 
L 291.091072 269.792713 
L 291.204697 279.032212 
L 291.320265 271.471055 
L 291.435175 288.696213 
L 291.549036 288.546394 
L 291.66271 292.226679 
L 291.776672 289.891613 
L 291.890325 284.928716 
L 292.004346 288.800591 
L 292.117973 280.264334 
L 292.232332 288.277879 
L 292.345885 275.00262 
L 292.459944 276.68398 
L 292.574104 280.705535 
L 292.687675 270.769723 
L 292.80194 280.164982 
L 292.915547 233.902703 
L 293.143046 285.607107 
L 293.257066 270.91562 
L 293.37072 273.954497 
L 293.484558 263.437319 
L 293.598484 269.475109 
L 293.712991 285.496054 
L 293.826676 268.266033 
L 293.940325 284.236309 
L 294.053896 265.818371 
L 294.281042 280.66106 
L 294.394789 269.372549 
L 294.508515 285.235329 
L 294.736075 280.449949 
L 294.9656 294.643074 
L 295.079191 292.20918 
L 295.193479 287.136701 
L 295.307034 263.54128 
L 295.421202 270.485532 
L 295.535529 287.635296 
L 295.649891 284.646578 
L 295.877393 272.280188 
L 296.106273 298.301089 
L 296.337499 306.647609 
L 296.56565 302.377687 
L 296.680517 305.406325 
L 296.907764 291.4729 
L 297.021575 290.988515 
L 297.135869 277.651852 
L 297.478944 294.562541 
L 297.592598 293.753299 
L 297.821035 296.750804 
L 297.935108 296.39859 
L 298.048662 290.210456 
L 298.162512 297.389738 
L 298.390357 293.020593 
L 298.504108 297.905328 
L 298.618591 265.886345 
L 298.846533 284.945265 
L 298.960213 283.29044 
L 299.075665 285.634267 
L 299.191372 299.610255 
L 299.419494 297.612013 
L 299.533544 297.894181 
L 299.647512 288.412443 
L 299.761636 292.985737 
L 299.87544 290.250484 
L 299.9891 290.421926 
L 300.103474 289.289353 
L 300.331201 284.472007 
L 300.444776 285.16833 
L 300.560155 277.275062 
L 300.676917 298.419061 
L 301.023338 300.202777 
L 301.137662 283.740556 
L 301.251728 297.018809 
L 301.479425 288.707989 
L 301.706927 290.620748 
L 301.82077 279.084529 
L 301.934359 292.443698 
L 302.047974 282.67375 
L 302.161993 285.215581 
L 302.275712 281.45719 
L 302.392938 284.395128 
L 302.506718 281.365772 
L 302.620298 282.864674 
L 302.733943 288.270348 
L 302.847764 284.927892 
L 302.961482 299.464961 
L 303.189308 294.302496 
L 303.418211 299.599364 
L 303.531787 294.342492 
L 303.645428 280.604166 
L 303.759888 298.550693 
L 303.874396 290.256858 
L 303.989126 302.552691 
L 304.218977 297.630563 
L 304.332678 299.562961 
L 304.446405 271.486398 
L 304.788462 297.571849 
L 304.902143 300.200598 
L 305.015827 300.16702 
L 305.133629 298.520074 
L 305.248995 292.541896 
L 305.47623 303.265337 
L 305.589896 279.871416 
L 305.704014 295.40877 
L 305.933593 284.81684 
L 306.052022 294.157012 
L 306.165857 290.426215 
L 306.279784 280.160034 
L 306.508282 292.669106 
L 306.621915 272.399248 
L 306.851347 300.177441 
L 306.965245 299.337277 
L 307.192777 276.138835 
L 307.306593 287.785899 
L 307.420342 288.024947 
L 307.649684 278.213059 
L 307.765514 283.938975 
L 307.879309 282.119581 
L 307.993353 273.601437 
L 308.22066 284.331875 
L 308.335338 279.892696 
L 308.680298 295.98343 
L 309.021526 278.491432 
L 309.135997 280.522146 
L 309.251287 288.54485 
L 309.365225 283.634202 
L 309.479124 286.378324 
L 309.708007 272.626118 
L 309.821562 277.09843 
L 310.048736 301.618762 
L 310.162732 297.392995 
L 310.276976 291.752401 
L 310.390547 291.904563 
L 310.504129 289.557535 
L 310.618124 280.889376 
L 310.845506 289.925277 
L 310.959101 282.841324 
L 311.072802 289.557176 
L 311.186563 287.718387 
L 311.303265 290.343286 
L 311.417604 286.8067 
L 311.645017 289.331332 
L 311.758786 283.902002 
L 311.87234 285.654321 
L 311.986021 298.377798 
L 312.213766 275.396646 
L 312.443387 293.975004 
L 312.558466 288.753297 
L 312.672081 288.748264 
L 312.786491 270.151144 
L 313.013705 290.996634 
L 313.12994 293.051389 
L 313.358547 301.768471 
L 313.472593 300.067404 
L 313.699729 285.515431 
L 313.815835 279.028394 
L 314.043269 289.164641 
L 314.157351 285.381545 
L 314.384892 288.260483 
L 314.499337 279.422208 
L 314.727124 289.364744 
L 314.955812 286.833799 
L 315.06968 289.046468 
L 315.187716 294.687516 
L 315.302141 290.661965 
L 315.417109 291.246549 
L 315.532272 293.335452 
L 315.646214 293.227986 
L 315.760486 293.746897 
L 315.87423 293.623413 
L 315.987932 289.448475 
L 316.22007 299.488801 
L 316.333732 292.075795 
L 316.449474 296.193934 
L 316.678837 291.32944 
L 316.795365 301.926238 
L 316.908946 296.140835 
L 317.022844 297.458811 
L 317.138735 291.667526 
L 317.252365 274.361799 
L 317.366563 290.086168 
L 317.480402 286.163327 
L 317.5941 289.415308 
L 317.708018 280.406227 
L 317.936834 298.619648 
L 318.050803 297.739496 
L 318.278376 300.64372 
L 318.392098 295.726446 
L 318.505827 299.537192 
L 318.73421 285.293403 
L 318.848067 293.274888 
L 318.961744 272.88758 
L 319.076573 291.526051 
L 319.303795 285.981161 
L 319.532726 299.506376 
L 319.646359 299.228335 
L 319.878363 302.391447 
L 320.10666 297.866306 
L 320.22085 275.847051 
L 320.448693 295.040734 
L 320.562775 293.976296 
L 320.676748 296.033113 
L 320.790344 267.794307 
L 321.01872 295.191087 
L 321.132358 299.165727 
L 321.246257 290.475871 
L 321.360266 296.452071 
L 321.474616 296.02346 
L 321.588173 302.762612 
L 321.935033 285.762431 
L 322.048585 285.573011 
L 322.162148 283.87968 
L 322.275986 273.133232 
L 322.617678 295.793152 
L 322.731489 295.72985 
L 322.845129 294.009487 
L 323.073516 301.154854 
L 323.187136 303.277599 
L 323.762836 291.991572 
L 323.877273 296.026739 
L 323.990852 288.747516 
L 324.220726 301.880849 
L 324.334411 299.739077 
L 324.448013 302.30604 
L 324.561593 299.643014 
L 324.675324 290.152583 
L 324.90568 299.189305 
L 325.019414 295.523561 
L 325.133633 298.735782 
L 325.247731 295.273759 
L 325.362025 300.852595 
L 325.47561 297.276958 
L 325.589212 297.558758 
L 325.7031 296.36172 
L 325.818245 300.379283 
L 326.160016 295.068921 
L 326.61688 281.938651 
L 326.730875 271.591683 
L 326.844685 273.615927 
L 326.958314 287.377231 
L 327.185496 281.808442 
L 327.413103 292.369317 
L 327.526747 291.821903 
L 327.64063 293.428174 
L 327.754352 291.073639 
L 327.867907 299.459495 
L 327.982402 289.850812 
L 328.211372 292.695528 
L 328.324989 290.29745 
L 328.440188 285.448201 
L 328.668404 298.842685 
L 328.783387 291.004867 
L 328.897373 302.950188 
L 329.01098 299.4911 
L 329.124535 303.217192 
L 329.239581 302.173531 
L 329.353319 289.646084 
L 329.467704 297.490343 
L 329.581998 295.057519 
L 329.695581 297.71395 
L 329.809989 294.661959 
L 330.039821 297.447936 
L 330.15352 295.511717 
L 330.267301 285.26292 
L 330.380886 300.918108 
L 330.494543 290.884154 
L 330.612079 303.804983 
L 330.725789 301.609892 
L 330.840373 302.364443 
L 331.071034 300.727709 
L 331.184654 304.849942 
L 331.299068 302.189886 
L 331.413623 303.413464 
L 331.527506 298.53537 
L 331.755622 304.602862 
L 331.869257 303.05436 
L 332.096933 302.295286 
L 332.211025 303.993363 
L 332.439141 301.698779 
L 332.666848 298.100887 
L 332.782991 295.938655 
L 333.010928 303.216432 
L 333.124743 301.481755 
L 333.23897 302.178872 
L 333.352836 298.920593 
L 333.466618 300.915298 
L 333.58028 299.876785 
L 333.694034 293.587439 
L 333.921375 299.316048 
L 334.037875 298.049417 
L 334.612375 304.919351 
L 334.726034 296.363593 
L 334.839851 299.102685 
L 335.183526 294.104674 
L 335.297951 293.211577 
L 335.411512 282.286719 
L 335.639195 298.122545 
L 335.753636 295.6914 
L 335.867426 298.54028 
L 335.98149 296.953922 
L 336.095335 293.127928 
L 336.324811 295.299774 
L 336.667469 297.090287 
L 336.897058 300.726975 
L 337.011965 290.073124 
L 337.239584 303.840314 
L 337.468097 303.646008 
L 337.581656 300.134907 
L 337.695502 302.181413 
L 337.809117 300.954538 
L 338.036249 296.650384 
L 338.380576 289.512964 
L 338.494828 296.310667 
L 338.722224 291.658631 
L 338.835801 295.309963 
L 338.949394 292.346683 
L 339.062977 297.457733 
L 339.177817 294.533518 
L 339.405892 299.104464 
L 339.519583 298.835079 
L 339.633147 293.044578 
L 339.746729 293.071057 
L 339.860337 292.002742 
L 339.974557 287.635021 
L 340.088723 295.321761 
L 340.204156 295.329902 
L 340.431413 296.992787 
L 340.545184 297.457422 
L 340.65878 296.103694 
L 340.773438 293.236466 
L 341.001022 296.717696 
L 341.228207 290.060397 
L 341.455378 296.047273 
L 341.569075 295.276535 
L 341.796831 287.382917 
L 341.911583 293.642348 
L 342.025348 293.351207 
L 342.139356 287.582498 
L 342.366539 295.603303 
L 342.480449 294.0282 
L 342.594434 294.384047 
L 342.708097 296.591815 
L 342.936256 292.412228 
L 343.049826 282.201302 
L 343.277299 293.061749 
L 343.391173 295.20551 
L 343.61971 288.997044 
L 343.733435 295.880664 
L 343.846988 293.818548 
L 343.960621 294.67054 
L 344.188721 291.580252 
L 344.302309 296.57559 
L 344.415966 292.855746 
L 344.529898 298.101998 
L 344.646784 295.802062 
L 344.760606 285.923199 
L 344.874872 298.530792 
L 345.104934 297.348751 
L 345.218568 297.996265 
L 345.334502 297.504121 
L 345.562389 288.284084 
L 345.676222 290.532941 
L 345.790097 285.872818 
L 345.903664 269.545994 
L 346.133434 295.436478 
L 346.246994 292.515772 
L 346.361163 297.212867 
L 346.47519 296.02401 
L 346.589521 297.125095 
L 346.81738 291.518861 
L 346.934053 293.141156 
L 347.047655 281.291068 
L 347.163744 247.495837 
L 347.27777 295.335936 
L 347.392897 292.702377 
L 347.622489 297.961976 
L 347.736093 289.841658 
L 347.850671 302.853255 
L 347.964231 300.904326 
L 348.193334 303.093214 
L 348.311322 301.241012 
L 348.539146 296.403048 
L 348.654543 299.631055 
L 348.76875 298.509088 
L 348.882424 295.492433 
L 348.996034 288.861283 
L 349.111377 291.196984 
L 349.340251 298.85316 
L 349.456189 294.727776 
L 349.684492 300.093781 
L 349.799139 299.201694 
L 349.913521 289.053261 
L 350.027192 291.280861 
L 350.254299 300.231382 
L 350.482738 292.412342 
L 350.710005 299.618135 
L 350.940583 296.97142 
L 351.056122 303.614214 
L 351.169999 302.850468 
L 351.286121 303.773763 
L 351.51426 299.605688 
L 351.628651 300.682198 
L 351.747182 299.387001 
L 351.860762 296.17773 
L 352.202757 300.06021 
L 352.430184 300.331702 
L 352.54375 300.100776 
L 352.772201 304.103004 
L 352.885983 302.736074 
L 352.999708 303.203146 
L 353.114115 303.131413 
L 353.228217 305.41886 
L 353.342989 296.139679 
L 353.456575 303.88362 
L 353.684441 300.622353 
L 353.913325 303.60207 
L 354.028803 301.483018 
L 354.143133 301.771341 
L 354.256913 303.141329 
L 354.487342 302.431548 
L 354.601498 303.099612 
L 354.715504 299.710163 
L 354.830785 303.053683 
L 354.944957 285.813017 
L 355.17374 302.65813 
L 355.28777 299.429103 
L 355.401538 301.220149 
L 355.515238 298.56624 
L 355.628834 299.462352 
L 355.742497 296.815195 
L 355.973426 302.98604 
L 356.087019 301.558009 
L 356.200599 297.50019 
L 356.314244 297.837979 
L 356.428391 293.189466 
L 356.544276 298.671149 
L 356.658857 296.352813 
L 356.773668 304.571056 
L 356.887603 304.12332 
L 357.115095 299.718326 
L 357.229995 295.341658 
L 357.458865 302.251213 
L 357.688562 295.818255 
L 357.802119 300.496873 
L 358.033446 299.510841 
L 358.147403 294.672281 
L 358.375568 302.733523 
L 358.605169 299.407612 
L 358.718751 302.155026 
L 358.83293 300.507835 
L 359.062292 304.784484 
L 359.403993 302.905204 
L 359.631666 294.62943 
L 359.859978 298.84404 
L 359.973538 296.926323 
L 360.202551 304.39079 
L 360.545363 301.873205 
L 360.661085 297.855345 
L 360.889463 301.478937 
L 361.003507 297.516862 
L 361.119688 300.136132 
L 361.233817 296.725669 
L 361.461316 303.847016 
L 361.575044 302.392771 
L 361.688596 303.116022 
L 361.802355 302.409234 
L 361.918557 302.596967 
L 362.032251 303.542554 
L 362.259834 296.661471 
L 362.376713 304.566924 
L 362.490785 304.433872 
L 362.721625 303.391779 
L 362.836038 304.213006 
L 363.063588 304.174624 
L 363.40522 298.592608 
L 363.519512 297.931025 
L 363.634398 299.589863 
L 363.748124 297.044433 
L 363.862374 301.077464 
L 363.978467 300.970258 
L 364.092177 296.776555 
L 364.322071 301.759778 
L 364.439368 296.419353 
L 364.553134 305.187325 
L 364.780453 295.659606 
L 364.894075 290.122969 
L 365.007702 297.493128 
L 365.234851 290.658221 
L 365.348604 287.245664 
L 365.462172 292.296169 
L 365.689673 275.138661 
L 365.805114 273.06159 
L 366.033401 294.602697 
L 366.147741 293.182591 
L 366.261447 301.698459 
L 366.380791 301.194845 
L 366.494539 294.791857 
L 366.723704 302.535037 
L 367.178798 294.78994 
L 367.292447 295.463134 
L 367.406127 292.50881 
L 367.519951 297.18533 
L 367.74784 292.477751 
L 367.861945 291.186928 
L 367.97557 280.983593 
L 368.089414 294.068892 
L 368.203091 293.700426 
L 368.31666 284.908662 
L 368.544948 295.335169 
L 368.659425 294.054415 
L 368.77303 294.322193 
L 369.001025 296.209172 
L 369.117956 292.208637 
L 369.231586 294.719522 
L 369.345316 293.771338 
L 369.458941 280.644758 
L 369.572503 292.409275 
L 369.687047 291.258153 
L 369.800653 294.840609 
L 370.028089 285.753889 
L 370.14176 273.07912 
L 370.369075 295.379509 
L 370.482715 294.887099 
L 370.825989 283.903476 
L 371.169076 291.868171 
L 371.283062 287.976678 
L 371.510806 289.727518 
L 371.624383 285.230281 
L 371.85197 288.969258 
L 372.079445 283.393538 
L 372.193053 280.361967 
L 372.420577 283.177778 
L 372.534484 283.637201 
L 372.648168 286.270898 
L 372.876471 301.140716 
L 372.99353 300.03101 
L 373.222756 300.855268 
L 373.336629 299.953426 
L 373.451391 301.644273 
L 373.56522 301.40788 
L 373.67886 297.621977 
L 373.908566 301.128139 
L 374.135747 299.151732 
L 374.249324 302.412542 
L 374.362928 299.402121 
L 374.476494 300.582497 
L 374.705962 297.817889 
L 374.819671 297.358056 
L 374.933322 300.368396 
L 375.04719 296.655076 
L 375.160956 301.106741 
L 375.274672 292.583081 
L 375.388488 294.195561 
L 375.617247 300.888216 
L 375.730857 299.370063 
L 375.845196 301.97827 
L 375.958969 298.35417 
L 376.073078 298.846847 
L 376.186798 301.861471 
L 376.301636 298.623733 
L 376.415879 299.519409 
L 376.643123 293.635628 
L 376.870405 299.312335 
L 376.984295 299.006683 
L 377.21153 303.568209 
L 377.325187 302.896871 
L 377.438912 301.028734 
L 377.552969 294.581984 
L 377.666717 295.268147 
L 377.896649 301.873868 
L 378.012312 299.044002 
L 378.125967 303.223624 
L 378.239543 300.300643 
L 378.473916 287.501159 
L 378.587624 301.865776 
L 378.701381 293.035146 
L 378.816371 294.689267 
L 378.931662 300.377168 
L 379.046148 298.242375 
L 379.159996 303.192452 
L 379.275514 302.308679 
L 379.389544 302.564015 
L 379.5054 300.188808 
L 379.619824 302.152758 
L 379.733974 301.877334 
L 379.847929 300.680809 
L 380.077508 303.325181 
L 380.191501 302.324665 
L 380.305063 302.484937 
L 380.419164 302.174329 
L 380.534683 303.499292 
L 380.648428 298.088136 
L 380.762096 281.735263 
L 380.875795 237.344474 
L 381.103039 255.357804 
L 381.216709 260.246446 
L 381.330379 303.641423 
L 381.444804 298.210666 
L 381.558416 298.743123 
L 381.672028 296.839707 
L 381.786881 300.330328 
L 382.014891 295.225952 
L 382.12848 296.96694 
L 382.242243 294.124161 
L 382.357402 295.857317 
L 382.471298 293.92328 
L 382.585209 295.926512 
L 382.69882 289.75452 
L 382.928005 302.187473 
L 383.043061 301.307267 
L 383.157642 303.424408 
L 383.271573 302.978998 
L 383.386909 301.850961 
L 383.614155 304.067352 
L 383.728287 303.690448 
L 383.841913 304.02295 
L 383.957082 303.967806 
L 384.18599 298.528329 
L 384.300646 302.687655 
L 384.414201 298.792909 
L 384.528033 302.079448 
L 384.641642 299.149741 
L 384.756044 299.740528 
L 384.869664 298.129072 
L 384.983225 301.049679 
L 385.210406 291.227057 
L 385.324986 293.043962 
L 385.439352 282.296192 
L 385.666819 295.718645 
L 385.781105 295.804365 
L 386.009362 296.995892 
L 386.123062 295.12882 
L 386.237131 290.869384 
L 386.351374 295.086279 
L 386.465792 303.796593 
L 386.579534 296.998748 
L 386.693866 297.789939 
L 386.807532 293.586003 
L 386.921362 294.367628 
L 387.035284 286.409744 
L 387.148961 294.810907 
L 387.265242 292.719503 
L 387.493331 301.810378 
L 387.608603 298.580918 
L 387.722521 302.553732 
L 387.836366 297.427536 
L 387.949971 302.033663 
L 388.06426 301.398984 
L 388.177819 287.862492 
L 388.406998 302.389411 
L 388.520588 302.050679 
L 388.63627 303.729263 
L 388.750714 301.414375 
L 388.977995 303.871862 
L 389.09359 303.789702 
L 389.435175 286.915551 
L 389.548958 301.749865 
L 389.665794 283.793062 
L 389.779435 299.271454 
L 389.893604 297.901444 
L 390.007657 301.25202 
L 390.23546 296.122221 
L 390.349246 295.464195 
L 390.463168 300.342144 
L 390.576877 300.016253 
L 390.690545 298.390443 
L 390.804152 299.536082 
L 390.917894 286.161759 
L 391.145536 296.490023 
L 391.25974 297.914724 
L 391.373708 296.795536 
L 391.602522 302.381916 
L 391.717384 299.925666 
L 391.837965 300.079891 
L 391.954669 302.580929 
L 392.295366 283.5225 
L 392.409181 297.102464 
L 392.52408 294.212303 
L 392.641317 283.440279 
L 392.869582 301.040963 
L 392.983171 301.877962 
L 393.213634 299.690102 
L 393.327352 299.701748 
L 393.441463 301.665762 
L 393.556481 296.306774 
L 393.670539 300.613151 
L 393.784209 293.442767 
L 394.127949 301.271349 
L 394.242718 301.872004 
L 394.358778 303.218105 
L 394.587155 301.310835 
L 394.700729 301.186873 
L 394.816093 303.423241 
L 394.9297 302.408037 
L 395.158363 304.104524 
L 395.273595 304.075836 
L 395.387614 304.293018 
L 395.501725 302.000595 
L 395.615297 303.412513 
L 395.729027 299.365498 
L 395.843458 303.636073 
L 395.957479 297.240687 
L 396.186536 303.1797 
L 396.420088 303.993826 
L 396.544779 302.265759 
L 396.662187 304.537425 
L 396.776388 241.325351 
L 397.004625 298.379548 
L 397.118239 297.865418 
L 397.233241 300.929885 
L 397.346813 287.214414 
L 397.460878 302.344656 
L 397.689334 301.457408 
L 397.803325 297.831897 
L 397.917491 298.165784 
L 398.259872 302.075172 
L 398.373703 301.370469 
L 398.487273 296.807612 
L 398.487273 296.807612 
" clip-path="url(#pce256b857d)" style="fill: none; stroke: #1f77b4; stroke-width: 1.5; stroke-linecap: square"/>
   </g>
   <g id="patch_3">
    <path d="M 57.6 307.584 
L 57.6 41.472 
" style="fill: none; stroke: #000000; stroke-width: 0.8; stroke-linejoin: miter; stroke-linecap: square"/>
   </g>
   <g id="patch_4">
    <path d="M 414.72 307.584 
L 414.72 41.472 
" style="fill: none; stroke: #000000; stroke-width: 0.8; stroke-linejoin: miter; stroke-linecap: square"/>
   </g>
   <g id="patch_5">
    <path d="M 57.6 307.584 
L 414.72 307.584 
" style="fill: none; stroke: #000000; stroke-width: 0.8; stroke-linejoin: miter; stroke-linecap: square"/>
   </g>
   <g id="patch_6">
    <path d="M 57.6 41.472 
L 414.72 41.472 
" style="fill: none; stroke: #000000; stroke-width: 0.8; stroke-linejoin: miter; stroke-linecap: square"/>
   </g>
   <g id="text_17">
    <!-- pt11 link speed per 100ms -->
    <g transform="translate(155.608125 35.472)scale(0.12 -0.12)">
     <defs>
      <path id="DejaVuSans-20" transform="scale(0.015625)"/>
      <path id="DejaVuSans-6c" d="M 603 4863 
L 1178 4863 
L 1178 0 
L 603 0 
L 603 4863 
z
" transform="scale(0.015625)"/>
      <path id="DejaVuSans-6e" d="M 3513 2113 
L 3513 0 
L 2938 0 
L 2938 2094 
Q 2938 2591 2744 2837 
Q 2550 3084 2163 3084 
Q 1697 3084 1428 2787 
Q 1159 2491 1159 1978 
L 1159 0 
L 581 0 
L 581 3500 
L 1159 3500 
L 1159 2956 
Q 1366 3272 1645 3428 
Q 1925 3584 2291 3584 
Q 2894 3584 3203 3211 
Q 3513 2838 3513 2113 
z
" transform="scale(0.015625)"/>
      <path id="DejaVuSans-6b" d="M 581 4863 
L 1159 4863 
L 1159 1991 
L 2875 3500 
L 3609 3500 
L 1753 1863 
L 3688 0 
L 2938 0 
L 1159 1709 
L 1159 0 
L 581 0 
L 581 4863 
z
" transform="scale(0.015625)"/>
      <path id="DejaVuSans-64" d="M 2906 2969 
L 2906 4863 
L 3481 4863 
L 3481 0 
L 2906 0 
L 2906 525 
Q 2725 213 2448 61 
Q 2172 -91 1784 -91 
Q 1150 -91 751 415 
Q 353 922 353 1747 
Q 353 2572 751 3078 
Q 1150 3584 1784 3584 
Q 2172 3584 2448 3432 
Q 2725 3281 2906 2969 
z
M 947 1747 
Q 947 1113 1208 752 
Q 1469 391 1925 391 
Q 2381 391 2643 752 
Q 2906 1113 2906 1747 
Q 2906 2381 2643 2742 
Q 2381 3103 1925 3103 
Q 1469 3103 1208 2742 
Q 947 2381 947 1747 
z
" transform="scale(0.015625)"/>
      <path id="DejaVuSans-72" d="M 2631 2963 
Q 2534 3019 2420 3045 
Q 2306 3072 2169 3072 
Q 1681 3072 1420 2755 
Q 1159 2438 1159 1844 
L 1159 0 
L 581 0 
L 581 3500 
L 1159 3500 
L 1159 2956 
Q 1341 3275 1631 3429 
Q 1922 3584 2338 3584 
Q 2397 3584 2469 3576 
Q 2541 3569 2628 3553 
L 2631 2963 
z
" transform="scale(0.015625)"/>
     </defs>
     <use xlink:href="#DejaVuSans-70"/>
     <use xlink:href="#DejaVuSans-74" x="63.476562"/>
     <use xlink:href="#DejaVuSans-31" x="102.685547"/>
     <use xlink:href="#DejaVuSans-31" x="166.308594"/>
     <use xlink:href="#DejaVuSans-20" x="229.931641"/>
     <use xlink:href="#DejaVuSans-6c" x="261.71875"/>
     <use xlink:href="#DejaVuSans-69" x="289.501953"/>
     <use xlink:href="#DejaVuSans-6e" x="317.285156"/>
     <use xlink:href="#DejaVuSans-6b" x="380.664062"/>
     <use xlink:href="#DejaVuSans-20" x="438.574219"/>
     <use xlink:href="#DejaVuSans-73" x="470.361328"/>
     <use xlink:href="#DejaVuSans-70" x="522.460938"/>
     <use xlink:href="#DejaVuSans-65" x="585.9375"/>
     <use xlink:href="#DejaVuSans-65" x="647.460938"/>
     <use xlink:href="#DejaVuSans-64" x="708.984375"/>
     <use xlink:href="#DejaVuSans-20" x="772.460938"/>
     <use xlink:href="#DejaVuSans-70" x="804.248047"/>
     <use xlink:href="#DejaVuSans-65" x="867.724609"/>
     <use xlink:href="#DejaVuSans-72" x="929.248047"/>
     <use xlink:href="#DejaVuSans-20" x="970.361328"/>
     <use xlink:href="#DejaVuSans-31" x="1002.148438"/>
     <use xlink:href="#DejaVuSans-30" x="1065.771484"/>
     <use xlink:href="#DejaVuSans-30" x="1129.394531"/>
     <use xlink:href="#DejaVuSans-6d" x="1193.017578"/>
     <use xlink:href="#DejaVuSans-73" x="1290.429688"/>
    </g>
   </g>
  </g>
 </g>
 <defs>
  <clipPath id="pce256b857d">
   <rect x="57.6" y="41.472" width="357.12" height="266.112"/>
  </clipPath>
 </defs>
</svg>
