<?xml version="1.0" encoding="utf-8" standalone="no"?>
<!DOCTYPE svg PUBLIC "-//W3C//DTD SVG 1.1//EN"
  "http://www.w3.org/Graphics/SVG/1.1/DTD/svg11.dtd">
<svg xmlns:xlink="http://www.w3.org/1999/xlink" width="460.8pt" height="345.6pt" viewBox="0 0 460.8 345.6" xmlns="http://www.w3.org/2000/svg" version="1.1">
 <metadata>
  <rdf:RDF xmlns:dc="http://purl.org/dc/elements/1.1/" xmlns:cc="http://creativecommons.org/ns#" xmlns:rdf="http://www.w3.org/1999/02/22-rdf-syntax-ns#">
   <cc:Work>
    <dc:type rdf:resource="http://purl.org/dc/dcmitype/StillImage"/>
    <dc:date>2022-07-10T04:21:58.199063</dc:date>
    <dc:format>image/svg+xml</dc:format>
    <dc:creator>
     <cc:Agent>
      <dc:title>Matplotlib v3.5.2, https://matplotlib.org/</dc:title>
     </cc:Agent>
    </dc:creator>
   </cc:Work>
  </rdf:RDF>
 </metadata>
 <defs>
  <style type="text/css">*{stroke-linejoin: round; stroke-linecap: butt}</style>
 </defs>
 <g id="figure_1">
  <g id="patch_1">
   <path d="M 0 345.6 
L 460.8 345.6 
L 460.8 0 
L 0 0 
z
" style="fill: #ffffff"/>
  </g>
  <g id="axes_1">
   <g id="patch_2">
    <path d="M 57.6 307.584 
L 414.72 307.584 
L 414.72 41.472 
L 57.6 41.472 
z
" style="fill: #ffffff"/>
   </g>
   <g id="matplotlib.axis_1">
    <g id="xtick_1">
     <g id="line2d_1">
      <defs>
       <path id="m78dc26b7b1" d="M 0 0 
L 0 3.5 
" style="stroke: #000000; stroke-width: 0.8"/>
      </defs>
      <g>
       <use xlink:href="#m78dc26b7b1" x="73.685088" y="307.584" style="stroke: #000000; stroke-width: 0.8"/>
      </g>
     </g>
     <g id="text_1">
      <!-- 0 -->
      <g transform="translate(70.503838 322.182437)scale(0.1 -0.1)">
       <defs>
        <path id="DejaVuSans-30" d="M 2034 4250 
Q 1547 4250 1301 3770 
Q 1056 3291 1056 2328 
Q 1056 1369 1301 889 
Q 1547 409 2034 409 
Q 2525 409 2770 889 
Q 3016 1369 3016 2328 
Q 3016 3291 2770 3770 
Q 2525 4250 2034 4250 
z
M 2034 4750 
Q 2819 4750 3233 4129 
Q 3647 3509 3647 2328 
Q 3647 1150 3233 529 
Q 2819 -91 2034 -91 
Q 1250 -91 836 529 
Q 422 1150 422 2328 
Q 422 3509 836 4129 
Q 1250 4750 2034 4750 
z
" transform="scale(0.015625)"/>
       </defs>
       <use xlink:href="#DejaVuSans-30"/>
      </g>
     </g>
    </g>
    <g id="xtick_2">
     <g id="line2d_2">
      <g>
       <use xlink:href="#m78dc26b7b1" x="147.171754" y="307.584" style="stroke: #000000; stroke-width: 0.8"/>
      </g>
     </g>
     <g id="text_2">
      <!-- 50 -->
      <g transform="translate(140.809254 322.182437)scale(0.1 -0.1)">
       <defs>
        <path id="DejaVuSans-35" d="M 691 4666 
L 3169 4666 
L 3169 4134 
L 1269 4134 
L 1269 2991 
Q 1406 3038 1543 3061 
Q 1681 3084 1819 3084 
Q 2600 3084 3056 2656 
Q 3513 2228 3513 1497 
Q 3513 744 3044 326 
Q 2575 -91 1722 -91 
Q 1428 -91 1123 -41 
Q 819 9 494 109 
L 494 744 
Q 775 591 1075 516 
Q 1375 441 1709 441 
Q 2250 441 2565 725 
Q 2881 1009 2881 1497 
Q 2881 1984 2565 2268 
Q 2250 2553 1709 2553 
Q 1456 2553 1204 2497 
Q 953 2441 691 2322 
L 691 4666 
z
" transform="scale(0.015625)"/>
       </defs>
       <use xlink:href="#DejaVuSans-35"/>
       <use xlink:href="#DejaVuSans-30" x="63.623047"/>
      </g>
     </g>
    </g>
    <g id="xtick_3">
     <g id="line2d_3">
      <g>
       <use xlink:href="#m78dc26b7b1" x="220.65842" y="307.584" style="stroke: #000000; stroke-width: 0.8"/>
      </g>
     </g>
     <g id="text_3">
      <!-- 100 -->
      <g transform="translate(211.11467 322.182437)scale(0.1 -0.1)">
       <defs>
        <path id="DejaVuSans-31" d="M 794 531 
L 1825 531 
L 1825 4091 
L 703 3866 
L 703 4441 
L 1819 4666 
L 2450 4666 
L 2450 531 
L 3481 531 
L 3481 0 
L 794 0 
L 794 531 
z
" transform="scale(0.015625)"/>
       </defs>
       <use xlink:href="#DejaVuSans-31"/>
       <use xlink:href="#DejaVuSans-30" x="63.623047"/>
       <use xlink:href="#DejaVuSans-30" x="127.246094"/>
      </g>
     </g>
    </g>
    <g id="xtick_4">
     <g id="line2d_4">
      <g>
       <use xlink:href="#m78dc26b7b1" x="294.145086" y="307.584" style="stroke: #000000; stroke-width: 0.8"/>
      </g>
     </g>
     <g id="text_4">
      <!-- 150 -->
      <g transform="translate(284.601336 322.182437)scale(0.1 -0.1)">
       <use xlink:href="#DejaVuSans-31"/>
       <use xlink:href="#DejaVuSans-35" x="63.623047"/>
       <use xlink:href="#DejaVuSans-30" x="127.246094"/>
      </g>
     </g>
    </g>
    <g id="xtick_5">
     <g id="line2d_5">
      <g>
       <use xlink:href="#m78dc26b7b1" x="367.631752" y="307.584" style="stroke: #000000; stroke-width: 0.8"/>
      </g>
     </g>
     <g id="text_5">
      <!-- 200 -->
      <g transform="translate(358.088002 322.182437)scale(0.1 -0.1)">
       <defs>
        <path id="DejaVuSans-32" d="M 1228 531 
L 3431 531 
L 3431 0 
L 469 0 
L 469 531 
Q 828 903 1448 1529 
Q 2069 2156 2228 2338 
Q 2531 2678 2651 2914 
Q 2772 3150 2772 3378 
Q 2772 3750 2511 3984 
Q 2250 4219 1831 4219 
Q 1534 4219 1204 4116 
Q 875 4013 500 3803 
L 500 4441 
Q 881 4594 1212 4672 
Q 1544 4750 1819 4750 
Q 2544 4750 2975 4387 
Q 3406 4025 3406 3419 
Q 3406 3131 3298 2873 
Q 3191 2616 2906 2266 
Q 2828 2175 2409 1742 
Q 1991 1309 1228 531 
z
" transform="scale(0.015625)"/>
       </defs>
       <use xlink:href="#DejaVuSans-32"/>
       <use xlink:href="#DejaVuSans-30" x="63.623047"/>
       <use xlink:href="#DejaVuSans-30" x="127.246094"/>
      </g>
     </g>
    </g>
    <g id="text_6">
     <!-- time(s) -->
     <g transform="translate(218.357656 335.860562)scale(0.1 -0.1)">
      <defs>
       <path id="DejaVuSans-74" d="M 1172 4494 
L 1172 3500 
L 2356 3500 
L 2356 3053 
L 1172 3053 
L 1172 1153 
Q 1172 725 1289 603 
Q 1406 481 1766 481 
L 2356 481 
L 2356 0 
L 1766 0 
Q 1100 0 847 248 
Q 594 497 594 1153 
L 594 3053 
L 172 3053 
L 172 3500 
L 594 3500 
L 594 4494 
L 1172 4494 
z
" transform="scale(0.015625)"/>
       <path id="DejaVuSans-69" d="M 603 3500 
L 1178 3500 
L 1178 0 
L 603 0 
L 603 3500 
z
M 603 4863 
L 1178 4863 
L 1178 4134 
L 603 4134 
L 603 4863 
z
" transform="scale(0.015625)"/>
       <path id="DejaVuSans-6d" d="M 3328 2828 
Q 3544 3216 3844 3400 
Q 4144 3584 4550 3584 
Q 5097 3584 5394 3201 
Q 5691 2819 5691 2113 
L 5691 0 
L 5113 0 
L 5113 2094 
Q 5113 2597 4934 2840 
Q 4756 3084 4391 3084 
Q 3944 3084 3684 2787 
Q 3425 2491 3425 1978 
L 3425 0 
L 2847 0 
L 2847 2094 
Q 2847 2600 2669 2842 
Q 2491 3084 2119 3084 
Q 1678 3084 1418 2786 
Q 1159 2488 1159 1978 
L 1159 0 
L 581 0 
L 581 3500 
L 1159 3500 
L 1159 2956 
Q 1356 3278 1631 3431 
Q 1906 3584 2284 3584 
Q 2666 3584 2933 3390 
Q 3200 3197 3328 2828 
z
" transform="scale(0.015625)"/>
       <path id="DejaVuSans-65" d="M 3597 1894 
L 3597 1613 
L 953 1613 
Q 991 1019 1311 708 
Q 1631 397 2203 397 
Q 2534 397 2845 478 
Q 3156 559 3463 722 
L 3463 178 
Q 3153 47 2828 -22 
Q 2503 -91 2169 -91 
Q 1331 -91 842 396 
Q 353 884 353 1716 
Q 353 2575 817 3079 
Q 1281 3584 2069 3584 
Q 2775 3584 3186 3129 
Q 3597 2675 3597 1894 
z
M 3022 2063 
Q 3016 2534 2758 2815 
Q 2500 3097 2075 3097 
Q 1594 3097 1305 2825 
Q 1016 2553 972 2059 
L 3022 2063 
z
" transform="scale(0.015625)"/>
       <path id="DejaVuSans-28" d="M 1984 4856 
Q 1566 4138 1362 3434 
Q 1159 2731 1159 2009 
Q 1159 1288 1364 580 
Q 1569 -128 1984 -844 
L 1484 -844 
Q 1016 -109 783 600 
Q 550 1309 550 2009 
Q 550 2706 781 3412 
Q 1013 4119 1484 4856 
L 1984 4856 
z
" transform="scale(0.015625)"/>
       <path id="DejaVuSans-73" d="M 2834 3397 
L 2834 2853 
Q 2591 2978 2328 3040 
Q 2066 3103 1784 3103 
Q 1356 3103 1142 2972 
Q 928 2841 928 2578 
Q 928 2378 1081 2264 
Q 1234 2150 1697 2047 
L 1894 2003 
Q 2506 1872 2764 1633 
Q 3022 1394 3022 966 
Q 3022 478 2636 193 
Q 2250 -91 1575 -91 
Q 1294 -91 989 -36 
Q 684 19 347 128 
L 347 722 
Q 666 556 975 473 
Q 1284 391 1588 391 
Q 1994 391 2212 530 
Q 2431 669 2431 922 
Q 2431 1156 2273 1281 
Q 2116 1406 1581 1522 
L 1381 1569 
Q 847 1681 609 1914 
Q 372 2147 372 2553 
Q 372 3047 722 3315 
Q 1072 3584 1716 3584 
Q 2034 3584 2315 3537 
Q 2597 3491 2834 3397 
z
" transform="scale(0.015625)"/>
       <path id="DejaVuSans-29" d="M 513 4856 
L 1013 4856 
Q 1481 4119 1714 3412 
Q 1947 2706 1947 2009 
Q 1947 1309 1714 600 
Q 1481 -109 1013 -844 
L 513 -844 
Q 928 -128 1133 580 
Q 1338 1288 1338 2009 
Q 1338 2731 1133 3434 
Q 928 4138 513 4856 
z
" transform="scale(0.015625)"/>
      </defs>
      <use xlink:href="#DejaVuSans-74"/>
      <use xlink:href="#DejaVuSans-69" x="39.208984"/>
      <use xlink:href="#DejaVuSans-6d" x="66.992188"/>
      <use xlink:href="#DejaVuSans-65" x="164.404297"/>
      <use xlink:href="#DejaVuSans-28" x="225.927734"/>
      <use xlink:href="#DejaVuSans-73" x="264.941406"/>
      <use xlink:href="#DejaVuSans-29" x="317.041016"/>
     </g>
    </g>
   </g>
   <g id="matplotlib.axis_2">
    <g id="ytick_1">
     <g id="line2d_6">
      <defs>
       <path id="me0dd779d06" d="M 0 0 
L -3.5 0 
" style="stroke: #000000; stroke-width: 0.8"/>
      </defs>
      <g>
       <use xlink:href="#me0dd779d06" x="57.6" y="307.584" style="stroke: #000000; stroke-width: 0.8"/>
      </g>
     </g>
     <g id="text_7">
      <!-- 0 -->
      <g transform="translate(44.2375 311.383219)scale(0.1 -0.1)">
       <use xlink:href="#DejaVuSans-30"/>
      </g>
     </g>
    </g>
    <g id="ytick_2">
     <g id="line2d_7">
      <g>
       <use xlink:href="#me0dd779d06" x="57.6" y="263.232" style="stroke: #000000; stroke-width: 0.8"/>
      </g>
     </g>
     <g id="text_8">
      <!-- 50 -->
      <g transform="translate(37.875 267.031219)scale(0.1 -0.1)">
       <use xlink:href="#DejaVuSans-35"/>
       <use xlink:href="#DejaVuSans-30" x="63.623047"/>
      </g>
     </g>
    </g>
    <g id="ytick_3">
     <g id="line2d_8">
      <g>
       <use xlink:href="#me0dd779d06" x="57.6" y="218.88" style="stroke: #000000; stroke-width: 0.8"/>
      </g>
     </g>
     <g id="text_9">
      <!-- 100 -->
      <g transform="translate(31.5125 222.679219)scale(0.1 -0.1)">
       <use xlink:href="#DejaVuSans-31"/>
       <use xlink:href="#DejaVuSans-30" x="63.623047"/>
       <use xlink:href="#DejaVuSans-30" x="127.246094"/>
      </g>
     </g>
    </g>
    <g id="ytick_4">
     <g id="line2d_9">
      <g>
       <use xlink:href="#me0dd779d06" x="57.6" y="174.528" style="stroke: #000000; stroke-width: 0.8"/>
      </g>
     </g>
     <g id="text_10">
      <!-- 150 -->
      <g transform="translate(31.5125 178.327219)scale(0.1 -0.1)">
       <use xlink:href="#DejaVuSans-31"/>
       <use xlink:href="#DejaVuSans-35" x="63.623047"/>
       <use xlink:href="#DejaVuSans-30" x="127.246094"/>
      </g>
     </g>
    </g>
    <g id="ytick_5">
     <g id="line2d_10">
      <g>
       <use xlink:href="#me0dd779d06" x="57.6" y="130.176" style="stroke: #000000; stroke-width: 0.8"/>
      </g>
     </g>
     <g id="text_11">
      <!-- 200 -->
      <g transform="translate(31.5125 133.975219)scale(0.1 -0.1)">
       <use xlink:href="#DejaVuSans-32"/>
       <use xlink:href="#DejaVuSans-30" x="63.623047"/>
       <use xlink:href="#DejaVuSans-30" x="127.246094"/>
      </g>
     </g>
    </g>
    <g id="ytick_6">
     <g id="line2d_11">
      <g>
       <use xlink:href="#me0dd779d06" x="57.6" y="85.824" style="stroke: #000000; stroke-width: 0.8"/>
      </g>
     </g>
     <g id="text_12">
      <!-- 250 -->
      <g transform="translate(31.5125 89.623219)scale(0.1 -0.1)">
       <use xlink:href="#DejaVuSans-32"/>
       <use xlink:href="#DejaVuSans-35" x="63.623047"/>
       <use xlink:href="#DejaVuSans-30" x="127.246094"/>
      </g>
     </g>
    </g>
    <g id="ytick_7">
     <g id="line2d_12">
      <g>
       <use xlink:href="#me0dd779d06" x="57.6" y="41.472" style="stroke: #000000; stroke-width: 0.8"/>
      </g>
     </g>
     <g id="text_13">
      <!-- 300 -->
      <g transform="translate(31.5125 45.271219)scale(0.1 -0.1)">
       <defs>
        <path id="DejaVuSans-33" d="M 2597 2516 
Q 3050 2419 3304 2112 
Q 3559 1806 3559 1356 
Q 3559 666 3084 287 
Q 2609 -91 1734 -91 
Q 1441 -91 1130 -33 
Q 819 25 488 141 
L 488 750 
Q 750 597 1062 519 
Q 1375 441 1716 441 
Q 2309 441 2620 675 
Q 2931 909 2931 1356 
Q 2931 1769 2642 2001 
Q 2353 2234 1838 2234 
L 1294 2234 
L 1294 2753 
L 1863 2753 
Q 2328 2753 2575 2939 
Q 2822 3125 2822 3475 
Q 2822 3834 2567 4026 
Q 2313 4219 1838 4219 
Q 1578 4219 1281 4162 
Q 984 4106 628 3988 
L 628 4550 
Q 988 4650 1302 4700 
Q 1616 4750 1894 4750 
Q 2613 4750 3031 4423 
Q 3450 4097 3450 3541 
Q 3450 3153 3228 2886 
Q 3006 2619 2597 2516 
z
" transform="scale(0.015625)"/>
       </defs>
       <use xlink:href="#DejaVuSans-33"/>
       <use xlink:href="#DejaVuSans-30" x="63.623047"/>
       <use xlink:href="#DejaVuSans-30" x="127.246094"/>
      </g>
     </g>
    </g>
    <g id="text_14">
     <!-- Mbps -->
     <g transform="translate(25.432812 187.795187)rotate(-90)scale(0.1 -0.1)">
      <defs>
       <path id="DejaVuSans-4d" d="M 628 4666 
L 1569 4666 
L 2759 1491 
L 3956 4666 
L 4897 4666 
L 4897 0 
L 4281 0 
L 4281 4097 
L 3078 897 
L 2444 897 
L 1241 4097 
L 1241 0 
L 628 0 
L 628 4666 
z
" transform="scale(0.015625)"/>
       <path id="DejaVuSans-62" d="M 3116 1747 
Q 3116 2381 2855 2742 
Q 2594 3103 2138 3103 
Q 1681 3103 1420 2742 
Q 1159 2381 1159 1747 
Q 1159 1113 1420 752 
Q 1681 391 2138 391 
Q 2594 391 2855 752 
Q 3116 1113 3116 1747 
z
M 1159 2969 
Q 1341 3281 1617 3432 
Q 1894 3584 2278 3584 
Q 2916 3584 3314 3078 
Q 3713 2572 3713 1747 
Q 3713 922 3314 415 
Q 2916 -91 2278 -91 
Q 1894 -91 1617 61 
Q 1341 213 1159 525 
L 1159 0 
L 581 0 
L 581 4863 
L 1159 4863 
L 1159 2969 
z
" transform="scale(0.015625)"/>
       <path id="DejaVuSans-70" d="M 1159 525 
L 1159 -1331 
L 581 -1331 
L 581 3500 
L 1159 3500 
L 1159 2969 
Q 1341 3281 1617 3432 
Q 1894 3584 2278 3584 
Q 2916 3584 3314 3078 
Q 3713 2572 3713 1747 
Q 3713 922 3314 415 
Q 2916 -91 2278 -91 
Q 1894 -91 1617 61 
Q 1341 213 1159 525 
z
M 3116 1747 
Q 3116 2381 2855 2742 
Q 2594 3103 2138 3103 
Q 1681 3103 1420 2742 
Q 1159 2381 1159 1747 
Q 1159 1113 1420 752 
Q 1681 391 2138 391 
Q 2594 391 2855 752 
Q 3116 1113 3116 1747 
z
" transform="scale(0.015625)"/>
      </defs>
      <use xlink:href="#DejaVuSans-4d"/>
      <use xlink:href="#DejaVuSans-62" x="86.279297"/>
      <use xlink:href="#DejaVuSans-70" x="149.755859"/>
      <use xlink:href="#DejaVuSans-73" x="213.232422"/>
     </g>
    </g>
   </g>
   <g id="line2d_13">
    <path d="M 73.832727 297.49485 
L 73.982268 298.611224 
L 74.129339 303.997656 
L 74.423473 303.254768 
L 74.573671 304.379344 
L 74.723196 304.467359 
L 75.022072 302.731433 
L 75.178305 302.358258 
L 75.326175 305.186054 
L 75.474493 302.137144 
L 75.623142 304.600217 
L 75.770252 302.407624 
L 75.917603 302.276834 
L 76.064863 299.072029 
L 76.211902 301.29048 
L 76.359055 301.800243 
L 76.50606 299.213129 
L 76.801499 302.762276 
L 76.952458 303.874983 
L 77.101843 301.706972 
L 77.248914 304.124261 
L 77.396706 299.135985 
L 77.546191 302.971874 
L 77.693471 303.062489 
L 77.841044 299.984561 
L 77.990573 303.305563 
L 78.138815 301.545227 
L 78.285927 301.343662 
L 78.433191 302.050348 
L 78.580325 292.742974 
L 78.727918 294.740279 
L 78.875034 300.077442 
L 79.022376 299.224825 
L 79.169352 284.136976 
L 79.316524 301.48659 
L 79.464665 291.186619 
L 79.611745 303.769329 
L 79.760685 303.013758 
L 79.908105 304.006773 
L 80.203551 294.426995 
L 80.350618 295.386682 
L 80.497703 294.905577 
L 80.645048 296.391065 
L 80.792669 291.551632 
L 81.088592 300.719575 
L 81.235974 297.353334 
L 81.385563 301.960088 
L 81.532994 302.309848 
L 81.681019 301.222882 
L 81.82811 302.221059 
L 81.975388 301.926916 
L 82.272129 297.664784 
L 82.419159 299.621328 
L 82.567064 304.026909 
L 83.013869 301.147569 
L 83.16305 303.87064 
L 83.310263 302.075373 
L 83.457784 287.588248 
L 83.608672 301.373053 
L 83.759366 301.847347 
L 83.90676 300.657837 
L 84.054534 294.056921 
L 84.201622 292.685158 
L 84.349475 297.89016 
L 84.497277 293.639481 
L 84.644728 302.170612 
L 84.792099 300.950935 
L 84.93942 303.269834 
L 85.08797 300.651908 
L 85.235008 294.41562 
L 85.384083 301.540686 
L 85.53538 297.608032 
L 85.682726 304.653608 
L 85.830426 300.710156 
L 85.978392 304.616147 
L 86.125464 297.672484 
L 86.272471 298.451291 
L 86.569439 302.860226 
L 86.717891 304.406107 
L 86.865435 302.614561 
L 87.162609 305.250345 
L 87.45799 302.804177 
L 87.754075 301.026041 
L 87.901281 295.795841 
L 88.049852 296.796057 
L 88.198161 302.493679 
L 88.492709 302.022257 
L 88.640174 303.807349 
L 88.934456 301.470307 
L 89.082009 298.642309 
L 89.229104 290.08525 
L 89.525374 301.582293 
L 89.672794 302.737447 
L 89.968092 305.724795 
L 90.116078 304.699164 
L 90.410421 299.727419 
L 90.557569 304.066541 
L 90.704603 300.149615 
L 90.851622 300.489311 
L 90.998705 301.997223 
L 91.145696 300.210729 
L 91.444243 301.680219 
L 91.591699 301.583717 
L 91.88585 299.556376 
L 92.032864 296.946924 
L 92.180048 287.978412 
L 92.327028 299.368706 
L 92.475586 298.334905 
L 92.623153 300.351742 
L 92.771289 300.367425 
L 93.067218 298.127101 
L 93.214258 301.08998 
L 93.361263 299.667066 
L 93.660525 299.080358 
L 93.954737 302.600772 
L 94.103301 300.903927 
L 94.252748 301.638451 
L 94.548721 300.855238 
L 94.842846 291.825756 
L 95.137335 298.783343 
L 95.284611 295.827624 
L 95.431611 297.558487 
L 95.581638 285.50262 
L 95.875761 303.430189 
L 96.02496 305.070541 
L 96.173798 301.463448 
L 96.328937 305.618853 
L 96.476397 304.501353 
L 96.623445 302.263742 
L 96.772941 304.365149 
L 97.069543 302.686696 
L 97.221619 299.253113 
L 97.368775 303.789319 
L 97.522749 304.800109 
L 97.670432 304.85644 
L 97.819998 304.22628 
L 97.981488 302.803267 
L 98.129289 305.105926 
L 98.283627 299.37611 
L 98.431723 300.636627 
L 98.578871 300.21969 
L 98.727708 305.866978 
L 98.877727 303.609991 
L 99.034259 293.545012 
L 99.336341 306.082865 
L 99.488623 302.085196 
L 99.637802 305.032148 
L 99.931928 298.323385 
L 100.07947 305.073402 
L 100.231186 305.405764 
L 100.38148 304.068875 
L 100.533758 304.950883 
L 100.680865 307.055189 
L 100.98243 304.563429 
L 101.133584 304.229691 
L 101.28132 301.285754 
L 101.43317 301.487887 
L 101.583215 299.765389 
L 101.731124 303.617949 
L 101.878126 303.889198 
L 102.174756 295.106855 
L 102.32195 295.201055 
L 102.471466 303.143463 
L 102.622238 300.802172 
L 102.770055 300.462748 
L 102.917796 301.273083 
L 103.067068 303.062975 
L 103.215645 301.226529 
L 103.365099 304.859346 
L 103.810338 295.957137 
L 103.958762 302.528303 
L 104.106291 302.817273 
L 104.253801 302.381532 
L 104.402713 304.731329 
L 104.550392 304.104503 
L 104.844429 291.694851 
L 104.992073 305.335843 
L 105.139764 304.454783 
L 105.287031 298.574341 
L 105.434095 280.965685 
L 105.581308 279.956811 
L 105.728292 235.464735 
L 105.876392 258.948333 
L 106.024251 300.637616 
L 106.171346 302.553909 
L 106.46704 300.761059 
L 106.617212 304.612852 
L 106.911874 299.489345 
L 107.058862 292.069525 
L 107.205841 291.715408 
L 107.353698 295.852661 
L 107.509788 293.193872 
L 107.658058 296.186277 
L 107.806465 304.70093 
L 107.956305 302.889047 
L 108.103513 303.668453 
L 108.251239 300.513971 
L 108.398727 304.233189 
L 108.5466 299.846675 
L 108.694578 300.63924 
L 108.842967 298.185416 
L 108.990225 287.828851 
L 109.295848 303.143518 
L 109.443337 299.675083 
L 109.590553 299.902953 
L 109.738174 299.399786 
L 109.885447 299.89338 
L 110.032534 301.177194 
L 110.182979 293.169724 
L 110.330396 296.138857 
L 110.625836 305.421006 
L 110.782518 301.608425 
L 110.931465 303.192016 
L 111.078474 299.480417 
L 111.226983 303.15321 
L 111.531951 300.67457 
L 111.679113 303.825834 
L 111.82612 301.482469 
L 111.97325 295.015776 
L 112.120478 295.582971 
L 112.269837 303.063002 
L 112.570982 277.414472 
L 112.720698 292.221719 
L 113.170006 296.239705 
L 113.320327 305.773896 
L 113.61632 302.082908 
L 113.764072 304.125823 
L 113.912014 303.715698 
L 114.063027 296.21719 
L 114.212508 302.243318 
L 114.359498 302.875772 
L 114.510445 304.791544 
L 114.657439 303.432469 
L 114.804486 303.733008 
L 114.951878 295.00306 
L 115.099006 294.960021 
L 115.247687 304.038852 
L 115.397942 304.254791 
L 115.544961 295.576354 
L 115.692162 295.372763 
L 115.988771 306.007424 
L 116.285042 303.039344 
L 116.432027 293.886367 
L 116.580387 300.843306 
L 116.732197 302.212905 
L 116.886504 301.660838 
L 117.183396 295.901825 
L 117.33134 301.351522 
L 117.478667 302.612675 
L 117.625768 301.083171 
L 117.77328 300.854587 
L 118.071659 296.751119 
L 118.367002 302.988061 
L 118.662917 298.618005 
L 118.819176 301.263719 
L 118.966968 300.443508 
L 119.116564 300.40552 
L 119.265071 300.881725 
L 119.560715 291.689787 
L 119.857611 302.610771 
L 120.005377 301.602233 
L 120.152837 288.913077 
L 120.299992 235.871964 
L 120.447048 300.8451 
L 120.747376 292.329279 
L 120.89651 299.999404 
L 121.04351 290.879954 
L 121.338581 302.853862 
L 121.489246 303.347002 
L 121.786479 292.055772 
L 121.933605 281.610519 
L 122.080897 280.163751 
L 122.228641 265.616587 
L 122.376048 286.481464 
L 122.671328 290.833189 
L 122.818507 298.35444 
L 122.96665 298.501859 
L 123.114198 294.674901 
L 123.26297 300.541905 
L 123.560847 288.21972 
L 123.708436 290.818476 
L 123.85548 295.987028 
L 124.007305 293.126811 
L 124.155845 296.876581 
L 124.303322 288.809287 
L 124.450382 299.734992 
L 124.598029 295.41431 
L 124.897334 300.789221 
L 125.04889 298.093521 
L 125.196196 300.168672 
L 125.344277 296.833214 
L 125.491255 298.214501 
L 125.638762 297.728824 
L 125.790331 302.61425 
L 125.937519 299.989413 
L 126.084746 292.228739 
L 126.234199 296.591036 
L 126.528393 279.283655 
L 126.67552 274.564533 
L 126.822633 282.20019 
L 126.969704 280.465805 
L 127.117375 263.268504 
L 127.269704 284.247922 
L 127.41677 286.007057 
L 127.564339 294.615229 
L 127.71135 294.890038 
L 127.858548 286.945904 
L 128.015418 290.458 
L 128.313296 284.679518 
L 128.613218 289.471847 
L 128.917613 301.057118 
L 129.06526 302.881969 
L 129.217336 296.448681 
L 129.366197 302.27432 
L 129.513406 302.668028 
L 129.662004 301.568784 
L 129.809418 303.566771 
L 129.956838 302.367033 
L 130.105074 297.689389 
L 130.253702 298.417996 
L 130.402967 300.400274 
L 130.550156 285.53901 
L 130.69743 297.034091 
L 130.84751 287.181191 
L 130.997587 287.757857 
L 131.146185 298.13148 
L 131.293658 299.649868 
L 131.440847 295.575531 
L 131.589299 298.439535 
L 131.736427 297.167994 
L 131.883742 290.779465 
L 132.030923 293.667622 
L 132.177907 293.025387 
L 132.325193 291.16003 
L 132.622298 293.83241 
L 132.76937 287.773345 
L 133.063865 301.371722 
L 133.212095 295.134689 
L 133.359972 299.912486 
L 133.50723 291.258841 
L 133.657478 293.146924 
L 133.804665 281.859702 
L 133.952679 291.197816 
L 134.103215 291.126054 
L 134.251253 301.102175 
L 134.402802 299.925459 
L 134.550258 272.829132 
L 134.697459 280.340638 
L 134.844592 265.951993 
L 134.992959 233.702572 
L 135.140034 241.497706 
L 135.287536 296.684059 
L 135.434881 298.868093 
L 135.729477 291.096227 
L 135.87647 292.549614 
L 136.023792 300.799273 
L 136.171272 294.673637 
L 136.320097 296.796376 
L 136.467198 293.905496 
L 136.614175 301.592986 
L 137.057133 289.435776 
L 137.205736 288.740683 
L 137.360238 300.829104 
L 137.659918 294.461656 
L 137.807092 299.98231 
L 137.95563 298.25521 
L 138.10276 285.287505 
L 138.251106 296.418039 
L 138.398243 296.749629 
L 138.5467 288.885224 
L 138.699861 301.785223 
L 138.849332 295.248653 
L 138.997068 296.510497 
L 139.144387 299.586868 
L 139.43879 289.647963 
L 139.587533 295.921222 
L 139.88179 295.616672 
L 140.033702 301.404395 
L 140.183247 295.534917 
L 140.331279 297.060255 
L 140.4786 299.996375 
L 140.626138 297.596388 
L 140.920285 235.783675 
L 141.067271 239.2975 
L 141.215726 260.01156 
L 141.364933 300.575704 
L 141.668327 287.516972 
L 141.81894 299.732233 
L 141.965998 278.535521 
L 142.117371 300.407054 
L 142.282201 300.555676 
L 142.429248 303.242198 
L 142.576803 301.649258 
L 142.876242 290.840332 
L 143.023582 293.539566 
L 143.320169 304.102158 
L 143.467303 297.6085 
L 143.61655 296.911237 
L 143.764825 287.613453 
L 143.912109 267.853965 
L 144.059669 291.040342 
L 144.207129 288.489273 
L 144.502527 302.757752 
L 144.807556 302.057327 
L 145.101691 297.350502 
L 145.249954 299.102825 
L 145.400561 304.879729 
L 145.550197 306.021725 
L 145.697269 304.02028 
L 145.84669 304.83836 
L 146.001236 303.938622 
L 146.148413 297.238198 
L 146.296349 304.213087 
L 146.593501 300.269658 
L 146.742845 300.622212 
L 146.89013 296.405732 
L 147.184647 299.020293 
L 147.331748 305.114494 
L 147.490692 303.955059 
L 147.647432 305.207082 
L 147.800982 302.088707 
L 147.948436 306.780609 
L 148.098484 300.829481 
L 148.260888 301.480018 
L 148.555189 300.61031 
L 148.84984 303.698705 
L 148.997138 290.015821 
L 149.295913 302.422272 
L 149.594498 286.000007 
L 149.74165 272.99508 
L 149.889391 281.455757 
L 150.036601 282.057931 
L 150.183645 289.269911 
L 150.330683 285.485129 
L 150.477675 286.781883 
L 150.625092 285.228025 
L 150.773835 291.517656 
L 150.921205 286.884539 
L 151.068224 295.399775 
L 151.215766 293.715747 
L 151.366005 290.311389 
L 151.814506 300.501171 
L 152.109311 294.444009 
L 152.258082 294.211978 
L 152.405057 290.376454 
L 152.554442 290.226305 
L 152.85689 300.918292 
L 153.00476 303.40964 
L 153.151833 301.225244 
L 153.298918 303.696342 
L 153.447399 303.789773 
L 153.595535 302.102712 
L 153.745474 301.690214 
L 153.894851 302.43269 
L 154.042631 295.848075 
L 154.194382 297.974198 
L 154.488491 289.220501 
L 154.783021 303.285749 
L 155.084673 301.373293 
L 155.231794 297.578531 
L 155.527733 304.619366 
L 155.674984 294.504658 
L 155.976485 304.007109 
L 156.12354 302.052043 
L 156.271543 305.399378 
L 156.424109 305.937106 
L 156.718632 302.564337 
L 156.865868 299.254486 
L 157.01351 300.220878 
L 157.160932 298.950472 
L 157.310896 296.001748 
L 157.461137 299.556029 
L 157.608687 260.811516 
L 157.755903 296.478794 
L 158.051333 306.114797 
L 158.349811 299.852431 
L 158.643982 283.219758 
L 158.793182 296.11975 
L 158.94017 294.627955 
L 159.08809 288.884198 
L 159.235425 291.201284 
L 159.38255 275.976166 
L 159.529767 300.070452 
L 159.6861 301.94976 
L 159.83837 298.683215 
L 159.985843 299.775251 
L 160.287103 289.866039 
L 160.434347 300.465762 
L 160.582944 295.20704 
L 160.731324 295.54163 
L 160.878337 293.334177 
L 161.026089 293.785963 
L 161.173186 282.984756 
L 161.468604 298.776382 
L 161.617504 297.839078 
L 161.764948 284.40889 
L 161.912547 299.719738 
L 162.062797 293.433844 
L 162.210111 295.329277 
L 162.528736 305.387741 
L 162.824021 293.914637 
L 162.971192 298.207227 
L 163.119053 287.923622 
L 163.267912 286.27411 
L 163.420353 302.478955 
L 163.567508 302.104252 
L 163.714934 300.728781 
L 164.305042 283.58088 
L 164.600491 305.782218 
L 164.898246 302.601316 
L 165.052984 305.311706 
L 165.200117 302.95907 
L 165.348773 295.1016 
L 165.656772 306.18202 
L 165.805571 304.79273 
L 165.954229 300.152015 
L 166.103142 300.21247 
L 166.398833 302.640376 
L 166.545984 294.878628 
L 166.693022 303.192421 
L 166.840381 301.662994 
L 167.295722 306.521202 
L 167.598315 305.746026 
L 167.89375 304.160185 
L 168.207222 306.057592 
L 168.361196 305.958626 
L 168.508632 304.64476 
L 168.659673 304.427834 
L 168.809365 303.108627 
L 168.960765 305.028584 
L 169.109254 302.574581 
L 169.256608 297.83693 
L 169.554092 305.180961 
L 169.712357 302.916085 
L 169.862683 305.376751 
L 170.023297 304.726632 
L 170.171792 301.092926 
L 170.319087 301.209367 
L 170.614359 305.139192 
L 170.76231 305.569492 
L 170.910305 303.521101 
L 171.059118 304.484945 
L 171.211997 304.054798 
L 171.359346 304.267309 
L 171.508127 302.914284 
L 171.656066 299.05731 
L 171.803303 278.152915 
L 171.951089 290.513453 
L 172.099237 284.911381 
L 172.24627 286.122387 
L 172.393355 284.81798 
L 172.542505 287.381631 
L 172.689625 285.547657 
L 172.84308 297.407743 
L 172.990057 295.575173 
L 173.13873 282.924424 
L 173.586473 303.767628 
L 173.734028 298.520814 
L 173.884167 303.576479 
L 174.033598 302.090501 
L 174.180751 302.160785 
L 174.330715 302.439553 
L 174.477812 301.944577 
L 174.625117 302.234881 
L 174.773119 296.981349 
L 175.067854 302.112137 
L 175.215246 298.637044 
L 175.3623 291.044406 
L 175.522802 300.289418 
L 175.669785 291.806068 
L 175.967001 301.819973 
L 176.263805 248.703569 
L 176.410795 239.566494 
L 176.557771 250.730036 
L 176.704756 207.089309 
L 176.851825 228.442529 
L 176.999751 300.605692 
L 177.154978 299.416207 
L 177.301976 300.767095 
L 177.449909 305.175312 
L 177.598255 302.123553 
L 177.89966 305.418933 
L 178.062162 305.372966 
L 178.209249 260.168283 
L 178.357439 270.292918 
L 178.505701 302.685545 
L 178.654322 302.176951 
L 178.804614 305.079166 
L 178.962672 301.52803 
L 179.26226 305.46041 
L 179.411005 301.523699 
L 179.558814 303.121428 
L 179.712339 302.600088 
L 179.860262 302.577138 
L 180.007364 299.792644 
L 180.158675 301.975017 
L 180.305872 298.836261 
L 180.458914 305.094342 
L 180.607188 305.219758 
L 180.760246 305.756741 
L 180.909121 303.546262 
L 181.057292 298.187327 
L 181.206601 298.944744 
L 181.353758 291.146068 
L 181.501 293.662378 
L 181.795229 267.119707 
L 182.090322 300.333096 
L 182.238184 299.590044 
L 182.385846 301.012172 
L 182.534943 299.901736 
L 182.681922 301.116958 
L 182.829026 296.628109 
L 182.977837 297.998369 
L 183.12557 297.684809 
L 183.421351 296.104232 
L 183.568355 287.258464 
L 183.715366 299.40629 
L 184.1584 304.178275 
L 184.310805 302.857281 
L 184.607377 305.142042 
L 184.75879 304.465505 
L 184.912911 305.011477 
L 185.063864 305.109249 
L 185.214978 304.499732 
L 185.366208 298.52167 
L 185.663402 304.542871 
L 185.810893 304.20682 
L 185.9586 302.052645 
L 186.105614 302.934284 
L 186.259226 294.863605 
L 186.40646 295.218715 
L 186.557012 303.983676 
L 186.707347 293.515374 
L 187.002603 303.915669 
L 187.157589 299.394327 
L 187.304896 300.419052 
L 187.452729 299.112972 
L 187.600074 305.982377 
L 187.749665 305.090167 
L 187.8974 303.31035 
L 188.196704 304.44863 
L 188.343824 301.509068 
L 188.641973 304.944602 
L 188.79112 283.394605 
L 188.938974 304.269603 
L 189.23404 299.46529 
L 189.381384 300.781386 
L 189.529502 295.07084 
L 189.676517 296.309056 
L 189.825399 298.642425 
L 189.972799 289.945784 
L 190.12379 299.618687 
L 190.270805 300.278888 
L 190.417887 298.306425 
L 190.565014 290.788467 
L 190.860213 303.953677 
L 191.007414 299.991785 
L 191.154989 299.892973 
L 191.304464 298.629013 
L 191.451525 292.414169 
L 191.598544 299.369353 
L 191.745595 298.364813 
L 191.900391 305.120294 
L 192.047971 291.349846 
L 192.195157 300.262892 
L 192.342772 293.200572 
L 192.493066 297.657447 
L 192.646765 297.28709 
L 192.793962 294.304338 
L 192.947274 300.059365 
L 193.095134 299.278626 
L 193.252216 301.805616 
L 193.402227 300.463545 
L 193.551254 302.673623 
L 193.699519 294.465515 
L 193.846554 303.597811 
L 193.993874 303.291912 
L 194.143107 302.533827 
L 194.438816 295.005312 
L 194.589299 297.31379 
L 194.883489 291.254293 
L 195.030652 294.303044 
L 195.180043 300.766753 
L 195.474742 292.95824 
L 195.622459 301.19902 
L 195.775272 303.093457 
L 195.935491 300.433071 
L 196.082686 303.257659 
L 196.386843 288.120965 
L 196.533906 297.14894 
L 196.836275 293.907006 
L 196.984104 288.573391 
L 197.132175 299.645512 
L 197.279531 300.553846 
L 197.5744 305.017724 
L 197.722345 304.661452 
L 197.876279 303.032737 
L 198.023325 299.344856 
L 198.174756 299.562719 
L 198.328237 298.066696 
L 198.479924 292.699617 
L 198.627619 296.245372 
L 198.776093 265.535595 
L 198.925181 298.93824 
L 199.073647 304.36321 
L 199.241134 305.664905 
L 199.388883 301.175845 
L 199.538423 303.603643 
L 199.687864 288.490896 
L 199.838535 300.829823 
L 199.985638 290.50122 
L 200.133471 296.164801 
L 200.280481 292.75798 
L 200.427495 299.675998 
L 200.574499 297.893442 
L 200.869816 286.720825 
L 201.165146 303.230181 
L 201.313027 300.159896 
L 201.463781 286.258 
L 201.61077 297.750979 
L 201.757857 291.579699 
L 201.904989 297.529575 
L 202.052305 289.3713 
L 202.200226 288.422162 
L 202.49525 299.057873 
L 202.936952 281.486534 
L 203.231417 285.578779 
L 203.378868 284.643984 
L 203.526056 291.604917 
L 203.821718 294.204683 
L 203.968696 286.239496 
L 204.115887 302.474596 
L 204.415709 299.951028 
L 204.563448 293.789238 
L 204.7116 298.508307 
L 205.00597 283.267627 
L 205.153358 293.001267 
L 205.300727 286.630284 
L 205.447831 295.354704 
L 205.596127 292.217171 
L 205.743202 244.621833 
L 206.038749 288.138102 
L 206.185968 285.621109 
L 206.333013 280.599255 
L 206.480069 229.688875 
L 206.627213 235.746114 
L 206.774258 229.187808 
L 206.921331 241.195687 
L 207.216748 297.785421 
L 207.364711 294.782781 
L 207.512584 288.679754 
L 207.659588 304.777736 
L 207.807 304.4498 
L 208.251247 300.645441 
L 208.552022 289.894156 
L 208.700856 294.603397 
L 209.143971 276.703795 
L 209.291032 280.677838 
L 209.586454 297.235043 
L 209.733967 293.361614 
L 210.028337 300.565283 
L 210.175444 291.116616 
L 210.325264 300.543095 
L 210.472423 298.590055 
L 210.619971 292.23977 
L 210.767087 297.76274 
L 210.914078 295.66583 
L 211.06296 295.425488 
L 211.210145 296.339551 
L 211.358537 294.897564 
L 211.505656 294.593163 
L 211.6537 301.916593 
L 211.954918 298.535189 
L 212.102744 292.739804 
L 212.250008 291.345676 
L 212.39713 292.614415 
L 212.544763 291.205153 
L 212.692853 292.255933 
L 212.842281 291.013984 
L 213.140336 302.460854 
L 213.305958 304.899526 
L 213.749326 296.636884 
L 213.896436 296.704543 
L 214.047679 302.590572 
L 214.194702 302.904931 
L 214.494654 299.581337 
L 214.641668 299.85671 
L 214.788718 299.719021 
L 214.937094 299.419386 
L 215.086254 299.515626 
L 215.2337 298.394862 
L 215.533248 303.856667 
L 215.680538 292.581201 
L 215.831109 302.781271 
L 216.132688 287.52096 
L 216.311287 295.448105 
L 216.458432 296.934547 
L 216.605427 304.828249 
L 216.902472 300.959145 
L 217.050028 303.432424 
L 217.19702 301.407222 
L 217.491406 283.992025 
L 217.638408 285.981055 
L 217.786167 284.230588 
L 217.934087 286.613881 
L 218.08253 282.441241 
L 218.229677 294.276237 
L 218.376682 293.856754 
L 218.523741 286.983124 
L 218.670754 289.389 
L 218.817741 274.483168 
L 219.112673 286.566453 
L 219.260349 278.501829 
L 219.408635 284.41219 
L 219.55567 285.120338 
L 219.704006 281.025579 
L 219.997966 288.667833 
L 220.145032 285.192009 
L 220.442717 294.656276 
L 220.886709 286.782389 
L 221.033762 293.819479 
L 221.475468 275.349799 
L 221.623022 285.409303 
L 221.770623 287.139144 
L 221.917668 274.847399 
L 222.21193 290.464058 
L 222.358922 292.52248 
L 222.506302 283.336003 
L 222.800506 288.542245 
L 222.947928 293.555975 
L 223.094979 290.563155 
L 223.242017 292.236336 
L 223.389455 288.624446 
L 223.536505 292.485534 
L 223.685117 287.014886 
L 223.832349 295.529285 
L 223.979419 286.565593 
L 224.126561 291.12124 
L 224.42153 289.082437 
L 224.569489 289.418272 
L 224.718386 288.04387 
L 224.865999 281.616337 
L 225.013191 282.109811 
L 225.162274 281.044499 
L 225.309495 278.953082 
L 225.457208 282.018132 
L 225.609411 288.005742 
L 225.903663 289.791221 
L 226.050644 289.317731 
L 226.197736 273.463859 
L 226.345421 288.906214 
L 226.492958 287.283018 
L 226.640552 284.233288 
L 226.792214 283.829729 
L 226.93925 279.292056 
L 227.086328 288.408553 
L 227.233347 287.202515 
L 227.532314 293.480618 
L 227.679398 284.583093 
L 227.973779 291.96595 
L 228.121333 288.247109 
L 228.268742 290.817281 
L 228.416639 286.899135 
L 228.564336 270.977377 
L 228.71196 286.596578 
L 228.85911 290.313292 
L 229.008306 288.38175 
L 229.156261 291.738732 
L 229.451213 280.151508 
L 229.598595 290.317153 
L 229.745678 289.953402 
L 229.895221 291.135036 
L 230.04247 279.496065 
L 230.189555 287.337326 
L 230.337143 278.173091 
L 230.484532 284.220493 
L 230.778582 277.653282 
L 231.07402 286.53796 
L 231.221199 250.303419 
L 231.368907 280.339279 
L 231.663685 296.915313 
L 231.958163 273.948651 
L 232.253233 288.017553 
L 232.400621 248.050813 
L 232.548446 289.137 
L 232.69611 291.244209 
L 232.843556 286.091015 
L 232.990538 287.317741 
L 233.138694 274.644515 
L 233.581625 290.783899 
L 233.87602 284.337733 
L 234.02333 227.661231 
L 234.32081 287.843923 
L 234.467961 283.275578 
L 234.615071 286.645502 
L 234.762265 284.129189 
L 234.909245 289.203906 
L 235.056355 283.36418 
L 235.3517 292.198611 
L 235.498696 288.235206 
L 235.645765 289.118281 
L 235.792819 237.553179 
L 235.939828 277.301145 
L 236.086942 285.289449 
L 236.381177 272.874633 
L 236.528533 258.483823 
L 236.675569 274.921606 
L 236.969657 280.991262 
L 237.116716 271.824623 
L 237.26389 280.657978 
L 237.410968 282.063851 
L 237.557993 282.262697 
L 237.7052 269.420384 
L 237.852773 287.465405 
L 237.999914 283.339922 
L 238.293863 194.08148 
L 238.440942 193.254048 
L 238.882931 287.105923 
L 239.177001 272.871055 
L 239.324346 286.991399 
L 239.471374 277.290603 
L 239.618355 244.1931 
L 239.765509 256.406163 
L 239.913719 296.778371 
L 240.060997 289.228463 
L 240.208107 288.91432 
L 240.355258 283.524527 
L 240.502326 289.116338 
L 240.653263 284.014018 
L 240.800442 289.74345 
L 240.948644 286.601259 
L 241.096465 279.864363 
L 241.393535 288.654191 
L 241.541649 287.8502 
L 241.688706 290.690858 
L 241.8359 280.802703 
L 242.130881 287.722622 
L 242.278047 289.284416 
L 242.425741 282.967229 
L 242.572915 291.122897 
L 242.720509 286.97113 
L 242.867576 287.951774 
L 243.014597 283.502985 
L 243.16209 288.783224 
L 243.309169 287.45128 
L 243.604733 290.37844 
L 243.751772 286.35033 
L 243.898793 272.37821 
L 244.045857 286.659102 
L 244.192905 273.538451 
L 244.33988 289.47827 
L 244.488192 289.858298 
L 244.637053 290.865107 
L 244.784063 289.47206 
L 244.931404 279.981935 
L 245.079084 282.197348 
L 245.226836 289.090531 
L 245.373867 286.198199 
L 245.521228 290.007493 
L 245.668973 286.130996 
L 245.815973 285.843955 
L 245.962964 290.939785 
L 246.109965 290.530642 
L 246.257213 281.62974 
L 246.40437 264.493673 
L 246.699571 291.827879 
L 246.847663 270.624901 
L 246.994823 289.982362 
L 247.289964 288.828569 
L 247.436974 287.273891 
L 247.58423 287.571241 
L 247.878303 285.187858 
L 248.026152 276.483118 
L 248.173791 291.491995 
L 248.322984 292.734796 
L 248.470229 285.255349 
L 248.618327 284.703857 
L 248.77031 289.162148 
L 248.917344 270.027767 
L 249.06812 277.472377 
L 249.215222 221.781579 
L 249.509483 284.269734 
L 249.657594 283.635367 
L 249.805223 288.851042 
L 249.952323 287.737752 
L 250.102436 288.122641 
L 250.543746 278.697472 
L 250.691208 280.325834 
L 250.985595 294.890335 
L 251.132573 300.829889 
L 251.431305 294.51854 
L 251.726051 292.843395 
L 251.873081 288.184056 
L 252.020367 288.058626 
L 252.168535 290.898097 
L 252.317086 281.802817 
L 252.464454 292.460705 
L 252.611996 292.074397 
L 252.759544 286.780528 
L 252.906576 285.577059 
L 253.053556 285.569069 
L 253.202675 288.00158 
L 253.351208 284.644307 
L 253.498316 289.079584 
L 253.645372 288.735007 
L 253.792364 280.912923 
L 253.939642 280.095572 
L 254.087318 286.691111 
L 254.23695 281.711004 
L 254.384033 286.84319 
L 254.5323 281.947102 
L 254.827108 286.554675 
L 254.974697 285.095967 
L 255.121842 289.037495 
L 255.268819 289.380391 
L 255.416005 281.018899 
L 255.713675 288.300967 
L 255.861725 291.110514 
L 256.008837 287.974764 
L 256.157303 288.634366 
L 256.452709 292.663698 
L 256.600006 290.491712 
L 256.7499 290.148298 
L 256.898075 290.40165 
L 257.045107 291.268549 
L 257.192454 286.862941 
L 257.339429 289.878771 
L 257.48692 281.356061 
L 257.635226 288.381306 
L 257.929328 283.127508 
L 258.07635 266.648179 
L 258.223448 271.503007 
L 258.370432 268.302583 
L 258.517583 267.872394 
L 258.814255 288.636948 
L 258.961456 286.265132 
L 259.108457 280.81905 
L 259.40287 291.288113 
L 259.550036 291.775344 
L 259.69715 273.150525 
L 259.845351 275.957762 
L 259.993735 291.235365 
L 260.140804 289.544429 
L 260.288003 278.63614 
L 260.582279 289.538274 
L 260.72927 285.249612 
L 260.876333 284.457051 
L 261.023414 284.386044 
L 261.317397 291.773404 
L 261.464432 280.056053 
L 261.612534 286.983277 
L 261.907148 281.634571 
L 262.054698 285.735452 
L 262.20187 285.280087 
L 262.496059 282.367377 
L 262.643308 282.265768 
L 262.792232 285.985149 
L 262.940358 285.192451 
L 263.087522 279.38551 
L 263.234634 280.865068 
L 263.381647 283.941217 
L 263.528658 275.056243 
L 263.679278 294.699576 
L 263.827452 295.789657 
L 263.975287 286.197428 
L 264.122432 295.185279 
L 264.273542 291.700415 
L 264.421878 296.664292 
L 264.721244 290.278161 
L 264.868612 288.985157 
L 265.01626 296.194941 
L 265.313373 288.337068 
L 265.609082 300.007243 
L 265.756642 293.480874 
L 265.90384 298.50227 
L 266.051901 298.38227 
L 266.199044 290.724 
L 266.350015 294.363768 
L 266.497004 285.49636 
L 266.647295 290.735339 
L 266.794278 284.618925 
L 267.089228 288.746386 
L 267.383555 283.062237 
L 267.679676 292.534788 
L 267.829161 292.416451 
L 267.976572 296.495207 
L 268.124639 289.351966 
L 268.271817 290.638461 
L 268.419003 288.899146 
L 268.714015 267.808531 
L 268.86102 264.536693 
L 269.008 266.089519 
L 269.155153 282.065292 
L 269.302755 273.043461 
L 269.449782 274.756754 
L 269.596914 272.422177 
L 269.744104 282.209839 
L 269.891197 281.137018 
L 270.042493 289.373449 
L 270.189585 278.309445 
L 270.337893 285.132378 
L 270.48568 279.8698 
L 270.63287 289.54332 
L 270.780164 290.02252 
L 270.927759 282.957275 
L 271.076612 288.153816 
L 271.224568 288.423369 
L 271.519072 284.340975 
L 271.666245 284.958476 
L 272.107456 292.893762 
L 272.25828 287.478186 
L 272.405881 290.543049 
L 272.553835 287.244761 
L 272.700835 289.018867 
L 272.847834 274.942943 
L 272.997075 290.122245 
L 273.144191 282.44193 
L 273.291428 287.626268 
L 273.438943 282.095187 
L 273.880373 247.55604 
L 274.028102 281.068282 
L 274.178074 273.84566 
L 274.325144 297.203296 
L 274.619157 292.804676 
L 274.771624 292.199108 
L 274.919676 288.552563 
L 275.067171 289.962536 
L 275.214212 285.094043 
L 275.511513 299.532617 
L 275.659581 292.730192 
L 275.807611 292.669311 
L 275.954815 282.288676 
L 276.102331 294.806588 
L 276.39752 271.283572 
L 276.54499 238.518861 
L 276.989546 293.151951 
L 277.139335 298.757316 
L 277.288153 298.58928 
L 277.436257 299.964976 
L 277.589151 299.868314 
L 277.736345 297.186121 
L 278.03037 283.208715 
L 278.177361 285.773968 
L 278.324384 279.227608 
L 278.47192 283.110815 
L 278.619902 277.274276 
L 278.768627 278.836172 
L 278.915614 284.048481 
L 279.062737 277.121042 
L 279.209989 281.038599 
L 279.357042 280.80528 
L 279.654077 278.059136 
L 279.801153 280.890648 
L 279.948153 279.313877 
L 280.242348 280.66614 
L 280.536925 284.191443 
L 280.68391 276.73714 
L 280.831019 281.709569 
L 280.979106 276.678673 
L 281.126238 278.788059 
L 281.273524 269.940009 
L 281.420721 268.010237 
L 281.568397 205.830818 
L 281.863987 274.887462 
L 282.011073 280.90462 
L 282.158067 276.517992 
L 282.307113 278.716586 
L 282.454235 273.959005 
L 282.601743 277.383909 
L 282.748885 274.738381 
L 282.895984 264.097653 
L 283.044559 275.492531 
L 283.338754 258.237952 
L 283.486057 253.841972 
L 283.633075 266.874478 
L 283.780053 268.555397 
L 283.927091 267.707011 
L 284.07509 272.3511 
L 284.223193 271.725265 
L 284.370198 266.752003 
L 284.517249 274.842079 
L 284.66467 271.009094 
L 284.811662 273.786236 
L 284.958669 264.965369 
L 285.105731 272.308794 
L 285.252917 273.983037 
L 285.400393 279.878759 
L 285.54903 279.000063 
L 285.69617 269.993937 
L 285.844626 268.937202 
L 285.991899 271.584218 
L 286.138911 261.755657 
L 286.28599 274.124753 
L 286.433048 258.1872 
L 286.580124 263.790121 
L 286.727279 255.779242 
L 287.021535 276.635075 
L 287.317766 281.511092 
L 287.612043 278.148265 
L 287.759309 285.262792 
L 287.906379 277.789437 
L 288.053653 278.963218 
L 288.200992 278.154631 
L 288.348234 273.510825 
L 288.497755 293.19276 
L 288.645892 296.997943 
L 288.793096 278.260711 
L 289.089218 282.212829 
L 289.384086 277.506394 
L 289.531296 279.161469 
L 289.678378 276.64935 
L 289.8256 261.420441 
L 289.972757 276.341683 
L 290.119861 279.340557 
L 290.266992 275.848306 
L 290.423229 285.637484 
L 290.570214 283.60778 
L 290.718145 290.162859 
L 291.012495 283.092083 
L 291.310624 290.038277 
L 291.752079 285.65999 
L 291.900171 287.785068 
L 292.04777 251.45123 
L 292.195014 284.949726 
L 292.490353 287.771795 
L 292.785815 283.224458 
L 292.933078 287.166511 
L 293.080142 281.224587 
L 293.229427 284.44399 
L 293.378411 272.943424 
L 293.672878 278.534206 
L 294.26214 287.511472 
L 294.409232 286.379201 
L 294.557043 299.229402 
L 294.704541 289.369729 
L 294.851644 295.335987 
L 294.998752 296.445069 
L 295.145735 289.539336 
L 295.294796 289.742112 
L 295.444126 290.683006 
L 295.738224 280.728987 
L 295.8853 293.965661 
L 296.033773 291.28507 
L 296.180921 292.089998 
L 296.330271 287.330083 
L 296.625414 292.144279 
L 296.774423 291.048441 
L 296.921682 289.138255 
L 297.070345 295.633537 
L 297.217646 290.162836 
L 297.364726 292.664734 
L 297.513224 287.309599 
L 297.811137 298.716605 
L 297.958291 292.037827 
L 298.105353 293.166137 
L 298.252332 290.000911 
L 298.40008 289.882414 
L 298.547124 293.723615 
L 298.694409 286.571228 
L 298.842721 290.481264 
L 299.141516 268.726329 
L 299.2885 294.333062 
L 299.582792 287.923829 
L 299.730036 287.617267 
L 299.877174 282.724615 
L 300.171436 281.263318 
L 300.319804 282.475198 
L 300.466888 284.97214 
L 300.614098 254.855187 
L 300.911354 289.179068 
L 301.058877 286.348864 
L 301.205955 285.410141 
L 301.352967 291.280338 
L 301.647803 288.064338 
L 301.795155 289.717399 
L 301.942217 285.646726 
L 302.090186 287.817816 
L 302.237587 287.63506 
L 302.385253 293.44713 
L 302.533819 291.551741 
L 302.68162 288.24388 
L 302.828914 296.117446 
L 302.980317 294.183651 
L 303.128353 287.991195 
L 303.275434 287.34382 
L 303.428484 297.622237 
L 303.575655 288.069039 
L 303.72469 287.841276 
L 303.871787 256.524028 
L 304.018807 280.877531 
L 304.165979 271.756623 
L 304.313111 288.718365 
L 304.460949 289.163899 
L 304.608036 285.889719 
L 304.755465 289.948829 
L 304.902643 289.151593 
L 305.049765 291.446293 
L 305.197898 289.571146 
L 305.64345 292.967422 
L 305.790574 281.256754 
L 306.084835 292.608564 
L 306.37995 288.485304 
L 306.531912 294.18021 
L 306.826766 285.762936 
L 307.122805 274.12212 
L 307.269853 286.896049 
L 307.564905 276.508546 
L 308.008941 291.395464 
L 308.155955 284.207616 
L 308.305915 295.122031 
L 308.452901 291.176604 
L 308.599938 290.812355 
L 308.747768 297.852785 
L 308.894774 284.132531 
L 309.04205 284.964758 
L 309.189104 290.109911 
L 309.483177 278.858267 
L 309.630609 284.469177 
L 309.778217 285.652308 
L 309.925423 281.013698 
L 310.072972 286.745748 
L 310.219979 283.175102 
L 310.367364 287.036626 
L 310.515581 285.747243 
L 310.664009 288.639941 
L 310.811047 284.791486 
L 311.105961 302.67774 
L 311.252989 283.116347 
L 311.548817 290.25136 
L 311.695996 276.151661 
L 311.990811 287.769536 
L 312.13812 272.484599 
L 312.43239 287.014075 
L 312.579456 285.330793 
L 312.727665 288.788184 
L 312.874972 275.439574 
L 313.02203 273.503971 
L 313.317082 292.601798 
L 313.46407 291.345602 
L 313.611418 284.22335 
L 313.905567 291.041174 
L 314.054855 281.887458 
L 314.201935 289.852151 
L 314.34895 291.711097 
L 314.496029 276.304983 
L 314.643523 289.443702 
L 314.79075 290.860266 
L 314.939112 293.411607 
L 315.086184 284.274686 
L 315.233199 267.392726 
L 315.528408 293.145873 
L 315.825536 289.799532 
L 315.97317 296.680242 
L 316.120321 291.516705 
L 316.268214 280.901613 
L 316.41529 290.489018 
L 316.56432 289.343796 
L 316.712 291.63482 
L 316.859701 291.863784 
L 317.0087 292.324005 
L 317.156865 291.906951 
L 317.304272 293.053832 
L 317.451295 290.417513 
L 317.598398 290.995428 
L 317.893985 295.745508 
L 318.040961 294.412458 
L 318.188211 284.814249 
L 318.336195 294.49756 
L 318.483768 294.01939 
L 318.778119 298.681402 
L 318.925179 277.622524 
L 319.07218 293.806543 
L 319.219896 292.284984 
L 319.366878 286.73935 
L 319.514502 287.403825 
L 319.662174 258.671468 
L 319.956235 289.070723 
L 320.104012 292.40425 
L 320.398959 282.433183 
L 320.693095 296.039459 
L 320.840227 295.727894 
L 320.988738 293.823606 
L 321.137038 295.451213 
L 321.287814 290.693388 
L 321.435999 290.448083 
L 321.730049 294.978823 
L 321.877501 292.171412 
L 322.030211 295.87747 
L 322.177267 295.111165 
L 322.327637 293.260039 
L 322.476427 287.886855 
L 322.62371 290.352747 
L 322.922595 284.678626 
L 323.217256 295.889024 
L 323.511993 286.587958 
L 323.659771 292.325634 
L 323.806881 292.931608 
L 324.101059 280.74917 
L 324.248142 283.025307 
L 324.395147 291.20438 
L 324.542869 286.342777 
L 324.837103 291.768679 
L 324.984086 285.141553 
L 325.131113 288.026506 
L 325.27809 283.733366 
L 325.425223 287.25125 
L 325.572837 285.130837 
L 325.721102 285.142561 
L 325.869038 282.089214 
L 326.164497 289.534844 
L 326.31179 289.096249 
L 326.60759 294.692448 
L 326.754695 291.034165 
L 326.902255 290.470889 
L 327.197714 296.225703 
L 327.344695 292.912895 
L 327.49194 283.50862 
L 327.785988 292.635915 
L 328.080005 289.26305 
L 328.227158 291.133071 
L 328.522119 287.977766 
L 328.670247 290.468311 
L 328.817231 287.07717 
L 328.964269 287.156391 
L 329.111361 282.1537 
L 329.258338 286.065765 
L 329.408547 277.669308 
L 329.555845 287.936408 
L 329.702905 275.766325 
L 329.851678 291.029027 
L 329.998739 285.046869 
L 330.14715 286.571319 
L 330.295043 280.71794 
L 330.443824 280.676543 
L 330.591136 282.928693 
L 330.738149 279.840563 
L 330.885497 281.450503 
L 331.032516 269.541295 
L 331.327115 277.292874 
L 331.474227 278.146719 
L 331.621763 289.39629 
L 331.768792 283.952408 
L 331.917858 283.425993 
L 332.06851 287.896998 
L 332.216058 283.010568 
L 332.36308 288.977676 
L 332.510211 283.223639 
L 332.657231 281.975626 
L 332.805921 282.419109 
L 332.953689 279.114481 
L 333.248121 291.71233 
L 333.396107 293.256406 
L 333.690846 282.754253 
L 333.985924 286.599943 
L 334.132933 283.04429 
L 334.279964 290.511863 
L 334.427244 287.828972 
L 334.574319 288.141914 
L 334.721544 291.927384 
L 334.868922 289.158554 
L 335.016057 288.691702 
L 335.163085 293.795018 
L 335.311164 291.259045 
L 335.462454 294.277439 
L 335.609678 287.913494 
L 335.756769 287.949909 
L 336.050913 283.375786 
L 336.202122 285.559014 
L 336.349126 289.8951 
L 336.496248 283.944768 
L 336.792121 294.062785 
L 336.939586 290.423919 
L 337.087016 294.82369 
L 337.235533 291.923938 
L 337.383211 283.496797 
L 337.53022 292.709861 
L 337.677465 292.814285 
L 337.824608 297.963379 
L 338.120637 292.685267 
L 338.267837 286.620617 
L 338.562048 297.831862 
L 338.856428 286.189873 
L 339.004089 288.818164 
L 339.15214 288.676932 
L 339.299141 292.681105 
L 339.448049 289.109092 
L 339.595151 291.39362 
L 339.742724 282.195809 
L 339.889778 282.353863 
L 340.626434 290.285055 
L 340.773459 289.767142 
L 340.920579 291.290363 
L 341.067887 284.391129 
L 341.21557 290.065265 
L 341.36272 289.946185 
L 341.509723 287.010684 
L 341.657743 287.719123 
L 341.806206 255.496079 
L 341.953213 282.829697 
L 342.100247 278.598571 
L 342.39441 283.538351 
L 342.541952 289.230769 
L 342.689437 280.385549 
L 342.984233 289.995046 
L 343.13134 288.367759 
L 343.278338 287.857292 
L 343.425414 287.754868 
L 343.572407 272.513961 
L 343.720585 283.331878 
L 343.86782 302.394722 
L 344.015824 301.647744 
L 344.312694 293.422681 
L 344.459735 239.175695 
L 344.606751 230.912317 
L 344.907739 291.991113 
L 345.055437 297.397984 
L 345.203745 296.072786 
L 345.350993 286.995396 
L 345.499223 285.593246 
L 345.793827 272.365309 
L 346.088286 273.948839 
L 346.235265 288.233223 
L 346.382556 275.94333 
L 346.676562 290.873054 
L 346.823555 274.106365 
L 346.971118 273.568631 
L 347.118907 285.817778 
L 347.266632 273.852157 
L 347.413733 280.570689 
L 347.560719 280.167963 
L 347.708266 272.273206 
L 347.85546 290.373201 
L 348.002652 291.105273 
L 348.297799 287.588666 
L 348.445615 289.823086 
L 348.592596 287.582002 
L 348.887593 291.24485 
L 349.183203 225.23841 
L 349.47838 287.603586 
L 349.625455 294.649526 
L 349.773251 290.701194 
L 349.920698 295.754534 
L 350.215047 290.929266 
L 350.362044 291.841275 
L 350.513374 293.758459 
L 350.809424 288.68273 
L 350.956498 288.042567 
L 351.103657 294.109946 
L 351.251587 285.880899 
L 351.549167 290.771771 
L 351.846651 294.190237 
L 351.993647 291.861349 
L 352.140707 293.279418 
L 352.288266 293.152131 
L 352.435909 289.33084 
L 352.583196 290.236299 
L 352.730205 292.137529 
L 353.024516 301.938778 
L 353.172044 299.498936 
L 353.319339 299.231205 
L 353.466421 294.320767 
L 353.613404 283.417249 
L 353.762018 300.143854 
L 353.914666 297.769803 
L 354.209253 278.733957 
L 354.356277 300.601963 
L 354.503291 304.241008 
L 354.662781 303.999646 
L 354.81013 294.339107 
L 354.957884 303.334464 
L 355.106318 304.468518 
L 355.403443 296.326467 
L 355.69847 300.380246 
L 355.993257 289.165649 
L 356.140665 295.407744 
L 356.436489 281.401807 
L 356.583755 282.499269 
L 356.730779 285.579342 
L 356.877923 286.292113 
L 357.320808 273.713219 
L 357.468058 226.937027 
L 357.615238 243.93757 
L 357.762365 285.501484 
L 357.90987 281.472296 
L 358.204469 287.08707 
L 358.351626 286.820834 
L 358.498607 288.523325 
L 358.646284 287.900713 
L 358.793909 281.43231 
L 359.235843 289.351797 
L 359.383527 286.456163 
L 359.531155 286.516077 
L 359.825187 279.671758 
L 359.973855 279.135658 
L 360.121163 280.969933 
L 360.415521 269.545859 
L 360.709837 279.633215 
L 360.858515 280.759945 
L 361.006575 283.560942 
L 361.155804 289.217592 
L 361.302842 288.202807 
L 361.597623 284.709073 
L 361.745113 286.076264 
L 362.0424 284.763904 
L 362.189592 286.843717 
L 362.337161 284.918258 
L 362.484184 290.064433 
L 362.778716 279.695954 
L 362.925702 280.747554 
L 363.220274 285.214003 
L 363.367275 285.723124 
L 363.51436 284.273739 
L 363.661338 279.552517 
L 363.808875 280.281706 
L 363.9562 278.845609 
L 364.10816 281.520777 
L 364.256368 280.371276 
L 364.404432 280.701717 
L 364.551535 271.431875 
L 364.84702 286.194284 
L 364.994051 283.341162 
L 365.141249 285.393496 
L 365.43547 282.623544 
L 365.729599 287.550442 
L 365.877105 285.284074 
L 366.024284 285.505233 
L 366.171288 280.377688 
L 366.318648 288.507372 
L 366.615655 276.666784 
L 366.7627 287.625431 
L 366.909789 274.88345 
L 367.058603 286.407213 
L 367.205702 288.192481 
L 367.352839 284.446496 
L 367.499828 289.091326 
L 367.646887 283.174848 
L 367.7941 290.102334 
L 368.235545 273.972452 
L 368.531158 286.601586 
L 368.678862 287.095674 
L 368.826272 286.640789 
L 368.97373 284.554403 
L 369.120881 275.210601 
L 369.267904 288.675048 
L 369.414912 287.150208 
L 369.709159 282.777615 
L 369.856283 284.414331 
L 370.004211 288.928951 
L 370.151241 285.954986 
L 370.298421 285.744147 
L 370.594086 285.083517 
L 370.741117 285.649224 
L 370.888218 282.452536 
L 371.331547 288.001693 
L 371.479409 283.419633 
L 371.627911 288.279658 
L 371.922451 272.336391 
L 372.216527 282.752371 
L 372.659149 278.146416 
L 372.955818 283.964694 
L 373.252062 275.501084 
L 373.547109 285.782197 
L 373.694194 279.786725 
L 373.841864 285.406801 
L 373.989041 280.875524 
L 374.136844 288.457188 
L 374.28384 287.662697 
L 374.430884 287.904058 
L 374.578195 279.622282 
L 374.873888 303.187714 
L 375.021073 299.298407 
L 375.168077 292.426184 
L 375.4664 296.878089 
L 375.910488 285.627855 
L 376.057618 288.451211 
L 376.204658 285.927141 
L 376.351822 290.397001 
L 376.498942 285.941069 
L 376.645964 292.047181 
L 376.793414 290.990603 
L 376.94049 288.662441 
L 377.090238 302.262357 
L 377.237241 292.250584 
L 377.385522 294.436559 
L 377.533341 288.332991 
L 377.684366 297.062993 
L 377.831992 299.156801 
L 377.978993 294.638391 
L 378.273262 278.443662 
L 378.4219 281.850768 
L 378.568976 279.842881 
L 378.715951 286.530343 
L 378.862978 286.110558 
L 379.010038 286.701964 
L 379.157186 293.361534 
L 379.306171 293.682455 
L 379.453218 293.690747 
L 379.601682 293.076658 
L 379.748909 291.670568 
L 379.897377 297.043697 
L 380.044539 286.683033 
L 380.339505 293.399302 
L 380.488087 286.461677 
L 380.635139 294.29593 
L 380.782201 294.993978 
L 380.929637 287.270067 
L 381.076859 287.759534 
L 381.372738 292.67772 
L 381.520032 287.052209 
L 381.667019 290.373771 
L 381.816204 297.236449 
L 382.110456 291.269283 
L 382.25877 297.77808 
L 382.406022 295.524958 
L 382.553407 284.039266 
L 382.700423 302.025911 
L 382.848367 296.925905 
L 382.997199 299.115589 
L 383.146057 295.149422 
L 383.444122 301.322543 
L 383.591775 300.480613 
L 384.036593 292.035679 
L 384.183907 277.401933 
L 384.332039 285.786379 
L 384.479155 281.778877 
L 384.62613 251.756032 
L 385.069144 285.683497 
L 385.216372 287.84491 
L 385.363927 282.436457 
L 385.511885 290.287584 
L 385.952968 277.671282 
L 386.247842 246.50641 
L 386.54217 287.861858 
L 386.689487 256.384517 
L 386.985506 288.692627 
L 387.132692 286.382684 
L 387.280286 286.900841 
L 387.427405 288.442245 
L 387.574491 286.666296 
L 387.721788 289.446188 
L 387.872338 289.299039 
L 388.019372 289.932393 
L 388.166766 300.249904 
L 388.461385 267.871124 
L 388.608565 268.622173 
L 388.755813 282.205329 
L 388.90296 278.180881 
L 389.04994 281.558279 
L 389.197008 287.813398 
L 389.491313 282.337605 
L 389.638452 281.331437 
L 389.785477 264.500638 
L 389.934013 281.021944 
L 390.081481 280.278023 
L 390.228935 284.794125 
L 390.37602 283.174234 
L 390.523013 283.751147 
L 390.670378 271.14186 
L 390.966527 287.829026 
L 391.113638 291.433873 
L 391.262788 287.355356 
L 391.409779 288.209937 
L 391.556781 287.224767 
L 391.850824 283.815529 
L 392.145838 289.372095 
L 392.293017 286.451842 
L 392.440205 272.649806 
L 392.587225 280.036117 
L 392.73551 271.737878 
L 392.882486 278.936197 
L 393.029691 275.861493 
L 393.323967 278.443277 
L 393.47148 277.013349 
L 393.621475 289.403196 
L 393.769107 281.514258 
L 393.91612 279.818101 
L 394.063508 286.955446 
L 394.210563 282.624531 
L 394.357634 286.105701 
L 394.651846 276.26447 
L 394.799002 282.341104 
L 394.946575 272.640332 
L 395.093625 270.407775 
L 395.241256 282.451969 
L 395.388296 275.930648 
L 395.536117 280.649205 
L 395.683946 276.895144 
L 395.833643 284.465677 
L 395.980703 280.640099 
L 396.127742 281.713783 
L 396.27482 284.925452 
L 396.569494 275.604806 
L 396.716801 277.128244 
L 397.012046 259.754222 
L 397.159091 275.13576 
L 397.306085 273.781161 
L 397.454331 281.113179 
L 397.6014 279.597344 
L 397.74866 274.811955 
L 397.89609 281.623368 
L 398.043447 277.636449 
L 398.191083 277.279094 
L 398.340298 268.533691 
L 398.487273 274.389903 
L 398.487273 274.389903 
" clip-path="url(#pa9ad9a2239)" style="fill: none; stroke: #1f77b4; stroke-width: 1.5; stroke-linecap: square"/>
   </g>
   <g id="patch_3">
    <path d="M 57.6 307.584 
L 57.6 41.472 
" style="fill: none; stroke: #000000; stroke-width: 0.8; stroke-linejoin: miter; stroke-linecap: square"/>
   </g>
   <g id="patch_4">
    <path d="M 414.72 307.584 
L 414.72 41.472 
" style="fill: none; stroke: #000000; stroke-width: 0.8; stroke-linejoin: miter; stroke-linecap: square"/>
   </g>
   <g id="patch_5">
    <path d="M 57.6 307.584 
L 414.72 307.584 
" style="fill: none; stroke: #000000; stroke-width: 0.8; stroke-linejoin: miter; stroke-linecap: square"/>
   </g>
   <g id="patch_6">
    <path d="M 57.6 41.472 
L 414.72 41.472 
" style="fill: none; stroke: #000000; stroke-width: 0.8; stroke-linejoin: miter; stroke-linecap: square"/>
   </g>
   <g id="text_15">
    <!-- pt12 link speed per 100ms -->
    <g transform="translate(155.608125 35.472)scale(0.12 -0.12)">
     <defs>
      <path id="DejaVuSans-20" transform="scale(0.015625)"/>
      <path id="DejaVuSans-6c" d="M 603 4863 
L 1178 4863 
L 1178 0 
L 603 0 
L 603 4863 
z
" transform="scale(0.015625)"/>
      <path id="DejaVuSans-6e" d="M 3513 2113 
L 3513 0 
L 2938 0 
L 2938 2094 
Q 2938 2591 2744 2837 
Q 2550 3084 2163 3084 
Q 1697 3084 1428 2787 
Q 1159 2491 1159 1978 
L 1159 0 
L 581 0 
L 581 3500 
L 1159 3500 
L 1159 2956 
Q 1366 3272 1645 3428 
Q 1925 3584 2291 3584 
Q 2894 3584 3203 3211 
Q 3513 2838 3513 2113 
z
" transform="scale(0.015625)"/>
      <path id="DejaVuSans-6b" d="M 581 4863 
L 1159 4863 
L 1159 1991 
L 2875 3500 
L 3609 3500 
L 1753 1863 
L 3688 0 
L 2938 0 
L 1159 1709 
L 1159 0 
L 581 0 
L 581 4863 
z
" transform="scale(0.015625)"/>
      <path id="DejaVuSans-64" d="M 2906 2969 
L 2906 4863 
L 3481 4863 
L 3481 0 
L 2906 0 
L 2906 525 
Q 2725 213 2448 61 
Q 2172 -91 1784 -91 
Q 1150 -91 751 415 
Q 353 922 353 1747 
Q 353 2572 751 3078 
Q 1150 3584 1784 3584 
Q 2172 3584 2448 3432 
Q 2725 3281 2906 2969 
z
M 947 1747 
Q 947 1113 1208 752 
Q 1469 391 1925 391 
Q 2381 391 2643 752 
Q 2906 1113 2906 1747 
Q 2906 2381 2643 2742 
Q 2381 3103 1925 3103 
Q 1469 3103 1208 2742 
Q 947 2381 947 1747 
z
" transform="scale(0.015625)"/>
      <path id="DejaVuSans-72" d="M 2631 2963 
Q 2534 3019 2420 3045 
Q 2306 3072 2169 3072 
Q 1681 3072 1420 2755 
Q 1159 2438 1159 1844 
L 1159 0 
L 581 0 
L 581 3500 
L 1159 3500 
L 1159 2956 
Q 1341 3275 1631 3429 
Q 1922 3584 2338 3584 
Q 2397 3584 2469 3576 
Q 2541 3569 2628 3553 
L 2631 2963 
z
" transform="scale(0.015625)"/>
     </defs>
     <use xlink:href="#DejaVuSans-70"/>
     <use xlink:href="#DejaVuSans-74" x="63.476562"/>
     <use xlink:href="#DejaVuSans-31" x="102.685547"/>
     <use xlink:href="#DejaVuSans-32" x="166.308594"/>
     <use xlink:href="#DejaVuSans-20" x="229.931641"/>
     <use xlink:href="#DejaVuSans-6c" x="261.71875"/>
     <use xlink:href="#DejaVuSans-69" x="289.501953"/>
     <use xlink:href="#DejaVuSans-6e" x="317.285156"/>
     <use xlink:href="#DejaVuSans-6b" x="380.664062"/>
     <use xlink:href="#DejaVuSans-20" x="438.574219"/>
     <use xlink:href="#DejaVuSans-73" x="470.361328"/>
     <use xlink:href="#DejaVuSans-70" x="522.460938"/>
     <use xlink:href="#DejaVuSans-65" x="585.9375"/>
     <use xlink:href="#DejaVuSans-65" x="647.460938"/>
     <use xlink:href="#DejaVuSans-64" x="708.984375"/>
     <use xlink:href="#DejaVuSans-20" x="772.460938"/>
     <use xlink:href="#DejaVuSans-70" x="804.248047"/>
     <use xlink:href="#DejaVuSans-65" x="867.724609"/>
     <use xlink:href="#DejaVuSans-72" x="929.248047"/>
     <use xlink:href="#DejaVuSans-20" x="970.361328"/>
     <use xlink:href="#DejaVuSans-31" x="1002.148438"/>
     <use xlink:href="#DejaVuSans-30" x="1065.771484"/>
     <use xlink:href="#DejaVuSans-30" x="1129.394531"/>
     <use xlink:href="#DejaVuSans-6d" x="1193.017578"/>
     <use xlink:href="#DejaVuSans-73" x="1290.429688"/>
    </g>
   </g>
  </g>
 </g>
 <defs>
  <clipPath id="pa9ad9a2239">
   <rect x="57.6" y="41.472" width="357.12" height="266.112"/>
  </clipPath>
 </defs>
</svg>
