<?xml version="1.0" encoding="utf-8" standalone="no"?>
<!DOCTYPE svg PUBLIC "-//W3C//DTD SVG 1.1//EN"
  "http://www.w3.org/Graphics/SVG/1.1/DTD/svg11.dtd">
<svg xmlns:xlink="http://www.w3.org/1999/xlink" width="460.8pt" height="345.6pt" viewBox="0 0 460.8 345.6" xmlns="http://www.w3.org/2000/svg" version="1.1">
 <metadata>
  <rdf:RDF xmlns:dc="http://purl.org/dc/elements/1.1/" xmlns:cc="http://creativecommons.org/ns#" xmlns:rdf="http://www.w3.org/1999/02/22-rdf-syntax-ns#">
   <cc:Work>
    <dc:type rdf:resource="http://purl.org/dc/dcmitype/StillImage"/>
    <dc:date>2022-07-10T05:02:19.453062</dc:date>
    <dc:format>image/svg+xml</dc:format>
    <dc:creator>
     <cc:Agent>
      <dc:title>Matplotlib v3.5.2, https://matplotlib.org/</dc:title>
     </cc:Agent>
    </dc:creator>
   </cc:Work>
  </rdf:RDF>
 </metadata>
 <defs>
  <style type="text/css">*{stroke-linejoin: round; stroke-linecap: butt}</style>
 </defs>
 <g id="figure_1">
  <g id="patch_1">
   <path d="M 0 345.6 
L 460.8 345.6 
L 460.8 0 
L 0 0 
z
" style="fill: #ffffff"/>
  </g>
  <g id="axes_1">
   <g id="patch_2">
    <path d="M 57.6 307.584 
L 414.72 307.584 
L 414.72 41.472 
L 57.6 41.472 
z
" style="fill: #ffffff"/>
   </g>
   <g id="matplotlib.axis_1">
    <g id="xtick_1">
     <g id="line2d_1">
      <defs>
       <path id="me061aebc02" d="M 0 0 
L 0 3.5 
" style="stroke: #000000; stroke-width: 0.8"/>
      </defs>
      <g>
       <use xlink:href="#me061aebc02" x="73.694016" y="307.584" style="stroke: #000000; stroke-width: 0.8"/>
      </g>
     </g>
     <g id="text_1">
      <!-- 0 -->
      <g transform="translate(70.512766 322.182437)scale(0.1 -0.1)">
       <defs>
        <path id="DejaVuSans-30" d="M 2034 4250 
Q 1547 4250 1301 3770 
Q 1056 3291 1056 2328 
Q 1056 1369 1301 889 
Q 1547 409 2034 409 
Q 2525 409 2770 889 
Q 3016 1369 3016 2328 
Q 3016 3291 2770 3770 
Q 2525 4250 2034 4250 
z
M 2034 4750 
Q 2819 4750 3233 4129 
Q 3647 3509 3647 2328 
Q 3647 1150 3233 529 
Q 2819 -91 2034 -91 
Q 1250 -91 836 529 
Q 422 1150 422 2328 
Q 422 3509 836 4129 
Q 1250 4750 2034 4750 
z
" transform="scale(0.015625)"/>
       </defs>
       <use xlink:href="#DejaVuSans-30"/>
      </g>
     </g>
    </g>
    <g id="xtick_2">
     <g id="line2d_2">
      <g>
       <use xlink:href="#me061aebc02" x="142.954698" y="307.584" style="stroke: #000000; stroke-width: 0.8"/>
      </g>
     </g>
     <g id="text_2">
      <!-- 50 -->
      <g transform="translate(136.592198 322.182437)scale(0.1 -0.1)">
       <defs>
        <path id="DejaVuSans-35" d="M 691 4666 
L 3169 4666 
L 3169 4134 
L 1269 4134 
L 1269 2991 
Q 1406 3038 1543 3061 
Q 1681 3084 1819 3084 
Q 2600 3084 3056 2656 
Q 3513 2228 3513 1497 
Q 3513 744 3044 326 
Q 2575 -91 1722 -91 
Q 1428 -91 1123 -41 
Q 819 9 494 109 
L 494 744 
Q 775 591 1075 516 
Q 1375 441 1709 441 
Q 2250 441 2565 725 
Q 2881 1009 2881 1497 
Q 2881 1984 2565 2268 
Q 2250 2553 1709 2553 
Q 1456 2553 1204 2497 
Q 953 2441 691 2322 
L 691 4666 
z
" transform="scale(0.015625)"/>
       </defs>
       <use xlink:href="#DejaVuSans-35"/>
       <use xlink:href="#DejaVuSans-30" x="63.623047"/>
      </g>
     </g>
    </g>
    <g id="xtick_3">
     <g id="line2d_3">
      <g>
       <use xlink:href="#me061aebc02" x="212.21538" y="307.584" style="stroke: #000000; stroke-width: 0.8"/>
      </g>
     </g>
     <g id="text_3">
      <!-- 100 -->
      <g transform="translate(202.67163 322.182437)scale(0.1 -0.1)">
       <defs>
        <path id="DejaVuSans-31" d="M 794 531 
L 1825 531 
L 1825 4091 
L 703 3866 
L 703 4441 
L 1819 4666 
L 2450 4666 
L 2450 531 
L 3481 531 
L 3481 0 
L 794 0 
L 794 531 
z
" transform="scale(0.015625)"/>
       </defs>
       <use xlink:href="#DejaVuSans-31"/>
       <use xlink:href="#DejaVuSans-30" x="63.623047"/>
       <use xlink:href="#DejaVuSans-30" x="127.246094"/>
      </g>
     </g>
    </g>
    <g id="xtick_4">
     <g id="line2d_4">
      <g>
       <use xlink:href="#me061aebc02" x="281.476062" y="307.584" style="stroke: #000000; stroke-width: 0.8"/>
      </g>
     </g>
     <g id="text_4">
      <!-- 150 -->
      <g transform="translate(271.932312 322.182437)scale(0.1 -0.1)">
       <use xlink:href="#DejaVuSans-31"/>
       <use xlink:href="#DejaVuSans-35" x="63.623047"/>
       <use xlink:href="#DejaVuSans-30" x="127.246094"/>
      </g>
     </g>
    </g>
    <g id="xtick_5">
     <g id="line2d_5">
      <g>
       <use xlink:href="#me061aebc02" x="350.736744" y="307.584" style="stroke: #000000; stroke-width: 0.8"/>
      </g>
     </g>
     <g id="text_5">
      <!-- 200 -->
      <g transform="translate(341.192994 322.182437)scale(0.1 -0.1)">
       <defs>
        <path id="DejaVuSans-32" d="M 1228 531 
L 3431 531 
L 3431 0 
L 469 0 
L 469 531 
Q 828 903 1448 1529 
Q 2069 2156 2228 2338 
Q 2531 2678 2651 2914 
Q 2772 3150 2772 3378 
Q 2772 3750 2511 3984 
Q 2250 4219 1831 4219 
Q 1534 4219 1204 4116 
Q 875 4013 500 3803 
L 500 4441 
Q 881 4594 1212 4672 
Q 1544 4750 1819 4750 
Q 2544 4750 2975 4387 
Q 3406 4025 3406 3419 
Q 3406 3131 3298 2873 
Q 3191 2616 2906 2266 
Q 2828 2175 2409 1742 
Q 1991 1309 1228 531 
z
" transform="scale(0.015625)"/>
       </defs>
       <use xlink:href="#DejaVuSans-32"/>
       <use xlink:href="#DejaVuSans-30" x="63.623047"/>
       <use xlink:href="#DejaVuSans-30" x="127.246094"/>
      </g>
     </g>
    </g>
    <g id="text_6">
     <!-- time(s) -->
     <g transform="translate(218.357656 335.860562)scale(0.1 -0.1)">
      <defs>
       <path id="DejaVuSans-74" d="M 1172 4494 
L 1172 3500 
L 2356 3500 
L 2356 3053 
L 1172 3053 
L 1172 1153 
Q 1172 725 1289 603 
Q 1406 481 1766 481 
L 2356 481 
L 2356 0 
L 1766 0 
Q 1100 0 847 248 
Q 594 497 594 1153 
L 594 3053 
L 172 3053 
L 172 3500 
L 594 3500 
L 594 4494 
L 1172 4494 
z
" transform="scale(0.015625)"/>
       <path id="DejaVuSans-69" d="M 603 3500 
L 1178 3500 
L 1178 0 
L 603 0 
L 603 3500 
z
M 603 4863 
L 1178 4863 
L 1178 4134 
L 603 4134 
L 603 4863 
z
" transform="scale(0.015625)"/>
       <path id="DejaVuSans-6d" d="M 3328 2828 
Q 3544 3216 3844 3400 
Q 4144 3584 4550 3584 
Q 5097 3584 5394 3201 
Q 5691 2819 5691 2113 
L 5691 0 
L 5113 0 
L 5113 2094 
Q 5113 2597 4934 2840 
Q 4756 3084 4391 3084 
Q 3944 3084 3684 2787 
Q 3425 2491 3425 1978 
L 3425 0 
L 2847 0 
L 2847 2094 
Q 2847 2600 2669 2842 
Q 2491 3084 2119 3084 
Q 1678 3084 1418 2786 
Q 1159 2488 1159 1978 
L 1159 0 
L 581 0 
L 581 3500 
L 1159 3500 
L 1159 2956 
Q 1356 3278 1631 3431 
Q 1906 3584 2284 3584 
Q 2666 3584 2933 3390 
Q 3200 3197 3328 2828 
z
" transform="scale(0.015625)"/>
       <path id="DejaVuSans-65" d="M 3597 1894 
L 3597 1613 
L 953 1613 
Q 991 1019 1311 708 
Q 1631 397 2203 397 
Q 2534 397 2845 478 
Q 3156 559 3463 722 
L 3463 178 
Q 3153 47 2828 -22 
Q 2503 -91 2169 -91 
Q 1331 -91 842 396 
Q 353 884 353 1716 
Q 353 2575 817 3079 
Q 1281 3584 2069 3584 
Q 2775 3584 3186 3129 
Q 3597 2675 3597 1894 
z
M 3022 2063 
Q 3016 2534 2758 2815 
Q 2500 3097 2075 3097 
Q 1594 3097 1305 2825 
Q 1016 2553 972 2059 
L 3022 2063 
z
" transform="scale(0.015625)"/>
       <path id="DejaVuSans-28" d="M 1984 4856 
Q 1566 4138 1362 3434 
Q 1159 2731 1159 2009 
Q 1159 1288 1364 580 
Q 1569 -128 1984 -844 
L 1484 -844 
Q 1016 -109 783 600 
Q 550 1309 550 2009 
Q 550 2706 781 3412 
Q 1013 4119 1484 4856 
L 1984 4856 
z
" transform="scale(0.015625)"/>
       <path id="DejaVuSans-73" d="M 2834 3397 
L 2834 2853 
Q 2591 2978 2328 3040 
Q 2066 3103 1784 3103 
Q 1356 3103 1142 2972 
Q 928 2841 928 2578 
Q 928 2378 1081 2264 
Q 1234 2150 1697 2047 
L 1894 2003 
Q 2506 1872 2764 1633 
Q 3022 1394 3022 966 
Q 3022 478 2636 193 
Q 2250 -91 1575 -91 
Q 1294 -91 989 -36 
Q 684 19 347 128 
L 347 722 
Q 666 556 975 473 
Q 1284 391 1588 391 
Q 1994 391 2212 530 
Q 2431 669 2431 922 
Q 2431 1156 2273 1281 
Q 2116 1406 1581 1522 
L 1381 1569 
Q 847 1681 609 1914 
Q 372 2147 372 2553 
Q 372 3047 722 3315 
Q 1072 3584 1716 3584 
Q 2034 3584 2315 3537 
Q 2597 3491 2834 3397 
z
" transform="scale(0.015625)"/>
       <path id="DejaVuSans-29" d="M 513 4856 
L 1013 4856 
Q 1481 4119 1714 3412 
Q 1947 2706 1947 2009 
Q 1947 1309 1714 600 
Q 1481 -109 1013 -844 
L 513 -844 
Q 928 -128 1133 580 
Q 1338 1288 1338 2009 
Q 1338 2731 1133 3434 
Q 928 4138 513 4856 
z
" transform="scale(0.015625)"/>
      </defs>
      <use xlink:href="#DejaVuSans-74"/>
      <use xlink:href="#DejaVuSans-69" x="39.208984"/>
      <use xlink:href="#DejaVuSans-6d" x="66.992188"/>
      <use xlink:href="#DejaVuSans-65" x="164.404297"/>
      <use xlink:href="#DejaVuSans-28" x="225.927734"/>
      <use xlink:href="#DejaVuSans-73" x="264.941406"/>
      <use xlink:href="#DejaVuSans-29" x="317.041016"/>
     </g>
    </g>
   </g>
   <g id="matplotlib.axis_2">
    <g id="ytick_1">
     <g id="line2d_6">
      <defs>
       <path id="mf33b5d17cf" d="M 0 0 
L -3.5 0 
" style="stroke: #000000; stroke-width: 0.8"/>
      </defs>
      <g>
       <use xlink:href="#mf33b5d17cf" x="57.6" y="307.584" style="stroke: #000000; stroke-width: 0.8"/>
      </g>
     </g>
     <g id="text_7">
      <!-- 0 -->
      <g transform="translate(44.2375 311.383219)scale(0.1 -0.1)">
       <use xlink:href="#DejaVuSans-30"/>
      </g>
     </g>
    </g>
    <g id="ytick_2">
     <g id="line2d_7">
      <g>
       <use xlink:href="#mf33b5d17cf" x="57.6" y="263.232" style="stroke: #000000; stroke-width: 0.8"/>
      </g>
     </g>
     <g id="text_8">
      <!-- 50 -->
      <g transform="translate(37.875 267.031219)scale(0.1 -0.1)">
       <use xlink:href="#DejaVuSans-35"/>
       <use xlink:href="#DejaVuSans-30" x="63.623047"/>
      </g>
     </g>
    </g>
    <g id="ytick_3">
     <g id="line2d_8">
      <g>
       <use xlink:href="#mf33b5d17cf" x="57.6" y="218.88" style="stroke: #000000; stroke-width: 0.8"/>
      </g>
     </g>
     <g id="text_9">
      <!-- 100 -->
      <g transform="translate(31.5125 222.679219)scale(0.1 -0.1)">
       <use xlink:href="#DejaVuSans-31"/>
       <use xlink:href="#DejaVuSans-30" x="63.623047"/>
       <use xlink:href="#DejaVuSans-30" x="127.246094"/>
      </g>
     </g>
    </g>
    <g id="ytick_4">
     <g id="line2d_9">
      <g>
       <use xlink:href="#mf33b5d17cf" x="57.6" y="174.528" style="stroke: #000000; stroke-width: 0.8"/>
      </g>
     </g>
     <g id="text_10">
      <!-- 150 -->
      <g transform="translate(31.5125 178.327219)scale(0.1 -0.1)">
       <use xlink:href="#DejaVuSans-31"/>
       <use xlink:href="#DejaVuSans-35" x="63.623047"/>
       <use xlink:href="#DejaVuSans-30" x="127.246094"/>
      </g>
     </g>
    </g>
    <g id="ytick_5">
     <g id="line2d_10">
      <g>
       <use xlink:href="#mf33b5d17cf" x="57.6" y="130.176" style="stroke: #000000; stroke-width: 0.8"/>
      </g>
     </g>
     <g id="text_11">
      <!-- 200 -->
      <g transform="translate(31.5125 133.975219)scale(0.1 -0.1)">
       <use xlink:href="#DejaVuSans-32"/>
       <use xlink:href="#DejaVuSans-30" x="63.623047"/>
       <use xlink:href="#DejaVuSans-30" x="127.246094"/>
      </g>
     </g>
    </g>
    <g id="ytick_6">
     <g id="line2d_11">
      <g>
       <use xlink:href="#mf33b5d17cf" x="57.6" y="85.824" style="stroke: #000000; stroke-width: 0.8"/>
      </g>
     </g>
     <g id="text_12">
      <!-- 250 -->
      <g transform="translate(31.5125 89.623219)scale(0.1 -0.1)">
       <use xlink:href="#DejaVuSans-32"/>
       <use xlink:href="#DejaVuSans-35" x="63.623047"/>
       <use xlink:href="#DejaVuSans-30" x="127.246094"/>
      </g>
     </g>
    </g>
    <g id="ytick_7">
     <g id="line2d_12">
      <g>
       <use xlink:href="#mf33b5d17cf" x="57.6" y="41.472" style="stroke: #000000; stroke-width: 0.8"/>
      </g>
     </g>
     <g id="text_13">
      <!-- 300 -->
      <g transform="translate(31.5125 45.271219)scale(0.1 -0.1)">
       <defs>
        <path id="DejaVuSans-33" d="M 2597 2516 
Q 3050 2419 3304 2112 
Q 3559 1806 3559 1356 
Q 3559 666 3084 287 
Q 2609 -91 1734 -91 
Q 1441 -91 1130 -33 
Q 819 25 488 141 
L 488 750 
Q 750 597 1062 519 
Q 1375 441 1716 441 
Q 2309 441 2620 675 
Q 2931 909 2931 1356 
Q 2931 1769 2642 2001 
Q 2353 2234 1838 2234 
L 1294 2234 
L 1294 2753 
L 1863 2753 
Q 2328 2753 2575 2939 
Q 2822 3125 2822 3475 
Q 2822 3834 2567 4026 
Q 2313 4219 1838 4219 
Q 1578 4219 1281 4162 
Q 984 4106 628 3988 
L 628 4550 
Q 988 4650 1302 4700 
Q 1616 4750 1894 4750 
Q 2613 4750 3031 4423 
Q 3450 4097 3450 3541 
Q 3450 3153 3228 2886 
Q 3006 2619 2597 2516 
z
" transform="scale(0.015625)"/>
       </defs>
       <use xlink:href="#DejaVuSans-33"/>
       <use xlink:href="#DejaVuSans-30" x="63.623047"/>
       <use xlink:href="#DejaVuSans-30" x="127.246094"/>
      </g>
     </g>
    </g>
    <g id="text_14">
     <!-- Mbps -->
     <g transform="translate(25.432812 187.795187)rotate(-90)scale(0.1 -0.1)">
      <defs>
       <path id="DejaVuSans-4d" d="M 628 4666 
L 1569 4666 
L 2759 1491 
L 3956 4666 
L 4897 4666 
L 4897 0 
L 4281 0 
L 4281 4097 
L 3078 897 
L 2444 897 
L 1241 4097 
L 1241 0 
L 628 0 
L 628 4666 
z
" transform="scale(0.015625)"/>
       <path id="DejaVuSans-62" d="M 3116 1747 
Q 3116 2381 2855 2742 
Q 2594 3103 2138 3103 
Q 1681 3103 1420 2742 
Q 1159 2381 1159 1747 
Q 1159 1113 1420 752 
Q 1681 391 2138 391 
Q 2594 391 2855 752 
Q 3116 1113 3116 1747 
z
M 1159 2969 
Q 1341 3281 1617 3432 
Q 1894 3584 2278 3584 
Q 2916 3584 3314 3078 
Q 3713 2572 3713 1747 
Q 3713 922 3314 415 
Q 2916 -91 2278 -91 
Q 1894 -91 1617 61 
Q 1341 213 1159 525 
L 1159 0 
L 581 0 
L 581 4863 
L 1159 4863 
L 1159 2969 
z
" transform="scale(0.015625)"/>
       <path id="DejaVuSans-70" d="M 1159 525 
L 1159 -1331 
L 581 -1331 
L 581 3500 
L 1159 3500 
L 1159 2969 
Q 1341 3281 1617 3432 
Q 1894 3584 2278 3584 
Q 2916 3584 3314 3078 
Q 3713 2572 3713 1747 
Q 3713 922 3314 415 
Q 2916 -91 2278 -91 
Q 1894 -91 1617 61 
Q 1341 213 1159 525 
z
M 3116 1747 
Q 3116 2381 2855 2742 
Q 2594 3103 2138 3103 
Q 1681 3103 1420 2742 
Q 1159 2381 1159 1747 
Q 1159 1113 1420 752 
Q 1681 391 2138 391 
Q 2594 391 2855 752 
Q 3116 1113 3116 1747 
z
" transform="scale(0.015625)"/>
      </defs>
      <use xlink:href="#DejaVuSans-4d"/>
      <use xlink:href="#DejaVuSans-62" x="86.279297"/>
      <use xlink:href="#DejaVuSans-70" x="149.755859"/>
      <use xlink:href="#DejaVuSans-73" x="213.232422"/>
     </g>
    </g>
   </g>
   <g id="line2d_13">
    <path d="M 73.832727 285.564517 
L 73.971362 277.714003 
L 74.110039 288.519428 
L 74.24867 280.355586 
L 74.388237 279.454035 
L 74.665383 271.741179 
L 74.804169 285.038105 
L 74.942883 287.576396 
L 75.081888 270.874631 
L 75.220569 287.467025 
L 75.359345 282.764165 
L 75.497875 296.236806 
L 75.636667 292.479878 
L 75.775192 294.634025 
L 75.914659 279.658758 
L 76.053327 283.033834 
L 76.19275 289.320058 
L 76.33182 281.160745 
L 76.61086 292.931002 
L 76.749509 291.59562 
L 77.028095 293.924618 
L 77.166662 288.404922 
L 77.447373 293.493365 
L 77.585935 293.048074 
L 77.726269 293.580566 
L 77.865141 281.11995 
L 78.144957 299.330648 
L 78.286936 282.966882 
L 78.425627 289.509592 
L 78.564271 290.176662 
L 78.702805 294.14101 
L 78.842341 291.306084 
L 78.981392 294.591358 
L 79.259666 290.789363 
L 79.537982 272.791958 
L 79.817043 290.100204 
L 80.095376 277.680795 
L 80.234021 285.223317 
L 80.372569 284.355859 
L 80.650325 292.524242 
L 80.789015 291.774531 
L 81.066306 295.228444 
L 81.205742 304.167872 
L 81.344411 299.418315 
L 81.482942 298.518313 
L 81.62249 298.394252 
L 81.761143 289.506227 
L 81.900674 299.544389 
L 82.180008 280.822521 
L 82.319988 303.313487 
L 82.458971 300.211587 
L 82.599744 300.825146 
L 82.7443 301.984062 
L 83.022512 300.337119 
L 83.164684 300.941637 
L 83.305292 297.296022 
L 83.58427 274.11635 
L 83.861364 284.581069 
L 83.999906 279.027953 
L 84.138938 284.95281 
L 84.278927 284.275001 
L 84.418714 279.645626 
L 84.557316 286.864692 
L 84.696412 284.649785 
L 84.835112 284.787044 
L 84.973651 290.548363 
L 85.112184 280.432551 
L 85.391381 288.765561 
L 85.530223 283.516871 
L 85.668899 290.08717 
L 85.807766 287.812276 
L 86.085234 277.321755 
L 86.363068 284.925305 
L 86.640721 286.4816 
L 86.779431 276.722638 
L 86.918982 276.61677 
L 87.057516 287.7806 
L 87.196153 286.005701 
L 87.334693 288.70755 
L 87.473235 285.96544 
L 87.612652 286.069789 
L 87.75332 291.045756 
L 87.891918 287.375823 
L 88.030776 287.992907 
L 88.171388 293.234073 
L 88.45303 288.526924 
L 88.591606 277.219398 
L 88.730362 276.602952 
L 88.86898 286.604034 
L 89.008582 282.738903 
L 89.147134 282.289177 
L 89.286309 285.166903 
L 89.424976 279.012253 
L 89.563697 279.593471 
L 89.702484 273.306587 
L 89.980114 285.232464 
L 90.257926 282.963403 
L 90.396605 286.375172 
L 90.535187 279.709579 
L 90.674008 279.185577 
L 91.229884 304.14 
L 91.372372 301.353023 
L 91.515608 290.014568 
L 91.654806 300.683007 
L 91.793468 291.752713 
L 91.932797 293.621392 
L 92.489897 287.249477 
L 92.629085 291.81438 
L 92.908844 288.227244 
L 93.18891 295.811443 
L 93.327975 288.328099 
L 93.468524 288.834159 
L 93.607119 286.343303 
L 93.749458 290.722419 
L 93.888011 288.350365 
L 94.168466 293.284948 
L 94.307005 290.04986 
L 94.584719 297.336604 
L 94.72395 293.63395 
L 94.862726 285.550664 
L 95.285945 300.317919 
L 95.425273 293.572068 
L 95.564772 294.447885 
L 95.703845 296.647875 
L 95.843201 296.84708 
L 96.121996 301.946774 
L 96.261962 301.439176 
L 96.543032 303.340138 
L 96.823153 297.702556 
L 96.961922 277.377386 
L 97.101784 280.24625 
L 97.379666 277.90331 
L 97.518307 285.333405 
L 97.659268 285.623438 
L 97.798504 288.733942 
L 97.937637 288.905748 
L 98.076386 288.121774 
L 98.215096 288.928352 
L 98.35402 292.106651 
L 98.492731 286.818794 
L 98.631388 267.411908 
L 98.774752 270.356566 
L 98.913439 287.211913 
L 99.191235 274.35974 
L 99.329942 268.814213 
L 99.468533 272.149894 
L 99.748173 239.491346 
L 99.886796 281.688008 
L 100.025509 282.201426 
L 100.164086 283.621876 
L 100.30416 280.290491 
L 100.442841 284.641021 
L 100.859396 269.961673 
L 101.275292 289.154902 
L 101.418174 284.964892 
L 101.560276 284.916093 
L 101.699493 285.257362 
L 101.838187 282.1984 
L 101.977702 290.391542 
L 102.116867 284.965476 
L 102.255442 284.13063 
L 102.534048 274.97479 
L 103.08989 296.002177 
L 103.370487 284.921195 
L 103.50901 285.516096 
L 103.650612 290.669226 
L 103.789213 289.736743 
L 103.928093 286.428661 
L 104.066698 287.340649 
L 104.20542 283.217475 
L 104.343964 289.406419 
L 104.624882 290.333995 
L 104.763913 286.330603 
L 105.042707 292.271312 
L 105.321495 286.847734 
L 105.460065 286.32825 
L 105.59873 287.721445 
L 105.737361 291.967766 
L 105.878242 286.370697 
L 106.157919 284.762735 
L 106.297808 289.086498 
L 106.437369 281.450392 
L 106.576151 287.425888 
L 106.994136 283.938701 
L 107.133445 285.039246 
L 107.272372 281.809131 
L 107.410961 283.440923 
L 107.97455 300.714269 
L 108.113623 289.834527 
L 108.252337 287.723116 
L 108.390888 282.026668 
L 108.529466 288.238485 
L 108.807503 281.182859 
L 108.94744 289.457807 
L 109.087794 284.69434 
L 109.370096 294.087815 
L 109.508906 293.899996 
L 109.649247 293.486471 
L 109.787846 288.904575 
L 109.926636 291.577179 
L 110.20384 289.666434 
L 110.344508 290.775015 
L 110.483081 289.749639 
L 110.761246 274.775004 
L 110.899964 274.423529 
L 111.039104 292.558382 
L 111.17981 291.659334 
L 111.460848 293.954805 
L 111.742143 291.52323 
L 111.881131 292.022422 
L 112.019806 290.48162 
L 112.158724 290.264747 
L 112.297985 283.421954 
L 112.437121 286.499899 
L 112.578174 286.724783 
L 112.717978 291.963639 
L 112.858275 288.991903 
L 112.996925 288.872062 
L 113.41287 284.86883 
L 113.551397 278.15122 
L 113.690033 282.906409 
L 113.828889 283.386031 
L 114.106175 278.217821 
L 114.244836 285.313076 
L 114.384031 281.14279 
L 114.661331 289.321839 
L 114.799889 289.815741 
L 115.077854 287.131116 
L 115.216856 289.040754 
L 115.35543 284.796005 
L 115.494203 285.122547 
L 115.632771 288.406275 
L 115.77146 288.810512 
L 115.910693 288.788037 
L 116.049243 288.585578 
L 116.188166 289.411545 
L 116.327383 288.658255 
L 116.466306 272.714676 
L 116.744172 287.606278 
L 116.882983 288.352027 
L 117.022021 287.694442 
L 117.160906 293.361036 
L 117.299655 286.463459 
L 117.438298 292.480484 
L 117.717387 281.934692 
L 117.994601 255.344884 
L 118.272939 285.941811 
L 118.411548 271.172667 
L 118.550644 285.585041 
L 118.689253 283.576862 
L 118.82789 285.929427 
L 118.966509 282.032622 
L 119.105065 287.10339 
L 119.384141 288.228724 
L 119.66195 286.517882 
L 119.800477 279.931225 
L 119.941144 282.933779 
L 120.079744 279.77908 
L 120.2195 286.395298 
L 120.358097 284.766531 
L 120.637962 286.403183 
L 121.055353 277.587012 
L 121.194262 285.548879 
L 121.332988 274.59601 
L 121.471542 273.514238 
L 121.610167 223.190898 
L 121.887412 283.441679 
L 122.026036 284.784997 
L 122.305443 276.521221 
L 122.444081 218.262842 
L 122.583097 276.454638 
L 122.721636 277.085272 
L 122.86034 275.662189 
L 123.000474 272.855441 
L 123.417796 292.694845 
L 123.556781 289.243246 
L 123.704059 299.489717 
L 123.843255 294.970162 
L 123.990008 300.707316 
L 124.129316 294.269567 
L 124.267895 298.543583 
L 124.411045 293.447147 
L 124.549583 299.962321 
L 124.688498 300.016263 
L 125.105413 275.50753 
L 125.38363 295.192465 
L 125.524901 283.721991 
L 125.667351 300.128648 
L 125.808111 301.310657 
L 125.949669 299.553858 
L 126.088496 299.473792 
L 126.369057 291.209309 
L 126.508677 302.849522 
L 126.791654 294.186356 
L 126.930915 301.859421 
L 127.069642 298.456744 
L 127.209157 298.095226 
L 127.486918 291.900799 
L 127.627888 298.078016 
L 127.766479 278.811478 
L 128.04425 286.958981 
L 128.185948 289.790866 
L 128.324649 257.683368 
L 128.463175 285.468895 
L 128.601862 279.160239 
L 128.741101 250.584602 
L 128.881105 262.53953 
L 129.020331 301.200759 
L 129.29795 288.33569 
L 129.57651 297.269847 
L 129.858078 250.431157 
L 129.999327 303.113519 
L 130.137967 289.472009 
L 130.278148 299.334748 
L 130.417599 300.914503 
L 130.697785 290.01847 
L 130.837441 294.019778 
L 130.976425 289.793324 
L 131.116715 302.331287 
L 131.255907 301.44062 
L 131.397588 290.213898 
L 131.677596 299.410069 
L 131.816156 300.159609 
L 132.09562 290.68891 
L 132.234999 299.681082 
L 132.37424 289.62254 
L 132.654373 300.075674 
L 132.794536 295.32444 
L 133.074858 303.268395 
L 133.213549 302.82881 
L 133.352077 297.538709 
L 133.494467 298.01394 
L 133.633579 303.529828 
L 134.05014 292.620747 
L 134.189216 282.973136 
L 134.327752 235.280922 
L 134.610207 304.37742 
L 134.751798 301.843052 
L 134.89364 301.844212 
L 135.310369 276.185816 
L 135.449023 284.061568 
L 135.595275 301.934683 
L 135.734646 303.841798 
L 135.87751 301.06492 
L 136.158179 301.201766 
L 136.298946 300.664915 
L 136.437836 301.818404 
L 136.577197 304.502985 
L 136.715862 302.224103 
L 136.854551 302.762521 
L 136.993394 288.486887 
L 137.135094 289.401612 
L 137.275533 303.341381 
L 137.414657 300.963451 
L 137.553756 295.790661 
L 137.692294 301.0065 
L 137.832242 299.808151 
L 137.972143 300.35728 
L 138.112087 303.975902 
L 138.250698 303.622196 
L 138.390817 305.419108 
L 138.674506 304.822336 
L 138.956211 298.459313 
L 139.234168 302.541546 
L 139.37285 303.317592 
L 139.651912 297.327614 
L 139.791856 303.94683 
L 139.937323 303.200676 
L 140.075917 300.646238 
L 140.353264 303.349985 
L 140.496401 302.920336 
L 140.775484 296.755608 
L 140.916689 300.657817 
L 141.056894 299.440119 
L 141.195621 285.128572 
L 141.334279 285.350425 
L 141.612228 296.92709 
L 141.891763 290.07755 
L 142.030646 283.89454 
L 142.169912 286.954593 
L 142.308449 287.542939 
L 142.451113 289.756773 
L 142.733207 301.230619 
L 143.011943 300.015811 
L 143.150778 296.340445 
L 143.428037 299.950451 
L 143.567494 298.28016 
L 143.851754 302.680015 
L 143.991701 297.432063 
L 144.132192 301.337626 
L 144.271999 301.467243 
L 144.414594 302.529469 
L 144.553138 301.187902 
L 144.692616 302.292518 
L 144.831322 293.566956 
L 144.971408 303.685934 
L 145.110416 296.018874 
L 145.249642 297.851276 
L 145.389507 301.362145 
L 145.529026 299.84926 
L 145.667657 255.711158 
L 145.946356 301.614248 
L 146.22383 296.896097 
L 146.362585 303.320525 
L 146.501125 298.041737 
L 146.639877 302.422596 
L 146.778765 302.242646 
L 147.057795 301.328567 
L 147.196426 291.035591 
L 147.335508 295.950075 
L 147.474147 295.104163 
L 147.752056 303.519811 
L 147.89091 301.520725 
L 148.172686 232.787919 
L 148.311737 298.00248 
L 148.450374 299.848582 
L 149.013912 293.594326 
L 149.431728 300.472723 
L 149.571408 302.493417 
L 149.710982 300.279166 
L 149.851462 300.36251 
L 149.990349 293.999975 
L 150.268363 302.82208 
L 150.546753 298.168424 
L 150.685628 300.181078 
L 150.824364 279.377143 
L 150.962956 304.392549 
L 151.382561 300.610597 
L 151.524214 303.601254 
L 151.662905 274.757643 
L 151.805383 302.567056 
L 151.943996 302.777657 
L 152.083418 304.206061 
L 152.222126 296.893477 
L 152.502092 305.077575 
L 152.781791 304.627986 
L 153.060675 298.957179 
L 153.338606 301.379745 
L 153.617117 300.451915 
L 153.756447 295.114066 
L 153.896043 300.534171 
L 154.03457 300.062612 
L 154.173682 297.060715 
L 154.312811 289.125658 
L 154.598998 301.089112 
L 154.739589 301.045733 
L 155.022048 296.862044 
L 155.160806 299.729648 
L 155.299399 296.135354 
L 155.438623 287.406912 
L 155.577925 297.605046 
L 155.717224 297.333873 
L 155.857944 291.703205 
L 156.137495 298.223683 
L 156.276117 294.546507 
L 156.415487 296.734297 
L 156.554386 294.804749 
L 156.833406 301.942146 
L 156.975505 301.418678 
L 157.114245 301.398597 
L 157.253064 301.026982 
L 157.393094 303.088393 
L 157.534602 298.657615 
L 157.674226 300.939962 
L 157.818636 295.339053 
L 157.957369 297.68532 
L 158.096446 293.360027 
L 158.234994 294.462873 
L 158.373564 292.158644 
L 158.512408 295.425005 
L 158.652107 295.069651 
L 158.790629 292.775334 
L 158.929637 295.048898 
L 159.208494 290.930465 
L 159.488571 294.419153 
L 159.765996 292.523887 
L 160.047427 296.953089 
L 160.186839 294.630903 
L 160.327516 294.420822 
L 160.466741 295.40178 
L 160.605575 293.766799 
L 160.746081 295.760404 
L 160.885723 294.960237 
L 161.02535 300.73149 
L 161.165043 301.02647 
L 161.306427 304.137684 
L 161.445092 298.468619 
L 161.584821 304.451466 
L 161.723519 299.033196 
L 161.865266 303.263633 
L 162.004171 298.905745 
L 162.143504 305.18057 
L 162.285213 303.819001 
L 162.43063 297.450683 
L 162.570165 303.826332 
L 162.848456 299.898898 
L 162.988737 293.754671 
L 163.12883 299.157835 
L 163.267828 297.62741 
L 163.40705 304.028709 
L 163.685145 298.794541 
L 163.82371 300.888135 
L 163.962419 304.909544 
L 164.102594 298.499191 
L 164.242895 298.146541 
L 164.382965 299.60249 
L 164.52235 296.224735 
L 164.664114 297.848742 
L 164.80274 296.143982 
L 164.941503 302.422011 
L 165.082935 302.716363 
L 165.223708 300.891206 
L 165.362306 291.200651 
L 165.500844 289.719467 
L 165.641731 291.470979 
L 165.920363 302.944281 
L 166.058905 300.010592 
L 166.197835 300.241723 
L 166.336401 297.304293 
L 166.47686 288.824142 
L 166.615726 288.805049 
L 166.894787 297.883997 
L 167.03484 295.36754 
L 167.17384 300.965741 
L 167.312446 298.813358 
L 167.451168 301.32312 
L 167.732199 300.564289 
L 167.871137 302.994508 
L 168.15346 291.209726 
L 168.292107 301.70866 
L 168.430719 302.640587 
L 168.56925 299.14427 
L 168.707867 302.873091 
L 168.849941 300.049894 
L 168.988762 302.798763 
L 169.12797 302.258815 
L 169.406411 295.674349 
L 169.545399 301.488006 
L 169.823165 297.879308 
L 169.970748 297.802575 
L 170.109278 301.167909 
L 170.249089 300.755807 
L 170.389768 298.851946 
L 170.529574 301.329588 
L 170.66886 301.177307 
L 170.810019 295.442352 
L 170.948785 294.575377 
L 171.087561 290.101202 
L 171.226099 291.969078 
L 171.36523 297.221668 
L 171.508876 293.616615 
L 171.786686 300.459212 
L 171.926729 296.998827 
L 172.066611 299.606619 
L 172.205191 298.198739 
L 172.344173 302.861946 
L 172.48276 294.478654 
L 172.623693 297.225729 
L 172.764712 285.671653 
L 172.907691 300.254129 
L 173.047153 302.319245 
L 173.325827 290.736985 
L 173.468953 299.889158 
L 173.612209 294.995878 
L 173.755926 299.032016 
L 173.899502 293.015382 
L 174.039357 293.677496 
L 174.179318 299.104618 
L 174.317946 296.668654 
L 174.457862 299.478879 
L 174.598101 298.080914 
L 174.739956 302.020438 
L 174.882079 302.573024 
L 175.021193 297.368143 
L 175.160918 304.416484 
L 175.30541 303.534288 
L 175.444456 304.031087 
L 175.584339 303.127503 
L 175.722887 304.148483 
L 175.861573 298.795524 
L 176.141444 305.149335 
L 176.560953 300.025951 
L 176.703521 301.523815 
L 176.842307 295.955014 
L 176.987883 296.660427 
L 177.127085 301.126344 
L 177.266311 299.676204 
L 177.406247 296.659782 
L 177.687937 304.500052 
L 177.829425 304.686998 
L 177.967958 303.72009 
L 178.10654 294.165195 
L 178.24515 301.865402 
L 178.525206 299.061509 
L 178.664294 300.085805 
L 178.806132 297.119121 
L 178.945207 299.159764 
L 179.08417 303.797707 
L 179.225416 304.608222 
L 179.365651 300.592344 
L 179.647107 304.484527 
L 179.924676 260.481802 
L 180.063273 251.95837 
L 180.343332 295.534202 
L 180.628259 299.091086 
L 180.767051 300.185087 
L 180.907218 299.639446 
L 181.049262 288.743175 
L 181.188704 291.747202 
L 181.330123 291.348693 
L 181.608892 300.988414 
L 181.748199 299.667373 
L 181.887378 289.052455 
L 182.025927 299.39653 
L 182.164595 298.719342 
L 182.305483 302.2556 
L 182.584857 291.102447 
L 182.723614 297.468778 
L 182.862459 296.437893 
L 183.001898 293.967226 
L 183.140422 298.512108 
L 183.557356 290.473221 
L 183.696904 292.659065 
L 183.974194 303.984349 
L 184.255607 300.081301 
L 184.395075 300.125502 
L 184.533736 299.268143 
L 184.811801 284.288266 
L 184.953093 301.825786 
L 185.104321 305.612424 
L 185.246559 299.839937 
L 185.391647 299.215776 
L 185.53327 299.212946 
L 185.671948 298.668181 
L 185.813194 296.752371 
L 186.090501 284.440713 
L 186.230059 277.853355 
L 186.369001 278.355436 
L 186.50776 283.052264 
L 186.646835 283.382291 
L 186.785463 281.522971 
L 186.924372 287.124764 
L 187.063246 281.062835 
L 187.201807 282.015722 
L 187.479125 279.108585 
L 187.618108 282.479619 
L 187.897301 294.567209 
L 188.041791 293.04184 
L 188.180339 237.91108 
L 188.457883 292.643027 
L 188.601424 285.770408 
L 188.743967 286.270368 
L 188.882509 288.906932 
L 189.021413 286.966225 
L 189.162088 303.781348 
L 189.301053 302.623066 
L 189.586896 303.639639 
L 189.865675 303.685662 
L 190.00971 299.209919 
L 190.289793 305.279479 
L 190.567722 301.605881 
L 190.707561 303.329887 
L 190.846418 302.323974 
L 190.985918 303.119255 
L 191.127358 304.864164 
L 191.26671 304.074512 
L 191.405333 304.390577 
L 191.544464 300.891348 
L 191.683849 303.705975 
L 191.822388 293.625925 
L 191.960992 304.11614 
L 192.24061 298.543089 
L 192.379414 297.873453 
L 192.518227 290.289431 
L 192.65685 289.944841 
L 192.79599 280.322679 
L 192.935407 281.89071 
L 193.075229 244.776109 
L 193.35351 302.413673 
L 193.492119 302.333096 
L 193.630771 298.851881 
L 193.770359 302.217822 
L 193.909131 302.228223 
L 194.047671 299.713664 
L 194.188962 302.17632 
L 194.328587 294.369575 
L 194.46735 300.98248 
L 194.744499 241.123155 
L 194.883091 257.73677 
L 195.022029 295.902116 
L 195.301029 302.111771 
L 195.440246 299.457479 
L 195.579691 293.330385 
L 195.718433 300.838246 
L 195.856985 296.598712 
L 195.998144 300.175486 
L 196.136754 298.706356 
L 196.275368 283.202472 
L 196.552956 293.638079 
L 196.692555 288.063065 
L 196.83125 300.271163 
L 196.969969 292.220625 
L 197.248545 300.750519 
L 197.387077 294.657951 
L 197.525752 297.815152 
L 197.664727 296.17211 
L 197.80796 288.977529 
L 198.085532 296.000368 
L 198.224739 297.734293 
L 198.363586 296.582761 
L 198.643702 302.125763 
L 198.920967 295.103811 
L 199.059511 297.237861 
L 199.198479 297.323013 
L 199.475993 279.848103 
L 199.75334 275.933296 
L 200.030779 282.134447 
L 200.169986 279.074647 
L 200.308685 280.042861 
L 200.447296 279.886267 
L 200.587741 286.574798 
L 200.728712 287.710657 
L 200.869613 289.76653 
L 201.008497 287.235231 
L 201.14733 288.838636 
L 201.286078 285.493884 
L 201.424663 298.932653 
L 201.563634 301.55217 
L 201.702333 291.307896 
L 201.842249 295.190609 
L 201.98157 291.300283 
L 202.260351 297.264487 
L 202.400805 300.70943 
L 202.540357 298.567168 
L 202.679234 304.463706 
L 202.817873 301.025836 
L 202.958596 301.794763 
L 203.097833 303.477212 
L 203.236381 299.875028 
L 203.375088 299.432885 
L 203.653567 303.857059 
L 203.792123 303.354035 
L 203.930841 304.018962 
L 204.070396 303.637892 
L 204.349759 299.583883 
L 204.489787 302.015182 
L 204.628707 302.105385 
L 204.767438 302.589625 
L 204.908971 303.604552 
L 205.04752 303.666356 
L 205.189114 301.16401 
L 205.328118 300.68552 
L 205.467346 300.783631 
L 205.605981 301.466186 
L 206.027597 306.65612 
L 206.168 300.360456 
L 206.306733 300.240637 
L 206.446929 299.454133 
L 206.72663 301.35862 
L 206.865463 299.648529 
L 207.004014 301.372262 
L 207.142575 297.005892 
L 207.281245 303.199849 
L 207.421236 301.690185 
L 207.560701 298.590766 
L 207.699588 300.438435 
L 207.838162 300.02539 
L 207.976776 295.033273 
L 208.115588 299.496538 
L 208.254331 298.84527 
L 208.395657 298.930057 
L 208.67399 304.205713 
L 208.813733 302.641244 
L 208.953973 303.422088 
L 209.093247 300.493198 
L 209.232829 300.203239 
L 209.371437 298.674255 
L 209.510062 289.183085 
L 209.791582 302.060167 
L 209.930205 303.286925 
L 210.069399 302.589186 
L 210.208306 302.856164 
L 210.349252 298.853924 
L 210.48779 303.68411 
L 210.626723 287.770327 
L 210.766708 285.571775 
L 210.905241 299.867954 
L 211.044144 301.405133 
L 211.184479 301.448095 
L 211.323567 296.960596 
L 211.462997 302.963092 
L 211.74098 290.423735 
L 211.879984 292.426683 
L 212.018549 290.501264 
L 212.157187 291.002609 
L 212.295785 293.278237 
L 212.434386 290.36414 
L 212.573361 284.122541 
L 212.712407 283.007563 
L 212.851811 282.978171 
L 212.990642 280.725309 
L 213.129323 283.823964 
L 213.268256 277.124399 
L 213.406855 285.616359 
L 213.54554 283.38929 
L 213.684168 277.876633 
L 213.962571 286.680825 
L 214.240266 285.553244 
L 214.379262 280.982157 
L 214.519983 293.115327 
L 214.658664 293.589853 
L 214.797943 292.246279 
L 214.936969 292.671377 
L 215.075511 296.114405 
L 215.214284 288.722776 
L 215.355454 291.072456 
L 215.632579 298.041355 
L 215.771703 297.402344 
L 216.05083 294.660998 
L 216.189743 288.055654 
L 216.328939 292.579045 
L 216.469062 292.105798 
L 216.607722 292.437809 
L 217.02425 290.310079 
L 217.163024 280.447621 
L 217.301684 279.040573 
L 217.441722 279.712383 
L 217.580775 283.590662 
L 217.720202 283.047949 
L 217.859204 286.580816 
L 218.136275 284.690183 
L 218.274889 280.940842 
L 218.413563 282.846815 
L 218.552117 293.274413 
L 218.830793 284.860426 
L 218.969359 289.871269 
L 219.107992 290.331987 
L 219.246702 279.650574 
L 219.524525 293.028057 
L 219.66342 291.899174 
L 219.801994 291.993837 
L 219.940873 290.715951 
L 220.079529 291.65409 
L 220.218069 290.262711 
L 220.357322 284.574113 
L 220.495888 286.716286 
L 220.634994 291.619115 
L 220.774393 289.918586 
L 220.913325 295.220565 
L 221.052041 291.233373 
L 221.190614 293.41428 
L 221.329284 288.077161 
L 221.468233 291.691806 
L 221.607126 289.068125 
L 221.885749 280.545223 
L 222.164652 293.7955 
L 222.304813 290.955531 
L 222.443764 280.29206 
L 222.582356 289.314563 
L 222.72122 287.748631 
L 222.859832 294.436641 
L 222.998452 291.680858 
L 223.137597 291.828175 
L 223.277616 294.231288 
L 223.416904 293.556792 
L 223.555747 293.612197 
L 223.694809 291.180291 
L 223.834172 282.494358 
L 223.973424 287.658331 
L 224.111976 281.119997 
L 224.251489 285.750571 
L 224.530345 284.806948 
L 224.807405 282.814705 
L 224.945997 290.978403 
L 225.084541 285.420344 
L 225.361629 287.832013 
L 225.500307 295.816027 
L 225.639735 278.587374 
L 225.779536 293.94893 
L 225.918284 291.452592 
L 226.056883 281.967023 
L 226.197904 292.187766 
L 226.337972 292.003786 
L 226.477019 287.871125 
L 226.61646 295.348253 
L 226.755343 293.535509 
L 226.894041 295.117227 
L 227.032633 290.395809 
L 227.171785 289.769549 
L 227.312006 292.006008 
L 227.450554 271.972055 
L 227.589219 273.796475 
L 227.728234 285.161019 
L 227.867078 282.483539 
L 228.005661 290.314753 
L 228.144294 280.164962 
L 228.282872 283.759779 
L 228.421476 269.798716 
L 228.560295 275.413912 
L 228.698954 267.249913 
L 228.837499 272.39756 
L 228.976844 273.066896 
L 229.115399 271.667947 
L 229.254512 265.560485 
L 229.393162 274.723319 
L 229.531746 273.35451 
L 229.670321 264.573257 
L 229.808861 273.04332 
L 229.947782 273.109158 
L 230.086392 263.779379 
L 230.225162 269.357948 
L 230.365126 280.193734 
L 230.643266 212.775019 
L 230.921353 280.32525 
L 231.060243 278.227725 
L 231.198896 279.474836 
L 231.337487 271.459338 
L 231.615261 280.765913 
L 231.753829 276.079995 
L 232.03308 283.4912 
L 232.172412 282.661267 
L 232.310997 277.282978 
L 232.590696 289.867298 
L 232.729237 286.912687 
L 232.868221 286.505517 
L 233.006848 273.436728 
L 233.145734 285.566135 
L 233.284281 280.768168 
L 233.423373 280.924344 
L 233.561921 287.185929 
L 233.701141 281.616119 
L 233.839757 290.220021 
L 233.978448 289.403696 
L 234.117694 291.069098 
L 234.2563 287.281469 
L 234.395896 277.810511 
L 234.534891 292.690499 
L 234.673516 288.323638 
L 234.812319 288.277123 
L 234.951035 290.394091 
L 235.090769 288.202327 
L 235.229612 288.361909 
L 235.368618 290.45761 
L 235.509696 276.419757 
L 235.648298 290.926199 
L 235.78826 291.19841 
L 235.926798 286.984069 
L 236.065487 287.571311 
L 236.204875 294.550699 
L 236.483057 289.13328 
L 236.621638 293.089478 
L 236.76018 282.142738 
L 236.898945 292.451191 
L 237.038 285.688018 
L 237.177668 292.042693 
L 237.316508 290.441629 
L 237.734027 275.212845 
L 237.872749 292.969424 
L 238.012551 293.407122 
L 238.151125 291.773163 
L 238.289868 291.618299 
L 238.428498 279.887295 
L 238.567033 289.248336 
L 238.705682 289.571135 
L 238.844261 291.806672 
L 238.98338 282.14347 
L 239.121937 291.713283 
L 239.26064 279.266568 
L 239.399807 293.330025 
L 239.539339 289.551659 
L 239.677893 279.285587 
L 239.816591 282.093519 
L 239.955298 290.728112 
L 240.093967 290.410255 
L 240.23328 294.754994 
L 240.510545 289.134622 
L 240.649455 292.318027 
L 240.790045 278.9395 
L 240.930126 289.581851 
L 241.068703 290.015018 
L 241.207489 288.739195 
L 241.346021 269.256519 
L 241.484716 272.954413 
L 241.623533 286.409437 
L 241.762377 268.501748 
L 241.90237 291.258026 
L 242.041002 291.532303 
L 242.179539 293.657788 
L 242.319233 290.411288 
L 242.457849 278.346153 
L 242.596467 291.276348 
L 242.874144 288.328558 
L 243.01362 287.282744 
L 243.152434 283.204146 
L 243.291656 288.934813 
L 243.430668 288.024827 
L 243.846997 273.99953 
L 243.987309 288.368162 
L 244.126015 281.199752 
L 244.26458 287.63212 
L 244.403302 286.390523 
L 244.541899 288.048904 
L 244.819887 286.370101 
L 244.9593 288.582157 
L 245.236946 274.664292 
L 245.516273 293.022944 
L 245.793741 288.445622 
L 245.934202 294.33403 
L 246.073194 293.751405 
L 246.211835 290.74836 
L 246.350449 291.776122 
L 246.490289 291.101603 
L 246.628957 284.028696 
L 246.906871 296.391724 
L 247.045552 289.618265 
L 247.184278 296.081185 
L 247.32314 291.265621 
L 247.462566 294.985922 
L 247.601671 285.374475 
L 247.741626 287.47806 
L 247.880617 280.29064 
L 248.019223 213.380673 
L 248.297777 292.050491 
L 248.437261 292.904885 
L 248.576149 277.110493 
L 248.714891 287.568228 
L 248.853659 288.509425 
L 248.993758 280.247907 
L 249.133394 281.66244 
L 249.272979 289.855911 
L 249.411738 288.900617 
L 249.550348 294.509624 
L 249.82999 292.191008 
L 250.107544 296.946024 
L 250.246123 282.060054 
L 250.38526 293.337691 
L 250.664396 292.366188 
L 250.80376 295.872447 
L 250.9431 296.556907 
L 251.081701 293.200478 
L 251.22119 295.777803 
L 251.360556 289.161268 
L 251.500942 290.942914 
L 251.780877 284.610055 
L 251.919785 295.652549 
L 252.058375 293.995474 
L 252.196924 286.392996 
L 252.335823 288.579141 
L 252.474883 280.390725 
L 252.614324 285.420894 
L 252.754129 273.970137 
L 252.892737 292.4514 
L 253.170615 285.995296 
L 253.309463 287.160614 
L 253.448036 282.281808 
L 253.586695 293.662801 
L 253.725359 282.866246 
L 253.864666 281.30029 
L 254.003304 296.645413 
L 254.14332 297.732015 
L 254.282044 295.940733 
L 254.421451 290.606148 
L 254.700217 294.493014 
L 254.838822 284.418876 
L 255.118589 296.497234 
L 255.397909 294.163805 
L 255.536807 297.56944 
L 255.675333 292.413034 
L 255.814241 291.962063 
L 255.953423 297.694473 
L 256.091961 296.880465 
L 256.230502 289.406867 
L 256.369119 270.011697 
L 256.508058 288.268988 
L 256.647117 288.685032 
L 256.786553 296.237516 
L 256.926103 288.115197 
L 257.203368 292.241037 
L 257.342086 292.839908 
L 257.481836 294.550876 
L 257.620383 290.665089 
L 257.761124 295.956118 
L 257.900251 285.706092 
L 258.039501 286.568127 
L 258.178062 295.836387 
L 258.317111 272.424496 
L 258.595392 294.032278 
L 258.736292 283.466839 
L 258.875341 285.16539 
L 259.152794 296.072096 
L 259.291322 288.802338 
L 259.430621 294.025626 
L 259.569307 293.736891 
L 259.848907 298.992131 
L 259.987877 297.979306 
L 260.126691 299.668356 
L 260.266898 299.470288 
L 260.406541 297.559042 
L 260.545219 298.621132 
L 260.683876 296.967953 
L 260.822528 298.158923 
L 260.96121 297.726073 
L 261.100155 298.185523 
L 261.377583 297.922826 
L 261.517002 300.155721 
L 261.794219 294.694595 
L 261.933163 303.940823 
L 262.071925 303.485918 
L 262.211444 301.822488 
L 262.350133 303.179981 
L 262.488988 302.692543 
L 262.62768 303.554127 
L 262.906319 299.19988 
L 263.0456 293.408223 
L 263.184227 301.144738 
L 263.322751 299.338142 
L 263.462393 299.180667 
L 263.73952 297.455771 
L 264.157491 288.767216 
L 264.296056 294.151949 
L 264.435639 291.611425 
L 264.574872 302.580056 
L 264.714122 302.511514 
L 264.853578 301.361593 
L 264.992496 303.54853 
L 265.131814 301.146272 
L 265.271305 301.347142 
L 265.409948 297.53142 
L 265.548579 301.118626 
L 265.966578 287.839149 
L 266.106098 291.388672 
L 266.383796 275.518543 
L 266.522578 303.132265 
L 266.663359 302.576787 
L 266.801935 302.560812 
L 266.940583 301.877425 
L 267.358289 294.708357 
L 267.497203 295.41452 
L 267.637585 295.259479 
L 267.7784 296.690939 
L 267.916949 292.974435 
L 268.055633 296.30272 
L 268.194305 295.396492 
L 268.333051 299.547661 
L 268.749496 291.138604 
L 268.888161 297.211833 
L 269.028299 297.348512 
L 269.167382 297.794754 
L 269.306104 295.04021 
L 269.444758 297.555685 
L 269.583354 297.208679 
L 269.864626 305.053248 
L 270.004193 304.544954 
L 270.144502 300.305964 
L 270.28569 303.014847 
L 270.425039 297.323044 
L 270.563871 304.828257 
L 270.841616 299.38734 
L 270.980813 304.961301 
L 271.25814 303.399753 
L 271.39685 302.75128 
L 271.535425 300.484872 
L 271.674334 301.500401 
L 271.813999 304.029687 
L 271.952543 290.899207 
L 272.091773 303.144618 
L 272.231293 304.47116 
L 272.370093 302.578744 
L 272.510998 305.404385 
L 272.651589 304.21208 
L 272.794449 294.100881 
L 272.936121 303.485604 
L 273.075159 301.813762 
L 273.354784 304.555818 
L 273.495241 304.43111 
L 273.634275 300.743601 
L 273.774267 290.336124 
L 273.913063 300.99453 
L 274.052002 302.571032 
L 274.191024 297.48668 
L 274.329569 302.703173 
L 274.469295 300.376566 
L 274.609743 300.977216 
L 274.75009 296.095522 
L 274.889019 299.802709 
L 275.030175 300.20257 
L 275.169029 289.768607 
L 275.309311 299.41828 
L 275.448122 300.433095 
L 275.586718 296.354801 
L 275.72714 295.63933 
L 275.866253 302.35671 
L 276.004789 299.648805 
L 276.143427 300.81845 
L 276.281995 300.669412 
L 276.559581 298.657622 
L 276.698151 298.981629 
L 276.836724 300.619761 
L 276.975645 300.133786 
L 277.11433 302.707285 
L 277.253378 300.569666 
L 277.530739 302.957829 
L 277.669363 301.818027 
L 277.808767 304.398893 
L 277.948096 304.583626 
L 278.087221 303.984319 
L 278.227661 304.122813 
L 278.366216 304.456911 
L 278.507049 300.013916 
L 278.646913 301.885357 
L 278.786172 299.130737 
L 278.925002 300.612496 
L 279.06361 298.206702 
L 279.202263 302.177375 
L 279.341302 299.754095 
L 279.622606 304.722262 
L 279.761609 294.884843 
L 279.900938 296.991959 
L 280.041654 302.209257 
L 280.319648 293.184882 
L 280.458294 276.38654 
L 280.596835 237.1339 
L 280.735567 301.399848 
L 280.874608 300.399748 
L 281.013871 300.753617 
L 281.153858 302.118801 
L 281.293335 301.615707 
L 281.43257 304.494809 
L 281.571252 301.009412 
L 281.709846 256.416991 
L 281.987994 300.311127 
L 282.12777 296.55404 
L 282.266621 296.809198 
L 282.405241 293.43404 
L 282.683 301.50455 
L 282.821531 302.422526 
L 282.960088 245.451657 
L 283.2374 303.669449 
L 283.376159 301.356628 
L 283.515267 304.226325 
L 283.654096 300.037781 
L 283.932298 303.054178 
L 284.070884 302.860014 
L 284.209453 295.447971 
L 284.486554 302.81005 
L 284.625324 301.262887 
L 284.764283 293.3755 
L 284.90424 296.802602 
L 285.043027 295.401995 
L 285.182859 296.356146 
L 285.322759 296.508545 
L 285.463219 291.041877 
L 285.601835 291.983768 
L 285.741438 289.768685 
L 286.019425 299.099626 
L 286.158829 297.664199 
L 286.437081 301.984719 
L 286.578031 301.584877 
L 286.716786 300.000953 
L 286.855319 301.927366 
L 287.13274 300.707369 
L 287.27138 304.306506 
L 287.548635 293.823287 
L 287.687706 303.61858 
L 287.826259 298.555285 
L 288.105097 303.148044 
L 288.521902 301.50445 
L 288.660884 302.785004 
L 288.801077 302.634046 
L 288.940704 303.137653 
L 289.079405 300.023413 
L 289.217992 302.7829 
L 289.358268 301.573461 
L 289.497671 304.134442 
L 289.636366 303.889497 
L 290.054223 302.177986 
L 290.192818 300.635147 
L 290.615906 302.986376 
L 290.755764 303.521509 
L 290.894819 301.641192 
L 291.033818 302.992474 
L 291.592133 290.932397 
L 291.732621 281.517948 
L 292.011817 237.472454 
L 292.150729 294.404627 
L 292.29008 303.583824 
L 292.429241 301.522268 
L 292.567779 302.322163 
L 292.70715 301.225316 
L 292.845809 301.241677 
L 292.98505 300.141273 
L 293.264015 301.653716 
L 293.403146 304.139704 
L 293.542029 295.195325 
L 293.680728 301.573219 
L 293.81945 302.230893 
L 294.097358 304.418599 
L 294.236099 304.090952 
L 294.375071 302.586464 
L 294.513857 302.501444 
L 294.653294 301.125216 
L 294.931131 303.994728 
L 295.070742 302.566483 
L 295.212173 302.527738 
L 295.350975 301.880967 
L 295.489594 292.431577 
L 295.628947 294.348605 
L 295.76747 294.512689 
L 295.906659 288.677657 
L 296.045473 297.246342 
L 296.186273 290.499169 
L 296.32544 301.920887 
L 296.4652 301.384691 
L 296.603724 294.842597 
L 296.742317 295.280444 
L 296.881111 301.051741 
L 297.020915 298.39715 
L 297.161034 301.506273 
L 297.439124 297.759662 
L 297.578137 303.26153 
L 297.716744 297.416265 
L 297.855447 296.958812 
L 297.994002 299.583733 
L 298.133033 285.169971 
L 298.27195 300.818244 
L 298.410844 300.80704 
L 298.549382 297.088475 
L 298.690056 302.2134 
L 298.829169 283.874531 
L 298.969649 299.484848 
L 299.108297 290.513497 
L 299.247001 300.394344 
L 299.385626 296.040469 
L 299.524577 303.035534 
L 299.664101 302.596334 
L 299.802718 288.013621 
L 299.942122 300.81306 
L 300.080656 302.421209 
L 300.219284 296.674064 
L 300.359989 300.787173 
L 300.501269 298.545301 
L 300.640117 299.325794 
L 300.778788 297.166007 
L 300.917481 299.35096 
L 301.056654 298.833098 
L 301.195668 299.068893 
L 301.334527 301.650521 
L 301.47663 297.417822 
L 301.615999 289.294952 
L 301.894826 300.138933 
L 302.033714 300.837953 
L 302.173766 297.813064 
L 302.314944 292.040842 
L 302.593213 299.267736 
L 302.731931 291.691592 
L 302.870473 302.29945 
L 303.009057 303.401083 
L 303.14834 300.012995 
L 303.287238 299.342932 
L 303.425891 302.523614 
L 303.566374 301.489403 
L 303.70565 302.457952 
L 303.98739 293.568471 
L 304.127417 295.546673 
L 304.26594 302.53767 
L 304.405336 303.818055 
L 304.544121 301.915813 
L 304.684406 301.666303 
L 304.826206 304.940753 
L 304.964942 299.748124 
L 305.104875 299.78111 
L 305.243898 302.671332 
L 305.38253 293.733727 
L 305.521139 298.983495 
L 305.661075 300.058544 
L 305.938407 245.685901 
L 306.215512 280.576203 
L 306.357287 248.780544 
L 306.495851 300.027634 
L 306.7756 303.778273 
L 306.914503 293.615561 
L 307.192897 302.419891 
L 307.472061 303.660981 
L 307.750722 302.870882 
L 307.889659 302.408456 
L 308.171562 303.651738 
L 308.451223 302.689426 
L 308.59021 304.383268 
L 308.729198 302.106846 
L 309.007758 304.57238 
L 309.146294 299.367169 
L 309.285626 288.791212 
L 309.424783 301.532663 
L 309.563796 299.268352 
L 309.702412 303.088851 
L 309.841075 287.616866 
L 309.979691 291.122261 
L 310.25819 303.366849 
L 310.397227 300.105898 
L 310.536654 301.287679 
L 310.678003 297.243847 
L 310.817465 303.719492 
L 310.956636 301.597257 
L 311.234534 300.956521 
L 311.373266 300.42443 
L 311.512954 298.590897 
L 311.653308 303.815856 
L 311.792126 303.453315 
L 311.930787 303.956384 
L 312.069527 302.958022 
L 312.209953 302.959416 
L 312.487333 268.09394 
L 312.626321 270.078598 
L 312.76579 299.340963 
L 312.906387 304.26032 
L 313.047161 304.974687 
L 313.18676 304.428465 
L 313.325345 297.878614 
L 313.463939 296.597474 
L 313.602522 297.427864 
L 313.879762 300.887113 
L 314.018923 299.2281 
L 314.157994 303.080662 
L 314.296556 302.870801 
L 314.576781 303.671621 
L 314.716603 301.975517 
L 314.995454 304.592357 
L 315.286506 301.324004 
L 315.564841 303.464666 
L 315.703556 303.173721 
L 315.843021 302.61363 
L 315.981598 303.177092 
L 316.259152 291.624455 
L 316.537303 300.198651 
L 316.677604 296.779929 
L 316.956424 300.002989 
L 317.097013 298.353587 
L 317.235657 266.888466 
L 317.513159 298.009811 
L 317.655439 300.807 
L 317.794294 299.708195 
L 317.934385 302.751746 
L 318.212073 273.845941 
L 318.489912 301.915582 
L 318.629028 297.122486 
L 318.906758 302.515851 
L 319.045338 301.522112 
L 319.184807 302.514971 
L 319.32347 299.294525 
L 319.463199 301.099813 
L 319.602819 301.198467 
L 319.880442 267.330685 
L 320.15782 301.739255 
L 320.296867 302.618093 
L 320.575283 292.595435 
L 320.713975 290.017145 
L 321.130638 300.977338 
L 321.270292 301.211194 
L 321.409339 301.882943 
L 321.548104 297.721911 
L 321.687253 297.843897 
L 321.825901 296.738782 
L 321.965833 294.010858 
L 322.104486 301.676508 
L 322.38245 302.675183 
L 322.6604 302.265511 
L 322.799035 301.480589 
L 322.938173 302.984378 
L 323.494541 293.006472 
L 323.63308 293.028493 
L 323.772081 296.923442 
L 323.910842 294.811246 
L 324.187964 281.532691 
L 324.326508 288.222679 
L 324.465067 288.799162 
L 324.603748 293.486969 
L 324.742447 286.132383 
L 324.881562 290.704644 
L 325.020147 288.348157 
L 325.158808 292.337766 
L 325.437277 287.14992 
L 325.85372 301.637019 
L 325.99339 298.296291 
L 326.132348 302.493559 
L 326.271648 298.951202 
L 326.410228 302.085406 
L 326.549405 296.816214 
L 326.689705 296.687614 
L 326.828249 297.6202 
L 326.966838 294.540673 
L 327.105564 297.966819 
L 327.244803 297.127372 
L 327.383354 283.664619 
L 327.52325 296.897723 
L 327.662064 296.49105 
L 327.800714 291.165559 
L 328.219913 300.149367 
L 328.358486 287.984157 
L 328.500038 299.240755 
L 328.638802 298.2491 
L 328.778682 298.898424 
L 329.055867 288.456019 
L 329.195166 299.839251 
L 329.333878 298.47239 
L 329.472685 290.92865 
L 329.751761 302.639184 
L 329.890477 298.140613 
L 330.167967 300.900201 
L 330.306688 296.682039 
L 330.446096 298.51488 
L 330.58489 298.231292 
L 330.863541 301.628169 
L 331.002644 296.257304 
L 331.141448 295.492671 
L 331.280404 300.383978 
L 331.419254 297.423754 
L 331.557919 298.698275 
L 331.697516 296.848857 
L 331.836543 300.123043 
L 331.975195 300.128136 
L 332.116544 285.567966 
L 332.257326 295.397339 
L 332.396068 294.300468 
L 332.534819 291.386634 
L 332.674345 300.932121 
L 332.812955 298.496289 
L 332.951495 303.263303 
L 333.090402 301.176134 
L 333.229229 293.019334 
L 333.367813 302.903822 
L 333.508603 298.92374 
L 333.647439 299.720329 
L 333.925143 296.50581 
L 334.063847 295.777303 
L 334.202726 303.258226 
L 334.480322 301.023396 
L 334.618959 300.308936 
L 334.757549 304.214686 
L 334.896822 303.261492 
L 335.035893 304.601795 
L 335.174542 297.727158 
L 335.314024 304.62074 
L 335.591746 294.204457 
L 335.731231 301.353011 
L 335.869757 297.1213 
L 336.008314 288.51075 
L 336.147952 300.793932 
L 336.287773 302.496751 
L 336.426579 300.646905 
L 336.565666 302.549903 
L 336.704836 302.816693 
L 336.844281 292.774683 
L 336.983627 298.870882 
L 337.124414 295.531457 
L 337.263038 302.347536 
L 337.402548 300.162403 
L 337.541458 293.395436 
L 337.681044 292.700217 
L 337.820606 299.001923 
L 337.959214 299.181525 
L 338.097883 288.309051 
L 338.236706 296.607636 
L 338.375268 298.048067 
L 338.514242 286.112065 
L 338.653118 295.941627 
L 338.792337 297.104368 
L 338.930906 292.949554 
L 339.06943 293.912277 
L 339.208228 301.299473 
L 339.34705 297.463527 
L 339.486512 287.232397 
L 339.625139 292.67688 
L 339.763914 284.800075 
L 339.90247 286.78783 
L 340.041373 291.120879 
L 340.181353 280.172606 
L 340.320656 292.766447 
L 340.738168 297.823228 
L 341.015399 293.96231 
L 341.154048 292.215704 
L 341.292673 292.218369 
L 341.432634 295.221862 
L 341.571841 293.222552 
L 341.710373 296.471917 
L 341.849189 291.039486 
L 342.127515 299.301927 
L 342.266352 291.333318 
L 342.54408 296.461356 
L 342.683232 296.202773 
L 342.960429 294.262049 
L 343.098986 290.036239 
L 343.237879 296.815257 
L 343.376641 293.033646 
L 343.515578 292.691752 
L 343.933899 295.425806 
L 344.073789 295.493726 
L 344.213303 292.191333 
L 344.352318 295.404032 
L 344.491177 287.363629 
L 344.63004 294.262105 
L 344.907503 270.299934 
L 345.047436 289.884484 
L 345.186094 292.186152 
L 345.326254 291.575186 
L 345.46506 294.51215 
L 345.604202 293.098602 
L 345.742827 290.121112 
L 345.881801 293.620503 
L 346.020469 293.554184 
L 346.159365 290.496793 
L 346.298548 291.287606 
L 346.437236 281.116091 
L 346.715434 298.86805 
L 346.853977 301.20015 
L 346.992571 239.091458 
L 347.131731 302.99562 
L 347.27033 301.805356 
L 347.408852 295.954033 
L 347.689026 302.886599 
L 347.828157 301.22656 
L 347.967026 297.912637 
L 348.105654 285.092151 
L 348.244273 291.054219 
L 348.38316 291.404221 
L 348.521737 292.861473 
L 348.660966 289.183589 
L 348.799833 296.282471 
L 348.93845 293.552176 
L 349.077481 295.575001 
L 349.494074 290.454997 
L 349.632612 296.421678 
L 349.774124 296.667662 
L 350.051377 294.424997 
L 350.332188 295.704634 
L 350.470747 294.029088 
L 350.749058 296.862099 
L 350.887682 290.106331 
L 351.026216 295.253703 
L 351.165063 289.384559 
L 351.303591 294.393905 
L 351.442783 286.063514 
L 351.720565 294.840532 
L 351.859673 294.386539 
L 351.999345 273.704899 
L 352.138426 288.455367 
L 352.277028 288.711238 
L 352.415801 291.241618 
L 352.554633 291.128138 
L 352.83189 286.773885 
L 353.109022 298.325625 
L 353.38777 300.729156 
L 353.526371 300.056796 
L 353.805553 302.491753 
L 353.944372 300.422786 
L 354.083758 289.467829 
L 354.223854 292.41478 
L 354.362492 303.214326 
L 354.781681 299.493661 
L 354.920484 257.128893 
L 355.060954 300.003501 
L 355.199625 299.306852 
L 355.477244 293.937192 
L 355.616148 297.134937 
L 355.755015 291.539068 
L 355.894178 296.373167 
L 356.032706 295.276556 
L 356.171345 292.376034 
L 356.448852 297.149771 
L 356.587883 300.6314 
L 356.86575 299.31796 
L 357.005432 300.672329 
L 357.144094 297.950405 
L 357.422268 297.878495 
L 357.561949 289.674552 
L 357.700866 299.824155 
L 357.839407 296.696897 
L 357.979062 299.188734 
L 358.117615 292.172829 
L 358.256179 300.537549 
L 358.39532 297.523218 
L 358.534096 300.667944 
L 358.672638 241.025581 
L 358.811545 255.545564 
L 358.950635 298.709536 
L 359.089712 300.191101 
L 359.367044 296.447931 
L 359.505737 299.826064 
L 359.646297 299.849882 
L 360.062578 302.923879 
L 360.201178 291.723679 
L 360.479284 303.191495 
L 360.619476 299.148968 
L 360.758015 299.103229 
L 360.896992 300.389237 
L 361.037451 292.013812 
L 361.315364 303.715817 
L 361.454006 300.056204 
L 361.592703 304.583547 
L 361.873005 300.604688 
L 362.011538 304.886727 
L 362.150937 287.358468 
L 362.289468 300.233165 
L 362.42838 297.700415 
L 362.567049 298.987392 
L 362.845057 285.219403 
L 363.261196 301.685713 
L 363.400102 300.110293 
L 363.540826 295.412552 
L 363.679563 300.174774 
L 363.957824 301.765757 
L 364.096383 298.606322 
L 364.235681 301.342425 
L 364.374698 300.965856 
L 364.514978 298.430204 
L 364.653527 299.578609 
L 364.931945 293.613092 
L 365.070566 294.945444 
L 365.348654 300.502339 
L 365.487679 299.267936 
L 365.626271 300.263387 
L 365.765007 299.797113 
L 365.904068 300.686854 
L 366.043018 296.595465 
L 366.181664 304.260659 
L 366.320964 299.172342 
L 366.461422 289.441327 
L 366.601122 299.210136 
L 366.74003 297.345878 
L 366.878599 300.739096 
L 367.017863 297.448115 
L 367.295189 303.673039 
L 367.57306 299.275519 
L 367.712652 293.20952 
L 367.851677 294.455921 
L 367.990544 299.870639 
L 368.268861 299.542248 
L 368.407737 292.504106 
L 368.685933 303.463339 
L 368.826904 303.599782 
L 369.106364 300.117699 
L 369.24492 300.533472 
L 369.383598 292.444845 
L 369.525218 299.072316 
L 369.664071 296.517822 
L 369.802899 299.204766 
L 369.942454 299.699912 
L 370.081125 302.296179 
L 370.220064 300.6275 
L 370.360259 302.312326 
L 370.499077 301.722219 
L 370.638349 302.389681 
L 370.777091 304.902145 
L 370.916091 301.414771 
L 371.054681 301.96222 
L 371.19322 303.742951 
L 371.33248 297.884835 
L 371.611017 299.424052 
L 371.749594 298.608571 
L 371.888141 300.11787 
L 372.029845 294.636244 
L 372.168719 301.584141 
L 372.30738 300.237093 
L 372.446292 294.085286 
L 372.585371 296.139808 
L 372.725355 289.185986 
L 372.865946 298.797564 
L 373.00625 290.532459 
L 373.144993 295.936076 
L 373.283644 293.44865 
L 373.422317 297.69449 
L 373.560859 291.891663 
L 373.699717 298.035411 
L 373.839405 296.431073 
L 373.978019 299.706335 
L 374.11726 297.319189 
L 374.259138 300.144441 
L 374.397672 298.288688 
L 374.674975 243.718317 
L 374.813695 291.288236 
L 375.091537 303.046382 
L 375.230166 304.192299 
L 375.368883 304.113742 
L 375.509683 300.8593 
L 375.649298 272.045788 
L 375.788083 302.174868 
L 375.926744 302.985406 
L 376.065282 300.220473 
L 376.205621 302.441651 
L 376.34573 301.686105 
L 376.484942 303.851155 
L 376.624087 302.77043 
L 376.902149 304.198291 
L 377.180551 302.069827 
L 377.320092 302.790075 
L 377.736986 293.907195 
L 377.875539 296.875146 
L 378.015038 291.673814 
L 378.436742 301.73678 
L 378.715796 302.24421 
L 378.854839 300.555837 
L 379.133828 305.483094 
L 379.274457 305.809061 
L 379.413014 303.788376 
L 379.691726 304.908337 
L 379.831474 301.551702 
L 379.970123 300.90432 
L 380.109589 304.228039 
L 380.248723 303.086925 
L 380.387847 298.852756 
L 380.527784 303.542358 
L 380.805529 292.185447 
L 380.944082 292.964183 
L 381.22419 299.091672 
L 381.363039 300.362711 
L 381.501573 298.426396 
L 381.640104 298.91155 
L 381.778647 303.461851 
L 381.917223 300.39889 
L 382.056769 303.576659 
L 382.195541 299.638154 
L 382.337085 302.406421 
L 382.477382 298.617069 
L 382.61678 300.685351 
L 382.755793 297.547376 
L 382.894394 303.583529 
L 383.172849 304.438257 
L 383.451133 284.238026 
L 383.59052 299.244461 
L 383.729079 301.149838 
L 383.867853 299.710987 
L 384.00823 303.302408 
L 384.146847 300.784704 
L 384.286765 303.299189 
L 384.427004 301.290166 
L 384.565887 301.308494 
L 384.705047 304.289032 
L 384.844959 303.890657 
L 384.983547 302.001127 
L 385.122658 303.096384 
L 385.399798 280.527761 
L 385.539663 299.412235 
L 385.679352 298.367778 
L 385.817962 298.472888 
L 385.95727 294.437531 
L 386.095837 295.954642 
L 386.376754 301.644619 
L 386.515993 293.040756 
L 386.654749 302.832595 
L 386.795121 301.684408 
L 387.214295 303.444932 
L 387.354386 302.667564 
L 387.493706 305.595586 
L 387.63402 305.42887 
L 387.774321 304.445463 
L 387.913445 302.54755 
L 388.052616 302.610821 
L 388.193343 303.351999 
L 388.333606 302.885453 
L 388.472401 300.198952 
L 388.750933 303.81834 
L 388.891989 293.535178 
L 389.030875 300.741701 
L 389.169466 294.097952 
L 389.308171 297.114945 
L 389.44773 268.304251 
L 389.586329 299.717509 
L 389.725504 301.42857 
L 390.003235 291.482582 
L 390.141898 260.368545 
L 390.28076 293.027557 
L 390.419426 256.666939 
L 390.557972 289.301295 
L 390.835196 211.175009 
L 390.973801 212.16054 
L 391.112442 266.78704 
L 391.251009 248.942323 
L 391.528275 298.330819 
L 391.809076 303.044278 
L 392.086719 299.878652 
L 392.227361 302.868872 
L 392.505006 298.145464 
L 392.644723 301.576225 
L 392.783409 300.723546 
L 392.921947 303.198459 
L 393.060504 301.549363 
L 393.338828 296.727851 
L 393.478519 296.693356 
L 393.618849 291.116578 
L 393.75854 298.359883 
L 393.897076 288.069737 
L 394.037624 291.939057 
L 394.176161 302.795044 
L 394.314878 297.296897 
L 394.454269 301.409664 
L 394.593559 300.464902 
L 394.733114 296.789839 
L 394.871909 298.935038 
L 395.011295 298.189466 
L 395.149954 302.34188 
L 395.288553 302.183452 
L 395.427203 299.227519 
L 395.567463 299.294744 
L 395.706678 301.740507 
L 395.846161 299.594287 
L 395.985215 303.427318 
L 396.124306 301.989228 
L 396.404647 293.298789 
L 396.544188 299.638464 
L 396.68304 286.744729 
L 396.821754 302.882669 
L 396.960346 301.217738 
L 397.099654 300.886003 
L 397.515422 297.879365 
L 397.655503 284.740831 
L 397.794102 296.804141 
L 397.932901 290.969866 
L 398.071451 299.496006 
L 398.210123 299.032943 
L 398.34867 287.436689 
L 398.487273 299.755283 
L 398.487273 299.755283 
" clip-path="url(#pcf68b72435)" style="fill: none; stroke: #1f77b4; stroke-width: 1.5; stroke-linecap: square"/>
   </g>
   <g id="patch_3">
    <path d="M 57.6 307.584 
L 57.6 41.472 
" style="fill: none; stroke: #000000; stroke-width: 0.8; stroke-linejoin: miter; stroke-linecap: square"/>
   </g>
   <g id="patch_4">
    <path d="M 414.72 307.584 
L 414.72 41.472 
" style="fill: none; stroke: #000000; stroke-width: 0.8; stroke-linejoin: miter; stroke-linecap: square"/>
   </g>
   <g id="patch_5">
    <path d="M 57.6 307.584 
L 414.72 307.584 
" style="fill: none; stroke: #000000; stroke-width: 0.8; stroke-linejoin: miter; stroke-linecap: square"/>
   </g>
   <g id="patch_6">
    <path d="M 57.6 41.472 
L 414.72 41.472 
" style="fill: none; stroke: #000000; stroke-width: 0.8; stroke-linejoin: miter; stroke-linecap: square"/>
   </g>
   <g id="text_15">
    <!-- pt13 link speed per 100ms -->
    <g transform="translate(155.608125 35.472)scale(0.12 -0.12)">
     <defs>
      <path id="DejaVuSans-20" transform="scale(0.015625)"/>
      <path id="DejaVuSans-6c" d="M 603 4863 
L 1178 4863 
L 1178 0 
L 603 0 
L 603 4863 
z
" transform="scale(0.015625)"/>
      <path id="DejaVuSans-6e" d="M 3513 2113 
L 3513 0 
L 2938 0 
L 2938 2094 
Q 2938 2591 2744 2837 
Q 2550 3084 2163 3084 
Q 1697 3084 1428 2787 
Q 1159 2491 1159 1978 
L 1159 0 
L 581 0 
L 581 3500 
L 1159 3500 
L 1159 2956 
Q 1366 3272 1645 3428 
Q 1925 3584 2291 3584 
Q 2894 3584 3203 3211 
Q 3513 2838 3513 2113 
z
" transform="scale(0.015625)"/>
      <path id="DejaVuSans-6b" d="M 581 4863 
L 1159 4863 
L 1159 1991 
L 2875 3500 
L 3609 3500 
L 1753 1863 
L 3688 0 
L 2938 0 
L 1159 1709 
L 1159 0 
L 581 0 
L 581 4863 
z
" transform="scale(0.015625)"/>
      <path id="DejaVuSans-64" d="M 2906 2969 
L 2906 4863 
L 3481 4863 
L 3481 0 
L 2906 0 
L 2906 525 
Q 2725 213 2448 61 
Q 2172 -91 1784 -91 
Q 1150 -91 751 415 
Q 353 922 353 1747 
Q 353 2572 751 3078 
Q 1150 3584 1784 3584 
Q 2172 3584 2448 3432 
Q 2725 3281 2906 2969 
z
M 947 1747 
Q 947 1113 1208 752 
Q 1469 391 1925 391 
Q 2381 391 2643 752 
Q 2906 1113 2906 1747 
Q 2906 2381 2643 2742 
Q 2381 3103 1925 3103 
Q 1469 3103 1208 2742 
Q 947 2381 947 1747 
z
" transform="scale(0.015625)"/>
      <path id="DejaVuSans-72" d="M 2631 2963 
Q 2534 3019 2420 3045 
Q 2306 3072 2169 3072 
Q 1681 3072 1420 2755 
Q 1159 2438 1159 1844 
L 1159 0 
L 581 0 
L 581 3500 
L 1159 3500 
L 1159 2956 
Q 1341 3275 1631 3429 
Q 1922 3584 2338 3584 
Q 2397 3584 2469 3576 
Q 2541 3569 2628 3553 
L 2631 2963 
z
" transform="scale(0.015625)"/>
     </defs>
     <use xlink:href="#DejaVuSans-70"/>
     <use xlink:href="#DejaVuSans-74" x="63.476562"/>
     <use xlink:href="#DejaVuSans-31" x="102.685547"/>
     <use xlink:href="#DejaVuSans-33" x="166.308594"/>
     <use xlink:href="#DejaVuSans-20" x="229.931641"/>
     <use xlink:href="#DejaVuSans-6c" x="261.71875"/>
     <use xlink:href="#DejaVuSans-69" x="289.501953"/>
     <use xlink:href="#DejaVuSans-6e" x="317.285156"/>
     <use xlink:href="#DejaVuSans-6b" x="380.664062"/>
     <use xlink:href="#DejaVuSans-20" x="438.574219"/>
     <use xlink:href="#DejaVuSans-73" x="470.361328"/>
     <use xlink:href="#DejaVuSans-70" x="522.460938"/>
     <use xlink:href="#DejaVuSans-65" x="585.9375"/>
     <use xlink:href="#DejaVuSans-65" x="647.460938"/>
     <use xlink:href="#DejaVuSans-64" x="708.984375"/>
     <use xlink:href="#DejaVuSans-20" x="772.460938"/>
     <use xlink:href="#DejaVuSans-70" x="804.248047"/>
     <use xlink:href="#DejaVuSans-65" x="867.724609"/>
     <use xlink:href="#DejaVuSans-72" x="929.248047"/>
     <use xlink:href="#DejaVuSans-20" x="970.361328"/>
     <use xlink:href="#DejaVuSans-31" x="1002.148438"/>
     <use xlink:href="#DejaVuSans-30" x="1065.771484"/>
     <use xlink:href="#DejaVuSans-30" x="1129.394531"/>
     <use xlink:href="#DejaVuSans-6d" x="1193.017578"/>
     <use xlink:href="#DejaVuSans-73" x="1290.429688"/>
    </g>
   </g>
  </g>
 </g>
 <defs>
  <clipPath id="pcf68b72435">
   <rect x="57.6" y="41.472" width="357.12" height="266.112"/>
  </clipPath>
 </defs>
</svg>
