<?xml version="1.0" encoding="utf-8" standalone="no"?>
<!DOCTYPE svg PUBLIC "-//W3C//DTD SVG 1.1//EN"
  "http://www.w3.org/Graphics/SVG/1.1/DTD/svg11.dtd">
<svg xmlns:xlink="http://www.w3.org/1999/xlink" width="460.8pt" height="345.6pt" viewBox="0 0 460.8 345.6" xmlns="http://www.w3.org/2000/svg" version="1.1">
 <metadata>
  <rdf:RDF xmlns:dc="http://purl.org/dc/elements/1.1/" xmlns:cc="http://creativecommons.org/ns#" xmlns:rdf="http://www.w3.org/1999/02/22-rdf-syntax-ns#">
   <cc:Work>
    <dc:type rdf:resource="http://purl.org/dc/dcmitype/StillImage"/>
    <dc:date>2022-07-10T05:41:47.758063</dc:date>
    <dc:format>image/svg+xml</dc:format>
    <dc:creator>
     <cc:Agent>
      <dc:title>Matplotlib v3.5.2, https://matplotlib.org/</dc:title>
     </cc:Agent>
    </dc:creator>
   </cc:Work>
  </rdf:RDF>
 </metadata>
 <defs>
  <style type="text/css">*{stroke-linejoin: round; stroke-linecap: butt}</style>
 </defs>
 <g id="figure_1">
  <g id="patch_1">
   <path d="M 0 345.6 
L 460.8 345.6 
L 460.8 0 
L 0 0 
z
" style="fill: #ffffff"/>
  </g>
  <g id="axes_1">
   <g id="patch_2">
    <path d="M 57.6 307.584 
L 414.72 307.584 
L 414.72 41.472 
L 57.6 41.472 
z
" style="fill: #ffffff"/>
   </g>
   <g id="matplotlib.axis_1">
    <g id="xtick_1">
     <g id="line2d_1">
      <defs>
       <path id="mdddad6711c" d="M 0 0 
L 0 3.5 
" style="stroke: #000000; stroke-width: 0.8"/>
      </defs>
      <g>
       <use xlink:href="#mdddad6711c" x="73.654625" y="307.584" style="stroke: #000000; stroke-width: 0.8"/>
      </g>
     </g>
     <g id="text_1">
      <!-- 0 -->
      <g transform="translate(70.473375 322.182437)scale(0.1 -0.1)">
       <defs>
        <path id="DejaVuSans-30" d="M 2034 4250 
Q 1547 4250 1301 3770 
Q 1056 3291 1056 2328 
Q 1056 1369 1301 889 
Q 1547 409 2034 409 
Q 2525 409 2770 889 
Q 3016 1369 3016 2328 
Q 3016 3291 2770 3770 
Q 2525 4250 2034 4250 
z
M 2034 4750 
Q 2819 4750 3233 4129 
Q 3647 3509 3647 2328 
Q 3647 1150 3233 529 
Q 2819 -91 2034 -91 
Q 1250 -91 836 529 
Q 422 1150 422 2328 
Q 422 3509 836 4129 
Q 1250 4750 2034 4750 
z
" transform="scale(0.015625)"/>
       </defs>
       <use xlink:href="#DejaVuSans-30"/>
      </g>
     </g>
    </g>
    <g id="xtick_2">
     <g id="line2d_2">
      <g>
       <use xlink:href="#mdddad6711c" x="118.111672" y="307.584" style="stroke: #000000; stroke-width: 0.8"/>
      </g>
     </g>
     <g id="text_2">
      <!-- 25 -->
      <g transform="translate(111.749172 322.182437)scale(0.1 -0.1)">
       <defs>
        <path id="DejaVuSans-32" d="M 1228 531 
L 3431 531 
L 3431 0 
L 469 0 
L 469 531 
Q 828 903 1448 1529 
Q 2069 2156 2228 2338 
Q 2531 2678 2651 2914 
Q 2772 3150 2772 3378 
Q 2772 3750 2511 3984 
Q 2250 4219 1831 4219 
Q 1534 4219 1204 4116 
Q 875 4013 500 3803 
L 500 4441 
Q 881 4594 1212 4672 
Q 1544 4750 1819 4750 
Q 2544 4750 2975 4387 
Q 3406 4025 3406 3419 
Q 3406 3131 3298 2873 
Q 3191 2616 2906 2266 
Q 2828 2175 2409 1742 
Q 1991 1309 1228 531 
z
" transform="scale(0.015625)"/>
        <path id="DejaVuSans-35" d="M 691 4666 
L 3169 4666 
L 3169 4134 
L 1269 4134 
L 1269 2991 
Q 1406 3038 1543 3061 
Q 1681 3084 1819 3084 
Q 2600 3084 3056 2656 
Q 3513 2228 3513 1497 
Q 3513 744 3044 326 
Q 2575 -91 1722 -91 
Q 1428 -91 1123 -41 
Q 819 9 494 109 
L 494 744 
Q 775 591 1075 516 
Q 1375 441 1709 441 
Q 2250 441 2565 725 
Q 2881 1009 2881 1497 
Q 2881 1984 2565 2268 
Q 2250 2553 1709 2553 
Q 1456 2553 1204 2497 
Q 953 2441 691 2322 
L 691 4666 
z
" transform="scale(0.015625)"/>
       </defs>
       <use xlink:href="#DejaVuSans-32"/>
       <use xlink:href="#DejaVuSans-35" x="63.623047"/>
      </g>
     </g>
    </g>
    <g id="xtick_3">
     <g id="line2d_3">
      <g>
       <use xlink:href="#mdddad6711c" x="162.568718" y="307.584" style="stroke: #000000; stroke-width: 0.8"/>
      </g>
     </g>
     <g id="text_3">
      <!-- 50 -->
      <g transform="translate(156.206218 322.182437)scale(0.1 -0.1)">
       <use xlink:href="#DejaVuSans-35"/>
       <use xlink:href="#DejaVuSans-30" x="63.623047"/>
      </g>
     </g>
    </g>
    <g id="xtick_4">
     <g id="line2d_4">
      <g>
       <use xlink:href="#mdddad6711c" x="207.025765" y="307.584" style="stroke: #000000; stroke-width: 0.8"/>
      </g>
     </g>
     <g id="text_4">
      <!-- 75 -->
      <g transform="translate(200.663265 322.182437)scale(0.1 -0.1)">
       <defs>
        <path id="DejaVuSans-37" d="M 525 4666 
L 3525 4666 
L 3525 4397 
L 1831 0 
L 1172 0 
L 2766 4134 
L 525 4134 
L 525 4666 
z
" transform="scale(0.015625)"/>
       </defs>
       <use xlink:href="#DejaVuSans-37"/>
       <use xlink:href="#DejaVuSans-35" x="63.623047"/>
      </g>
     </g>
    </g>
    <g id="xtick_5">
     <g id="line2d_5">
      <g>
       <use xlink:href="#mdddad6711c" x="251.482811" y="307.584" style="stroke: #000000; stroke-width: 0.8"/>
      </g>
     </g>
     <g id="text_5">
      <!-- 100 -->
      <g transform="translate(241.939061 322.182437)scale(0.1 -0.1)">
       <defs>
        <path id="DejaVuSans-31" d="M 794 531 
L 1825 531 
L 1825 4091 
L 703 3866 
L 703 4441 
L 1819 4666 
L 2450 4666 
L 2450 531 
L 3481 531 
L 3481 0 
L 794 0 
L 794 531 
z
" transform="scale(0.015625)"/>
       </defs>
       <use xlink:href="#DejaVuSans-31"/>
       <use xlink:href="#DejaVuSans-30" x="63.623047"/>
       <use xlink:href="#DejaVuSans-30" x="127.246094"/>
      </g>
     </g>
    </g>
    <g id="xtick_6">
     <g id="line2d_6">
      <g>
       <use xlink:href="#mdddad6711c" x="295.939857" y="307.584" style="stroke: #000000; stroke-width: 0.8"/>
      </g>
     </g>
     <g id="text_6">
      <!-- 125 -->
      <g transform="translate(286.396107 322.182437)scale(0.1 -0.1)">
       <use xlink:href="#DejaVuSans-31"/>
       <use xlink:href="#DejaVuSans-32" x="63.623047"/>
       <use xlink:href="#DejaVuSans-35" x="127.246094"/>
      </g>
     </g>
    </g>
    <g id="xtick_7">
     <g id="line2d_7">
      <g>
       <use xlink:href="#mdddad6711c" x="340.396904" y="307.584" style="stroke: #000000; stroke-width: 0.8"/>
      </g>
     </g>
     <g id="text_7">
      <!-- 150 -->
      <g transform="translate(330.853154 322.182437)scale(0.1 -0.1)">
       <use xlink:href="#DejaVuSans-31"/>
       <use xlink:href="#DejaVuSans-35" x="63.623047"/>
       <use xlink:href="#DejaVuSans-30" x="127.246094"/>
      </g>
     </g>
    </g>
    <g id="xtick_8">
     <g id="line2d_8">
      <g>
       <use xlink:href="#mdddad6711c" x="384.85395" y="307.584" style="stroke: #000000; stroke-width: 0.8"/>
      </g>
     </g>
     <g id="text_8">
      <!-- 175 -->
      <g transform="translate(375.3102 322.182437)scale(0.1 -0.1)">
       <use xlink:href="#DejaVuSans-31"/>
       <use xlink:href="#DejaVuSans-37" x="63.623047"/>
       <use xlink:href="#DejaVuSans-35" x="127.246094"/>
      </g>
     </g>
    </g>
    <g id="text_9">
     <!-- time(s) -->
     <g transform="translate(218.357656 335.860562)scale(0.1 -0.1)">
      <defs>
       <path id="DejaVuSans-74" d="M 1172 4494 
L 1172 3500 
L 2356 3500 
L 2356 3053 
L 1172 3053 
L 1172 1153 
Q 1172 725 1289 603 
Q 1406 481 1766 481 
L 2356 481 
L 2356 0 
L 1766 0 
Q 1100 0 847 248 
Q 594 497 594 1153 
L 594 3053 
L 172 3053 
L 172 3500 
L 594 3500 
L 594 4494 
L 1172 4494 
z
" transform="scale(0.015625)"/>
       <path id="DejaVuSans-69" d="M 603 3500 
L 1178 3500 
L 1178 0 
L 603 0 
L 603 3500 
z
M 603 4863 
L 1178 4863 
L 1178 4134 
L 603 4134 
L 603 4863 
z
" transform="scale(0.015625)"/>
       <path id="DejaVuSans-6d" d="M 3328 2828 
Q 3544 3216 3844 3400 
Q 4144 3584 4550 3584 
Q 5097 3584 5394 3201 
Q 5691 2819 5691 2113 
L 5691 0 
L 5113 0 
L 5113 2094 
Q 5113 2597 4934 2840 
Q 4756 3084 4391 3084 
Q 3944 3084 3684 2787 
Q 3425 2491 3425 1978 
L 3425 0 
L 2847 0 
L 2847 2094 
Q 2847 2600 2669 2842 
Q 2491 3084 2119 3084 
Q 1678 3084 1418 2786 
Q 1159 2488 1159 1978 
L 1159 0 
L 581 0 
L 581 3500 
L 1159 3500 
L 1159 2956 
Q 1356 3278 1631 3431 
Q 1906 3584 2284 3584 
Q 2666 3584 2933 3390 
Q 3200 3197 3328 2828 
z
" transform="scale(0.015625)"/>
       <path id="DejaVuSans-65" d="M 3597 1894 
L 3597 1613 
L 953 1613 
Q 991 1019 1311 708 
Q 1631 397 2203 397 
Q 2534 397 2845 478 
Q 3156 559 3463 722 
L 3463 178 
Q 3153 47 2828 -22 
Q 2503 -91 2169 -91 
Q 1331 -91 842 396 
Q 353 884 353 1716 
Q 353 2575 817 3079 
Q 1281 3584 2069 3584 
Q 2775 3584 3186 3129 
Q 3597 2675 3597 1894 
z
M 3022 2063 
Q 3016 2534 2758 2815 
Q 2500 3097 2075 3097 
Q 1594 3097 1305 2825 
Q 1016 2553 972 2059 
L 3022 2063 
z
" transform="scale(0.015625)"/>
       <path id="DejaVuSans-28" d="M 1984 4856 
Q 1566 4138 1362 3434 
Q 1159 2731 1159 2009 
Q 1159 1288 1364 580 
Q 1569 -128 1984 -844 
L 1484 -844 
Q 1016 -109 783 600 
Q 550 1309 550 2009 
Q 550 2706 781 3412 
Q 1013 4119 1484 4856 
L 1984 4856 
z
" transform="scale(0.015625)"/>
       <path id="DejaVuSans-73" d="M 2834 3397 
L 2834 2853 
Q 2591 2978 2328 3040 
Q 2066 3103 1784 3103 
Q 1356 3103 1142 2972 
Q 928 2841 928 2578 
Q 928 2378 1081 2264 
Q 1234 2150 1697 2047 
L 1894 2003 
Q 2506 1872 2764 1633 
Q 3022 1394 3022 966 
Q 3022 478 2636 193 
Q 2250 -91 1575 -91 
Q 1294 -91 989 -36 
Q 684 19 347 128 
L 347 722 
Q 666 556 975 473 
Q 1284 391 1588 391 
Q 1994 391 2212 530 
Q 2431 669 2431 922 
Q 2431 1156 2273 1281 
Q 2116 1406 1581 1522 
L 1381 1569 
Q 847 1681 609 1914 
Q 372 2147 372 2553 
Q 372 3047 722 3315 
Q 1072 3584 1716 3584 
Q 2034 3584 2315 3537 
Q 2597 3491 2834 3397 
z
" transform="scale(0.015625)"/>
       <path id="DejaVuSans-29" d="M 513 4856 
L 1013 4856 
Q 1481 4119 1714 3412 
Q 1947 2706 1947 2009 
Q 1947 1309 1714 600 
Q 1481 -109 1013 -844 
L 513 -844 
Q 928 -128 1133 580 
Q 1338 1288 1338 2009 
Q 1338 2731 1133 3434 
Q 928 4138 513 4856 
z
" transform="scale(0.015625)"/>
      </defs>
      <use xlink:href="#DejaVuSans-74"/>
      <use xlink:href="#DejaVuSans-69" x="39.208984"/>
      <use xlink:href="#DejaVuSans-6d" x="66.992188"/>
      <use xlink:href="#DejaVuSans-65" x="164.404297"/>
      <use xlink:href="#DejaVuSans-28" x="225.927734"/>
      <use xlink:href="#DejaVuSans-73" x="264.941406"/>
      <use xlink:href="#DejaVuSans-29" x="317.041016"/>
     </g>
    </g>
   </g>
   <g id="matplotlib.axis_2">
    <g id="ytick_1">
     <g id="line2d_9">
      <defs>
       <path id="m07e9234497" d="M 0 0 
L -3.5 0 
" style="stroke: #000000; stroke-width: 0.8"/>
      </defs>
      <g>
       <use xlink:href="#m07e9234497" x="57.6" y="307.584" style="stroke: #000000; stroke-width: 0.8"/>
      </g>
     </g>
     <g id="text_10">
      <!-- 0 -->
      <g transform="translate(44.2375 311.383219)scale(0.1 -0.1)">
       <use xlink:href="#DejaVuSans-30"/>
      </g>
     </g>
    </g>
    <g id="ytick_2">
     <g id="line2d_10">
      <g>
       <use xlink:href="#m07e9234497" x="57.6" y="263.232" style="stroke: #000000; stroke-width: 0.8"/>
      </g>
     </g>
     <g id="text_11">
      <!-- 50 -->
      <g transform="translate(37.875 267.031219)scale(0.1 -0.1)">
       <use xlink:href="#DejaVuSans-35"/>
       <use xlink:href="#DejaVuSans-30" x="63.623047"/>
      </g>
     </g>
    </g>
    <g id="ytick_3">
     <g id="line2d_11">
      <g>
       <use xlink:href="#m07e9234497" x="57.6" y="218.88" style="stroke: #000000; stroke-width: 0.8"/>
      </g>
     </g>
     <g id="text_12">
      <!-- 100 -->
      <g transform="translate(31.5125 222.679219)scale(0.1 -0.1)">
       <use xlink:href="#DejaVuSans-31"/>
       <use xlink:href="#DejaVuSans-30" x="63.623047"/>
       <use xlink:href="#DejaVuSans-30" x="127.246094"/>
      </g>
     </g>
    </g>
    <g id="ytick_4">
     <g id="line2d_12">
      <g>
       <use xlink:href="#m07e9234497" x="57.6" y="174.528" style="stroke: #000000; stroke-width: 0.8"/>
      </g>
     </g>
     <g id="text_13">
      <!-- 150 -->
      <g transform="translate(31.5125 178.327219)scale(0.1 -0.1)">
       <use xlink:href="#DejaVuSans-31"/>
       <use xlink:href="#DejaVuSans-35" x="63.623047"/>
       <use xlink:href="#DejaVuSans-30" x="127.246094"/>
      </g>
     </g>
    </g>
    <g id="ytick_5">
     <g id="line2d_13">
      <g>
       <use xlink:href="#m07e9234497" x="57.6" y="130.176" style="stroke: #000000; stroke-width: 0.8"/>
      </g>
     </g>
     <g id="text_14">
      <!-- 200 -->
      <g transform="translate(31.5125 133.975219)scale(0.1 -0.1)">
       <use xlink:href="#DejaVuSans-32"/>
       <use xlink:href="#DejaVuSans-30" x="63.623047"/>
       <use xlink:href="#DejaVuSans-30" x="127.246094"/>
      </g>
     </g>
    </g>
    <g id="ytick_6">
     <g id="line2d_14">
      <g>
       <use xlink:href="#m07e9234497" x="57.6" y="85.824" style="stroke: #000000; stroke-width: 0.8"/>
      </g>
     </g>
     <g id="text_15">
      <!-- 250 -->
      <g transform="translate(31.5125 89.623219)scale(0.1 -0.1)">
       <use xlink:href="#DejaVuSans-32"/>
       <use xlink:href="#DejaVuSans-35" x="63.623047"/>
       <use xlink:href="#DejaVuSans-30" x="127.246094"/>
      </g>
     </g>
    </g>
    <g id="ytick_7">
     <g id="line2d_15">
      <g>
       <use xlink:href="#m07e9234497" x="57.6" y="41.472" style="stroke: #000000; stroke-width: 0.8"/>
      </g>
     </g>
     <g id="text_16">
      <!-- 300 -->
      <g transform="translate(31.5125 45.271219)scale(0.1 -0.1)">
       <defs>
        <path id="DejaVuSans-33" d="M 2597 2516 
Q 3050 2419 3304 2112 
Q 3559 1806 3559 1356 
Q 3559 666 3084 287 
Q 2609 -91 1734 -91 
Q 1441 -91 1130 -33 
Q 819 25 488 141 
L 488 750 
Q 750 597 1062 519 
Q 1375 441 1716 441 
Q 2309 441 2620 675 
Q 2931 909 2931 1356 
Q 2931 1769 2642 2001 
Q 2353 2234 1838 2234 
L 1294 2234 
L 1294 2753 
L 1863 2753 
Q 2328 2753 2575 2939 
Q 2822 3125 2822 3475 
Q 2822 3834 2567 4026 
Q 2313 4219 1838 4219 
Q 1578 4219 1281 4162 
Q 984 4106 628 3988 
L 628 4550 
Q 988 4650 1302 4700 
Q 1616 4750 1894 4750 
Q 2613 4750 3031 4423 
Q 3450 4097 3450 3541 
Q 3450 3153 3228 2886 
Q 3006 2619 2597 2516 
z
" transform="scale(0.015625)"/>
       </defs>
       <use xlink:href="#DejaVuSans-33"/>
       <use xlink:href="#DejaVuSans-30" x="63.623047"/>
       <use xlink:href="#DejaVuSans-30" x="127.246094"/>
      </g>
     </g>
    </g>
    <g id="text_17">
     <!-- Mbps -->
     <g transform="translate(25.432812 187.795187)rotate(-90)scale(0.1 -0.1)">
      <defs>
       <path id="DejaVuSans-4d" d="M 628 4666 
L 1569 4666 
L 2759 1491 
L 3956 4666 
L 4897 4666 
L 4897 0 
L 4281 0 
L 4281 4097 
L 3078 897 
L 2444 897 
L 1241 4097 
L 1241 0 
L 628 0 
L 628 4666 
z
" transform="scale(0.015625)"/>
       <path id="DejaVuSans-62" d="M 3116 1747 
Q 3116 2381 2855 2742 
Q 2594 3103 2138 3103 
Q 1681 3103 1420 2742 
Q 1159 2381 1159 1747 
Q 1159 1113 1420 752 
Q 1681 391 2138 391 
Q 2594 391 2855 752 
Q 3116 1113 3116 1747 
z
M 1159 2969 
Q 1341 3281 1617 3432 
Q 1894 3584 2278 3584 
Q 2916 3584 3314 3078 
Q 3713 2572 3713 1747 
Q 3713 922 3314 415 
Q 2916 -91 2278 -91 
Q 1894 -91 1617 61 
Q 1341 213 1159 525 
L 1159 0 
L 581 0 
L 581 4863 
L 1159 4863 
L 1159 2969 
z
" transform="scale(0.015625)"/>
       <path id="DejaVuSans-70" d="M 1159 525 
L 1159 -1331 
L 581 -1331 
L 581 3500 
L 1159 3500 
L 1159 2969 
Q 1341 3281 1617 3432 
Q 1894 3584 2278 3584 
Q 2916 3584 3314 3078 
Q 3713 2572 3713 1747 
Q 3713 922 3314 415 
Q 2916 -91 2278 -91 
Q 1894 -91 1617 61 
Q 1341 213 1159 525 
z
M 3116 1747 
Q 3116 2381 2855 2742 
Q 2594 3103 2138 3103 
Q 1681 3103 1420 2742 
Q 1159 2381 1159 1747 
Q 1159 1113 1420 752 
Q 1681 391 2138 391 
Q 2594 391 2855 752 
Q 3116 1113 3116 1747 
z
" transform="scale(0.015625)"/>
      </defs>
      <use xlink:href="#DejaVuSans-4d"/>
      <use xlink:href="#DejaVuSans-62" x="86.279297"/>
      <use xlink:href="#DejaVuSans-70" x="149.755859"/>
      <use xlink:href="#DejaVuSans-73" x="213.232422"/>
     </g>
    </g>
   </g>
   <g id="line2d_16">
    <path d="M 73.832727 300.528701 
L 74.011299 303.543793 
L 74.189186 300.390137 
L 74.36764 288.815219 
L 74.545697 288.204999 
L 74.723659 284.964431 
L 74.902771 302.216474 
L 75.081175 304.357993 
L 75.261523 304.486317 
L 75.61774 303.992651 
L 75.795814 300.543456 
L 75.97375 303.004805 
L 76.153552 301.816599 
L 76.331589 302.154701 
L 76.509434 304.151354 
L 76.6873 304.444097 
L 76.865176 304.077379 
L 77.043063 302.122539 
L 77.22108 304.584676 
L 77.57719 302.252286 
L 77.755439 301.820516 
L 77.93384 301.793896 
L 78.111768 299.837025 
L 78.289797 300.664323 
L 78.468004 300.782453 
L 78.64652 302.574602 
L 78.824391 297.197448 
L 79.182932 303.277529 
L 79.363371 298.742089 
L 79.720675 303.510964 
L 80.07715 297.30887 
L 80.255083 298.037061 
L 80.432948 302.360662 
L 80.610922 300.730679 
L 80.966945 304.901677 
L 81.144814 304.452685 
L 81.323396 301.712979 
L 81.501248 296.687315 
L 81.681758 300.770086 
L 81.85995 301.910999 
L 82.04 302.143415 
L 82.399147 304.450868 
L 82.577245 304.024926 
L 82.755964 304.954031 
L 82.934075 305.168432 
L 83.472614 299.407182 
L 83.6505 302.543276 
L 84.006569 294.08504 
L 84.184399 272.996202 
L 84.362621 277.787708 
L 84.542734 291.775991 
L 84.720749 295.392827 
L 85.077159 291.829034 
L 85.255137 295.784014 
L 85.434489 292.63785 
L 85.613364 298.447645 
L 85.791783 297.292805 
L 85.970036 300.74695 
L 86.148967 295.901621 
L 86.3278 294.804977 
L 86.506282 295.460644 
L 86.685315 296.629043 
L 86.863434 296.01289 
L 87.04175 300.456561 
L 87.220135 296.147331 
L 87.398642 287.686921 
L 87.576581 299.385154 
L 87.754889 299.523448 
L 87.933569 299.936722 
L 88.11166 298.207794 
L 88.289704 300.171981 
L 88.467992 294.128832 
L 88.824502 299.637004 
L 89.005339 284.670119 
L 89.183564 303.491838 
L 89.361421 294.58793 
L 89.543001 297.85356 
L 89.723877 303.939991 
L 89.902527 303.981343 
L 90.081483 303.355087 
L 90.259768 301.582573 
L 90.437973 301.684959 
L 90.616728 302.88505 
L 90.794629 299.470361 
L 90.975651 301.073706 
L 91.15384 300.08491 
L 91.331848 303.25712 
L 91.511477 303.257662 
L 91.689371 298.617502 
L 91.869232 301.926074 
L 92.048341 300.154917 
L 92.226903 301.958269 
L 92.404904 300.869428 
L 92.584509 293.740949 
L 92.762461 300.394691 
L 92.943757 300.749111 
L 93.122433 302.157046 
L 93.300836 302.664161 
L 93.478682 270.416456 
L 93.656684 278.077243 
L 93.834868 258.817724 
L 94.012718 262.217841 
L 94.19056 291.556341 
L 94.368966 286.018412 
L 94.725258 300.993224 
L 94.903224 285.949498 
L 95.082232 293.155356 
L 95.262715 288.420564 
L 95.619442 300.073484 
L 95.797505 300.049247 
L 96.15351 297.266616 
L 96.509402 288.863205 
L 96.68781 280.775281 
L 97.044749 300.128429 
L 97.222653 304.415226 
L 97.402075 301.3771 
L 97.579958 303.063373 
L 97.75869 300.45356 
L 97.93663 302.201414 
L 98.11454 300.740457 
L 98.292455 297.45208 
L 98.470324 296.450443 
L 98.648638 296.209045 
L 98.826495 292.019301 
L 99.184269 303.812593 
L 99.362876 292.694493 
L 99.541467 297.860235 
L 99.900931 301.130412 
L 100.080806 300.252206 
L 100.262191 302.523908 
L 100.440947 300.949185 
L 100.623523 303.177065 
L 100.803114 302.486889 
L 100.981525 296.44294 
L 101.159544 299.46895 
L 101.337665 291.210468 
L 101.515607 292.157501 
L 101.694261 295.393481 
L 101.875299 290.804953 
L 102.053145 298.050045 
L 102.232634 299.491121 
L 102.412393 296.197228 
L 102.590371 298.860949 
L 102.770571 260.818094 
L 102.948486 246.935815 
L 103.126789 299.36466 
L 103.305622 295.694086 
L 103.495431 301.16933 
L 103.67343 293.966899 
L 103.851999 293.809929 
L 104.208171 299.041646 
L 104.386366 289.396108 
L 104.565668 292.751494 
L 104.744811 290.164065 
L 104.922648 218.101127 
L 105.100675 214.368777 
L 105.278599 200.814352 
L 105.635851 296.095394 
L 105.813987 295.019395 
L 105.992126 291.161231 
L 106.170472 293.900794 
L 106.34957 285.253223 
L 106.52746 282.480064 
L 106.705809 270.299397 
L 106.883735 266.635807 
L 107.061667 272.497403 
L 107.239609 249.928244 
L 107.417518 277.120158 
L 107.595498 281.028195 
L 107.773582 290.916987 
L 107.951535 278.53515 
L 108.307728 296.886675 
L 108.66812 300.576202 
L 108.846366 302.455467 
L 109.02604 301.845645 
L 109.204055 302.409123 
L 109.382556 301.29356 
L 109.563231 295.980782 
L 109.742579 298.052085 
L 109.920678 296.854545 
L 110.098686 304.326603 
L 110.276594 301.85789 
L 110.456885 301.745199 
L 110.63503 303.36536 
L 110.813783 300.103981 
L 110.993366 292.868185 
L 111.350089 297.868981 
L 111.705996 296.750089 
L 111.88502 296.645708 
L 112.062885 298.407535 
L 112.240918 295.207271 
L 112.418751 295.26352 
L 112.597024 293.446749 
L 112.953169 298.21491 
L 113.131239 297.917209 
L 113.309251 290.640615 
L 113.487532 296.469997 
L 113.665634 296.924764 
L 113.844542 293.804596 
L 114.023146 293.024435 
L 114.201872 288.83598 
L 114.379732 292.705721 
L 114.557633 292.094086 
L 114.736838 296.804187 
L 114.914974 288.844849 
L 115.093796 296.37889 
L 115.276875 296.705378 
L 115.455422 269.91402 
L 115.633309 224.113099 
L 115.81276 281.89942 
L 115.991069 281.71568 
L 116.348103 296.339853 
L 116.526662 297.933237 
L 116.704617 296.676859 
L 116.88409 296.670513 
L 117.418528 284.472506 
L 117.596551 283.4315 
L 117.9653 259.936181 
L 118.325857 304.653476 
L 118.50488 286.523113 
L 118.683046 304.796722 
L 119.038971 249.950486 
L 119.218853 303.87543 
L 119.39719 262.277141 
L 119.575034 302.193297 
L 119.753554 301.354786 
L 119.932252 304.109192 
L 120.111291 301.189347 
L 120.289128 303.012933 
L 120.466997 301.723948 
L 120.645519 303.99386 
L 120.823455 291.253779 
L 121.001865 299.751507 
L 121.180314 300.347778 
L 121.361075 294.645981 
L 121.538958 300.424362 
L 121.718282 279.436818 
L 121.896391 293.286057 
L 122.255389 301.205017 
L 122.433226 289.401374 
L 122.611756 230.295285 
L 122.790041 286.705741 
L 123.146374 262.801733 
L 123.324292 228.469942 
L 123.502215 277.357946 
L 123.68008 281.986545 
L 123.859505 296.040657 
L 124.039076 284.190149 
L 124.217114 280.988076 
L 124.396699 285.723331 
L 124.576071 283.244591 
L 124.756359 293.718552 
L 124.934573 294.200852 
L 125.112454 303.340919 
L 125.291374 289.290943 
L 125.469452 293.861914 
L 125.648391 278.765651 
L 125.828215 280.253952 
L 126.006096 280.269789 
L 126.184778 283.293931 
L 126.362718 278.980376 
L 126.540962 268.772209 
L 126.719214 287.763053 
L 126.897053 287.202496 
L 127.433263 270.970785 
L 127.611209 279.202996 
L 127.967402 302.26061 
L 128.324378 280.340413 
L 128.502507 254.198376 
L 128.681041 257.868047 
L 128.85888 295.266664 
L 129.036863 270.961711 
L 129.392645 283.701987 
L 129.570911 284.631037 
L 129.74933 296.045756 
L 129.929946 293.532054 
L 130.464549 278.447361 
L 130.642434 293.239497 
L 130.820899 276.273954 
L 130.998914 278.416857 
L 131.711084 264.504194 
L 132.245127 289.665173 
L 132.42354 289.365792 
L 132.602051 284.903 
L 132.958346 292.443599 
L 133.492617 280.210508 
L 133.670462 273.650493 
L 133.848444 289.02722 
L 134.026275 291.042678 
L 134.204628 287.123033 
L 134.382506 290.722089 
L 134.560345 289.014271 
L 134.738203 285.733039 
L 135.094457 296.049274 
L 135.272853 293.099808 
L 135.451924 292.133069 
L 135.629846 289.649543 
L 135.809337 290.688354 
L 135.987373 293.634882 
L 136.165756 299.352897 
L 136.343594 300.818317 
L 136.52176 300.168574 
L 136.700753 301.691289 
L 136.878718 290.598479 
L 137.056772 299.0042 
L 137.23638 296.961621 
L 137.41439 290.420318 
L 137.592397 288.765723 
L 137.770311 288.91059 
L 137.949839 289.796349 
L 138.128946 298.89115 
L 138.307784 291.653462 
L 138.486252 290.508745 
L 138.664804 297.080561 
L 138.84286 294.914527 
L 139.021053 300.269572 
L 139.377741 297.53041 
L 139.733694 249.058096 
L 139.911649 266.660004 
L 140.090746 301.192182 
L 140.269846 300.222818 
L 140.448131 291.260594 
L 140.627503 298.585163 
L 140.806009 298.17778 
L 140.984555 295.897923 
L 141.163531 295.982995 
L 141.343889 295.147692 
L 141.5225 291.630533 
L 141.703625 297.998735 
L 141.883132 289.843712 
L 142.061248 291.050858 
L 142.239171 288.737012 
L 142.418124 284.357299 
L 142.599589 297.88722 
L 142.778648 302.87327 
L 142.957573 299.98111 
L 143.136127 300.27762 
L 143.314193 303.421156 
L 143.492797 300.195968 
L 143.675307 301.70898 
L 143.856849 301.1915 
L 144.213673 303.275435 
L 144.392864 301.38454 
L 144.571458 300.818174 
L 144.750252 300.68759 
L 144.928276 299.920365 
L 145.109627 285.791391 
L 145.287814 303.184959 
L 145.466677 261.308896 
L 145.644513 296.57826 
L 145.822681 282.448362 
L 146.000708 293.806565 
L 146.536104 301.274658 
L 146.714343 302.733242 
L 147.072989 300.913074 
L 147.251064 301.623281 
L 147.429179 300.906151 
L 147.607071 302.884729 
L 147.966625 301.986524 
L 148.144532 300.653463 
L 148.322515 297.493792 
L 148.500359 302.766324 
L 148.678815 301.262455 
L 149.035698 287.124542 
L 149.214013 303.167668 
L 149.392007 287.124336 
L 149.570314 283.623889 
L 149.748213 298.349341 
L 149.926697 301.024906 
L 150.104625 301.063706 
L 150.462949 300.554048 
L 150.642395 300.044364 
L 150.820913 300.245895 
L 151.001946 302.380912 
L 151.361154 303.097908 
L 151.540296 299.941142 
L 151.718355 300.616564 
L 151.896621 304.842363 
L 152.074707 305.066187 
L 152.253922 304.729302 
L 152.432391 303.054322 
L 152.610253 304.858808 
L 153.328465 298.335963 
L 153.684477 300.854523 
L 154.040377 302.524733 
L 154.399368 298.498472 
L 154.578435 300.799418 
L 154.75713 299.192869 
L 154.935689 291.630576 
L 155.114098 292.120367 
L 155.292175 292.243075 
L 155.650494 296.526677 
L 155.828681 293.941659 
L 156.006728 295.826868 
L 156.185181 294.137391 
L 156.363083 296.393163 
L 156.722275 292.099543 
L 157.078975 295.708766 
L 157.25871 292.179845 
L 157.436885 280.096603 
L 157.615396 291.651162 
L 157.793283 287.871339 
L 157.972516 276.850977 
L 158.150415 295.147459 
L 158.328295 293.705827 
L 158.685004 296.963548 
L 158.863054 299.876768 
L 159.218823 301.04984 
L 159.397437 300.475287 
L 159.755434 298.497433 
L 159.934876 299.929329 
L 160.113775 298.400996 
L 160.293472 300.590727 
L 160.472396 300.512198 
L 160.651184 284.810837 
L 160.829498 283.299738 
L 161.008036 299.52821 
L 161.187308 300.50601 
L 161.365888 298.117626 
L 161.723451 303.20337 
L 161.902695 301.792388 
L 162.083231 295.778818 
L 162.262384 301.067053 
L 162.440716 298.844921 
L 162.9806 303.628679 
L 163.160939 301.501575 
L 163.33992 301.341769 
L 163.518111 300.399983 
L 163.697308 281.673316 
L 163.875197 300.26539 
L 164.05401 302.008693 
L 164.232381 301.94027 
L 164.413099 303.874934 
L 164.772906 300.3018 
L 164.953979 299.589053 
L 165.132954 292.874932 
L 165.311172 299.006472 
L 165.48958 296.560901 
L 165.668468 297.210895 
L 165.848275 291.307691 
L 166.204131 299.42643 
L 166.383947 302.205369 
L 166.74098 302.97556 
L 166.92125 302.530397 
L 167.099279 302.876851 
L 167.277271 302.931848 
L 167.457754 300.249306 
L 167.994871 304.635932 
L 168.173502 304.477278 
L 168.352601 303.316357 
L 168.530543 303.867189 
L 168.886719 301.584461 
L 169.248919 304.067051 
L 169.426973 303.859456 
L 169.605646 301.872292 
L 169.783506 297.758095 
L 169.962384 298.333093 
L 170.140692 299.73504 
L 170.496841 294.910273 
L 170.676634 302.471485 
L 170.857453 303.790291 
L 171.036939 300.751852 
L 171.215957 301.786763 
L 171.395058 300.014991 
L 171.751168 301.997566 
L 171.932697 301.901491 
L 172.112403 292.008378 
L 172.291287 300.825033 
L 172.827671 302.396907 
L 173.006215 302.234538 
L 173.18431 303.061379 
L 173.362704 301.856135 
L 173.719013 296.76602 
L 173.89982 301.95255 
L 174.080929 299.426093 
L 174.43735 302.147169 
L 174.616057 303.29943 
L 174.79477 302.040671 
L 174.972926 303.449376 
L 175.153894 302.901905 
L 175.332052 302.970617 
L 175.510362 302.912751 
L 175.690934 303.63954 
L 175.869105 303.116749 
L 176.047005 300.538724 
L 176.226133 304.713334 
L 176.404057 303.342748 
L 176.582301 300.91223 
L 176.93985 285.685739 
L 177.120263 302.426902 
L 177.298111 302.199901 
L 177.65407 303.41526 
L 177.83312 301.688255 
L 178.011348 302.119092 
L 178.189671 303.305858 
L 178.36754 296.90945 
L 178.545526 296.10686 
L 178.725881 304.154402 
L 179.087895 305.333885 
L 179.267107 303.342529 
L 179.444963 303.877517 
L 179.625525 301.80886 
L 179.806212 298.282576 
L 179.988518 303.394053 
L 180.166757 302.053452 
L 180.344685 297.380552 
L 180.523217 302.146264 
L 180.70366 299.832265 
L 180.882565 299.852537 
L 181.067462 298.160941 
L 181.249053 300.447809 
L 181.429521 295.257064 
L 181.788067 303.771714 
L 181.965961 304.515091 
L 182.147946 300.966139 
L 182.33303 304.306783 
L 182.512706 302.709273 
L 182.69071 293.783952 
L 182.868892 302.472469 
L 183.05206 303.577251 
L 183.230018 305.392566 
L 183.408261 304.683137 
L 183.589041 304.502575 
L 183.770771 300.476765 
L 183.957531 304.211649 
L 184.138283 302.91586 
L 184.316495 273.7819 
L 184.495138 274.353358 
L 184.673548 301.200714 
L 184.851934 304.736414 
L 185.033369 305.165785 
L 185.397001 302.401512 
L 185.575039 298.84397 
L 185.756374 299.945753 
L 185.935265 296.073036 
L 186.113531 304.744879 
L 186.291889 303.318654 
L 186.471718 305.401577 
L 186.836756 303.208867 
L 187.014625 301.974427 
L 187.193562 298.038381 
L 187.566496 304.289783 
L 187.745464 296.338325 
L 187.925947 302.808828 
L 188.104085 300.781156 
L 188.291074 281.347793 
L 188.469004 228.686256 
L 188.647021 224.084325 
L 188.824884 211.201765 
L 189.002716 209.088675 
L 189.180647 213.095263 
L 189.714491 287.459992 
L 189.893015 248.43175 
L 190.071912 293.827722 
L 190.43551 292.437278 
L 190.613527 284.976168 
L 190.791394 253.133894 
L 190.969329 241.49866 
L 191.325321 194.160854 
L 191.503453 295.929181 
L 191.681351 246.107339 
L 191.860952 250.2327 
L 192.039797 289.772576 
L 192.217686 259.711337 
L 192.395842 292.461586 
L 192.578283 304.318617 
L 192.757162 287.756519 
L 192.943168 303.800914 
L 193.308822 298.154956 
L 193.491057 298.966132 
L 193.669408 295.920667 
L 193.849013 301.65226 
L 194.029442 298.688893 
L 194.578033 302.49841 
L 194.755988 301.599957 
L 194.933825 304.001762 
L 195.112194 302.550216 
L 195.290081 304.960467 
L 195.47229 305.439212 
L 195.651977 303.645483 
L 195.830095 303.328242 
L 196.009783 304.869896 
L 196.368226 301.127132 
L 196.727018 303.304794 
L 196.905591 303.191905 
L 197.26216 277.213717 
L 197.441458 301.130882 
L 197.619322 301.720998 
L 198.168612 293.483556 
L 198.347836 302.295774 
L 198.526212 282.284452 
L 198.882011 304.261459 
L 199.060344 301.340976 
L 199.238811 304.635664 
L 199.417725 304.66491 
L 199.595735 301.953433 
L 199.774294 305.348315 
L 200.143321 302.847887 
L 200.328826 302.072469 
L 200.509838 305.047638 
L 200.691726 304.423287 
L 200.871368 305.187747 
L 201.050819 303.339149 
L 201.235842 305.395526 
L 201.424728 296.617858 
L 201.60735 304.314941 
L 201.970127 298.10182 
L 202.148016 297.266748 
L 202.326198 297.1084 
L 202.685542 301.831688 
L 202.863561 303.017658 
L 203.041714 292.168259 
L 203.223618 297.891779 
L 203.401998 299.669961 
L 203.579933 305.550683 
L 203.758248 301.789438 
L 203.936302 303.88852 
L 204.119741 298.959381 
L 204.479076 304.883698 
L 204.65702 298.023228 
L 204.837905 301.302638 
L 205.016489 292.521464 
L 205.194766 298.331201 
L 205.551195 286.490532 
L 205.729408 302.731503 
L 205.907908 301.73065 
L 206.085786 286.955363 
L 206.263997 297.973924 
L 206.442469 289.331863 
L 206.620919 299.418868 
L 206.798753 298.243669 
L 206.986345 294.080792 
L 207.164225 256.208415 
L 207.342548 297.405773 
L 207.520429 288.176889 
L 207.701581 288.964839 
L 207.885959 302.005805 
L 208.064045 294.49702 
L 208.243125 296.678888 
L 208.422246 294.27466 
L 208.601737 300.680313 
L 208.779848 300.293916 
L 208.957727 292.728872 
L 209.138321 296.702297 
L 209.316409 285.771458 
L 209.496566 300.562646 
L 209.674405 290.210165 
L 209.852978 288.669233 
L 210.031411 291.892648 
L 210.209634 300.111317 
L 210.390715 301.199897 
L 210.746638 292.985345 
L 211.285621 301.317286 
L 211.643577 294.42733 
L 212.000481 298.599363 
L 212.378007 304.236317 
L 212.556876 298.84391 
L 212.737595 303.069862 
L 212.91572 302.577045 
L 213.093584 300.983006 
L 213.272159 303.355982 
L 213.453373 293.839715 
L 213.631335 264.39708 
L 213.988033 296.812418 
L 214.166446 289.361205 
L 214.710885 306.330329 
L 215.249866 300.004626 
L 215.43896 304.691192 
L 215.625827 303.003457 
L 215.809959 296.636661 
L 215.989029 304.117614 
L 216.176488 305.867261 
L 216.356747 302.887881 
L 216.716238 291.250127 
L 217.080179 305.642025 
L 217.260179 273.413149 
L 217.43843 292.551629 
L 217.616792 288.582489 
L 217.795086 279.065633 
L 217.975624 234.745811 
L 218.155654 287.516972 
L 218.333667 291.737345 
L 218.512206 299.160859 
L 218.691875 287.61082 
L 218.871736 259.553285 
L 219.049943 299.392646 
L 219.227807 291.287547 
L 219.40569 294.937151 
L 219.584806 301.903344 
L 219.765463 303.072637 
L 219.9492 301.460214 
L 220.306384 291.181909 
L 220.489663 296.427953 
L 220.846857 250.92366 
L 221.203431 300.472715 
L 221.381336 280.78813 
L 221.559339 294.670581 
L 221.738081 299.505109 
L 221.917929 298.471966 
L 222.095821 301.895124 
L 222.275401 302.18066 
L 222.453613 293.112136 
L 222.632277 302.755087 
L 222.817912 301.447929 
L 223.176355 302.101474 
L 223.355894 303.208153 
L 223.535942 302.768197 
L 223.898828 305.109798 
L 224.079032 302.07242 
L 224.256869 302.181171 
L 224.435043 264.152459 
L 224.61411 263.836453 
L 224.792145 264.175201 
L 224.970855 263.623564 
L 225.151592 266.673299 
L 225.341817 304.597866 
L 225.520145 304.02802 
L 225.705634 305.285795 
L 226.064897 304.668334 
L 226.42314 302.061078 
L 226.783438 303.700479 
L 226.961307 303.375805 
L 227.149995 303.800529 
L 227.50881 303.279726 
L 227.690209 305.60643 
L 228.047677 300.94157 
L 228.225706 301.16706 
L 228.408841 302.240003 
L 228.593384 299.931868 
L 228.771459 299.710377 
L 228.949994 304.125489 
L 229.135251 304.141486 
L 229.313174 300.864379 
L 229.492305 302.452067 
L 229.670175 302.296083 
L 229.84809 281.388104 
L 230.025923 303.757185 
L 230.203785 291.753988 
L 230.381653 293.243408 
L 230.748943 303.750132 
L 231.110483 305.865064 
L 231.288783 304.074025 
L 231.466787 297.867459 
L 231.652895 303.83938 
L 231.83173 304.884465 
L 232.010637 304.989427 
L 232.18945 302.538906 
L 232.549 303.840371 
L 232.728748 299.546061 
L 232.912283 303.537315 
L 233.090579 302.700771 
L 233.268805 303.0554 
L 233.625858 304.528752 
L 233.807692 304.508466 
L 233.986024 304.612172 
L 234.16456 301.74523 
L 234.342765 304.234923 
L 234.527671 304.208412 
L 234.711246 301.449506 
L 234.889258 302.822837 
L 235.069993 299.971831 
L 235.425884 303.554036 
L 235.613233 302.611769 
L 235.791542 296.638639 
L 235.972317 302.347394 
L 236.160478 301.676096 
L 236.339238 296.924277 
L 236.697656 300.118416 
L 236.87559 295.950832 
L 237.05622 298.421292 
L 237.234651 298.775809 
L 237.412864 299.683608 
L 237.591988 296.59432 
L 237.770336 295.499569 
L 238.128757 301.645513 
L 238.30968 304.154446 
L 238.492176 304.487499 
L 238.849367 301.912029 
L 239.028827 301.723277 
L 239.213127 301.168974 
L 239.391444 302.133695 
L 239.569763 303.861414 
L 240.105092 295.628308 
L 240.282948 295.079313 
L 240.460888 300.751967 
L 240.640452 300.420994 
L 240.818311 300.901476 
L 240.99642 300.46682 
L 241.174915 293.575804 
L 241.531791 299.998467 
L 241.70987 299.699587 
L 241.888139 301.044465 
L 242.066419 300.598653 
L 242.244427 296.849552 
L 242.601657 284.958947 
L 242.780232 296.47761 
L 242.958219 297.439631 
L 243.31404 290.947513 
L 243.492299 292.697381 
L 243.671082 300.75079 
L 243.849129 299.760895 
L 244.026982 295.39202 
L 244.205214 283.656725 
L 244.383291 299.257865 
L 244.56291 300.064871 
L 244.743468 294.248602 
L 245.099403 301.605994 
L 245.277315 301.388081 
L 245.465416 302.653278 
L 245.643348 292.621645 
L 246.000498 302.345342 
L 246.189607 299.305834 
L 246.370818 302.97357 
L 246.553689 303.200303 
L 246.73564 303.23142 
L 246.913478 304.060537 
L 247.101875 302.493193 
L 247.284531 302.803441 
L 247.47243 302.761645 
L 247.652372 303.716096 
L 247.830677 300.028824 
L 248.01018 287.628018 
L 248.196075 302.594161 
L 248.374568 302.483875 
L 248.552432 302.933168 
L 248.733842 302.132801 
L 249.100097 298.727177 
L 249.45751 291.78569 
L 249.635359 295.073467 
L 249.81326 300.444155 
L 249.991329 302.223938 
L 250.17099 301.167826 
L 250.349379 296.287005 
L 250.52726 299.646591 
L 250.884346 293.709937 
L 251.065863 292.385691 
L 251.243894 293.389824 
L 251.599982 301.951637 
L 251.782146 302.854927 
L 251.961919 299.979227 
L 252.141867 300.037821 
L 252.507103 295.894903 
L 252.687168 303.262382 
L 252.866039 303.265873 
L 253.043895 299.696499 
L 253.221885 300.704453 
L 253.401223 304.298421 
L 253.582297 296.871387 
L 253.764016 302.751832 
L 253.947382 299.550906 
L 254.125276 253.701327 
L 254.481844 303.258018 
L 254.659848 302.224849 
L 254.83986 303.714043 
L 255.01781 293.435712 
L 255.196877 298.307706 
L 255.375093 292.850414 
L 255.55572 293.43301 
L 255.735204 298.297698 
L 255.913214 299.162083 
L 256.091531 298.329679 
L 256.269398 294.458192 
L 256.625945 299.488331 
L 256.806185 295.983649 
L 256.984395 296.398503 
L 257.162225 298.588084 
L 257.346459 298.386216 
L 257.524305 293.174357 
L 257.888678 297.56594 
L 258.066548 296.730286 
L 258.245756 298.331632 
L 258.423865 302.844101 
L 258.782256 289.621809 
L 258.961637 295.637805 
L 259.142084 292.550377 
L 259.319946 294.842327 
L 259.676719 288.185874 
L 260.040659 298.556547 
L 260.219995 302.406784 
L 260.39885 303.817311 
L 260.579358 300.370059 
L 260.757972 247.586073 
L 260.937491 264.542562 
L 261.121515 296.869823 
L 261.301841 301.949435 
L 261.479938 298.343493 
L 261.658193 298.676439 
L 261.836276 292.562711 
L 262.025213 297.428015 
L 262.203733 281.082725 
L 262.560593 293.272146 
L 262.738866 292.185448 
L 262.916802 288.543596 
L 263.276657 298.821471 
L 263.454628 283.036179 
L 263.642473 288.216258 
L 263.821261 287.31647 
L 264.006064 293.992188 
L 264.186791 290.158568 
L 264.365012 298.832019 
L 264.721221 284.643499 
L 264.899597 290.586185 
L 265.084098 290.004226 
L 265.262714 291.398356 
L 265.441916 263.606662 
L 265.620684 294.599861 
L 265.798579 301.620849 
L 265.976559 299.139894 
L 266.154897 300.176287 
L 266.332807 300.02525 
L 266.513169 298.251982 
L 266.691899 291.592552 
L 267.227948 302.353536 
L 267.409226 297.365448 
L 267.587156 300.561091 
L 267.765395 299.883906 
L 268.128116 302.479127 
L 268.306485 302.791693 
L 268.484535 302.073687 
L 268.663212 302.14115 
L 268.84114 302.817016 
L 269.019355 303.000768 
L 269.19745 302.362119 
L 269.556023 298.345622 
L 269.737274 301.408423 
L 269.915633 301.623554 
L 270.274406 303.605403 
L 270.457326 300.487198 
L 270.636747 302.005121 
L 270.820707 299.661234 
L 270.999993 303.858073 
L 271.180146 301.088776 
L 271.36195 303.525611 
L 271.541085 301.854921 
L 271.897915 301.022471 
L 272.076946 301.632489 
L 272.25522 300.904045 
L 272.43339 296.192892 
L 272.967467 248.571108 
L 273.145449 249.48021 
L 273.502742 301.134447 
L 273.858884 291.934942 
L 274.038575 303.109474 
L 274.217158 302.846547 
L 274.405335 303.404883 
L 274.584825 302.379682 
L 274.950779 303.454355 
L 275.129841 301.408603 
L 275.307812 303.131315 
L 275.485654 303.306285 
L 275.664117 301.747565 
L 275.841979 302.292489 
L 276.027895 302.134296 
L 276.206815 300.77149 
L 276.389889 298.122472 
L 276.568343 297.267611 
L 276.753557 303.597839 
L 277.109704 301.598165 
L 277.291062 305.019507 
L 277.477102 300.670097 
L 277.659504 304.327286 
L 277.837514 303.644077 
L 278.016469 270.986462 
L 278.21335 306.195202 
L 278.391251 304.569806 
L 278.571869 304.337836 
L 278.749902 303.729898 
L 278.93266 303.535846 
L 279.110673 301.425142 
L 279.295724 300.780913 
L 279.47404 298.979051 
L 279.652307 299.55137 
L 279.830541 303.727828 
L 280.009404 300.986584 
L 280.189028 303.320781 
L 280.545576 299.685143 
L 280.903887 298.400231 
L 281.082056 294.241418 
L 281.26079 299.798481 
L 281.439061 300.391934 
L 281.617225 298.566664 
L 281.795994 299.249961 
L 281.975474 304.977588 
L 282.158475 303.953699 
L 282.341485 304.068495 
L 282.701659 300.204509 
L 282.889159 300.851788 
L 283.068102 304.599734 
L 283.246206 304.108889 
L 283.431823 304.957949 
L 283.614675 304.726644 
L 283.802733 304.718212 
L 283.980823 303.970823 
L 284.518122 296.496289 
L 284.878052 297.172763 
L 285.057158 301.82962 
L 285.23799 303.010499 
L 285.425666 303.004673 
L 285.60477 300.949668 
L 285.961555 304.876848 
L 286.317327 301.387674 
L 286.497675 297.438338 
L 286.675895 303.771075 
L 286.864897 304.54418 
L 287.044036 304.186069 
L 287.224249 304.710779 
L 287.402728 303.09505 
L 287.585103 303.128129 
L 287.763125 301.58668 
L 287.941055 301.533174 
L 288.120665 301.770766 
L 288.29858 303.204613 
L 288.477219 301.016574 
L 288.658158 303.240735 
L 289.016169 303.31507 
L 289.377432 297.739559 
L 289.556169 298.328986 
L 289.734347 298.309033 
L 289.912241 302.012758 
L 290.100584 300.030866 
L 290.278487 304.717375 
L 290.459074 302.125341 
L 290.659159 302.371661 
L 290.837268 304.760628 
L 291.374965 292.82851 
L 291.552938 303.833468 
L 291.731134 305.427509 
L 291.90964 303.35616 
L 292.087958 297.669521 
L 292.447045 305.797613 
L 292.625121 301.346399 
L 292.803047 304.911464 
L 292.985422 302.710884 
L 293.163252 303.223558 
L 293.344713 295.086301 
L 293.522856 297.246414 
L 293.701481 292.45033 
L 293.880755 295.026861 
L 294.250941 304.057863 
L 294.429677 301.740559 
L 294.615116 303.46485 
L 294.79785 301.365947 
L 294.97602 301.250541 
L 295.155593 303.514915 
L 295.345755 292.517063 
L 295.524728 300.04387 
L 295.702647 295.199625 
L 295.881099 303.654663 
L 296.059447 298.833357 
L 296.242165 301.078497 
L 296.60287 298.729072 
L 296.782461 301.913537 
L 296.960415 300.385904 
L 297.138725 300.980902 
L 297.50639 303.634347 
L 297.684619 301.655541 
L 297.862964 304.911275 
L 298.048683 304.563969 
L 298.405636 293.793383 
L 298.583899 299.769606 
L 298.762064 298.161848 
L 298.94005 300.271711 
L 299.296734 297.881847 
L 299.476191 298.566643 
L 299.654871 295.023646 
L 299.836283 298.075956 
L 300.014161 293.742967 
L 300.192441 299.466876 
L 300.371108 297.619147 
L 300.549025 297.519553 
L 300.726948 298.684479 
L 300.904913 296.883697 
L 301.263758 301.91373 
L 301.441798 238.839942 
L 301.620003 290.76838 
L 301.803091 300.36018 
L 301.982694 303.081193 
L 302.161618 298.334407 
L 302.34183 302.514043 
L 302.69789 298.954502 
L 302.88046 302.409142 
L 303.059287 298.797428 
L 303.418527 297.771782 
L 303.596572 297.822579 
L 303.77443 295.625354 
L 303.952385 297.139838 
L 304.130398 295.422587 
L 304.308415 275.999963 
L 304.486264 276.623609 
L 304.842751 297.128095 
L 305.027081 297.656965 
L 305.204914 300.873606 
L 305.566378 294.555878 
L 305.744219 296.410225 
L 305.922156 293.729676 
L 306.100565 294.417689 
L 306.278692 299.448624 
L 306.458121 295.981728 
L 306.814343 275.82841 
L 306.992816 276.12049 
L 307.170655 267.708168 
L 307.52706 277.941786 
L 307.705081 276.122144 
L 308.245662 295.03504 
L 308.602165 297.160857 
L 308.780034 292.387447 
L 308.95807 295.498117 
L 309.136327 295.467766 
L 309.669909 221.017984 
L 309.847786 224.950428 
L 310.025712 290.878488 
L 310.203894 299.29154 
L 310.382803 296.756669 
L 310.571753 299.997082 
L 310.75299 294.197852 
L 310.932703 293.950739 
L 311.292803 298.853503 
L 311.4777 296.994099 
L 311.655975 291.178744 
L 311.834032 289.108929 
L 312.011882 296.653846 
L 312.189934 293.522989 
L 312.369871 293.045003 
L 312.548087 296.392288 
L 312.726769 290.910959 
L 312.907056 294.104983 
L 313.084938 290.834802 
L 313.262898 290.485238 
L 313.629775 295.602108 
L 313.80811 288.180348 
L 313.987066 288.373531 
L 314.165127 296.826679 
L 314.523143 283.969382 
L 314.706374 298.288711 
L 314.88619 292.613516 
L 315.066127 294.405194 
L 315.244924 294.133653 
L 315.43318 293.511217 
L 315.611283 292.209339 
L 315.789447 281.966107 
L 315.969231 298.794248 
L 316.148686 297.930469 
L 316.326568 294.616203 
L 316.505241 297.581523 
L 316.683236 289.290295 
L 316.861486 292.057196 
L 317.039348 299.766429 
L 317.220203 290.457174 
L 317.398819 296.412439 
L 317.577589 297.513281 
L 317.75564 300.54146 
L 317.933752 298.849054 
L 318.289736 281.174183 
L 318.47 293.438447 
L 318.650199 292.359838 
L 318.828264 290.523361 
L 319.006136 290.103994 
L 319.183966 292.226759 
L 319.361917 300.962704 
L 320.07536 286.039415 
L 320.253274 279.181047 
L 320.431522 290.331388 
L 320.790418 295.297225 
L 320.972987 294.058797 
L 321.151982 304.008592 
L 321.33008 300.172586 
L 321.50905 301.492965 
L 321.709959 300.60515 
L 321.896967 300.531334 
L 322.080556 299.838519 
L 322.258401 279.514951 
L 322.437883 272.365505 
L 322.619774 300.434325 
L 322.803874 298.285027 
L 322.982348 300.879402 
L 323.339754 284.917419 
L 323.518006 291.364781 
L 323.696604 279.776776 
L 323.875924 279.828601 
L 324.235958 299.222816 
L 324.593635 295.959396 
L 324.951054 282.480077 
L 325.129234 277.338198 
L 325.488104 292.468137 
L 325.845289 284.13081 
L 326.212693 301.216032 
L 326.396174 299.595124 
L 326.774836 304.243367 
L 326.952736 298.412998 
L 327.13441 288.096849 
L 327.316252 299.683518 
L 327.496132 292.632559 
L 327.674987 303.367427 
L 327.852961 300.765098 
L 328.210947 302.201706 
L 328.389811 300.598289 
L 328.746087 290.957994 
L 328.92723 293.030425 
L 329.105127 288.433132 
L 329.29336 300.601728 
L 329.471432 295.071175 
L 329.65059 296.386207 
L 329.839008 302.200596 
L 330.026757 302.7805 
L 330.205441 300.427802 
L 330.561549 289.706125 
L 330.741009 289.182354 
L 330.919147 285.989012 
L 331.097089 294.115935 
L 331.275104 280.572504 
L 331.453583 293.923628 
L 331.631516 294.947657 
L 331.809785 294.80865 
L 331.98841 297.302332 
L 332.168006 290.324243 
L 332.345836 293.105588 
L 332.524564 290.211216 
L 332.702461 294.084292 
L 332.881143 292.537993 
L 333.238597 302.315885 
L 333.418106 298.18374 
L 333.596205 301.022655 
L 333.952169 278.351159 
L 334.310601 287.403392 
L 334.488514 285.423577 
L 334.666746 284.851941 
L 335.028486 299.573635 
L 335.20635 297.004263 
L 335.388211 302.538095 
L 335.56804 285.542408 
L 335.746083 292.607267 
L 336.102812 272.30744 
L 336.282015 284.363376 
L 336.460168 275.230973 
L 336.63847 277.992568 
L 336.994494 231.227579 
L 337.531802 257.561512 
L 337.710203 279.372558 
L 337.888049 278.180798 
L 338.066393 280.969448 
L 338.244331 279.982288 
L 338.422264 281.459846 
L 338.959015 290.451141 
L 339.136998 283.935443 
L 339.318061 283.737391 
L 339.496108 287.400837 
L 339.675435 288.256576 
L 339.854619 277.209622 
L 340.032724 284.962318 
L 340.210858 281.434457 
L 340.568377 288.634296 
L 340.749006 280.413548 
L 341.105233 293.622332 
L 341.284576 289.958449 
L 341.462573 297.048836 
L 341.642201 288.311289 
L 341.8299 288.175501 
L 342.007746 293.393199 
L 342.185742 278.526564 
L 342.364646 283.766403 
L 342.54265 283.382466 
L 342.720533 274.475564 
L 342.898388 286.005904 
L 343.076223 271.896537 
L 343.254379 267.025615 
L 343.432234 268.174454 
L 343.610115 225.242945 
L 343.788975 222.063761 
L 343.966824 202.612172 
L 344.145394 256.67219 
L 344.32324 261.969468 
L 344.501258 237.209489 
L 344.679192 234.812599 
L 344.858405 274.782006 
L 345.036854 279.853378 
L 345.214776 275.742434 
L 345.392987 268.128375 
L 345.927176 271.496897 
L 346.105007 241.520562 
L 346.640162 270.113955 
L 346.996115 265.456978 
L 347.174432 269.011673 
L 347.352657 269.221043 
L 347.531623 268.786559 
L 347.709482 267.496569 
L 347.887417 271.274719 
L 348.065307 266.448409 
L 348.2444 271.440143 
L 348.422685 273.198126 
L 348.600547 245.344393 
L 348.779264 237.9669 
L 348.958579 276.836674 
L 349.136411 281.338842 
L 349.49336 275.714745 
L 349.671654 275.046274 
L 349.852461 280.62105 
L 350.030565 276.318945 
L 350.20853 277.668826 
L 350.56531 268.975199 
L 351.104608 298.849458 
L 351.283428 295.635312 
L 351.461439 281.786441 
L 351.819034 274.981162 
L 351.996871 274.098886 
L 352.17559 278.963288 
L 352.353778 274.185791 
L 352.532557 291.769873 
L 352.710974 291.562949 
L 352.888875 284.373617 
L 353.066981 271.538112 
L 353.422682 296.925689 
L 353.601292 284.620928 
L 353.77967 264.59174 
L 353.957665 283.161315 
L 354.314846 227.186474 
L 354.492894 279.798159 
L 354.670932 285.222561 
L 354.848922 278.941656 
L 355.027764 279.869768 
L 355.205921 296.014978 
L 355.38408 294.597621 
L 355.562328 297.457141 
L 355.919083 279.303006 
L 356.275446 289.039722 
L 356.453409 287.33124 
L 356.632027 276.911666 
L 356.810193 283.139392 
L 356.989286 284.746355 
L 357.345262 281.865095 
L 357.52404 283.086113 
L 357.703564 279.514646 
L 357.88167 279.728993 
L 358.238038 276.130925 
L 358.416197 277.551276 
L 358.594164 285.121454 
L 358.772052 280.511929 
L 358.951607 284.873126 
L 359.129706 282.315591 
L 359.307594 283.825291 
L 359.485639 281.191446 
L 359.66348 281.075425 
L 359.841653 281.190418 
L 360.019581 281.991711 
L 360.197493 276.034167 
L 360.553715 284.936954 
L 360.731552 279.300186 
L 360.909757 278.901752 
L 361.088163 289.913488 
L 361.266155 277.71577 
L 361.622069 283.723413 
L 361.800546 280.924874 
L 361.978444 281.5632 
L 362.156453 273.258664 
L 362.334465 273.107975 
L 362.512391 269.791417 
L 362.868157 275.723071 
L 363.223975 288.212097 
L 363.401884 289.126428 
L 363.579881 283.809277 
L 363.758561 285.000351 
L 363.936435 283.945717 
L 364.114824 279.706894 
L 364.29323 284.866659 
L 364.471885 281.909237 
L 364.64993 284.492974 
L 364.827941 284.004396 
L 365.006264 284.432725 
L 365.184389 281.405991 
L 365.362335 286.529478 
L 365.540399 283.344928 
L 365.718757 286.189795 
L 365.896626 284.233105 
L 366.076208 273.442799 
L 366.254673 297.238557 
L 366.43429 289.611787 
L 366.612372 291.27499 
L 366.790298 278.610608 
L 366.968287 282.547883 
L 367.147031 283.448358 
L 367.325079 283.246566 
L 367.686526 287.704723 
L 367.864779 286.331135 
L 368.042854 286.434803 
L 368.220821 283.217865 
L 368.398747 284.349945 
L 368.576935 283.687632 
L 368.754889 248.835625 
L 368.934901 283.977435 
L 369.296166 282.714047 
L 369.474172 284.721282 
L 369.652294 282.148541 
L 369.830198 285.409955 
L 370.008736 280.834881 
L 370.18665 230.03331 
L 370.547545 290.482527 
L 370.727103 289.621999 
L 370.905556 283.157029 
L 371.083391 205.599324 
L 371.261432 185.741232 
L 371.439312 186.762613 
L 371.617347 193.219122 
L 371.795452 187.347659 
L 371.973307 150.485786 
L 372.151164 149.744599 
L 372.32902 146.270748 
L 372.684741 199.610213 
L 372.862589 199.485658 
L 373.21838 197.421379 
L 373.396285 185.416913 
L 373.574117 192.338239 
L 373.751968 209.063307 
L 373.929952 206.11056 
L 374.107974 119.605085 
L 374.285988 153.064461 
L 374.641662 97.477847 
L 374.819492 100.132126 
L 374.997325 93.10152 
L 375.175171 102.794555 
L 375.353083 133.560031 
L 375.531062 191.028501 
L 375.708923 189.720163 
L 375.886866 190.496546 
L 376.064721 200.596923 
L 376.242581 196.728488 
L 376.420707 196.883929 
L 376.598789 210.339505 
L 376.776649 210.626592 
L 376.954502 186.973543 
L 377.132394 200.76375 
L 377.31029 198.306738 
L 377.666014 187.93016 
L 377.843873 192.163221 
L 378.021711 184.266973 
L 378.199584 186.018879 
L 378.555299 179.260718 
L 378.733335 187.624543 
L 378.911167 185.794122 
L 379.089328 192.727418 
L 379.267448 189.48164 
L 379.445283 207.196611 
L 379.623385 213.783167 
L 379.979305 209.105667 
L 380.157158 209.542625 
L 380.335165 208.977518 
L 380.513394 206.356899 
L 381.047133 209.721388 
L 381.225267 209.901497 
L 381.581051 214.967962 
L 381.937074 210.157489 
L 382.114982 212.807128 
L 382.47077 214.510839 
L 382.64874 210.854292 
L 382.826602 219.378475 
L 383.360736 210.352178 
L 383.538868 211.713704 
L 383.716721 199.33523 
L 383.894695 213.95993 
L 384.073128 204.750671 
L 384.25099 210.043021 
L 384.428929 197.614406 
L 384.606983 210.00359 
L 384.784884 206.9553 
L 384.963062 215.4999 
L 385.141091 213.538709 
L 385.318973 213.397552 
L 385.496819 217.300678 
L 385.674773 214.961756 
L 385.852863 215.30769 
L 386.030711 210.244111 
L 386.208902 209.226987 
L 386.387053 205.338866 
L 386.564953 213.736484 
L 386.742815 202.968321 
L 386.920828 209.055515 
L 387.098683 193.771558 
L 387.276635 203.380339 
L 387.454465 195.138972 
L 387.632779 204.029047 
L 387.810655 193.067975 
L 387.988494 205.346376 
L 388.166326 199.969681 
L 388.344291 199.854559 
L 388.700246 205.489359 
L 388.878106 176.247866 
L 389.056102 176.507897 
L 389.233948 199.565847 
L 389.411804 203.757337 
L 389.767622 193.089174 
L 389.945748 197.653268 
L 390.123577 193.955334 
L 390.301557 198.704734 
L 390.47941 187.623951 
L 390.657302 203.351147 
L 390.835141 194.93833 
L 391.013535 202.013411 
L 391.191384 200.967713 
L 391.369314 201.899005 
L 391.547169 208.16167 
L 391.725096 201.412714 
L 391.902941 204.377232 
L 392.080776 198.569783 
L 392.258606 206.845885 
L 392.614465 198.829876 
L 392.792556 197.977319 
L 392.970393 200.36541 
L 393.148415 199.874393 
L 393.326283 197.983363 
L 393.504335 198.327891 
L 393.682167 190.299006 
L 393.860792 193.460957 
L 394.038666 189.175604 
L 394.216594 202.329817 
L 394.39444 199.825967 
L 394.572375 205.486501 
L 394.750301 189.791683 
L 394.928363 191.838219 
L 395.106202 155.294341 
L 395.46217 200.333193 
L 395.817969 208.877923 
L 395.995923 207.679869 
L 396.173762 202.291472 
L 396.351691 201.011266 
L 396.529546 201.514063 
L 396.707558 206.350488 
L 396.885389 196.534528 
L 397.063223 199.600379 
L 397.241323 213.860141 
L 397.419454 173.289631 
L 397.597285 201.190731 
L 397.775322 199.730367 
L 398.131188 210.359549 
L 398.309418 208.216485 
L 398.487273 207.82862 
L 398.487273 207.82862 
" clip-path="url(#pa5a358437f)" style="fill: none; stroke: #1f77b4; stroke-width: 1.5; stroke-linecap: square"/>
   </g>
   <g id="patch_3">
    <path d="M 57.6 307.584 
L 57.6 41.472 
" style="fill: none; stroke: #000000; stroke-width: 0.8; stroke-linejoin: miter; stroke-linecap: square"/>
   </g>
   <g id="patch_4">
    <path d="M 414.72 307.584 
L 414.72 41.472 
" style="fill: none; stroke: #000000; stroke-width: 0.8; stroke-linejoin: miter; stroke-linecap: square"/>
   </g>
   <g id="patch_5">
    <path d="M 57.6 307.584 
L 414.72 307.584 
" style="fill: none; stroke: #000000; stroke-width: 0.8; stroke-linejoin: miter; stroke-linecap: square"/>
   </g>
   <g id="patch_6">
    <path d="M 57.6 41.472 
L 414.72 41.472 
" style="fill: none; stroke: #000000; stroke-width: 0.8; stroke-linejoin: miter; stroke-linecap: square"/>
   </g>
   <g id="text_18">
    <!-- pt14 link speed per 100ms -->
    <g transform="translate(155.608125 35.472)scale(0.12 -0.12)">
     <defs>
      <path id="DejaVuSans-34" d="M 2419 4116 
L 825 1625 
L 2419 1625 
L 2419 4116 
z
M 2253 4666 
L 3047 4666 
L 3047 1625 
L 3713 1625 
L 3713 1100 
L 3047 1100 
L 3047 0 
L 2419 0 
L 2419 1100 
L 313 1100 
L 313 1709 
L 2253 4666 
z
" transform="scale(0.015625)"/>
      <path id="DejaVuSans-20" transform="scale(0.015625)"/>
      <path id="DejaVuSans-6c" d="M 603 4863 
L 1178 4863 
L 1178 0 
L 603 0 
L 603 4863 
z
" transform="scale(0.015625)"/>
      <path id="DejaVuSans-6e" d="M 3513 2113 
L 3513 0 
L 2938 0 
L 2938 2094 
Q 2938 2591 2744 2837 
Q 2550 3084 2163 3084 
Q 1697 3084 1428 2787 
Q 1159 2491 1159 1978 
L 1159 0 
L 581 0 
L 581 3500 
L 1159 3500 
L 1159 2956 
Q 1366 3272 1645 3428 
Q 1925 3584 2291 3584 
Q 2894 3584 3203 3211 
Q 3513 2838 3513 2113 
z
" transform="scale(0.015625)"/>
      <path id="DejaVuSans-6b" d="M 581 4863 
L 1159 4863 
L 1159 1991 
L 2875 3500 
L 3609 3500 
L 1753 1863 
L 3688 0 
L 2938 0 
L 1159 1709 
L 1159 0 
L 581 0 
L 581 4863 
z
" transform="scale(0.015625)"/>
      <path id="DejaVuSans-64" d="M 2906 2969 
L 2906 4863 
L 3481 4863 
L 3481 0 
L 2906 0 
L 2906 525 
Q 2725 213 2448 61 
Q 2172 -91 1784 -91 
Q 1150 -91 751 415 
Q 353 922 353 1747 
Q 353 2572 751 3078 
Q 1150 3584 1784 3584 
Q 2172 3584 2448 3432 
Q 2725 3281 2906 2969 
z
M 947 1747 
Q 947 1113 1208 752 
Q 1469 391 1925 391 
Q 2381 391 2643 752 
Q 2906 1113 2906 1747 
Q 2906 2381 2643 2742 
Q 2381 3103 1925 3103 
Q 1469 3103 1208 2742 
Q 947 2381 947 1747 
z
" transform="scale(0.015625)"/>
      <path id="DejaVuSans-72" d="M 2631 2963 
Q 2534 3019 2420 3045 
Q 2306 3072 2169 3072 
Q 1681 3072 1420 2755 
Q 1159 2438 1159 1844 
L 1159 0 
L 581 0 
L 581 3500 
L 1159 3500 
L 1159 2956 
Q 1341 3275 1631 3429 
Q 1922 3584 2338 3584 
Q 2397 3584 2469 3576 
Q 2541 3569 2628 3553 
L 2631 2963 
z
" transform="scale(0.015625)"/>
     </defs>
     <use xlink:href="#DejaVuSans-70"/>
     <use xlink:href="#DejaVuSans-74" x="63.476562"/>
     <use xlink:href="#DejaVuSans-31" x="102.685547"/>
     <use xlink:href="#DejaVuSans-34" x="166.308594"/>
     <use xlink:href="#DejaVuSans-20" x="229.931641"/>
     <use xlink:href="#DejaVuSans-6c" x="261.71875"/>
     <use xlink:href="#DejaVuSans-69" x="289.501953"/>
     <use xlink:href="#DejaVuSans-6e" x="317.285156"/>
     <use xlink:href="#DejaVuSans-6b" x="380.664062"/>
     <use xlink:href="#DejaVuSans-20" x="438.574219"/>
     <use xlink:href="#DejaVuSans-73" x="470.361328"/>
     <use xlink:href="#DejaVuSans-70" x="522.460938"/>
     <use xlink:href="#DejaVuSans-65" x="585.9375"/>
     <use xlink:href="#DejaVuSans-65" x="647.460938"/>
     <use xlink:href="#DejaVuSans-64" x="708.984375"/>
     <use xlink:href="#DejaVuSans-20" x="772.460938"/>
     <use xlink:href="#DejaVuSans-70" x="804.248047"/>
     <use xlink:href="#DejaVuSans-65" x="867.724609"/>
     <use xlink:href="#DejaVuSans-72" x="929.248047"/>
     <use xlink:href="#DejaVuSans-20" x="970.361328"/>
     <use xlink:href="#DejaVuSans-31" x="1002.148438"/>
     <use xlink:href="#DejaVuSans-30" x="1065.771484"/>
     <use xlink:href="#DejaVuSans-30" x="1129.394531"/>
     <use xlink:href="#DejaVuSans-6d" x="1193.017578"/>
     <use xlink:href="#DejaVuSans-73" x="1290.429688"/>
    </g>
   </g>
  </g>
 </g>
 <defs>
  <clipPath id="pa5a358437f">
   <rect x="57.6" y="41.472" width="357.12" height="266.112"/>
  </clipPath>
 </defs>
</svg>
