<?xml version="1.0" encoding="utf-8" standalone="no"?>
<!DOCTYPE svg PUBLIC "-//W3C//DTD SVG 1.1//EN"
  "http://www.w3.org/Graphics/SVG/1.1/DTD/svg11.dtd">
<svg xmlns:xlink="http://www.w3.org/1999/xlink" width="460.8pt" height="345.6pt" viewBox="0 0 460.8 345.6" xmlns="http://www.w3.org/2000/svg" version="1.1">
 <metadata>
  <rdf:RDF xmlns:dc="http://purl.org/dc/elements/1.1/" xmlns:cc="http://creativecommons.org/ns#" xmlns:rdf="http://www.w3.org/1999/02/22-rdf-syntax-ns#">
   <cc:Work>
    <dc:type rdf:resource="http://purl.org/dc/dcmitype/StillImage"/>
    <dc:date>2022-07-10T06:20:25.775063</dc:date>
    <dc:format>image/svg+xml</dc:format>
    <dc:creator>
     <cc:Agent>
      <dc:title>Matplotlib v3.5.2, https://matplotlib.org/</dc:title>
     </cc:Agent>
    </dc:creator>
   </cc:Work>
  </rdf:RDF>
 </metadata>
 <defs>
  <style type="text/css">*{stroke-linejoin: round; stroke-linecap: butt}</style>
 </defs>
 <g id="figure_1">
  <g id="patch_1">
   <path d="M 0 345.6 
L 460.8 345.6 
L 460.8 0 
L 0 0 
z
" style="fill: #ffffff"/>
  </g>
  <g id="axes_1">
   <g id="patch_2">
    <path d="M 57.6 307.584 
L 414.72 307.584 
L 414.72 41.472 
L 57.6 41.472 
z
" style="fill: #ffffff"/>
   </g>
   <g id="matplotlib.axis_1">
    <g id="xtick_1">
     <g id="line2d_1">
      <defs>
       <path id="m99f9ba7d08" d="M 0 0 
L 0 3.5 
" style="stroke: #000000; stroke-width: 0.8"/>
      </defs>
      <g>
       <use xlink:href="#m99f9ba7d08" x="73.18897" y="307.584" style="stroke: #000000; stroke-width: 0.8"/>
      </g>
     </g>
     <g id="text_1">
      <!-- 0 -->
      <g transform="translate(70.00772 322.182437)scale(0.1 -0.1)">
       <defs>
        <path id="DejaVuSans-30" d="M 2034 4250 
Q 1547 4250 1301 3770 
Q 1056 3291 1056 2328 
Q 1056 1369 1301 889 
Q 1547 409 2034 409 
Q 2525 409 2770 889 
Q 3016 1369 3016 2328 
Q 3016 3291 2770 3770 
Q 2525 4250 2034 4250 
z
M 2034 4750 
Q 2819 4750 3233 4129 
Q 3647 3509 3647 2328 
Q 3647 1150 3233 529 
Q 2819 -91 2034 -91 
Q 1250 -91 836 529 
Q 422 1150 422 2328 
Q 422 3509 836 4129 
Q 1250 4750 2034 4750 
z
" transform="scale(0.015625)"/>
       </defs>
       <use xlink:href="#DejaVuSans-30"/>
      </g>
     </g>
    </g>
    <g id="xtick_2">
     <g id="line2d_2">
      <g>
       <use xlink:href="#m99f9ba7d08" x="137.548615" y="307.584" style="stroke: #000000; stroke-width: 0.8"/>
      </g>
     </g>
     <g id="text_2">
      <!-- 10 -->
      <g transform="translate(131.186115 322.182437)scale(0.1 -0.1)">
       <defs>
        <path id="DejaVuSans-31" d="M 794 531 
L 1825 531 
L 1825 4091 
L 703 3866 
L 703 4441 
L 1819 4666 
L 2450 4666 
L 2450 531 
L 3481 531 
L 3481 0 
L 794 0 
L 794 531 
z
" transform="scale(0.015625)"/>
       </defs>
       <use xlink:href="#DejaVuSans-31"/>
       <use xlink:href="#DejaVuSans-30" x="63.623047"/>
      </g>
     </g>
    </g>
    <g id="xtick_3">
     <g id="line2d_3">
      <g>
       <use xlink:href="#m99f9ba7d08" x="201.90826" y="307.584" style="stroke: #000000; stroke-width: 0.8"/>
      </g>
     </g>
     <g id="text_3">
      <!-- 20 -->
      <g transform="translate(195.54576 322.182437)scale(0.1 -0.1)">
       <defs>
        <path id="DejaVuSans-32" d="M 1228 531 
L 3431 531 
L 3431 0 
L 469 0 
L 469 531 
Q 828 903 1448 1529 
Q 2069 2156 2228 2338 
Q 2531 2678 2651 2914 
Q 2772 3150 2772 3378 
Q 2772 3750 2511 3984 
Q 2250 4219 1831 4219 
Q 1534 4219 1204 4116 
Q 875 4013 500 3803 
L 500 4441 
Q 881 4594 1212 4672 
Q 1544 4750 1819 4750 
Q 2544 4750 2975 4387 
Q 3406 4025 3406 3419 
Q 3406 3131 3298 2873 
Q 3191 2616 2906 2266 
Q 2828 2175 2409 1742 
Q 1991 1309 1228 531 
z
" transform="scale(0.015625)"/>
       </defs>
       <use xlink:href="#DejaVuSans-32"/>
       <use xlink:href="#DejaVuSans-30" x="63.623047"/>
      </g>
     </g>
    </g>
    <g id="xtick_4">
     <g id="line2d_4">
      <g>
       <use xlink:href="#m99f9ba7d08" x="266.267905" y="307.584" style="stroke: #000000; stroke-width: 0.8"/>
      </g>
     </g>
     <g id="text_4">
      <!-- 30 -->
      <g transform="translate(259.905405 322.182437)scale(0.1 -0.1)">
       <defs>
        <path id="DejaVuSans-33" d="M 2597 2516 
Q 3050 2419 3304 2112 
Q 3559 1806 3559 1356 
Q 3559 666 3084 287 
Q 2609 -91 1734 -91 
Q 1441 -91 1130 -33 
Q 819 25 488 141 
L 488 750 
Q 750 597 1062 519 
Q 1375 441 1716 441 
Q 2309 441 2620 675 
Q 2931 909 2931 1356 
Q 2931 1769 2642 2001 
Q 2353 2234 1838 2234 
L 1294 2234 
L 1294 2753 
L 1863 2753 
Q 2328 2753 2575 2939 
Q 2822 3125 2822 3475 
Q 2822 3834 2567 4026 
Q 2313 4219 1838 4219 
Q 1578 4219 1281 4162 
Q 984 4106 628 3988 
L 628 4550 
Q 988 4650 1302 4700 
Q 1616 4750 1894 4750 
Q 2613 4750 3031 4423 
Q 3450 4097 3450 3541 
Q 3450 3153 3228 2886 
Q 3006 2619 2597 2516 
z
" transform="scale(0.015625)"/>
       </defs>
       <use xlink:href="#DejaVuSans-33"/>
       <use xlink:href="#DejaVuSans-30" x="63.623047"/>
      </g>
     </g>
    </g>
    <g id="xtick_5">
     <g id="line2d_5">
      <g>
       <use xlink:href="#m99f9ba7d08" x="330.627551" y="307.584" style="stroke: #000000; stroke-width: 0.8"/>
      </g>
     </g>
     <g id="text_5">
      <!-- 40 -->
      <g transform="translate(324.265051 322.182437)scale(0.1 -0.1)">
       <defs>
        <path id="DejaVuSans-34" d="M 2419 4116 
L 825 1625 
L 2419 1625 
L 2419 4116 
z
M 2253 4666 
L 3047 4666 
L 3047 1625 
L 3713 1625 
L 3713 1100 
L 3047 1100 
L 3047 0 
L 2419 0 
L 2419 1100 
L 313 1100 
L 313 1709 
L 2253 4666 
z
" transform="scale(0.015625)"/>
       </defs>
       <use xlink:href="#DejaVuSans-34"/>
       <use xlink:href="#DejaVuSans-30" x="63.623047"/>
      </g>
     </g>
    </g>
    <g id="xtick_6">
     <g id="line2d_6">
      <g>
       <use xlink:href="#m99f9ba7d08" x="394.987196" y="307.584" style="stroke: #000000; stroke-width: 0.8"/>
      </g>
     </g>
     <g id="text_6">
      <!-- 50 -->
      <g transform="translate(388.624696 322.182437)scale(0.1 -0.1)">
       <defs>
        <path id="DejaVuSans-35" d="M 691 4666 
L 3169 4666 
L 3169 4134 
L 1269 4134 
L 1269 2991 
Q 1406 3038 1543 3061 
Q 1681 3084 1819 3084 
Q 2600 3084 3056 2656 
Q 3513 2228 3513 1497 
Q 3513 744 3044 326 
Q 2575 -91 1722 -91 
Q 1428 -91 1123 -41 
Q 819 9 494 109 
L 494 744 
Q 775 591 1075 516 
Q 1375 441 1709 441 
Q 2250 441 2565 725 
Q 2881 1009 2881 1497 
Q 2881 1984 2565 2268 
Q 2250 2553 1709 2553 
Q 1456 2553 1204 2497 
Q 953 2441 691 2322 
L 691 4666 
z
" transform="scale(0.015625)"/>
       </defs>
       <use xlink:href="#DejaVuSans-35"/>
       <use xlink:href="#DejaVuSans-30" x="63.623047"/>
      </g>
     </g>
    </g>
    <g id="text_7">
     <!-- time(s) -->
     <g transform="translate(218.357656 335.860562)scale(0.1 -0.1)">
      <defs>
       <path id="DejaVuSans-74" d="M 1172 4494 
L 1172 3500 
L 2356 3500 
L 2356 3053 
L 1172 3053 
L 1172 1153 
Q 1172 725 1289 603 
Q 1406 481 1766 481 
L 2356 481 
L 2356 0 
L 1766 0 
Q 1100 0 847 248 
Q 594 497 594 1153 
L 594 3053 
L 172 3053 
L 172 3500 
L 594 3500 
L 594 4494 
L 1172 4494 
z
" transform="scale(0.015625)"/>
       <path id="DejaVuSans-69" d="M 603 3500 
L 1178 3500 
L 1178 0 
L 603 0 
L 603 3500 
z
M 603 4863 
L 1178 4863 
L 1178 4134 
L 603 4134 
L 603 4863 
z
" transform="scale(0.015625)"/>
       <path id="DejaVuSans-6d" d="M 3328 2828 
Q 3544 3216 3844 3400 
Q 4144 3584 4550 3584 
Q 5097 3584 5394 3201 
Q 5691 2819 5691 2113 
L 5691 0 
L 5113 0 
L 5113 2094 
Q 5113 2597 4934 2840 
Q 4756 3084 4391 3084 
Q 3944 3084 3684 2787 
Q 3425 2491 3425 1978 
L 3425 0 
L 2847 0 
L 2847 2094 
Q 2847 2600 2669 2842 
Q 2491 3084 2119 3084 
Q 1678 3084 1418 2786 
Q 1159 2488 1159 1978 
L 1159 0 
L 581 0 
L 581 3500 
L 1159 3500 
L 1159 2956 
Q 1356 3278 1631 3431 
Q 1906 3584 2284 3584 
Q 2666 3584 2933 3390 
Q 3200 3197 3328 2828 
z
" transform="scale(0.015625)"/>
       <path id="DejaVuSans-65" d="M 3597 1894 
L 3597 1613 
L 953 1613 
Q 991 1019 1311 708 
Q 1631 397 2203 397 
Q 2534 397 2845 478 
Q 3156 559 3463 722 
L 3463 178 
Q 3153 47 2828 -22 
Q 2503 -91 2169 -91 
Q 1331 -91 842 396 
Q 353 884 353 1716 
Q 353 2575 817 3079 
Q 1281 3584 2069 3584 
Q 2775 3584 3186 3129 
Q 3597 2675 3597 1894 
z
M 3022 2063 
Q 3016 2534 2758 2815 
Q 2500 3097 2075 3097 
Q 1594 3097 1305 2825 
Q 1016 2553 972 2059 
L 3022 2063 
z
" transform="scale(0.015625)"/>
       <path id="DejaVuSans-28" d="M 1984 4856 
Q 1566 4138 1362 3434 
Q 1159 2731 1159 2009 
Q 1159 1288 1364 580 
Q 1569 -128 1984 -844 
L 1484 -844 
Q 1016 -109 783 600 
Q 550 1309 550 2009 
Q 550 2706 781 3412 
Q 1013 4119 1484 4856 
L 1984 4856 
z
" transform="scale(0.015625)"/>
       <path id="DejaVuSans-73" d="M 2834 3397 
L 2834 2853 
Q 2591 2978 2328 3040 
Q 2066 3103 1784 3103 
Q 1356 3103 1142 2972 
Q 928 2841 928 2578 
Q 928 2378 1081 2264 
Q 1234 2150 1697 2047 
L 1894 2003 
Q 2506 1872 2764 1633 
Q 3022 1394 3022 966 
Q 3022 478 2636 193 
Q 2250 -91 1575 -91 
Q 1294 -91 989 -36 
Q 684 19 347 128 
L 347 722 
Q 666 556 975 473 
Q 1284 391 1588 391 
Q 1994 391 2212 530 
Q 2431 669 2431 922 
Q 2431 1156 2273 1281 
Q 2116 1406 1581 1522 
L 1381 1569 
Q 847 1681 609 1914 
Q 372 2147 372 2553 
Q 372 3047 722 3315 
Q 1072 3584 1716 3584 
Q 2034 3584 2315 3537 
Q 2597 3491 2834 3397 
z
" transform="scale(0.015625)"/>
       <path id="DejaVuSans-29" d="M 513 4856 
L 1013 4856 
Q 1481 4119 1714 3412 
Q 1947 2706 1947 2009 
Q 1947 1309 1714 600 
Q 1481 -109 1013 -844 
L 513 -844 
Q 928 -128 1133 580 
Q 1338 1288 1338 2009 
Q 1338 2731 1133 3434 
Q 928 4138 513 4856 
z
" transform="scale(0.015625)"/>
      </defs>
      <use xlink:href="#DejaVuSans-74"/>
      <use xlink:href="#DejaVuSans-69" x="39.208984"/>
      <use xlink:href="#DejaVuSans-6d" x="66.992188"/>
      <use xlink:href="#DejaVuSans-65" x="164.404297"/>
      <use xlink:href="#DejaVuSans-28" x="225.927734"/>
      <use xlink:href="#DejaVuSans-73" x="264.941406"/>
      <use xlink:href="#DejaVuSans-29" x="317.041016"/>
     </g>
    </g>
   </g>
   <g id="matplotlib.axis_2">
    <g id="ytick_1">
     <g id="line2d_7">
      <defs>
       <path id="m23dadb7263" d="M 0 0 
L -3.5 0 
" style="stroke: #000000; stroke-width: 0.8"/>
      </defs>
      <g>
       <use xlink:href="#m23dadb7263" x="57.6" y="307.584" style="stroke: #000000; stroke-width: 0.8"/>
      </g>
     </g>
     <g id="text_8">
      <!-- 0 -->
      <g transform="translate(44.2375 311.383219)scale(0.1 -0.1)">
       <use xlink:href="#DejaVuSans-30"/>
      </g>
     </g>
    </g>
    <g id="ytick_2">
     <g id="line2d_8">
      <g>
       <use xlink:href="#m23dadb7263" x="57.6" y="263.232" style="stroke: #000000; stroke-width: 0.8"/>
      </g>
     </g>
     <g id="text_9">
      <!-- 50 -->
      <g transform="translate(37.875 267.031219)scale(0.1 -0.1)">
       <use xlink:href="#DejaVuSans-35"/>
       <use xlink:href="#DejaVuSans-30" x="63.623047"/>
      </g>
     </g>
    </g>
    <g id="ytick_3">
     <g id="line2d_9">
      <g>
       <use xlink:href="#m23dadb7263" x="57.6" y="218.88" style="stroke: #000000; stroke-width: 0.8"/>
      </g>
     </g>
     <g id="text_10">
      <!-- 100 -->
      <g transform="translate(31.5125 222.679219)scale(0.1 -0.1)">
       <use xlink:href="#DejaVuSans-31"/>
       <use xlink:href="#DejaVuSans-30" x="63.623047"/>
       <use xlink:href="#DejaVuSans-30" x="127.246094"/>
      </g>
     </g>
    </g>
    <g id="ytick_4">
     <g id="line2d_10">
      <g>
       <use xlink:href="#m23dadb7263" x="57.6" y="174.528" style="stroke: #000000; stroke-width: 0.8"/>
      </g>
     </g>
     <g id="text_11">
      <!-- 150 -->
      <g transform="translate(31.5125 178.327219)scale(0.1 -0.1)">
       <use xlink:href="#DejaVuSans-31"/>
       <use xlink:href="#DejaVuSans-35" x="63.623047"/>
       <use xlink:href="#DejaVuSans-30" x="127.246094"/>
      </g>
     </g>
    </g>
    <g id="ytick_5">
     <g id="line2d_11">
      <g>
       <use xlink:href="#m23dadb7263" x="57.6" y="130.176" style="stroke: #000000; stroke-width: 0.8"/>
      </g>
     </g>
     <g id="text_12">
      <!-- 200 -->
      <g transform="translate(31.5125 133.975219)scale(0.1 -0.1)">
       <use xlink:href="#DejaVuSans-32"/>
       <use xlink:href="#DejaVuSans-30" x="63.623047"/>
       <use xlink:href="#DejaVuSans-30" x="127.246094"/>
      </g>
     </g>
    </g>
    <g id="ytick_6">
     <g id="line2d_12">
      <g>
       <use xlink:href="#m23dadb7263" x="57.6" y="85.824" style="stroke: #000000; stroke-width: 0.8"/>
      </g>
     </g>
     <g id="text_13">
      <!-- 250 -->
      <g transform="translate(31.5125 89.623219)scale(0.1 -0.1)">
       <use xlink:href="#DejaVuSans-32"/>
       <use xlink:href="#DejaVuSans-35" x="63.623047"/>
       <use xlink:href="#DejaVuSans-30" x="127.246094"/>
      </g>
     </g>
    </g>
    <g id="ytick_7">
     <g id="line2d_13">
      <g>
       <use xlink:href="#m23dadb7263" x="57.6" y="41.472" style="stroke: #000000; stroke-width: 0.8"/>
      </g>
     </g>
     <g id="text_14">
      <!-- 300 -->
      <g transform="translate(31.5125 45.271219)scale(0.1 -0.1)">
       <use xlink:href="#DejaVuSans-33"/>
       <use xlink:href="#DejaVuSans-30" x="63.623047"/>
       <use xlink:href="#DejaVuSans-30" x="127.246094"/>
      </g>
     </g>
    </g>
    <g id="text_15">
     <!-- Mbps -->
     <g transform="translate(25.432812 187.795187)rotate(-90)scale(0.1 -0.1)">
      <defs>
       <path id="DejaVuSans-4d" d="M 628 4666 
L 1569 4666 
L 2759 1491 
L 3956 4666 
L 4897 4666 
L 4897 0 
L 4281 0 
L 4281 4097 
L 3078 897 
L 2444 897 
L 1241 4097 
L 1241 0 
L 628 0 
L 628 4666 
z
" transform="scale(0.015625)"/>
       <path id="DejaVuSans-62" d="M 3116 1747 
Q 3116 2381 2855 2742 
Q 2594 3103 2138 3103 
Q 1681 3103 1420 2742 
Q 1159 2381 1159 1747 
Q 1159 1113 1420 752 
Q 1681 391 2138 391 
Q 2594 391 2855 752 
Q 3116 1113 3116 1747 
z
M 1159 2969 
Q 1341 3281 1617 3432 
Q 1894 3584 2278 3584 
Q 2916 3584 3314 3078 
Q 3713 2572 3713 1747 
Q 3713 922 3314 415 
Q 2916 -91 2278 -91 
Q 1894 -91 1617 61 
Q 1341 213 1159 525 
L 1159 0 
L 581 0 
L 581 4863 
L 1159 4863 
L 1159 2969 
z
" transform="scale(0.015625)"/>
       <path id="DejaVuSans-70" d="M 1159 525 
L 1159 -1331 
L 581 -1331 
L 581 3500 
L 1159 3500 
L 1159 2969 
Q 1341 3281 1617 3432 
Q 1894 3584 2278 3584 
Q 2916 3584 3314 3078 
Q 3713 2572 3713 1747 
Q 3713 922 3314 415 
Q 2916 -91 2278 -91 
Q 1894 -91 1617 61 
Q 1341 213 1159 525 
z
M 3116 1747 
Q 3116 2381 2855 2742 
Q 2594 3103 2138 3103 
Q 1681 3103 1420 2742 
Q 1159 2381 1159 1747 
Q 1159 1113 1420 752 
Q 1681 391 2138 391 
Q 2594 391 2855 752 
Q 3116 1113 3116 1747 
z
" transform="scale(0.015625)"/>
      </defs>
      <use xlink:href="#DejaVuSans-4d"/>
      <use xlink:href="#DejaVuSans-62" x="86.279297"/>
      <use xlink:href="#DejaVuSans-70" x="149.755859"/>
      <use xlink:href="#DejaVuSans-73" x="213.232422"/>
     </g>
    </g>
   </g>
   <g id="line2d_14">
    <path d="M 73.832727 204.014108 
L 74.478197 207.685853 
L 75.122475 206.911864 
L 75.766162 202.773423 
L 76.409951 207.136917 
L 77.697749 207.721388 
L 78.342401 203.580897 
L 78.986139 208.063618 
L 79.632542 207.517154 
L 80.27666 199.482892 
L 80.920475 196.212642 
L 81.564181 195.99329 
L 82.208427 198.112385 
L 82.852049 172.556118 
L 83.495665 193.330271 
L 84.139326 197.89828 
L 84.783019 195.59623 
L 85.427497 194.690941 
L 86.0711 204.769545 
L 86.71516 206.031037 
L 87.361504 207.61311 
L 88.00588 202.482912 
L 88.650538 203.656594 
L 89.295203 211.197191 
L 89.93896 210.713688 
L 90.583232 212.860689 
L 91.226874 207.656876 
L 91.87058 193.002326 
L 92.514936 156.869553 
L 93.15859 195.57212 
L 93.802199 194.240297 
L 94.446465 213.390919 
L 95.734623 179.131236 
L 96.37952 182.550627 
L 97.024352 182.061205 
L 97.668425 186.042628 
L 98.312304 183.098891 
L 98.956853 174.493117 
L 99.600463 182.694566 
L 100.244336 181.477779 
L 100.888402 186.529743 
L 101.532166 185.635863 
L 102.176657 166.87928 
L 102.820582 184.087114 
L 103.464243 176.465946 
L 104.108045 156.488577 
L 104.751822 187.404416 
L 105.39574 181.437291 
L 106.03962 184.090175 
L 106.683396 182.302075 
L 107.327617 191.60445 
L 107.971303 186.224274 
L 108.615376 188.091958 
L 109.258979 188.531107 
L 109.902827 186.8832 
L 110.546816 174.790037 
L 111.190721 167.685725 
L 111.834807 166.482336 
L 113.122263 188.547745 
L 113.766336 136.391743 
L 114.409945 179.863271 
L 115.054308 181.01118 
L 115.698136 178.362401 
L 116.342427 186.955848 
L 116.986307 179.291773 
L 118.275321 203.063319 
L 118.919008 190.861581 
L 119.562984 190.073902 
L 120.206683 195.363296 
L 120.850421 184.941319 
L 121.495221 188.83873 
L 122.139024 178.820597 
L 122.783 182.518772 
L 123.426622 187.20876 
L 124.070238 189.622358 
L 125.357946 151.469342 
L 126.001684 188.724375 
L 126.645795 190.736097 
L 127.28981 186.026015 
L 127.933921 188.873661 
L 128.577634 185.503029 
L 129.221989 186.186554 
L 129.865631 182.662711 
L 130.510013 182.431458 
L 131.153635 186.335642 
L 131.797482 177.167258 
L 132.44151 186.492998 
L 133.085261 183.407697 
L 133.729173 189.433554 
L 135.019365 172.850434 
L 135.664004 187.030679 
L 136.307677 182.970686 
L 136.951705 183.097069 
L 137.59543 189.88606 
L 138.239162 188.657487 
L 138.882791 182.648302 
L 140.170479 189.852137 
L 140.81533 191.486077 
L 141.459397 197.931016 
L 142.103379 185.055733 
L 142.747182 150.567149 
L 143.390978 195.915477 
L 144.034973 195.32987 
L 144.678583 193.362559 
L 145.322514 188.891102 
L 145.966162 196.725456 
L 146.610781 199.20437 
L 147.255485 203.540087 
L 147.899306 179.206896 
L 148.543083 169.20865 
L 149.186943 132.754323 
L 149.830559 188.132521 
L 150.474368 124.998554 
L 151.11911 191.162714 
L 151.762752 153.455347 
L 153.050279 204.240975 
L 153.694603 205.133739 
L 154.339905 262.208322 
L 154.985052 280.948472 
L 155.629202 282.993158 
L 156.273095 282.384671 
L 156.922297 282.01734 
L 157.566608 290.17282 
L 158.284166 289.329652 
L 158.930427 299.328908 
L 159.574127 231.454227 
L 160.217826 207.452452 
L 160.86159 205.942522 
L 161.505328 202.504531 
L 162.148989 194.784422 
L 162.792817 202.449827 
L 163.436613 198.127789 
L 164.080222 198.490928 
L 164.724385 202.305927 
L 165.369153 191.356105 
L 166.012975 197.025716 
L 166.656648 207.064298 
L 167.301564 194.001272 
L 167.946107 200.808826 
L 168.589993 194.281166 
L 169.234111 196.12605 
L 169.877887 192.818925 
L 170.522172 188.684412 
L 171.16685 191.414314 
L 171.810594 185.594925 
L 172.454635 194.006308 
L 173.098302 196.364252 
L 173.74206 197.73002 
L 174.385849 205.425842 
L 175.029555 200.696702 
L 175.67337 199.54833 
L 176.317881 210.383948 
L 177.605292 196.004594 
L 178.249249 190.872835 
L 178.892859 199.314458 
L 179.537375 193.029919 
L 180.181899 191.075342 
L 180.825823 199.416455 
L 181.470186 196.321998 
L 182.113969 201.475934 
L 182.757739 197.027495 
L 183.401619 199.682177 
L 184.045241 181.24304 
L 184.688998 197.49274 
L 185.332903 193.314558 
L 185.976648 199.516692 
L 186.620251 196.993405 
L 187.26406 206.841375 
L 187.907926 199.915635 
L 188.5516 188.461173 
L 189.195776 187.628086 
L 189.83963 187.007121 
L 190.483374 188.534829 
L 191.127151 210.527899 
L 191.770812 200.47498 
L 192.414511 212.711034 
L 193.058494 212.691206 
L 193.702225 211.908372 
L 194.346008 210.288149 
L 194.989894 199.957963 
L 195.633645 193.193499 
L 196.278181 203.876369 
L 196.922563 201.442011 
L 197.566404 186.759411 
L 198.210065 184.779897 
L 198.854665 204.621822 
L 199.498893 194.995077 
L 200.142759 201.236179 
L 200.786716 185.054149 
L 201.430596 178.292235 
L 202.07463 188.790781 
L 202.718458 176.157303 
L 203.362132 180.980039 
L 204.005741 208.116261 
L 204.649363 205.049683 
L 205.293217 203.765333 
L 205.936891 196.071687 
L 206.581446 198.241889 
L 207.226941 199.450389 
L 207.870982 199.880506 
L 208.514681 202.79142 
L 209.158419 200.319423 
L 209.802891 198.506409 
L 210.44708 201.881059 
L 211.090863 192.834956 
L 211.734607 193.107713 
L 212.378236 200.702554 
L 213.021948 192.619481 
L 213.665564 188.510749 
L 214.309772 174.245639 
L 214.953388 196.629975 
L 215.598097 198.564534 
L 216.242801 196.378501 
L 216.88688 198.522289 
L 217.531178 187.44852 
L 218.174781 200.570643 
L 218.818474 198.762237 
L 219.462263 198.010192 
L 220.106079 198.932351 
L 220.750518 193.442463 
L 221.39434 202.673178 
L 222.03811 196.942518 
L 222.681752 189.503577 
L 223.325509 197.947814 
L 223.969324 198.173219 
L 224.613191 193.345587 
L 225.256858 185.407937 
L 225.901375 182.708218 
L 226.544997 198.748643 
L 227.188664 200.107259 
L 227.833143 192.813479 
L 228.477537 199.132621 
L 229.121513 197.813746 
L 229.765927 201.624262 
L 230.409717 185.487026 
L 231.05406 143.327938 
L 231.697959 193.760881 
L 232.341954 195.883115 
L 232.985744 193.270181 
L 233.630228 193.357246 
L 234.274378 194.43232 
L 234.918 197.21463 
L 235.561603 197.842389 
L 236.206242 188.587542 
L 236.850264 183.705926 
L 237.494015 189.029528 
L 238.13772 201.558745 
L 238.781375 202.462316 
L 239.425789 195.255464 
L 240.069449 200.083921 
L 240.71385 195.096747 
L 241.357691 196.27108 
L 242.001359 195.980032 
L 242.645579 193.455009 
L 243.289523 196.670907 
L 243.933191 189.781003 
L 245.221497 191.427604 
L 245.866792 190.385981 
L 246.51064 188.012133 
L 247.154378 199.014921 
L 247.798148 204.241613 
L 249.085496 198.447684 
L 249.729465 204.710089 
L 250.374027 208.722557 
L 251.017682 201.830078 
L 251.662031 204.467205 
L 252.305923 201.39182 
L 252.950157 205.67556 
L 253.594378 198.941982 
L 254.238579 206.589793 
L 254.882253 198.242262 
L 255.527555 196.125873 
L 256.171274 199.959825 
L 256.81498 200.952202 
L 257.458595 205.995278 
L 258.102655 200.733536 
L 258.74629 211.810176 
L 259.390878 208.408783 
L 260.034809 197.348613 
L 260.678508 199.355055 
L 261.32271 188.004274 
L 261.967246 197.056622 
L 262.6109 194.530345 
L 263.2546 174.679947 
L 263.898647 175.391565 
L 264.54225 197.695737 
L 265.187403 205.248972 
L 265.831328 201.221395 
L 266.475105 200.371593 
L 267.118746 202.779621 
L 267.76262 191.307317 
L 268.406261 192.87779 
L 269.049993 152.329786 
L 269.693686 184.28937 
L 270.337327 195.507893 
L 270.980994 184.877552 
L 272.268792 207.702198 
L 272.912402 199.212743 
L 273.556095 206.340517 
L 274.199781 207.402339 
L 274.843436 195.474473 
L 275.487038 190.917263 
L 276.130712 192.000259 
L 276.774495 195.067948 
L 277.418182 194.022342 
L 278.062724 201.627177 
L 278.706559 202.263147 
L 279.354268 212.843219 
L 279.998225 201.449171 
L 280.642458 192.211393 
L 281.28619 196.631065 
L 281.93025 202.753355 
L 282.573872 196.351933 
L 283.862301 187.52791 
L 284.506109 199.580941 
L 285.149854 176.261265 
L 285.793483 192.990607 
L 286.437098 190.23934 
L 287.081184 202.274233 
L 287.724999 195.662422 
L 288.368654 195.133011 
L 289.01263 209.381645 
L 289.656316 198.227532 
L 290.300067 194.274157 
L 290.944179 203.360119 
L 291.587807 202.362422 
L 292.232453 201.96808 
L 292.876268 209.028987 
L 293.520579 205.057263 
L 294.164195 210.298381 
L 294.808332 195.560918 
L 295.452134 186.430807 
L 296.095898 197.340257 
L 296.739681 193.412469 
L 297.383361 187.123166 
L 298.027376 209.822812 
L 298.671223 191.506427 
L 299.314839 202.698213 
L 299.958699 203.169918 
L 300.602611 201.917882 
L 301.246369 206.303548 
L 301.890506 180.911807 
L 302.534115 185.39931 
L 303.177859 182.437087 
L 303.821816 175.917351 
L 304.465619 198.393411 
L 305.109839 198.066565 
L 305.753571 200.140536 
L 306.397354 198.844447 
L 307.041324 192.087553 
L 307.684933 193.839732 
L 308.328555 205.212504 
L 308.972197 192.414785 
L 309.616044 200.4145 
L 310.259905 205.388098 
L 310.903598 204.61484 
L 311.547368 210.696208 
L 312.191157 201.814528 
L 312.835533 203.482695 
L 313.479354 220.141154 
L 314.123807 208.309719 
L 314.768407 207.772966 
L 315.412074 215.97183 
L 316.056623 203.313169 
L 316.700638 209.918241 
L 317.345084 212.393592 
L 317.989517 208.964578 
L 318.633506 212.546469 
L 319.277116 212.185592 
L 319.920976 211.561861 
L 320.564618 209.153015 
L 321.209475 208.293857 
L 321.853181 208.115346 
L 322.497299 213.790416 
L 323.140992 217.004012 
L 323.784601 207.626772 
L 324.428829 213.89133 
L 325.072438 215.366832 
L 325.716124 205.900215 
L 326.359953 199.266895 
L 327.003813 203.632969 
L 327.64831 201.952945 
L 328.292602 194.945751 
L 328.936617 203.629766 
L 329.581043 200.753809 
L 330.224814 180.803156 
L 330.869247 183.065834 
L 331.514742 203.99218 
L 332.15837 192.006786 
L 332.801993 183.256111 
L 333.446162 196.796983 
L 334.090177 192.211148 
L 334.734043 193.479394 
L 335.378303 188.082901 
L 336.022266 194.309026 
L 336.666249 183.75707 
L 337.309935 184.515361 
L 337.953615 162.64186 
L 338.598087 184.169641 
L 339.885911 191.765625 
L 340.529584 204.862122 
L 341.173245 199.559013 
L 341.817312 197.682556 
L 343.105058 159.075478 
L 343.748777 132.3739 
L 344.392534 122.766364 
L 345.0368 118.123722 
L 345.680461 116.544696 
L 346.32501 184.522037 
L 346.968761 204.871469 
L 347.613097 201.218005 
L 348.256739 199.9574 
L 348.900367 201.381172 
L 349.544434 196.707383 
L 350.832611 209.905649 
L 351.476233 199.763604 
L 352.120718 201.144306 
L 352.765093 191.944874 
L 353.408696 160.585146 
L 354.052878 167.021475 
L 354.697002 212.07995 
L 355.340721 215.865484 
L 355.985013 214.196857 
L 356.628821 215.598641 
L 357.273216 210.1249 
L 357.917005 213.375158 
L 358.562288 212.478744 
L 359.206194 211.943459 
L 359.849822 220.044678 
L 361.137594 202.3339 
L 361.781236 205.939249 
L 362.424942 211.897508 
L 363.069066 209.171194 
L 363.713589 212.049198 
L 364.357514 216.290994 
L 365.001825 209.035567 
L 365.645498 214.416254 
L 366.289217 205.641413 
L 366.933316 215.308379 
L 367.57724 216.317103 
L 368.221036 211.417764 
L 368.864774 214.638227 
L 369.508396 207.034331 
L 370.153229 192.222636 
L 370.796851 190.084053 
L 371.440808 193.468169 
L 372.084436 195.364352 
L 372.728264 181.477343 
L 373.372266 190.511046 
L 374.016004 192.805409 
L 374.659968 192.458336 
L 375.304073 195.277191 
L 375.948132 200.609305 
L 376.592231 200.66975 
L 377.236297 193.96121 
L 378.524069 199.958866 
L 379.168168 191.872399 
L 379.812034 194.024632 
L 380.455991 193.699085 
L 381.099768 184.794756 
L 381.74339 198.445197 
L 382.387321 193.953528 
L 383.031008 191.511516 
L 383.674765 195.640037 
L 384.318561 194.935767 
L 384.962183 197.572011 
L 385.605954 192.605468 
L 386.250232 183.376909 
L 386.893835 183.646927 
L 387.538313 182.863206 
L 388.182051 166.759077 
L 388.826034 122.907033 
L 389.469688 182.647953 
L 390.113446 184.513131 
L 390.758214 192.849765 
L 391.402627 190.607101 
L 392.046301 195.259269 
L 392.690766 198.134348 
L 393.334479 190.561628 
L 393.978152 193.040176 
L 394.621942 192.538216 
L 395.265654 192.53436 
L 395.911072 191.572299 
L 396.5549 183.808273 
L 397.198516 190.082607 
L 397.842119 195.053498 
L 398.487273 194.502888 
L 398.487273 194.502888 
" clip-path="url(#p83a4a23cdf)" style="fill: none; stroke: #1f77b4; stroke-width: 1.5; stroke-linecap: square"/>
   </g>
   <g id="patch_3">
    <path d="M 57.6 307.584 
L 57.6 41.472 
" style="fill: none; stroke: #000000; stroke-width: 0.8; stroke-linejoin: miter; stroke-linecap: square"/>
   </g>
   <g id="patch_4">
    <path d="M 414.72 307.584 
L 414.72 41.472 
" style="fill: none; stroke: #000000; stroke-width: 0.8; stroke-linejoin: miter; stroke-linecap: square"/>
   </g>
   <g id="patch_5">
    <path d="M 57.6 307.584 
L 414.72 307.584 
" style="fill: none; stroke: #000000; stroke-width: 0.8; stroke-linejoin: miter; stroke-linecap: square"/>
   </g>
   <g id="patch_6">
    <path d="M 57.6 41.472 
L 414.72 41.472 
" style="fill: none; stroke: #000000; stroke-width: 0.8; stroke-linejoin: miter; stroke-linecap: square"/>
   </g>
   <g id="text_16">
    <!-- pt15 link speed per 100ms -->
    <g transform="translate(155.608125 35.472)scale(0.12 -0.12)">
     <defs>
      <path id="DejaVuSans-20" transform="scale(0.015625)"/>
      <path id="DejaVuSans-6c" d="M 603 4863 
L 1178 4863 
L 1178 0 
L 603 0 
L 603 4863 
z
" transform="scale(0.015625)"/>
      <path id="DejaVuSans-6e" d="M 3513 2113 
L 3513 0 
L 2938 0 
L 2938 2094 
Q 2938 2591 2744 2837 
Q 2550 3084 2163 3084 
Q 1697 3084 1428 2787 
Q 1159 2491 1159 1978 
L 1159 0 
L 581 0 
L 581 3500 
L 1159 3500 
L 1159 2956 
Q 1366 3272 1645 3428 
Q 1925 3584 2291 3584 
Q 2894 3584 3203 3211 
Q 3513 2838 3513 2113 
z
" transform="scale(0.015625)"/>
      <path id="DejaVuSans-6b" d="M 581 4863 
L 1159 4863 
L 1159 1991 
L 2875 3500 
L 3609 3500 
L 1753 1863 
L 3688 0 
L 2938 0 
L 1159 1709 
L 1159 0 
L 581 0 
L 581 4863 
z
" transform="scale(0.015625)"/>
      <path id="DejaVuSans-64" d="M 2906 2969 
L 2906 4863 
L 3481 4863 
L 3481 0 
L 2906 0 
L 2906 525 
Q 2725 213 2448 61 
Q 2172 -91 1784 -91 
Q 1150 -91 751 415 
Q 353 922 353 1747 
Q 353 2572 751 3078 
Q 1150 3584 1784 3584 
Q 2172 3584 2448 3432 
Q 2725 3281 2906 2969 
z
M 947 1747 
Q 947 1113 1208 752 
Q 1469 391 1925 391 
Q 2381 391 2643 752 
Q 2906 1113 2906 1747 
Q 2906 2381 2643 2742 
Q 2381 3103 1925 3103 
Q 1469 3103 1208 2742 
Q 947 2381 947 1747 
z
" transform="scale(0.015625)"/>
      <path id="DejaVuSans-72" d="M 2631 2963 
Q 2534 3019 2420 3045 
Q 2306 3072 2169 3072 
Q 1681 3072 1420 2755 
Q 1159 2438 1159 1844 
L 1159 0 
L 581 0 
L 581 3500 
L 1159 3500 
L 1159 2956 
Q 1341 3275 1631 3429 
Q 1922 3584 2338 3584 
Q 2397 3584 2469 3576 
Q 2541 3569 2628 3553 
L 2631 2963 
z
" transform="scale(0.015625)"/>
     </defs>
     <use xlink:href="#DejaVuSans-70"/>
     <use xlink:href="#DejaVuSans-74" x="63.476562"/>
     <use xlink:href="#DejaVuSans-31" x="102.685547"/>
     <use xlink:href="#DejaVuSans-35" x="166.308594"/>
     <use xlink:href="#DejaVuSans-20" x="229.931641"/>
     <use xlink:href="#DejaVuSans-6c" x="261.71875"/>
     <use xlink:href="#DejaVuSans-69" x="289.501953"/>
     <use xlink:href="#DejaVuSans-6e" x="317.285156"/>
     <use xlink:href="#DejaVuSans-6b" x="380.664062"/>
     <use xlink:href="#DejaVuSans-20" x="438.574219"/>
     <use xlink:href="#DejaVuSans-73" x="470.361328"/>
     <use xlink:href="#DejaVuSans-70" x="522.460938"/>
     <use xlink:href="#DejaVuSans-65" x="585.9375"/>
     <use xlink:href="#DejaVuSans-65" x="647.460938"/>
     <use xlink:href="#DejaVuSans-64" x="708.984375"/>
     <use xlink:href="#DejaVuSans-20" x="772.460938"/>
     <use xlink:href="#DejaVuSans-70" x="804.248047"/>
     <use xlink:href="#DejaVuSans-65" x="867.724609"/>
     <use xlink:href="#DejaVuSans-72" x="929.248047"/>
     <use xlink:href="#DejaVuSans-20" x="970.361328"/>
     <use xlink:href="#DejaVuSans-31" x="1002.148438"/>
     <use xlink:href="#DejaVuSans-30" x="1065.771484"/>
     <use xlink:href="#DejaVuSans-30" x="1129.394531"/>
     <use xlink:href="#DejaVuSans-6d" x="1193.017578"/>
     <use xlink:href="#DejaVuSans-73" x="1290.429688"/>
    </g>
   </g>
  </g>
 </g>
 <defs>
  <clipPath id="p83a4a23cdf">
   <rect x="57.6" y="41.472" width="357.12" height="266.112"/>
  </clipPath>
 </defs>
</svg>
