<?xml version="1.0" encoding="utf-8" standalone="no"?>
<!DOCTYPE svg PUBLIC "-//W3C//DTD SVG 1.1//EN"
  "http://www.w3.org/Graphics/SVG/1.1/DTD/svg11.dtd">
<svg xmlns:xlink="http://www.w3.org/1999/xlink" width="460.8pt" height="345.6pt" viewBox="0 0 460.8 345.6" xmlns="http://www.w3.org/2000/svg" version="1.1">
 <metadata>
  <rdf:RDF xmlns:dc="http://purl.org/dc/elements/1.1/" xmlns:cc="http://creativecommons.org/ns#" xmlns:rdf="http://www.w3.org/1999/02/22-rdf-syntax-ns#">
   <cc:Work>
    <dc:type rdf:resource="http://purl.org/dc/dcmitype/StillImage"/>
    <dc:date>2022-07-10T06:58:48.030061</dc:date>
    <dc:format>image/svg+xml</dc:format>
    <dc:creator>
     <cc:Agent>
      <dc:title>Matplotlib v3.5.2, https://matplotlib.org/</dc:title>
     </cc:Agent>
    </dc:creator>
   </cc:Work>
  </rdf:RDF>
 </metadata>
 <defs>
  <style type="text/css">*{stroke-linejoin: round; stroke-linecap: butt}</style>
 </defs>
 <g id="figure_1">
  <g id="patch_1">
   <path d="M 0 345.6 
L 460.8 345.6 
L 460.8 0 
L 0 0 
z
" style="fill: #ffffff"/>
  </g>
  <g id="axes_1">
   <g id="patch_2">
    <path d="M 57.6 307.584 
L 414.72 307.584 
L 414.72 41.472 
L 57.6 41.472 
z
" style="fill: #ffffff"/>
   </g>
   <g id="matplotlib.axis_1">
    <g id="xtick_1">
     <g id="line2d_1">
      <defs>
       <path id="m6a0a816696" d="M 0 0 
L 0 3.5 
" style="stroke: #000000; stroke-width: 0.8"/>
      </defs>
      <g>
       <use xlink:href="#m6a0a816696" x="73.187439" y="307.584" style="stroke: #000000; stroke-width: 0.8"/>
      </g>
     </g>
     <g id="text_1">
      <!-- 0 -->
      <g transform="translate(70.006189 322.182437)scale(0.1 -0.1)">
       <defs>
        <path id="DejaVuSans-30" d="M 2034 4250 
Q 1547 4250 1301 3770 
Q 1056 3291 1056 2328 
Q 1056 1369 1301 889 
Q 1547 409 2034 409 
Q 2525 409 2770 889 
Q 3016 1369 3016 2328 
Q 3016 3291 2770 3770 
Q 2525 4250 2034 4250 
z
M 2034 4750 
Q 2819 4750 3233 4129 
Q 3647 3509 3647 2328 
Q 3647 1150 3233 529 
Q 2819 -91 2034 -91 
Q 1250 -91 836 529 
Q 422 1150 422 2328 
Q 422 3509 836 4129 
Q 1250 4750 2034 4750 
z
" transform="scale(0.015625)"/>
       </defs>
       <use xlink:href="#DejaVuSans-30"/>
      </g>
     </g>
    </g>
    <g id="xtick_2">
     <g id="line2d_2">
      <g>
       <use xlink:href="#m6a0a816696" x="137.688558" y="307.584" style="stroke: #000000; stroke-width: 0.8"/>
      </g>
     </g>
     <g id="text_2">
      <!-- 10 -->
      <g transform="translate(131.326058 322.182437)scale(0.1 -0.1)">
       <defs>
        <path id="DejaVuSans-31" d="M 794 531 
L 1825 531 
L 1825 4091 
L 703 3866 
L 703 4441 
L 1819 4666 
L 2450 4666 
L 2450 531 
L 3481 531 
L 3481 0 
L 794 0 
L 794 531 
z
" transform="scale(0.015625)"/>
       </defs>
       <use xlink:href="#DejaVuSans-31"/>
       <use xlink:href="#DejaVuSans-30" x="63.623047"/>
      </g>
     </g>
    </g>
    <g id="xtick_3">
     <g id="line2d_3">
      <g>
       <use xlink:href="#m6a0a816696" x="202.189676" y="307.584" style="stroke: #000000; stroke-width: 0.8"/>
      </g>
     </g>
     <g id="text_3">
      <!-- 20 -->
      <g transform="translate(195.827176 322.182437)scale(0.1 -0.1)">
       <defs>
        <path id="DejaVuSans-32" d="M 1228 531 
L 3431 531 
L 3431 0 
L 469 0 
L 469 531 
Q 828 903 1448 1529 
Q 2069 2156 2228 2338 
Q 2531 2678 2651 2914 
Q 2772 3150 2772 3378 
Q 2772 3750 2511 3984 
Q 2250 4219 1831 4219 
Q 1534 4219 1204 4116 
Q 875 4013 500 3803 
L 500 4441 
Q 881 4594 1212 4672 
Q 1544 4750 1819 4750 
Q 2544 4750 2975 4387 
Q 3406 4025 3406 3419 
Q 3406 3131 3298 2873 
Q 3191 2616 2906 2266 
Q 2828 2175 2409 1742 
Q 1991 1309 1228 531 
z
" transform="scale(0.015625)"/>
       </defs>
       <use xlink:href="#DejaVuSans-32"/>
       <use xlink:href="#DejaVuSans-30" x="63.623047"/>
      </g>
     </g>
    </g>
    <g id="xtick_4">
     <g id="line2d_4">
      <g>
       <use xlink:href="#m6a0a816696" x="266.690795" y="307.584" style="stroke: #000000; stroke-width: 0.8"/>
      </g>
     </g>
     <g id="text_4">
      <!-- 30 -->
      <g transform="translate(260.328295 322.182437)scale(0.1 -0.1)">
       <defs>
        <path id="DejaVuSans-33" d="M 2597 2516 
Q 3050 2419 3304 2112 
Q 3559 1806 3559 1356 
Q 3559 666 3084 287 
Q 2609 -91 1734 -91 
Q 1441 -91 1130 -33 
Q 819 25 488 141 
L 488 750 
Q 750 597 1062 519 
Q 1375 441 1716 441 
Q 2309 441 2620 675 
Q 2931 909 2931 1356 
Q 2931 1769 2642 2001 
Q 2353 2234 1838 2234 
L 1294 2234 
L 1294 2753 
L 1863 2753 
Q 2328 2753 2575 2939 
Q 2822 3125 2822 3475 
Q 2822 3834 2567 4026 
Q 2313 4219 1838 4219 
Q 1578 4219 1281 4162 
Q 984 4106 628 3988 
L 628 4550 
Q 988 4650 1302 4700 
Q 1616 4750 1894 4750 
Q 2613 4750 3031 4423 
Q 3450 4097 3450 3541 
Q 3450 3153 3228 2886 
Q 3006 2619 2597 2516 
z
" transform="scale(0.015625)"/>
       </defs>
       <use xlink:href="#DejaVuSans-33"/>
       <use xlink:href="#DejaVuSans-30" x="63.623047"/>
      </g>
     </g>
    </g>
    <g id="xtick_5">
     <g id="line2d_5">
      <g>
       <use xlink:href="#m6a0a816696" x="331.191914" y="307.584" style="stroke: #000000; stroke-width: 0.8"/>
      </g>
     </g>
     <g id="text_5">
      <!-- 40 -->
      <g transform="translate(324.829414 322.182437)scale(0.1 -0.1)">
       <defs>
        <path id="DejaVuSans-34" d="M 2419 4116 
L 825 1625 
L 2419 1625 
L 2419 4116 
z
M 2253 4666 
L 3047 4666 
L 3047 1625 
L 3713 1625 
L 3713 1100 
L 3047 1100 
L 3047 0 
L 2419 0 
L 2419 1100 
L 313 1100 
L 313 1709 
L 2253 4666 
z
" transform="scale(0.015625)"/>
       </defs>
       <use xlink:href="#DejaVuSans-34"/>
       <use xlink:href="#DejaVuSans-30" x="63.623047"/>
      </g>
     </g>
    </g>
    <g id="xtick_6">
     <g id="line2d_6">
      <g>
       <use xlink:href="#m6a0a816696" x="395.693033" y="307.584" style="stroke: #000000; stroke-width: 0.8"/>
      </g>
     </g>
     <g id="text_6">
      <!-- 50 -->
      <g transform="translate(389.330533 322.182437)scale(0.1 -0.1)">
       <defs>
        <path id="DejaVuSans-35" d="M 691 4666 
L 3169 4666 
L 3169 4134 
L 1269 4134 
L 1269 2991 
Q 1406 3038 1543 3061 
Q 1681 3084 1819 3084 
Q 2600 3084 3056 2656 
Q 3513 2228 3513 1497 
Q 3513 744 3044 326 
Q 2575 -91 1722 -91 
Q 1428 -91 1123 -41 
Q 819 9 494 109 
L 494 744 
Q 775 591 1075 516 
Q 1375 441 1709 441 
Q 2250 441 2565 725 
Q 2881 1009 2881 1497 
Q 2881 1984 2565 2268 
Q 2250 2553 1709 2553 
Q 1456 2553 1204 2497 
Q 953 2441 691 2322 
L 691 4666 
z
" transform="scale(0.015625)"/>
       </defs>
       <use xlink:href="#DejaVuSans-35"/>
       <use xlink:href="#DejaVuSans-30" x="63.623047"/>
      </g>
     </g>
    </g>
    <g id="text_7">
     <!-- time(s) -->
     <g transform="translate(218.357656 335.860562)scale(0.1 -0.1)">
      <defs>
       <path id="DejaVuSans-74" d="M 1172 4494 
L 1172 3500 
L 2356 3500 
L 2356 3053 
L 1172 3053 
L 1172 1153 
Q 1172 725 1289 603 
Q 1406 481 1766 481 
L 2356 481 
L 2356 0 
L 1766 0 
Q 1100 0 847 248 
Q 594 497 594 1153 
L 594 3053 
L 172 3053 
L 172 3500 
L 594 3500 
L 594 4494 
L 1172 4494 
z
" transform="scale(0.015625)"/>
       <path id="DejaVuSans-69" d="M 603 3500 
L 1178 3500 
L 1178 0 
L 603 0 
L 603 3500 
z
M 603 4863 
L 1178 4863 
L 1178 4134 
L 603 4134 
L 603 4863 
z
" transform="scale(0.015625)"/>
       <path id="DejaVuSans-6d" d="M 3328 2828 
Q 3544 3216 3844 3400 
Q 4144 3584 4550 3584 
Q 5097 3584 5394 3201 
Q 5691 2819 5691 2113 
L 5691 0 
L 5113 0 
L 5113 2094 
Q 5113 2597 4934 2840 
Q 4756 3084 4391 3084 
Q 3944 3084 3684 2787 
Q 3425 2491 3425 1978 
L 3425 0 
L 2847 0 
L 2847 2094 
Q 2847 2600 2669 2842 
Q 2491 3084 2119 3084 
Q 1678 3084 1418 2786 
Q 1159 2488 1159 1978 
L 1159 0 
L 581 0 
L 581 3500 
L 1159 3500 
L 1159 2956 
Q 1356 3278 1631 3431 
Q 1906 3584 2284 3584 
Q 2666 3584 2933 3390 
Q 3200 3197 3328 2828 
z
" transform="scale(0.015625)"/>
       <path id="DejaVuSans-65" d="M 3597 1894 
L 3597 1613 
L 953 1613 
Q 991 1019 1311 708 
Q 1631 397 2203 397 
Q 2534 397 2845 478 
Q 3156 559 3463 722 
L 3463 178 
Q 3153 47 2828 -22 
Q 2503 -91 2169 -91 
Q 1331 -91 842 396 
Q 353 884 353 1716 
Q 353 2575 817 3079 
Q 1281 3584 2069 3584 
Q 2775 3584 3186 3129 
Q 3597 2675 3597 1894 
z
M 3022 2063 
Q 3016 2534 2758 2815 
Q 2500 3097 2075 3097 
Q 1594 3097 1305 2825 
Q 1016 2553 972 2059 
L 3022 2063 
z
" transform="scale(0.015625)"/>
       <path id="DejaVuSans-28" d="M 1984 4856 
Q 1566 4138 1362 3434 
Q 1159 2731 1159 2009 
Q 1159 1288 1364 580 
Q 1569 -128 1984 -844 
L 1484 -844 
Q 1016 -109 783 600 
Q 550 1309 550 2009 
Q 550 2706 781 3412 
Q 1013 4119 1484 4856 
L 1984 4856 
z
" transform="scale(0.015625)"/>
       <path id="DejaVuSans-73" d="M 2834 3397 
L 2834 2853 
Q 2591 2978 2328 3040 
Q 2066 3103 1784 3103 
Q 1356 3103 1142 2972 
Q 928 2841 928 2578 
Q 928 2378 1081 2264 
Q 1234 2150 1697 2047 
L 1894 2003 
Q 2506 1872 2764 1633 
Q 3022 1394 3022 966 
Q 3022 478 2636 193 
Q 2250 -91 1575 -91 
Q 1294 -91 989 -36 
Q 684 19 347 128 
L 347 722 
Q 666 556 975 473 
Q 1284 391 1588 391 
Q 1994 391 2212 530 
Q 2431 669 2431 922 
Q 2431 1156 2273 1281 
Q 2116 1406 1581 1522 
L 1381 1569 
Q 847 1681 609 1914 
Q 372 2147 372 2553 
Q 372 3047 722 3315 
Q 1072 3584 1716 3584 
Q 2034 3584 2315 3537 
Q 2597 3491 2834 3397 
z
" transform="scale(0.015625)"/>
       <path id="DejaVuSans-29" d="M 513 4856 
L 1013 4856 
Q 1481 4119 1714 3412 
Q 1947 2706 1947 2009 
Q 1947 1309 1714 600 
Q 1481 -109 1013 -844 
L 513 -844 
Q 928 -128 1133 580 
Q 1338 1288 1338 2009 
Q 1338 2731 1133 3434 
Q 928 4138 513 4856 
z
" transform="scale(0.015625)"/>
      </defs>
      <use xlink:href="#DejaVuSans-74"/>
      <use xlink:href="#DejaVuSans-69" x="39.208984"/>
      <use xlink:href="#DejaVuSans-6d" x="66.992188"/>
      <use xlink:href="#DejaVuSans-65" x="164.404297"/>
      <use xlink:href="#DejaVuSans-28" x="225.927734"/>
      <use xlink:href="#DejaVuSans-73" x="264.941406"/>
      <use xlink:href="#DejaVuSans-29" x="317.041016"/>
     </g>
    </g>
   </g>
   <g id="matplotlib.axis_2">
    <g id="ytick_1">
     <g id="line2d_7">
      <defs>
       <path id="m6a79775b01" d="M 0 0 
L -3.5 0 
" style="stroke: #000000; stroke-width: 0.8"/>
      </defs>
      <g>
       <use xlink:href="#m6a79775b01" x="57.6" y="307.584" style="stroke: #000000; stroke-width: 0.8"/>
      </g>
     </g>
     <g id="text_8">
      <!-- 0 -->
      <g transform="translate(44.2375 311.383219)scale(0.1 -0.1)">
       <use xlink:href="#DejaVuSans-30"/>
      </g>
     </g>
    </g>
    <g id="ytick_2">
     <g id="line2d_8">
      <g>
       <use xlink:href="#m6a79775b01" x="57.6" y="263.232" style="stroke: #000000; stroke-width: 0.8"/>
      </g>
     </g>
     <g id="text_9">
      <!-- 50 -->
      <g transform="translate(37.875 267.031219)scale(0.1 -0.1)">
       <use xlink:href="#DejaVuSans-35"/>
       <use xlink:href="#DejaVuSans-30" x="63.623047"/>
      </g>
     </g>
    </g>
    <g id="ytick_3">
     <g id="line2d_9">
      <g>
       <use xlink:href="#m6a79775b01" x="57.6" y="218.88" style="stroke: #000000; stroke-width: 0.8"/>
      </g>
     </g>
     <g id="text_10">
      <!-- 100 -->
      <g transform="translate(31.5125 222.679219)scale(0.1 -0.1)">
       <use xlink:href="#DejaVuSans-31"/>
       <use xlink:href="#DejaVuSans-30" x="63.623047"/>
       <use xlink:href="#DejaVuSans-30" x="127.246094"/>
      </g>
     </g>
    </g>
    <g id="ytick_4">
     <g id="line2d_10">
      <g>
       <use xlink:href="#m6a79775b01" x="57.6" y="174.528" style="stroke: #000000; stroke-width: 0.8"/>
      </g>
     </g>
     <g id="text_11">
      <!-- 150 -->
      <g transform="translate(31.5125 178.327219)scale(0.1 -0.1)">
       <use xlink:href="#DejaVuSans-31"/>
       <use xlink:href="#DejaVuSans-35" x="63.623047"/>
       <use xlink:href="#DejaVuSans-30" x="127.246094"/>
      </g>
     </g>
    </g>
    <g id="ytick_5">
     <g id="line2d_11">
      <g>
       <use xlink:href="#m6a79775b01" x="57.6" y="130.176" style="stroke: #000000; stroke-width: 0.8"/>
      </g>
     </g>
     <g id="text_12">
      <!-- 200 -->
      <g transform="translate(31.5125 133.975219)scale(0.1 -0.1)">
       <use xlink:href="#DejaVuSans-32"/>
       <use xlink:href="#DejaVuSans-30" x="63.623047"/>
       <use xlink:href="#DejaVuSans-30" x="127.246094"/>
      </g>
     </g>
    </g>
    <g id="ytick_6">
     <g id="line2d_12">
      <g>
       <use xlink:href="#m6a79775b01" x="57.6" y="85.824" style="stroke: #000000; stroke-width: 0.8"/>
      </g>
     </g>
     <g id="text_13">
      <!-- 250 -->
      <g transform="translate(31.5125 89.623219)scale(0.1 -0.1)">
       <use xlink:href="#DejaVuSans-32"/>
       <use xlink:href="#DejaVuSans-35" x="63.623047"/>
       <use xlink:href="#DejaVuSans-30" x="127.246094"/>
      </g>
     </g>
    </g>
    <g id="ytick_7">
     <g id="line2d_13">
      <g>
       <use xlink:href="#m6a79775b01" x="57.6" y="41.472" style="stroke: #000000; stroke-width: 0.8"/>
      </g>
     </g>
     <g id="text_14">
      <!-- 300 -->
      <g transform="translate(31.5125 45.271219)scale(0.1 -0.1)">
       <use xlink:href="#DejaVuSans-33"/>
       <use xlink:href="#DejaVuSans-30" x="63.623047"/>
       <use xlink:href="#DejaVuSans-30" x="127.246094"/>
      </g>
     </g>
    </g>
    <g id="text_15">
     <!-- Mbps -->
     <g transform="translate(25.432812 187.795187)rotate(-90)scale(0.1 -0.1)">
      <defs>
       <path id="DejaVuSans-4d" d="M 628 4666 
L 1569 4666 
L 2759 1491 
L 3956 4666 
L 4897 4666 
L 4897 0 
L 4281 0 
L 4281 4097 
L 3078 897 
L 2444 897 
L 1241 4097 
L 1241 0 
L 628 0 
L 628 4666 
z
" transform="scale(0.015625)"/>
       <path id="DejaVuSans-62" d="M 3116 1747 
Q 3116 2381 2855 2742 
Q 2594 3103 2138 3103 
Q 1681 3103 1420 2742 
Q 1159 2381 1159 1747 
Q 1159 1113 1420 752 
Q 1681 391 2138 391 
Q 2594 391 2855 752 
Q 3116 1113 3116 1747 
z
M 1159 2969 
Q 1341 3281 1617 3432 
Q 1894 3584 2278 3584 
Q 2916 3584 3314 3078 
Q 3713 2572 3713 1747 
Q 3713 922 3314 415 
Q 2916 -91 2278 -91 
Q 1894 -91 1617 61 
Q 1341 213 1159 525 
L 1159 0 
L 581 0 
L 581 4863 
L 1159 4863 
L 1159 2969 
z
" transform="scale(0.015625)"/>
       <path id="DejaVuSans-70" d="M 1159 525 
L 1159 -1331 
L 581 -1331 
L 581 3500 
L 1159 3500 
L 1159 2969 
Q 1341 3281 1617 3432 
Q 1894 3584 2278 3584 
Q 2916 3584 3314 3078 
Q 3713 2572 3713 1747 
Q 3713 922 3314 415 
Q 2916 -91 2278 -91 
Q 1894 -91 1617 61 
Q 1341 213 1159 525 
z
M 3116 1747 
Q 3116 2381 2855 2742 
Q 2594 3103 2138 3103 
Q 1681 3103 1420 2742 
Q 1159 2381 1159 1747 
Q 1159 1113 1420 752 
Q 1681 391 2138 391 
Q 2594 391 2855 752 
Q 3116 1113 3116 1747 
z
" transform="scale(0.015625)"/>
      </defs>
      <use xlink:href="#DejaVuSans-4d"/>
      <use xlink:href="#DejaVuSans-62" x="86.279297"/>
      <use xlink:href="#DejaVuSans-70" x="149.755859"/>
      <use xlink:href="#DejaVuSans-73" x="213.232422"/>
     </g>
    </g>
   </g>
   <g id="line2d_14">
    <path d="M 73.832727 205.938823 
L 74.478777 190.382758 
L 75.124065 197.257249 
L 75.769677 196.563887 
L 76.415062 195.02555 
L 77.060795 192.276399 
L 77.705903 193.428832 
L 78.35096 196.52729 
L 79.641575 192.707444 
L 81.577938 193.814165 
L 82.223104 182.727989 
L 82.86907 189.895054 
L 83.514345 189.358623 
L 84.159556 187.254646 
L 84.804858 195.054284 
L 85.450024 183.267235 
L 86.095203 183.850973 
L 86.741826 184.930102 
L 87.387083 180.440489 
L 88.032133 185.512133 
L 88.677208 194.052853 
L 89.322568 182.933374 
L 89.967585 187.158182 
L 90.612964 184.931801 
L 91.258311 182.11358 
L 91.903954 195.669347 
L 92.549198 195.117224 
L 93.195267 186.081636 
L 93.840304 181.111348 
L 94.485986 183.102451 
L 95.131248 163.273357 
L 95.776963 178.465215 
L 96.422128 185.143096 
L 97.068081 188.316062 
L 97.713176 184.802866 
L 98.359362 187.576118 
L 99.005224 198.209537 
L 99.651016 193.608159 
L 100.296504 195.188535 
L 100.941657 192.376913 
L 101.587307 193.428758 
L 102.232389 199.482883 
L 102.878187 195.45108 
L 103.523276 204.461123 
L 104.169229 207.339291 
L 104.814582 206.359624 
L 105.460406 217.604126 
L 106.106778 210.539478 
L 106.75255 206.75467 
L 107.397781 184.637792 
L 108.043263 190.459447 
L 108.689545 191.985914 
L 109.33464 204.236756 
L 109.979702 202.002256 
L 110.625765 195.399077 
L 111.271176 201.879329 
L 111.916194 195.445134 
L 112.561405 201.914158 
L 113.207377 197.797042 
L 113.853472 202.3215 
L 114.498741 181.424546 
L 115.144668 195.922948 
L 115.789718 184.018956 
L 116.435781 206.110868 
L 117.081714 195.833642 
L 117.726751 194.957124 
L 118.371769 193.354514 
L 119.01796 188.688684 
L 119.66343 166.274431 
L 120.309015 192.581691 
L 120.954213 204.042064 
L 121.59936 199.923274 
L 122.244455 197.433653 
L 122.889859 197.612293 
L 123.535025 199.221694 
L 124.180456 201.294845 
L 124.825699 185.598465 
L 125.470717 181.025599 
L 126.115883 182.335631 
L 126.761417 185.682256 
L 127.406466 212.421793 
L 128.051529 211.332308 
L 128.69696 214.610672 
L 129.988343 217.140844 
L 130.633483 215.045522 
L 131.278649 201.461225 
L 131.923764 215.283521 
L 132.56882 216.386643 
L 133.214831 215.163837 
L 133.859913 210.740391 
L 134.504956 197.600722 
L 135.150864 207.200837 
L 135.796237 220.840011 
L 136.442183 212.125704 
L 137.087291 209.920164 
L 137.732412 215.333027 
L 138.377842 208.984786 
L 139.02286 208.490999 
L 139.668187 209.569008 
L 140.313424 203.172721 
L 140.959461 190.510284 
L 141.60513 195.682675 
L 142.250922 192.686244 
L 142.8961 198.852755 
L 143.541699 194.244731 
L 144.186807 192.768821 
L 144.831985 187.622375 
L 145.477177 190.603434 
L 146.122763 189.231406 
L 146.767793 185.472333 
L 147.413507 185.825123 
L 148.058525 191.690722 
L 148.703833 190.04666 
L 149.349566 170.447255 
L 149.994584 162.552258 
L 150.639892 182.743945 
L 151.286309 192.57238 
L 151.93134 192.253784 
L 152.576383 191.046921 
L 153.221678 187.140064 
L 153.866896 192.467518 
L 154.512268 189.82553 
L 155.157525 191.143136 
L 155.802845 198.537231 
L 156.447869 198.486393 
L 157.093551 195.480066 
L 157.738924 188.682787 
L 158.384154 190.131469 
L 159.02923 188.629858 
L 160.319955 181.606435 
L 160.965102 191.039783 
L 161.610642 174.911758 
L 162.255886 192.808822 
L 162.901819 194.657698 
L 163.550171 188.849758 
L 164.195318 191.094251 
L 164.840516 191.797787 
L 165.486843 178.031588 
L 166.131919 184.265883 
L 166.777549 180.406119 
L 167.422703 175.316827 
L 168.06863 186.227339 
L 168.71415 183.752109 
L 169.3596 172.876138 
L 170.6499 189.602347 
L 171.294943 182.972724 
L 171.939974 107.143485 
L 172.586036 163.556873 
L 173.231099 186.89038 
L 173.876323 176.372626 
L 174.521625 178.522575 
L 175.166862 201.267164 
L 175.811899 180.068303 
L 176.457632 166.016611 
L 177.103056 183.424939 
L 177.748474 189.015136 
L 178.393491 180.970376 
L 179.039006 184.242018 
L 179.684056 185.268718 
L 180.329073 199.638148 
L 180.974388 191.577333 
L 181.619915 213.021837 
L 182.265248 220.475292 
L 182.910627 214.642467 
L 183.556503 216.102881 
L 184.201895 216.95037 
L 184.847596 218.772001 
L 185.492807 217.162469 
L 186.140031 217.027825 
L 186.785693 220.531369 
L 187.431079 217.168066 
L 188.076251 214.556238 
L 188.721449 214.385609 
L 189.366822 214.649046 
L 190.01191 218.09318 
L 190.657012 192.953553 
L 191.302126 195.367965 
L 191.947221 193.689368 
L 192.593206 191.427368 
L 193.238598 191.501155 
L 193.886041 193.176014 
L 194.531775 191.131727 
L 195.176812 190.769175 
L 195.821932 190.549902 
L 196.467776 202.94787 
L 197.112974 212.642312 
L 197.758772 215.46465 
L 198.403802 215.092796 
L 199.05002 217.451737 
L 199.695354 213.197964 
L 200.340649 218.60642 
L 200.985763 214.010337 
L 201.631426 212.709046 
L 202.276469 213.584942 
L 202.922041 201.102646 
L 203.567169 214.998811 
L 204.212186 211.835976 
L 204.858242 214.911719 
L 205.503286 209.795423 
L 206.148774 191.659419 
L 206.793998 195.180422 
L 207.439248 217.279313 
L 208.084704 194.889071 
L 208.729729 208.147392 
L 209.37503 210.577605 
L 210.020789 203.998198 
L 210.665813 207.217816 
L 211.311412 207.241339 
L 212.602118 209.976703 
L 213.248077 198.46514 
L 213.893308 212.472514 
L 214.539086 208.878779 
L 215.184349 209.818849 
L 215.829941 213.002481 
L 216.475423 196.391501 
L 217.766593 192.895231 
L 218.411972 204.669088 
L 219.057009 201.335446 
L 219.702356 197.092796 
L 220.347825 210.880962 
L 220.994881 206.89505 
L 221.640763 201.389828 
L 222.286535 205.368479 
L 222.931656 198.660075 
L 223.576861 158.761283 
L 224.22262 145.983433 
L 224.868721 202.419772 
L 225.513823 196.444796 
L 226.15984 203.718879 
L 226.808083 206.395236 
L 227.453649 204.089875 
L 228.098705 204.528985 
L 228.743774 205.334488 
L 229.389695 208.83633 
L 230.036183 213.858556 
L 230.682168 213.832119 
L 231.328128 205.734338 
L 231.973165 215.278942 
L 232.618666 207.458319 
L 233.263703 215.357307 
L 234.555738 198.096895 
L 235.200994 198.833597 
L 235.846379 208.572813 
L 236.491984 213.823577 
L 237.137098 212.835267 
L 237.783096 211.474228 
L 238.428146 215.882389 
L 239.073912 216.958939 
L 239.719233 220.298761 
L 240.364947 214.431558 
L 241.010016 212.675905 
L 241.655324 214.272717 
L 242.300387 215.309837 
L 242.945456 214.751064 
L 243.591384 218.07818 
L 244.236408 216.487317 
L 244.882535 221.677043 
L 246.172925 207.661163 
L 246.818065 212.243832 
L 247.463399 195.166376 
L 248.10879 194.248321 
L 248.753808 187.886772 
L 249.398922 191.102028 
L 250.689261 184.956791 
L 251.334343 174.869811 
L 251.980051 180.401691 
L 252.625204 188.007778 
L 253.270402 186.965311 
L 253.915652 185.005373 
L 254.56074 174.454034 
L 255.206048 168.858322 
L 255.851227 173.087096 
L 256.496419 178.468706 
L 257.141579 170.038961 
L 257.786596 175.705862 
L 258.431724 182.86584 
L 259.076786 183.430462 
L 259.721817 156.895671 
L 261.012149 185.98835 
L 261.657263 191.018056 
L 262.302403 179.58367 
L 262.94764 189.440156 
L 263.592664 184.887691 
L 264.238553 173.085278 
L 264.883674 181.773101 
L 265.528704 178.638908 
L 266.174244 187.884989 
L 266.819294 181.51111 
L 267.464434 176.950594 
L 268.109794 175.462685 
L 268.754986 181.416583 
L 269.400268 182.99669 
L 270.045743 181.679942 
L 271.336953 199.7219 
L 271.982815 199.038284 
L 272.628059 202.169412 
L 273.273799 204.518652 
L 273.919087 203.793543 
L 274.564169 205.434584 
L 275.209606 202.768711 
L 275.855314 201.637412 
L 276.500467 193.571331 
L 277.146407 207.590235 
L 277.791547 197.228022 
L 278.436849 204.035421 
L 279.082111 200.51753 
L 279.727161 197.955 
L 280.372218 204.812256 
L 281.018035 213.324766 
L 281.66393 213.753321 
L 282.309148 204.594386 
L 282.954294 210.014862 
L 283.599428 211.930682 
L 284.244549 204.993451 
L 284.889579 209.066313 
L 285.534945 187.113669 
L 286.179976 204.693303 
L 286.826006 200.563047 
L 287.471133 201.811852 
L 288.116493 214.200161 
L 288.763749 212.437104 
L 289.409166 212.627026 
L 290.054584 211.261512 
L 290.699918 215.54947 
L 291.346515 213.376364 
L 291.991604 216.628243 
L 292.636731 214.303026 
L 293.282504 205.01245 
L 293.92756 216.109463 
L 294.573319 217.341716 
L 295.864316 214.108724 
L 296.509869 217.415373 
L 297.155054 216.178158 
L 297.800317 216.968849 
L 298.445754 222.192781 
L 299.091416 207.014196 
L 299.73726 211.06472 
L 300.382303 212.949769 
L 301.028172 211.001057 
L 301.67328 194.082211 
L 302.319246 187.763309 
L 302.964431 194.889518 
L 303.610049 195.332357 
L 304.256653 193.127226 
L 304.901671 194.551213 
L 305.547179 184.937783 
L 306.192364 195.396949 
L 306.83813 188.548387 
L 307.48327 195.996502 
L 308.129094 191.633851 
L 308.774221 193.397341 
L 309.419445 191.772582 
L 310.064682 160.645391 
L 310.709803 169.821356 
L 311.355053 192.370442 
L 312.000528 198.785132 
L 312.646565 193.350316 
L 313.291589 192.355902 
L 313.937871 198.46495 
L 314.584005 196.081776 
L 315.229138 207.321619 
L 315.874485 194.348549 
L 316.519528 195.803343 
L 317.164681 195.067381 
L 317.810667 194.623268 
L 318.456652 199.663526 
L 319.102218 193.016542 
L 319.747629 200.235015 
L 320.392859 193.157713 
L 321.03789 198.602259 
L 321.683165 192.257206 
L 322.328422 190.931662 
L 322.974188 197.363266 
L 323.619244 194.17139 
L 324.264307 191.620269 
L 324.909956 192.684249 
L 325.554987 190.784858 
L 326.201179 186.75318 
L 326.846332 189.227231 
L 327.491659 175.702572 
L 328.137147 164.664171 
L 328.782823 139.199804 
L 330.07629 191.976434 
L 330.721714 186.539889 
L 331.366841 187.542207 
L 332.011923 192.495315 
L 332.657663 195.835712 
L 333.948556 189.410717 
L 334.593993 195.513715 
L 335.239282 194.57039 
L 335.885235 209.601908 
L 336.530284 213.865231 
L 337.175779 198.465078 
L 337.820868 190.079512 
L 338.465963 192.419123 
L 339.111232 191.197013 
L 339.756701 191.94397 
L 340.401719 187.2511 
L 341.692561 194.294799 
L 342.338578 194.023477 
L 342.984041 190.082356 
L 343.629948 187.994415 
L 344.274979 189.040702 
L 344.920229 188.537486 
L 345.565246 188.89195 
L 346.210696 179.223262 
L 346.855836 191.11007 
L 347.501138 188.112046 
L 348.147117 197.704277 
L 348.792289 193.703099 
L 349.437945 198.242586 
L 350.083008 188.535718 
L 350.729135 190.820797 
L 351.375049 189.183281 
L 352.020428 179.53347 
L 352.665652 190.646558 
L 353.310818 181.173375 
L 353.955926 185.975124 
L 354.601195 162.462 
L 355.89154 175.392846 
L 356.536674 166.289332 
L 357.182253 180.973802 
L 357.827374 190.255495 
L 358.473088 188.948678 
L 359.119112 182.178967 
L 359.764278 186.148923 
L 360.410192 182.718669 
L 361.055345 190.779913 
L 361.70102 190.153002 
L 362.346083 180.585059 
L 362.991159 188.350655 
L 363.636957 189.831304 
L 364.283052 182.312391 
L 364.928108 170.193441 
L 365.573158 182.519283 
L 366.218279 187.026961 
L 366.863387 188.154228 
L 367.508424 190.953517 
L 368.15357 173.981557 
L 368.798788 178.852327 
L 369.443961 180.275115 
L 370.089152 188.785495 
L 370.734396 190.704254 
L 371.37971 191.496634 
L 372.024728 192.097246 
L 372.670094 188.072987 
L 373.960316 193.455246 
L 374.605508 190.781913 
L 375.250938 191.440551 
L 375.896801 188.869614 
L 376.541928 158.001226 
L 377.186959 153.684213 
L 377.832118 173.93937 
L 378.477271 184.829137 
L 379.122547 185.231821 
L 379.768229 182.328841 
L 380.413395 189.88603 
L 381.058935 188.684194 
L 381.704643 187.005603 
L 382.349847 198.367616 
L 382.995033 211.691923 
L 383.640895 211.276724 
L 384.285997 207.438338 
L 384.931634 211.381245 
L 385.5768 214.322221 
L 386.222488 214.698052 
L 386.867777 214.860745 
L 387.513575 214.799329 
L 388.158592 212.195805 
L 388.803765 214.506712 
L 390.097109 208.398293 
L 390.742249 210.839028 
L 391.388086 209.747793 
L 392.033704 213.730996 
L 392.679237 201.335505 
L 393.325409 200.420907 
L 393.970485 177.914672 
L 394.615503 181.628584 
L 395.260927 212.929075 
L 395.906112 207.547833 
L 396.55162 216.85232 
L 397.196696 212.875192 
L 397.841771 203.891724 
L 398.487273 218.435785 
L 398.487273 218.435785 
" clip-path="url(#p29ba9ad0ca)" style="fill: none; stroke: #1f77b4; stroke-width: 1.5; stroke-linecap: square"/>
   </g>
   <g id="patch_3">
    <path d="M 57.6 307.584 
L 57.6 41.472 
" style="fill: none; stroke: #000000; stroke-width: 0.8; stroke-linejoin: miter; stroke-linecap: square"/>
   </g>
   <g id="patch_4">
    <path d="M 414.72 307.584 
L 414.72 41.472 
" style="fill: none; stroke: #000000; stroke-width: 0.8; stroke-linejoin: miter; stroke-linecap: square"/>
   </g>
   <g id="patch_5">
    <path d="M 57.6 307.584 
L 414.72 307.584 
" style="fill: none; stroke: #000000; stroke-width: 0.8; stroke-linejoin: miter; stroke-linecap: square"/>
   </g>
   <g id="patch_6">
    <path d="M 57.6 41.472 
L 414.72 41.472 
" style="fill: none; stroke: #000000; stroke-width: 0.8; stroke-linejoin: miter; stroke-linecap: square"/>
   </g>
   <g id="text_16">
    <!-- pt16 link speed per 100ms -->
    <g transform="translate(155.608125 35.472)scale(0.12 -0.12)">
     <defs>
      <path id="DejaVuSans-36" d="M 2113 2584 
Q 1688 2584 1439 2293 
Q 1191 2003 1191 1497 
Q 1191 994 1439 701 
Q 1688 409 2113 409 
Q 2538 409 2786 701 
Q 3034 994 3034 1497 
Q 3034 2003 2786 2293 
Q 2538 2584 2113 2584 
z
M 3366 4563 
L 3366 3988 
Q 3128 4100 2886 4159 
Q 2644 4219 2406 4219 
Q 1781 4219 1451 3797 
Q 1122 3375 1075 2522 
Q 1259 2794 1537 2939 
Q 1816 3084 2150 3084 
Q 2853 3084 3261 2657 
Q 3669 2231 3669 1497 
Q 3669 778 3244 343 
Q 2819 -91 2113 -91 
Q 1303 -91 875 529 
Q 447 1150 447 2328 
Q 447 3434 972 4092 
Q 1497 4750 2381 4750 
Q 2619 4750 2861 4703 
Q 3103 4656 3366 4563 
z
" transform="scale(0.015625)"/>
      <path id="DejaVuSans-20" transform="scale(0.015625)"/>
      <path id="DejaVuSans-6c" d="M 603 4863 
L 1178 4863 
L 1178 0 
L 603 0 
L 603 4863 
z
" transform="scale(0.015625)"/>
      <path id="DejaVuSans-6e" d="M 3513 2113 
L 3513 0 
L 2938 0 
L 2938 2094 
Q 2938 2591 2744 2837 
Q 2550 3084 2163 3084 
Q 1697 3084 1428 2787 
Q 1159 2491 1159 1978 
L 1159 0 
L 581 0 
L 581 3500 
L 1159 3500 
L 1159 2956 
Q 1366 3272 1645 3428 
Q 1925 3584 2291 3584 
Q 2894 3584 3203 3211 
Q 3513 2838 3513 2113 
z
" transform="scale(0.015625)"/>
      <path id="DejaVuSans-6b" d="M 581 4863 
L 1159 4863 
L 1159 1991 
L 2875 3500 
L 3609 3500 
L 1753 1863 
L 3688 0 
L 2938 0 
L 1159 1709 
L 1159 0 
L 581 0 
L 581 4863 
z
" transform="scale(0.015625)"/>
      <path id="DejaVuSans-64" d="M 2906 2969 
L 2906 4863 
L 3481 4863 
L 3481 0 
L 2906 0 
L 2906 525 
Q 2725 213 2448 61 
Q 2172 -91 1784 -91 
Q 1150 -91 751 415 
Q 353 922 353 1747 
Q 353 2572 751 3078 
Q 1150 3584 1784 3584 
Q 2172 3584 2448 3432 
Q 2725 3281 2906 2969 
z
M 947 1747 
Q 947 1113 1208 752 
Q 1469 391 1925 391 
Q 2381 391 2643 752 
Q 2906 1113 2906 1747 
Q 2906 2381 2643 2742 
Q 2381 3103 1925 3103 
Q 1469 3103 1208 2742 
Q 947 2381 947 1747 
z
" transform="scale(0.015625)"/>
      <path id="DejaVuSans-72" d="M 2631 2963 
Q 2534 3019 2420 3045 
Q 2306 3072 2169 3072 
Q 1681 3072 1420 2755 
Q 1159 2438 1159 1844 
L 1159 0 
L 581 0 
L 581 3500 
L 1159 3500 
L 1159 2956 
Q 1341 3275 1631 3429 
Q 1922 3584 2338 3584 
Q 2397 3584 2469 3576 
Q 2541 3569 2628 3553 
L 2631 2963 
z
" transform="scale(0.015625)"/>
     </defs>
     <use xlink:href="#DejaVuSans-70"/>
     <use xlink:href="#DejaVuSans-74" x="63.476562"/>
     <use xlink:href="#DejaVuSans-31" x="102.685547"/>
     <use xlink:href="#DejaVuSans-36" x="166.308594"/>
     <use xlink:href="#DejaVuSans-20" x="229.931641"/>
     <use xlink:href="#DejaVuSans-6c" x="261.71875"/>
     <use xlink:href="#DejaVuSans-69" x="289.501953"/>
     <use xlink:href="#DejaVuSans-6e" x="317.285156"/>
     <use xlink:href="#DejaVuSans-6b" x="380.664062"/>
     <use xlink:href="#DejaVuSans-20" x="438.574219"/>
     <use xlink:href="#DejaVuSans-73" x="470.361328"/>
     <use xlink:href="#DejaVuSans-70" x="522.460938"/>
     <use xlink:href="#DejaVuSans-65" x="585.9375"/>
     <use xlink:href="#DejaVuSans-65" x="647.460938"/>
     <use xlink:href="#DejaVuSans-64" x="708.984375"/>
     <use xlink:href="#DejaVuSans-20" x="772.460938"/>
     <use xlink:href="#DejaVuSans-70" x="804.248047"/>
     <use xlink:href="#DejaVuSans-65" x="867.724609"/>
     <use xlink:href="#DejaVuSans-72" x="929.248047"/>
     <use xlink:href="#DejaVuSans-20" x="970.361328"/>
     <use xlink:href="#DejaVuSans-31" x="1002.148438"/>
     <use xlink:href="#DejaVuSans-30" x="1065.771484"/>
     <use xlink:href="#DejaVuSans-30" x="1129.394531"/>
     <use xlink:href="#DejaVuSans-6d" x="1193.017578"/>
     <use xlink:href="#DejaVuSans-73" x="1290.429688"/>
    </g>
   </g>
  </g>
 </g>
 <defs>
  <clipPath id="p29ba9ad0ca">
   <rect x="57.6" y="41.472" width="357.12" height="266.112"/>
  </clipPath>
 </defs>
</svg>
