<?xml version="1.0" encoding="utf-8" standalone="no"?>
<!DOCTYPE svg PUBLIC "-//W3C//DTD SVG 1.1//EN"
  "http://www.w3.org/Graphics/SVG/1.1/DTD/svg11.dtd">
<svg xmlns:xlink="http://www.w3.org/1999/xlink" width="460.8pt" height="345.6pt" viewBox="0 0 460.8 345.6" xmlns="http://www.w3.org/2000/svg" version="1.1">
 <metadata>
  <rdf:RDF xmlns:dc="http://purl.org/dc/elements/1.1/" xmlns:cc="http://creativecommons.org/ns#" xmlns:rdf="http://www.w3.org/1999/02/22-rdf-syntax-ns#">
   <cc:Work>
    <dc:type rdf:resource="http://purl.org/dc/dcmitype/StillImage"/>
    <dc:date>2022-07-10T07:36:42.067063</dc:date>
    <dc:format>image/svg+xml</dc:format>
    <dc:creator>
     <cc:Agent>
      <dc:title>Matplotlib v3.5.2, https://matplotlib.org/</dc:title>
     </cc:Agent>
    </dc:creator>
   </cc:Work>
  </rdf:RDF>
 </metadata>
 <defs>
  <style type="text/css">*{stroke-linejoin: round; stroke-linecap: butt}</style>
 </defs>
 <g id="figure_1">
  <g id="patch_1">
   <path d="M 0 345.6 
L 460.8 345.6 
L 460.8 0 
L 0 0 
z
" style="fill: #ffffff"/>
  </g>
  <g id="axes_1">
   <g id="patch_2">
    <path d="M 57.6 307.584 
L 414.72 307.584 
L 414.72 41.472 
L 57.6 41.472 
z
" style="fill: #ffffff"/>
   </g>
   <g id="matplotlib.axis_1">
    <g id="xtick_1">
     <g id="line2d_1">
      <defs>
       <path id="m174103455a" d="M 0 0 
L 0 3.5 
" style="stroke: #000000; stroke-width: 0.8"/>
      </defs>
      <g>
       <use xlink:href="#m174103455a" x="73.281138" y="307.584" style="stroke: #000000; stroke-width: 0.8"/>
      </g>
     </g>
     <g id="text_1">
      <!-- 0 -->
      <g transform="translate(70.099888 322.182437)scale(0.1 -0.1)">
       <defs>
        <path id="DejaVuSans-30" d="M 2034 4250 
Q 1547 4250 1301 3770 
Q 1056 3291 1056 2328 
Q 1056 1369 1301 889 
Q 1547 409 2034 409 
Q 2525 409 2770 889 
Q 3016 1369 3016 2328 
Q 3016 3291 2770 3770 
Q 2525 4250 2034 4250 
z
M 2034 4750 
Q 2819 4750 3233 4129 
Q 3647 3509 3647 2328 
Q 3647 1150 3233 529 
Q 2819 -91 2034 -91 
Q 1250 -91 836 529 
Q 422 1150 422 2328 
Q 422 3509 836 4129 
Q 1250 4750 2034 4750 
z
" transform="scale(0.015625)"/>
       </defs>
       <use xlink:href="#DejaVuSans-30"/>
      </g>
     </g>
    </g>
    <g id="xtick_2">
     <g id="line2d_2">
      <g>
       <use xlink:href="#m174103455a" x="128.439534" y="307.584" style="stroke: #000000; stroke-width: 0.8"/>
      </g>
     </g>
     <g id="text_2">
      <!-- 10 -->
      <g transform="translate(122.077034 322.182437)scale(0.1 -0.1)">
       <defs>
        <path id="DejaVuSans-31" d="M 794 531 
L 1825 531 
L 1825 4091 
L 703 3866 
L 703 4441 
L 1819 4666 
L 2450 4666 
L 2450 531 
L 3481 531 
L 3481 0 
L 794 0 
L 794 531 
z
" transform="scale(0.015625)"/>
       </defs>
       <use xlink:href="#DejaVuSans-31"/>
       <use xlink:href="#DejaVuSans-30" x="63.623047"/>
      </g>
     </g>
    </g>
    <g id="xtick_3">
     <g id="line2d_3">
      <g>
       <use xlink:href="#m174103455a" x="183.597931" y="307.584" style="stroke: #000000; stroke-width: 0.8"/>
      </g>
     </g>
     <g id="text_3">
      <!-- 20 -->
      <g transform="translate(177.235431 322.182437)scale(0.1 -0.1)">
       <defs>
        <path id="DejaVuSans-32" d="M 1228 531 
L 3431 531 
L 3431 0 
L 469 0 
L 469 531 
Q 828 903 1448 1529 
Q 2069 2156 2228 2338 
Q 2531 2678 2651 2914 
Q 2772 3150 2772 3378 
Q 2772 3750 2511 3984 
Q 2250 4219 1831 4219 
Q 1534 4219 1204 4116 
Q 875 4013 500 3803 
L 500 4441 
Q 881 4594 1212 4672 
Q 1544 4750 1819 4750 
Q 2544 4750 2975 4387 
Q 3406 4025 3406 3419 
Q 3406 3131 3298 2873 
Q 3191 2616 2906 2266 
Q 2828 2175 2409 1742 
Q 1991 1309 1228 531 
z
" transform="scale(0.015625)"/>
       </defs>
       <use xlink:href="#DejaVuSans-32"/>
       <use xlink:href="#DejaVuSans-30" x="63.623047"/>
      </g>
     </g>
    </g>
    <g id="xtick_4">
     <g id="line2d_4">
      <g>
       <use xlink:href="#m174103455a" x="238.756328" y="307.584" style="stroke: #000000; stroke-width: 0.8"/>
      </g>
     </g>
     <g id="text_4">
      <!-- 30 -->
      <g transform="translate(232.393828 322.182437)scale(0.1 -0.1)">
       <defs>
        <path id="DejaVuSans-33" d="M 2597 2516 
Q 3050 2419 3304 2112 
Q 3559 1806 3559 1356 
Q 3559 666 3084 287 
Q 2609 -91 1734 -91 
Q 1441 -91 1130 -33 
Q 819 25 488 141 
L 488 750 
Q 750 597 1062 519 
Q 1375 441 1716 441 
Q 2309 441 2620 675 
Q 2931 909 2931 1356 
Q 2931 1769 2642 2001 
Q 2353 2234 1838 2234 
L 1294 2234 
L 1294 2753 
L 1863 2753 
Q 2328 2753 2575 2939 
Q 2822 3125 2822 3475 
Q 2822 3834 2567 4026 
Q 2313 4219 1838 4219 
Q 1578 4219 1281 4162 
Q 984 4106 628 3988 
L 628 4550 
Q 988 4650 1302 4700 
Q 1616 4750 1894 4750 
Q 2613 4750 3031 4423 
Q 3450 4097 3450 3541 
Q 3450 3153 3228 2886 
Q 3006 2619 2597 2516 
z
" transform="scale(0.015625)"/>
       </defs>
       <use xlink:href="#DejaVuSans-33"/>
       <use xlink:href="#DejaVuSans-30" x="63.623047"/>
      </g>
     </g>
    </g>
    <g id="xtick_5">
     <g id="line2d_5">
      <g>
       <use xlink:href="#m174103455a" x="293.914724" y="307.584" style="stroke: #000000; stroke-width: 0.8"/>
      </g>
     </g>
     <g id="text_5">
      <!-- 40 -->
      <g transform="translate(287.552224 322.182437)scale(0.1 -0.1)">
       <defs>
        <path id="DejaVuSans-34" d="M 2419 4116 
L 825 1625 
L 2419 1625 
L 2419 4116 
z
M 2253 4666 
L 3047 4666 
L 3047 1625 
L 3713 1625 
L 3713 1100 
L 3047 1100 
L 3047 0 
L 2419 0 
L 2419 1100 
L 313 1100 
L 313 1709 
L 2253 4666 
z
" transform="scale(0.015625)"/>
       </defs>
       <use xlink:href="#DejaVuSans-34"/>
       <use xlink:href="#DejaVuSans-30" x="63.623047"/>
      </g>
     </g>
    </g>
    <g id="xtick_6">
     <g id="line2d_6">
      <g>
       <use xlink:href="#m174103455a" x="349.073121" y="307.584" style="stroke: #000000; stroke-width: 0.8"/>
      </g>
     </g>
     <g id="text_6">
      <!-- 50 -->
      <g transform="translate(342.710621 322.182437)scale(0.1 -0.1)">
       <defs>
        <path id="DejaVuSans-35" d="M 691 4666 
L 3169 4666 
L 3169 4134 
L 1269 4134 
L 1269 2991 
Q 1406 3038 1543 3061 
Q 1681 3084 1819 3084 
Q 2600 3084 3056 2656 
Q 3513 2228 3513 1497 
Q 3513 744 3044 326 
Q 2575 -91 1722 -91 
Q 1428 -91 1123 -41 
Q 819 9 494 109 
L 494 744 
Q 775 591 1075 516 
Q 1375 441 1709 441 
Q 2250 441 2565 725 
Q 2881 1009 2881 1497 
Q 2881 1984 2565 2268 
Q 2250 2553 1709 2553 
Q 1456 2553 1204 2497 
Q 953 2441 691 2322 
L 691 4666 
z
" transform="scale(0.015625)"/>
       </defs>
       <use xlink:href="#DejaVuSans-35"/>
       <use xlink:href="#DejaVuSans-30" x="63.623047"/>
      </g>
     </g>
    </g>
    <g id="xtick_7">
     <g id="line2d_7">
      <g>
       <use xlink:href="#m174103455a" x="404.231518" y="307.584" style="stroke: #000000; stroke-width: 0.8"/>
      </g>
     </g>
     <g id="text_7">
      <!-- 60 -->
      <g transform="translate(397.869018 322.182437)scale(0.1 -0.1)">
       <defs>
        <path id="DejaVuSans-36" d="M 2113 2584 
Q 1688 2584 1439 2293 
Q 1191 2003 1191 1497 
Q 1191 994 1439 701 
Q 1688 409 2113 409 
Q 2538 409 2786 701 
Q 3034 994 3034 1497 
Q 3034 2003 2786 2293 
Q 2538 2584 2113 2584 
z
M 3366 4563 
L 3366 3988 
Q 3128 4100 2886 4159 
Q 2644 4219 2406 4219 
Q 1781 4219 1451 3797 
Q 1122 3375 1075 2522 
Q 1259 2794 1537 2939 
Q 1816 3084 2150 3084 
Q 2853 3084 3261 2657 
Q 3669 2231 3669 1497 
Q 3669 778 3244 343 
Q 2819 -91 2113 -91 
Q 1303 -91 875 529 
Q 447 1150 447 2328 
Q 447 3434 972 4092 
Q 1497 4750 2381 4750 
Q 2619 4750 2861 4703 
Q 3103 4656 3366 4563 
z
" transform="scale(0.015625)"/>
       </defs>
       <use xlink:href="#DejaVuSans-36"/>
       <use xlink:href="#DejaVuSans-30" x="63.623047"/>
      </g>
     </g>
    </g>
    <g id="text_8">
     <!-- time(s) -->
     <g transform="translate(218.357656 335.860562)scale(0.1 -0.1)">
      <defs>
       <path id="DejaVuSans-74" d="M 1172 4494 
L 1172 3500 
L 2356 3500 
L 2356 3053 
L 1172 3053 
L 1172 1153 
Q 1172 725 1289 603 
Q 1406 481 1766 481 
L 2356 481 
L 2356 0 
L 1766 0 
Q 1100 0 847 248 
Q 594 497 594 1153 
L 594 3053 
L 172 3053 
L 172 3500 
L 594 3500 
L 594 4494 
L 1172 4494 
z
" transform="scale(0.015625)"/>
       <path id="DejaVuSans-69" d="M 603 3500 
L 1178 3500 
L 1178 0 
L 603 0 
L 603 3500 
z
M 603 4863 
L 1178 4863 
L 1178 4134 
L 603 4134 
L 603 4863 
z
" transform="scale(0.015625)"/>
       <path id="DejaVuSans-6d" d="M 3328 2828 
Q 3544 3216 3844 3400 
Q 4144 3584 4550 3584 
Q 5097 3584 5394 3201 
Q 5691 2819 5691 2113 
L 5691 0 
L 5113 0 
L 5113 2094 
Q 5113 2597 4934 2840 
Q 4756 3084 4391 3084 
Q 3944 3084 3684 2787 
Q 3425 2491 3425 1978 
L 3425 0 
L 2847 0 
L 2847 2094 
Q 2847 2600 2669 2842 
Q 2491 3084 2119 3084 
Q 1678 3084 1418 2786 
Q 1159 2488 1159 1978 
L 1159 0 
L 581 0 
L 581 3500 
L 1159 3500 
L 1159 2956 
Q 1356 3278 1631 3431 
Q 1906 3584 2284 3584 
Q 2666 3584 2933 3390 
Q 3200 3197 3328 2828 
z
" transform="scale(0.015625)"/>
       <path id="DejaVuSans-65" d="M 3597 1894 
L 3597 1613 
L 953 1613 
Q 991 1019 1311 708 
Q 1631 397 2203 397 
Q 2534 397 2845 478 
Q 3156 559 3463 722 
L 3463 178 
Q 3153 47 2828 -22 
Q 2503 -91 2169 -91 
Q 1331 -91 842 396 
Q 353 884 353 1716 
Q 353 2575 817 3079 
Q 1281 3584 2069 3584 
Q 2775 3584 3186 3129 
Q 3597 2675 3597 1894 
z
M 3022 2063 
Q 3016 2534 2758 2815 
Q 2500 3097 2075 3097 
Q 1594 3097 1305 2825 
Q 1016 2553 972 2059 
L 3022 2063 
z
" transform="scale(0.015625)"/>
       <path id="DejaVuSans-28" d="M 1984 4856 
Q 1566 4138 1362 3434 
Q 1159 2731 1159 2009 
Q 1159 1288 1364 580 
Q 1569 -128 1984 -844 
L 1484 -844 
Q 1016 -109 783 600 
Q 550 1309 550 2009 
Q 550 2706 781 3412 
Q 1013 4119 1484 4856 
L 1984 4856 
z
" transform="scale(0.015625)"/>
       <path id="DejaVuSans-73" d="M 2834 3397 
L 2834 2853 
Q 2591 2978 2328 3040 
Q 2066 3103 1784 3103 
Q 1356 3103 1142 2972 
Q 928 2841 928 2578 
Q 928 2378 1081 2264 
Q 1234 2150 1697 2047 
L 1894 2003 
Q 2506 1872 2764 1633 
Q 3022 1394 3022 966 
Q 3022 478 2636 193 
Q 2250 -91 1575 -91 
Q 1294 -91 989 -36 
Q 684 19 347 128 
L 347 722 
Q 666 556 975 473 
Q 1284 391 1588 391 
Q 1994 391 2212 530 
Q 2431 669 2431 922 
Q 2431 1156 2273 1281 
Q 2116 1406 1581 1522 
L 1381 1569 
Q 847 1681 609 1914 
Q 372 2147 372 2553 
Q 372 3047 722 3315 
Q 1072 3584 1716 3584 
Q 2034 3584 2315 3537 
Q 2597 3491 2834 3397 
z
" transform="scale(0.015625)"/>
       <path id="DejaVuSans-29" d="M 513 4856 
L 1013 4856 
Q 1481 4119 1714 3412 
Q 1947 2706 1947 2009 
Q 1947 1309 1714 600 
Q 1481 -109 1013 -844 
L 513 -844 
Q 928 -128 1133 580 
Q 1338 1288 1338 2009 
Q 1338 2731 1133 3434 
Q 928 4138 513 4856 
z
" transform="scale(0.015625)"/>
      </defs>
      <use xlink:href="#DejaVuSans-74"/>
      <use xlink:href="#DejaVuSans-69" x="39.208984"/>
      <use xlink:href="#DejaVuSans-6d" x="66.992188"/>
      <use xlink:href="#DejaVuSans-65" x="164.404297"/>
      <use xlink:href="#DejaVuSans-28" x="225.927734"/>
      <use xlink:href="#DejaVuSans-73" x="264.941406"/>
      <use xlink:href="#DejaVuSans-29" x="317.041016"/>
     </g>
    </g>
   </g>
   <g id="matplotlib.axis_2">
    <g id="ytick_1">
     <g id="line2d_8">
      <defs>
       <path id="m5e2c000c9d" d="M 0 0 
L -3.5 0 
" style="stroke: #000000; stroke-width: 0.8"/>
      </defs>
      <g>
       <use xlink:href="#m5e2c000c9d" x="57.6" y="307.584" style="stroke: #000000; stroke-width: 0.8"/>
      </g>
     </g>
     <g id="text_9">
      <!-- 0 -->
      <g transform="translate(44.2375 311.383219)scale(0.1 -0.1)">
       <use xlink:href="#DejaVuSans-30"/>
      </g>
     </g>
    </g>
    <g id="ytick_2">
     <g id="line2d_9">
      <g>
       <use xlink:href="#m5e2c000c9d" x="57.6" y="263.232" style="stroke: #000000; stroke-width: 0.8"/>
      </g>
     </g>
     <g id="text_10">
      <!-- 50 -->
      <g transform="translate(37.875 267.031219)scale(0.1 -0.1)">
       <use xlink:href="#DejaVuSans-35"/>
       <use xlink:href="#DejaVuSans-30" x="63.623047"/>
      </g>
     </g>
    </g>
    <g id="ytick_3">
     <g id="line2d_10">
      <g>
       <use xlink:href="#m5e2c000c9d" x="57.6" y="218.88" style="stroke: #000000; stroke-width: 0.8"/>
      </g>
     </g>
     <g id="text_11">
      <!-- 100 -->
      <g transform="translate(31.5125 222.679219)scale(0.1 -0.1)">
       <use xlink:href="#DejaVuSans-31"/>
       <use xlink:href="#DejaVuSans-30" x="63.623047"/>
       <use xlink:href="#DejaVuSans-30" x="127.246094"/>
      </g>
     </g>
    </g>
    <g id="ytick_4">
     <g id="line2d_11">
      <g>
       <use xlink:href="#m5e2c000c9d" x="57.6" y="174.528" style="stroke: #000000; stroke-width: 0.8"/>
      </g>
     </g>
     <g id="text_12">
      <!-- 150 -->
      <g transform="translate(31.5125 178.327219)scale(0.1 -0.1)">
       <use xlink:href="#DejaVuSans-31"/>
       <use xlink:href="#DejaVuSans-35" x="63.623047"/>
       <use xlink:href="#DejaVuSans-30" x="127.246094"/>
      </g>
     </g>
    </g>
    <g id="ytick_5">
     <g id="line2d_12">
      <g>
       <use xlink:href="#m5e2c000c9d" x="57.6" y="130.176" style="stroke: #000000; stroke-width: 0.8"/>
      </g>
     </g>
     <g id="text_13">
      <!-- 200 -->
      <g transform="translate(31.5125 133.975219)scale(0.1 -0.1)">
       <use xlink:href="#DejaVuSans-32"/>
       <use xlink:href="#DejaVuSans-30" x="63.623047"/>
       <use xlink:href="#DejaVuSans-30" x="127.246094"/>
      </g>
     </g>
    </g>
    <g id="ytick_6">
     <g id="line2d_13">
      <g>
       <use xlink:href="#m5e2c000c9d" x="57.6" y="85.824" style="stroke: #000000; stroke-width: 0.8"/>
      </g>
     </g>
     <g id="text_14">
      <!-- 250 -->
      <g transform="translate(31.5125 89.623219)scale(0.1 -0.1)">
       <use xlink:href="#DejaVuSans-32"/>
       <use xlink:href="#DejaVuSans-35" x="63.623047"/>
       <use xlink:href="#DejaVuSans-30" x="127.246094"/>
      </g>
     </g>
    </g>
    <g id="ytick_7">
     <g id="line2d_14">
      <g>
       <use xlink:href="#m5e2c000c9d" x="57.6" y="41.472" style="stroke: #000000; stroke-width: 0.8"/>
      </g>
     </g>
     <g id="text_15">
      <!-- 300 -->
      <g transform="translate(31.5125 45.271219)scale(0.1 -0.1)">
       <use xlink:href="#DejaVuSans-33"/>
       <use xlink:href="#DejaVuSans-30" x="63.623047"/>
       <use xlink:href="#DejaVuSans-30" x="127.246094"/>
      </g>
     </g>
    </g>
    <g id="text_16">
     <!-- Mbps -->
     <g transform="translate(25.432812 187.795187)rotate(-90)scale(0.1 -0.1)">
      <defs>
       <path id="DejaVuSans-4d" d="M 628 4666 
L 1569 4666 
L 2759 1491 
L 3956 4666 
L 4897 4666 
L 4897 0 
L 4281 0 
L 4281 4097 
L 3078 897 
L 2444 897 
L 1241 4097 
L 1241 0 
L 628 0 
L 628 4666 
z
" transform="scale(0.015625)"/>
       <path id="DejaVuSans-62" d="M 3116 1747 
Q 3116 2381 2855 2742 
Q 2594 3103 2138 3103 
Q 1681 3103 1420 2742 
Q 1159 2381 1159 1747 
Q 1159 1113 1420 752 
Q 1681 391 2138 391 
Q 2594 391 2855 752 
Q 3116 1113 3116 1747 
z
M 1159 2969 
Q 1341 3281 1617 3432 
Q 1894 3584 2278 3584 
Q 2916 3584 3314 3078 
Q 3713 2572 3713 1747 
Q 3713 922 3314 415 
Q 2916 -91 2278 -91 
Q 1894 -91 1617 61 
Q 1341 213 1159 525 
L 1159 0 
L 581 0 
L 581 4863 
L 1159 4863 
L 1159 2969 
z
" transform="scale(0.015625)"/>
       <path id="DejaVuSans-70" d="M 1159 525 
L 1159 -1331 
L 581 -1331 
L 581 3500 
L 1159 3500 
L 1159 2969 
Q 1341 3281 1617 3432 
Q 1894 3584 2278 3584 
Q 2916 3584 3314 3078 
Q 3713 2572 3713 1747 
Q 3713 922 3314 415 
Q 2916 -91 2278 -91 
Q 1894 -91 1617 61 
Q 1341 213 1159 525 
z
M 3116 1747 
Q 3116 2381 2855 2742 
Q 2594 3103 2138 3103 
Q 1681 3103 1420 2742 
Q 1159 2381 1159 1747 
Q 1159 1113 1420 752 
Q 1681 391 2138 391 
Q 2594 391 2855 752 
Q 3116 1113 3116 1747 
z
" transform="scale(0.015625)"/>
      </defs>
      <use xlink:href="#DejaVuSans-4d"/>
      <use xlink:href="#DejaVuSans-62" x="86.279297"/>
      <use xlink:href="#DejaVuSans-70" x="149.755859"/>
      <use xlink:href="#DejaVuSans-73" x="213.232422"/>
     </g>
    </g>
   </g>
   <g id="line2d_15">
    <path d="M 73.832727 212.665064 
L 74.38526 200.68387 
L 74.937611 216.246396 
L 75.48936 206.770427 
L 76.040977 207.187656 
L 76.592898 185.355226 
L 77.144586 198.916462 
L 77.696634 197.674417 
L 78.248466 214.078928 
L 78.800987 212.950193 
L 79.35293 215.938081 
L 79.90469 216.950669 
L 80.456363 209.036151 
L 81.0083 219.289979 
L 81.560044 215.146537 
L 82.111843 214.358868 
L 82.664066 212.369862 
L 83.215921 211.165104 
L 83.768007 210.637468 
L 84.319784 214.031289 
L 84.871682 212.753833 
L 85.423509 217.00923 
L 85.975164 202.458197 
L 86.527096 213.217261 
L 87.078763 212.462633 
L 87.631372 217.32972 
L 88.736973 216.11924 
L 89.288623 213.374375 
L 89.840394 213.166563 
L 90.392127 175.613825 
L 90.943833 154.272529 
L 91.495819 214.702772 
L 92.048291 210.534277 
L 92.600068 217.622398 
L 93.151763 218.894963 
L 93.704053 216.010682 
L 94.256199 215.345443 
L 94.807849 216.554959 
L 95.360255 215.809926 
L 95.911961 212.381466 
L 96.464344 220.665442 
L 97.015934 191.164413 
L 97.568924 216.057628 
L 98.120972 216.749326 
L 98.672671 209.544818 
L 99.224912 211.142209 
L 99.77676 215.331171 
L 100.329073 211.456369 
L 100.881335 212.865281 
L 101.432985 215.117427 
L 101.985303 215.796817 
L 102.536969 205.776253 
L 103.089408 214.101282 
L 103.641351 209.913574 
L 104.193177 214.950085 
L 104.7448 214.67707 
L 105.296605 212.096206 
L 105.848922 216.622311 
L 106.401185 201.182366 
L 106.95289 190.802038 
L 107.505147 171.041173 
L 108.056902 222.790334 
L 108.609236 217.42016 
L 109.160858 213.721013 
L 109.713066 218.456971 
L 110.264821 215.452291 
L 110.817083 216.126761 
L 111.368772 213.509596 
L 111.921089 218.411039 
L 112.472684 217.013418 
L 113.02434 219.372439 
L 113.576266 215.162685 
L 114.128164 215.687868 
L 114.679798 215.102472 
L 115.231525 212.975929 
L 115.783148 207.811572 
L 116.335355 209.522697 
L 116.887055 216.071317 
L 117.439455 212.443196 
L 117.991045 218.759004 
L 118.545172 215.57381 
L 119.09739 210.870398 
L 119.64904 217.558944 
L 120.201176 217.694201 
L 120.752798 215.154963 
L 121.304415 199.913149 
L 121.856374 194.943875 
L 122.408113 191.201453 
L 122.960866 157.941254 
L 123.513459 156.196973 
L 124.065369 178.827206 
L 124.617151 189.657213 
L 126.272918 199.311479 
L 126.825302 217.742973 
L 127.377763 215.475572 
L 127.929419 210.744493 
L 128.481758 214.838436 
L 129.033513 211.912524 
L 129.586829 213.506879 
L 130.141414 217.334323 
L 130.693808 211.346697 
L 131.245398 208.975147 
L 131.79782 217.014665 
L 132.349592 211.96505 
L 133.454288 216.621664 
L 134.00596 210.96697 
L 134.557687 211.243541 
L 135.109679 197.213047 
L 135.661412 212.45395 
L 136.21378 216.311171 
L 136.765733 217.676596 
L 137.31788 213.982625 
L 137.870269 220.327816 
L 138.422002 217.038152 
L 139.526847 212.558871 
L 140.078739 215.615727 
L 140.630952 216.468769 
L 141.182564 218.961311 
L 141.73471 212.698907 
L 142.286371 217.154746 
L 143.390615 220.560153 
L 143.942938 213.180158 
L 144.495465 219.440637 
L 145.048042 214.463935 
L 145.599731 215.21795 
L 146.152986 214.358305 
L 146.704675 216.8627 
L 147.256595 216.272658 
L 147.808858 216.430726 
L 148.361247 218.731172 
L 148.912963 210.210822 
L 149.465546 217.125798 
L 150.017163 201.634853 
L 150.569144 194.363064 
L 151.120827 216.643104 
L 151.672483 217.649367 
L 152.224177 217.382306 
L 152.775904 218.045625 
L 153.327516 217.635338 
L 153.879999 220.033175 
L 154.431798 218.654943 
L 154.983845 218.692087 
L 155.535435 215.504576 
L 156.087085 219.083767 
L 156.638823 215.052788 
L 157.190523 214.358465 
L 157.742262 210.272562 
L 158.293906 208.864963 
L 158.845744 214.883143 
L 159.397345 215.68555 
L 159.949469 213.239304 
L 160.501423 169.076191 
L 161.053895 222.015667 
L 161.606339 217.350391 
L 162.710456 218.661302 
L 163.26215 206.97592 
L 163.814098 210.465135 
L 164.366592 210.752129 
L 164.918601 215.73991 
L 165.470692 209.751008 
L 166.022668 211.354018 
L 166.574505 218.140977 
L 167.126106 212.684151 
L 167.678876 219.18801 
L 168.782441 216.871778 
L 169.334604 218.183891 
L 169.888201 217.965123 
L 170.439863 213.765273 
L 170.991507 218.76863 
L 171.543113 210.338334 
L 172.094818 207.013927 
L 172.647064 211.035562 
L 173.198698 213.235872 
L 173.750883 210.790577 
L 174.302605 211.693389 
L 174.85522 210.284401 
L 175.407704 210.348585 
L 177.063062 218.154482 
L 178.719331 208.944025 
L 179.27097 214.244001 
L 179.822576 212.680769 
L 180.37421 210.316398 
L 180.925932 214.203195 
L 181.478393 216.469232 
L 182.03023 216.557483 
L 182.581831 218.864321 
L 183.136233 210.2117 
L 183.687955 215.905153 
L 184.239683 217.021821 
L 184.79136 213.419345 
L 185.344036 210.593484 
L 185.895725 214.731792 
L 186.447568 211.966043 
L 186.999185 215.938692 
L 187.552816 212.009043 
L 188.105166 210.372859 
L 188.656811 214.029004 
L 189.208417 209.217058 
L 189.760492 207.634209 
L 190.312081 213.658196 
L 190.864438 213.269074 
L 191.416143 206.129667 
L 191.969139 210.08716 
L 192.520971 207.434396 
L 193.072693 211.205771 
L 193.624415 213.559082 
L 194.176219 216.836419 
L 194.72787 209.770328 
L 195.279553 206.009025 
L 195.831843 215.869488 
L 196.383488 213.741211 
L 196.935893 210.736388 
L 197.488001 214.994377 
L 198.039767 209.777129 
L 198.592063 201.370893 
L 199.14379 205.437859 
L 199.695854 184.055803 
L 200.247537 153.48671 
L 200.799132 68.98339 
L 201.351246 56.223197 
L 201.903039 204.699129 
L 202.455511 207.209035 
L 203.007377 213.784275 
L 203.558983 213.476605 
L 204.110837 209.313725 
L 204.663662 219.777333 
L 205.215897 209.458173 
L 205.767519 207.492841 
L 206.319969 208.219112 
L 206.872541 205.374243 
L 207.424163 208.004367 
L 207.975995 214.78528 
L 208.527684 211.904361 
L 209.079312 212.242745 
L 209.631409 206.457818 
L 210.183148 210.01303 
L 210.734891 212.013178 
L 211.286906 206.291455 
L 211.838617 205.965793 
L 212.942645 203.659832 
L 213.495509 206.921339 
L 214.047628 213.830221 
L 214.599256 206.117494 
L 215.151496 200.620994 
L 215.703218 203.316748 
L 216.255078 212.308067 
L 216.806689 211.190286 
L 217.358301 216.03969 
L 217.910718 213.400998 
L 218.462384 198.501724 
L 219.01484 214.425305 
L 219.5682 198.45628 
L 220.120926 197.679455 
L 220.672874 201.907969 
L 221.22448 207.160271 
L 221.776246 207.40168 
L 222.327962 212.982156 
L 222.879651 213.918686 
L 223.431924 209.652531 
L 223.983629 210.207115 
L 224.535864 213.067327 
L 225.087465 213.304449 
L 225.639915 208.451146 
L 226.191769 204.635695 
L 226.743883 211.361488 
L 227.295538 209.594222 
L 227.84721 210.664643 
L 228.399434 209.902558 
L 228.951818 208.414872 
L 229.503452 209.159111 
L 230.055184 207.96095 
L 230.607077 204.439916 
L 231.158672 204.857196 
L 231.71046 211.285119 
L 232.262276 206.040766 
L 232.813954 192.980606 
L 233.365615 157.729653 
L 233.917839 211.982867 
L 234.469721 215.113291 
L 235.021465 209.242928 
L 235.57397 211.844798 
L 236.125642 202.247732 
L 236.678031 215.891987 
L 237.230029 213.347191 
L 237.782192 209.3808 
L 238.333803 210.285168 
L 238.88611 214.691013 
L 239.438532 211.61159 
L 239.990348 203.292457 
L 240.542026 198.565209 
L 241.093847 213.931753 
L 241.645751 217.09468 
L 242.197395 214.190529 
L 242.749255 213.760543 
L 243.301672 171.476287 
L 243.853581 211.695604 
L 244.405778 210.260087 
L 244.957461 215.33246 
L 245.510126 221.855625 
L 246.061875 219.672937 
L 247.165148 218.444462 
L 247.71687 214.561448 
L 248.820485 219.335545 
L 249.372951 216.430682 
L 249.925837 217.128711 
L 250.478199 221.101716 
L 251.029865 212.562236 
L 251.58258 211.011224 
L 252.1353 216.546749 
L 252.687436 212.313943 
L 253.239158 214.110705 
L 253.790857 207.79421 
L 254.342673 213.356559 
L 254.894472 212.951084 
L 255.446911 214.046414 
L 255.998815 208.860404 
L 256.551022 214.054966 
L 257.103594 209.316677 
L 257.655977 218.8897 
L 258.759371 217.935627 
L 259.311353 219.463738 
L 259.863074 214.603938 
L 260.415315 214.671362 
L 260.967693 211.814768 
L 261.519431 215.874683 
L 262.071583 207.552931 
L 262.623316 206.125198 
L 263.175733 205.800303 
L 263.727488 213.091476 
L 264.279811 216.290024 
L 264.83203 213.612647 
L 265.384016 211.618602 
L 265.936417 211.714932 
L 267.039811 206.476781 
L 267.591781 206.67283 
L 268.144247 222.763124 
L 268.696008 206.492693 
L 269.247597 195.381045 
L 269.799562 202.819802 
L 270.351388 206.606355 
L 270.903612 207.106055 
L 271.455312 214.820999 
L 272.007663 217.90499 
L 272.559252 212.992138 
L 273.111101 212.598652 
L 274.214506 216.447953 
L 274.766233 213.245885 
L 275.318639 218.226952 
L 275.870571 217.93109 
L 276.422171 216.254416 
L 276.973882 216.087897 
L 277.526459 219.832939 
L 278.078616 218.949644 
L 278.630289 220.76966 
L 279.181961 219.651361 
L 279.734714 220.464634 
L 280.286513 220.852398 
L 280.838544 217.143268 
L 281.390316 211.785364 
L 281.941966 210.76484 
L 282.494515 215.643909 
L 283.04611 217.024382 
L 283.598372 214.54942 
L 284.152179 205.302528 
L 284.704083 217.022918 
L 285.256401 218.048779 
L 285.808051 206.233949 
L 286.36044 218.94627 
L 286.912085 218.194803 
L 287.464353 216.736476 
L 288.015953 218.223519 
L 288.568381 218.438712 
L 289.120064 213.202748 
L 289.672696 213.515272 
L 290.224694 220.765119 
L 290.777889 215.347846 
L 291.330305 213.847053 
L 291.8819 217.062482 
L 292.433589 214.782539 
L 292.985785 218.331886 
L 293.538434 214.102559 
L 294.091011 217.772469 
L 294.643466 215.133091 
L 295.195282 209.50607 
L 295.749387 218.138413 
L 296.301357 218.281658 
L 296.853139 216.921211 
L 297.405379 213.488106 
L 297.957057 198.768879 
L 298.509446 213.371292 
L 299.061163 207.554576 
L 300.164375 211.25977 
L 300.716113 208.310717 
L 301.267752 214.492887 
L 301.819419 214.491722 
L 302.371279 213.300442 
L 302.92289 214.193181 
L 303.474552 214.359248 
L 304.026378 211.424916 
L 304.578001 195.470065 
L 305.12964 213.601551 
L 305.681742 218.246614 
L 306.234705 215.048356 
L 306.787028 216.527856 
L 307.338756 215.736383 
L 307.8904 218.142969 
L 308.44204 214.20367 
L 308.993679 213.15683 
L 309.545356 216.909266 
L 310.097249 210.261376 
L 310.648966 210.665967 
L 311.205779 250.138224 
L 311.768394 300.079353 
L 312.322775 296.11877 
L 312.875589 261.047455 
L 313.443351 260.037183 
L 313.995437 290.648117 
L 314.582658 299.068094 
L 315.134424 268.763568 
L 315.686577 246.362037 
L 316.238166 216.491008 
L 316.790588 217.013246 
L 317.342216 218.636377 
L 317.894633 215.77804 
L 318.446355 215.707725 
L 319.000763 218.476275 
L 320.104163 218.087062 
L 320.655945 218.395877 
L 321.207866 219.465143 
L 321.760073 215.841077 
L 322.311712 215.810132 
L 322.863964 215.030993 
L 323.415768 215.347606 
L 323.970303 216.357101 
L 324.522047 213.374217 
L 325.07367 208.121979 
L 325.625265 213.8985 
L 326.177406 213.469293 
L 326.729117 216.827017 
L 327.281396 214.036423 
L 327.833046 214.165072 
L 328.385021 214.745686 
L 328.936638 212.886359 
L 329.488228 214.359513 
L 330.039944 212.448864 
L 330.591705 211.922681 
L 331.143399 212.052686 
L 331.695948 208.856672 
L 332.247543 163.116557 
L 332.799971 213.977312 
L 333.352322 206.879283 
L 333.904121 210.714053 
L 334.455815 205.794807 
L 335.007559 207.079081 
L 335.559226 207.121649 
L 336.111543 208.550122 
L 336.663149 202.215737 
L 337.767172 206.993343 
L 338.318778 210.936293 
L 338.872585 192.263398 
L 339.424732 211.158756 
L 339.976525 202.405182 
L 340.528799 209.453948 
L 341.081844 206.302383 
L 341.634289 214.785487 
L 342.186954 207.137514 
L 342.738918 210.203414 
L 343.290535 206.318007 
L 343.842241 199.281099 
L 344.394139 200.922932 
L 344.946126 203.566122 
L 345.497776 212.771863 
L 346.049454 213.2761 
L 346.601236 211.841333 
L 347.152986 214.32538 
L 347.706219 214.949978 
L 348.257996 210.659441 
L 348.809613 211.832981 
L 349.361224 207.167095 
L 349.912963 211.27801 
L 350.464806 210.646579 
L 351.01708 212.694883 
L 351.568724 211.876001 
L 352.120965 213.953027 
L 352.672896 211.920056 
L 353.22496 214.802314 
L 353.776704 212.306264 
L 354.880848 204.854932 
L 355.432961 207.191587 
L 355.984556 211.532331 
L 356.537271 209.558901 
L 357.089495 210.390544 
L 357.641255 207.323147 
L 358.192856 210.892624 
L 358.747099 208.051799 
L 359.299019 212.926981 
L 359.85062 183.288975 
L 360.402711 201.811281 
L 360.954488 212.336807 
L 361.506243 206.192716 
L 362.057866 210.071785 
L 362.609692 211.500274 
L 363.161304 211.926562 
L 363.713809 199.36707 
L 364.265966 204.024181 
L 364.818063 213.416943 
L 365.370535 208.267472 
L 365.922715 214.674133 
L 366.474509 207.020135 
L 367.026175 200.965024 
L 367.578267 207.701844 
L 368.130513 205.716876 
L 368.682179 209.235997 
L 369.787024 213.953885 
L 370.338713 207.556409 
L 370.890832 206.669963 
L 371.442592 208.252715 
L 371.994882 203.098698 
L 372.546544 183.425324 
L 373.098337 205.963915 
L 373.650748 201.939909 
L 374.202426 199.977363 
L 374.754385 208.841256 
L 375.30603 206.787748 
L 375.857636 207.046918 
L 376.961129 216.654661 
L 377.512978 210.848314 
L 378.065108 209.230704 
L 378.616753 213.25745 
L 379.168348 210.612703 
L 379.720119 205.806212 
L 380.271802 206.260328 
L 380.823855 205.746707 
L 381.375445 214.40066 
L 381.92704 212.361072 
L 382.479126 220.491299 
L 383.030886 212.2962 
L 383.583286 210.967679 
L 384.134881 213.650811 
L 384.687039 215.544424 
L 385.238849 213.83213 
L 385.79104 213.698202 
L 386.89503 210.026025 
L 387.446884 214.278965 
L 387.998782 210.06708 
L 388.550477 215.183215 
L 389.103318 214.465655 
L 389.654913 211.463912 
L 390.207363 213.013993 
L 390.759035 213.298975 
L 391.311982 212.870176 
L 391.863792 209.851177 
L 392.415745 213.64068 
L 392.9676 213.841858 
L 393.519763 208.824209 
L 394.071766 205.156249 
L 394.623383 212.269396 
L 395.17602 198.939686 
L 395.727632 194.901134 
L 396.279392 202.936386 
L 396.831098 197.504729 
L 397.382897 202.031794 
L 397.934961 162.527985 
L 398.487273 187.152172 
L 398.487273 187.152172 
" clip-path="url(#pa93870577b)" style="fill: none; stroke: #1f77b4; stroke-width: 1.5; stroke-linecap: square"/>
   </g>
   <g id="patch_3">
    <path d="M 57.6 307.584 
L 57.6 41.472 
" style="fill: none; stroke: #000000; stroke-width: 0.8; stroke-linejoin: miter; stroke-linecap: square"/>
   </g>
   <g id="patch_4">
    <path d="M 414.72 307.584 
L 414.72 41.472 
" style="fill: none; stroke: #000000; stroke-width: 0.8; stroke-linejoin: miter; stroke-linecap: square"/>
   </g>
   <g id="patch_5">
    <path d="M 57.6 307.584 
L 414.72 307.584 
" style="fill: none; stroke: #000000; stroke-width: 0.8; stroke-linejoin: miter; stroke-linecap: square"/>
   </g>
   <g id="patch_6">
    <path d="M 57.6 41.472 
L 414.72 41.472 
" style="fill: none; stroke: #000000; stroke-width: 0.8; stroke-linejoin: miter; stroke-linecap: square"/>
   </g>
   <g id="text_17">
    <!-- pt17 link speed per 100ms -->
    <g transform="translate(155.608125 35.472)scale(0.12 -0.12)">
     <defs>
      <path id="DejaVuSans-37" d="M 525 4666 
L 3525 4666 
L 3525 4397 
L 1831 0 
L 1172 0 
L 2766 4134 
L 525 4134 
L 525 4666 
z
" transform="scale(0.015625)"/>
      <path id="DejaVuSans-20" transform="scale(0.015625)"/>
      <path id="DejaVuSans-6c" d="M 603 4863 
L 1178 4863 
L 1178 0 
L 603 0 
L 603 4863 
z
" transform="scale(0.015625)"/>
      <path id="DejaVuSans-6e" d="M 3513 2113 
L 3513 0 
L 2938 0 
L 2938 2094 
Q 2938 2591 2744 2837 
Q 2550 3084 2163 3084 
Q 1697 3084 1428 2787 
Q 1159 2491 1159 1978 
L 1159 0 
L 581 0 
L 581 3500 
L 1159 3500 
L 1159 2956 
Q 1366 3272 1645 3428 
Q 1925 3584 2291 3584 
Q 2894 3584 3203 3211 
Q 3513 2838 3513 2113 
z
" transform="scale(0.015625)"/>
      <path id="DejaVuSans-6b" d="M 581 4863 
L 1159 4863 
L 1159 1991 
L 2875 3500 
L 3609 3500 
L 1753 1863 
L 3688 0 
L 2938 0 
L 1159 1709 
L 1159 0 
L 581 0 
L 581 4863 
z
" transform="scale(0.015625)"/>
      <path id="DejaVuSans-64" d="M 2906 2969 
L 2906 4863 
L 3481 4863 
L 3481 0 
L 2906 0 
L 2906 525 
Q 2725 213 2448 61 
Q 2172 -91 1784 -91 
Q 1150 -91 751 415 
Q 353 922 353 1747 
Q 353 2572 751 3078 
Q 1150 3584 1784 3584 
Q 2172 3584 2448 3432 
Q 2725 3281 2906 2969 
z
M 947 1747 
Q 947 1113 1208 752 
Q 1469 391 1925 391 
Q 2381 391 2643 752 
Q 2906 1113 2906 1747 
Q 2906 2381 2643 2742 
Q 2381 3103 1925 3103 
Q 1469 3103 1208 2742 
Q 947 2381 947 1747 
z
" transform="scale(0.015625)"/>
      <path id="DejaVuSans-72" d="M 2631 2963 
Q 2534 3019 2420 3045 
Q 2306 3072 2169 3072 
Q 1681 3072 1420 2755 
Q 1159 2438 1159 1844 
L 1159 0 
L 581 0 
L 581 3500 
L 1159 3500 
L 1159 2956 
Q 1341 3275 1631 3429 
Q 1922 3584 2338 3584 
Q 2397 3584 2469 3576 
Q 2541 3569 2628 3553 
L 2631 2963 
z
" transform="scale(0.015625)"/>
     </defs>
     <use xlink:href="#DejaVuSans-70"/>
     <use xlink:href="#DejaVuSans-74" x="63.476562"/>
     <use xlink:href="#DejaVuSans-31" x="102.685547"/>
     <use xlink:href="#DejaVuSans-37" x="166.308594"/>
     <use xlink:href="#DejaVuSans-20" x="229.931641"/>
     <use xlink:href="#DejaVuSans-6c" x="261.71875"/>
     <use xlink:href="#DejaVuSans-69" x="289.501953"/>
     <use xlink:href="#DejaVuSans-6e" x="317.285156"/>
     <use xlink:href="#DejaVuSans-6b" x="380.664062"/>
     <use xlink:href="#DejaVuSans-20" x="438.574219"/>
     <use xlink:href="#DejaVuSans-73" x="470.361328"/>
     <use xlink:href="#DejaVuSans-70" x="522.460938"/>
     <use xlink:href="#DejaVuSans-65" x="585.9375"/>
     <use xlink:href="#DejaVuSans-65" x="647.460938"/>
     <use xlink:href="#DejaVuSans-64" x="708.984375"/>
     <use xlink:href="#DejaVuSans-20" x="772.460938"/>
     <use xlink:href="#DejaVuSans-70" x="804.248047"/>
     <use xlink:href="#DejaVuSans-65" x="867.724609"/>
     <use xlink:href="#DejaVuSans-72" x="929.248047"/>
     <use xlink:href="#DejaVuSans-20" x="970.361328"/>
     <use xlink:href="#DejaVuSans-31" x="1002.148438"/>
     <use xlink:href="#DejaVuSans-30" x="1065.771484"/>
     <use xlink:href="#DejaVuSans-30" x="1129.394531"/>
     <use xlink:href="#DejaVuSans-6d" x="1193.017578"/>
     <use xlink:href="#DejaVuSans-73" x="1290.429688"/>
    </g>
   </g>
  </g>
 </g>
 <defs>
  <clipPath id="pa93870577b">
   <rect x="57.6" y="41.472" width="357.12" height="266.112"/>
  </clipPath>
 </defs>
</svg>
