<?xml version="1.0" encoding="utf-8" standalone="no"?>
<!DOCTYPE svg PUBLIC "-//W3C//DTD SVG 1.1//EN"
  "http://www.w3.org/Graphics/SVG/1.1/DTD/svg11.dtd">
<svg xmlns:xlink="http://www.w3.org/1999/xlink" width="460.8pt" height="345.6pt" viewBox="0 0 460.8 345.6" xmlns="http://www.w3.org/2000/svg" version="1.1">
 <metadata>
  <rdf:RDF xmlns:dc="http://purl.org/dc/elements/1.1/" xmlns:cc="http://creativecommons.org/ns#" xmlns:rdf="http://www.w3.org/1999/02/22-rdf-syntax-ns#">
   <cc:Work>
    <dc:type rdf:resource="http://purl.org/dc/dcmitype/StillImage"/>
    <dc:date>2022-07-10T08:14:17.593062</dc:date>
    <dc:format>image/svg+xml</dc:format>
    <dc:creator>
     <cc:Agent>
      <dc:title>Matplotlib v3.5.2, https://matplotlib.org/</dc:title>
     </cc:Agent>
    </dc:creator>
   </cc:Work>
  </rdf:RDF>
 </metadata>
 <defs>
  <style type="text/css">*{stroke-linejoin: round; stroke-linecap: butt}</style>
 </defs>
 <g id="figure_1">
  <g id="patch_1">
   <path d="M 0 345.6 
L 460.8 345.6 
L 460.8 0 
L 0 0 
z
" style="fill: #ffffff"/>
  </g>
  <g id="axes_1">
   <g id="patch_2">
    <path d="M 57.6 307.584 
L 414.72 307.584 
L 414.72 41.472 
L 57.6 41.472 
z
" style="fill: #ffffff"/>
   </g>
   <g id="matplotlib.axis_1">
    <g id="xtick_1">
     <g id="line2d_1">
      <defs>
       <path id="m911ee673b9" d="M 0 0 
L 0 3.5 
" style="stroke: #000000; stroke-width: 0.8"/>
      </defs>
      <g>
       <use xlink:href="#m911ee673b9" x="73.251138" y="307.584" style="stroke: #000000; stroke-width: 0.8"/>
      </g>
     </g>
     <g id="text_1">
      <!-- 0 -->
      <g transform="translate(70.069888 322.182437)scale(0.1 -0.1)">
       <defs>
        <path id="DejaVuSans-30" d="M 2034 4250 
Q 1547 4250 1301 3770 
Q 1056 3291 1056 2328 
Q 1056 1369 1301 889 
Q 1547 409 2034 409 
Q 2525 409 2770 889 
Q 3016 1369 3016 2328 
Q 3016 3291 2770 3770 
Q 2525 4250 2034 4250 
z
M 2034 4750 
Q 2819 4750 3233 4129 
Q 3647 3509 3647 2328 
Q 3647 1150 3233 529 
Q 2819 -91 2034 -91 
Q 1250 -91 836 529 
Q 422 1150 422 2328 
Q 422 3509 836 4129 
Q 1250 4750 2034 4750 
z
" transform="scale(0.015625)"/>
       </defs>
       <use xlink:href="#DejaVuSans-30"/>
      </g>
     </g>
    </g>
    <g id="xtick_2">
     <g id="line2d_2">
      <g>
       <use xlink:href="#m911ee673b9" x="131.370514" y="307.584" style="stroke: #000000; stroke-width: 0.8"/>
      </g>
     </g>
     <g id="text_2">
      <!-- 10 -->
      <g transform="translate(125.008014 322.182437)scale(0.1 -0.1)">
       <defs>
        <path id="DejaVuSans-31" d="M 794 531 
L 1825 531 
L 1825 4091 
L 703 3866 
L 703 4441 
L 1819 4666 
L 2450 4666 
L 2450 531 
L 3481 531 
L 3481 0 
L 794 0 
L 794 531 
z
" transform="scale(0.015625)"/>
       </defs>
       <use xlink:href="#DejaVuSans-31"/>
       <use xlink:href="#DejaVuSans-30" x="63.623047"/>
      </g>
     </g>
    </g>
    <g id="xtick_3">
     <g id="line2d_3">
      <g>
       <use xlink:href="#m911ee673b9" x="189.489889" y="307.584" style="stroke: #000000; stroke-width: 0.8"/>
      </g>
     </g>
     <g id="text_3">
      <!-- 20 -->
      <g transform="translate(183.127389 322.182437)scale(0.1 -0.1)">
       <defs>
        <path id="DejaVuSans-32" d="M 1228 531 
L 3431 531 
L 3431 0 
L 469 0 
L 469 531 
Q 828 903 1448 1529 
Q 2069 2156 2228 2338 
Q 2531 2678 2651 2914 
Q 2772 3150 2772 3378 
Q 2772 3750 2511 3984 
Q 2250 4219 1831 4219 
Q 1534 4219 1204 4116 
Q 875 4013 500 3803 
L 500 4441 
Q 881 4594 1212 4672 
Q 1544 4750 1819 4750 
Q 2544 4750 2975 4387 
Q 3406 4025 3406 3419 
Q 3406 3131 3298 2873 
Q 3191 2616 2906 2266 
Q 2828 2175 2409 1742 
Q 1991 1309 1228 531 
z
" transform="scale(0.015625)"/>
       </defs>
       <use xlink:href="#DejaVuSans-32"/>
       <use xlink:href="#DejaVuSans-30" x="63.623047"/>
      </g>
     </g>
    </g>
    <g id="xtick_4">
     <g id="line2d_4">
      <g>
       <use xlink:href="#m911ee673b9" x="247.609264" y="307.584" style="stroke: #000000; stroke-width: 0.8"/>
      </g>
     </g>
     <g id="text_4">
      <!-- 30 -->
      <g transform="translate(241.246764 322.182437)scale(0.1 -0.1)">
       <defs>
        <path id="DejaVuSans-33" d="M 2597 2516 
Q 3050 2419 3304 2112 
Q 3559 1806 3559 1356 
Q 3559 666 3084 287 
Q 2609 -91 1734 -91 
Q 1441 -91 1130 -33 
Q 819 25 488 141 
L 488 750 
Q 750 597 1062 519 
Q 1375 441 1716 441 
Q 2309 441 2620 675 
Q 2931 909 2931 1356 
Q 2931 1769 2642 2001 
Q 2353 2234 1838 2234 
L 1294 2234 
L 1294 2753 
L 1863 2753 
Q 2328 2753 2575 2939 
Q 2822 3125 2822 3475 
Q 2822 3834 2567 4026 
Q 2313 4219 1838 4219 
Q 1578 4219 1281 4162 
Q 984 4106 628 3988 
L 628 4550 
Q 988 4650 1302 4700 
Q 1616 4750 1894 4750 
Q 2613 4750 3031 4423 
Q 3450 4097 3450 3541 
Q 3450 3153 3228 2886 
Q 3006 2619 2597 2516 
z
" transform="scale(0.015625)"/>
       </defs>
       <use xlink:href="#DejaVuSans-33"/>
       <use xlink:href="#DejaVuSans-30" x="63.623047"/>
      </g>
     </g>
    </g>
    <g id="xtick_5">
     <g id="line2d_5">
      <g>
       <use xlink:href="#m911ee673b9" x="305.728639" y="307.584" style="stroke: #000000; stroke-width: 0.8"/>
      </g>
     </g>
     <g id="text_5">
      <!-- 40 -->
      <g transform="translate(299.366139 322.182437)scale(0.1 -0.1)">
       <defs>
        <path id="DejaVuSans-34" d="M 2419 4116 
L 825 1625 
L 2419 1625 
L 2419 4116 
z
M 2253 4666 
L 3047 4666 
L 3047 1625 
L 3713 1625 
L 3713 1100 
L 3047 1100 
L 3047 0 
L 2419 0 
L 2419 1100 
L 313 1100 
L 313 1709 
L 2253 4666 
z
" transform="scale(0.015625)"/>
       </defs>
       <use xlink:href="#DejaVuSans-34"/>
       <use xlink:href="#DejaVuSans-30" x="63.623047"/>
      </g>
     </g>
    </g>
    <g id="xtick_6">
     <g id="line2d_6">
      <g>
       <use xlink:href="#m911ee673b9" x="363.848015" y="307.584" style="stroke: #000000; stroke-width: 0.8"/>
      </g>
     </g>
     <g id="text_6">
      <!-- 50 -->
      <g transform="translate(357.485515 322.182437)scale(0.1 -0.1)">
       <defs>
        <path id="DejaVuSans-35" d="M 691 4666 
L 3169 4666 
L 3169 4134 
L 1269 4134 
L 1269 2991 
Q 1406 3038 1543 3061 
Q 1681 3084 1819 3084 
Q 2600 3084 3056 2656 
Q 3513 2228 3513 1497 
Q 3513 744 3044 326 
Q 2575 -91 1722 -91 
Q 1428 -91 1123 -41 
Q 819 9 494 109 
L 494 744 
Q 775 591 1075 516 
Q 1375 441 1709 441 
Q 2250 441 2565 725 
Q 2881 1009 2881 1497 
Q 2881 1984 2565 2268 
Q 2250 2553 1709 2553 
Q 1456 2553 1204 2497 
Q 953 2441 691 2322 
L 691 4666 
z
" transform="scale(0.015625)"/>
       </defs>
       <use xlink:href="#DejaVuSans-35"/>
       <use xlink:href="#DejaVuSans-30" x="63.623047"/>
      </g>
     </g>
    </g>
    <g id="text_7">
     <!-- time(s) -->
     <g transform="translate(218.357656 335.860562)scale(0.1 -0.1)">
      <defs>
       <path id="DejaVuSans-74" d="M 1172 4494 
L 1172 3500 
L 2356 3500 
L 2356 3053 
L 1172 3053 
L 1172 1153 
Q 1172 725 1289 603 
Q 1406 481 1766 481 
L 2356 481 
L 2356 0 
L 1766 0 
Q 1100 0 847 248 
Q 594 497 594 1153 
L 594 3053 
L 172 3053 
L 172 3500 
L 594 3500 
L 594 4494 
L 1172 4494 
z
" transform="scale(0.015625)"/>
       <path id="DejaVuSans-69" d="M 603 3500 
L 1178 3500 
L 1178 0 
L 603 0 
L 603 3500 
z
M 603 4863 
L 1178 4863 
L 1178 4134 
L 603 4134 
L 603 4863 
z
" transform="scale(0.015625)"/>
       <path id="DejaVuSans-6d" d="M 3328 2828 
Q 3544 3216 3844 3400 
Q 4144 3584 4550 3584 
Q 5097 3584 5394 3201 
Q 5691 2819 5691 2113 
L 5691 0 
L 5113 0 
L 5113 2094 
Q 5113 2597 4934 2840 
Q 4756 3084 4391 3084 
Q 3944 3084 3684 2787 
Q 3425 2491 3425 1978 
L 3425 0 
L 2847 0 
L 2847 2094 
Q 2847 2600 2669 2842 
Q 2491 3084 2119 3084 
Q 1678 3084 1418 2786 
Q 1159 2488 1159 1978 
L 1159 0 
L 581 0 
L 581 3500 
L 1159 3500 
L 1159 2956 
Q 1356 3278 1631 3431 
Q 1906 3584 2284 3584 
Q 2666 3584 2933 3390 
Q 3200 3197 3328 2828 
z
" transform="scale(0.015625)"/>
       <path id="DejaVuSans-65" d="M 3597 1894 
L 3597 1613 
L 953 1613 
Q 991 1019 1311 708 
Q 1631 397 2203 397 
Q 2534 397 2845 478 
Q 3156 559 3463 722 
L 3463 178 
Q 3153 47 2828 -22 
Q 2503 -91 2169 -91 
Q 1331 -91 842 396 
Q 353 884 353 1716 
Q 353 2575 817 3079 
Q 1281 3584 2069 3584 
Q 2775 3584 3186 3129 
Q 3597 2675 3597 1894 
z
M 3022 2063 
Q 3016 2534 2758 2815 
Q 2500 3097 2075 3097 
Q 1594 3097 1305 2825 
Q 1016 2553 972 2059 
L 3022 2063 
z
" transform="scale(0.015625)"/>
       <path id="DejaVuSans-28" d="M 1984 4856 
Q 1566 4138 1362 3434 
Q 1159 2731 1159 2009 
Q 1159 1288 1364 580 
Q 1569 -128 1984 -844 
L 1484 -844 
Q 1016 -109 783 600 
Q 550 1309 550 2009 
Q 550 2706 781 3412 
Q 1013 4119 1484 4856 
L 1984 4856 
z
" transform="scale(0.015625)"/>
       <path id="DejaVuSans-73" d="M 2834 3397 
L 2834 2853 
Q 2591 2978 2328 3040 
Q 2066 3103 1784 3103 
Q 1356 3103 1142 2972 
Q 928 2841 928 2578 
Q 928 2378 1081 2264 
Q 1234 2150 1697 2047 
L 1894 2003 
Q 2506 1872 2764 1633 
Q 3022 1394 3022 966 
Q 3022 478 2636 193 
Q 2250 -91 1575 -91 
Q 1294 -91 989 -36 
Q 684 19 347 128 
L 347 722 
Q 666 556 975 473 
Q 1284 391 1588 391 
Q 1994 391 2212 530 
Q 2431 669 2431 922 
Q 2431 1156 2273 1281 
Q 2116 1406 1581 1522 
L 1381 1569 
Q 847 1681 609 1914 
Q 372 2147 372 2553 
Q 372 3047 722 3315 
Q 1072 3584 1716 3584 
Q 2034 3584 2315 3537 
Q 2597 3491 2834 3397 
z
" transform="scale(0.015625)"/>
       <path id="DejaVuSans-29" d="M 513 4856 
L 1013 4856 
Q 1481 4119 1714 3412 
Q 1947 2706 1947 2009 
Q 1947 1309 1714 600 
Q 1481 -109 1013 -844 
L 513 -844 
Q 928 -128 1133 580 
Q 1338 1288 1338 2009 
Q 1338 2731 1133 3434 
Q 928 4138 513 4856 
z
" transform="scale(0.015625)"/>
      </defs>
      <use xlink:href="#DejaVuSans-74"/>
      <use xlink:href="#DejaVuSans-69" x="39.208984"/>
      <use xlink:href="#DejaVuSans-6d" x="66.992188"/>
      <use xlink:href="#DejaVuSans-65" x="164.404297"/>
      <use xlink:href="#DejaVuSans-28" x="225.927734"/>
      <use xlink:href="#DejaVuSans-73" x="264.941406"/>
      <use xlink:href="#DejaVuSans-29" x="317.041016"/>
     </g>
    </g>
   </g>
   <g id="matplotlib.axis_2">
    <g id="ytick_1">
     <g id="line2d_7">
      <defs>
       <path id="m9652250a18" d="M 0 0 
L -3.5 0 
" style="stroke: #000000; stroke-width: 0.8"/>
      </defs>
      <g>
       <use xlink:href="#m9652250a18" x="57.6" y="307.584" style="stroke: #000000; stroke-width: 0.8"/>
      </g>
     </g>
     <g id="text_8">
      <!-- 0 -->
      <g transform="translate(44.2375 311.383219)scale(0.1 -0.1)">
       <use xlink:href="#DejaVuSans-30"/>
      </g>
     </g>
    </g>
    <g id="ytick_2">
     <g id="line2d_8">
      <g>
       <use xlink:href="#m9652250a18" x="57.6" y="263.232" style="stroke: #000000; stroke-width: 0.8"/>
      </g>
     </g>
     <g id="text_9">
      <!-- 50 -->
      <g transform="translate(37.875 267.031219)scale(0.1 -0.1)">
       <use xlink:href="#DejaVuSans-35"/>
       <use xlink:href="#DejaVuSans-30" x="63.623047"/>
      </g>
     </g>
    </g>
    <g id="ytick_3">
     <g id="line2d_9">
      <g>
       <use xlink:href="#m9652250a18" x="57.6" y="218.88" style="stroke: #000000; stroke-width: 0.8"/>
      </g>
     </g>
     <g id="text_10">
      <!-- 100 -->
      <g transform="translate(31.5125 222.679219)scale(0.1 -0.1)">
       <use xlink:href="#DejaVuSans-31"/>
       <use xlink:href="#DejaVuSans-30" x="63.623047"/>
       <use xlink:href="#DejaVuSans-30" x="127.246094"/>
      </g>
     </g>
    </g>
    <g id="ytick_4">
     <g id="line2d_10">
      <g>
       <use xlink:href="#m9652250a18" x="57.6" y="174.528" style="stroke: #000000; stroke-width: 0.8"/>
      </g>
     </g>
     <g id="text_11">
      <!-- 150 -->
      <g transform="translate(31.5125 178.327219)scale(0.1 -0.1)">
       <use xlink:href="#DejaVuSans-31"/>
       <use xlink:href="#DejaVuSans-35" x="63.623047"/>
       <use xlink:href="#DejaVuSans-30" x="127.246094"/>
      </g>
     </g>
    </g>
    <g id="ytick_5">
     <g id="line2d_11">
      <g>
       <use xlink:href="#m9652250a18" x="57.6" y="130.176" style="stroke: #000000; stroke-width: 0.8"/>
      </g>
     </g>
     <g id="text_12">
      <!-- 200 -->
      <g transform="translate(31.5125 133.975219)scale(0.1 -0.1)">
       <use xlink:href="#DejaVuSans-32"/>
       <use xlink:href="#DejaVuSans-30" x="63.623047"/>
       <use xlink:href="#DejaVuSans-30" x="127.246094"/>
      </g>
     </g>
    </g>
    <g id="ytick_6">
     <g id="line2d_12">
      <g>
       <use xlink:href="#m9652250a18" x="57.6" y="85.824" style="stroke: #000000; stroke-width: 0.8"/>
      </g>
     </g>
     <g id="text_13">
      <!-- 250 -->
      <g transform="translate(31.5125 89.623219)scale(0.1 -0.1)">
       <use xlink:href="#DejaVuSans-32"/>
       <use xlink:href="#DejaVuSans-35" x="63.623047"/>
       <use xlink:href="#DejaVuSans-30" x="127.246094"/>
      </g>
     </g>
    </g>
    <g id="ytick_7">
     <g id="line2d_13">
      <g>
       <use xlink:href="#m9652250a18" x="57.6" y="41.472" style="stroke: #000000; stroke-width: 0.8"/>
      </g>
     </g>
     <g id="text_14">
      <!-- 300 -->
      <g transform="translate(31.5125 45.271219)scale(0.1 -0.1)">
       <use xlink:href="#DejaVuSans-33"/>
       <use xlink:href="#DejaVuSans-30" x="63.623047"/>
       <use xlink:href="#DejaVuSans-30" x="127.246094"/>
      </g>
     </g>
    </g>
    <g id="text_15">
     <!-- Mbps -->
     <g transform="translate(25.432812 187.795187)rotate(-90)scale(0.1 -0.1)">
      <defs>
       <path id="DejaVuSans-4d" d="M 628 4666 
L 1569 4666 
L 2759 1491 
L 3956 4666 
L 4897 4666 
L 4897 0 
L 4281 0 
L 4281 4097 
L 3078 897 
L 2444 897 
L 1241 4097 
L 1241 0 
L 628 0 
L 628 4666 
z
" transform="scale(0.015625)"/>
       <path id="DejaVuSans-62" d="M 3116 1747 
Q 3116 2381 2855 2742 
Q 2594 3103 2138 3103 
Q 1681 3103 1420 2742 
Q 1159 2381 1159 1747 
Q 1159 1113 1420 752 
Q 1681 391 2138 391 
Q 2594 391 2855 752 
Q 3116 1113 3116 1747 
z
M 1159 2969 
Q 1341 3281 1617 3432 
Q 1894 3584 2278 3584 
Q 2916 3584 3314 3078 
Q 3713 2572 3713 1747 
Q 3713 922 3314 415 
Q 2916 -91 2278 -91 
Q 1894 -91 1617 61 
Q 1341 213 1159 525 
L 1159 0 
L 581 0 
L 581 4863 
L 1159 4863 
L 1159 2969 
z
" transform="scale(0.015625)"/>
       <path id="DejaVuSans-70" d="M 1159 525 
L 1159 -1331 
L 581 -1331 
L 581 3500 
L 1159 3500 
L 1159 2969 
Q 1341 3281 1617 3432 
Q 1894 3584 2278 3584 
Q 2916 3584 3314 3078 
Q 3713 2572 3713 1747 
Q 3713 922 3314 415 
Q 2916 -91 2278 -91 
Q 1894 -91 1617 61 
Q 1341 213 1159 525 
z
M 3116 1747 
Q 3116 2381 2855 2742 
Q 2594 3103 2138 3103 
Q 1681 3103 1420 2742 
Q 1159 2381 1159 1747 
Q 1159 1113 1420 752 
Q 1681 391 2138 391 
Q 2594 391 2855 752 
Q 3116 1113 3116 1747 
z
" transform="scale(0.015625)"/>
      </defs>
      <use xlink:href="#DejaVuSans-4d"/>
      <use xlink:href="#DejaVuSans-62" x="86.279297"/>
      <use xlink:href="#DejaVuSans-70" x="149.755859"/>
      <use xlink:href="#DejaVuSans-73" x="213.232422"/>
     </g>
    </g>
   </g>
   <g id="line2d_14">
    <path d="M 73.832727 205.244568 
L 74.414357 207.75852 
L 74.99608 202.430788 
L 75.577744 208.853609 
L 76.15974 204.516538 
L 76.741091 202.985619 
L 77.323051 204.745564 
L 77.904251 203.631656 
L 78.486555 208.44892 
L 79.067935 206.435931 
L 79.649489 211.698073 
L 80.231694 205.2928 
L 80.812946 209.668696 
L 81.394901 209.91442 
L 81.976118 209.6457 
L 82.557358 211.65381 
L 83.139028 211.648262 
L 83.720309 209.97653 
L 84.301532 210.592468 
L 84.883319 214.146301 
L 85.46457 204.185475 
L 86.046816 209.433412 
L 86.628795 204.550487 
L 87.211 208.343865 
L 87.793803 209.616597 
L 88.376026 212.945523 
L 88.957266 204.687146 
L 89.53871 200.86275 
L 90.12013 201.631783 
L 90.701399 196.510269 
L 91.282657 193.793803 
L 91.864351 168.019927 
L 92.446323 160.526475 
L 93.027616 163.655923 
L 93.608862 167.401295 
L 94.190073 197.74402 
L 94.771383 209.95766 
L 95.352798 212.559188 
L 95.934421 210.68051 
L 96.515848 207.708239 
L 97.097111 200.410673 
L 97.678473 203.839502 
L 98.259824 209.10355 
L 98.843471 198.938365 
L 99.425966 208.805409 
L 100.007195 208.362572 
L 100.58883 215.515156 
L 101.170065 214.189365 
L 102.333458 208.581054 
L 102.914744 213.755037 
L 103.496368 213.266315 
L 104.078562 216.421131 
L 104.65986 216.142732 
L 105.823079 216.704843 
L 106.404964 212.085232 
L 106.986379 215.34813 
L 107.567747 215.188934 
L 108.148946 217.563117 
L 108.730175 217.753918 
L 109.312345 217.357147 
L 109.893806 216.685738 
L 110.475511 217.274413 
L 111.056914 203.829172 
L 111.639201 203.460243 
L 112.220406 213.774385 
L 112.802007 211.454499 
L 113.383253 215.175082 
L 113.965394 205.862564 
L 114.54689 203.125527 
L 115.128467 208.276794 
L 115.709742 209.421028 
L 116.29118 203.906627 
L 116.872409 206.758753 
L 117.453632 206.116684 
L 118.035389 203.305409 
L 118.617059 212.125458 
L 119.198503 209.232879 
L 119.779708 208.344392 
L 120.361088 213.137343 
L 120.943154 210.046542 
L 121.525306 208.038476 
L 122.10818 210.240504 
L 122.690013 213.222356 
L 123.271381 219.048747 
L 123.852645 203.349276 
L 124.434024 205.50041 
L 125.015247 216.730084 
L 125.596557 213.382181 
L 126.177884 216.454345 
L 126.759224 216.098861 
L 127.340545 217.034573 
L 127.921989 216.507469 
L 128.504054 209.426412 
L 129.085661 217.333462 
L 129.666918 212.99131 
L 130.249182 217.218282 
L 131.412098 215.249014 
L 131.99335 205.7129 
L 132.574881 210.624027 
L 133.156104 216.666743 
L 133.737477 213.948054 
L 134.31934 214.421052 
L 134.900557 215.997562 
L 135.483145 202.521198 
L 136.064438 208.437089 
L 136.645806 212.480076 
L 137.227011 214.03615 
L 137.808281 217.156413 
L 138.389835 215.608256 
L 138.971104 207.992815 
L 139.553193 216.090471 
L 140.134636 219.18276 
L 140.715894 209.790666 
L 141.878717 216.155825 
L 142.46012 215.79035 
L 143.041622 215.831176 
L 143.622828 212.367366 
L 144.204684 212.832769 
L 144.785883 210.482136 
L 145.3671 211.999572 
L 145.949021 219.149987 
L 146.530383 213.910865 
L 147.112141 211.361976 
L 147.693555 210.522447 
L 148.274999 215.634082 
L 148.856355 181.670296 
L 149.437572 181.098761 
L 150.019155 214.382721 
L 150.600535 218.057084 
L 151.182455 220.552574 
L 151.763777 217.043505 
L 152.345168 216.492983 
L 152.927298 214.903227 
L 153.508957 216.471896 
L 154.090267 215.637432 
L 154.671826 215.244565 
L 155.253107 216.846824 
L 155.834551 212.477417 
L 156.416256 216.065096 
L 156.997467 212.586092 
L 157.579667 219.720335 
L 158.160878 211.344685 
L 159.324067 217.903592 
L 159.905476 218.356854 
L 161.068608 204.589775 
L 161.650028 203.713626 
L 162.23128 214.897277 
L 162.812886 217.686411 
L 163.394493 212.471026 
L 163.976239 217.003657 
L 164.557456 216.872846 
L 165.138655 213.594311 
L 165.72043 214.894412 
L 166.302106 218.157545 
L 166.883649 217.575211 
L 167.465029 213.611802 
L 168.046327 214.047596 
L 168.627962 212.178907 
L 169.209191 204.509818 
L 169.791111 206.307371 
L 170.372363 212.492456 
L 170.954963 202.414802 
L 171.536802 211.615347 
L 172.118304 210.543222 
L 172.699649 210.13097 
L 173.281046 209.528636 
L 175.02647 220.931425 
L 175.607878 214.490952 
L 176.189531 212.861371 
L 176.770737 217.603404 
L 177.352122 212.775936 
L 177.933514 214.545936 
L 178.514725 208.736471 
L 179.096889 212.816083 
L 179.678827 214.404085 
L 180.260096 195.531737 
L 180.84136 218.702662 
L 181.423547 210.155224 
L 182.004898 214.041872 
L 182.587853 211.031159 
L 183.169389 204.850312 
L 183.751118 206.228138 
L 184.333828 215.925406 
L 184.915853 213.64987 
L 185.497338 216.695324 
L 186.079804 213.801867 
L 186.661823 212.375255 
L 187.243308 216.53109 
L 187.825222 215.444117 
L 188.406869 213.724039 
L 188.988319 214.463846 
L 189.569815 221.020932 
L 190.151194 211.83967 
L 190.732597 213.686661 
L 191.3145 218.620582 
L 191.896676 217.78328 
L 192.478067 217.170458 
L 193.060592 184.866726 
L 193.641995 218.271263 
L 194.223404 210.545831 
L 194.80476 206.205304 
L 195.967386 221.225189 
L 196.549603 214.138511 
L 197.130994 217.210373 
L 197.71306 217.884431 
L 198.294306 217.00751 
L 198.875848 217.176637 
L 199.458216 213.115696 
L 200.041066 218.157694 
L 200.62294 216.894249 
L 201.204314 216.407983 
L 201.785833 221.277967 
L 202.368677 216.612496 
L 202.949877 216.682867 
L 204.112735 213.466723 
L 204.694132 210.85367 
L 205.275832 215.798312 
L 205.857159 214.716222 
L 206.439178 211.041837 
L 207.020535 212.591703 
L 207.602513 210.344915 
L 208.183782 217.850203 
L 208.765278 212.313218 
L 209.346716 215.626534 
L 209.927939 211.788307 
L 210.510115 214.155222 
L 211.091361 213.458099 
L 211.672607 215.152007 
L 212.253859 211.892367 
L 212.835146 218.31755 
L 213.417084 222.9888 
L 213.998347 215.143411 
L 214.579756 214.898413 
L 215.161159 209.649224 
L 216.324627 213.309212 
L 216.905984 214.958272 
L 217.487259 214.808755 
L 218.068685 215.245321 
L 218.649995 215.130033 
L 219.232037 214.507331 
L 219.814266 215.204039 
L 220.397406 216.481343 
L 221.559904 208.340849 
L 222.723239 216.841522 
L 223.304456 212.595231 
L 223.886016 212.512794 
L 224.467251 217.517562 
L 225.048683 214.767567 
L 225.629882 218.628459 
L 226.211111 214.261787 
L 226.792491 215.343342 
L 227.373771 212.663667 
L 227.95514 212.407008 
L 228.536397 211.978992 
L 229.117638 206.717731 
L 229.698901 192.863969 
L 230.862387 203.01788 
L 231.444482 216.059491 
L 232.025983 209.330099 
L 232.608136 211.220012 
L 233.18962 209.728338 
L 233.770872 211.069918 
L 234.352444 211.541878 
L 234.933812 270.693156 
L 235.515494 300.249234 
L 236.097164 294.092053 
L 236.681101 298.07004 
L 237.26269 202.544584 
L 237.844331 199.651147 
L 238.425566 167.09404 
L 239.007701 208.586228 
L 239.588965 213.87356 
L 240.170368 208.484334 
L 240.752038 209.978986 
L 241.333441 218.542613 
L 241.914739 213.228867 
L 242.496479 216.327711 
L 243.077975 212.11564 
L 243.659251 214.500332 
L 244.24052 212.172198 
L 244.822277 214.652023 
L 245.403721 215.507651 
L 245.985281 217.032245 
L 246.566568 214.573445 
L 247.148162 216.589564 
L 247.729908 216.280348 
L 248.313282 215.741812 
L 248.895016 216.253102 
L 249.476343 213.556458 
L 250.057671 215.028744 
L 250.638963 211.652563 
L 251.220186 216.471305 
L 251.801914 215.062258 
L 252.96479 219.888492 
L 253.546077 216.601769 
L 254.127276 218.204813 
L 254.708947 216.822299 
L 255.290495 217.717196 
L 255.872398 215.24335 
L 256.453638 217.28791 
L 257.035105 216.794877 
L 257.616432 215.749934 
L 258.197818 202.746446 
L 258.77907 193.772635 
L 259.360299 163.649836 
L 259.941765 160.117399 
L 260.523139 161.016014 
L 261.105019 194.259276 
L 261.686986 214.576148 
L 262.268197 209.670504 
L 262.84967 212.142465 
L 263.431346 215.603618 
L 264.014481 214.833429 
L 264.595733 219.422372 
L 265.177322 213.852353 
L 265.759457 216.651214 
L 266.340993 213.959039 
L 266.922298 215.609515 
L 267.503538 216.05455 
L 268.084807 215.303014 
L 268.667588 213.723868 
L 269.248822 214.298044 
L 269.83019 215.756023 
L 270.411396 210.840157 
L 270.993182 219.939868 
L 271.575236 216.143037 
L 272.156436 216.0386 
L 272.737687 213.608521 
L 273.319015 212.60211 
L 273.900604 213.163611 
L 274.482722 206.677227 
L 275.064508 209.903432 
L 275.646144 215.613279 
L 276.227593 217.366942 
L 276.808985 217.482608 
L 277.39173 221.902696 
L 277.973557 215.053971 
L 278.554769 209.971585 
L 279.136445 210.114863 
L 279.717848 214.245665 
L 280.300465 213.191728 
L 280.882368 222.884571 
L 281.464213 208.590729 
L 282.627617 162.348128 
L 283.209119 172.629146 
L 283.790435 216.304479 
L 284.371733 215.616106 
L 284.953241 217.267128 
L 285.534446 214.906917 
L 286.116163 214.318267 
L 286.697491 216.585876 
L 287.279812 215.150165 
L 287.861779 211.823307 
L 288.443001 209.877036 
L 290.906972 299.382037 
L 291.488317 215.224752 
L 292.069685 212.067175 
L 292.651518 209.534157 
L 293.233561 210.482844 
L 293.814795 212.018613 
L 294.396192 206.791838 
L 295.55933 214.301276 
L 296.141209 173.389884 
L 296.723071 160.004087 
L 297.304864 205.896648 
L 297.886104 202.983612 
L 298.467675 206.304469 
L 299.049404 202.759291 
L 299.630853 204.182937 
L 300.212471 211.172741 
L 300.7937 213.784363 
L 301.375946 207.040599 
L 301.95718 208.712138 
L 302.538711 211.451763 
L 303.120004 206.518198 
L 303.701633 205.218455 
L 304.283455 206.810578 
L 304.864811 209.827718 
L 305.446737 211.051148 
L 306.028041 182.202028 
L 306.609282 178.940939 
L 307.190719 202.38747 
L 307.772111 217.068708 
L 308.353502 222.03246 
L 308.935167 215.74277 
L 309.516599 218.010546 
L 310.098426 215.534621 
L 310.67973 217.281331 
L 311.842978 213.991892 
L 312.424201 215.848448 
L 313.005464 216.120667 
L 313.586826 214.310037 
L 314.168479 215.743301 
L 314.75001 209.725069 
L 315.331361 216.360968 
L 315.912758 212.667761 
L 316.494359 215.601204 
L 317.075657 217.181639 
L 317.656932 214.416697 
L 318.238277 211.111066 
L 318.820302 216.79061 
L 319.40221 218.937939 
L 319.983724 215.646395 
L 320.565028 210.859307 
L 321.146402 211.833435 
L 321.727683 214.154138 
L 322.308952 213.695044 
L 322.89114 208.943531 
L 323.472421 213.980576 
L 324.053975 210.963502 
L 324.635291 212.742774 
L 325.216862 210.173551 
L 325.798126 215.088533 
L 326.379412 208.683752 
L 326.96146 211.644236 
L 327.542712 209.362426 
L 328.124214 211.615856 
L 328.705571 176.14192 
L 329.2877 201.996038 
L 329.869771 202.753809 
L 330.451012 192.50181 
L 331.614312 207.634091 
L 332.777234 212.822422 
L 333.358521 214.781717 
L 333.940557 218.08174 
L 334.521937 209.105698 
L 335.103561 209.617366 
L 335.684923 211.52876 
L 336.266779 210.522785 
L 336.848723 210.133011 
L 337.430073 210.211306 
L 338.01161 214.937121 
L 338.593333 215.832744 
L 339.174835 216.114723 
L 339.756203 216.189221 
L 340.337536 215.532786 
L 340.918735 212.689901 
L 341.500499 217.537377 
L 342.081797 218.001925 
L 342.663072 215.397655 
L 343.244382 215.928853 
L 343.827442 211.625934 
L 344.408845 204.003712 
L 344.990213 212.045052 
L 346.153211 219.876937 
L 346.734445 212.734099 
L 347.315778 215.49625 
L 347.897129 182.548788 
L 349.059534 213.692778 
L 349.640739 215.600985 
L 350.222456 213.2772 
L 350.803795 209.995151 
L 351.385105 208.642847 
L 351.967101 216.243389 
L 352.548637 208.016618 
L 353.129889 204.050205 
L 353.711118 203.138925 
L 354.292736 208.877433 
L 354.873953 222.965926 
L 355.45528 210.510192 
L 356.036776 214.329517 
L 356.618017 215.162451 
L 357.199239 207.880023 
L 357.780445 206.784835 
L 358.361761 209.352253 
L 358.943036 202.809827 
L 359.524253 203.779933 
L 360.105522 208.828231 
L 360.68757 206.847255 
L 361.269386 210.347531 
L 361.85094 211.868443 
L 363.013792 213.318502 
L 363.596276 212.126184 
L 364.177633 210.065329 
L 364.759129 213.753084 
L 365.34052 215.346471 
L 365.922098 216.396319 
L 366.503419 218.600585 
L 367.084642 217.469811 
L 367.665888 211.304849 
L 368.247204 216.83657 
L 368.828804 214.380849 
L 369.410678 216.691256 
L 369.991895 214.798395 
L 370.573449 215.189941 
L 371.154742 213.63127 
L 371.735941 212.70709 
L 372.317588 216.031607 
L 372.899137 215.699996 
L 373.481167 215.981048 
L 374.062832 215.142836 
L 374.644398 216.349927 
L 375.225748 219.032966 
L 375.807175 216.922265 
L 376.388833 209.05001 
L 376.97087 213.0847 
L 377.552098 214.621665 
L 378.133385 213.717957 
L 378.714945 215.512122 
L 379.296255 212.432406 
L 379.878135 216.77916 
L 381.040627 210.635167 
L 381.622158 210.580131 
L 382.203578 211.809297 
L 382.785521 209.926325 
L 383.366988 216.950864 
L 383.94842 214.696807 
L 384.530009 215.902821 
L 385.11211 209.858864 
L 385.693536 215.922891 
L 386.275456 215.113908 
L 386.856778 208.990978 
L 387.438535 208.976553 
L 388.019915 215.084159 
L 388.601481 218.392698 
L 389.182907 215.906182 
L 389.764862 215.733749 
L 390.346265 221.350282 
L 390.928063 212.355879 
L 391.509449 205.698234 
L 392.090689 204.567437 
L 392.672028 210.071809 
L 393.253617 202.190542 
L 393.835555 209.066358 
L 394.416842 212.489229 
L 394.998157 216.840088 
L 395.579595 217.348362 
L 396.160806 202.20927 
L 396.742029 218.943107 
L 397.90487 213.833152 
L 398.487273 215.243717 
L 398.487273 215.243717 
" clip-path="url(#p3a3a6f92b2)" style="fill: none; stroke: #1f77b4; stroke-width: 1.5; stroke-linecap: square"/>
   </g>
   <g id="patch_3">
    <path d="M 57.6 307.584 
L 57.6 41.472 
" style="fill: none; stroke: #000000; stroke-width: 0.8; stroke-linejoin: miter; stroke-linecap: square"/>
   </g>
   <g id="patch_4">
    <path d="M 414.72 307.584 
L 414.72 41.472 
" style="fill: none; stroke: #000000; stroke-width: 0.8; stroke-linejoin: miter; stroke-linecap: square"/>
   </g>
   <g id="patch_5">
    <path d="M 57.6 307.584 
L 414.72 307.584 
" style="fill: none; stroke: #000000; stroke-width: 0.8; stroke-linejoin: miter; stroke-linecap: square"/>
   </g>
   <g id="patch_6">
    <path d="M 57.6 41.472 
L 414.72 41.472 
" style="fill: none; stroke: #000000; stroke-width: 0.8; stroke-linejoin: miter; stroke-linecap: square"/>
   </g>
   <g id="text_16">
    <!-- pt18 link speed per 100ms -->
    <g transform="translate(155.608125 35.472)scale(0.12 -0.12)">
     <defs>
      <path id="DejaVuSans-38" d="M 2034 2216 
Q 1584 2216 1326 1975 
Q 1069 1734 1069 1313 
Q 1069 891 1326 650 
Q 1584 409 2034 409 
Q 2484 409 2743 651 
Q 3003 894 3003 1313 
Q 3003 1734 2745 1975 
Q 2488 2216 2034 2216 
z
M 1403 2484 
Q 997 2584 770 2862 
Q 544 3141 544 3541 
Q 544 4100 942 4425 
Q 1341 4750 2034 4750 
Q 2731 4750 3128 4425 
Q 3525 4100 3525 3541 
Q 3525 3141 3298 2862 
Q 3072 2584 2669 2484 
Q 3125 2378 3379 2068 
Q 3634 1759 3634 1313 
Q 3634 634 3220 271 
Q 2806 -91 2034 -91 
Q 1263 -91 848 271 
Q 434 634 434 1313 
Q 434 1759 690 2068 
Q 947 2378 1403 2484 
z
M 1172 3481 
Q 1172 3119 1398 2916 
Q 1625 2713 2034 2713 
Q 2441 2713 2670 2916 
Q 2900 3119 2900 3481 
Q 2900 3844 2670 4047 
Q 2441 4250 2034 4250 
Q 1625 4250 1398 4047 
Q 1172 3844 1172 3481 
z
" transform="scale(0.015625)"/>
      <path id="DejaVuSans-20" transform="scale(0.015625)"/>
      <path id="DejaVuSans-6c" d="M 603 4863 
L 1178 4863 
L 1178 0 
L 603 0 
L 603 4863 
z
" transform="scale(0.015625)"/>
      <path id="DejaVuSans-6e" d="M 3513 2113 
L 3513 0 
L 2938 0 
L 2938 2094 
Q 2938 2591 2744 2837 
Q 2550 3084 2163 3084 
Q 1697 3084 1428 2787 
Q 1159 2491 1159 1978 
L 1159 0 
L 581 0 
L 581 3500 
L 1159 3500 
L 1159 2956 
Q 1366 3272 1645 3428 
Q 1925 3584 2291 3584 
Q 2894 3584 3203 3211 
Q 3513 2838 3513 2113 
z
" transform="scale(0.015625)"/>
      <path id="DejaVuSans-6b" d="M 581 4863 
L 1159 4863 
L 1159 1991 
L 2875 3500 
L 3609 3500 
L 1753 1863 
L 3688 0 
L 2938 0 
L 1159 1709 
L 1159 0 
L 581 0 
L 581 4863 
z
" transform="scale(0.015625)"/>
      <path id="DejaVuSans-64" d="M 2906 2969 
L 2906 4863 
L 3481 4863 
L 3481 0 
L 2906 0 
L 2906 525 
Q 2725 213 2448 61 
Q 2172 -91 1784 -91 
Q 1150 -91 751 415 
Q 353 922 353 1747 
Q 353 2572 751 3078 
Q 1150 3584 1784 3584 
Q 2172 3584 2448 3432 
Q 2725 3281 2906 2969 
z
M 947 1747 
Q 947 1113 1208 752 
Q 1469 391 1925 391 
Q 2381 391 2643 752 
Q 2906 1113 2906 1747 
Q 2906 2381 2643 2742 
Q 2381 3103 1925 3103 
Q 1469 3103 1208 2742 
Q 947 2381 947 1747 
z
" transform="scale(0.015625)"/>
      <path id="DejaVuSans-72" d="M 2631 2963 
Q 2534 3019 2420 3045 
Q 2306 3072 2169 3072 
Q 1681 3072 1420 2755 
Q 1159 2438 1159 1844 
L 1159 0 
L 581 0 
L 581 3500 
L 1159 3500 
L 1159 2956 
Q 1341 3275 1631 3429 
Q 1922 3584 2338 3584 
Q 2397 3584 2469 3576 
Q 2541 3569 2628 3553 
L 2631 2963 
z
" transform="scale(0.015625)"/>
     </defs>
     <use xlink:href="#DejaVuSans-70"/>
     <use xlink:href="#DejaVuSans-74" x="63.476562"/>
     <use xlink:href="#DejaVuSans-31" x="102.685547"/>
     <use xlink:href="#DejaVuSans-38" x="166.308594"/>
     <use xlink:href="#DejaVuSans-20" x="229.931641"/>
     <use xlink:href="#DejaVuSans-6c" x="261.71875"/>
     <use xlink:href="#DejaVuSans-69" x="289.501953"/>
     <use xlink:href="#DejaVuSans-6e" x="317.285156"/>
     <use xlink:href="#DejaVuSans-6b" x="380.664062"/>
     <use xlink:href="#DejaVuSans-20" x="438.574219"/>
     <use xlink:href="#DejaVuSans-73" x="470.361328"/>
     <use xlink:href="#DejaVuSans-70" x="522.460938"/>
     <use xlink:href="#DejaVuSans-65" x="585.9375"/>
     <use xlink:href="#DejaVuSans-65" x="647.460938"/>
     <use xlink:href="#DejaVuSans-64" x="708.984375"/>
     <use xlink:href="#DejaVuSans-20" x="772.460938"/>
     <use xlink:href="#DejaVuSans-70" x="804.248047"/>
     <use xlink:href="#DejaVuSans-65" x="867.724609"/>
     <use xlink:href="#DejaVuSans-72" x="929.248047"/>
     <use xlink:href="#DejaVuSans-20" x="970.361328"/>
     <use xlink:href="#DejaVuSans-31" x="1002.148438"/>
     <use xlink:href="#DejaVuSans-30" x="1065.771484"/>
     <use xlink:href="#DejaVuSans-30" x="1129.394531"/>
     <use xlink:href="#DejaVuSans-6d" x="1193.017578"/>
     <use xlink:href="#DejaVuSans-73" x="1290.429688"/>
    </g>
   </g>
  </g>
 </g>
 <defs>
  <clipPath id="p3a3a6f92b2">
   <rect x="57.6" y="41.472" width="357.12" height="266.112"/>
  </clipPath>
 </defs>
</svg>
