<?xml version="1.0" encoding="utf-8" standalone="no"?>
<!DOCTYPE svg PUBLIC "-//W3C//DTD SVG 1.1//EN"
  "http://www.w3.org/Graphics/SVG/1.1/DTD/svg11.dtd">
<svg xmlns:xlink="http://www.w3.org/1999/xlink" width="460.8pt" height="345.6pt" viewBox="0 0 460.8 345.6" xmlns="http://www.w3.org/2000/svg" version="1.1">
 <metadata>
  <rdf:RDF xmlns:dc="http://purl.org/dc/elements/1.1/" xmlns:cc="http://creativecommons.org/ns#" xmlns:rdf="http://www.w3.org/1999/02/22-rdf-syntax-ns#">
   <cc:Work>
    <dc:type rdf:resource="http://purl.org/dc/dcmitype/StillImage"/>
    <dc:date>2022-07-10T08:51:56.108061</dc:date>
    <dc:format>image/svg+xml</dc:format>
    <dc:creator>
     <cc:Agent>
      <dc:title>Matplotlib v3.5.2, https://matplotlib.org/</dc:title>
     </cc:Agent>
    </dc:creator>
   </cc:Work>
  </rdf:RDF>
 </metadata>
 <defs>
  <style type="text/css">*{stroke-linejoin: round; stroke-linecap: butt}</style>
 </defs>
 <g id="figure_1">
  <g id="patch_1">
   <path d="M 0 345.6 
L 460.8 345.6 
L 460.8 0 
L 0 0 
z
" style="fill: #ffffff"/>
  </g>
  <g id="axes_1">
   <g id="patch_2">
    <path d="M 57.6 307.584 
L 414.72 307.584 
L 414.72 41.472 
L 57.6 41.472 
z
" style="fill: #ffffff"/>
   </g>
   <g id="matplotlib.axis_1">
    <g id="xtick_1">
     <g id="line2d_1">
      <defs>
       <path id="m600792d8a1" d="M 0 0 
L 0 3.5 
" style="stroke: #000000; stroke-width: 0.8"/>
      </defs>
      <g>
       <use xlink:href="#m600792d8a1" x="73.218108" y="307.584" style="stroke: #000000; stroke-width: 0.8"/>
      </g>
     </g>
     <g id="text_1">
      <!-- 0 -->
      <g transform="translate(70.036858 322.182437)scale(0.1 -0.1)">
       <defs>
        <path id="DejaVuSans-30" d="M 2034 4250 
Q 1547 4250 1301 3770 
Q 1056 3291 1056 2328 
Q 1056 1369 1301 889 
Q 1547 409 2034 409 
Q 2525 409 2770 889 
Q 3016 1369 3016 2328 
Q 3016 3291 2770 3770 
Q 2525 4250 2034 4250 
z
M 2034 4750 
Q 2819 4750 3233 4129 
Q 3647 3509 3647 2328 
Q 3647 1150 3233 529 
Q 2819 -91 2034 -91 
Q 1250 -91 836 529 
Q 422 1150 422 2328 
Q 422 3509 836 4129 
Q 1250 4750 2034 4750 
z
" transform="scale(0.015625)"/>
       </defs>
       <use xlink:href="#DejaVuSans-30"/>
      </g>
     </g>
    </g>
    <g id="xtick_2">
     <g id="line2d_2">
      <g>
       <use xlink:href="#m600792d8a1" x="134.664656" y="307.584" style="stroke: #000000; stroke-width: 0.8"/>
      </g>
     </g>
     <g id="text_2">
      <!-- 10 -->
      <g transform="translate(128.302156 322.182437)scale(0.1 -0.1)">
       <defs>
        <path id="DejaVuSans-31" d="M 794 531 
L 1825 531 
L 1825 4091 
L 703 3866 
L 703 4441 
L 1819 4666 
L 2450 4666 
L 2450 531 
L 3481 531 
L 3481 0 
L 794 0 
L 794 531 
z
" transform="scale(0.015625)"/>
       </defs>
       <use xlink:href="#DejaVuSans-31"/>
       <use xlink:href="#DejaVuSans-30" x="63.623047"/>
      </g>
     </g>
    </g>
    <g id="xtick_3">
     <g id="line2d_3">
      <g>
       <use xlink:href="#m600792d8a1" x="196.111205" y="307.584" style="stroke: #000000; stroke-width: 0.8"/>
      </g>
     </g>
     <g id="text_3">
      <!-- 20 -->
      <g transform="translate(189.748705 322.182437)scale(0.1 -0.1)">
       <defs>
        <path id="DejaVuSans-32" d="M 1228 531 
L 3431 531 
L 3431 0 
L 469 0 
L 469 531 
Q 828 903 1448 1529 
Q 2069 2156 2228 2338 
Q 2531 2678 2651 2914 
Q 2772 3150 2772 3378 
Q 2772 3750 2511 3984 
Q 2250 4219 1831 4219 
Q 1534 4219 1204 4116 
Q 875 4013 500 3803 
L 500 4441 
Q 881 4594 1212 4672 
Q 1544 4750 1819 4750 
Q 2544 4750 2975 4387 
Q 3406 4025 3406 3419 
Q 3406 3131 3298 2873 
Q 3191 2616 2906 2266 
Q 2828 2175 2409 1742 
Q 1991 1309 1228 531 
z
" transform="scale(0.015625)"/>
       </defs>
       <use xlink:href="#DejaVuSans-32"/>
       <use xlink:href="#DejaVuSans-30" x="63.623047"/>
      </g>
     </g>
    </g>
    <g id="xtick_4">
     <g id="line2d_4">
      <g>
       <use xlink:href="#m600792d8a1" x="257.557753" y="307.584" style="stroke: #000000; stroke-width: 0.8"/>
      </g>
     </g>
     <g id="text_4">
      <!-- 30 -->
      <g transform="translate(251.195253 322.182437)scale(0.1 -0.1)">
       <defs>
        <path id="DejaVuSans-33" d="M 2597 2516 
Q 3050 2419 3304 2112 
Q 3559 1806 3559 1356 
Q 3559 666 3084 287 
Q 2609 -91 1734 -91 
Q 1441 -91 1130 -33 
Q 819 25 488 141 
L 488 750 
Q 750 597 1062 519 
Q 1375 441 1716 441 
Q 2309 441 2620 675 
Q 2931 909 2931 1356 
Q 2931 1769 2642 2001 
Q 2353 2234 1838 2234 
L 1294 2234 
L 1294 2753 
L 1863 2753 
Q 2328 2753 2575 2939 
Q 2822 3125 2822 3475 
Q 2822 3834 2567 4026 
Q 2313 4219 1838 4219 
Q 1578 4219 1281 4162 
Q 984 4106 628 3988 
L 628 4550 
Q 988 4650 1302 4700 
Q 1616 4750 1894 4750 
Q 2613 4750 3031 4423 
Q 3450 4097 3450 3541 
Q 3450 3153 3228 2886 
Q 3006 2619 2597 2516 
z
" transform="scale(0.015625)"/>
       </defs>
       <use xlink:href="#DejaVuSans-33"/>
       <use xlink:href="#DejaVuSans-30" x="63.623047"/>
      </g>
     </g>
    </g>
    <g id="xtick_5">
     <g id="line2d_5">
      <g>
       <use xlink:href="#m600792d8a1" x="319.004301" y="307.584" style="stroke: #000000; stroke-width: 0.8"/>
      </g>
     </g>
     <g id="text_5">
      <!-- 40 -->
      <g transform="translate(312.641801 322.182437)scale(0.1 -0.1)">
       <defs>
        <path id="DejaVuSans-34" d="M 2419 4116 
L 825 1625 
L 2419 1625 
L 2419 4116 
z
M 2253 4666 
L 3047 4666 
L 3047 1625 
L 3713 1625 
L 3713 1100 
L 3047 1100 
L 3047 0 
L 2419 0 
L 2419 1100 
L 313 1100 
L 313 1709 
L 2253 4666 
z
" transform="scale(0.015625)"/>
       </defs>
       <use xlink:href="#DejaVuSans-34"/>
       <use xlink:href="#DejaVuSans-30" x="63.623047"/>
      </g>
     </g>
    </g>
    <g id="xtick_6">
     <g id="line2d_6">
      <g>
       <use xlink:href="#m600792d8a1" x="380.450849" y="307.584" style="stroke: #000000; stroke-width: 0.8"/>
      </g>
     </g>
     <g id="text_6">
      <!-- 50 -->
      <g transform="translate(374.088349 322.182437)scale(0.1 -0.1)">
       <defs>
        <path id="DejaVuSans-35" d="M 691 4666 
L 3169 4666 
L 3169 4134 
L 1269 4134 
L 1269 2991 
Q 1406 3038 1543 3061 
Q 1681 3084 1819 3084 
Q 2600 3084 3056 2656 
Q 3513 2228 3513 1497 
Q 3513 744 3044 326 
Q 2575 -91 1722 -91 
Q 1428 -91 1123 -41 
Q 819 9 494 109 
L 494 744 
Q 775 591 1075 516 
Q 1375 441 1709 441 
Q 2250 441 2565 725 
Q 2881 1009 2881 1497 
Q 2881 1984 2565 2268 
Q 2250 2553 1709 2553 
Q 1456 2553 1204 2497 
Q 953 2441 691 2322 
L 691 4666 
z
" transform="scale(0.015625)"/>
       </defs>
       <use xlink:href="#DejaVuSans-35"/>
       <use xlink:href="#DejaVuSans-30" x="63.623047"/>
      </g>
     </g>
    </g>
    <g id="text_7">
     <!-- time(s) -->
     <g transform="translate(218.357656 335.860562)scale(0.1 -0.1)">
      <defs>
       <path id="DejaVuSans-74" d="M 1172 4494 
L 1172 3500 
L 2356 3500 
L 2356 3053 
L 1172 3053 
L 1172 1153 
Q 1172 725 1289 603 
Q 1406 481 1766 481 
L 2356 481 
L 2356 0 
L 1766 0 
Q 1100 0 847 248 
Q 594 497 594 1153 
L 594 3053 
L 172 3053 
L 172 3500 
L 594 3500 
L 594 4494 
L 1172 4494 
z
" transform="scale(0.015625)"/>
       <path id="DejaVuSans-69" d="M 603 3500 
L 1178 3500 
L 1178 0 
L 603 0 
L 603 3500 
z
M 603 4863 
L 1178 4863 
L 1178 4134 
L 603 4134 
L 603 4863 
z
" transform="scale(0.015625)"/>
       <path id="DejaVuSans-6d" d="M 3328 2828 
Q 3544 3216 3844 3400 
Q 4144 3584 4550 3584 
Q 5097 3584 5394 3201 
Q 5691 2819 5691 2113 
L 5691 0 
L 5113 0 
L 5113 2094 
Q 5113 2597 4934 2840 
Q 4756 3084 4391 3084 
Q 3944 3084 3684 2787 
Q 3425 2491 3425 1978 
L 3425 0 
L 2847 0 
L 2847 2094 
Q 2847 2600 2669 2842 
Q 2491 3084 2119 3084 
Q 1678 3084 1418 2786 
Q 1159 2488 1159 1978 
L 1159 0 
L 581 0 
L 581 3500 
L 1159 3500 
L 1159 2956 
Q 1356 3278 1631 3431 
Q 1906 3584 2284 3584 
Q 2666 3584 2933 3390 
Q 3200 3197 3328 2828 
z
" transform="scale(0.015625)"/>
       <path id="DejaVuSans-65" d="M 3597 1894 
L 3597 1613 
L 953 1613 
Q 991 1019 1311 708 
Q 1631 397 2203 397 
Q 2534 397 2845 478 
Q 3156 559 3463 722 
L 3463 178 
Q 3153 47 2828 -22 
Q 2503 -91 2169 -91 
Q 1331 -91 842 396 
Q 353 884 353 1716 
Q 353 2575 817 3079 
Q 1281 3584 2069 3584 
Q 2775 3584 3186 3129 
Q 3597 2675 3597 1894 
z
M 3022 2063 
Q 3016 2534 2758 2815 
Q 2500 3097 2075 3097 
Q 1594 3097 1305 2825 
Q 1016 2553 972 2059 
L 3022 2063 
z
" transform="scale(0.015625)"/>
       <path id="DejaVuSans-28" d="M 1984 4856 
Q 1566 4138 1362 3434 
Q 1159 2731 1159 2009 
Q 1159 1288 1364 580 
Q 1569 -128 1984 -844 
L 1484 -844 
Q 1016 -109 783 600 
Q 550 1309 550 2009 
Q 550 2706 781 3412 
Q 1013 4119 1484 4856 
L 1984 4856 
z
" transform="scale(0.015625)"/>
       <path id="DejaVuSans-73" d="M 2834 3397 
L 2834 2853 
Q 2591 2978 2328 3040 
Q 2066 3103 1784 3103 
Q 1356 3103 1142 2972 
Q 928 2841 928 2578 
Q 928 2378 1081 2264 
Q 1234 2150 1697 2047 
L 1894 2003 
Q 2506 1872 2764 1633 
Q 3022 1394 3022 966 
Q 3022 478 2636 193 
Q 2250 -91 1575 -91 
Q 1294 -91 989 -36 
Q 684 19 347 128 
L 347 722 
Q 666 556 975 473 
Q 1284 391 1588 391 
Q 1994 391 2212 530 
Q 2431 669 2431 922 
Q 2431 1156 2273 1281 
Q 2116 1406 1581 1522 
L 1381 1569 
Q 847 1681 609 1914 
Q 372 2147 372 2553 
Q 372 3047 722 3315 
Q 1072 3584 1716 3584 
Q 2034 3584 2315 3537 
Q 2597 3491 2834 3397 
z
" transform="scale(0.015625)"/>
       <path id="DejaVuSans-29" d="M 513 4856 
L 1013 4856 
Q 1481 4119 1714 3412 
Q 1947 2706 1947 2009 
Q 1947 1309 1714 600 
Q 1481 -109 1013 -844 
L 513 -844 
Q 928 -128 1133 580 
Q 1338 1288 1338 2009 
Q 1338 2731 1133 3434 
Q 928 4138 513 4856 
z
" transform="scale(0.015625)"/>
      </defs>
      <use xlink:href="#DejaVuSans-74"/>
      <use xlink:href="#DejaVuSans-69" x="39.208984"/>
      <use xlink:href="#DejaVuSans-6d" x="66.992188"/>
      <use xlink:href="#DejaVuSans-65" x="164.404297"/>
      <use xlink:href="#DejaVuSans-28" x="225.927734"/>
      <use xlink:href="#DejaVuSans-73" x="264.941406"/>
      <use xlink:href="#DejaVuSans-29" x="317.041016"/>
     </g>
    </g>
   </g>
   <g id="matplotlib.axis_2">
    <g id="ytick_1">
     <g id="line2d_7">
      <defs>
       <path id="m4dc9d1029c" d="M 0 0 
L -3.5 0 
" style="stroke: #000000; stroke-width: 0.8"/>
      </defs>
      <g>
       <use xlink:href="#m4dc9d1029c" x="57.6" y="307.584" style="stroke: #000000; stroke-width: 0.8"/>
      </g>
     </g>
     <g id="text_8">
      <!-- 0 -->
      <g transform="translate(44.2375 311.383219)scale(0.1 -0.1)">
       <use xlink:href="#DejaVuSans-30"/>
      </g>
     </g>
    </g>
    <g id="ytick_2">
     <g id="line2d_8">
      <g>
       <use xlink:href="#m4dc9d1029c" x="57.6" y="263.232" style="stroke: #000000; stroke-width: 0.8"/>
      </g>
     </g>
     <g id="text_9">
      <!-- 50 -->
      <g transform="translate(37.875 267.031219)scale(0.1 -0.1)">
       <use xlink:href="#DejaVuSans-35"/>
       <use xlink:href="#DejaVuSans-30" x="63.623047"/>
      </g>
     </g>
    </g>
    <g id="ytick_3">
     <g id="line2d_9">
      <g>
       <use xlink:href="#m4dc9d1029c" x="57.6" y="218.88" style="stroke: #000000; stroke-width: 0.8"/>
      </g>
     </g>
     <g id="text_10">
      <!-- 100 -->
      <g transform="translate(31.5125 222.679219)scale(0.1 -0.1)">
       <use xlink:href="#DejaVuSans-31"/>
       <use xlink:href="#DejaVuSans-30" x="63.623047"/>
       <use xlink:href="#DejaVuSans-30" x="127.246094"/>
      </g>
     </g>
    </g>
    <g id="ytick_4">
     <g id="line2d_10">
      <g>
       <use xlink:href="#m4dc9d1029c" x="57.6" y="174.528" style="stroke: #000000; stroke-width: 0.8"/>
      </g>
     </g>
     <g id="text_11">
      <!-- 150 -->
      <g transform="translate(31.5125 178.327219)scale(0.1 -0.1)">
       <use xlink:href="#DejaVuSans-31"/>
       <use xlink:href="#DejaVuSans-35" x="63.623047"/>
       <use xlink:href="#DejaVuSans-30" x="127.246094"/>
      </g>
     </g>
    </g>
    <g id="ytick_5">
     <g id="line2d_11">
      <g>
       <use xlink:href="#m4dc9d1029c" x="57.6" y="130.176" style="stroke: #000000; stroke-width: 0.8"/>
      </g>
     </g>
     <g id="text_12">
      <!-- 200 -->
      <g transform="translate(31.5125 133.975219)scale(0.1 -0.1)">
       <use xlink:href="#DejaVuSans-32"/>
       <use xlink:href="#DejaVuSans-30" x="63.623047"/>
       <use xlink:href="#DejaVuSans-30" x="127.246094"/>
      </g>
     </g>
    </g>
    <g id="ytick_6">
     <g id="line2d_12">
      <g>
       <use xlink:href="#m4dc9d1029c" x="57.6" y="85.824" style="stroke: #000000; stroke-width: 0.8"/>
      </g>
     </g>
     <g id="text_13">
      <!-- 250 -->
      <g transform="translate(31.5125 89.623219)scale(0.1 -0.1)">
       <use xlink:href="#DejaVuSans-32"/>
       <use xlink:href="#DejaVuSans-35" x="63.623047"/>
       <use xlink:href="#DejaVuSans-30" x="127.246094"/>
      </g>
     </g>
    </g>
    <g id="ytick_7">
     <g id="line2d_13">
      <g>
       <use xlink:href="#m4dc9d1029c" x="57.6" y="41.472" style="stroke: #000000; stroke-width: 0.8"/>
      </g>
     </g>
     <g id="text_14">
      <!-- 300 -->
      <g transform="translate(31.5125 45.271219)scale(0.1 -0.1)">
       <use xlink:href="#DejaVuSans-33"/>
       <use xlink:href="#DejaVuSans-30" x="63.623047"/>
       <use xlink:href="#DejaVuSans-30" x="127.246094"/>
      </g>
     </g>
    </g>
    <g id="text_15">
     <!-- Mbps -->
     <g transform="translate(25.432812 187.795187)rotate(-90)scale(0.1 -0.1)">
      <defs>
       <path id="DejaVuSans-4d" d="M 628 4666 
L 1569 4666 
L 2759 1491 
L 3956 4666 
L 4897 4666 
L 4897 0 
L 4281 0 
L 4281 4097 
L 3078 897 
L 2444 897 
L 1241 4097 
L 1241 0 
L 628 0 
L 628 4666 
z
" transform="scale(0.015625)"/>
       <path id="DejaVuSans-62" d="M 3116 1747 
Q 3116 2381 2855 2742 
Q 2594 3103 2138 3103 
Q 1681 3103 1420 2742 
Q 1159 2381 1159 1747 
Q 1159 1113 1420 752 
Q 1681 391 2138 391 
Q 2594 391 2855 752 
Q 3116 1113 3116 1747 
z
M 1159 2969 
Q 1341 3281 1617 3432 
Q 1894 3584 2278 3584 
Q 2916 3584 3314 3078 
Q 3713 2572 3713 1747 
Q 3713 922 3314 415 
Q 2916 -91 2278 -91 
Q 1894 -91 1617 61 
Q 1341 213 1159 525 
L 1159 0 
L 581 0 
L 581 4863 
L 1159 4863 
L 1159 2969 
z
" transform="scale(0.015625)"/>
       <path id="DejaVuSans-70" d="M 1159 525 
L 1159 -1331 
L 581 -1331 
L 581 3500 
L 1159 3500 
L 1159 2969 
Q 1341 3281 1617 3432 
Q 1894 3584 2278 3584 
Q 2916 3584 3314 3078 
Q 3713 2572 3713 1747 
Q 3713 922 3314 415 
Q 2916 -91 2278 -91 
Q 1894 -91 1617 61 
Q 1341 213 1159 525 
z
M 3116 1747 
Q 3116 2381 2855 2742 
Q 2594 3103 2138 3103 
Q 1681 3103 1420 2742 
Q 1159 2381 1159 1747 
Q 1159 1113 1420 752 
Q 1681 391 2138 391 
Q 2594 391 2855 752 
Q 3116 1113 3116 1747 
z
" transform="scale(0.015625)"/>
      </defs>
      <use xlink:href="#DejaVuSans-4d"/>
      <use xlink:href="#DejaVuSans-62" x="86.279297"/>
      <use xlink:href="#DejaVuSans-70" x="149.755859"/>
      <use xlink:href="#DejaVuSans-73" x="213.232422"/>
     </g>
    </g>
   </g>
   <g id="line2d_14">
    <path d="M 73.832727 211.764972 
L 74.447383 196.98422 
L 75.062426 205.984934 
L 75.677248 211.440603 
L 76.292156 212.238663 
L 76.906763 211.184223 
L 77.522279 214.952542 
L 78.136978 216.018204 
L 78.751474 197.695125 
L 79.366155 206.069178 
L 79.981143 203.819856 
L 80.595915 192.706847 
L 81.210528 207.807961 
L 81.826438 213.929388 
L 82.44145 216.712821 
L 83.056131 212.467646 
L 83.670897 213.045975 
L 84.285547 212.206613 
L 84.900277 214.679858 
L 85.515019 212.348086 
L 86.747919 215.638171 
L 87.362403 213.103526 
L 87.977114 208.67406 
L 88.592035 211.452525 
L 89.20669 205.638555 
L 89.821359 206.728326 
L 90.435892 177.759046 
L 91.05048 197.670195 
L 91.664958 207.356278 
L 92.279657 201.430886 
L 92.89419 205.276308 
L 93.510173 203.043223 
L 94.125696 213.1905 
L 94.741064 151.422204 
L 95.35561 217.904201 
L 95.971028 208.086513 
L 96.585763 209.666052 
L 97.200751 204.770163 
L 97.815665 215.237427 
L 98.43061 211.991131 
L 99.045088 212.846569 
L 99.659578 213.230884 
L 100.274136 198.223754 
L 100.888712 208.000297 
L 101.503411 210.687919 
L 102.733054 195.162591 
L 103.34838 209.264011 
L 103.96314 215.9288 
L 104.577938 208.156255 
L 105.192471 210.746481 
L 105.807883 206.117426 
L 106.422575 215.870554 
L 107.038184 209.33354 
L 107.652993 211.189503 
L 108.267699 208.920262 
L 108.882465 212.928142 
L 109.49741 212.996753 
L 110.113375 209.586439 
L 110.727969 211.503552 
L 111.343522 211.850505 
L 111.958227 213.637522 
L 112.573068 188.665801 
L 113.188498 194.50841 
L 113.803 210.28296 
L 114.417546 211.60251 
L 115.032632 208.891724 
L 115.647361 210.032192 
L 116.262484 215.090859 
L 116.876987 207.876622 
L 117.491931 210.806172 
L 118.10644 213.075229 
L 118.721354 212.613454 
L 119.33593 212.607173 
L 119.950439 209.062065 
L 121.180912 214.011319 
L 121.795666 215.652505 
L 122.410168 211.353595 
L 123.024708 214.350955 
L 123.639745 211.327502 
L 124.254622 216.180475 
L 124.86913 212.127834 
L 125.48386 190.398889 
L 126.09862 210.643219 
L 126.713479 200.051442 
L 127.943688 212.298194 
L 128.55875 193.100055 
L 129.173449 196.763166 
L 129.788111 193.343165 
L 130.402638 198.954322 
L 131.017195 200.378769 
L 131.631722 190.623861 
L 132.246569 185.616838 
L 132.861065 188.672905 
L 133.475537 188.468169 
L 134.090008 186.157538 
L 134.704554 191.918252 
L 135.319167 172.3639 
L 135.934376 196.731339 
L 136.548995 211.281211 
L 137.16386 195.537416 
L 137.778534 211.903215 
L 138.393024 212.469156 
L 139.008491 211.335246 
L 139.623804 212.044082 
L 140.23843 218.262808 
L 140.853676 213.343141 
L 141.468381 214.189879 
L 142.083491 213.697028 
L 142.698129 208.000036 
L 143.312791 215.560579 
L 143.927386 211.39049 
L 144.542029 205.610063 
L 145.157466 213.731709 
L 145.771974 214.335872 
L 146.386636 212.1866 
L 147.616999 215.59499 
L 148.231538 209.779734 
L 148.846016 216.554247 
L 149.460727 215.900229 
L 150.075229 215.574009 
L 150.690494 214.839455 
L 151.305008 214.398114 
L 151.919535 214.176805 
L 152.534117 127.806382 
L 153.149038 140.868973 
L 153.763835 207.702734 
L 154.378657 213.266316 
L 154.993171 212.694445 
L 155.608473 214.196342 
L 156.223534 215.036319 
L 157.45303 214.808708 
L 158.068153 214.545502 
L 158.684733 212.538388 
L 159.299487 209.920962 
L 159.914149 216.560845 
L 160.529616 211.203628 
L 161.144616 213.895774 
L 161.759481 214.809577 
L 162.375016 217.999423 
L 162.990452 202.067877 
L 163.605047 208.046384 
L 164.219868 207.622993 
L 164.834358 200.166123 
L 165.448842 196.393049 
L 166.064058 200.897682 
L 166.678793 211.498989 
L 167.294365 216.454825 
L 167.908904 213.462411 
L 169.138892 212.65144 
L 169.753554 206.012349 
L 170.983093 190.873261 
L 171.597688 194.360343 
L 172.212166 203.571991 
L 172.82727 209.089588 
L 173.441846 208.593842 
L 174.057461 212.315749 
L 174.671975 207.607258 
L 175.286877 209.131228 
L 175.901447 207.292007 
L 176.517037 191.556341 
L 177.132418 201.338112 
L 177.74689 213.016772 
L 178.36138 210.465491 
L 178.976036 215.269149 
L 179.590606 208.632571 
L 180.205126 209.593957 
L 180.819813 212.924703 
L 181.434819 214.507623 
L 182.049537 211.442056 
L 182.664242 211.850766 
L 183.278781 207.35351 
L 183.893873 210.395069 
L 184.508578 207.435831 
L 185.124021 212.396077 
L 185.738523 207.341338 
L 186.353874 209.23942 
L 186.968358 204.621975 
L 187.583259 188.138758 
L 188.198075 211.265747 
L 188.813413 200.97481 
L 189.427989 204.86639 
L 190.043229 213.020604 
L 190.659261 212.783903 
L 191.273733 211.123357 
L 191.888272 204.560054 
L 192.503088 207.622264 
L 193.733094 216.01894 
L 194.347633 213.417006 
L 194.962222 213.433402 
L 195.577099 209.31233 
L 196.192332 213.541532 
L 196.806908 212.613263 
L 197.421491 217.405898 
L 198.036263 208.591479 
L 198.650999 207.986604 
L 199.265815 208.738481 
L 199.880477 211.729596 
L 200.495729 209.355031 
L 201.11068 209.895319 
L 201.725895 207.401511 
L 202.956043 198.186501 
L 203.570963 194.936088 
L 204.185619 190.718708 
L 204.800521 143.568747 
L 205.415269 186.581156 
L 206.029833 209.40391 
L 206.644458 206.600768 
L 207.259003 208.222071 
L 207.873585 208.033906 
L 208.488954 210.772162 
L 209.103426 205.696626 
L 209.720214 209.251989 
L 210.335755 209.820853 
L 210.950386 207.582406 
L 211.564925 205.988247 
L 212.180091 209.928119 
L 212.795392 209.127552 
L 214.025436 213.054929 
L 214.640417 208.476211 
L 215.254901 212.365814 
L 216.484416 215.559846 
L 217.09941 212.489675 
L 217.714312 185.119314 
L 218.328888 149.769204 
L 218.943421 149.637032 
L 219.558728 205.156265 
L 220.1732 215.78333 
L 220.788427 209.206122 
L 221.403028 216.391186 
L 222.632739 212.922214 
L 223.248274 217.152107 
L 223.863802 214.226309 
L 224.478421 210.282228 
L 225.093667 203.247299 
L 225.709202 209.596462 
L 226.323784 211.415835 
L 226.938532 210.390725 
L 228.170406 213.32508 
L 228.784952 203.307214 
L 229.400364 213.815737 
L 230.015781 213.656462 
L 230.630444 204.97494 
L 231.244934 204.847679 
L 231.859497 209.818696 
L 232.474405 210.504095 
L 233.089123 213.700216 
L 233.703693 210.592061 
L 234.318472 204.896346 
L 234.933668 215.858742 
L 235.548416 209.020244 
L 236.163576 203.801016 
L 236.778472 209.38703 
L 237.393355 210.735296 
L 238.007827 213.400895 
L 238.622305 211.931204 
L 239.237501 213.509331 
L 239.853122 205.441652 
L 240.468607 209.551139 
L 241.083202 211.219103 
L 241.697827 194.401523 
L 242.312459 208.759782 
L 242.92709 211.261621 
L 243.542366 205.598777 
L 244.15827 207.856511 
L 244.77311 205.623602 
L 245.387969 200.790124 
L 246.00319 216.228962 
L 246.618381 211.030321 
L 247.847822 205.68868 
L 248.463074 207.193527 
L 249.692601 212.475708 
L 250.307158 213.404538 
L 250.921771 209.010135 
L 251.536255 215.114519 
L 252.150979 210.608858 
L 252.765543 204.244931 
L 253.38061 211.029351 
L 253.995235 211.992179 
L 254.609984 209.795114 
L 255.22464 209.843099 
L 255.839486 211.581202 
L 256.454689 210.811959 
L 257.069203 211.746586 
L 257.684253 211.86004 
L 258.299621 211.769658 
L 258.914204 216.016778 
L 259.528749 211.543708 
L 260.143546 212.266422 
L 260.758534 209.694534 
L 261.373903 214.657943 
L 261.988381 212.724416 
L 262.603024 208.636391 
L 263.217717 210.790659 
L 263.83233 215.302067 
L 264.447496 213.481446 
L 265.062017 218.955179 
L 265.676488 212.372302 
L 266.291519 210.295974 
L 266.906022 214.052343 
L 268.136114 214.099694 
L 268.750874 214.417445 
L 269.36542 212.078209 
L 269.979983 207.725954 
L 270.594805 194.624127 
L 271.209326 216.993028 
L 271.82416 205.789507 
L 273.053521 208.360879 
L 273.668558 207.778636 
L 274.283098 207.998924 
L 274.897618 209.731055 
L 275.512889 207.865378 
L 276.127403 207.320132 
L 276.742158 207.725374 
L 277.356912 209.322989 
L 277.971789 210.420455 
L 278.586734 206.921229 
L 279.202195 207.382736 
L 279.816808 213.457194 
L 280.431384 207.738371 
L 281.660794 201.51663 
L 282.891095 210.928504 
L 283.506009 205.773786 
L 284.120628 204.150981 
L 284.736034 196.572487 
L 285.350721 201.08665 
L 285.965512 193.250599 
L 286.580008 202.41832 
L 287.195389 205.669405 
L 287.811176 200.697189 
L 288.425783 201.462194 
L 289.041422 201.389337 
L 289.65719 208.760085 
L 290.272196 202.732451 
L 290.887073 209.801772 
L 291.501674 212.8647 
L 292.117067 211.889171 
L 292.731871 214.344015 
L 293.346422 213.776438 
L 293.961662 218.43833 
L 294.576281 219.567392 
L 295.191465 215.268954 
L 295.806041 213.276366 
L 296.421226 214.121365 
L 297.036164 208.428773 
L 297.651017 214.882795 
L 298.265618 201.051311 
L 298.880857 213.232162 
L 299.496361 213.360428 
L 300.11098 212.629246 
L 300.726263 219.663608 
L 301.340778 209.038621 
L 301.95536 211.344315 
L 302.570403 214.706302 
L 303.185993 211.603998 
L 303.800477 206.333444 
L 304.415041 208.256718 
L 305.029893 211.084516 
L 305.644482 216.786946 
L 306.259021 217.490532 
L 306.873806 219.32437 
L 307.4884 209.9562 
L 308.103726 213.56927 
L 308.718259 215.438603 
L 309.33302 216.205258 
L 309.947799 218.354459 
L 310.562276 215.402158 
L 311.176846 215.39521 
L 311.791963 217.686879 
L 312.407234 212.304778 
L 313.021834 215.760722 
L 313.636453 220.644657 
L 314.251152 216.906043 
L 314.865759 214.631714 
L 315.480741 216.582172 
L 316.710925 211.99228 
L 317.325428 204.354985 
L 317.940231 211.731001 
L 318.554979 214.345773 
L 319.169942 213.390978 
L 319.784488 215.18568 
L 320.398996 216.525098 
L 321.013492 216.346043 
L 321.62797 216.373624 
L 322.242522 216.10761 
L 322.857276 214.098181 
L 323.472049 205.291837 
L 324.086692 206.000507 
L 324.701225 205.161678 
L 325.316404 220.731251 
L 325.930937 212.831072 
L 326.546293 200.374737 
L 327.160826 206.66811 
L 327.77539 216.423405 
L 328.389948 215.074391 
L 329.004991 214.683855 
L 329.619561 206.134948 
L 330.23598 216.709305 
L 330.850864 207.382887 
L 331.465538 212.24953 
L 332.080034 207.123175 
L 332.694524 197.90476 
L 333.309168 199.924781 
L 333.923689 210.504046 
L 334.538209 215.166217 
L 335.153117 207.921146 
L 336.383216 216.636349 
L 336.997804 202.839523 
L 337.612847 205.189746 
L 338.22746 194.466581 
L 338.842884 200.534828 
L 339.45778 197.863482 
L 340.072264 200.345535 
L 340.687122 201.799742 
L 341.301606 199.56546 
L 341.916139 203.979512 
L 342.530728 192.948453 
L 343.145212 190.859164 
L 343.760009 195.674377 
L 344.374757 181.556916 
L 344.989241 181.220188 
L 345.604475 207.521716 
L 346.219014 205.542656 
L 346.834278 216.773348 
L 347.449002 215.247708 
L 348.064438 216.004528 
L 348.679444 217.259064 
L 349.294076 218.044626 
L 349.908898 211.012193 
L 350.523658 211.353406 
L 351.138271 212.579785 
L 351.753541 212.308833 
L 352.368283 215.128783 
L 352.9834 209.6115 
L 353.598996 210.71679 
L 354.213548 214.24435 
L 354.828357 196.907962 
L 355.442933 192.855153 
L 356.05751 210.193274 
L 356.672448 210.573729 
L 357.286969 207.471361 
L 357.901502 210.729699 
L 358.515998 194.955204 
L 359.131041 207.314258 
L 359.745611 203.567562 
L 360.360746 202.104316 
L 360.975372 214.814337 
L 361.590925 213.342889 
L 362.206797 210.340974 
L 362.821804 201.03589 
L 363.436748 177.542604 
L 364.051447 197.96957 
L 364.666005 200.631297 
L 365.280612 207.362232 
L 365.895237 206.537779 
L 366.510194 209.983527 
L 367.124721 209.54953 
L 367.739512 207.622867 
L 368.354402 206.080946 
L 368.969402 202.444369 
L 369.584174 206.794706 
L 370.199752 204.129448 
L 370.81482 209.949019 
L 371.4295 206.493221 
L 372.044924 205.150898 
L 372.662093 216.419521 
L 373.276602 214.050098 
L 373.891848 213.57538 
L 374.506541 212.021023 
L 375.121025 211.664579 
L 375.735631 208.130649 
L 376.350564 202.707029 
L 377.583901 209.416436 
L 378.198434 209.732065 
L 378.813962 207.627291 
L 379.428661 209.101525 
L 380.043329 209.638507 
L 380.657991 208.151302 
L 381.272531 209.701239 
L 381.887678 211.927257 
L 382.502291 210.958324 
L 383.117654 213.612475 
L 383.732193 205.761358 
L 384.346861 209.114869 
L 384.961683 207.155557 
L 386.190897 215.160496 
L 386.805381 215.045424 
L 387.419901 213.35964 
L 388.035252 207.176182 
L 388.649803 213.536629 
L 389.265025 213.666254 
L 389.879859 211.622772 
L 390.494994 211.976791 
L 391.109472 209.729958 
L 391.724791 213.127089 
L 392.339288 217.150194 
L 392.954699 214.018857 
L 393.569183 216.546766 
L 394.183716 217.166108 
L 394.798538 210.361867 
L 395.413637 212.352765 
L 396.028188 216.984904 
L 396.64266 215.31962 
L 397.257137 215.812333 
L 397.872592 215.59241 
L 398.487273 215.571254 
L 398.487273 215.571254 
" clip-path="url(#pa02bcbaef8)" style="fill: none; stroke: #1f77b4; stroke-width: 1.5; stroke-linecap: square"/>
   </g>
   <g id="patch_3">
    <path d="M 57.6 307.584 
L 57.6 41.472 
" style="fill: none; stroke: #000000; stroke-width: 0.8; stroke-linejoin: miter; stroke-linecap: square"/>
   </g>
   <g id="patch_4">
    <path d="M 414.72 307.584 
L 414.72 41.472 
" style="fill: none; stroke: #000000; stroke-width: 0.8; stroke-linejoin: miter; stroke-linecap: square"/>
   </g>
   <g id="patch_5">
    <path d="M 57.6 307.584 
L 414.72 307.584 
" style="fill: none; stroke: #000000; stroke-width: 0.8; stroke-linejoin: miter; stroke-linecap: square"/>
   </g>
   <g id="patch_6">
    <path d="M 57.6 41.472 
L 414.72 41.472 
" style="fill: none; stroke: #000000; stroke-width: 0.8; stroke-linejoin: miter; stroke-linecap: square"/>
   </g>
   <g id="text_16">
    <!-- pt19 link speed per 100ms -->
    <g transform="translate(155.608125 35.472)scale(0.12 -0.12)">
     <defs>
      <path id="DejaVuSans-39" d="M 703 97 
L 703 672 
Q 941 559 1184 500 
Q 1428 441 1663 441 
Q 2288 441 2617 861 
Q 2947 1281 2994 2138 
Q 2813 1869 2534 1725 
Q 2256 1581 1919 1581 
Q 1219 1581 811 2004 
Q 403 2428 403 3163 
Q 403 3881 828 4315 
Q 1253 4750 1959 4750 
Q 2769 4750 3195 4129 
Q 3622 3509 3622 2328 
Q 3622 1225 3098 567 
Q 2575 -91 1691 -91 
Q 1453 -91 1209 -44 
Q 966 3 703 97 
z
M 1959 2075 
Q 2384 2075 2632 2365 
Q 2881 2656 2881 3163 
Q 2881 3666 2632 3958 
Q 2384 4250 1959 4250 
Q 1534 4250 1286 3958 
Q 1038 3666 1038 3163 
Q 1038 2656 1286 2365 
Q 1534 2075 1959 2075 
z
" transform="scale(0.015625)"/>
      <path id="DejaVuSans-20" transform="scale(0.015625)"/>
      <path id="DejaVuSans-6c" d="M 603 4863 
L 1178 4863 
L 1178 0 
L 603 0 
L 603 4863 
z
" transform="scale(0.015625)"/>
      <path id="DejaVuSans-6e" d="M 3513 2113 
L 3513 0 
L 2938 0 
L 2938 2094 
Q 2938 2591 2744 2837 
Q 2550 3084 2163 3084 
Q 1697 3084 1428 2787 
Q 1159 2491 1159 1978 
L 1159 0 
L 581 0 
L 581 3500 
L 1159 3500 
L 1159 2956 
Q 1366 3272 1645 3428 
Q 1925 3584 2291 3584 
Q 2894 3584 3203 3211 
Q 3513 2838 3513 2113 
z
" transform="scale(0.015625)"/>
      <path id="DejaVuSans-6b" d="M 581 4863 
L 1159 4863 
L 1159 1991 
L 2875 3500 
L 3609 3500 
L 1753 1863 
L 3688 0 
L 2938 0 
L 1159 1709 
L 1159 0 
L 581 0 
L 581 4863 
z
" transform="scale(0.015625)"/>
      <path id="DejaVuSans-64" d="M 2906 2969 
L 2906 4863 
L 3481 4863 
L 3481 0 
L 2906 0 
L 2906 525 
Q 2725 213 2448 61 
Q 2172 -91 1784 -91 
Q 1150 -91 751 415 
Q 353 922 353 1747 
Q 353 2572 751 3078 
Q 1150 3584 1784 3584 
Q 2172 3584 2448 3432 
Q 2725 3281 2906 2969 
z
M 947 1747 
Q 947 1113 1208 752 
Q 1469 391 1925 391 
Q 2381 391 2643 752 
Q 2906 1113 2906 1747 
Q 2906 2381 2643 2742 
Q 2381 3103 1925 3103 
Q 1469 3103 1208 2742 
Q 947 2381 947 1747 
z
" transform="scale(0.015625)"/>
      <path id="DejaVuSans-72" d="M 2631 2963 
Q 2534 3019 2420 3045 
Q 2306 3072 2169 3072 
Q 1681 3072 1420 2755 
Q 1159 2438 1159 1844 
L 1159 0 
L 581 0 
L 581 3500 
L 1159 3500 
L 1159 2956 
Q 1341 3275 1631 3429 
Q 1922 3584 2338 3584 
Q 2397 3584 2469 3576 
Q 2541 3569 2628 3553 
L 2631 2963 
z
" transform="scale(0.015625)"/>
     </defs>
     <use xlink:href="#DejaVuSans-70"/>
     <use xlink:href="#DejaVuSans-74" x="63.476562"/>
     <use xlink:href="#DejaVuSans-31" x="102.685547"/>
     <use xlink:href="#DejaVuSans-39" x="166.308594"/>
     <use xlink:href="#DejaVuSans-20" x="229.931641"/>
     <use xlink:href="#DejaVuSans-6c" x="261.71875"/>
     <use xlink:href="#DejaVuSans-69" x="289.501953"/>
     <use xlink:href="#DejaVuSans-6e" x="317.285156"/>
     <use xlink:href="#DejaVuSans-6b" x="380.664062"/>
     <use xlink:href="#DejaVuSans-20" x="438.574219"/>
     <use xlink:href="#DejaVuSans-73" x="470.361328"/>
     <use xlink:href="#DejaVuSans-70" x="522.460938"/>
     <use xlink:href="#DejaVuSans-65" x="585.9375"/>
     <use xlink:href="#DejaVuSans-65" x="647.460938"/>
     <use xlink:href="#DejaVuSans-64" x="708.984375"/>
     <use xlink:href="#DejaVuSans-20" x="772.460938"/>
     <use xlink:href="#DejaVuSans-70" x="804.248047"/>
     <use xlink:href="#DejaVuSans-65" x="867.724609"/>
     <use xlink:href="#DejaVuSans-72" x="929.248047"/>
     <use xlink:href="#DejaVuSans-20" x="970.361328"/>
     <use xlink:href="#DejaVuSans-31" x="1002.148438"/>
     <use xlink:href="#DejaVuSans-30" x="1065.771484"/>
     <use xlink:href="#DejaVuSans-30" x="1129.394531"/>
     <use xlink:href="#DejaVuSans-6d" x="1193.017578"/>
     <use xlink:href="#DejaVuSans-73" x="1290.429688"/>
    </g>
   </g>
  </g>
 </g>
 <defs>
  <clipPath id="pa02bcbaef8">
   <rect x="57.6" y="41.472" width="357.12" height="266.112"/>
  </clipPath>
 </defs>
</svg>
