<?xml version="1.0" encoding="utf-8" standalone="no"?>
<!DOCTYPE svg PUBLIC "-//W3C//DTD SVG 1.1//EN"
  "http://www.w3.org/Graphics/SVG/1.1/DTD/svg11.dtd">
<svg xmlns:xlink="http://www.w3.org/1999/xlink" width="460.8pt" height="345.6pt" viewBox="0 0 460.8 345.6" xmlns="http://www.w3.org/2000/svg" version="1.1">
 <metadata>
  <rdf:RDF xmlns:dc="http://purl.org/dc/elements/1.1/" xmlns:cc="http://creativecommons.org/ns#" xmlns:rdf="http://www.w3.org/1999/02/22-rdf-syntax-ns#">
   <cc:Work>
    <dc:type rdf:resource="http://purl.org/dc/dcmitype/StillImage"/>
    <dc:date>2022-07-09T21:37:29.840138</dc:date>
    <dc:format>image/svg+xml</dc:format>
    <dc:creator>
     <cc:Agent>
      <dc:title>Matplotlib v3.5.2, https://matplotlib.org/</dc:title>
     </cc:Agent>
    </dc:creator>
   </cc:Work>
  </rdf:RDF>
 </metadata>
 <defs>
  <style type="text/css">*{stroke-linejoin: round; stroke-linecap: butt}</style>
 </defs>
 <g id="figure_1">
  <g id="patch_1">
   <path d="M 0 345.6 
L 460.8 345.6 
L 460.8 0 
L 0 0 
z
" style="fill: #ffffff"/>
  </g>
  <g id="axes_1">
   <g id="patch_2">
    <path d="M 57.6 307.584 
L 414.72 307.584 
L 414.72 41.472 
L 57.6 41.472 
z
" style="fill: #ffffff"/>
   </g>
   <g id="matplotlib.axis_1">
    <g id="xtick_1">
     <g id="line2d_1">
      <defs>
       <path id="m15af63a3c3" d="M 0 0 
L 0 3.5 
" style="stroke: #000000; stroke-width: 0.8"/>
      </defs>
      <g>
       <use xlink:href="#m15af63a3c3" x="73.735875" y="307.584" style="stroke: #000000; stroke-width: 0.8"/>
      </g>
     </g>
     <g id="text_1">
      <!-- 0 -->
      <g transform="translate(70.554625 322.182437)scale(0.1 -0.1)">
       <defs>
        <path id="DejaVuSans-30" d="M 2034 4250 
Q 1547 4250 1301 3770 
Q 1056 3291 1056 2328 
Q 1056 1369 1301 889 
Q 1547 409 2034 409 
Q 2525 409 2770 889 
Q 3016 1369 3016 2328 
Q 3016 3291 2770 3770 
Q 2525 4250 2034 4250 
z
M 2034 4750 
Q 2819 4750 3233 4129 
Q 3647 3509 3647 2328 
Q 3647 1150 3233 529 
Q 2819 -91 2034 -91 
Q 1250 -91 836 529 
Q 422 1150 422 2328 
Q 422 3509 836 4129 
Q 1250 4750 2034 4750 
z
" transform="scale(0.015625)"/>
       </defs>
       <use xlink:href="#DejaVuSans-30"/>
      </g>
     </g>
    </g>
    <g id="xtick_2">
     <g id="line2d_2">
      <g>
       <use xlink:href="#m15af63a3c3" x="121.874346" y="307.584" style="stroke: #000000; stroke-width: 0.8"/>
      </g>
     </g>
     <g id="text_2">
      <!-- 50 -->
      <g transform="translate(115.511846 322.182437)scale(0.1 -0.1)">
       <defs>
        <path id="DejaVuSans-35" d="M 691 4666 
L 3169 4666 
L 3169 4134 
L 1269 4134 
L 1269 2991 
Q 1406 3038 1543 3061 
Q 1681 3084 1819 3084 
Q 2600 3084 3056 2656 
Q 3513 2228 3513 1497 
Q 3513 744 3044 326 
Q 2575 -91 1722 -91 
Q 1428 -91 1123 -41 
Q 819 9 494 109 
L 494 744 
Q 775 591 1075 516 
Q 1375 441 1709 441 
Q 2250 441 2565 725 
Q 2881 1009 2881 1497 
Q 2881 1984 2565 2268 
Q 2250 2553 1709 2553 
Q 1456 2553 1204 2497 
Q 953 2441 691 2322 
L 691 4666 
z
" transform="scale(0.015625)"/>
       </defs>
       <use xlink:href="#DejaVuSans-35"/>
       <use xlink:href="#DejaVuSans-30" x="63.623047"/>
      </g>
     </g>
    </g>
    <g id="xtick_3">
     <g id="line2d_3">
      <g>
       <use xlink:href="#m15af63a3c3" x="170.012818" y="307.584" style="stroke: #000000; stroke-width: 0.8"/>
      </g>
     </g>
     <g id="text_3">
      <!-- 100 -->
      <g transform="translate(160.469068 322.182437)scale(0.1 -0.1)">
       <defs>
        <path id="DejaVuSans-31" d="M 794 531 
L 1825 531 
L 1825 4091 
L 703 3866 
L 703 4441 
L 1819 4666 
L 2450 4666 
L 2450 531 
L 3481 531 
L 3481 0 
L 794 0 
L 794 531 
z
" transform="scale(0.015625)"/>
       </defs>
       <use xlink:href="#DejaVuSans-31"/>
       <use xlink:href="#DejaVuSans-30" x="63.623047"/>
       <use xlink:href="#DejaVuSans-30" x="127.246094"/>
      </g>
     </g>
    </g>
    <g id="xtick_4">
     <g id="line2d_4">
      <g>
       <use xlink:href="#m15af63a3c3" x="218.151289" y="307.584" style="stroke: #000000; stroke-width: 0.8"/>
      </g>
     </g>
     <g id="text_4">
      <!-- 150 -->
      <g transform="translate(208.607539 322.182437)scale(0.1 -0.1)">
       <use xlink:href="#DejaVuSans-31"/>
       <use xlink:href="#DejaVuSans-35" x="63.623047"/>
       <use xlink:href="#DejaVuSans-30" x="127.246094"/>
      </g>
     </g>
    </g>
    <g id="xtick_5">
     <g id="line2d_5">
      <g>
       <use xlink:href="#m15af63a3c3" x="266.289761" y="307.584" style="stroke: #000000; stroke-width: 0.8"/>
      </g>
     </g>
     <g id="text_5">
      <!-- 200 -->
      <g transform="translate(256.746011 322.182437)scale(0.1 -0.1)">
       <defs>
        <path id="DejaVuSans-32" d="M 1228 531 
L 3431 531 
L 3431 0 
L 469 0 
L 469 531 
Q 828 903 1448 1529 
Q 2069 2156 2228 2338 
Q 2531 2678 2651 2914 
Q 2772 3150 2772 3378 
Q 2772 3750 2511 3984 
Q 2250 4219 1831 4219 
Q 1534 4219 1204 4116 
Q 875 4013 500 3803 
L 500 4441 
Q 881 4594 1212 4672 
Q 1544 4750 1819 4750 
Q 2544 4750 2975 4387 
Q 3406 4025 3406 3419 
Q 3406 3131 3298 2873 
Q 3191 2616 2906 2266 
Q 2828 2175 2409 1742 
Q 1991 1309 1228 531 
z
" transform="scale(0.015625)"/>
       </defs>
       <use xlink:href="#DejaVuSans-32"/>
       <use xlink:href="#DejaVuSans-30" x="63.623047"/>
       <use xlink:href="#DejaVuSans-30" x="127.246094"/>
      </g>
     </g>
    </g>
    <g id="xtick_6">
     <g id="line2d_6">
      <g>
       <use xlink:href="#m15af63a3c3" x="314.428232" y="307.584" style="stroke: #000000; stroke-width: 0.8"/>
      </g>
     </g>
     <g id="text_6">
      <!-- 250 -->
      <g transform="translate(304.884482 322.182437)scale(0.1 -0.1)">
       <use xlink:href="#DejaVuSans-32"/>
       <use xlink:href="#DejaVuSans-35" x="63.623047"/>
       <use xlink:href="#DejaVuSans-30" x="127.246094"/>
      </g>
     </g>
    </g>
    <g id="xtick_7">
     <g id="line2d_7">
      <g>
       <use xlink:href="#m15af63a3c3" x="362.566703" y="307.584" style="stroke: #000000; stroke-width: 0.8"/>
      </g>
     </g>
     <g id="text_7">
      <!-- 300 -->
      <g transform="translate(353.022953 322.182437)scale(0.1 -0.1)">
       <defs>
        <path id="DejaVuSans-33" d="M 2597 2516 
Q 3050 2419 3304 2112 
Q 3559 1806 3559 1356 
Q 3559 666 3084 287 
Q 2609 -91 1734 -91 
Q 1441 -91 1130 -33 
Q 819 25 488 141 
L 488 750 
Q 750 597 1062 519 
Q 1375 441 1716 441 
Q 2309 441 2620 675 
Q 2931 909 2931 1356 
Q 2931 1769 2642 2001 
Q 2353 2234 1838 2234 
L 1294 2234 
L 1294 2753 
L 1863 2753 
Q 2328 2753 2575 2939 
Q 2822 3125 2822 3475 
Q 2822 3834 2567 4026 
Q 2313 4219 1838 4219 
Q 1578 4219 1281 4162 
Q 984 4106 628 3988 
L 628 4550 
Q 988 4650 1302 4700 
Q 1616 4750 1894 4750 
Q 2613 4750 3031 4423 
Q 3450 4097 3450 3541 
Q 3450 3153 3228 2886 
Q 3006 2619 2597 2516 
z
" transform="scale(0.015625)"/>
       </defs>
       <use xlink:href="#DejaVuSans-33"/>
       <use xlink:href="#DejaVuSans-30" x="63.623047"/>
       <use xlink:href="#DejaVuSans-30" x="127.246094"/>
      </g>
     </g>
    </g>
    <g id="xtick_8">
     <g id="line2d_8">
      <g>
       <use xlink:href="#m15af63a3c3" x="410.705175" y="307.584" style="stroke: #000000; stroke-width: 0.8"/>
      </g>
     </g>
     <g id="text_8">
      <!-- 350 -->
      <g transform="translate(401.161425 322.182437)scale(0.1 -0.1)">
       <use xlink:href="#DejaVuSans-33"/>
       <use xlink:href="#DejaVuSans-35" x="63.623047"/>
       <use xlink:href="#DejaVuSans-30" x="127.246094"/>
      </g>
     </g>
    </g>
    <g id="text_9">
     <!-- time(s) -->
     <g transform="translate(218.357656 335.860562)scale(0.1 -0.1)">
      <defs>
       <path id="DejaVuSans-74" d="M 1172 4494 
L 1172 3500 
L 2356 3500 
L 2356 3053 
L 1172 3053 
L 1172 1153 
Q 1172 725 1289 603 
Q 1406 481 1766 481 
L 2356 481 
L 2356 0 
L 1766 0 
Q 1100 0 847 248 
Q 594 497 594 1153 
L 594 3053 
L 172 3053 
L 172 3500 
L 594 3500 
L 594 4494 
L 1172 4494 
z
" transform="scale(0.015625)"/>
       <path id="DejaVuSans-69" d="M 603 3500 
L 1178 3500 
L 1178 0 
L 603 0 
L 603 3500 
z
M 603 4863 
L 1178 4863 
L 1178 4134 
L 603 4134 
L 603 4863 
z
" transform="scale(0.015625)"/>
       <path id="DejaVuSans-6d" d="M 3328 2828 
Q 3544 3216 3844 3400 
Q 4144 3584 4550 3584 
Q 5097 3584 5394 3201 
Q 5691 2819 5691 2113 
L 5691 0 
L 5113 0 
L 5113 2094 
Q 5113 2597 4934 2840 
Q 4756 3084 4391 3084 
Q 3944 3084 3684 2787 
Q 3425 2491 3425 1978 
L 3425 0 
L 2847 0 
L 2847 2094 
Q 2847 2600 2669 2842 
Q 2491 3084 2119 3084 
Q 1678 3084 1418 2786 
Q 1159 2488 1159 1978 
L 1159 0 
L 581 0 
L 581 3500 
L 1159 3500 
L 1159 2956 
Q 1356 3278 1631 3431 
Q 1906 3584 2284 3584 
Q 2666 3584 2933 3390 
Q 3200 3197 3328 2828 
z
" transform="scale(0.015625)"/>
       <path id="DejaVuSans-65" d="M 3597 1894 
L 3597 1613 
L 953 1613 
Q 991 1019 1311 708 
Q 1631 397 2203 397 
Q 2534 397 2845 478 
Q 3156 559 3463 722 
L 3463 178 
Q 3153 47 2828 -22 
Q 2503 -91 2169 -91 
Q 1331 -91 842 396 
Q 353 884 353 1716 
Q 353 2575 817 3079 
Q 1281 3584 2069 3584 
Q 2775 3584 3186 3129 
Q 3597 2675 3597 1894 
z
M 3022 2063 
Q 3016 2534 2758 2815 
Q 2500 3097 2075 3097 
Q 1594 3097 1305 2825 
Q 1016 2553 972 2059 
L 3022 2063 
z
" transform="scale(0.015625)"/>
       <path id="DejaVuSans-28" d="M 1984 4856 
Q 1566 4138 1362 3434 
Q 1159 2731 1159 2009 
Q 1159 1288 1364 580 
Q 1569 -128 1984 -844 
L 1484 -844 
Q 1016 -109 783 600 
Q 550 1309 550 2009 
Q 550 2706 781 3412 
Q 1013 4119 1484 4856 
L 1984 4856 
z
" transform="scale(0.015625)"/>
       <path id="DejaVuSans-73" d="M 2834 3397 
L 2834 2853 
Q 2591 2978 2328 3040 
Q 2066 3103 1784 3103 
Q 1356 3103 1142 2972 
Q 928 2841 928 2578 
Q 928 2378 1081 2264 
Q 1234 2150 1697 2047 
L 1894 2003 
Q 2506 1872 2764 1633 
Q 3022 1394 3022 966 
Q 3022 478 2636 193 
Q 2250 -91 1575 -91 
Q 1294 -91 989 -36 
Q 684 19 347 128 
L 347 722 
Q 666 556 975 473 
Q 1284 391 1588 391 
Q 1994 391 2212 530 
Q 2431 669 2431 922 
Q 2431 1156 2273 1281 
Q 2116 1406 1581 1522 
L 1381 1569 
Q 847 1681 609 1914 
Q 372 2147 372 2553 
Q 372 3047 722 3315 
Q 1072 3584 1716 3584 
Q 2034 3584 2315 3537 
Q 2597 3491 2834 3397 
z
" transform="scale(0.015625)"/>
       <path id="DejaVuSans-29" d="M 513 4856 
L 1013 4856 
Q 1481 4119 1714 3412 
Q 1947 2706 1947 2009 
Q 1947 1309 1714 600 
Q 1481 -109 1013 -844 
L 513 -844 
Q 928 -128 1133 580 
Q 1338 1288 1338 2009 
Q 1338 2731 1133 3434 
Q 928 4138 513 4856 
z
" transform="scale(0.015625)"/>
      </defs>
      <use xlink:href="#DejaVuSans-74"/>
      <use xlink:href="#DejaVuSans-69" x="39.208984"/>
      <use xlink:href="#DejaVuSans-6d" x="66.992188"/>
      <use xlink:href="#DejaVuSans-65" x="164.404297"/>
      <use xlink:href="#DejaVuSans-28" x="225.927734"/>
      <use xlink:href="#DejaVuSans-73" x="264.941406"/>
      <use xlink:href="#DejaVuSans-29" x="317.041016"/>
     </g>
    </g>
   </g>
   <g id="matplotlib.axis_2">
    <g id="ytick_1">
     <g id="line2d_9">
      <defs>
       <path id="me1a81f9071" d="M 0 0 
L -3.5 0 
" style="stroke: #000000; stroke-width: 0.8"/>
      </defs>
      <g>
       <use xlink:href="#me1a81f9071" x="57.6" y="307.584" style="stroke: #000000; stroke-width: 0.8"/>
      </g>
     </g>
     <g id="text_10">
      <!-- 0 -->
      <g transform="translate(44.2375 311.383219)scale(0.1 -0.1)">
       <use xlink:href="#DejaVuSans-30"/>
      </g>
     </g>
    </g>
    <g id="ytick_2">
     <g id="line2d_10">
      <g>
       <use xlink:href="#me1a81f9071" x="57.6" y="263.232" style="stroke: #000000; stroke-width: 0.8"/>
      </g>
     </g>
     <g id="text_11">
      <!-- 50 -->
      <g transform="translate(37.875 267.031219)scale(0.1 -0.1)">
       <use xlink:href="#DejaVuSans-35"/>
       <use xlink:href="#DejaVuSans-30" x="63.623047"/>
      </g>
     </g>
    </g>
    <g id="ytick_3">
     <g id="line2d_11">
      <g>
       <use xlink:href="#me1a81f9071" x="57.6" y="218.88" style="stroke: #000000; stroke-width: 0.8"/>
      </g>
     </g>
     <g id="text_12">
      <!-- 100 -->
      <g transform="translate(31.5125 222.679219)scale(0.1 -0.1)">
       <use xlink:href="#DejaVuSans-31"/>
       <use xlink:href="#DejaVuSans-30" x="63.623047"/>
       <use xlink:href="#DejaVuSans-30" x="127.246094"/>
      </g>
     </g>
    </g>
    <g id="ytick_4">
     <g id="line2d_12">
      <g>
       <use xlink:href="#me1a81f9071" x="57.6" y="174.528" style="stroke: #000000; stroke-width: 0.8"/>
      </g>
     </g>
     <g id="text_13">
      <!-- 150 -->
      <g transform="translate(31.5125 178.327219)scale(0.1 -0.1)">
       <use xlink:href="#DejaVuSans-31"/>
       <use xlink:href="#DejaVuSans-35" x="63.623047"/>
       <use xlink:href="#DejaVuSans-30" x="127.246094"/>
      </g>
     </g>
    </g>
    <g id="ytick_5">
     <g id="line2d_13">
      <g>
       <use xlink:href="#me1a81f9071" x="57.6" y="130.176" style="stroke: #000000; stroke-width: 0.8"/>
      </g>
     </g>
     <g id="text_14">
      <!-- 200 -->
      <g transform="translate(31.5125 133.975219)scale(0.1 -0.1)">
       <use xlink:href="#DejaVuSans-32"/>
       <use xlink:href="#DejaVuSans-30" x="63.623047"/>
       <use xlink:href="#DejaVuSans-30" x="127.246094"/>
      </g>
     </g>
    </g>
    <g id="ytick_6">
     <g id="line2d_14">
      <g>
       <use xlink:href="#me1a81f9071" x="57.6" y="85.824" style="stroke: #000000; stroke-width: 0.8"/>
      </g>
     </g>
     <g id="text_15">
      <!-- 250 -->
      <g transform="translate(31.5125 89.623219)scale(0.1 -0.1)">
       <use xlink:href="#DejaVuSans-32"/>
       <use xlink:href="#DejaVuSans-35" x="63.623047"/>
       <use xlink:href="#DejaVuSans-30" x="127.246094"/>
      </g>
     </g>
    </g>
    <g id="ytick_7">
     <g id="line2d_15">
      <g>
       <use xlink:href="#me1a81f9071" x="57.6" y="41.472" style="stroke: #000000; stroke-width: 0.8"/>
      </g>
     </g>
     <g id="text_16">
      <!-- 300 -->
      <g transform="translate(31.5125 45.271219)scale(0.1 -0.1)">
       <use xlink:href="#DejaVuSans-33"/>
       <use xlink:href="#DejaVuSans-30" x="63.623047"/>
       <use xlink:href="#DejaVuSans-30" x="127.246094"/>
      </g>
     </g>
    </g>
    <g id="text_17">
     <!-- Mbps -->
     <g transform="translate(25.432812 187.795187)rotate(-90)scale(0.1 -0.1)">
      <defs>
       <path id="DejaVuSans-4d" d="M 628 4666 
L 1569 4666 
L 2759 1491 
L 3956 4666 
L 4897 4666 
L 4897 0 
L 4281 0 
L 4281 4097 
L 3078 897 
L 2444 897 
L 1241 4097 
L 1241 0 
L 628 0 
L 628 4666 
z
" transform="scale(0.015625)"/>
       <path id="DejaVuSans-62" d="M 3116 1747 
Q 3116 2381 2855 2742 
Q 2594 3103 2138 3103 
Q 1681 3103 1420 2742 
Q 1159 2381 1159 1747 
Q 1159 1113 1420 752 
Q 1681 391 2138 391 
Q 2594 391 2855 752 
Q 3116 1113 3116 1747 
z
M 1159 2969 
Q 1341 3281 1617 3432 
Q 1894 3584 2278 3584 
Q 2916 3584 3314 3078 
Q 3713 2572 3713 1747 
Q 3713 922 3314 415 
Q 2916 -91 2278 -91 
Q 1894 -91 1617 61 
Q 1341 213 1159 525 
L 1159 0 
L 581 0 
L 581 4863 
L 1159 4863 
L 1159 2969 
z
" transform="scale(0.015625)"/>
       <path id="DejaVuSans-70" d="M 1159 525 
L 1159 -1331 
L 581 -1331 
L 581 3500 
L 1159 3500 
L 1159 2969 
Q 1341 3281 1617 3432 
Q 1894 3584 2278 3584 
Q 2916 3584 3314 3078 
Q 3713 2572 3713 1747 
Q 3713 922 3314 415 
Q 2916 -91 2278 -91 
Q 1894 -91 1617 61 
Q 1341 213 1159 525 
z
M 3116 1747 
Q 3116 2381 2855 2742 
Q 2594 3103 2138 3103 
Q 1681 3103 1420 2742 
Q 1159 2381 1159 1747 
Q 1159 1113 1420 752 
Q 1681 391 2138 391 
Q 2594 391 2855 752 
Q 3116 1113 3116 1747 
z
" transform="scale(0.015625)"/>
      </defs>
      <use xlink:href="#DejaVuSans-4d"/>
      <use xlink:href="#DejaVuSans-62" x="86.279297"/>
      <use xlink:href="#DejaVuSans-70" x="149.755859"/>
      <use xlink:href="#DejaVuSans-73" x="213.232422"/>
     </g>
    </g>
   </g>
   <g id="line2d_16">
    <path d="M 73.832727 303.612712 
L 73.931769 305.168981 
L 74.028208 296.45325 
L 74.130113 305.800003 
L 74.226944 302.350272 
L 74.323691 303.867381 
L 74.419986 293.928539 
L 74.713569 302.638613 
L 74.816495 300.269412 
L 75.014677 306.313878 
L 75.112008 303.852477 
L 75.211524 304.741086 
L 75.509115 299.520667 
L 75.605838 292.772231 
L 75.894916 305.292198 
L 75.993497 303.724366 
L 76.091488 298.409693 
L 76.190544 304.488842 
L 76.289886 259.799195 
L 76.48394 305.625901 
L 76.580618 305.261419 
L 76.67736 305.477816 
L 76.775108 303.157891 
L 76.97677 304.518118 
L 77.073122 302.552305 
L 77.170183 305.460497 
L 77.27057 302.753641 
L 77.366873 282.497609 
L 77.561037 302.406736 
L 77.657902 303.31567 
L 77.754232 303.280969 
L 77.855245 298.494405 
L 77.955388 304.537337 
L 78.148096 302.844166 
L 78.245738 304.954055 
L 78.44215 301.521498 
L 78.539446 304.49771 
L 78.635749 303.491803 
L 78.732639 304.268232 
L 78.925462 297.276363 
L 79.216106 303.002896 
L 79.312747 302.595593 
L 79.409673 305.376339 
L 79.702827 302.989413 
L 79.80056 297.449933 
L 79.994296 303.205972 
L 80.189719 304.260707 
L 80.481243 296.497253 
L 80.578456 292.704269 
L 80.675055 302.430564 
L 80.868652 292.0603 
L 80.965869 301.947278 
L 81.158701 296.335545 
L 81.255176 300.679255 
L 81.351837 288.598799 
L 81.448155 292.449338 
L 81.545013 301.337765 
L 81.641292 296.669671 
L 81.838639 304.5667 
L 81.934971 304.022968 
L 82.031344 300.687087 
L 82.132542 300.997151 
L 82.229361 304.213569 
L 82.326415 303.74286 
L 82.42389 299.411289 
L 82.526852 301.21788 
L 82.625798 299.99777 
L 82.722308 294.211819 
L 82.823446 300.875176 
L 82.920501 300.394359 
L 83.115857 304.564887 
L 83.220541 305.927645 
L 83.320439 304.133782 
L 83.4196 304.647808 
L 83.517386 259.960685 
L 83.715942 306.059419 
L 83.814768 304.434526 
L 83.920143 299.485661 
L 84.017889 301.622191 
L 84.117114 300.905923 
L 84.316288 301.937827 
L 84.415275 305.788681 
L 84.514868 302.811354 
L 84.709972 304.197097 
L 84.810389 304.708785 
L 84.91262 304.281791 
L 85.012435 302.291483 
L 85.208881 304.318014 
L 85.402513 298.837186 
L 85.499302 301.8138 
L 85.596345 301.443998 
L 85.793071 303.917108 
L 85.890072 302.635403 
L 85.988798 303.523044 
L 86.085747 301.428669 
L 86.182225 303.015642 
L 86.278583 301.100554 
L 86.478364 303.265489 
L 86.575417 285.012584 
L 86.769173 302.503826 
L 86.96388 297.013848 
L 87.060563 305.493384 
L 87.160777 303.534857 
L 87.259836 305.045418 
L 87.357893 304.877274 
L 87.554995 302.668191 
L 87.651356 305.606813 
L 87.74779 298.571688 
L 87.943622 304.714501 
L 88.138043 297.650199 
L 88.435904 304.030429 
L 88.53251 302.749601 
L 88.63358 305.077215 
L 88.827905 302.110443 
L 88.924436 303.777098 
L 89.117794 300.790943 
L 89.311191 300.195725 
L 89.504274 296.640147 
L 89.60058 298.129078 
L 89.697378 303.669829 
L 89.793933 303.169544 
L 89.891639 302.379412 
L 89.988472 304.105807 
L 90.084834 301.37385 
L 90.28572 303.432166 
L 90.382054 301.290955 
L 90.577706 305.462713 
L 90.674997 305.225363 
L 90.868772 304.284678 
L 90.967184 291.426108 
L 91.171589 305.019394 
L 91.270658 304.817514 
L 91.36739 305.047531 
L 91.659082 300.475771 
L 91.755554 288.373434 
L 91.949728 297.48774 
L 92.046411 277.618419 
L 92.240572 302.525633 
L 92.348384 303.488171 
L 92.446506 302.86238 
L 92.543061 300.788822 
L 92.6438 305.271482 
L 92.740433 303.895849 
L 92.836973 304.332798 
L 92.938299 305.663846 
L 93.132857 300.037771 
L 93.229155 239.847662 
L 93.42233 267.604539 
L 93.519425 305.858251 
L 93.621333 304.846893 
L 93.717768 305.078488 
L 93.814164 305.812752 
L 93.911424 305.245584 
L 94.009654 306.812244 
L 94.203117 305.241597 
L 94.303523 306.054014 
L 94.399801 305.425773 
L 94.496772 301.041311 
L 94.593217 301.173599 
L 94.691351 305.497204 
L 94.797592 304.630832 
L 94.893994 304.828643 
L 95.097908 299.822129 
L 95.195454 302.60572 
L 95.291924 302.49778 
L 95.584631 306.054708 
L 95.78099 303.359715 
L 95.878346 304.292401 
L 96.071883 302.169031 
L 96.168525 299.00194 
L 96.362448 300.997365 
L 96.560383 302.571186 
L 96.661406 299.653546 
L 96.85683 305.880791 
L 96.957326 300.749059 
L 97.056987 303.99025 
L 97.154398 303.918644 
L 97.25147 305.987988 
L 97.348137 303.931577 
L 97.445132 297.979569 
L 97.544576 305.410041 
L 97.64111 302.995651 
L 97.737653 303.246652 
L 97.835266 302.601832 
L 97.932723 305.676442 
L 98.128311 299.963589 
L 98.224661 302.346897 
L 98.423556 300.604219 
L 98.520798 302.332314 
L 98.621001 298.29912 
L 98.717337 301.500132 
L 98.814226 299.420741 
L 98.911116 304.352224 
L 99.007732 302.539136 
L 99.202651 305.213575 
L 99.299276 302.349766 
L 99.395572 302.896562 
L 99.498234 304.701852 
L 99.595334 296.559601 
L 99.795711 304.101297 
L 99.89267 296.763993 
L 99.989626 305.065403 
L 100.279696 285.36702 
L 100.477619 298.840284 
L 100.672945 247.333623 
L 100.769915 250.454809 
L 100.86942 306.67506 
L 100.965849 304.996917 
L 101.159263 305.186083 
L 101.255725 306.116223 
L 101.449482 300.418973 
L 101.545804 281.135951 
L 101.739236 302.786018 
L 102.030174 305.724019 
L 102.1334 306.101379 
L 102.332004 304.313362 
L 102.5258 305.837456 
L 102.626409 304.021728 
L 102.727351 289.11315 
L 102.926899 306.220349 
L 103.129573 303.271701 
L 103.226233 303.507194 
L 103.420786 304.581552 
L 103.51826 305.369985 
L 103.615061 304.787959 
L 103.714318 306.147248 
L 103.81128 303.908037 
L 103.90763 286.281439 
L 104.010645 304.504884 
L 104.204138 300.063154 
L 104.397178 291.526571 
L 104.591302 290.181561 
L 104.692474 293.357621 
L 104.788836 305.550373 
L 104.887448 303.285829 
L 105.080937 304.500453 
L 105.177368 303.153588 
L 105.275006 303.421513 
L 105.372704 301.977119 
L 105.469838 305.758921 
L 105.667594 303.699607 
L 105.868162 305.816547 
L 105.966679 290.787044 
L 106.160876 304.847208 
L 106.25932 305.940256 
L 106.453977 303.514484 
L 106.650236 306.645482 
L 106.749636 302.423102 
L 106.848743 305.409487 
L 106.947867 305.342667 
L 107.237806 302.931404 
L 107.334157 298.07516 
L 107.430481 302.463385 
L 107.530507 302.2958 
L 107.725913 305.312395 
L 107.824651 305.273062 
L 107.921602 305.83357 
L 108.019793 305.723029 
L 108.116986 305.157374 
L 108.213407 302.506745 
L 108.311832 304.526568 
L 108.409958 301.681625 
L 108.507469 304.610881 
L 108.603797 303.218113 
L 108.700369 299.097843 
L 108.896602 302.411893 
L 108.999081 303.776387 
L 109.095816 303.409352 
L 109.19399 304.477794 
L 109.290488 301.421675 
L 109.386828 301.43106 
L 109.485839 301.716265 
L 109.788644 292.872673 
L 109.991207 301.970207 
L 110.186694 299.489904 
L 110.380172 304.300822 
L 110.477477 301.203454 
L 110.577065 301.863758 
L 110.770433 297.975647 
L 110.869871 300.406569 
L 110.966376 296.66643 
L 111.062774 300.277449 
L 111.159161 296.246862 
L 111.255638 297.405922 
L 111.352174 299.920571 
L 111.448516 295.453447 
L 111.65111 300.820276 
L 111.845628 293.618415 
L 111.941931 300.64579 
L 112.134738 285.737569 
L 112.231139 288.71524 
L 112.430688 303.134223 
L 112.626477 306.054715 
L 112.726595 303.622048 
L 112.825417 304.181189 
L 113.019427 301.087335 
L 113.214544 303.060263 
L 113.316206 294.10518 
L 113.623356 304.665802 
L 113.719721 304.393216 
L 113.81628 304.583655 
L 114.306056 295.053727 
L 114.402484 296.812782 
L 114.501361 302.050731 
L 114.597721 291.773466 
L 114.791629 300.323963 
L 114.985765 305.698363 
L 115.179669 302.155259 
L 115.276677 302.342366 
L 115.37601 304.510535 
L 115.472736 300.02129 
L 115.569572 300.620085 
L 115.670636 302.659306 
L 115.766975 296.916597 
L 115.86364 301.02551 
L 115.960511 300.443326 
L 116.057136 303.634661 
L 116.154173 302.736663 
L 116.254858 298.926296 
L 116.352645 303.277238 
L 116.449301 301.078108 
L 116.545878 302.168359 
L 116.64223 294.729476 
L 116.738823 299.857026 
L 116.835218 290.935022 
L 117.033512 302.178069 
L 117.136004 302.43718 
L 117.232347 297.761787 
L 117.328812 305.243824 
L 117.527883 301.469111 
L 117.628277 304.211309 
L 117.728285 293.466789 
L 117.831506 304.992535 
L 117.928682 303.831506 
L 118.026394 299.17959 
L 118.136717 302.785941 
L 118.233228 302.3619 
L 118.329781 296.773096 
L 118.426101 303.145204 
L 118.522749 298.881393 
L 118.621303 305.016267 
L 118.817272 303.554081 
L 118.914744 303.737735 
L 119.107805 296.998392 
L 119.204094 302.664087 
L 119.300608 302.050284 
L 119.399359 303.417317 
L 119.495671 302.045636 
L 119.592268 297.050383 
L 119.786945 305.696845 
L 119.883349 304.798893 
L 119.992053 306.359198 
L 120.089351 304.431877 
L 120.18599 305.96654 
L 120.28656 303.928203 
L 120.483992 293.659347 
L 120.582462 269.227156 
L 120.785271 304.632286 
L 120.882601 305.589689 
L 120.979191 303.484666 
L 121.080538 306.425811 
L 121.280989 304.354979 
L 121.379416 304.800325 
L 121.67093 302.244351 
L 121.768519 299.809794 
L 121.961886 303.158258 
L 122.062038 303.061417 
L 122.160072 302.210945 
L 122.36192 306.199754 
L 122.459181 304.729776 
L 122.652983 295.189628 
L 122.749916 290.038684 
L 122.94766 298.918118 
L 123.049535 298.593351 
L 123.244586 295.178396 
L 123.441241 303.127065 
L 123.539431 296.279509 
L 123.737536 304.89725 
L 123.837238 298.938245 
L 124.034967 304.631535 
L 124.133623 302.399691 
L 124.328253 305.244356 
L 124.7245 302.701143 
L 124.930822 305.843338 
L 125.031545 303.908854 
L 125.128322 304.718388 
L 125.224774 304.068618 
L 125.520501 289.712807 
L 125.616787 280.618846 
L 125.915016 294.388679 
L 126.011373 250.466758 
L 126.20854 303.974023 
L 126.306259 304.321363 
L 126.408206 305.714528 
L 126.603678 303.696632 
L 126.700966 304.244346 
L 126.809962 306.322196 
L 126.910396 306.071631 
L 127.007274 301.944901 
L 127.200853 305.606406 
L 127.299406 305.833547 
L 127.496692 300.670952 
L 127.593251 292.555014 
L 127.690403 305.00752 
L 127.788092 301.907334 
L 127.996013 305.244341 
L 128.092318 305.039925 
L 128.190993 303.673279 
L 128.288232 305.128642 
L 128.682741 299.198383 
L 128.783495 301.618888 
L 128.880894 294.864445 
L 128.977247 303.523683 
L 129.073635 302.697202 
L 129.173443 303.442948 
L 129.27034 297.41125 
L 129.366959 303.228149 
L 129.463883 300.887208 
L 129.561874 303.463078 
L 129.658284 302.92993 
L 129.760484 301.232478 
L 129.856766 301.604805 
L 129.954196 302.89756 
L 130.147837 282.158905 
L 130.340554 207.739335 
L 130.533701 77.478039 
L 130.726954 58.259622 
L 131.0162 301.629734 
L 131.114091 301.049713 
L 131.210787 286.231242 
L 131.307503 299.730642 
L 131.403886 298.100873 
L 131.600025 301.767281 
L 131.793642 293.39896 
L 131.98933 303.017707 
L 132.088671 300.180742 
L 132.190755 303.372095 
L 132.385898 297.78713 
L 132.483589 301.128562 
L 132.580326 287.793828 
L 132.677542 288.916661 
L 132.775199 292.918412 
L 132.968317 305.281187 
L 133.065161 303.993966 
L 133.167147 305.055853 
L 133.367333 303.10759 
L 133.464771 306.005884 
L 133.566101 304.230754 
L 133.662539 296.343934 
L 133.873678 305.52463 
L 133.970134 301.24827 
L 134.170544 306.436607 
L 134.266832 305.563241 
L 134.460299 302.955624 
L 134.659404 306.60039 
L 134.758248 303.629226 
L 134.858348 305.363876 
L 134.955328 304.439391 
L 135.05455 302.056347 
L 135.154362 306.226659 
L 135.253076 305.743775 
L 135.349394 301.189696 
L 135.449806 301.753741 
L 135.546596 275.224862 
L 135.742311 302.887345 
L 135.840965 303.836732 
L 135.937968 297.391189 
L 136.034494 298.002712 
L 136.130787 301.072802 
L 136.227611 299.118673 
L 136.531057 304.426441 
L 136.631338 302.568238 
L 136.921373 277.84769 
L 137.217707 302.549916 
L 137.314172 285.524715 
L 137.605755 299.933838 
L 137.707141 305.193269 
L 137.803826 301.489379 
L 138.00155 304.817585 
L 138.199042 303.924139 
L 138.392364 306.164189 
L 138.488728 303.855818 
L 138.585095 304.920457 
L 138.684348 302.365077 
L 138.783739 302.411982 
L 138.881178 301.474276 
L 138.977587 301.581328 
L 139.073927 302.63198 
L 139.2676 301.069794 
L 139.363887 302.609903 
L 139.460565 300.896353 
L 139.560952 301.650905 
L 139.754428 304.520057 
L 139.852823 303.960896 
L 139.949246 300.022438 
L 140.045702 303.504309 
L 140.144808 303.061258 
L 140.241139 303.431439 
L 140.337442 304.303693 
L 140.535859 303.629609 
L 140.632207 304.025534 
L 140.72945 299.581409 
L 140.826501 300.927868 
L 140.924054 294.380924 
L 141.02037 295.878268 
L 141.116832 301.946063 
L 141.213153 300.839286 
L 141.315127 295.968253 
L 141.41952 306.012659 
L 141.713855 302.864022 
L 141.81529 298.957294 
L 141.912897 302.751818 
L 142.009206 291.014211 
L 142.207636 301.875544 
L 142.304349 303.42299 
L 142.400671 301.572276 
L 142.498297 306.38013 
L 142.594845 301.21796 
L 142.691271 305.120065 
L 142.787834 304.883365 
L 142.980665 295.720123 
L 143.077493 304.643822 
L 143.174681 303.305273 
L 143.273689 297.523745 
L 143.370904 303.312022 
L 143.469401 297.105122 
L 143.569759 303.766813 
L 143.667038 294.960623 
L 143.860289 302.706612 
L 143.956577 300.570177 
L 144.151859 304.464891 
L 144.442739 305.022751 
L 144.831625 297.288029 
L 145.129882 305.094044 
L 145.323019 302.567415 
L 145.420796 303.719354 
L 145.517085 296.367341 
L 145.613408 296.488738 
L 145.709806 300.310371 
L 145.806363 295.311384 
L 145.904535 299.095258 
L 146.001423 296.303963 
L 146.099101 296.490855 
L 146.195469 300.327117 
L 146.388773 295.435041 
L 146.485208 297.433714 
L 146.58198 288.876037 
L 146.775781 299.293685 
L 146.971144 294.96806 
L 147.06745 297.781495 
L 147.163757 276.69092 
L 147.260036 294.907835 
L 147.356402 292.490621 
L 147.5538 295.994597 
L 147.651713 298.56806 
L 147.74863 297.77318 
L 147.845269 298.143331 
L 147.942242 297.068698 
L 148.038537 299.539081 
L 148.136238 295.626383 
L 148.232924 297.64346 
L 148.329276 292.910613 
L 148.425575 295.163478 
L 148.522155 292.837259 
L 148.619545 285.496511 
L 148.727094 300.289594 
L 148.823391 298.420796 
L 149.016006 289.665141 
L 149.407245 304.274976 
L 149.503829 304.678675 
L 149.600679 297.09528 
L 149.697135 302.954249 
L 149.794033 290.493957 
L 149.897587 301.027077 
L 149.996328 296.465558 
L 150.092764 300.446845 
L 150.189158 286.772694 
L 150.285627 298.914254 
L 150.381971 291.722966 
L 150.575622 302.568003 
L 150.7738 296.487066 
L 150.870092 297.689218 
L 150.970143 290.052052 
L 151.066475 299.09431 
L 151.163006 296.630289 
L 151.356252 301.429432 
L 151.561247 300.969346 
L 151.661327 298.016227 
L 151.757847 299.424117 
L 151.85448 297.857958 
L 151.951187 299.901475 
L 152.047498 299.209549 
L 152.143932 297.258482 
L 152.240225 298.44621 
L 152.339889 295.084136 
L 152.537858 302.804498 
L 152.638547 295.741547 
L 152.737047 299.347001 
L 152.833357 295.128098 
L 153.028533 303.799224 
L 153.223711 299.094384 
L 153.320261 301.586693 
L 153.514836 292.946357 
L 153.611255 293.25651 
L 153.7098 294.085804 
L 153.806955 305.92604 
L 153.903455 302.816339 
L 153.999885 294.440132 
L 154.096836 302.097692 
L 154.19474 299.993318 
L 154.292865 305.168379 
L 154.488347 290.024759 
L 154.682635 302.161065 
L 154.779092 303.698352 
L 154.88026 300.850749 
L 154.977032 294.207877 
L 155.169813 302.433451 
L 155.266159 302.345741 
L 155.364863 303.313048 
L 155.463351 300.669554 
L 155.662289 305.007119 
L 155.759591 302.717491 
L 155.966843 305.223446 
L 156.16017 298.42029 
L 156.354384 305.218347 
L 156.548005 299.010681 
L 156.646218 301.054986 
L 156.937143 290.379472 
L 157.034601 287.415712 
L 157.230733 293.180565 
L 157.327073 288.511421 
L 157.520783 296.600532 
L 157.617063 291.290665 
L 157.815659 304.161799 
L 158.014123 302.376138 
L 158.110634 302.157799 
L 158.209824 302.23937 
L 158.404636 304.859443 
L 158.501231 303.02376 
L 158.699481 304.508169 
L 158.896354 304.973254 
L 158.992777 301.355931 
L 159.08927 301.509082 
L 159.189547 303.554733 
L 159.285901 300.932527 
L 159.48072 304.08783 
L 159.57742 302.955243 
L 159.773656 304.578535 
L 159.870158 304.780324 
L 159.967008 295.254622 
L 160.262156 304.560402 
L 160.35977 299.094357 
L 160.456221 301.142976 
L 160.656508 299.611824 
L 160.753414 296.055302 
L 160.946892 302.841494 
L 161.143252 299.945388 
L 161.241858 299.405472 
L 161.436515 292.152057 
L 161.534793 294.263515 
L 161.631369 291.37224 
L 161.828198 297.843172 
L 161.924738 293.737708 
L 162.021062 296.462807 
L 162.117615 292.586844 
L 162.214397 299.247661 
L 162.31079 294.736072 
L 162.503535 252.114306 
L 162.604566 298.173572 
L 162.700959 296.973839 
L 162.798678 297.32935 
L 162.895173 298.91004 
L 163.089068 297.623626 
L 163.190022 298.514007 
L 163.290408 296.801101 
L 163.389712 297.772376 
L 163.485997 292.674053 
L 163.678667 297.341455 
L 163.777004 296.714861 
L 163.873801 297.748058 
L 163.971355 292.130297 
L 164.068416 296.608528 
L 164.166819 289.564648 
L 164.263148 294.932618 
L 164.359468 286.487042 
L 164.459047 295.846639 
L 164.556535 294.926997 
L 164.653828 291.914555 
L 164.848139 295.138177 
L 164.946511 294.70185 
L 165.044394 294.247542 
L 165.140693 295.46619 
L 165.237786 290.142428 
L 165.33416 293.23092 
L 165.432762 284.011564 
L 165.531658 286.373528 
L 165.627958 262.733098 
L 165.725738 293.132738 
L 165.822399 248.645424 
L 166.015693 295.840411 
L 166.112046 294.755626 
L 166.208759 297.965068 
L 166.403278 295.903794 
L 166.499855 296.988914 
L 166.693309 291.061464 
L 166.790374 296.417184 
L 166.984534 289.578696 
L 167.083762 298.394632 
L 167.180058 292.206739 
L 167.379454 299.487439 
L 167.475766 295.834368 
L 167.572405 295.870931 
L 167.668735 301.159891 
L 167.765328 271.409282 
L 167.864286 304.958284 
L 167.962034 303.458982 
L 168.058974 303.807252 
L 168.15565 299.963516 
L 168.254702 303.702689 
L 168.354133 300.755676 
L 168.54901 304.062885 
L 168.646327 303.755109 
L 168.748025 304.411924 
L 168.942568 303.268459 
L 169.03899 302.694923 
L 169.135512 305.494425 
L 169.233876 302.856207 
L 169.428978 304.638084 
L 169.527047 302.899009 
L 169.631431 303.670452 
L 169.728308 301.697687 
L 169.921991 303.85648 
L 170.019899 303.542313 
L 170.118315 302.169117 
L 170.217101 306.002946 
L 170.314398 300.938099 
L 170.414865 304.464034 
L 170.517815 303.325396 
L 170.614335 306.073493 
L 170.809107 301.290771 
L 170.90556 303.062464 
L 171.297702 298.672166 
L 171.394965 300.012142 
L 171.491266 298.364938 
L 171.588173 306.351306 
L 171.685109 301.460755 
L 171.781724 305.372155 
L 171.878005 302.573486 
L 172.074715 305.449841 
L 172.171755 301.45241 
L 172.26853 302.482429 
L 172.465895 305.308621 
L 172.66641 303.396946 
L 172.76368 305.875208 
L 173.054763 303.313394 
L 173.152924 306.725416 
L 173.348512 302.793854 
L 173.446191 302.518989 
L 173.644774 304.969387 
L 173.743645 301.508963 
L 173.841401 303.213561 
L 173.93801 300.513602 
L 174.13064 293.089912 
L 174.326416 304.133065 
L 174.424105 303.281179 
L 174.520743 303.515699 
L 174.617642 299.574809 
L 174.714103 304.743349 
L 174.810751 297.355542 
L 175.103671 305.033151 
L 175.394006 298.657945 
L 175.492639 299.756302 
L 175.686362 305.032473 
L 175.782873 304.567779 
L 175.879517 302.413509 
L 175.976322 297.293275 
L 176.176746 303.419038 
L 176.373634 304.800465 
L 176.471173 303.482344 
L 176.567713 304.890278 
L 176.664044 303.491636 
L 176.76033 304.052557 
L 176.858985 303.967074 
L 176.955388 299.682781 
L 177.054115 302.192852 
L 177.254398 298.282155 
L 177.35166 298.753002 
L 177.644615 305.284851 
L 177.752786 305.427668 
L 177.849236 302.286536 
L 177.945547 305.307101 
L 178.041989 303.647709 
L 178.143538 305.310731 
L 178.451598 302.051677 
L 178.552187 303.964429 
L 178.65025 300.53344 
L 178.749884 300.837479 
L 178.847103 297.978407 
L 178.94347 299.430628 
L 179.039866 302.841274 
L 179.136167 301.703768 
L 179.239475 297.361963 
L 179.336547 300.991474 
L 179.434721 296.975488 
L 179.533906 301.085362 
L 179.631056 294.61738 
L 179.823749 302.93219 
L 179.92223 295.827062 
L 180.11758 304.993389 
L 180.214083 304.015653 
L 180.310429 299.448055 
L 180.510317 304.653072 
L 180.706206 300.149084 
L 180.812755 303.790465 
L 181.103475 298.590069 
L 181.2072 291.482986 
L 181.406152 304.880498 
L 181.601331 305.157756 
L 181.794385 300.023307 
L 182.093657 304.380287 
L 182.190244 306.552559 
L 182.387612 302.493893 
L 182.585022 304.788395 
L 182.682504 300.560696 
L 182.782989 300.837171 
L 182.975966 305.568297 
L 183.080037 305.475706 
L 183.178287 304.077094 
L 183.275397 304.68474 
L 183.667077 302.007684 
L 183.764496 301.85892 
L 183.86108 302.392706 
L 183.957732 299.561519 
L 184.054205 299.907293 
L 184.151027 303.624301 
L 184.249925 302.802185 
L 184.34825 303.14725 
L 184.444677 305.958392 
L 184.542412 302.006485 
L 184.639573 304.935257 
L 184.736311 300.898054 
L 184.833573 302.373481 
L 185.026221 294.964529 
L 185.122547 299.684039 
L 185.219202 295.298237 
L 185.317751 304.275186 
L 185.414172 304.115168 
L 185.606735 300.679921 
L 185.703148 301.1821 
L 185.799953 301.100928 
L 185.993967 295.277969 
L 186.09034 299.034203 
L 186.283284 296.305673 
L 186.379739 297.450568 
L 186.478327 293.147315 
L 186.774149 304.011575 
L 186.870459 298.417454 
L 186.976226 299.373544 
L 187.275534 306.119219 
L 187.372457 303.398657 
L 187.577573 305.232483 
L 187.677071 305.334449 
L 187.773357 305.260923 
L 187.87169 306.568615 
L 188.072522 305.116163 
L 188.173118 303.863247 
L 188.27158 304.639906 
L 188.564046 290.266972 
L 188.853998 304.629415 
L 188.9519 303.580342 
L 189.04874 301.263848 
L 189.146792 304.440296 
L 189.24373 299.383808 
L 189.340522 299.489025 
L 189.436833 305.502772 
L 189.533259 304.643173 
L 189.631391 305.598 
L 189.730154 302.618259 
L 189.829125 302.83526 
L 189.925472 303.436675 
L 190.118674 301.917216 
L 190.215674 302.06816 
L 190.312097 304.780433 
L 190.508327 300.339626 
L 190.605296 302.830119 
L 190.702434 302.27459 
L 190.798804 304.226477 
L 190.895096 303.364236 
L 190.992481 299.431942 
L 191.088933 277.548929 
L 191.1942 303.363625 
L 191.291086 301.358127 
L 191.484068 298.407322 
L 191.778274 305.617096 
L 191.88477 287.204727 
L 191.981223 305.8548 
L 192.078483 304.251895 
L 192.174938 306.218663 
L 192.568627 302.876767 
L 192.664911 303.053288 
L 192.857622 305.431522 
L 192.959697 304.88302 
L 193.056655 298.951334 
L 193.152997 303.178528 
L 193.347204 296.157207 
L 193.540401 297.771316 
L 193.636739 296.735977 
L 193.733117 296.892775 
L 193.927158 301.640027 
L 194.024079 301.725923 
L 194.120653 304.054008 
L 194.218017 303.101615 
L 194.317378 303.845255 
L 194.413699 301.072525 
L 194.511254 303.747812 
L 194.607645 300.840553 
L 194.708213 294.056683 
L 194.804554 298.664602 
L 194.90091 292.484109 
L 194.997297 292.649212 
L 195.097357 301.912336 
L 195.194114 300.677095 
L 195.291526 300.879229 
L 195.388592 301.516606 
L 195.487189 300.63086 
L 195.886014 305.295927 
L 195.983478 303.446561 
L 196.082092 303.593674 
L 196.180387 304.408019 
L 196.277053 302.777526 
L 196.567765 282.669161 
L 196.664415 290.514484 
L 196.760693 286.599168 
L 197.244174 300.117097 
L 197.343786 297.283694 
L 197.442058 297.926649 
L 197.634862 294.35064 
L 197.731244 294.973911 
L 197.827965 298.17328 
L 197.925794 295.101224 
L 198.022784 299.640404 
L 198.120006 297.277018 
L 198.313135 289.458182 
L 198.409456 296.330769 
L 198.506252 295.773537 
L 198.699865 294.444698 
L 198.796419 289.055825 
L 198.893614 301.007678 
L 198.990158 298.652954 
L 199.183904 287.230425 
L 199.379356 302.55493 
L 199.477896 302.062014 
L 199.767735 276.641578 
L 199.96126 289.319284 
L 200.154273 275.697301 
L 200.347087 296.032461 
L 200.443501 294.573258 
L 200.539791 282.765306 
L 200.828812 291.60394 
L 200.925234 294.464899 
L 201.118031 291.914496 
L 201.21513 292.01959 
L 201.311572 295.407953 
L 201.408176 293.717007 
L 201.510322 297.470969 
L 201.606897 296.57439 
L 201.703655 288.016885 
L 202.093184 305.106852 
L 202.192773 301.676493 
L 202.487986 305.994834 
L 202.587091 306.208092 
L 202.685986 304.669802 
L 202.78262 306.683598 
L 202.976726 254.926855 
L 203.170467 299.479356 
L 203.269005 301.653798 
L 203.366 300.831738 
L 203.462408 294.255245 
L 203.753083 301.337239 
L 203.849807 300.977351 
L 203.950175 289.971574 
L 204.142795 300.341508 
L 204.239159 299.476835 
L 204.338037 300.242672 
L 204.436003 299.441144 
L 204.532328 296.341162 
L 204.628918 300.266584 
L 204.82158 287.609712 
L 205.016826 300.204471 
L 205.11311 294.128357 
L 205.21102 299.226943 
L 205.404086 290.214377 
L 205.500422 290.415382 
L 205.596808 291.499899 
L 205.69331 286.951235 
L 205.789805 295.149461 
L 205.886601 284.861768 
L 206.079199 291.775705 
L 206.177037 289.312451 
L 206.273592 290.671634 
L 206.369898 287.871898 
L 206.466228 298.143819 
L 206.56286 297.036263 
L 206.659188 294.049385 
L 206.755956 284.367726 
L 206.852397 293.611932 
L 207.045432 288.632058 
L 207.238623 290.961222 
L 207.335222 278.811321 
L 207.431501 290.450662 
L 207.528531 290.189964 
L 207.723292 293.808183 
L 207.819689 283.104327 
L 207.92484 293.001953 
L 208.021135 287.043633 
L 208.117861 293.226962 
L 208.216412 284.990476 
L 208.315606 299.406745 
L 208.509049 292.58556 
L 208.605352 293.668879 
L 208.798499 296.241316 
L 208.896305 283.613951 
L 209.090969 296.337141 
L 209.187309 295.811194 
L 209.381036 301.044014 
L 209.575398 294.606713 
L 209.671956 287.28275 
L 209.768926 298.526115 
L 209.865216 283.904412 
L 210.05884 298.315744 
L 210.251606 294.545255 
L 210.445959 276.363696 
L 210.54492 279.704314 
L 210.834164 296.141055 
L 211.027865 299.865391 
L 211.220996 296.550343 
L 211.413751 293.439185 
L 211.512219 287.189554 
L 211.704888 299.61762 
L 211.802212 299.020339 
L 211.901864 300.072097 
L 211.999229 295.312687 
L 212.196594 303.350304 
L 212.390704 296.664059 
L 212.48714 303.793005 
L 212.584988 303.475881 
L 212.683863 304.707916 
L 212.781824 301.41703 
L 212.878978 304.17932 
L 213.072514 300.982001 
L 213.170973 303.496864 
L 213.269534 302.721778 
L 213.370463 302.924964 
L 213.469521 304.756442 
L 213.665378 303.228566 
L 213.761931 300.757172 
L 213.954582 304.074495 
L 214.050894 300.764871 
L 214.148464 301.946644 
L 214.245548 304.698259 
L 214.342309 304.528782 
L 214.440737 302.815834 
L 214.537304 304.665199 
L 214.634757 303.755065 
L 214.731406 304.443109 
L 214.926524 303.533714 
L 215.023288 298.402729 
L 215.122599 299.175505 
L 215.219573 302.937925 
L 215.315925 295.837203 
L 215.412793 302.143786 
L 215.510675 301.066511 
L 215.607604 296.087311 
L 215.704075 303.044027 
L 215.897495 298.002837 
L 215.993903 298.202075 
L 216.090199 301.057638 
L 216.18881 299.586914 
L 216.285954 303.864351 
L 216.382902 300.979736 
L 216.576612 304.258697 
L 216.675331 303.867693 
L 216.783631 304.676579 
L 216.880109 304.347875 
L 217.074511 301.992962 
L 217.171486 302.680034 
L 217.268631 304.235122 
L 217.563753 302.48048 
L 217.660085 302.368832 
L 217.760071 298.94265 
L 217.857813 299.654184 
L 217.957413 299.405038 
L 218.056536 302.041548 
L 218.152893 301.743555 
L 218.347849 299.277789 
L 218.445057 300.814478 
L 218.637774 294.775044 
L 218.841741 302.323031 
L 218.938198 301.641066 
L 219.034715 300.01227 
L 219.132554 300.848987 
L 219.229155 297.504196 
L 219.325894 300.426518 
L 219.422398 292.096943 
L 219.520036 299.083053 
L 219.61718 296.974463 
L 219.716057 300.835993 
L 219.812382 298.704572 
L 219.912577 300.960788 
L 220.008881 297.294242 
L 220.105217 302.028162 
L 220.20162 297.864684 
L 220.297926 298.420403 
L 220.402032 299.785814 
L 220.597222 293.526419 
L 220.693702 302.076525 
L 220.791378 301.261221 
L 220.893368 303.969587 
L 220.990373 303.290152 
L 221.091315 304.806702 
L 221.188073 292.806627 
L 221.38354 304.427486 
L 221.576718 299.841922 
L 221.770089 303.611895 
L 221.870971 303.108148 
L 222.160654 281.80046 
L 222.356086 297.010659 
L 222.552136 302.816944 
L 222.652715 304.814532 
L 222.75239 303.756687 
L 222.851364 295.053964 
L 223.046446 304.967103 
L 223.142954 301.041378 
L 223.23924 302.313531 
L 223.337761 296.196771 
L 223.442903 305.093751 
L 223.541969 302.996843 
L 223.641083 298.41802 
L 223.737453 301.938548 
L 224.027089 292.332813 
L 224.123488 302.569908 
L 224.220123 302.477773 
L 224.318364 301.597373 
L 224.414642 302.127018 
L 224.512936 301.990896 
L 224.609407 302.236789 
L 224.705765 300.379265 
L 224.803574 304.205207 
L 224.90021 304.05717 
L 224.996525 300.245799 
L 225.194378 303.771857 
L 225.296567 301.615147 
L 225.394858 302.218435 
L 225.492601 300.564578 
L 225.589198 302.665344 
L 225.782048 301.480284 
L 225.879456 303.760205 
L 225.975858 302.868256 
L 226.07435 304.46294 
L 226.267891 300.054183 
L 226.364957 301.939362 
L 226.558148 298.231361 
L 226.654505 295.30853 
L 226.750914 283.578585 
L 226.944061 294.881386 
L 227.040399 290.762548 
L 227.136733 299.246879 
L 227.233042 291.093335 
L 227.329445 301.083189 
L 227.522296 296.299248 
L 227.71642 299.984667 
L 227.90906 295.71971 
L 228.005443 301.570381 
L 228.200021 299.490569 
L 228.491857 304.635232 
L 228.59106 299.97513 
L 228.880668 305.185905 
L 228.977213 303.603385 
L 229.17688 294.350239 
L 229.273348 302.554211 
L 229.468587 298.623817 
L 229.566743 299.987003 
L 229.663682 294.294444 
L 229.76161 298.041259 
L 229.860762 291.911136 
L 229.961584 298.278257 
L 230.058247 292.115924 
L 230.348722 295.073252 
L 230.445351 302.835448 
L 230.541682 292.860175 
L 230.638028 293.563078 
L 230.735508 297.051873 
L 231.024978 242.391506 
L 231.219727 247.717415 
L 231.31601 253.560446 
L 231.509886 302.209747 
L 231.606577 302.803905 
L 231.702862 292.396604 
L 231.799485 267.740187 
L 231.996519 303.814293 
L 232.093385 304.924915 
L 232.288571 295.566897 
L 232.384989 300.688228 
L 232.57798 293.827765 
L 232.674975 301.544595 
L 232.771988 300.945574 
L 232.964854 303.211515 
L 233.061885 301.552184 
L 233.158216 295.939797 
L 233.255408 282.148549 
L 233.450233 294.056346 
L 233.546668 295.03813 
L 233.740739 302.738752 
L 233.936908 297.318318 
L 234.130147 304.18351 
L 234.227923 304.614867 
L 234.424655 300.154917 
L 234.618362 304.150989 
L 234.715812 305.152275 
L 234.81476 296.53669 
L 235.011922 303.993412 
L 235.205407 305.13779 
L 235.303476 304.98177 
L 235.400955 305.263059 
L 235.598187 303.459826 
L 235.797216 306.045263 
L 235.99115 306.621754 
L 236.196547 305.415823 
L 236.293407 306.094213 
L 236.390526 305.102588 
L 236.487541 298.798023 
L 236.585874 304.559276 
L 236.685975 304.457318 
L 236.785179 305.620851 
L 236.881991 304.65416 
L 236.979117 305.015861 
L 237.274857 300.871676 
L 237.37444 300.259883 
L 237.472056 298.575914 
L 237.679558 304.869218 
L 237.782103 305.596806 
L 237.878472 303.739172 
L 237.975724 298.217939 
L 238.073001 299.037084 
L 238.268653 304.710625 
L 238.365743 304.63115 
L 238.47214 305.141484 
L 238.568802 299.768863 
L 238.665388 301.810501 
L 238.761707 290.312078 
L 238.955012 303.468694 
L 239.051306 305.036059 
L 239.149255 304.954093 
L 239.343224 305.153061 
L 239.440993 304.763809 
L 239.634787 302.62774 
L 239.831067 299.13638 
L 239.927576 298.896418 
L 240.027333 304.637852 
L 240.220241 298.869937 
L 240.317132 299.78795 
L 240.416213 302.120196 
L 240.514675 300.429703 
L 240.61136 300.46316 
L 240.707967 300.043374 
L 240.8071 297.750384 
L 240.903998 301.973523 
L 241.001663 293.915482 
L 241.098048 304.494843 
L 241.19486 303.569797 
L 241.488107 291.007612 
L 241.584456 291.645787 
L 241.777057 283.036875 
L 241.876387 287.636007 
L 241.97325 298.060461 
L 242.069735 292.313257 
L 242.170334 294.805338 
L 242.268935 303.850711 
L 242.560699 296.7124 
L 242.759108 304.212961 
L 242.855613 304.018222 
L 242.952839 297.55976 
L 243.151104 303.860957 
L 243.348026 299.401844 
L 243.444576 303.803809 
L 243.541213 302.702867 
L 243.638453 304.089316 
L 243.930726 247.479005 
L 244.027084 258.391935 
L 244.123392 300.194822 
L 244.316195 238.057724 
L 244.412682 225.86532 
L 244.703958 304.111878 
L 244.801376 303.77373 
L 244.996406 287.293847 
L 245.189736 302.874157 
L 245.286618 301.302121 
L 245.383109 303.414142 
L 245.486287 302.664737 
L 245.58547 303.336124 
L 245.778923 301.098469 
L 245.878545 304.407671 
L 245.979037 300.604275 
L 246.079393 304.022154 
L 246.176624 302.423764 
L 246.273049 304.065067 
L 246.371071 299.003151 
L 246.568883 302.363062 
L 246.665202 301.926301 
L 246.762525 304.533512 
L 246.862195 304.374362 
L 246.9587 302.836696 
L 247.056945 304.064056 
L 247.153456 302.505025 
L 247.256211 302.804547 
L 247.352547 304.802868 
L 247.449196 303.968976 
L 247.642778 296.492965 
L 247.839047 302.289984 
L 247.935452 302.147661 
L 248.03399 298.052367 
L 248.130697 303.835576 
L 248.420067 299.420714 
L 248.613774 301.143783 
L 248.910675 293.346085 
L 249.009621 300.199014 
L 249.106856 300.117853 
L 249.20585 299.326096 
L 249.302181 296.711613 
L 249.39847 297.337018 
L 249.495215 297.197219 
L 249.592006 293.944705 
L 249.688293 301.709585 
L 249.791124 301.075575 
L 249.888599 297.29176 
L 249.98692 299.498599 
L 250.08352 293.028935 
L 250.276596 298.204019 
L 250.372919 288.685406 
L 250.566536 298.796397 
L 250.760024 283.538223 
L 250.856377 230.680201 
L 251.049438 289.474277 
L 251.145737 274.253561 
L 251.242158 291.466732 
L 251.338951 286.732379 
L 251.531561 302.594045 
L 251.628115 302.936912 
L 251.724487 300.845291 
L 251.823259 303.233282 
L 251.919669 302.086433 
L 252.017171 302.832355 
L 252.113694 300.752429 
L 252.210116 303.389225 
L 252.306487 293.180526 
L 252.402985 301.944149 
L 252.500013 298.686025 
L 252.596427 298.879044 
L 252.692939 297.553308 
L 252.789323 299.000733 
L 252.990098 304.17209 
L 253.089409 304.315911 
L 253.186426 303.718376 
L 253.28329 304.304203 
L 253.382603 292.866405 
L 253.57756 300.921654 
L 253.673838 299.958031 
L 253.964047 283.877785 
L 254.061462 294.863238 
L 254.158067 292.116907 
L 254.256099 292.652831 
L 254.546253 300.081967 
L 254.643153 296.439252 
L 254.739849 282.895665 
L 254.932652 299.048127 
L 255.031602 304.281006 
L 255.12803 301.38698 
L 255.426599 304.044392 
L 255.5229 299.982256 
L 255.620598 302.675979 
L 255.720751 302.49254 
L 255.820038 302.234761 
L 256.014114 303.903869 
L 256.11297 303.42501 
L 256.31142 304.834341 
L 256.504831 302.149489 
L 256.602366 304.30459 
L 256.795391 301.691912 
L 256.988924 305.125777 
L 257.374362 290.031958 
L 257.764721 305.569003 
L 257.861287 305.424448 
L 258.054978 301.545805 
L 258.151331 305.228781 
L 258.248122 292.474854 
L 258.344744 298.834121 
L 258.441085 282.783434 
L 258.538705 300.19049 
L 258.635188 295.358883 
L 258.731486 295.891521 
L 259.023743 286.582679 
L 259.218743 296.504248 
L 259.41494 293.285133 
L 259.607936 289.679253 
L 259.802083 295.046968 
L 259.89969 297.949971 
L 259.998355 293.949192 
L 260.191296 300.675726 
L 260.386104 302.950084 
L 260.579523 296.540447 
L 260.679116 290.659755 
L 260.776572 290.822068 
L 260.875271 257.750712 
L 260.97188 260.86043 
L 261.166215 302.168049 
L 261.262726 302.954092 
L 261.361192 302.931468 
L 261.459331 301.198108 
L 261.555714 303.027777 
L 261.654075 302.426375 
L 261.751111 302.975501 
L 261.847396 302.950948 
L 262.042076 299.941268 
L 262.234708 302.974393 
L 262.334993 302.681073 
L 262.433725 301.67334 
L 262.634216 304.341997 
L 262.829532 302.812438 
L 262.929929 302.575486 
L 263.026537 304.482328 
L 263.123347 301.583077 
L 263.219708 304.016903 
L 263.31767 298.174107 
L 263.414531 300.009818 
L 263.510979 304.613756 
L 263.613578 303.69474 
L 263.710012 301.770922 
L 264.20328 305.377875 
L 264.400554 301.059516 
L 264.499693 306.175055 
L 264.69526 301.974751 
L 264.791872 288.126505 
L 264.889543 304.18907 
L 264.987219 303.859307 
L 265.088123 305.020927 
L 265.18635 300.927728 
L 265.282881 304.838063 
L 265.381811 304.579964 
L 265.478328 302.612329 
L 265.574705 303.957575 
L 265.680495 302.389001 
L 265.780666 303.891671 
L 265.980312 300.921092 
L 266.175168 305.907849 
L 266.275473 304.798733 
L 266.373649 306.637474 
L 266.47116 305.588379 
L 266.567748 300.401893 
L 266.664383 305.41177 
L 267.058646 300.521972 
L 267.251494 291.340125 
L 267.348456 289.808557 
L 267.457314 290.834413 
L 267.65139 301.232265 
L 267.747808 299.874812 
L 267.844563 301.116699 
L 267.941852 290.835599 
L 268.039205 291.014015 
L 268.233355 293.797168 
L 268.32983 282.489337 
L 268.426207 239.521782 
L 268.622798 297.391171 
L 268.72066 292.221626 
L 268.826858 296.547151 
L 268.923521 291.771886 
L 269.019977 294.845125 
L 269.116266 288.787006 
L 269.214183 291.563969 
L 269.406967 284.935796 
L 269.600177 299.774163 
L 269.697262 298.226971 
L 269.795696 298.42811 
L 269.989038 299.323941 
L 270.086391 294.826282 
L 270.182888 302.709648 
L 270.472988 297.920206 
L 270.666679 303.822326 
L 270.76305 300.276492 
L 270.859378 281.443804 
L 271.250164 305.064635 
L 271.641551 298.217874 
L 271.740273 298.439166 
L 271.838078 301.528034 
L 271.935673 294.260278 
L 272.131808 299.781853 
L 272.424483 252.004553 
L 272.713323 61.251519 
L 272.809601 70.704825 
L 272.905973 101.023653 
L 273.002393 302.770964 
L 273.098696 297.570756 
L 273.196633 298.107036 
L 273.292998 304.39487 
L 273.389464 304.357249 
L 273.486169 303.662113 
L 273.582867 288.540623 
L 273.679785 296.835782 
L 273.777427 291.99344 
L 273.874606 298.237505 
L 274.164864 264.59209 
L 274.359277 293.236924 
L 274.554587 298.240836 
L 274.65132 299.843986 
L 274.74844 296.720224 
L 274.844764 282.140561 
L 274.942209 288.784451 
L 275.038653 304.038747 
L 275.135322 299.181734 
L 275.328624 300.586639 
L 275.424985 284.570975 
L 275.617862 298.412742 
L 275.810532 285.123915 
L 275.907446 232.394985 
L 276.197771 288.548118 
L 276.294899 294.098083 
L 276.488379 286.135785 
L 276.584673 287.355763 
L 276.681023 291.634315 
L 276.777556 304.21992 
L 276.873887 302.328873 
L 277.06653 298.703093 
L 277.163984 299.002227 
L 277.261101 298.705814 
L 277.364182 297.942281 
L 277.461439 299.673899 
L 277.559364 291.972035 
L 277.655866 293.008125 
L 277.755684 286.360954 
L 277.852089 295.870959 
L 278.142681 279.363466 
L 278.435873 301.094114 
L 278.628459 290.477074 
L 278.724741 291.630865 
L 278.918106 300.284495 
L 279.014476 295.581297 
L 279.111154 296.858761 
L 279.207673 296.039248 
L 279.401019 304.165775 
L 279.594352 300.99735 
L 279.690849 303.754972 
L 279.884082 300.972114 
L 279.985362 303.392767 
L 280.083499 301.268559 
L 280.180023 302.171396 
L 280.277013 293.762867 
L 280.471383 298.758559 
L 280.569662 298.307726 
L 280.762578 303.518148 
L 280.860224 303.383299 
L 280.956629 300.28959 
L 281.053945 301.326467 
L 281.150618 297.960736 
L 281.246905 298.495736 
L 281.343431 298.156453 
L 281.440023 291.603617 
L 281.635233 300.206192 
L 281.731628 301.793203 
L 281.924613 300.231353 
L 282.221492 304.588486 
L 282.318445 306.388172 
L 282.612878 298.935081 
L 282.805744 297.459121 
L 282.902427 290.621857 
L 283.095048 300.498817 
L 283.192913 301.340856 
L 283.289415 303.561425 
L 283.38666 300.7988 
L 283.484774 302.60773 
L 283.582553 302.073581 
L 283.681591 303.482782 
L 283.780823 301.04735 
L 283.975747 304.655418 
L 284.072435 305.144149 
L 284.267135 301.805508 
L 284.462218 305.56823 
L 284.560118 299.962197 
L 284.656617 303.592972 
L 284.753549 301.523824 
L 284.851143 302.474201 
L 285.044357 298.303349 
L 285.14154 304.649378 
L 285.237823 304.093087 
L 285.3345 295.547583 
L 285.431903 296.481078 
L 285.528231 302.482867 
L 285.624808 301.799738 
L 285.818067 303.050777 
L 285.919784 302.140984 
L 286.017407 299.762087 
L 286.114233 304.374059 
L 286.21185 289.171283 
L 286.406757 296.597472 
L 286.705031 303.467188 
L 286.802853 301.117018 
L 286.899376 302.252562 
L 286.996262 299.194215 
L 287.09268 301.256619 
L 287.194101 299.432879 
L 287.290515 289.169157 
L 287.483345 299.917758 
L 287.580498 300.940092 
L 287.678001 297.081003 
L 287.775643 298.368582 
L 287.871929 303.022521 
L 287.969048 297.435484 
L 288.065494 299.246655 
L 288.16198 295.383424 
L 288.259019 295.453026 
L 288.452218 300.594522 
L 288.548517 299.646644 
L 288.650238 303.097945 
L 288.940148 300.345269 
L 289.036646 297.511936 
L 289.229595 302.900253 
L 289.327695 299.836816 
L 289.520291 278.51713 
L 289.809381 295.476772 
L 289.905887 297.293417 
L 290.002712 302.698402 
L 290.292508 290.573858 
L 290.390191 271.908538 
L 290.583198 304.340878 
L 290.679934 304.996551 
L 290.776875 303.330891 
L 290.873341 304.462108 
L 291.066772 302.549567 
L 291.168823 303.056809 
L 291.265576 300.223668 
L 291.362132 289.73248 
L 291.458871 291.964688 
L 291.555407 291.453488 
L 291.748728 301.524141 
L 291.845099 304.719723 
L 291.942169 303.49451 
L 292.135191 296.50169 
L 292.523362 304.847784 
L 292.619716 305.35262 
L 292.716154 305.08048 
L 292.812466 302.305565 
L 292.908746 303.392965 
L 293.101618 298.958209 
L 293.1984 279.686692 
L 293.296343 294.17065 
L 293.392652 287.476649 
L 293.586429 303.878963 
L 293.682755 299.140186 
L 293.779204 302.144618 
L 294.069821 290.238714 
L 294.16622 284.778816 
L 294.360688 300.341761 
L 294.65182 303.423246 
L 294.748192 304.39746 
L 294.844549 293.091485 
L 295.037465 301.476997 
L 295.231941 293.051321 
L 295.329787 302.882721 
L 295.426221 299.007757 
L 295.619047 300.68054 
L 295.715409 304.812707 
L 295.811807 303.234273 
L 295.915325 304.476369 
L 296.108113 299.819829 
L 296.207067 301.92552 
L 296.303533 298.222106 
L 296.40061 299.062024 
L 296.496917 292.160327 
L 296.794969 302.115923 
L 297.088634 295.476786 
L 297.186636 302.404667 
L 297.381395 298.862612 
L 297.478924 299.486957 
L 297.575203 302.086794 
L 297.671743 294.206571 
L 297.768359 297.486584 
L 297.865943 294.607167 
L 298.061311 304.875307 
L 298.157927 303.062705 
L 298.25878 305.150326 
L 298.355505 305.111862 
L 298.452417 304.397066 
L 298.645117 300.270129 
L 298.741427 299.385986 
L 299.031647 306.467991 
L 299.127946 305.693709 
L 299.227893 305.813355 
L 299.325415 303.623123 
L 299.423757 303.877054 
L 299.52098 305.649736 
L 299.619319 301.72639 
L 299.717427 305.901769 
L 299.819899 302.489766 
L 300.217394 305.902035 
L 300.315174 303.507767 
L 300.415596 304.556189 
L 300.513981 300.397943 
L 300.610557 301.427798 
L 300.708886 292.488002 
L 300.805192 302.054585 
L 300.902442 294.130984 
L 300.998989 298.773123 
L 301.095827 293.845782 
L 301.195175 302.420008 
L 301.291918 298.8063 
L 301.388829 301.461116 
L 301.487487 298.50381 
L 301.680187 301.113774 
L 301.776902 296.91298 
L 301.878714 299.253383 
L 301.9754 285.503853 
L 302.071963 295.99279 
L 302.168542 272.187609 
L 302.264829 285.654722 
L 302.457763 231.490177 
L 302.554088 225.277184 
L 302.752833 260.359636 
L 302.849119 248.228546 
L 303.042129 297.94976 
L 303.235362 296.648062 
L 303.428187 292.939937 
L 303.524739 294.012605 
L 303.621893 289.227286 
L 303.918323 297.473593 
L 304.01527 294.047231 
L 304.115139 298.701158 
L 304.211434 298.552894 
L 304.307729 300.243446 
L 304.404269 299.644836 
L 304.597878 292.848989 
L 304.694544 291.182242 
L 304.791443 294.396344 
L 304.88831 289.117894 
L 304.98512 301.841523 
L 305.081575 301.406816 
L 305.178256 297.836113 
L 305.27486 298.878618 
L 305.468212 295.96078 
L 305.66252 299.441209 
L 305.758877 304.444451 
L 306.048124 295.539229 
L 306.144442 297.228473 
L 306.241014 293.837667 
L 306.433883 284.678989 
L 306.530301 293.826923 
L 306.626584 292.605744 
L 306.723067 293.292088 
L 306.819627 298.553702 
L 306.916332 296.376616 
L 307.012764 288.098826 
L 307.205529 294.779321 
L 307.302076 293.539593 
L 307.398416 294.176803 
L 307.59117 288.628827 
L 307.687458 292.884069 
L 307.783799 285.899237 
L 307.880149 290.33072 
L 308.265659 267.769109 
L 308.362137 257.097103 
L 308.554965 295.093907 
L 308.651421 289.696521 
L 308.844397 297.992889 
L 308.940968 277.737932 
L 309.136766 298.626462 
L 309.233093 298.683667 
L 309.329507 295.460248 
L 309.426652 286.229126 
L 309.523007 290.853819 
L 309.621135 287.23784 
L 309.813993 298.186821 
L 309.911492 298.146921 
L 310.104824 292.940321 
L 310.297576 294.312014 
L 310.394382 299.431273 
L 310.687877 293.975252 
L 310.784242 276.941797 
L 310.880642 295.681598 
L 310.977114 286.58041 
L 311.07345 291.997915 
L 311.171641 288.437928 
L 311.365813 295.871586 
L 311.46235 296.277796 
L 311.559518 294.931093 
L 311.656225 289.695433 
L 311.758003 299.336074 
L 311.857716 298.359738 
L 311.954237 302.583955 
L 312.148096 296.809655 
L 312.24535 297.483818 
L 312.347523 301.373521 
L 312.637259 283.22433 
L 312.734476 285.345345 
L 312.830895 284.287186 
L 313.026891 296.609124 
L 313.220262 294.639769 
L 313.413517 297.365657 
L 313.509961 298.90991 
L 313.703941 282.415201 
L 313.80031 286.986144 
L 313.993421 295.34676 
L 314.187482 292.217256 
L 314.284638 301.423279 
L 314.478162 289.674464 
L 314.57492 291.186702 
L 314.672363 286.875058 
L 314.768711 292.11554 
L 314.96138 262.925893 
L 315.058548 296.295517 
L 315.154878 290.024754 
L 315.453986 301.742825 
L 315.647961 298.967275 
L 315.744768 301.404129 
L 315.841091 300.418273 
L 315.93744 292.014208 
L 316.034055 299.275844 
L 316.227559 290.11602 
L 316.324468 291.306972 
L 316.422449 290.502133 
L 316.615266 299.609632 
L 316.711824 299.110087 
L 316.905751 288.463315 
L 317.099909 296.054924 
L 317.19639 294.525016 
L 317.389965 300.378437 
L 317.486381 299.54892 
L 317.582794 284.105487 
L 317.679081 296.266628 
L 317.775377 286.551664 
L 317.872445 294.850305 
L 317.969054 292.476273 
L 318.066335 285.28434 
L 318.163356 291.916531 
L 318.259715 289.6017 
L 318.35608 291.299986 
L 318.552241 300.783531 
L 318.745416 298.464644 
L 318.841753 296.400067 
L 319.133916 299.066563 
L 319.230307 295.15423 
L 319.32681 299.149813 
L 319.423574 297.178174 
L 319.520016 286.160317 
L 319.71359 295.951197 
L 319.810045 295.85799 
L 320.003015 296.44244 
L 320.099415 292.852919 
L 320.19582 294.639544 
L 320.292276 299.043569 
L 320.388601 296.79159 
L 320.485035 299.218629 
L 320.581373 295.017273 
L 320.677677 296.62684 
L 320.774007 295.601487 
L 320.870637 297.049606 
L 321.063797 288.268836 
L 321.160313 275.661235 
L 321.354055 295.3899 
L 321.451025 293.054997 
L 321.547465 290.694241 
L 321.643748 292.783653 
L 321.740153 263.555441 
L 322.127125 295.629824 
L 322.319775 298.241697 
L 322.416245 301.327835 
L 322.512663 297.352148 
L 322.608986 288.285769 
L 322.707436 289.088631 
L 322.803805 295.495378 
L 322.900083 284.511053 
L 323.093377 297.127299 
L 323.189657 295.906827 
L 323.385786 301.308755 
L 323.4821 296.953641 
L 323.579715 298.529747 
L 323.676016 295.89769 
L 323.773056 295.993248 
L 323.869409 295.95762 
L 323.96577 299.944975 
L 324.160781 297.436263 
L 324.263242 300.93203 
L 324.359918 299.431755 
L 324.456258 300.009515 
L 324.552747 298.640627 
L 324.649409 300.54518 
L 324.746887 296.154976 
L 324.843514 297.90242 
L 324.939809 288.008574 
L 325.036328 295.41551 
L 325.132632 291.187027 
L 325.228914 280.188119 
L 325.325331 297.631413 
L 325.42176 296.614777 
L 325.518329 299.120057 
L 325.614788 295.792396 
L 325.711078 301.422171 
L 325.80772 300.205662 
L 326.001554 291.05448 
L 326.097977 286.870079 
L 326.195952 276.391453 
L 326.390162 294.660764 
L 326.587252 296.711573 
L 326.684477 295.041681 
L 326.877759 298.967048 
L 326.974361 297.423291 
L 327.07074 293.203522 
L 327.264146 300.31601 
L 327.360766 296.262353 
L 327.463384 301.71118 
L 327.560199 299.976994 
L 327.753454 288.429637 
L 327.947879 300.552548 
L 328.14275 295.014734 
L 328.336804 282.08111 
L 328.532578 300.987314 
L 328.629026 300.818313 
L 328.725337 300.877647 
L 328.823134 288.811614 
L 328.925207 302.744052 
L 329.023167 301.155506 
L 329.217717 303.755008 
L 329.317092 269.107607 
L 329.41378 295.892917 
L 329.510707 291.909591 
L 329.713697 302.22028 
L 329.810778 301.331063 
L 330.004003 297.464333 
L 330.100622 297.484525 
L 330.294249 299.819692 
L 330.390817 297.126279 
L 330.487452 299.499006 
L 330.583928 293.94585 
L 330.780205 300.730356 
L 330.876506 300.41378 
L 330.976198 298.73781 
L 331.072588 300.406178 
L 331.17092 291.134813 
L 331.271934 300.673162 
L 331.465225 297.333636 
L 331.755947 301.079526 
L 331.853008 303.384656 
L 331.951574 302.716841 
L 332.146085 300.199433 
L 332.242436 289.326024 
L 332.440918 302.782557 
L 332.537255 302.263719 
L 332.634314 291.789024 
L 332.828692 301.928747 
L 332.927591 299.15279 
L 333.024333 299.321309 
L 333.120664 297.548699 
L 333.315465 300.991845 
L 333.411889 301.170775 
L 333.508421 285.067974 
L 333.607961 300.375636 
L 333.705614 298.614852 
L 333.802022 295.473714 
L 333.997596 303.196046 
L 334.095164 301.377376 
L 334.191587 293.477108 
L 334.287962 300.661805 
L 334.384358 284.387219 
L 334.4822 300.727254 
L 334.578672 299.737954 
L 334.675092 300.109316 
L 334.774026 299.778893 
L 334.871312 301.952433 
L 334.97086 300.435882 
L 335.067421 285.94914 
L 335.164994 301.443184 
L 335.262432 299.455952 
L 335.359072 297.255653 
L 335.455432 300.402129 
L 335.552089 295.761922 
L 335.940233 300.474836 
L 336.03686 298.240044 
L 336.229575 263.80237 
L 336.329107 292.821553 
L 336.425864 291.394311 
L 336.620996 296.682343 
L 336.717333 292.077791 
L 336.813838 294.29953 
L 336.911139 294.173732 
L 337.007429 281.786964 
L 337.105886 296.860859 
L 337.300229 293.008567 
L 337.399958 295.735038 
L 337.496253 295.428152 
L 337.592623 291.903775 
L 337.688989 293.727071 
L 337.882567 289.080898 
L 337.978855 293.505602 
L 338.075229 291.09656 
L 338.173203 293.046905 
L 338.269621 291.512539 
L 338.365988 284.833974 
L 338.462868 287.007404 
L 338.657026 295.952471 
L 338.753305 291.58491 
L 338.947349 297.71574 
L 339.044102 296.794462 
L 339.236933 299.443502 
L 339.429982 297.871509 
L 339.624615 288.987606 
L 339.721102 301.637899 
L 339.818176 298.587746 
L 339.915632 299.252508 
L 340.012513 298.581052 
L 340.110827 296.390373 
L 340.503341 301.753306 
L 340.600061 299.90577 
L 340.696363 300.892876 
L 340.793643 300.78655 
L 340.890023 289.85263 
L 340.986398 297.265779 
L 341.084928 296.716264 
L 341.181465 292.583829 
L 341.278008 292.746647 
L 341.37494 293.473922 
L 341.570122 298.549137 
L 341.667478 299.646485 
L 341.764078 297.684555 
L 342.054073 301.739987 
L 342.247787 285.652994 
L 342.444338 298.419906 
L 342.636927 290.84436 
L 342.733229 284.362694 
L 342.82959 296.923347 
L 343.023051 292.739422 
L 343.119703 297.139822 
L 343.216127 296.76397 
L 343.4111 290.955532 
L 343.507456 271.266134 
L 343.604143 276.780758 
L 343.700524 294.655308 
L 343.796805 281.120174 
L 343.893969 289.594482 
L 343.991388 285.089591 
L 344.18557 286.988203 
L 344.283338 301.492587 
L 344.573997 292.071742 
L 344.67042 290.860881 
L 344.767279 294.4312 
L 344.86523 289.501559 
L 344.961868 289.897883 
L 345.154973 295.533944 
L 345.251721 295.760252 
L 345.348005 291.97874 
L 345.445546 296.178207 
L 345.640861 292.486628 
L 345.737868 294.277007 
L 345.834277 292.764155 
L 345.935428 293.024966 
L 346.133164 297.856847 
L 346.229718 298.218926 
L 346.327559 295.702114 
L 346.520399 298.743942 
L 346.713235 285.650688 
L 346.906159 299.28441 
L 347.002467 300.008226 
L 347.098893 297.905123 
L 347.291765 300.720607 
L 347.388904 298.828124 
L 347.485192 294.243526 
L 347.683065 301.637122 
L 347.779531 300.02711 
L 347.876264 295.716793 
L 347.972708 295.881631 
L 348.069075 299.52008 
L 348.358453 294.085825 
L 348.454782 300.268144 
L 348.551124 300.262393 
L 348.647616 293.198026 
L 348.743966 297.955099 
L 348.936604 291.510385 
L 349.033006 289.908543 
L 349.129288 295.962687 
L 349.225778 288.836672 
L 349.322222 294.246519 
L 349.418583 285.661096 
L 349.515812 293.336227 
L 349.613234 285.30033 
L 349.806405 299.162409 
L 349.902687 299.841804 
L 349.999693 301.337299 
L 350.096253 300.728094 
L 350.192846 301.627495 
L 350.289137 292.726251 
L 350.385932 292.752316 
L 350.48229 297.393279 
L 350.675121 291.6732 
L 350.771419 299.345527 
L 350.86826 294.481666 
L 350.964731 297.807949 
L 351.061061 297.638423 
L 351.160869 299.814942 
L 351.257633 293.937202 
L 351.450675 300.243429 
L 351.6452 263.623957 
L 351.742531 298.89637 
L 351.842788 296.172754 
L 351.939339 298.102345 
L 352.036548 294.260515 
L 352.136608 297.194827 
L 352.232918 293.040006 
L 352.329208 294.351853 
L 352.426756 294.303129 
L 352.619404 284.802144 
L 352.715763 291.08608 
L 352.812178 280.613299 
L 352.908489 297.618742 
L 353.00483 297.291892 
L 353.101135 297.952604 
L 353.197525 299.513982 
L 353.29399 298.74883 
L 353.391398 296.038214 
L 353.487699 296.575293 
L 353.584136 299.999645 
L 353.68048 297.117349 
L 353.77969 299.856577 
L 354.16682 288.508648 
L 354.263742 295.770351 
L 354.456448 289.69271 
L 354.552729 294.851582 
L 354.649558 293.336711 
L 354.745915 278.549675 
L 354.948217 300.620512 
L 355.045142 299.070111 
L 355.143869 301.256291 
L 355.338449 296.802501 
L 355.434967 294.246504 
L 355.53126 295.06983 
L 355.627618 291.095788 
L 355.725838 291.708869 
L 355.822695 293.077261 
L 356.015567 300.112063 
L 356.113552 297.772229 
L 356.211733 298.248501 
L 356.30859 296.180454 
L 356.501233 301.815046 
L 356.597524 300.893561 
L 356.693836 295.426971 
L 356.891078 298.48342 
L 356.987827 294.948507 
L 357.181222 296.804858 
L 357.37401 296.240045 
L 357.472916 299.55138 
L 357.570075 296.306782 
L 357.764104 298.253411 
L 357.86159 296.752333 
L 357.957934 297.417687 
L 358.054679 299.428168 
L 358.247603 289.715525 
L 358.444024 302.488839 
L 358.637803 291.901648 
L 358.734363 295.168564 
L 358.831282 291.640289 
L 358.927703 295.790322 
L 359.024693 293.17815 
L 359.121061 297.369044 
L 359.217752 294.316164 
L 359.411926 297.255996 
L 359.701035 285.404855 
L 359.893787 290.860298 
L 359.99058 294.828149 
L 360.086911 293.132215 
L 360.378035 301.853301 
L 360.474615 298.502162 
L 360.571082 302.328636 
L 360.667813 300.901158 
L 360.767157 295.605598 
L 360.865949 301.873122 
L 361.058956 295.803964 
L 361.158645 298.592196 
L 361.254999 297.22686 
L 361.353628 301.516215 
L 361.449909 294.425377 
L 361.546287 294.449537 
L 361.739924 299.189009 
L 361.836654 290.21038 
L 362.032973 302.131664 
L 362.228775 298.321428 
L 362.325439 289.102409 
L 362.520823 302.219906 
L 362.620409 302.594075 
L 362.717018 302.52543 
L 362.813326 302.647955 
L 363.105849 292.85686 
L 363.397217 301.848051 
L 363.493765 300.49674 
L 363.686741 289.315994 
L 363.783318 299.644471 
L 363.981084 293.464769 
L 364.173834 298.895217 
L 364.270119 299.111332 
L 364.366496 281.867487 
L 364.462965 294.339471 
L 364.65822 279.253621 
L 364.754699 301.288822 
L 364.853413 299.783837 
L 365.046249 289.374763 
L 365.143914 297.473995 
L 365.240995 294.017568 
L 365.338012 296.751335 
L 365.531817 295.67503 
L 365.628296 295.963769 
L 365.829364 302.253144 
L 366.119169 292.925054 
L 366.215622 301.335628 
L 366.411463 297.565134 
L 366.508776 300.592325 
L 366.702761 294.642275 
L 366.799128 278.883489 
L 366.895424 286.700718 
L 366.991711 279.622428 
L 367.187226 297.531812 
L 367.283767 293.963131 
L 367.380537 295.322545 
L 367.476989 282.621404 
L 367.671961 301.31833 
L 367.768459 301.329307 
L 367.961567 294.338414 
L 368.058246 301.119223 
L 368.154651 294.259644 
L 368.348244 299.378941 
L 368.444633 300.166074 
L 368.54106 298.963575 
L 368.637492 300.93311 
L 368.734053 298.793402 
L 368.926831 286.856549 
L 369.121891 299.048046 
L 369.218487 293.403728 
L 369.316483 294.136875 
L 369.413802 297.861218 
L 369.606568 291.543981 
L 369.703641 294.836639 
L 369.896261 273.07063 
L 370.088851 288.759669 
L 370.185307 276.820316 
L 370.377915 293.444813 
L 370.474551 295.041869 
L 370.765118 289.59414 
L 370.861555 295.752528 
L 370.957912 290.716479 
L 371.054499 297.653897 
L 371.150876 295.228221 
L 371.247422 286.877218 
L 371.44088 300.341659 
L 371.537166 300.178709 
L 371.634926 295.187015 
L 371.732329 297.635386 
L 371.829615 297.035679 
L 371.927329 298.12234 
L 372.02403 294.086172 
L 372.123324 299.645315 
L 372.22036 298.780266 
L 372.316965 299.027894 
L 372.41371 299.913212 
L 372.606384 289.326072 
L 372.703349 282.932182 
L 372.799653 294.29207 
L 372.896039 291.445929 
L 372.99233 299.617455 
L 373.090703 299.085797 
L 373.18713 301.000213 
L 373.284765 297.292757 
L 373.477978 300.191883 
L 373.577156 299.678627 
L 373.770141 303.623874 
L 373.963059 299.902286 
L 374.064414 299.742278 
L 374.161281 302.090795 
L 374.25783 301.339969 
L 374.451428 296.044195 
L 374.547967 278.63106 
L 374.748441 303.186327 
L 374.84473 300.051304 
L 374.943052 301.535631 
L 375.039812 298.837972 
L 375.136468 299.206262 
L 375.337942 303.919286 
L 375.534657 302.946414 
L 375.631001 298.095662 
L 375.727637 300.548613 
L 375.824988 296.372837 
L 375.921725 297.724208 
L 376.116609 293.697383 
L 376.310534 301.788506 
L 376.408028 300.377614 
L 376.504314 293.895031 
L 376.601379 302.777259 
L 376.697932 298.238066 
L 376.79427 303.34723 
L 376.89705 302.940823 
L 376.995161 292.300982 
L 377.188482 300.845546 
L 377.291081 304.2453 
L 377.484008 300.584099 
L 377.580837 299.478289 
L 377.677964 293.398939 
L 377.871355 303.535614 
L 377.972358 301.429774 
L 378.069682 302.146144 
L 378.170107 300.141799 
L 378.462931 304.602175 
L 378.559302 301.169614 
L 378.656478 303.719063 
L 378.849366 298.345408 
L 378.950443 301.964818 
L 379.240913 292.496161 
L 379.435106 302.781436 
L 379.532402 299.833888 
L 379.628758 291.779505 
L 379.725102 302.569351 
L 379.919982 229.983222 
L 380.016264 234.941065 
L 380.112584 234.570731 
L 380.408689 302.856393 
L 380.505139 294.481461 
L 380.700489 300.435814 
L 380.893329 294.962803 
L 380.989678 301.00611 
L 381.088391 299.308321 
L 381.185224 301.22095 
L 381.281595 300.964892 
L 381.479929 290.743286 
L 381.673015 303.578593 
L 381.769772 301.380998 
L 381.86669 302.861297 
L 381.963188 302.042944 
L 382.254235 290.50114 
L 382.452301 301.009658 
L 382.548829 299.947094 
L 382.645294 288.63262 
L 382.742403 295.380084 
L 382.838804 292.986283 
L 382.935168 294.438306 
L 383.128055 284.955248 
L 383.417596 301.921493 
L 383.513959 297.622666 
L 383.612964 303.830976 
L 383.709366 296.28668 
L 384.003692 302.200796 
L 384.100607 300.799547 
L 384.198594 288.821951 
L 384.392633 299.217388 
L 384.489825 302.687795 
L 384.683495 294.167554 
L 384.880262 304.481927 
L 384.977639 303.655656 
L 385.272024 292.367087 
L 385.467406 298.24173 
L 385.563798 299.256675 
L 385.660115 297.568842 
L 385.758516 302.570045 
L 385.857581 300.572146 
L 385.956223 304.791219 
L 386.052529 301.814002 
L 386.148974 302.697494 
L 386.245273 288.513494 
L 386.439452 301.881942 
L 386.536137 302.676136 
L 386.825262 298.79978 
L 386.923661 302.61519 
L 387.021118 301.111191 
L 387.117487 295.45442 
L 387.21385 299.75906 
L 387.410793 295.291778 
L 387.514199 303.087698 
L 387.707106 293.984882 
L 387.803664 295.820971 
L 387.9002 293.823886 
L 387.996481 299.998187 
L 388.19005 297.763807 
L 388.288951 301.650074 
L 388.482895 296.246718 
L 388.579544 301.360527 
L 388.870932 278.363207 
L 389.064075 297.202955 
L 389.257172 303.659256 
L 389.356834 300.680176 
L 389.455428 303.542525 
L 389.554306 285.230472 
L 389.946269 301.114843 
L 390.334577 288.305736 
L 390.527714 303.493422 
L 390.913661 279.000293 
L 391.010143 297.094497 
L 391.106433 292.183148 
L 391.203751 298.918667 
L 391.300079 298.448213 
L 391.396865 299.506045 
L 391.494383 299.440978 
L 391.88117 285.175131 
L 391.977682 296.852685 
L 392.074072 292.954791 
L 392.17095 294.620924 
L 392.26726 275.742929 
L 392.461526 291.466345 
L 392.558319 301.058823 
L 392.654713 300.442762 
L 392.849496 285.968925 
L 392.946534 293.438694 
L 393.045271 289.174115 
L 393.141602 295.847588 
L 393.238176 278.473321 
L 393.334472 296.024446 
L 393.430864 291.498336 
L 393.627127 301.849062 
L 393.725584 302.48747 
L 393.822355 302.336592 
L 394.113924 296.072271 
L 394.210242 276.944951 
L 394.306613 293.693623 
L 394.501416 285.358783 
L 394.601162 298.81116 
L 394.795107 272.885854 
L 394.891435 249.037716 
L 395.187617 273.893991 
L 395.283927 270.503038 
L 395.478082 285.998216 
L 395.674869 289.367976 
L 395.771201 297.328979 
L 395.867486 277.358827 
L 396.060289 297.024443 
L 396.349492 276.142446 
L 396.447815 271.933359 
L 396.641074 296.376632 
L 396.740116 298.014448 
L 396.83646 294.396927 
L 396.934598 285.116342 
L 397.031127 263.538921 
L 397.229207 293.449938 
L 397.421841 298.52539 
L 397.713523 292.910823 
L 397.907188 292.446 
L 398.003599 285.485143 
L 398.196716 292.268838 
L 398.293762 292.254142 
L 398.487273 238.738086 
L 398.487273 238.738086 
" clip-path="url(#pf3644e3e29)" style="fill: none; stroke: #1f77b4; stroke-width: 1.5; stroke-linecap: square"/>
   </g>
   <g id="patch_3">
    <path d="M 57.6 307.584 
L 57.6 41.472 
" style="fill: none; stroke: #000000; stroke-width: 0.8; stroke-linejoin: miter; stroke-linecap: square"/>
   </g>
   <g id="patch_4">
    <path d="M 414.72 307.584 
L 414.72 41.472 
" style="fill: none; stroke: #000000; stroke-width: 0.8; stroke-linejoin: miter; stroke-linecap: square"/>
   </g>
   <g id="patch_5">
    <path d="M 57.6 307.584 
L 414.72 307.584 
" style="fill: none; stroke: #000000; stroke-width: 0.8; stroke-linejoin: miter; stroke-linecap: square"/>
   </g>
   <g id="patch_6">
    <path d="M 57.6 41.472 
L 414.72 41.472 
" style="fill: none; stroke: #000000; stroke-width: 0.8; stroke-linejoin: miter; stroke-linecap: square"/>
   </g>
   <g id="text_18">
    <!-- pt2 link speed per 100ms -->
    <g transform="translate(159.425625 35.472)scale(0.12 -0.12)">
     <defs>
      <path id="DejaVuSans-20" transform="scale(0.015625)"/>
      <path id="DejaVuSans-6c" d="M 603 4863 
L 1178 4863 
L 1178 0 
L 603 0 
L 603 4863 
z
" transform="scale(0.015625)"/>
      <path id="DejaVuSans-6e" d="M 3513 2113 
L 3513 0 
L 2938 0 
L 2938 2094 
Q 2938 2591 2744 2837 
Q 2550 3084 2163 3084 
Q 1697 3084 1428 2787 
Q 1159 2491 1159 1978 
L 1159 0 
L 581 0 
L 581 3500 
L 1159 3500 
L 1159 2956 
Q 1366 3272 1645 3428 
Q 1925 3584 2291 3584 
Q 2894 3584 3203 3211 
Q 3513 2838 3513 2113 
z
" transform="scale(0.015625)"/>
      <path id="DejaVuSans-6b" d="M 581 4863 
L 1159 4863 
L 1159 1991 
L 2875 3500 
L 3609 3500 
L 1753 1863 
L 3688 0 
L 2938 0 
L 1159 1709 
L 1159 0 
L 581 0 
L 581 4863 
z
" transform="scale(0.015625)"/>
      <path id="DejaVuSans-64" d="M 2906 2969 
L 2906 4863 
L 3481 4863 
L 3481 0 
L 2906 0 
L 2906 525 
Q 2725 213 2448 61 
Q 2172 -91 1784 -91 
Q 1150 -91 751 415 
Q 353 922 353 1747 
Q 353 2572 751 3078 
Q 1150 3584 1784 3584 
Q 2172 3584 2448 3432 
Q 2725 3281 2906 2969 
z
M 947 1747 
Q 947 1113 1208 752 
Q 1469 391 1925 391 
Q 2381 391 2643 752 
Q 2906 1113 2906 1747 
Q 2906 2381 2643 2742 
Q 2381 3103 1925 3103 
Q 1469 3103 1208 2742 
Q 947 2381 947 1747 
z
" transform="scale(0.015625)"/>
      <path id="DejaVuSans-72" d="M 2631 2963 
Q 2534 3019 2420 3045 
Q 2306 3072 2169 3072 
Q 1681 3072 1420 2755 
Q 1159 2438 1159 1844 
L 1159 0 
L 581 0 
L 581 3500 
L 1159 3500 
L 1159 2956 
Q 1341 3275 1631 3429 
Q 1922 3584 2338 3584 
Q 2397 3584 2469 3576 
Q 2541 3569 2628 3553 
L 2631 2963 
z
" transform="scale(0.015625)"/>
     </defs>
     <use xlink:href="#DejaVuSans-70"/>
     <use xlink:href="#DejaVuSans-74" x="63.476562"/>
     <use xlink:href="#DejaVuSans-32" x="102.685547"/>
     <use xlink:href="#DejaVuSans-20" x="166.308594"/>
     <use xlink:href="#DejaVuSans-6c" x="198.095703"/>
     <use xlink:href="#DejaVuSans-69" x="225.878906"/>
     <use xlink:href="#DejaVuSans-6e" x="253.662109"/>
     <use xlink:href="#DejaVuSans-6b" x="317.041016"/>
     <use xlink:href="#DejaVuSans-20" x="374.951172"/>
     <use xlink:href="#DejaVuSans-73" x="406.738281"/>
     <use xlink:href="#DejaVuSans-70" x="458.837891"/>
     <use xlink:href="#DejaVuSans-65" x="522.314453"/>
     <use xlink:href="#DejaVuSans-65" x="583.837891"/>
     <use xlink:href="#DejaVuSans-64" x="645.361328"/>
     <use xlink:href="#DejaVuSans-20" x="708.837891"/>
     <use xlink:href="#DejaVuSans-70" x="740.625"/>
     <use xlink:href="#DejaVuSans-65" x="804.101562"/>
     <use xlink:href="#DejaVuSans-72" x="865.625"/>
     <use xlink:href="#DejaVuSans-20" x="906.738281"/>
     <use xlink:href="#DejaVuSans-31" x="938.525391"/>
     <use xlink:href="#DejaVuSans-30" x="1002.148438"/>
     <use xlink:href="#DejaVuSans-30" x="1065.771484"/>
     <use xlink:href="#DejaVuSans-6d" x="1129.394531"/>
     <use xlink:href="#DejaVuSans-73" x="1226.806641"/>
    </g>
   </g>
  </g>
 </g>
 <defs>
  <clipPath id="pf3644e3e29">
   <rect x="57.6" y="41.472" width="357.12" height="266.112"/>
  </clipPath>
 </defs>
</svg>
