<?xml version="1.0" encoding="utf-8" standalone="no"?>
<!DOCTYPE svg PUBLIC "-//W3C//DTD SVG 1.1//EN"
  "http://www.w3.org/Graphics/SVG/1.1/DTD/svg11.dtd">
<svg xmlns:xlink="http://www.w3.org/1999/xlink" width="460.8pt" height="345.6pt" viewBox="0 0 460.8 345.6" xmlns="http://www.w3.org/2000/svg" version="1.1">
 <metadata>
  <rdf:RDF xmlns:dc="http://purl.org/dc/elements/1.1/" xmlns:cc="http://creativecommons.org/ns#" xmlns:rdf="http://www.w3.org/1999/02/22-rdf-syntax-ns#">
   <cc:Work>
    <dc:type rdf:resource="http://purl.org/dc/dcmitype/StillImage"/>
    <dc:date>2022-07-10T09:30:04.761792</dc:date>
    <dc:format>image/svg+xml</dc:format>
    <dc:creator>
     <cc:Agent>
      <dc:title>Matplotlib v3.5.2, https://matplotlib.org/</dc:title>
     </cc:Agent>
    </dc:creator>
   </cc:Work>
  </rdf:RDF>
 </metadata>
 <defs>
  <style type="text/css">*{stroke-linejoin: round; stroke-linecap: butt}</style>
 </defs>
 <g id="figure_1">
  <g id="patch_1">
   <path d="M 0 345.6 
L 460.8 345.6 
L 460.8 0 
L 0 0 
z
" style="fill: #ffffff"/>
  </g>
  <g id="axes_1">
   <g id="patch_2">
    <path d="M 57.6 307.584 
L 414.72 307.584 
L 414.72 41.472 
L 57.6 41.472 
z
" style="fill: #ffffff"/>
   </g>
   <g id="matplotlib.axis_1">
    <g id="xtick_1">
     <g id="line2d_1">
      <defs>
       <path id="me42aac0501" d="M 0 0 
L 0 3.5 
" style="stroke: #000000; stroke-width: 0.8"/>
      </defs>
      <g>
       <use xlink:href="#me42aac0501" x="73.224666" y="307.584" style="stroke: #000000; stroke-width: 0.8"/>
      </g>
     </g>
     <g id="text_1">
      <!-- 0 -->
      <g transform="translate(70.043416 322.182437)scale(0.1 -0.1)">
       <defs>
        <path id="DejaVuSans-30" d="M 2034 4250 
Q 1547 4250 1301 3770 
Q 1056 3291 1056 2328 
Q 1056 1369 1301 889 
Q 1547 409 2034 409 
Q 2525 409 2770 889 
Q 3016 1369 3016 2328 
Q 3016 3291 2770 3770 
Q 2525 4250 2034 4250 
z
M 2034 4750 
Q 2819 4750 3233 4129 
Q 3647 3509 3647 2328 
Q 3647 1150 3233 529 
Q 2819 -91 2034 -91 
Q 1250 -91 836 529 
Q 422 1150 422 2328 
Q 422 3509 836 4129 
Q 1250 4750 2034 4750 
z
" transform="scale(0.015625)"/>
       </defs>
       <use xlink:href="#DejaVuSans-30"/>
      </g>
     </g>
    </g>
    <g id="xtick_2">
     <g id="line2d_2">
      <g>
       <use xlink:href="#me42aac0501" x="133.980386" y="307.584" style="stroke: #000000; stroke-width: 0.8"/>
      </g>
     </g>
     <g id="text_2">
      <!-- 10 -->
      <g transform="translate(127.617886 322.182437)scale(0.1 -0.1)">
       <defs>
        <path id="DejaVuSans-31" d="M 794 531 
L 1825 531 
L 1825 4091 
L 703 3866 
L 703 4441 
L 1819 4666 
L 2450 4666 
L 2450 531 
L 3481 531 
L 3481 0 
L 794 0 
L 794 531 
z
" transform="scale(0.015625)"/>
       </defs>
       <use xlink:href="#DejaVuSans-31"/>
       <use xlink:href="#DejaVuSans-30" x="63.623047"/>
      </g>
     </g>
    </g>
    <g id="xtick_3">
     <g id="line2d_3">
      <g>
       <use xlink:href="#me42aac0501" x="194.736106" y="307.584" style="stroke: #000000; stroke-width: 0.8"/>
      </g>
     </g>
     <g id="text_3">
      <!-- 20 -->
      <g transform="translate(188.373606 322.182437)scale(0.1 -0.1)">
       <defs>
        <path id="DejaVuSans-32" d="M 1228 531 
L 3431 531 
L 3431 0 
L 469 0 
L 469 531 
Q 828 903 1448 1529 
Q 2069 2156 2228 2338 
Q 2531 2678 2651 2914 
Q 2772 3150 2772 3378 
Q 2772 3750 2511 3984 
Q 2250 4219 1831 4219 
Q 1534 4219 1204 4116 
Q 875 4013 500 3803 
L 500 4441 
Q 881 4594 1212 4672 
Q 1544 4750 1819 4750 
Q 2544 4750 2975 4387 
Q 3406 4025 3406 3419 
Q 3406 3131 3298 2873 
Q 3191 2616 2906 2266 
Q 2828 2175 2409 1742 
Q 1991 1309 1228 531 
z
" transform="scale(0.015625)"/>
       </defs>
       <use xlink:href="#DejaVuSans-32"/>
       <use xlink:href="#DejaVuSans-30" x="63.623047"/>
      </g>
     </g>
    </g>
    <g id="xtick_4">
     <g id="line2d_4">
      <g>
       <use xlink:href="#me42aac0501" x="255.491826" y="307.584" style="stroke: #000000; stroke-width: 0.8"/>
      </g>
     </g>
     <g id="text_4">
      <!-- 30 -->
      <g transform="translate(249.129326 322.182437)scale(0.1 -0.1)">
       <defs>
        <path id="DejaVuSans-33" d="M 2597 2516 
Q 3050 2419 3304 2112 
Q 3559 1806 3559 1356 
Q 3559 666 3084 287 
Q 2609 -91 1734 -91 
Q 1441 -91 1130 -33 
Q 819 25 488 141 
L 488 750 
Q 750 597 1062 519 
Q 1375 441 1716 441 
Q 2309 441 2620 675 
Q 2931 909 2931 1356 
Q 2931 1769 2642 2001 
Q 2353 2234 1838 2234 
L 1294 2234 
L 1294 2753 
L 1863 2753 
Q 2328 2753 2575 2939 
Q 2822 3125 2822 3475 
Q 2822 3834 2567 4026 
Q 2313 4219 1838 4219 
Q 1578 4219 1281 4162 
Q 984 4106 628 3988 
L 628 4550 
Q 988 4650 1302 4700 
Q 1616 4750 1894 4750 
Q 2613 4750 3031 4423 
Q 3450 4097 3450 3541 
Q 3450 3153 3228 2886 
Q 3006 2619 2597 2516 
z
" transform="scale(0.015625)"/>
       </defs>
       <use xlink:href="#DejaVuSans-33"/>
       <use xlink:href="#DejaVuSans-30" x="63.623047"/>
      </g>
     </g>
    </g>
    <g id="xtick_5">
     <g id="line2d_5">
      <g>
       <use xlink:href="#me42aac0501" x="316.247546" y="307.584" style="stroke: #000000; stroke-width: 0.8"/>
      </g>
     </g>
     <g id="text_5">
      <!-- 40 -->
      <g transform="translate(309.885046 322.182437)scale(0.1 -0.1)">
       <defs>
        <path id="DejaVuSans-34" d="M 2419 4116 
L 825 1625 
L 2419 1625 
L 2419 4116 
z
M 2253 4666 
L 3047 4666 
L 3047 1625 
L 3713 1625 
L 3713 1100 
L 3047 1100 
L 3047 0 
L 2419 0 
L 2419 1100 
L 313 1100 
L 313 1709 
L 2253 4666 
z
" transform="scale(0.015625)"/>
       </defs>
       <use xlink:href="#DejaVuSans-34"/>
       <use xlink:href="#DejaVuSans-30" x="63.623047"/>
      </g>
     </g>
    </g>
    <g id="xtick_6">
     <g id="line2d_6">
      <g>
       <use xlink:href="#me42aac0501" x="377.003266" y="307.584" style="stroke: #000000; stroke-width: 0.8"/>
      </g>
     </g>
     <g id="text_6">
      <!-- 50 -->
      <g transform="translate(370.640766 322.182437)scale(0.1 -0.1)">
       <defs>
        <path id="DejaVuSans-35" d="M 691 4666 
L 3169 4666 
L 3169 4134 
L 1269 4134 
L 1269 2991 
Q 1406 3038 1543 3061 
Q 1681 3084 1819 3084 
Q 2600 3084 3056 2656 
Q 3513 2228 3513 1497 
Q 3513 744 3044 326 
Q 2575 -91 1722 -91 
Q 1428 -91 1123 -41 
Q 819 9 494 109 
L 494 744 
Q 775 591 1075 516 
Q 1375 441 1709 441 
Q 2250 441 2565 725 
Q 2881 1009 2881 1497 
Q 2881 1984 2565 2268 
Q 2250 2553 1709 2553 
Q 1456 2553 1204 2497 
Q 953 2441 691 2322 
L 691 4666 
z
" transform="scale(0.015625)"/>
       </defs>
       <use xlink:href="#DejaVuSans-35"/>
       <use xlink:href="#DejaVuSans-30" x="63.623047"/>
      </g>
     </g>
    </g>
    <g id="text_7">
     <!-- time(s) -->
     <g transform="translate(218.357656 335.860562)scale(0.1 -0.1)">
      <defs>
       <path id="DejaVuSans-74" d="M 1172 4494 
L 1172 3500 
L 2356 3500 
L 2356 3053 
L 1172 3053 
L 1172 1153 
Q 1172 725 1289 603 
Q 1406 481 1766 481 
L 2356 481 
L 2356 0 
L 1766 0 
Q 1100 0 847 248 
Q 594 497 594 1153 
L 594 3053 
L 172 3053 
L 172 3500 
L 594 3500 
L 594 4494 
L 1172 4494 
z
" transform="scale(0.015625)"/>
       <path id="DejaVuSans-69" d="M 603 3500 
L 1178 3500 
L 1178 0 
L 603 0 
L 603 3500 
z
M 603 4863 
L 1178 4863 
L 1178 4134 
L 603 4134 
L 603 4863 
z
" transform="scale(0.015625)"/>
       <path id="DejaVuSans-6d" d="M 3328 2828 
Q 3544 3216 3844 3400 
Q 4144 3584 4550 3584 
Q 5097 3584 5394 3201 
Q 5691 2819 5691 2113 
L 5691 0 
L 5113 0 
L 5113 2094 
Q 5113 2597 4934 2840 
Q 4756 3084 4391 3084 
Q 3944 3084 3684 2787 
Q 3425 2491 3425 1978 
L 3425 0 
L 2847 0 
L 2847 2094 
Q 2847 2600 2669 2842 
Q 2491 3084 2119 3084 
Q 1678 3084 1418 2786 
Q 1159 2488 1159 1978 
L 1159 0 
L 581 0 
L 581 3500 
L 1159 3500 
L 1159 2956 
Q 1356 3278 1631 3431 
Q 1906 3584 2284 3584 
Q 2666 3584 2933 3390 
Q 3200 3197 3328 2828 
z
" transform="scale(0.015625)"/>
       <path id="DejaVuSans-65" d="M 3597 1894 
L 3597 1613 
L 953 1613 
Q 991 1019 1311 708 
Q 1631 397 2203 397 
Q 2534 397 2845 478 
Q 3156 559 3463 722 
L 3463 178 
Q 3153 47 2828 -22 
Q 2503 -91 2169 -91 
Q 1331 -91 842 396 
Q 353 884 353 1716 
Q 353 2575 817 3079 
Q 1281 3584 2069 3584 
Q 2775 3584 3186 3129 
Q 3597 2675 3597 1894 
z
M 3022 2063 
Q 3016 2534 2758 2815 
Q 2500 3097 2075 3097 
Q 1594 3097 1305 2825 
Q 1016 2553 972 2059 
L 3022 2063 
z
" transform="scale(0.015625)"/>
       <path id="DejaVuSans-28" d="M 1984 4856 
Q 1566 4138 1362 3434 
Q 1159 2731 1159 2009 
Q 1159 1288 1364 580 
Q 1569 -128 1984 -844 
L 1484 -844 
Q 1016 -109 783 600 
Q 550 1309 550 2009 
Q 550 2706 781 3412 
Q 1013 4119 1484 4856 
L 1984 4856 
z
" transform="scale(0.015625)"/>
       <path id="DejaVuSans-73" d="M 2834 3397 
L 2834 2853 
Q 2591 2978 2328 3040 
Q 2066 3103 1784 3103 
Q 1356 3103 1142 2972 
Q 928 2841 928 2578 
Q 928 2378 1081 2264 
Q 1234 2150 1697 2047 
L 1894 2003 
Q 2506 1872 2764 1633 
Q 3022 1394 3022 966 
Q 3022 478 2636 193 
Q 2250 -91 1575 -91 
Q 1294 -91 989 -36 
Q 684 19 347 128 
L 347 722 
Q 666 556 975 473 
Q 1284 391 1588 391 
Q 1994 391 2212 530 
Q 2431 669 2431 922 
Q 2431 1156 2273 1281 
Q 2116 1406 1581 1522 
L 1381 1569 
Q 847 1681 609 1914 
Q 372 2147 372 2553 
Q 372 3047 722 3315 
Q 1072 3584 1716 3584 
Q 2034 3584 2315 3537 
Q 2597 3491 2834 3397 
z
" transform="scale(0.015625)"/>
       <path id="DejaVuSans-29" d="M 513 4856 
L 1013 4856 
Q 1481 4119 1714 3412 
Q 1947 2706 1947 2009 
Q 1947 1309 1714 600 
Q 1481 -109 1013 -844 
L 513 -844 
Q 928 -128 1133 580 
Q 1338 1288 1338 2009 
Q 1338 2731 1133 3434 
Q 928 4138 513 4856 
z
" transform="scale(0.015625)"/>
      </defs>
      <use xlink:href="#DejaVuSans-74"/>
      <use xlink:href="#DejaVuSans-69" x="39.208984"/>
      <use xlink:href="#DejaVuSans-6d" x="66.992188"/>
      <use xlink:href="#DejaVuSans-65" x="164.404297"/>
      <use xlink:href="#DejaVuSans-28" x="225.927734"/>
      <use xlink:href="#DejaVuSans-73" x="264.941406"/>
      <use xlink:href="#DejaVuSans-29" x="317.041016"/>
     </g>
    </g>
   </g>
   <g id="matplotlib.axis_2">
    <g id="ytick_1">
     <g id="line2d_7">
      <defs>
       <path id="m1abbc4678d" d="M 0 0 
L -3.5 0 
" style="stroke: #000000; stroke-width: 0.8"/>
      </defs>
      <g>
       <use xlink:href="#m1abbc4678d" x="57.6" y="307.584" style="stroke: #000000; stroke-width: 0.8"/>
      </g>
     </g>
     <g id="text_8">
      <!-- 0 -->
      <g transform="translate(44.2375 311.383219)scale(0.1 -0.1)">
       <use xlink:href="#DejaVuSans-30"/>
      </g>
     </g>
    </g>
    <g id="ytick_2">
     <g id="line2d_8">
      <g>
       <use xlink:href="#m1abbc4678d" x="57.6" y="263.232" style="stroke: #000000; stroke-width: 0.8"/>
      </g>
     </g>
     <g id="text_9">
      <!-- 50 -->
      <g transform="translate(37.875 267.031219)scale(0.1 -0.1)">
       <use xlink:href="#DejaVuSans-35"/>
       <use xlink:href="#DejaVuSans-30" x="63.623047"/>
      </g>
     </g>
    </g>
    <g id="ytick_3">
     <g id="line2d_9">
      <g>
       <use xlink:href="#m1abbc4678d" x="57.6" y="218.88" style="stroke: #000000; stroke-width: 0.8"/>
      </g>
     </g>
     <g id="text_10">
      <!-- 100 -->
      <g transform="translate(31.5125 222.679219)scale(0.1 -0.1)">
       <use xlink:href="#DejaVuSans-31"/>
       <use xlink:href="#DejaVuSans-30" x="63.623047"/>
       <use xlink:href="#DejaVuSans-30" x="127.246094"/>
      </g>
     </g>
    </g>
    <g id="ytick_4">
     <g id="line2d_10">
      <g>
       <use xlink:href="#m1abbc4678d" x="57.6" y="174.528" style="stroke: #000000; stroke-width: 0.8"/>
      </g>
     </g>
     <g id="text_11">
      <!-- 150 -->
      <g transform="translate(31.5125 178.327219)scale(0.1 -0.1)">
       <use xlink:href="#DejaVuSans-31"/>
       <use xlink:href="#DejaVuSans-35" x="63.623047"/>
       <use xlink:href="#DejaVuSans-30" x="127.246094"/>
      </g>
     </g>
    </g>
    <g id="ytick_5">
     <g id="line2d_11">
      <g>
       <use xlink:href="#m1abbc4678d" x="57.6" y="130.176" style="stroke: #000000; stroke-width: 0.8"/>
      </g>
     </g>
     <g id="text_12">
      <!-- 200 -->
      <g transform="translate(31.5125 133.975219)scale(0.1 -0.1)">
       <use xlink:href="#DejaVuSans-32"/>
       <use xlink:href="#DejaVuSans-30" x="63.623047"/>
       <use xlink:href="#DejaVuSans-30" x="127.246094"/>
      </g>
     </g>
    </g>
    <g id="ytick_6">
     <g id="line2d_12">
      <g>
       <use xlink:href="#m1abbc4678d" x="57.6" y="85.824" style="stroke: #000000; stroke-width: 0.8"/>
      </g>
     </g>
     <g id="text_13">
      <!-- 250 -->
      <g transform="translate(31.5125 89.623219)scale(0.1 -0.1)">
       <use xlink:href="#DejaVuSans-32"/>
       <use xlink:href="#DejaVuSans-35" x="63.623047"/>
       <use xlink:href="#DejaVuSans-30" x="127.246094"/>
      </g>
     </g>
    </g>
    <g id="ytick_7">
     <g id="line2d_13">
      <g>
       <use xlink:href="#m1abbc4678d" x="57.6" y="41.472" style="stroke: #000000; stroke-width: 0.8"/>
      </g>
     </g>
     <g id="text_14">
      <!-- 300 -->
      <g transform="translate(31.5125 45.271219)scale(0.1 -0.1)">
       <use xlink:href="#DejaVuSans-33"/>
       <use xlink:href="#DejaVuSans-30" x="63.623047"/>
       <use xlink:href="#DejaVuSans-30" x="127.246094"/>
      </g>
     </g>
    </g>
    <g id="text_15">
     <!-- Mbps -->
     <g transform="translate(25.432812 187.795187)rotate(-90)scale(0.1 -0.1)">
      <defs>
       <path id="DejaVuSans-4d" d="M 628 4666 
L 1569 4666 
L 2759 1491 
L 3956 4666 
L 4897 4666 
L 4897 0 
L 4281 0 
L 4281 4097 
L 3078 897 
L 2444 897 
L 1241 4097 
L 1241 0 
L 628 0 
L 628 4666 
z
" transform="scale(0.015625)"/>
       <path id="DejaVuSans-62" d="M 3116 1747 
Q 3116 2381 2855 2742 
Q 2594 3103 2138 3103 
Q 1681 3103 1420 2742 
Q 1159 2381 1159 1747 
Q 1159 1113 1420 752 
Q 1681 391 2138 391 
Q 2594 391 2855 752 
Q 3116 1113 3116 1747 
z
M 1159 2969 
Q 1341 3281 1617 3432 
Q 1894 3584 2278 3584 
Q 2916 3584 3314 3078 
Q 3713 2572 3713 1747 
Q 3713 922 3314 415 
Q 2916 -91 2278 -91 
Q 1894 -91 1617 61 
Q 1341 213 1159 525 
L 1159 0 
L 581 0 
L 581 4863 
L 1159 4863 
L 1159 2969 
z
" transform="scale(0.015625)"/>
       <path id="DejaVuSans-70" d="M 1159 525 
L 1159 -1331 
L 581 -1331 
L 581 3500 
L 1159 3500 
L 1159 2969 
Q 1341 3281 1617 3432 
Q 1894 3584 2278 3584 
Q 2916 3584 3314 3078 
Q 3713 2572 3713 1747 
Q 3713 922 3314 415 
Q 2916 -91 2278 -91 
Q 1894 -91 1617 61 
Q 1341 213 1159 525 
z
M 3116 1747 
Q 3116 2381 2855 2742 
Q 2594 3103 2138 3103 
Q 1681 3103 1420 2742 
Q 1159 2381 1159 1747 
Q 1159 1113 1420 752 
Q 1681 391 2138 391 
Q 2594 391 2855 752 
Q 3116 1113 3116 1747 
z
" transform="scale(0.015625)"/>
      </defs>
      <use xlink:href="#DejaVuSans-4d"/>
      <use xlink:href="#DejaVuSans-62" x="86.279297"/>
      <use xlink:href="#DejaVuSans-70" x="149.755859"/>
      <use xlink:href="#DejaVuSans-73" x="213.232422"/>
     </g>
    </g>
   </g>
   <g id="line2d_14">
    <path d="M 73.832727 215.549522 
L 74.440327 217.118844 
L 75.048388 217.182402 
L 75.655964 216.494657 
L 76.264311 220.81497 
L 76.87199 217.183176 
L 77.480276 214.490393 
L 78.087949 217.041262 
L 78.696921 216.82872 
L 79.305511 207.260414 
L 79.913943 217.4252 
L 80.521896 205.972668 
L 81.129811 182.639299 
L 81.738523 175.426824 
L 82.346147 170.895446 
L 82.953722 178.118565 
L 83.561571 172.853471 
L 84.169244 201.378243 
L 84.777008 210.618557 
L 85.384875 217.131099 
L 85.99262 215.522314 
L 86.601052 210.876982 
L 87.208725 213.508784 
L 87.816853 219.429084 
L 88.424659 217.026809 
L 89.032794 215.0843 
L 89.640466 208.720211 
L 90.248072 207.300575 
L 90.856194 202.12498 
L 91.463776 198.461641 
L 92.071382 209.970713 
L 92.679577 207.89052 
L 93.288033 211.386649 
L 93.895803 209.989482 
L 94.50364 211.893451 
L 95.111312 211.558874 
L 95.71904 207.187613 
L 96.326773 209.430268 
L 96.934938 209.349595 
L 97.54334 207.654244 
L 98.150945 213.966851 
L 98.758569 212.593082 
L 99.36623 209.969685 
L 99.973921 212.266104 
L 100.581709 218.537425 
L 101.189704 221.323686 
L 101.797619 205.913751 
L 102.405681 205.417055 
L 103.013305 209.964709 
L 104.228717 212.322143 
L 104.836578 215.430149 
L 105.444986 211.786073 
L 106.052664 201.755439 
L 106.660993 214.008767 
L 107.268587 213.821718 
L 107.876235 215.074526 
L 108.484139 213.696155 
L 109.091945 218.43267 
L 109.700067 215.239381 
L 110.307643 207.675008 
L 110.915358 208.915626 
L 111.522964 209.3541 
L 112.1308 209.285479 
L 112.738363 205.435603 
L 113.955938 211.530335 
L 114.56397 209.265111 
L 115.171897 213.074559 
L 115.779813 208.783271 
L 116.387395 201.283947 
L 116.995037 209.228924 
L 118.210911 211.832956 
L 118.818529 213.636807 
L 119.426365 209.974508 
L 120.034026 211.745805 
L 120.641607 209.068787 
L 121.249742 210.654865 
L 121.857354 211.743552 
L 122.465336 208.532883 
L 123.073647 210.725184 
L 123.681666 212.129947 
L 124.28929 211.925399 
L 124.897096 211.54982 
L 125.504939 209.444613 
L 126.11252 198.136675 
L 126.720254 205.921552 
L 127.327908 202.895285 
L 127.935471 208.291357 
L 128.543059 204.638922 
L 129.151479 203.263873 
L 129.759103 199.243879 
L 130.367675 202.263291 
L 130.976271 212.219662 
L 131.583889 206.779702 
L 132.799933 211.652738 
L 133.408091 210.414602 
L 134.016469 212.104952 
L 134.624129 214.256894 
L 135.231784 214.666349 
L 135.83993 215.223465 
L 136.447633 218.401686 
L 137.055233 217.284909 
L 137.662808 215.844719 
L 138.270931 217.292988 
L 138.8787 216.981462 
L 139.486653 217.338128 
L 140.094222 215.725303 
L 140.702879 217.319811 
L 141.310788 217.710782 
L 141.918728 216.236203 
L 142.526292 207.034563 
L 143.134608 216.970843 
L 143.74222 207.476369 
L 144.350397 218.425745 
L 144.958501 209.166889 
L 145.566544 213.147005 
L 146.174308 212.853399 
L 146.782157 215.216922 
L 147.389763 213.495053 
L 147.997466 216.122506 
L 148.605181 215.844636 
L 149.212805 218.753269 
L 149.820593 219.929258 
L 150.428989 219.001162 
L 151.037056 222.078446 
L 152.252802 212.839597 
L 152.860906 218.146354 
L 153.468494 218.53626 
L 154.076975 214.249373 
L 154.684538 214.840683 
L 155.292806 216.352123 
L 155.900412 219.307938 
L 156.508789 217.158789 
L 157.116365 217.620884 
L 157.724645 216.462571 
L 158.332463 214.449183 
L 158.940039 211.656323 
L 159.547918 215.272267 
L 160.156071 212.094675 
L 160.765414 210.053519 
L 161.372977 212.847854 
L 161.98065 182.917902 
L 162.588711 195.056777 
L 163.196281 197.473713 
L 163.804105 201.34681 
L 164.412051 219.901782 
L 165.01973 217.643076 
L 165.629177 197.967396 
L 166.236861 215.980651 
L 166.844437 218.384244 
L 167.452085 217.801992 
L 168.060104 213.601588 
L 169.275674 220.421744 
L 170.494422 165.542513 
L 171.102708 214.062384 
L 171.710721 209.178105 
L 172.318479 205.693498 
L 172.926801 213.104686 
L 174.14273 216.253968 
L 174.750421 213.535355 
L 175.358865 211.417368 
L 175.96658 207.72227 
L 176.57415 206.487338 
L 177.182199 212.286389 
L 177.789786 202.675881 
L 178.398583 223.963239 
L 179.006723 197.769606 
L 179.614396 202.106972 
L 180.222008 212.617641 
L 180.830009 209.922464 
L 181.437621 213.197909 
L 182.045828 212.701753 
L 182.653458 201.609067 
L 183.870012 211.345953 
L 184.477952 210.765152 
L 185.085625 206.3786 
L 185.693516 210.584595 
L 186.301274 201.840499 
L 186.910751 204.86349 
L 187.518734 203.868617 
L 188.126351 207.147754 
L 188.735142 197.917194 
L 189.343428 198.056372 
L 189.95101 209.051124 
L 190.558901 207.868162 
L 191.166908 213.197675 
L 191.776549 221.343798 
L 192.384143 213.525045 
L 192.991852 214.400826 
L 193.600199 204.898962 
L 194.207884 209.826696 
L 194.816073 216.667689 
L 195.426169 217.886599 
L 196.034 210.305671 
L 196.642505 218.781329 
L 197.250093 218.002122 
L 197.85861 216.507445 
L 198.466191 222.091861 
L 199.681761 214.588205 
L 200.289337 214.482243 
L 200.897599 216.047159 
L 201.505259 217.099741 
L 202.113576 217.796471 
L 202.721212 218.083925 
L 203.328848 222.389642 
L 203.936746 210.386912 
L 204.544321 217.169974 
L 205.152261 217.375483 
L 205.760359 217.120949 
L 206.36867 208.79273 
L 206.976409 210.120456 
L 207.585218 214.062886 
L 208.193899 205.852207 
L 208.801912 214.290628 
L 209.410034 218.498796 
L 210.01815 216.373353 
L 210.626036 217.461388 
L 211.233599 216.460622 
L 212.451229 218.423544 
L 213.059071 216.757808 
L 213.66675 218.262862 
L 214.274386 220.817468 
L 214.882885 218.278727 
L 215.491062 215.156482 
L 216.098893 216.289239 
L 216.707234 216.999133 
L 217.316279 219.192996 
L 217.926346 211.628662 
L 218.53476 217.153867 
L 219.142979 214.689054 
L 219.750791 216.691777 
L 220.358507 208.358934 
L 220.966282 209.61418 
L 221.573973 212.528628 
L 222.181561 205.126772 
L 222.791214 211.980502 
L 223.39885 212.507285 
L 224.006602 205.516579 
L 224.614463 206.968275 
L 225.222233 220.097653 
L 225.830677 213.930763 
L 226.438344 212.455269 
L 227.047377 214.39709 
L 227.65525 204.791988 
L 228.262814 210.243581 
L 229.478135 206.057539 
L 230.087739 214.288251 
L 230.695521 212.200974 
L 231.303279 169.534485 
L 231.910842 213.552352 
L 232.518503 206.769841 
L 233.126941 205.973895 
L 233.735336 198.634832 
L 234.343015 199.337122 
L 234.95138 206.546538 
L 235.55895 201.024997 
L 236.167339 211.469414 
L 236.775067 213.111443 
L 237.383055 212.641245 
L 237.990625 214.708292 
L 238.598218 207.864441 
L 239.206553 216.736996 
L 239.814195 213.245934 
L 240.422014 205.423626 
L 241.029838 215.546115 
L 241.63745 216.919945 
L 242.245208 196.104162 
L 243.461519 213.027644 
L 244.069204 218.231346 
L 244.678389 213.872873 
L 245.28639 216.686187 
L 245.894069 218.304881 
L 246.501802 219.171199 
L 247.109754 216.997331 
L 247.718381 213.710133 
L 248.32612 218.694165 
L 248.933805 219.521787 
L 249.541538 211.577269 
L 250.149223 218.127485 
L 250.75768 216.4128 
L 251.973651 214.929643 
L 252.582168 220.361987 
L 253.189919 210.011384 
L 253.7982 210.731365 
L 254.40603 210.135069 
L 255.621479 224.267495 
L 256.229164 210.117505 
L 256.837535 209.544546 
L 257.446125 217.694051 
L 258.662527 205.927817 
L 259.271063 212.474666 
L 259.878778 209.936926 
L 260.487234 203.898848 
L 261.09563 208.376987 
L 261.703363 208.55994 
L 262.311145 210.753519 
L 262.919468 204.018142 
L 263.527858 192.889578 
L 264.135634 205.170361 
L 264.743221 214.211182 
L 265.351337 211.449867 
L 265.959435 216.601796 
L 266.567181 208.711707 
L 267.17571 211.935202 
L 267.783358 211.774744 
L 268.391639 221.548039 
L 268.999493 213.322092 
L 269.607525 215.640678 
L 270.215088 210.119465 
L 270.823192 213.899799 
L 271.431229 212.676492 
L 272.039685 202.783443 
L 272.647255 217.335075 
L 273.255632 215.586705 
L 273.863262 204.15486 
L 274.472144 218.345806 
L 275.08043 217.135913 
L 276.296268 206.784541 
L 276.90394 211.736354 
L 277.511516 211.823409 
L 278.119109 206.754286 
L 278.728659 209.23516 
L 279.336842 208.294773 
L 279.944612 209.182393 
L 280.553378 209.20695 
L 281.161695 208.919842 
L 281.769495 209.643263 
L 282.377223 212.051057 
L 282.98509 206.924096 
L 283.592902 209.621409 
L 284.201036 208.221254 
L 284.808697 207.702526 
L 285.416339 210.98527 
L 286.024121 196.198731 
L 286.631715 215.080479 
L 287.239406 213.546722 
L 287.84709 208.236919 
L 288.454787 210.282989 
L 289.062357 199.086327 
L 289.670509 211.309525 
L 290.27837 208.905406 
L 290.886742 211.922667 
L 291.494742 211.749121 
L 292.102609 209.128864 
L 292.710811 208.561472 
L 293.318824 211.543698 
L 293.926551 211.263329 
L 294.534734 209.760474 
L 295.142838 209.014958 
L 295.75045 203.523647 
L 296.358201 211.805234 
L 296.96653 217.198539 
L 297.574178 208.803614 
L 298.181845 207.01092 
L 298.789931 211.417883 
L 299.3975 211.346903 
L 300.005106 210.977986 
L 300.61304 211.177766 
L 301.220889 212.261247 
L 301.829369 203.858121 
L 302.436951 198.37211 
L 303.044648 212.531067 
L 303.652333 213.994175 
L 304.868377 204.567467 
L 305.475982 209.237707 
L 306.083582 206.508769 
L 306.691498 207.637046 
L 307.299262 210.442389 
L 307.907341 210.586915 
L 308.515123 205.656779 
L 309.730681 211.579333 
L 310.338269 210.730452 
L 310.946689 198.943901 
L 311.554477 200.568956 
L 312.162623 200.243749 
L 312.77029 198.286037 
L 313.377938 204.612743 
L 313.985714 207.171693 
L 314.593472 193.23843 
L 315.201776 192.648998 
L 315.809807 199.177918 
L 316.418027 194.695329 
L 317.025706 194.975682 
L 317.633652 193.646036 
L 318.241312 200.807807 
L 318.849179 206.303149 
L 319.457222 203.504085 
L 320.065618 208.080097 
L 320.673558 198.510563 
L 321.281601 198.902092 
L 322.499583 189.807905 
L 323.107517 201.176343 
L 323.715238 205.564453 
L 324.322875 206.863047 
L 324.931252 209.837896 
L 325.53932 198.348646 
L 326.147314 193.249923 
L 326.754926 197.475871 
L 327.36303 200.805357 
L 327.970745 204.881371 
L 328.579159 204.194969 
L 329.186813 205.066113 
L 329.794425 204.075087 
L 330.402335 208.108623 
L 331.01022 202.12094 
L 331.618385 190.855312 
L 332.22596 197.776842 
L 332.834399 201.190874 
L 333.442004 205.939048 
L 334.050333 203.032498 
L 334.657988 205.424466 
L 335.265751 192.523536 
L 335.873655 188.483093 
L 336.481291 190.31177 
L 337.08993 190.275169 
L 337.698204 185.118537 
L 338.305895 185.36041 
L 338.913549 198.727666 
L 339.522176 194.350831 
L 340.130261 210.594443 
L 340.737995 207.240577 
L 341.345734 198.88085 
L 341.953613 205.217794 
L 342.561274 202.90249 
L 343.169451 204.647069 
L 343.777136 204.880838 
L 344.385118 198.17606 
L 344.99276 198.706136 
L 345.600342 206.025664 
L 346.208069 207.381585 
L 346.816295 207.258423 
L 347.423864 212.537838 
L 348.031749 211.423366 
L 348.640139 210.594888 
L 349.248085 210.166828 
L 349.855788 210.556426 
L 351.679875 204.110341 
L 352.287517 203.054711 
L 352.895141 195.362761 
L 353.502996 207.320229 
L 354.110821 194.255681 
L 354.718572 199.635676 
L 355.326318 208.884903 
L 355.933991 175.834338 
L 356.54159 203.474332 
L 357.15018 205.826974 
L 357.758126 206.613688 
L 358.365848 206.995477 
L 358.973709 209.385528 
L 360.189838 211.381066 
L 360.79748 208.178134 
L 361.405201 204.201357 
L 362.013342 202.474241 
L 362.621136 207.457479 
L 363.229459 207.778546 
L 363.837095 210.203495 
L 364.444725 204.240662 
L 365.660204 211.318883 
L 366.267785 196.253875 
L 366.875707 205.664855 
L 367.483756 164.791692 
L 368.091696 213.348199 
L 368.699363 207.75752 
L 369.306963 191.397148 
L 369.915079 155.410315 
L 370.522873 175.801011 
L 371.130661 211.272551 
L 371.738267 212.187932 
L 372.345915 204.088672 
L 372.95445 215.302683 
L 373.562992 216.421151 
L 374.170634 206.673303 
L 374.779194 205.72575 
L 375.387747 211.20182 
L 375.995347 210.088026 
L 376.603038 210.476609 
L 377.210984 209.33035 
L 377.819125 195.88502 
L 378.426986 200.210167 
L 379.034567 197.458726 
L 379.642264 206.127569 
L 380.858928 164.593831 
L 381.466819 161.986275 
L 382.07485 193.546948 
L 382.682845 210.398327 
L 383.291386 212.645612 
L 383.899071 207.215906 
L 384.506646 207.237091 
L 385.114428 212.709099 
L 385.722751 176.332011 
L 386.330351 198.748659 
L 386.938266 207.454429 
L 388.153867 212.577563 
L 388.761777 209.777758 
L 389.371175 212.844586 
L 389.978975 209.205576 
L 390.586848 194.097467 
L 391.194563 207.139463 
L 391.802193 208.651511 
L 392.409951 209.111486 
L 393.017678 210.50591 
L 393.625752 208.079065 
L 394.233346 181.727457 
L 394.84103 187.429294 
L 395.448654 185.095782 
L 396.056394 197.675094 
L 396.664024 192.316064 
L 397.271666 200.592064 
L 397.879491 201.667722 
L 398.487273 194.798969 
L 398.487273 194.798969 
" clip-path="url(#p1cf6c44c5f)" style="fill: none; stroke: #1f77b4; stroke-width: 1.5; stroke-linecap: square"/>
   </g>
   <g id="patch_3">
    <path d="M 57.6 307.584 
L 57.6 41.472 
" style="fill: none; stroke: #000000; stroke-width: 0.8; stroke-linejoin: miter; stroke-linecap: square"/>
   </g>
   <g id="patch_4">
    <path d="M 414.72 307.584 
L 414.72 41.472 
" style="fill: none; stroke: #000000; stroke-width: 0.8; stroke-linejoin: miter; stroke-linecap: square"/>
   </g>
   <g id="patch_5">
    <path d="M 57.6 307.584 
L 414.72 307.584 
" style="fill: none; stroke: #000000; stroke-width: 0.8; stroke-linejoin: miter; stroke-linecap: square"/>
   </g>
   <g id="patch_6">
    <path d="M 57.6 41.472 
L 414.72 41.472 
" style="fill: none; stroke: #000000; stroke-width: 0.8; stroke-linejoin: miter; stroke-linecap: square"/>
   </g>
   <g id="text_16">
    <!-- pt20 link speed per 100ms -->
    <g transform="translate(155.608125 35.472)scale(0.12 -0.12)">
     <defs>
      <path id="DejaVuSans-20" transform="scale(0.015625)"/>
      <path id="DejaVuSans-6c" d="M 603 4863 
L 1178 4863 
L 1178 0 
L 603 0 
L 603 4863 
z
" transform="scale(0.015625)"/>
      <path id="DejaVuSans-6e" d="M 3513 2113 
L 3513 0 
L 2938 0 
L 2938 2094 
Q 2938 2591 2744 2837 
Q 2550 3084 2163 3084 
Q 1697 3084 1428 2787 
Q 1159 2491 1159 1978 
L 1159 0 
L 581 0 
L 581 3500 
L 1159 3500 
L 1159 2956 
Q 1366 3272 1645 3428 
Q 1925 3584 2291 3584 
Q 2894 3584 3203 3211 
Q 3513 2838 3513 2113 
z
" transform="scale(0.015625)"/>
      <path id="DejaVuSans-6b" d="M 581 4863 
L 1159 4863 
L 1159 1991 
L 2875 3500 
L 3609 3500 
L 1753 1863 
L 3688 0 
L 2938 0 
L 1159 1709 
L 1159 0 
L 581 0 
L 581 4863 
z
" transform="scale(0.015625)"/>
      <path id="DejaVuSans-64" d="M 2906 2969 
L 2906 4863 
L 3481 4863 
L 3481 0 
L 2906 0 
L 2906 525 
Q 2725 213 2448 61 
Q 2172 -91 1784 -91 
Q 1150 -91 751 415 
Q 353 922 353 1747 
Q 353 2572 751 3078 
Q 1150 3584 1784 3584 
Q 2172 3584 2448 3432 
Q 2725 3281 2906 2969 
z
M 947 1747 
Q 947 1113 1208 752 
Q 1469 391 1925 391 
Q 2381 391 2643 752 
Q 2906 1113 2906 1747 
Q 2906 2381 2643 2742 
Q 2381 3103 1925 3103 
Q 1469 3103 1208 2742 
Q 947 2381 947 1747 
z
" transform="scale(0.015625)"/>
      <path id="DejaVuSans-72" d="M 2631 2963 
Q 2534 3019 2420 3045 
Q 2306 3072 2169 3072 
Q 1681 3072 1420 2755 
Q 1159 2438 1159 1844 
L 1159 0 
L 581 0 
L 581 3500 
L 1159 3500 
L 1159 2956 
Q 1341 3275 1631 3429 
Q 1922 3584 2338 3584 
Q 2397 3584 2469 3576 
Q 2541 3569 2628 3553 
L 2631 2963 
z
" transform="scale(0.015625)"/>
     </defs>
     <use xlink:href="#DejaVuSans-70"/>
     <use xlink:href="#DejaVuSans-74" x="63.476562"/>
     <use xlink:href="#DejaVuSans-32" x="102.685547"/>
     <use xlink:href="#DejaVuSans-30" x="166.308594"/>
     <use xlink:href="#DejaVuSans-20" x="229.931641"/>
     <use xlink:href="#DejaVuSans-6c" x="261.71875"/>
     <use xlink:href="#DejaVuSans-69" x="289.501953"/>
     <use xlink:href="#DejaVuSans-6e" x="317.285156"/>
     <use xlink:href="#DejaVuSans-6b" x="380.664062"/>
     <use xlink:href="#DejaVuSans-20" x="438.574219"/>
     <use xlink:href="#DejaVuSans-73" x="470.361328"/>
     <use xlink:href="#DejaVuSans-70" x="522.460938"/>
     <use xlink:href="#DejaVuSans-65" x="585.9375"/>
     <use xlink:href="#DejaVuSans-65" x="647.460938"/>
     <use xlink:href="#DejaVuSans-64" x="708.984375"/>
     <use xlink:href="#DejaVuSans-20" x="772.460938"/>
     <use xlink:href="#DejaVuSans-70" x="804.248047"/>
     <use xlink:href="#DejaVuSans-65" x="867.724609"/>
     <use xlink:href="#DejaVuSans-72" x="929.248047"/>
     <use xlink:href="#DejaVuSans-20" x="970.361328"/>
     <use xlink:href="#DejaVuSans-31" x="1002.148438"/>
     <use xlink:href="#DejaVuSans-30" x="1065.771484"/>
     <use xlink:href="#DejaVuSans-30" x="1129.394531"/>
     <use xlink:href="#DejaVuSans-6d" x="1193.017578"/>
     <use xlink:href="#DejaVuSans-73" x="1290.429688"/>
    </g>
   </g>
  </g>
 </g>
 <defs>
  <clipPath id="p1cf6c44c5f">
   <rect x="57.6" y="41.472" width="357.12" height="266.112"/>
  </clipPath>
 </defs>
</svg>
