<?xml version="1.0" encoding="utf-8" standalone="no"?>
<!DOCTYPE svg PUBLIC "-//W3C//DTD SVG 1.1//EN"
  "http://www.w3.org/Graphics/SVG/1.1/DTD/svg11.dtd">
<svg xmlns:xlink="http://www.w3.org/1999/xlink" width="460.8pt" height="345.6pt" viewBox="0 0 460.8 345.6" xmlns="http://www.w3.org/2000/svg" version="1.1">
 <metadata>
  <rdf:RDF xmlns:dc="http://purl.org/dc/elements/1.1/" xmlns:cc="http://creativecommons.org/ns#" xmlns:rdf="http://www.w3.org/1999/02/22-rdf-syntax-ns#">
   <cc:Work>
    <dc:type rdf:resource="http://purl.org/dc/dcmitype/StillImage"/>
    <dc:date>2022-07-09T22:20:32.287191</dc:date>
    <dc:format>image/svg+xml</dc:format>
    <dc:creator>
     <cc:Agent>
      <dc:title>Matplotlib v3.5.2, https://matplotlib.org/</dc:title>
     </cc:Agent>
    </dc:creator>
   </cc:Work>
  </rdf:RDF>
 </metadata>
 <defs>
  <style type="text/css">*{stroke-linejoin: round; stroke-linecap: butt}</style>
 </defs>
 <g id="figure_1">
  <g id="patch_1">
   <path d="M 0 345.6 
L 460.8 345.6 
L 460.8 0 
L 0 0 
z
" style="fill: #ffffff"/>
  </g>
  <g id="axes_1">
   <g id="patch_2">
    <path d="M 57.6 307.584 
L 414.72 307.584 
L 414.72 41.472 
L 57.6 41.472 
z
" style="fill: #ffffff"/>
   </g>
   <g id="matplotlib.axis_1">
    <g id="xtick_1">
     <g id="line2d_1">
      <defs>
       <path id="m4dfcac4a67" d="M 0 0 
L 0 3.5 
" style="stroke: #000000; stroke-width: 0.8"/>
      </defs>
      <g>
       <use xlink:href="#m4dfcac4a67" x="73.686666" y="307.584" style="stroke: #000000; stroke-width: 0.8"/>
      </g>
     </g>
     <g id="text_1">
      <!-- 0 -->
      <g transform="translate(70.505416 322.182437)scale(0.1 -0.1)">
       <defs>
        <path id="DejaVuSans-30" d="M 2034 4250 
Q 1547 4250 1301 3770 
Q 1056 3291 1056 2328 
Q 1056 1369 1301 889 
Q 1547 409 2034 409 
Q 2525 409 2770 889 
Q 3016 1369 3016 2328 
Q 3016 3291 2770 3770 
Q 2525 4250 2034 4250 
z
M 2034 4750 
Q 2819 4750 3233 4129 
Q 3647 3509 3647 2328 
Q 3647 1150 3233 529 
Q 2819 -91 2034 -91 
Q 1250 -91 836 529 
Q 422 1150 422 2328 
Q 422 3509 836 4129 
Q 1250 4750 2034 4750 
z
" transform="scale(0.015625)"/>
       </defs>
       <use xlink:href="#DejaVuSans-30"/>
      </g>
     </g>
    </g>
    <g id="xtick_2">
     <g id="line2d_2">
      <g>
       <use xlink:href="#m4dfcac4a67" x="146.433062" y="307.584" style="stroke: #000000; stroke-width: 0.8"/>
      </g>
     </g>
     <g id="text_2">
      <!-- 50 -->
      <g transform="translate(140.070562 322.182437)scale(0.1 -0.1)">
       <defs>
        <path id="DejaVuSans-35" d="M 691 4666 
L 3169 4666 
L 3169 4134 
L 1269 4134 
L 1269 2991 
Q 1406 3038 1543 3061 
Q 1681 3084 1819 3084 
Q 2600 3084 3056 2656 
Q 3513 2228 3513 1497 
Q 3513 744 3044 326 
Q 2575 -91 1722 -91 
Q 1428 -91 1123 -41 
Q 819 9 494 109 
L 494 744 
Q 775 591 1075 516 
Q 1375 441 1709 441 
Q 2250 441 2565 725 
Q 2881 1009 2881 1497 
Q 2881 1984 2565 2268 
Q 2250 2553 1709 2553 
Q 1456 2553 1204 2497 
Q 953 2441 691 2322 
L 691 4666 
z
" transform="scale(0.015625)"/>
       </defs>
       <use xlink:href="#DejaVuSans-35"/>
       <use xlink:href="#DejaVuSans-30" x="63.623047"/>
      </g>
     </g>
    </g>
    <g id="xtick_3">
     <g id="line2d_3">
      <g>
       <use xlink:href="#m4dfcac4a67" x="219.179458" y="307.584" style="stroke: #000000; stroke-width: 0.8"/>
      </g>
     </g>
     <g id="text_3">
      <!-- 100 -->
      <g transform="translate(209.635708 322.182437)scale(0.1 -0.1)">
       <defs>
        <path id="DejaVuSans-31" d="M 794 531 
L 1825 531 
L 1825 4091 
L 703 3866 
L 703 4441 
L 1819 4666 
L 2450 4666 
L 2450 531 
L 3481 531 
L 3481 0 
L 794 0 
L 794 531 
z
" transform="scale(0.015625)"/>
       </defs>
       <use xlink:href="#DejaVuSans-31"/>
       <use xlink:href="#DejaVuSans-30" x="63.623047"/>
       <use xlink:href="#DejaVuSans-30" x="127.246094"/>
      </g>
     </g>
    </g>
    <g id="xtick_4">
     <g id="line2d_4">
      <g>
       <use xlink:href="#m4dfcac4a67" x="291.925854" y="307.584" style="stroke: #000000; stroke-width: 0.8"/>
      </g>
     </g>
     <g id="text_4">
      <!-- 150 -->
      <g transform="translate(282.382104 322.182437)scale(0.1 -0.1)">
       <use xlink:href="#DejaVuSans-31"/>
       <use xlink:href="#DejaVuSans-35" x="63.623047"/>
       <use xlink:href="#DejaVuSans-30" x="127.246094"/>
      </g>
     </g>
    </g>
    <g id="xtick_5">
     <g id="line2d_5">
      <g>
       <use xlink:href="#m4dfcac4a67" x="364.67225" y="307.584" style="stroke: #000000; stroke-width: 0.8"/>
      </g>
     </g>
     <g id="text_5">
      <!-- 200 -->
      <g transform="translate(355.1285 322.182437)scale(0.1 -0.1)">
       <defs>
        <path id="DejaVuSans-32" d="M 1228 531 
L 3431 531 
L 3431 0 
L 469 0 
L 469 531 
Q 828 903 1448 1529 
Q 2069 2156 2228 2338 
Q 2531 2678 2651 2914 
Q 2772 3150 2772 3378 
Q 2772 3750 2511 3984 
Q 2250 4219 1831 4219 
Q 1534 4219 1204 4116 
Q 875 4013 500 3803 
L 500 4441 
Q 881 4594 1212 4672 
Q 1544 4750 1819 4750 
Q 2544 4750 2975 4387 
Q 3406 4025 3406 3419 
Q 3406 3131 3298 2873 
Q 3191 2616 2906 2266 
Q 2828 2175 2409 1742 
Q 1991 1309 1228 531 
z
" transform="scale(0.015625)"/>
       </defs>
       <use xlink:href="#DejaVuSans-32"/>
       <use xlink:href="#DejaVuSans-30" x="63.623047"/>
       <use xlink:href="#DejaVuSans-30" x="127.246094"/>
      </g>
     </g>
    </g>
    <g id="text_6">
     <!-- time(s) -->
     <g transform="translate(218.357656 335.860562)scale(0.1 -0.1)">
      <defs>
       <path id="DejaVuSans-74" d="M 1172 4494 
L 1172 3500 
L 2356 3500 
L 2356 3053 
L 1172 3053 
L 1172 1153 
Q 1172 725 1289 603 
Q 1406 481 1766 481 
L 2356 481 
L 2356 0 
L 1766 0 
Q 1100 0 847 248 
Q 594 497 594 1153 
L 594 3053 
L 172 3053 
L 172 3500 
L 594 3500 
L 594 4494 
L 1172 4494 
z
" transform="scale(0.015625)"/>
       <path id="DejaVuSans-69" d="M 603 3500 
L 1178 3500 
L 1178 0 
L 603 0 
L 603 3500 
z
M 603 4863 
L 1178 4863 
L 1178 4134 
L 603 4134 
L 603 4863 
z
" transform="scale(0.015625)"/>
       <path id="DejaVuSans-6d" d="M 3328 2828 
Q 3544 3216 3844 3400 
Q 4144 3584 4550 3584 
Q 5097 3584 5394 3201 
Q 5691 2819 5691 2113 
L 5691 0 
L 5113 0 
L 5113 2094 
Q 5113 2597 4934 2840 
Q 4756 3084 4391 3084 
Q 3944 3084 3684 2787 
Q 3425 2491 3425 1978 
L 3425 0 
L 2847 0 
L 2847 2094 
Q 2847 2600 2669 2842 
Q 2491 3084 2119 3084 
Q 1678 3084 1418 2786 
Q 1159 2488 1159 1978 
L 1159 0 
L 581 0 
L 581 3500 
L 1159 3500 
L 1159 2956 
Q 1356 3278 1631 3431 
Q 1906 3584 2284 3584 
Q 2666 3584 2933 3390 
Q 3200 3197 3328 2828 
z
" transform="scale(0.015625)"/>
       <path id="DejaVuSans-65" d="M 3597 1894 
L 3597 1613 
L 953 1613 
Q 991 1019 1311 708 
Q 1631 397 2203 397 
Q 2534 397 2845 478 
Q 3156 559 3463 722 
L 3463 178 
Q 3153 47 2828 -22 
Q 2503 -91 2169 -91 
Q 1331 -91 842 396 
Q 353 884 353 1716 
Q 353 2575 817 3079 
Q 1281 3584 2069 3584 
Q 2775 3584 3186 3129 
Q 3597 2675 3597 1894 
z
M 3022 2063 
Q 3016 2534 2758 2815 
Q 2500 3097 2075 3097 
Q 1594 3097 1305 2825 
Q 1016 2553 972 2059 
L 3022 2063 
z
" transform="scale(0.015625)"/>
       <path id="DejaVuSans-28" d="M 1984 4856 
Q 1566 4138 1362 3434 
Q 1159 2731 1159 2009 
Q 1159 1288 1364 580 
Q 1569 -128 1984 -844 
L 1484 -844 
Q 1016 -109 783 600 
Q 550 1309 550 2009 
Q 550 2706 781 3412 
Q 1013 4119 1484 4856 
L 1984 4856 
z
" transform="scale(0.015625)"/>
       <path id="DejaVuSans-73" d="M 2834 3397 
L 2834 2853 
Q 2591 2978 2328 3040 
Q 2066 3103 1784 3103 
Q 1356 3103 1142 2972 
Q 928 2841 928 2578 
Q 928 2378 1081 2264 
Q 1234 2150 1697 2047 
L 1894 2003 
Q 2506 1872 2764 1633 
Q 3022 1394 3022 966 
Q 3022 478 2636 193 
Q 2250 -91 1575 -91 
Q 1294 -91 989 -36 
Q 684 19 347 128 
L 347 722 
Q 666 556 975 473 
Q 1284 391 1588 391 
Q 1994 391 2212 530 
Q 2431 669 2431 922 
Q 2431 1156 2273 1281 
Q 2116 1406 1581 1522 
L 1381 1569 
Q 847 1681 609 1914 
Q 372 2147 372 2553 
Q 372 3047 722 3315 
Q 1072 3584 1716 3584 
Q 2034 3584 2315 3537 
Q 2597 3491 2834 3397 
z
" transform="scale(0.015625)"/>
       <path id="DejaVuSans-29" d="M 513 4856 
L 1013 4856 
Q 1481 4119 1714 3412 
Q 1947 2706 1947 2009 
Q 1947 1309 1714 600 
Q 1481 -109 1013 -844 
L 513 -844 
Q 928 -128 1133 580 
Q 1338 1288 1338 2009 
Q 1338 2731 1133 3434 
Q 928 4138 513 4856 
z
" transform="scale(0.015625)"/>
      </defs>
      <use xlink:href="#DejaVuSans-74"/>
      <use xlink:href="#DejaVuSans-69" x="39.208984"/>
      <use xlink:href="#DejaVuSans-6d" x="66.992188"/>
      <use xlink:href="#DejaVuSans-65" x="164.404297"/>
      <use xlink:href="#DejaVuSans-28" x="225.927734"/>
      <use xlink:href="#DejaVuSans-73" x="264.941406"/>
      <use xlink:href="#DejaVuSans-29" x="317.041016"/>
     </g>
    </g>
   </g>
   <g id="matplotlib.axis_2">
    <g id="ytick_1">
     <g id="line2d_6">
      <defs>
       <path id="m674011d145" d="M 0 0 
L -3.5 0 
" style="stroke: #000000; stroke-width: 0.8"/>
      </defs>
      <g>
       <use xlink:href="#m674011d145" x="57.6" y="307.584" style="stroke: #000000; stroke-width: 0.8"/>
      </g>
     </g>
     <g id="text_7">
      <!-- 0 -->
      <g transform="translate(44.2375 311.383219)scale(0.1 -0.1)">
       <use xlink:href="#DejaVuSans-30"/>
      </g>
     </g>
    </g>
    <g id="ytick_2">
     <g id="line2d_7">
      <g>
       <use xlink:href="#m674011d145" x="57.6" y="263.232" style="stroke: #000000; stroke-width: 0.8"/>
      </g>
     </g>
     <g id="text_8">
      <!-- 50 -->
      <g transform="translate(37.875 267.031219)scale(0.1 -0.1)">
       <use xlink:href="#DejaVuSans-35"/>
       <use xlink:href="#DejaVuSans-30" x="63.623047"/>
      </g>
     </g>
    </g>
    <g id="ytick_3">
     <g id="line2d_8">
      <g>
       <use xlink:href="#m674011d145" x="57.6" y="218.88" style="stroke: #000000; stroke-width: 0.8"/>
      </g>
     </g>
     <g id="text_9">
      <!-- 100 -->
      <g transform="translate(31.5125 222.679219)scale(0.1 -0.1)">
       <use xlink:href="#DejaVuSans-31"/>
       <use xlink:href="#DejaVuSans-30" x="63.623047"/>
       <use xlink:href="#DejaVuSans-30" x="127.246094"/>
      </g>
     </g>
    </g>
    <g id="ytick_4">
     <g id="line2d_9">
      <g>
       <use xlink:href="#m674011d145" x="57.6" y="174.528" style="stroke: #000000; stroke-width: 0.8"/>
      </g>
     </g>
     <g id="text_10">
      <!-- 150 -->
      <g transform="translate(31.5125 178.327219)scale(0.1 -0.1)">
       <use xlink:href="#DejaVuSans-31"/>
       <use xlink:href="#DejaVuSans-35" x="63.623047"/>
       <use xlink:href="#DejaVuSans-30" x="127.246094"/>
      </g>
     </g>
    </g>
    <g id="ytick_5">
     <g id="line2d_10">
      <g>
       <use xlink:href="#m674011d145" x="57.6" y="130.176" style="stroke: #000000; stroke-width: 0.8"/>
      </g>
     </g>
     <g id="text_11">
      <!-- 200 -->
      <g transform="translate(31.5125 133.975219)scale(0.1 -0.1)">
       <use xlink:href="#DejaVuSans-32"/>
       <use xlink:href="#DejaVuSans-30" x="63.623047"/>
       <use xlink:href="#DejaVuSans-30" x="127.246094"/>
      </g>
     </g>
    </g>
    <g id="ytick_6">
     <g id="line2d_11">
      <g>
       <use xlink:href="#m674011d145" x="57.6" y="85.824" style="stroke: #000000; stroke-width: 0.8"/>
      </g>
     </g>
     <g id="text_12">
      <!-- 250 -->
      <g transform="translate(31.5125 89.623219)scale(0.1 -0.1)">
       <use xlink:href="#DejaVuSans-32"/>
       <use xlink:href="#DejaVuSans-35" x="63.623047"/>
       <use xlink:href="#DejaVuSans-30" x="127.246094"/>
      </g>
     </g>
    </g>
    <g id="ytick_7">
     <g id="line2d_12">
      <g>
       <use xlink:href="#m674011d145" x="57.6" y="41.472" style="stroke: #000000; stroke-width: 0.8"/>
      </g>
     </g>
     <g id="text_13">
      <!-- 300 -->
      <g transform="translate(31.5125 45.271219)scale(0.1 -0.1)">
       <defs>
        <path id="DejaVuSans-33" d="M 2597 2516 
Q 3050 2419 3304 2112 
Q 3559 1806 3559 1356 
Q 3559 666 3084 287 
Q 2609 -91 1734 -91 
Q 1441 -91 1130 -33 
Q 819 25 488 141 
L 488 750 
Q 750 597 1062 519 
Q 1375 441 1716 441 
Q 2309 441 2620 675 
Q 2931 909 2931 1356 
Q 2931 1769 2642 2001 
Q 2353 2234 1838 2234 
L 1294 2234 
L 1294 2753 
L 1863 2753 
Q 2328 2753 2575 2939 
Q 2822 3125 2822 3475 
Q 2822 3834 2567 4026 
Q 2313 4219 1838 4219 
Q 1578 4219 1281 4162 
Q 984 4106 628 3988 
L 628 4550 
Q 988 4650 1302 4700 
Q 1616 4750 1894 4750 
Q 2613 4750 3031 4423 
Q 3450 4097 3450 3541 
Q 3450 3153 3228 2886 
Q 3006 2619 2597 2516 
z
" transform="scale(0.015625)"/>
       </defs>
       <use xlink:href="#DejaVuSans-33"/>
       <use xlink:href="#DejaVuSans-30" x="63.623047"/>
       <use xlink:href="#DejaVuSans-30" x="127.246094"/>
      </g>
     </g>
    </g>
    <g id="text_14">
     <!-- Mbps -->
     <g transform="translate(25.432812 187.795187)rotate(-90)scale(0.1 -0.1)">
      <defs>
       <path id="DejaVuSans-4d" d="M 628 4666 
L 1569 4666 
L 2759 1491 
L 3956 4666 
L 4897 4666 
L 4897 0 
L 4281 0 
L 4281 4097 
L 3078 897 
L 2444 897 
L 1241 4097 
L 1241 0 
L 628 0 
L 628 4666 
z
" transform="scale(0.015625)"/>
       <path id="DejaVuSans-62" d="M 3116 1747 
Q 3116 2381 2855 2742 
Q 2594 3103 2138 3103 
Q 1681 3103 1420 2742 
Q 1159 2381 1159 1747 
Q 1159 1113 1420 752 
Q 1681 391 2138 391 
Q 2594 391 2855 752 
Q 3116 1113 3116 1747 
z
M 1159 2969 
Q 1341 3281 1617 3432 
Q 1894 3584 2278 3584 
Q 2916 3584 3314 3078 
Q 3713 2572 3713 1747 
Q 3713 922 3314 415 
Q 2916 -91 2278 -91 
Q 1894 -91 1617 61 
Q 1341 213 1159 525 
L 1159 0 
L 581 0 
L 581 4863 
L 1159 4863 
L 1159 2969 
z
" transform="scale(0.015625)"/>
       <path id="DejaVuSans-70" d="M 1159 525 
L 1159 -1331 
L 581 -1331 
L 581 3500 
L 1159 3500 
L 1159 2969 
Q 1341 3281 1617 3432 
Q 1894 3584 2278 3584 
Q 2916 3584 3314 3078 
Q 3713 2572 3713 1747 
Q 3713 922 3314 415 
Q 2916 -91 2278 -91 
Q 1894 -91 1617 61 
Q 1341 213 1159 525 
z
M 3116 1747 
Q 3116 2381 2855 2742 
Q 2594 3103 2138 3103 
Q 1681 3103 1420 2742 
Q 1159 2381 1159 1747 
Q 1159 1113 1420 752 
Q 1681 391 2138 391 
Q 2594 391 2855 752 
Q 3116 1113 3116 1747 
z
" transform="scale(0.015625)"/>
      </defs>
      <use xlink:href="#DejaVuSans-4d"/>
      <use xlink:href="#DejaVuSans-62" x="86.279297"/>
      <use xlink:href="#DejaVuSans-70" x="149.755859"/>
      <use xlink:href="#DejaVuSans-73" x="213.232422"/>
     </g>
    </g>
   </g>
   <g id="line2d_13">
    <path d="M 73.832727 260.277354 
L 74.126732 296.276476 
L 74.276429 297.393826 
L 74.422213 294.951795 
L 74.56925 290.490309 
L 74.71556 297.462513 
L 74.861322 297.987597 
L 75.007982 294.57802 
L 75.154001 299.393883 
L 75.445879 287.068681 
L 75.591684 289.342367 
L 75.737264 295.461067 
L 75.884318 289.139465 
L 76.038154 296.57182 
L 76.183738 296.797929 
L 76.332235 296.26892 
L 76.4784 299.885376 
L 76.623906 298.195507 
L 76.920966 297.418767 
L 77.06693 290.950196 
L 77.212641 294.250418 
L 77.358704 300.409526 
L 77.504225 299.947765 
L 77.649894 295.962565 
L 77.795571 284.850866 
L 77.941426 282.61905 
L 78.087118 278.362852 
L 78.382632 293.509031 
L 78.676467 291.934162 
L 78.824361 294.149975 
L 78.970325 294.204805 
L 79.115971 287.127059 
L 79.261965 290.74285 
L 79.408357 290.309047 
L 79.55611 296.253456 
L 79.702113 294.34915 
L 79.847955 298.883031 
L 79.993797 295.358543 
L 80.141327 297.128492 
L 80.287621 297.215877 
L 80.433654 293.054316 
L 80.580206 293.118846 
L 80.72854 300.201948 
L 80.87414 301.284527 
L 81.019853 300.534504 
L 81.165772 301.305098 
L 81.311559 303.49483 
L 81.457935 292.433348 
L 81.609614 293.981526 
L 81.755312 290.468497 
L 81.900867 297.058851 
L 82.348634 300.489384 
L 82.495725 295.405532 
L 82.642179 295.857099 
L 82.789722 297.462363 
L 82.937791 301.612271 
L 83.084751 300.225947 
L 83.231336 304.167263 
L 83.377177 300.881573 
L 83.524296 302.505673 
L 83.671989 298.373848 
L 83.817694 301.285407 
L 83.963945 300.584285 
L 84.111696 296.886772 
L 84.267197 302.451344 
L 84.414606 302.474367 
L 84.562613 302.114814 
L 84.708331 299.023897 
L 84.853902 256.705413 
L 84.999399 299.143053 
L 85.144981 299.062591 
L 85.297354 291.779651 
L 85.593451 301.730073 
L 85.73897 292.969677 
L 85.884794 291.595641 
L 86.031937 300.093853 
L 86.182801 298.934733 
L 86.476847 292.867755 
L 86.624196 235.452988 
L 86.769778 255.671662 
L 86.915385 295.704036 
L 87.209198 301.952068 
L 87.505613 299.061459 
L 87.651561 301.150102 
L 87.802683 296.640642 
L 88.098453 301.434486 
L 88.244868 299.630478 
L 88.391445 303.636442 
L 88.538068 303.547239 
L 88.683875 300.940812 
L 88.829579 300.387708 
L 88.98041 300.995291 
L 89.563366 293.837824 
L 89.709528 301.842607 
L 89.85966 300.546346 
L 90.005859 301.050325 
L 90.153295 303.380576 
L 90.444485 294.977151 
L 90.599506 294.052337 
L 90.745076 299.967608 
L 90.897356 300.710898 
L 91.18947 296.056727 
L 91.481556 292.731178 
L 91.627414 293.821617 
L 91.774225 299.682501 
L 91.922437 300.424593 
L 92.068616 302.39428 
L 92.216747 302.044335 
L 92.364261 304.498677 
L 92.510565 304.708328 
L 92.656908 304.518997 
L 92.954433 301.889034 
L 93.103587 299.493814 
L 93.249203 269.321506 
L 93.394761 269.926245 
L 93.541462 294.572101 
L 93.68732 298.576359 
L 93.832871 297.424921 
L 93.979296 298.691891 
L 94.271811 296.183 
L 94.417666 292.963523 
L 94.563352 295.913539 
L 94.854451 289.904207 
L 95.000402 290.297279 
L 95.295315 299.238746 
L 95.441621 297.452722 
L 95.733161 292.277046 
L 95.879755 283.098286 
L 96.027235 293.122696 
L 96.172868 287.134956 
L 96.318397 291.582949 
L 96.467793 285.495766 
L 96.613677 297.851738 
L 96.762166 296.464799 
L 96.907842 298.132196 
L 97.053882 294.886903 
L 97.199799 298.190487 
L 97.493625 290.029371 
L 97.786749 293.683971 
L 97.932305 300.408851 
L 98.079309 297.207681 
L 98.225743 289.552187 
L 98.37194 290.037759 
L 98.517526 296.400764 
L 98.663022 292.006226 
L 98.809319 294.150472 
L 98.95531 290.053867 
L 99.101338 301.014187 
L 99.253923 296.912618 
L 99.400395 296.888493 
L 99.692263 301.163942 
L 99.838781 298.208446 
L 99.98486 300.410245 
L 100.131257 298.598317 
L 100.426953 301.473378 
L 100.572987 294.105616 
L 100.721644 294.262585 
L 101.015989 299.159464 
L 101.162555 299.845729 
L 101.309136 301.990074 
L 101.459088 302.35386 
L 101.896621 297.005642 
L 102.042441 296.513667 
L 102.188343 292.47041 
L 102.334564 296.214313 
L 102.48078 294.517201 
L 102.626686 294.140285 
L 102.772809 278.755773 
L 102.918655 286.789848 
L 103.064746 280.631298 
L 103.50334 296.363758 
L 103.650439 292.808505 
L 103.94234 295.778043 
L 104.087837 293.011134 
L 104.234152 295.626857 
L 104.525334 295.528869 
L 104.818513 293.153436 
L 105.110564 278.053521 
L 105.257593 291.753696 
L 105.403312 289.589425 
L 105.54902 278.218003 
L 105.695746 287.721016 
L 105.841437 289.904939 
L 106.133224 286.920172 
L 106.279348 280.817115 
L 106.424866 289.996498 
L 106.576389 290.287735 
L 106.721933 289.397897 
L 106.86829 284.138325 
L 107.01851 293.252654 
L 107.457577 281.482975 
L 107.751941 292.317532 
L 107.898607 292.607611 
L 108.044231 286.441218 
L 108.189989 286.787995 
L 108.335498 288.10824 
L 108.481555 292.895656 
L 108.627123 291.457803 
L 108.774682 276.026013 
L 109.070575 293.235161 
L 109.21681 288.635118 
L 109.36232 288.770496 
L 109.653651 271.423278 
L 109.799152 285.105078 
L 110.236375 264.113866 
L 110.381878 286.424144 
L 110.527982 291.783639 
L 110.673488 284.684171 
L 110.81918 285.61757 
L 110.964724 291.370362 
L 111.110591 276.32409 
L 111.256535 284.564789 
L 111.402403 279.578047 
L 111.550273 281.799364 
L 111.841737 287.377898 
L 111.987282 285.809441 
L 112.280495 279.186462 
L 112.426978 272.634514 
L 112.573883 281.159875 
L 112.719486 281.77894 
L 112.865042 279.189774 
L 113.011713 281.458906 
L 113.158488 289.005814 
L 113.304516 280.815022 
L 113.59683 299.271426 
L 113.743188 297.045429 
L 113.88956 297.389244 
L 114.184101 293.361201 
L 114.329737 296.47082 
L 114.475341 293.29768 
L 114.912467 295.836809 
L 115.058785 295.813769 
L 115.210525 296.643707 
L 115.356242 290.333075 
L 115.501901 289.803374 
L 115.647574 290.373193 
L 115.794124 294.745442 
L 115.940617 292.062065 
L 116.087003 295.704719 
L 116.38092 293.309269 
L 116.526689 290.073407 
L 116.674433 295.209729 
L 116.819955 292.376436 
L 116.965906 292.05355 
L 117.112027 293.963939 
L 117.258799 291.584906 
L 117.404381 295.321184 
L 117.55077 287.65006 
L 117.697466 286.595225 
L 117.843377 293.656439 
L 117.989397 292.189145 
L 118.136137 295.446619 
L 118.282376 293.245525 
L 118.427873 294.885427 
L 118.573435 290.524221 
L 118.724682 263.665214 
L 118.871701 294.433739 
L 119.017206 296.936812 
L 119.308592 286.680477 
L 119.454259 291.740013 
L 119.599768 290.62063 
L 119.745568 290.666709 
L 119.891831 298.381292 
L 120.038098 296.414319 
L 120.185622 297.199963 
L 120.331677 297.160207 
L 120.482742 298.090814 
L 120.630244 295.730308 
L 120.775745 295.664168 
L 120.921346 291.926545 
L 121.067297 292.157174 
L 121.218492 296.463561 
L 121.364271 293.5135 
L 121.513979 295.578598 
L 121.661962 292.242506 
L 121.80756 297.042222 
L 121.953159 297.004659 
L 122.392058 288.362839 
L 122.683429 273.750435 
L 122.829018 275.696524 
L 123.120142 294.806123 
L 123.560441 283.345523 
L 123.706239 296.468383 
L 123.85192 295.145671 
L 123.997782 283.368513 
L 124.143343 300.035675 
L 124.289203 299.477987 
L 124.436386 285.807895 
L 124.582068 297.765503 
L 124.729428 299.531435 
L 124.879614 293.580084 
L 125.027081 297.580428 
L 125.318433 288.728619 
L 125.464456 289.178418 
L 125.612943 291.961967 
L 125.911007 302.503787 
L 126.202407 296.80829 
L 126.348423 300.262527 
L 126.495508 298.645179 
L 126.641105 293.21534 
L 126.786693 297.46912 
L 126.932274 296.868798 
L 127.079088 295.064034 
L 127.371018 301.940849 
L 127.518207 299.824558 
L 127.663854 301.823318 
L 127.963117 299.724705 
L 128.109467 296.747088 
L 128.25561 270.488614 
L 128.401194 280.343725 
L 128.546998 262.895388 
L 128.693252 301.651235 
L 128.988183 299.161586 
L 129.134571 303.195214 
L 129.280305 303.470794 
L 129.426501 302.691661 
L 129.721349 304.19036 
L 129.867513 302.373502 
L 130.01554 303.783881 
L 130.161193 304.052029 
L 130.452961 301.171727 
L 130.600197 296.730249 
L 130.746227 301.115393 
L 130.892472 301.505925 
L 131.042547 301.157655 
L 131.188296 256.214423 
L 131.335282 298.372414 
L 131.633135 277.381055 
L 131.779617 297.973609 
L 132.217505 303.831175 
L 132.508969 297.647984 
L 132.654995 270.160303 
L 132.800633 301.573025 
L 132.951816 301.022619 
L 133.098081 299.210072 
L 133.244045 301.815733 
L 133.390533 292.933192 
L 133.536033 301.437384 
L 133.6816 292.96841 
L 133.827485 294.474665 
L 133.97392 302.362876 
L 134.266925 299.274986 
L 134.412443 290.957534 
L 134.704025 299.054948 
L 134.851639 302.257145 
L 135.001975 301.067138 
L 135.294288 296.641588 
L 135.443264 299.184838 
L 135.589152 297.412385 
L 135.734939 288.758621 
L 136.027151 296.437754 
L 136.174542 293.510738 
L 136.322311 292.937062 
L 136.468467 295.516805 
L 136.76607 285.801657 
L 136.91193 287.776212 
L 137.057601 286.769246 
L 137.20378 295.833288 
L 137.349963 288.063948 
L 137.496921 288.557502 
L 137.642441 278.733002 
L 137.933558 219.437933 
L 138.080809 221.888403 
L 138.668284 297.663721 
L 138.959949 284.189057 
L 139.105528 293.967004 
L 139.25813 295.904918 
L 139.404058 294.542619 
L 139.552245 288.657944 
L 139.701462 299.609132 
L 139.850269 296.170999 
L 140.00031 298.672671 
L 140.146277 292.710654 
L 140.439231 298.635534 
L 140.589654 295.008393 
L 140.735867 299.981308 
L 140.882677 292.767373 
L 141.033533 295.987426 
L 141.179401 294.068689 
L 141.329014 295.661961 
L 141.477432 299.495348 
L 141.771494 289.409996 
L 141.91707 287.236422 
L 142.063407 298.985515 
L 142.209308 298.610367 
L 142.360698 294.293263 
L 142.508347 294.976266 
L 142.654903 292.166397 
L 143.095301 300.083374 
L 143.242856 304.354525 
L 143.390751 303.930076 
L 143.681969 299.158667 
L 143.82884 301.278736 
L 144.120238 294.8654 
L 144.266027 296.309769 
L 144.411803 291.365588 
L 144.558042 297.497775 
L 144.704142 294.312627 
L 144.852109 295.115542 
L 144.99913 298.548463 
L 145.144803 295.316869 
L 145.293839 299.606866 
L 145.439483 300.139218 
L 145.584981 301.269358 
L 145.730895 299.400406 
L 145.876982 291.053987 
L 146.022997 298.105048 
L 146.169451 299.77372 
L 146.315239 299.625242 
L 146.462594 303.746901 
L 146.60826 300.514947 
L 146.756822 301.388727 
L 146.903096 301.073899 
L 147.050943 301.497255 
L 147.198457 301.526427 
L 147.347578 299.136974 
L 147.493288 293.870243 
L 147.643722 298.262053 
L 147.789372 298.711272 
L 147.93634 303.335488 
L 148.082241 303.104877 
L 148.228856 299.841153 
L 148.375964 301.206105 
L 148.521558 294.966832 
L 148.671345 301.184477 
L 148.970406 303.386536 
L 149.115936 301.700994 
L 149.262268 297.802613 
L 149.408231 302.728853 
L 149.700623 289.937309 
L 149.846222 294.825804 
L 149.992397 294.803072 
L 150.139485 296.961628 
L 150.285095 301.755813 
L 150.432005 299.414033 
L 150.734648 301.057721 
L 150.881254 296.080964 
L 151.026937 300.338377 
L 151.172871 301.019376 
L 151.318427 301.057039 
L 151.465574 303.566292 
L 151.611443 297.321323 
L 151.75698 282.792369 
L 151.904218 283.710129 
L 152.050588 298.304017 
L 152.196265 296.710536 
L 152.342077 299.477614 
L 152.633148 290.72186 
L 152.779009 288.568923 
L 153.07123 300.160977 
L 153.218137 287.030059 
L 153.3665 302.460251 
L 153.658381 303.825059 
L 153.950366 299.020939 
L 154.100468 291.906097 
L 154.248524 292.427144 
L 154.39428 276.370158 
L 154.540191 279.330996 
L 154.686412 293.414449 
L 154.832945 287.966456 
L 154.978614 288.136465 
L 155.271918 298.860369 
L 155.418238 298.789695 
L 155.563935 301.855212 
L 155.710119 301.185734 
L 155.855959 298.471511 
L 156.002312 299.717635 
L 156.149002 302.6309 
L 156.295069 300.053818 
L 156.589301 289.861992 
L 156.734885 300.408661 
L 156.884753 299.503798 
L 157.030626 299.783273 
L 157.17801 298.463336 
L 157.324389 301.856558 
L 157.472439 299.074747 
L 157.620052 298.994338 
L 157.766566 303.83657 
L 157.914141 297.937277 
L 158.060208 299.891766 
L 158.354133 290.333709 
L 158.503269 291.23067 
L 158.649377 290.978186 
L 158.800132 297.216674 
L 158.946003 284.320028 
L 159.242339 301.127624 
L 159.387929 298.937242 
L 159.534066 302.222047 
L 159.680762 298.517672 
L 159.826463 299.317381 
L 159.9726 291.335358 
L 160.120679 292.87981 
L 160.269743 292.987618 
L 160.415724 295.273395 
L 160.562529 300.570138 
L 160.710226 297.17427 
L 160.860463 303.391105 
L 161.011396 303.474552 
L 161.161822 293.225078 
L 161.309333 292.767178 
L 161.455457 296.794984 
L 161.600985 249.572234 
L 161.758168 295.299062 
L 161.907978 302.627099 
L 162.053513 302.278877 
L 162.200553 300.36837 
L 162.346848 302.393107 
L 162.497999 302.830885 
L 162.644162 302.387648 
L 162.936504 292.728331 
L 163.083004 284.195354 
L 163.228659 290.080246 
L 163.374351 288.0949 
L 163.520333 289.60037 
L 163.811959 301.737916 
L 163.958258 300.782232 
L 164.105894 300.251462 
L 164.254618 301.862268 
L 164.401699 298.818657 
L 164.547537 300.256986 
L 164.838716 289.943754 
L 165.130784 301.868839 
L 165.568669 284.182713 
L 165.716542 295.579865 
L 165.862131 296.448735 
L 166.009207 293.447121 
L 166.154781 259.118128 
L 166.301089 296.610106 
L 166.44696 296.868735 
L 166.592847 301.237307 
L 166.739464 296.670371 
L 166.887212 298.863321 
L 167.032723 297.017086 
L 167.179126 297.756599 
L 167.325087 299.698499 
L 167.472179 298.696362 
L 167.618207 298.586724 
L 167.76385 296.300399 
L 168.058199 302.226925 
L 168.203922 301.072576 
L 168.352962 301.31158 
L 168.498778 301.238796 
L 168.647829 293.59924 
L 168.79338 294.477534 
L 169.088322 301.60035 
L 169.233867 301.882473 
L 169.39094 302.445332 
L 169.537519 303.685893 
L 169.68311 296.490642 
L 169.832117 302.604924 
L 169.978748 299.261683 
L 170.127314 303.10944 
L 170.272959 303.210037 
L 170.42814 301.274726 
L 170.575159 304.693234 
L 170.720924 304.684102 
L 170.866501 303.351372 
L 171.012193 299.173474 
L 171.161389 304.940457 
L 171.307301 299.52287 
L 171.605336 303.13181 
L 171.751742 295.151195 
L 172.046759 303.278299 
L 172.194653 302.756816 
L 172.340896 305.100189 
L 172.635817 298.72032 
L 172.782097 304.604316 
L 173.074616 302.738519 
L 173.224814 301.105588 
L 173.525715 304.523635 
L 173.671995 300.237205 
L 173.965441 301.964399 
L 174.111052 297.284239 
L 174.256974 298.832134 
L 174.402515 293.615726 
L 174.69404 297.560847 
L 174.839667 291.9036 
L 174.985359 293.79027 
L 175.130899 298.936738 
L 175.276512 296.390739 
L 175.422193 287.354125 
L 175.568034 298.658661 
L 175.713537 298.483192 
L 175.859603 300.778335 
L 176.005219 297.265379 
L 176.150888 296.740437 
L 176.297411 301.536268 
L 176.44442 300.064461 
L 176.591004 303.601843 
L 176.736826 304.318039 
L 177.033567 299.611396 
L 177.180536 302.666309 
L 177.327585 298.319819 
L 177.47346 303.106705 
L 177.619644 302.4399 
L 177.912679 300.151861 
L 178.058244 302.705816 
L 178.206458 299.393364 
L 178.352082 300.339804 
L 178.497646 299.887959 
L 178.644515 298.126982 
L 178.790042 302.423352 
L 178.935801 300.497981 
L 179.081461 302.760744 
L 179.228791 302.323744 
L 179.378823 301.02466 
L 179.525129 304.823237 
L 179.67705 304.273838 
L 179.82263 302.826405 
L 179.968947 302.951689 
L 180.114503 302.279199 
L 180.260014 302.308494 
L 180.405957 298.95441 
L 180.551753 290.863001 
L 180.996965 303.114524 
L 181.143197 301.38317 
L 181.288783 287.010059 
L 181.434298 303.851158 
L 181.582748 303.762882 
L 181.875439 298.794585 
L 182.18305 290.736591 
L 182.328741 293.704977 
L 182.47443 288.977773 
L 182.620059 292.479902 
L 182.76558 289.566446 
L 182.911077 291.935054 
L 183.206739 291.32117 
L 183.352876 291.371674 
L 183.499524 289.18053 
L 183.791156 290.623697 
L 184.231798 302.255384 
L 184.526412 295.269106 
L 184.676178 296.252348 
L 184.822004 298.700174 
L 184.968339 293.480074 
L 185.117565 299.30918 
L 185.409412 293.555773 
L 185.55691 294.962265 
L 185.705243 300.741744 
L 185.851136 300.196795 
L 185.99815 301.769077 
L 186.147682 300.814249 
L 186.298864 296.871935 
L 186.444847 303.949067 
L 186.590956 301.244753 
L 186.737581 302.520841 
L 186.885111 298.330038 
L 187.038834 303.805296 
L 187.195204 303.749169 
L 187.34366 302.86778 
L 187.498024 304.317674 
L 187.790536 300.084877 
L 188.08265 301.185667 
L 188.229135 300.851308 
L 188.376045 303.753302 
L 188.522781 302.309457 
L 188.669465 302.343673 
L 188.821664 303.101933 
L 189.121754 302.03179 
L 189.268174 297.059578 
L 189.565679 303.509731 
L 189.712658 303.363157 
L 189.858244 301.941962 
L 190.007785 304.129231 
L 190.153328 303.477314 
L 190.298952 299.323755 
L 190.444676 300.089927 
L 190.592739 298.743907 
L 190.738778 298.542943 
L 190.88475 299.55092 
L 191.175821 297.515204 
L 191.321384 297.91378 
L 191.467382 295.830925 
L 191.612886 297.125883 
L 191.759509 292.406794 
L 191.906227 299.447565 
L 192.051849 296.997493 
L 192.197946 297.421344 
L 192.489185 297.190832 
L 192.635345 296.009682 
L 192.782156 295.880944 
L 192.927709 299.408531 
L 193.073487 293.009959 
L 193.219048 255.795559 
L 193.365363 265.502067 
L 193.510953 290.135474 
L 193.802059 289.522739 
L 193.947613 290.101958 
L 194.093166 278.781898 
L 194.239104 289.189096 
L 194.385958 283.835658 
L 194.974282 296.08297 
L 195.119879 288.014884 
L 195.26564 292.272442 
L 195.411354 291.381532 
L 195.557108 295.024731 
L 195.849003 291.84146 
L 195.99513 297.21883 
L 196.291362 290.154987 
L 196.444485 290.24573 
L 196.590696 282.704763 
L 196.737538 290.512875 
L 196.883233 290.527222 
L 197.176049 293.085859 
L 197.321591 290.415281 
L 197.467113 295.340448 
L 197.617241 293.365567 
L 197.764395 298.2885 
L 198.055941 295.924198 
L 198.201991 295.326474 
L 198.497158 300.885062 
L 198.643248 300.010864 
L 198.789264 302.423148 
L 198.935593 301.451629 
L 199.081726 290.062886 
L 199.227736 293.893808 
L 199.37362 290.237243 
L 199.519389 282.085381 
L 199.810446 236.414773 
L 199.9587 273.619522 
L 200.108711 253.886692 
L 200.545905 299.82709 
L 200.691409 279.511828 
L 200.837021 285.978087 
L 200.983808 299.780581 
L 201.129532 297.598817 
L 201.275096 298.883872 
L 201.425369 299.155028 
L 201.716597 236.078326 
L 201.86215 241.153742 
L 202.00974 253.112205 
L 202.156494 297.929833 
L 202.447549 296.164046 
L 202.593556 297.929885 
L 202.739156 295.686874 
L 203.030308 290.241992 
L 203.176112 298.121789 
L 203.470653 299.923784 
L 203.761789 295.547077 
L 203.907404 291.84717 
L 204.205921 301.559541 
L 204.352025 301.709645 
L 204.498132 299.453431 
L 204.644242 300.835358 
L 204.789863 300.595858 
L 204.937615 301.70008 
L 205.08503 299.05922 
L 205.230771 301.69734 
L 205.385561 301.472252 
L 205.532052 299.671957 
L 205.677809 299.502992 
L 205.823512 303.82069 
L 205.971152 302.268627 
L 206.116923 298.698358 
L 206.266815 298.883119 
L 206.41241 299.347126 
L 206.563912 300.458188 
L 206.858236 297.278223 
L 207.004573 302.311035 
L 207.151033 301.393043 
L 207.298704 299.338046 
L 207.444904 300.343164 
L 207.593258 304.095379 
L 207.739451 300.642519 
L 208.032247 299.766774 
L 208.32429 302.97519 
L 208.61867 301.100952 
L 208.765706 300.935821 
L 208.917841 301.698508 
L 209.064682 303.174449 
L 209.211226 302.4421 
L 209.504226 299.639202 
L 209.652601 297.796723 
L 209.798155 297.519763 
L 209.944365 295.165 
L 210.24057 301.078007 
L 210.390436 302.141542 
L 210.543656 302.269596 
L 210.693628 303.361576 
L 210.839296 302.543398 
L 210.985238 300.188369 
L 211.278557 302.067379 
L 211.425921 301.568442 
L 211.719523 297.426205 
L 211.87094 298.468266 
L 212.164508 301.970672 
L 212.310349 302.172652 
L 212.74827 288.382707 
L 212.893773 264.932091 
L 213.039975 289.008467 
L 213.331728 302.095577 
L 213.477653 297.990283 
L 213.625964 288.875285 
L 213.77183 296.07481 
L 213.917661 292.40038 
L 214.063337 296.491771 
L 214.212824 293.370802 
L 214.358331 295.291247 
L 214.506196 292.994718 
L 214.651745 299.366763 
L 214.801193 298.2137 
L 214.947107 291.946839 
L 215.093217 291.072023 
L 215.24021 283.28406 
L 215.680692 298.836783 
L 215.828798 285.383809 
L 215.974378 298.712088 
L 216.421789 300.88343 
L 216.567546 291.267964 
L 216.865648 300.890443 
L 217.011151 297.109673 
L 217.157493 299.047219 
L 217.303699 302.540811 
L 217.449262 293.484766 
L 217.594768 293.634164 
L 217.742543 299.799443 
L 217.888058 300.144637 
L 218.042856 300.881174 
L 218.188352 300.048655 
L 218.335834 294.634223 
L 218.482323 298.625873 
L 218.627822 289.675133 
L 218.774919 294.704028 
L 218.920661 290.048601 
L 219.067969 296.392778 
L 219.213941 290.776387 
L 219.360074 250.841119 
L 219.505753 257.176601 
L 219.797128 250.792069 
L 219.942658 250.738644 
L 220.088162 250.19831 
L 220.233675 245.649908 
L 220.670478 252.554258 
L 220.815987 274.427868 
L 220.961552 249.109013 
L 221.10708 245.031129 
L 221.252643 247.254485 
L 221.398941 254.165805 
L 221.544692 246.138793 
L 221.690767 251.492641 
L 221.836277 245.124854 
L 221.98178 248.957597 
L 222.127393 243.115757 
L 222.56518 248.003213 
L 222.71111 249.33584 
L 222.857932 252.215912 
L 223.003612 249.493092 
L 223.294659 236.483419 
L 223.44052 248.598947 
L 223.586042 248.150766 
L 223.732742 244.61532 
L 223.878486 248.157634 
L 224.024029 245.922686 
L 224.169702 248.133418 
L 224.315612 247.276725 
L 224.461204 241.677347 
L 224.753649 243.467045 
L 224.899159 240.682066 
L 225.044655 240.168292 
L 225.191178 236.768366 
L 225.336992 243.771683 
L 225.629168 240.653987 
L 225.774662 241.861593 
L 225.92067 285.909663 
L 226.223101 297.903779 
L 226.518516 284.590975 
L 226.664614 293.868157 
L 226.957179 271.189832 
L 227.103813 295.500612 
L 227.249579 291.984823 
L 227.68633 298.986017 
L 227.832057 293.686887 
L 227.979342 297.422204 
L 228.125292 296.616589 
L 228.270997 285.390931 
L 228.419552 264.931655 
L 228.568151 293.931628 
L 228.716583 294.253821 
L 228.862777 298.72591 
L 229.00885 296.325981 
L 229.154493 276.82415 
L 229.300757 277.912078 
L 229.446417 293.659885 
L 229.750479 290.863222 
L 229.896042 297.166389 
L 230.338125 292.903308 
L 230.483802 285.234777 
L 230.778729 295.632549 
L 230.924227 292.234307 
L 231.223451 296.448105 
L 231.369714 290.239291 
L 231.516359 295.481227 
L 231.8075 288.586492 
L 231.960755 292.961958 
L 232.107837 281.351434 
L 232.399912 284.845548 
L 232.548392 289.856782 
L 232.694082 281.888208 
L 232.842598 287.029465 
L 233.134477 280.802229 
L 233.281499 291.669801 
L 233.426996 289.370287 
L 233.575291 291.648726 
L 233.722552 285.699746 
L 233.870218 288.856904 
L 234.016142 286.037884 
L 234.604243 297.523136 
L 234.750418 295.35933 
L 234.895976 297.878044 
L 235.043322 290.034366 
L 235.480747 299.168415 
L 235.77919 293.904393 
L 235.926401 296.410048 
L 236.071938 288.574027 
L 236.217841 290.504979 
L 236.364454 300.394195 
L 236.511578 300.905634 
L 236.657175 303.2113 
L 236.8028 301.267003 
L 236.950574 302.082811 
L 237.101567 303.544973 
L 237.248584 302.615207 
L 237.394263 290.865187 
L 237.54015 302.245516 
L 237.687974 302.759931 
L 237.833944 295.227409 
L 237.980369 296.548264 
L 238.272519 269.717383 
L 238.567206 299.759485 
L 238.864941 297.635507 
L 239.029727 302.065001 
L 239.335788 286.51669 
L 239.483815 299.844475 
L 239.629385 295.179919 
L 240.066329 301.723072 
L 240.214759 297.73662 
L 240.361218 298.992018 
L 240.652285 296.459249 
L 240.947736 303.636592 
L 241.093579 290.495563 
L 241.239823 303.177291 
L 241.387454 299.696073 
L 241.532976 299.53517 
L 241.679463 296.694963 
L 241.826831 296.889063 
L 241.97234 299.033903 
L 242.266941 289.69769 
L 242.412465 297.692248 
L 242.559719 291.069197 
L 242.705318 297.95454 
L 242.851938 299.268223 
L 243.000309 296.814527 
L 243.146049 300.35971 
L 243.294694 294.16748 
L 243.440245 300.374811 
L 243.586416 298.18877 
L 243.732255 298.467572 
L 243.878075 296.344452 
L 244.025179 296.119204 
L 244.170781 298.507296 
L 244.316448 282.386736 
L 244.464004 295.67918 
L 244.609927 295.032914 
L 244.756482 292.469048 
L 244.902158 293.896292 
L 245.06054 299.464137 
L 245.208287 286.366451 
L 245.355946 297.05124 
L 245.501461 296.491911 
L 245.647387 294.635739 
L 245.793252 287.074369 
L 245.939048 286.943994 
L 246.230752 294.734541 
L 246.380058 295.020709 
L 246.525555 301.787946 
L 246.671307 297.262325 
L 246.818056 298.091087 
L 246.965082 289.183412 
L 247.25709 300.611034 
L 247.4039 296.88733 
L 247.552526 297.914195 
L 247.843812 304.356703 
L 247.993429 302.851598 
L 248.140269 304.459445 
L 248.286002 301.610775 
L 248.431591 304.573941 
L 248.57923 300.998625 
L 248.725523 293.421017 
L 248.871939 300.178635 
L 249.018379 299.280705 
L 249.168215 299.69836 
L 249.315207 302.26988 
L 249.460951 302.287449 
L 249.606586 303.52824 
L 249.897597 298.283105 
L 250.043443 289.686979 
L 250.188993 295.405485 
L 250.335936 293.369654 
L 250.481782 289.680632 
L 250.62733 289.95067 
L 250.77286 291.243098 
L 250.918844 294.726492 
L 251.064367 290.39018 
L 251.209978 298.857103 
L 251.355823 300.687541 
L 251.501339 299.027699 
L 251.64799 302.363627 
L 251.793673 301.124822 
L 251.942259 302.522464 
L 252.088622 299.943347 
L 252.236219 294.348043 
L 252.382323 302.563848 
L 252.530017 297.668134 
L 252.675914 303.282304 
L 252.821608 302.721168 
L 252.967442 298.233082 
L 253.112961 301.789424 
L 253.266012 291.964434 
L 253.412109 296.147693 
L 253.558838 285.17731 
L 253.71035 299.142415 
L 253.856009 298.019863 
L 254.00228 291.647426 
L 254.147927 298.846843 
L 254.293515 300.468862 
L 254.439893 290.022495 
L 254.58759 300.074698 
L 254.733147 296.263507 
L 255.024854 301.963051 
L 255.171988 296.583674 
L 255.469409 300.15401 
L 255.615581 292.682759 
L 255.761087 299.825196 
L 255.909084 298.942516 
L 256.346754 287.244563 
L 256.492596 298.124581 
L 256.640217 296.899133 
L 256.785943 297.487363 
L 256.939465 302.858644 
L 257.376287 297.686642 
L 257.522225 300.427326 
L 257.667833 296.46587 
L 257.813519 296.801482 
L 258.250754 290.686063 
L 258.403089 301.141282 
L 258.549611 293.911687 
L 258.696083 301.485294 
L 258.841689 296.803874 
L 259.13363 300.631134 
L 259.282972 302.434258 
L 259.575246 296.009645 
L 259.721103 300.239372 
L 259.871048 299.59135 
L 260.019066 299.731598 
L 260.164587 302.392291 
L 260.314719 298.350911 
L 260.461344 300.650217 
L 260.606848 300.231344 
L 261.043804 281.820323 
L 261.18932 283.163379 
L 261.335102 298.454095 
L 261.481011 299.298869 
L 261.627272 296.254729 
L 261.918608 240.288254 
L 262.212625 298.810773 
L 262.358571 302.974704 
L 262.504246 296.606769 
L 262.66052 299.60379 
L 262.807612 298.262456 
L 262.953113 300.103839 
L 263.098619 297.560698 
L 263.536287 299.438304 
L 263.681824 293.531821 
L 263.973117 298.134758 
L 264.118657 298.91218 
L 264.26439 294.969407 
L 264.556778 302.566421 
L 264.702284 299.539089 
L 264.99452 298.662302 
L 265.141016 294.582978 
L 265.286537 303.507782 
L 265.432609 301.576778 
L 265.578691 303.474721 
L 265.872535 298.154588 
L 266.019902 298.451765 
L 266.165702 300.186336 
L 266.312767 300.153731 
L 266.459238 298.263253 
L 266.896435 303.200727 
L 267.047631 303.997613 
L 267.193463 299.505889 
L 267.487525 300.794251 
L 267.780746 294.423535 
L 268.075567 297.222864 
L 268.222213 288.392824 
L 268.371054 297.609759 
L 268.516955 297.879087 
L 268.666558 304.396509 
L 268.821817 303.250066 
L 268.969447 295.498815 
L 269.11948 294.597359 
L 269.264995 291.044219 
L 269.413686 299.954963 
L 269.567976 300.356558 
L 269.714908 303.208318 
L 269.86138 297.096213 
L 270.00965 303.01154 
L 270.301615 299.480127 
L 270.448128 301.057619 
L 270.593673 294.366264 
L 270.740519 249.475964 
L 270.886924 297.513506 
L 271.033441 292.743432 
L 271.183623 302.069391 
L 271.329369 282.779996 
L 271.477312 299.164394 
L 271.629163 288.836376 
L 271.780506 300.269465 
L 271.926132 301.969977 
L 272.071998 302.247755 
L 272.219175 301.757519 
L 272.365177 301.948061 
L 272.518836 296.812059 
L 272.669282 303.165741 
L 272.814907 303.938307 
L 272.96414 299.931308 
L 273.257337 272.372879 
L 273.550871 302.351434 
L 273.699019 300.688016 
L 273.846115 302.141596 
L 273.991999 301.256147 
L 274.137512 296.685055 
L 274.284134 300.774987 
L 274.432554 300.166015 
L 274.578373 304.30744 
L 274.872072 300.5089 
L 275.020707 299.207201 
L 275.16662 302.77053 
L 275.313433 299.59063 
L 275.459201 301.602547 
L 275.606198 299.75715 
L 275.751826 294.291777 
L 275.897387 300.721856 
L 276.043271 294.863701 
L 276.339214 300.974631 
L 276.491945 301.289556 
L 276.639045 300.572306 
L 277.078743 303.783392 
L 277.371945 298.461672 
L 277.518781 295.84865 
L 277.810649 303.180897 
L 277.956237 291.189167 
L 278.266045 302.338627 
L 278.42336 303.269001 
L 278.57199 301.875918 
L 278.717923 302.632548 
L 278.864957 299.289449 
L 279.010857 301.249687 
L 279.302326 292.187969 
L 279.453398 298.723742 
L 279.599045 297.258552 
L 279.745079 302.224794 
L 279.891368 291.82177 
L 280.037245 301.676544 
L 280.328344 221.690204 
L 280.473843 255.789127 
L 280.620121 219.210765 
L 280.76564 233.219333 
L 280.911339 289.019689 
L 281.056855 297.837405 
L 281.347985 208.982524 
L 281.640153 233.316545 
L 281.933497 294.21378 
L 282.07905 289.952484 
L 282.224701 240.799823 
L 282.371989 298.849737 
L 282.517612 279.393838 
L 282.816697 300.634848 
L 282.966636 300.802237 
L 283.112334 294.685587 
L 283.558735 301.685785 
L 283.705518 299.78586 
L 283.851354 300.431983 
L 283.996932 277.402677 
L 284.146393 297.449168 
L 284.437412 295.574959 
L 284.583102 297.693002 
L 284.734878 303.031151 
L 284.880471 301.15335 
L 285.026153 295.753343 
L 285.318376 298.087963 
L 285.464408 296.736632 
L 285.610204 291.58448 
L 286.340855 304.938427 
L 286.487285 297.711892 
L 286.63338 302.353068 
L 286.780012 283.945724 
L 286.927481 300.788846 
L 287.075328 297.796259 
L 287.223049 298.99835 
L 287.368704 290.374743 
L 287.514541 300.088534 
L 287.662155 299.890848 
L 287.807683 288.65198 
L 287.95385 303.510843 
L 288.100483 288.174553 
L 288.397118 301.680166 
L 288.542767 291.098629 
L 288.688275 300.827452 
L 288.834381 293.749623 
L 288.980989 303.6005 
L 289.127678 303.088973 
L 289.2732 299.392267 
L 289.419934 284.432861 
L 289.568758 297.173944 
L 290.018576 304.749791 
L 290.455233 295.147004 
L 290.604702 300.120251 
L 290.750797 288.032268 
L 291.043727 299.677948 
L 291.191325 303.57897 
L 291.336989 303.933004 
L 291.482594 301.280726 
L 291.628899 285.857462 
L 291.775225 299.047968 
L 291.921387 298.745662 
L 292.36276 302.894893 
L 292.510953 301.664495 
L 292.662206 301.783005 
L 292.807831 286.546299 
L 292.953577 286.940164 
L 293.099572 283.787511 
L 293.248177 267.867455 
L 293.394571 299.170936 
L 293.541083 294.340582 
L 293.686587 293.716447 
L 293.832131 301.114362 
L 293.984735 303.03359 
L 294.13036 300.341499 
L 294.279102 292.131695 
L 294.429353 304.498975 
L 294.868552 244.663403 
L 295.014287 250.824567 
L 295.159805 235.128617 
L 295.453879 246.064776 
L 295.761835 301.14068 
L 296.056305 289.569479 
L 296.202179 299.616561 
L 296.348053 301.26529 
L 296.4973 295.893599 
L 296.642979 300.811488 
L 296.789072 299.410781 
L 296.936825 296.289776 
L 297.083468 300.244215 
L 297.374688 295.708989 
L 297.526273 299.475404 
L 297.671846 300.13564 
L 297.822003 295.590477 
L 297.967742 235.896951 
L 298.113435 223.210809 
L 298.25925 192.290658 
L 298.404828 220.922355 
L 298.550545 180.054134 
L 298.844171 235.672005 
L 298.989679 199.353231 
L 299.282541 213.210218 
L 299.428035 211.526024 
L 299.573704 225.556122 
L 299.719356 215.412532 
L 299.86485 225.824556 
L 300.01062 191.874835 
L 300.303295 220.041801 
L 300.741124 191.974927 
L 300.887481 217.911067 
L 301.033007 206.405652 
L 301.17853 218.372961 
L 301.324041 192.929471 
L 301.470003 204.631316 
L 301.61579 226.435401 
L 301.761935 227.882508 
L 301.907449 215.610032 
L 302.052973 190.879426 
L 302.344975 207.05899 
L 302.490654 226.415509 
L 302.636288 192.63226 
L 302.927287 185.649707 
L 303.07298 186.615011 
L 303.218889 179.927971 
L 303.364513 202.303974 
L 303.510057 243.737937 
L 303.656958 247.718803 
L 303.803504 248.400681 
L 303.949288 241.802803 
L 304.095995 227.154017 
L 304.242547 188.832649 
L 304.388187 185.907203 
L 304.533709 175.781322 
L 304.679427 180.745916 
L 304.82508 174.975636 
L 304.970627 189.898552 
L 305.261643 183.759977 
L 305.407329 206.838374 
L 305.553509 194.973526 
L 305.699006 192.47325 
L 305.990648 182.059031 
L 306.136453 189.506222 
L 306.281997 185.615715 
L 306.427497 197.378553 
L 306.573275 200.117391 
L 306.718791 177.64313 
L 306.864293 246.520355 
L 307.009788 247.90111 
L 307.155623 252.55593 
L 307.301199 252.537848 
L 307.447135 249.089941 
L 307.738496 248.514595 
L 308.029511 253.087596 
L 308.175808 251.58445 
L 308.321854 257.443244 
L 308.467763 250.833681 
L 308.614331 260.921509 
L 308.905513 238.979151 
L 309.051058 242.434729 
L 309.344603 246.597755 
L 309.490125 243.611983 
L 309.63669 246.416614 
L 309.782599 244.124745 
L 309.928147 239.25959 
L 310.073852 241.812272 
L 310.219508 249.501007 
L 310.365079 243.231335 
L 310.510925 246.960156 
L 310.656917 247.650841 
L 310.948019 241.594382 
L 311.093514 234.926451 
L 311.239523 233.971861 
L 311.530759 228.213555 
L 311.82238 236.878185 
L 311.96794 240.516615 
L 312.113661 236.241684 
L 312.259307 237.792121 
L 312.55095 282.524077 
L 312.69668 240.97177 
L 312.842686 239.793777 
L 312.988288 246.173005 
L 313.280544 232.223574 
L 313.57162 244.137769 
L 313.862682 236.69215 
L 314.00831 241.55155 
L 314.154925 239.337644 
L 314.300583 240.775308 
L 314.44611 248.815416 
L 314.738083 234.899102 
L 314.883906 236.75485 
L 315.029443 236.825361 
L 315.175151 238.466219 
L 315.321229 248.44059 
L 315.466832 241.474264 
L 315.612598 254.843594 
L 315.75992 292.285585 
L 315.906389 291.970659 
L 316.052298 244.028987 
L 316.198984 235.254955 
L 316.345042 233.782283 
L 316.636556 242.2189 
L 316.782052 244.485311 
L 316.927625 239.442257 
L 317.073277 239.706969 
L 317.218842 235.631919 
L 317.365012 245.055205 
L 317.510652 240.024368 
L 317.80273 247.552556 
L 317.948373 243.727358 
L 318.093872 243.087703 
L 318.385087 233.224344 
L 318.530586 235.860895 
L 318.822524 284.561612 
L 318.968263 285.629384 
L 319.118212 289.241088 
L 319.264614 288.879658 
L 319.410522 280.028144 
L 319.556078 263.90544 
L 319.702923 265.212694 
L 319.995465 281.751427 
L 320.141025 283.959439 
L 320.286618 276.146334 
L 320.432159 279.458226 
L 320.577832 261.294588 
L 321.019522 285.89564 
L 321.165262 283.068774 
L 321.310883 283.147342 
L 321.456897 281.304221 
L 321.603396 292.237449 
L 321.749241 277.924992 
L 321.894797 277.38151 
L 322.18971 290.431757 
L 322.337045 288.037043 
L 322.48294 292.078083 
L 322.628717 291.911771 
L 322.775069 292.540183 
L 322.920783 277.651833 
L 323.066485 277.828389 
L 323.212126 287.309728 
L 323.357762 287.864668 
L 323.504078 289.585443 
L 323.649658 289.439911 
L 323.79536 289.891011 
L 323.940975 290.815845 
L 324.234725 288.152158 
L 324.38128 289.037692 
L 324.527138 278.106276 
L 324.673125 296.536134 
L 324.818735 293.304599 
L 324.964393 247.325421 
L 325.11033 287.958597 
L 325.256115 290.411948 
L 325.551029 258.929692 
L 325.845498 298.493831 
L 325.991241 288.895872 
L 326.283352 295.135567 
L 326.429581 291.264202 
L 326.575215 297.388382 
L 326.721296 298.803822 
L 326.867499 293.012035 
L 327.165107 275.246567 
L 327.311327 294.814624 
L 327.456889 289.513653 
L 327.605763 274.671125 
L 327.897316 280.847701 
L 328.19318 301.447416 
L 328.341213 295.668537 
L 328.48678 295.991028 
L 328.633346 299.559081 
L 328.783119 288.227157 
L 328.935986 303.024059 
L 329.081751 291.1582 
L 329.230067 291.786899 
L 329.668469 261.720756 
L 329.813994 200.799612 
L 330.106417 61.091941 
L 330.25192 53.489041 
L 330.398091 55.993864 
L 330.689965 300.592572 
L 330.835617 297.817728 
L 330.983122 299.237056 
L 331.128646 302.44732 
L 331.274961 302.313614 
L 331.421279 302.883902 
L 331.567459 300.015335 
L 331.713971 299.93174 
L 331.862327 296.922848 
L 332.010539 303.997022 
L 332.158634 302.560509 
L 332.304171 302.436687 
L 332.455072 302.850017 
L 332.600635 300.931145 
L 332.746573 304.58708 
L 332.892211 298.9837 
L 333.03778 304.535235 
L 333.32997 301.093539 
L 333.47714 295.973214 
L 333.624228 302.252196 
L 333.769803 301.199993 
L 333.916243 301.879926 
L 334.208358 300.080925 
L 334.354587 300.075736 
L 334.50024 280.854128 
L 334.646233 299.697934 
L 334.791819 298.970325 
L 335.083289 300.604307 
L 335.244368 303.756274 
L 335.390173 304.286043 
L 335.535772 298.375717 
L 335.68205 301.125924 
L 335.827955 300.01423 
L 335.977776 300.127079 
L 336.126123 302.56344 
L 336.271782 292.152429 
L 336.417538 292.787687 
L 336.563474 300.897251 
L 336.710156 301.274566 
L 337.002281 297.739652 
L 337.14852 301.785171 
L 337.296768 301.974948 
L 337.590678 295.930934 
L 337.737392 275.187153 
L 338.176201 302.73908 
L 338.321865 301.721262 
L 338.467479 301.792512 
L 338.614386 301.213407 
L 338.760004 297.814267 
L 338.905539 302.444229 
L 339.197463 297.549213 
L 339.784235 305.173939 
L 339.931922 300.400332 
L 340.07857 290.030154 
L 340.225266 292.157383 
L 340.370779 286.385567 
L 340.516295 293.050312 
L 340.661859 291.970524 
L 340.807422 285.858794 
L 340.953105 269.821318 
L 341.535235 47.718676 
L 341.827121 90.447494 
L 342.118811 300.871613 
L 342.270991 294.033639 
L 342.417311 299.382949 
L 342.709884 286.487296 
L 342.855901 303.852863 
L 343.147445 292.126963 
L 343.2932 302.735366 
L 343.438837 303.222553 
L 343.584971 301.241109 
L 343.730671 296.895576 
L 343.878875 297.367126 
L 344.02439 296.697074 
L 344.321496 301.097113 
L 344.466998 302.025716 
L 344.613822 298.353631 
L 344.761225 302.14438 
L 345.054968 290.77217 
L 345.200839 297.407725 
L 345.346665 297.398298 
L 345.638637 293.826125 
L 345.784208 272.909276 
L 345.930001 289.697862 
L 346.226263 294.103832 
L 346.374506 294.19643 
L 346.520119 290.064355 
L 346.667333 295.333294 
L 346.818946 290.213822 
L 346.964719 292.286314 
L 347.11089 289.960719 
L 347.256563 298.886401 
L 347.402446 298.176562 
L 347.548326 295.043536 
L 347.699226 296.203804 
L 347.846177 289.171862 
L 348.139476 272.498961 
L 348.43312 303.077094 
L 348.57872 301.93556 
L 348.724481 298.033571 
L 348.870302 298.312392 
L 349.016296 290.629782 
L 349.163056 289.482401 
L 349.308701 299.477915 
L 349.454962 299.176297 
L 349.747539 280.093388 
L 349.89441 294.330281 
L 350.039928 280.573638 
L 350.193679 298.920942 
L 350.339592 301.042685 
L 350.779022 296.662852 
L 350.92478 288.446755 
L 351.070999 293.660899 
L 351.216555 280.4708 
L 351.36275 283.325598 
L 351.51058 283.100043 
L 351.656844 288.136755 
L 351.803658 281.411377 
L 351.94951 258.927809 
L 352.242 298.064365 
L 352.387508 296.93513 
L 352.533038 293.295876 
L 352.678928 293.18502 
L 352.826436 281.643653 
L 352.972136 238.58433 
L 353.118164 296.566929 
L 353.263664 297.836942 
L 353.409673 294.997674 
L 353.556158 294.999499 
L 353.850429 298.40097 
L 353.99596 296.235218 
L 354.144198 298.771077 
L 354.435991 288.123612 
L 354.581622 302.322266 
L 354.727119 282.221705 
L 354.87274 242.85737 
L 355.018243 243.793416 
L 355.166174 292.023083 
L 355.31169 298.890542 
L 355.457413 293.269908 
L 355.750902 299.257319 
L 355.899903 298.617592 
L 356.046686 298.842101 
L 356.192505 300.76328 
L 356.338002 298.022105 
L 356.489699 298.945056 
L 356.635577 294.62223 
L 356.781544 262.66601 
L 357.074984 296.795968 
L 357.220656 297.497691 
L 357.367816 298.82889 
L 357.514163 298.688262 
L 357.810002 294.477523 
L 357.955901 294.773187 
L 358.103726 293.570132 
L 358.249281 283.770605 
L 358.394835 287.056406 
L 358.54038 293.012694 
L 358.686336 293.993593 
L 358.979593 301.015256 
L 359.126091 300.94493 
L 359.271809 299.419931 
L 359.418611 296.343851 
L 359.564993 285.0622 
L 359.71464 297.636045 
L 359.865463 298.969478 
L 360.158407 296.767943 
L 360.304411 299.880502 
L 360.450216 300.048937 
L 360.596591 299.380314 
L 360.742273 294.267355 
L 360.890003 295.13525 
L 361.036162 291.209786 
L 361.181661 295.704059 
L 361.329375 293.866934 
L 361.475444 290.414563 
L 361.621147 296.383612 
L 361.767266 293.62654 
L 361.9129 302.062072 
L 362.207922 297.200551 
L 362.49915 299.859253 
L 362.644917 298.815154 
L 362.794037 286.031918 
L 362.939694 300.514185 
L 363.085622 302.000861 
L 363.23151 300.912531 
L 363.379034 287.719707 
L 363.526545 297.822219 
L 363.673603 298.487849 
L 363.819608 297.560159 
L 363.965117 300.702265 
L 364.110659 301.377128 
L 364.259055 293.336886 
L 364.405286 299.474124 
L 364.55091 290.545985 
L 364.842277 294.682988 
L 364.987933 291.337608 
L 365.134824 297.484281 
L 365.425969 286.850634 
L 365.576592 288.436629 
L 365.87029 297.37816 
L 366.016861 287.541513 
L 366.163408 296.169721 
L 366.312031 295.041147 
L 366.462144 298.165302 
L 366.75521 295.363641 
L 366.902032 287.584326 
L 367.047536 291.288705 
L 367.193407 289.895214 
L 367.338916 294.307472 
L 367.48448 279.055515 
L 367.630073 286.104992 
L 367.775614 275.674301 
L 367.921347 291.345866 
L 368.212425 294.614979 
L 368.35851 291.664517 
L 368.504878 276.795996 
L 368.650869 286.425935 
L 368.797501 288.053692 
L 368.943 287.946289 
L 369.095139 292.133085 
L 369.242302 291.472028 
L 369.388121 294.649272 
L 369.534572 294.402891 
L 369.680778 289.594122 
L 369.82684 291.836241 
L 369.974369 291.714096 
L 370.120331 292.991701 
L 370.265834 288.763194 
L 370.417247 295.276865 
L 370.563052 292.956672 
L 370.856211 296.448352 
L 371.002013 290.683761 
L 371.297594 295.155715 
L 371.443201 283.470099 
L 371.58916 283.709974 
L 372.027257 287.617346 
L 372.172754 281.429313 
L 372.464559 290.719843 
L 372.610229 294.552144 
L 372.755821 291.252555 
L 372.901337 283.304393 
L 373.046985 285.10937 
L 373.193255 289.745245 
L 373.340536 289.702255 
L 373.777212 300.607745 
L 373.922738 291.655431 
L 374.070022 294.837239 
L 374.218129 302.730546 
L 374.364219 304.45579 
L 374.511969 303.056043 
L 374.657506 299.436385 
L 374.803099 286.017683 
L 374.948612 247.079088 
L 375.241402 281.91814 
L 375.387381 301.325808 
L 375.534203 290.107561 
L 375.682033 300.039195 
L 375.827827 298.764476 
L 375.973548 303.631308 
L 376.121763 300.951945 
L 376.267357 292.624454 
L 376.414166 292.224822 
L 376.564196 302.738821 
L 376.720665 297.980488 
L 376.866193 300.984623 
L 377.012881 299.602618 
L 377.159093 300.654327 
L 377.453445 299.334584 
L 377.599006 299.45069 
L 377.74507 293.882405 
L 377.893555 298.303207 
L 378.040301 292.258936 
L 378.185814 298.583772 
L 378.632565 299.902879 
L 378.77869 301.930066 
L 379.078395 300.500112 
L 379.225805 302.406153 
L 379.37395 301.954886 
L 379.522335 301.081517 
L 379.670022 301.425789 
L 379.815521 296.85193 
L 380.10813 302.035377 
L 380.257423 301.228761 
L 380.403074 302.411764 
L 380.54904 297.427405 
L 380.696964 298.493688 
L 380.842722 297.001173 
L 380.989102 294.04279 
L 381.135321 283.877578 
L 381.28086 284.473416 
L 381.576641 256.019845 
L 382.162468 77.369134 
L 382.307975 85.672535 
L 382.45348 78.856195 
L 382.60319 269.393903 
L 382.895002 299.813413 
L 383.044544 299.606023 
L 383.199622 301.07033 
L 383.345192 300.263804 
L 383.490692 294.925269 
L 383.636327 302.492665 
L 383.789461 302.375346 
L 384.082276 298.398138 
L 384.375236 290.860374 
L 384.675376 301.533018 
L 384.821935 301.212199 
L 385.113164 288.453199 
L 385.259163 289.796076 
L 385.404917 290.033761 
L 385.550662 287.073049 
L 385.696758 288.273606 
L 385.842253 299.743027 
L 385.987974 285.314852 
L 386.134082 298.442045 
L 386.280697 295.13546 
L 386.426221 298.509727 
L 386.571729 290.610716 
L 386.722128 299.498023 
L 386.868595 279.688227 
L 387.014172 289.579488 
L 387.159675 280.518086 
L 387.305839 285.830151 
L 387.455545 287.19846 
L 387.601166 297.16636 
L 387.892445 299.88805 
L 388.038859 297.169651 
L 388.185739 288.14993 
L 388.477997 302.841068 
L 388.624263 298.237255 
L 388.770398 300.392884 
L 388.916019 305.05292 
L 389.374326 298.612293 
L 389.519824 295.074226 
L 389.665576 295.571545 
L 389.811079 284.470413 
L 389.956597 286.50157 
L 390.10383 285.614249 
L 390.395135 281.258522 
L 390.540966 297.877651 
L 390.686511 283.886652 
L 390.832604 286.651774 
L 390.980037 281.168386 
L 391.12657 301.19238 
L 391.422496 304.463245 
L 391.574676 298.507658 
L 391.732051 304.137614 
L 391.884405 302.330525 
L 392.030332 304.033548 
L 392.176177 304.416116 
L 392.322749 304.344642 
L 392.469 296.945772 
L 392.616857 302.554849 
L 393.053728 290.227921 
L 393.344879 295.821598 
L 393.490876 295.876938 
L 393.636817 300.300832 
L 393.782366 298.493206 
L 393.928727 303.455654 
L 394.220793 289.169018 
L 394.516112 303.013458 
L 394.663802 301.311373 
L 394.80972 301.676708 
L 394.961911 283.638365 
L 395.401129 163.018207 
L 395.692138 48.938937 
L 395.837651 54.552202 
L 395.985494 135.819784 
L 396.130995 294.500146 
L 396.276908 291.191438 
L 396.423783 298.245077 
L 396.569592 298.485785 
L 396.715152 295.784809 
L 396.861136 301.395529 
L 397.007134 301.242384 
L 397.159906 304.66165 
L 397.306357 287.103099 
L 397.452042 283.40815 
L 397.599285 291.691162 
L 397.901901 281.329728 
L 398.04818 299.100833 
L 398.194211 295.929835 
L 398.340818 295.536131 
L 398.487273 288.531366 
L 398.487273 288.531366 
" clip-path="url(#p5141ad4d0f)" style="fill: none; stroke: #1f77b4; stroke-width: 1.5; stroke-linecap: square"/>
   </g>
   <g id="patch_3">
    <path d="M 57.6 307.584 
L 57.6 41.472 
" style="fill: none; stroke: #000000; stroke-width: 0.8; stroke-linejoin: miter; stroke-linecap: square"/>
   </g>
   <g id="patch_4">
    <path d="M 414.72 307.584 
L 414.72 41.472 
" style="fill: none; stroke: #000000; stroke-width: 0.8; stroke-linejoin: miter; stroke-linecap: square"/>
   </g>
   <g id="patch_5">
    <path d="M 57.6 307.584 
L 414.72 307.584 
" style="fill: none; stroke: #000000; stroke-width: 0.8; stroke-linejoin: miter; stroke-linecap: square"/>
   </g>
   <g id="patch_6">
    <path d="M 57.6 41.472 
L 414.72 41.472 
" style="fill: none; stroke: #000000; stroke-width: 0.8; stroke-linejoin: miter; stroke-linecap: square"/>
   </g>
   <g id="text_15">
    <!-- pt3 link speed per 100ms -->
    <g transform="translate(159.425625 35.472)scale(0.12 -0.12)">
     <defs>
      <path id="DejaVuSans-20" transform="scale(0.015625)"/>
      <path id="DejaVuSans-6c" d="M 603 4863 
L 1178 4863 
L 1178 0 
L 603 0 
L 603 4863 
z
" transform="scale(0.015625)"/>
      <path id="DejaVuSans-6e" d="M 3513 2113 
L 3513 0 
L 2938 0 
L 2938 2094 
Q 2938 2591 2744 2837 
Q 2550 3084 2163 3084 
Q 1697 3084 1428 2787 
Q 1159 2491 1159 1978 
L 1159 0 
L 581 0 
L 581 3500 
L 1159 3500 
L 1159 2956 
Q 1366 3272 1645 3428 
Q 1925 3584 2291 3584 
Q 2894 3584 3203 3211 
Q 3513 2838 3513 2113 
z
" transform="scale(0.015625)"/>
      <path id="DejaVuSans-6b" d="M 581 4863 
L 1159 4863 
L 1159 1991 
L 2875 3500 
L 3609 3500 
L 1753 1863 
L 3688 0 
L 2938 0 
L 1159 1709 
L 1159 0 
L 581 0 
L 581 4863 
z
" transform="scale(0.015625)"/>
      <path id="DejaVuSans-64" d="M 2906 2969 
L 2906 4863 
L 3481 4863 
L 3481 0 
L 2906 0 
L 2906 525 
Q 2725 213 2448 61 
Q 2172 -91 1784 -91 
Q 1150 -91 751 415 
Q 353 922 353 1747 
Q 353 2572 751 3078 
Q 1150 3584 1784 3584 
Q 2172 3584 2448 3432 
Q 2725 3281 2906 2969 
z
M 947 1747 
Q 947 1113 1208 752 
Q 1469 391 1925 391 
Q 2381 391 2643 752 
Q 2906 1113 2906 1747 
Q 2906 2381 2643 2742 
Q 2381 3103 1925 3103 
Q 1469 3103 1208 2742 
Q 947 2381 947 1747 
z
" transform="scale(0.015625)"/>
      <path id="DejaVuSans-72" d="M 2631 2963 
Q 2534 3019 2420 3045 
Q 2306 3072 2169 3072 
Q 1681 3072 1420 2755 
Q 1159 2438 1159 1844 
L 1159 0 
L 581 0 
L 581 3500 
L 1159 3500 
L 1159 2956 
Q 1341 3275 1631 3429 
Q 1922 3584 2338 3584 
Q 2397 3584 2469 3576 
Q 2541 3569 2628 3553 
L 2631 2963 
z
" transform="scale(0.015625)"/>
     </defs>
     <use xlink:href="#DejaVuSans-70"/>
     <use xlink:href="#DejaVuSans-74" x="63.476562"/>
     <use xlink:href="#DejaVuSans-33" x="102.685547"/>
     <use xlink:href="#DejaVuSans-20" x="166.308594"/>
     <use xlink:href="#DejaVuSans-6c" x="198.095703"/>
     <use xlink:href="#DejaVuSans-69" x="225.878906"/>
     <use xlink:href="#DejaVuSans-6e" x="253.662109"/>
     <use xlink:href="#DejaVuSans-6b" x="317.041016"/>
     <use xlink:href="#DejaVuSans-20" x="374.951172"/>
     <use xlink:href="#DejaVuSans-73" x="406.738281"/>
     <use xlink:href="#DejaVuSans-70" x="458.837891"/>
     <use xlink:href="#DejaVuSans-65" x="522.314453"/>
     <use xlink:href="#DejaVuSans-65" x="583.837891"/>
     <use xlink:href="#DejaVuSans-64" x="645.361328"/>
     <use xlink:href="#DejaVuSans-20" x="708.837891"/>
     <use xlink:href="#DejaVuSans-70" x="740.625"/>
     <use xlink:href="#DejaVuSans-65" x="804.101562"/>
     <use xlink:href="#DejaVuSans-72" x="865.625"/>
     <use xlink:href="#DejaVuSans-20" x="906.738281"/>
     <use xlink:href="#DejaVuSans-31" x="938.525391"/>
     <use xlink:href="#DejaVuSans-30" x="1002.148438"/>
     <use xlink:href="#DejaVuSans-30" x="1065.771484"/>
     <use xlink:href="#DejaVuSans-6d" x="1129.394531"/>
     <use xlink:href="#DejaVuSans-73" x="1226.806641"/>
    </g>
   </g>
  </g>
 </g>
 <defs>
  <clipPath id="p5141ad4d0f">
   <rect x="57.6" y="41.472" width="357.12" height="266.112"/>
  </clipPath>
 </defs>
</svg>
