<?xml version="1.0" encoding="utf-8" standalone="no"?>
<!DOCTYPE svg PUBLIC "-//W3C//DTD SVG 1.1//EN"
  "http://www.w3.org/Graphics/SVG/1.1/DTD/svg11.dtd">
<svg xmlns:xlink="http://www.w3.org/1999/xlink" width="460.8pt" height="345.6pt" viewBox="0 0 460.8 345.6" xmlns="http://www.w3.org/2000/svg" version="1.1">
 <metadata>
  <rdf:RDF xmlns:dc="http://purl.org/dc/elements/1.1/" xmlns:cc="http://creativecommons.org/ns#" xmlns:rdf="http://www.w3.org/1999/02/22-rdf-syntax-ns#">
   <cc:Work>
    <dc:type rdf:resource="http://purl.org/dc/dcmitype/StillImage"/>
    <dc:date>2022-07-09T23:00:24.221192</dc:date>
    <dc:format>image/svg+xml</dc:format>
    <dc:creator>
     <cc:Agent>
      <dc:title>Matplotlib v3.5.2, https://matplotlib.org/</dc:title>
     </cc:Agent>
    </dc:creator>
   </cc:Work>
  </rdf:RDF>
 </metadata>
 <defs>
  <style type="text/css">*{stroke-linejoin: round; stroke-linecap: butt}</style>
 </defs>
 <g id="figure_1">
  <g id="patch_1">
   <path d="M 0 345.6 
L 460.8 345.6 
L 460.8 0 
L 0 0 
z
" style="fill: #ffffff"/>
  </g>
  <g id="axes_1">
   <g id="patch_2">
    <path d="M 57.6 307.584 
L 414.72 307.584 
L 414.72 41.472 
L 57.6 41.472 
z
" style="fill: #ffffff"/>
   </g>
   <g id="matplotlib.axis_1">
    <g id="xtick_1">
     <g id="line2d_1">
      <defs>
       <path id="mcbe2930732" d="M 0 0 
L 0 3.5 
" style="stroke: #000000; stroke-width: 0.8"/>
      </defs>
      <g>
       <use xlink:href="#mcbe2930732" x="73.721753" y="307.584" style="stroke: #000000; stroke-width: 0.8"/>
      </g>
     </g>
     <g id="text_1">
      <!-- 0 -->
      <g transform="translate(70.540503 322.182437)scale(0.1 -0.1)">
       <defs>
        <path id="DejaVuSans-30" d="M 2034 4250 
Q 1547 4250 1301 3770 
Q 1056 3291 1056 2328 
Q 1056 1369 1301 889 
Q 1547 409 2034 409 
Q 2525 409 2770 889 
Q 3016 1369 3016 2328 
Q 3016 3291 2770 3770 
Q 2525 4250 2034 4250 
z
M 2034 4750 
Q 2819 4750 3233 4129 
Q 3647 3509 3647 2328 
Q 3647 1150 3233 529 
Q 2819 -91 2034 -91 
Q 1250 -91 836 529 
Q 422 1150 422 2328 
Q 422 3509 836 4129 
Q 1250 4750 2034 4750 
z
" transform="scale(0.015625)"/>
       </defs>
       <use xlink:href="#DejaVuSans-30"/>
      </g>
     </g>
    </g>
    <g id="xtick_2">
     <g id="line2d_2">
      <g>
       <use xlink:href="#mcbe2930732" x="128.336619" y="307.584" style="stroke: #000000; stroke-width: 0.8"/>
      </g>
     </g>
     <g id="text_2">
      <!-- 50 -->
      <g transform="translate(121.974119 322.182437)scale(0.1 -0.1)">
       <defs>
        <path id="DejaVuSans-35" d="M 691 4666 
L 3169 4666 
L 3169 4134 
L 1269 4134 
L 1269 2991 
Q 1406 3038 1543 3061 
Q 1681 3084 1819 3084 
Q 2600 3084 3056 2656 
Q 3513 2228 3513 1497 
Q 3513 744 3044 326 
Q 2575 -91 1722 -91 
Q 1428 -91 1123 -41 
Q 819 9 494 109 
L 494 744 
Q 775 591 1075 516 
Q 1375 441 1709 441 
Q 2250 441 2565 725 
Q 2881 1009 2881 1497 
Q 2881 1984 2565 2268 
Q 2250 2553 1709 2553 
Q 1456 2553 1204 2497 
Q 953 2441 691 2322 
L 691 4666 
z
" transform="scale(0.015625)"/>
       </defs>
       <use xlink:href="#DejaVuSans-35"/>
       <use xlink:href="#DejaVuSans-30" x="63.623047"/>
      </g>
     </g>
    </g>
    <g id="xtick_3">
     <g id="line2d_3">
      <g>
       <use xlink:href="#mcbe2930732" x="182.951484" y="307.584" style="stroke: #000000; stroke-width: 0.8"/>
      </g>
     </g>
     <g id="text_3">
      <!-- 100 -->
      <g transform="translate(173.407734 322.182437)scale(0.1 -0.1)">
       <defs>
        <path id="DejaVuSans-31" d="M 794 531 
L 1825 531 
L 1825 4091 
L 703 3866 
L 703 4441 
L 1819 4666 
L 2450 4666 
L 2450 531 
L 3481 531 
L 3481 0 
L 794 0 
L 794 531 
z
" transform="scale(0.015625)"/>
       </defs>
       <use xlink:href="#DejaVuSans-31"/>
       <use xlink:href="#DejaVuSans-30" x="63.623047"/>
       <use xlink:href="#DejaVuSans-30" x="127.246094"/>
      </g>
     </g>
    </g>
    <g id="xtick_4">
     <g id="line2d_4">
      <g>
       <use xlink:href="#mcbe2930732" x="237.56635" y="307.584" style="stroke: #000000; stroke-width: 0.8"/>
      </g>
     </g>
     <g id="text_4">
      <!-- 150 -->
      <g transform="translate(228.0226 322.182437)scale(0.1 -0.1)">
       <use xlink:href="#DejaVuSans-31"/>
       <use xlink:href="#DejaVuSans-35" x="63.623047"/>
       <use xlink:href="#DejaVuSans-30" x="127.246094"/>
      </g>
     </g>
    </g>
    <g id="xtick_5">
     <g id="line2d_5">
      <g>
       <use xlink:href="#mcbe2930732" x="292.181215" y="307.584" style="stroke: #000000; stroke-width: 0.8"/>
      </g>
     </g>
     <g id="text_5">
      <!-- 200 -->
      <g transform="translate(282.637465 322.182437)scale(0.1 -0.1)">
       <defs>
        <path id="DejaVuSans-32" d="M 1228 531 
L 3431 531 
L 3431 0 
L 469 0 
L 469 531 
Q 828 903 1448 1529 
Q 2069 2156 2228 2338 
Q 2531 2678 2651 2914 
Q 2772 3150 2772 3378 
Q 2772 3750 2511 3984 
Q 2250 4219 1831 4219 
Q 1534 4219 1204 4116 
Q 875 4013 500 3803 
L 500 4441 
Q 881 4594 1212 4672 
Q 1544 4750 1819 4750 
Q 2544 4750 2975 4387 
Q 3406 4025 3406 3419 
Q 3406 3131 3298 2873 
Q 3191 2616 2906 2266 
Q 2828 2175 2409 1742 
Q 1991 1309 1228 531 
z
" transform="scale(0.015625)"/>
       </defs>
       <use xlink:href="#DejaVuSans-32"/>
       <use xlink:href="#DejaVuSans-30" x="63.623047"/>
       <use xlink:href="#DejaVuSans-30" x="127.246094"/>
      </g>
     </g>
    </g>
    <g id="xtick_6">
     <g id="line2d_6">
      <g>
       <use xlink:href="#mcbe2930732" x="346.796081" y="307.584" style="stroke: #000000; stroke-width: 0.8"/>
      </g>
     </g>
     <g id="text_6">
      <!-- 250 -->
      <g transform="translate(337.252331 322.182437)scale(0.1 -0.1)">
       <use xlink:href="#DejaVuSans-32"/>
       <use xlink:href="#DejaVuSans-35" x="63.623047"/>
       <use xlink:href="#DejaVuSans-30" x="127.246094"/>
      </g>
     </g>
    </g>
    <g id="xtick_7">
     <g id="line2d_7">
      <g>
       <use xlink:href="#mcbe2930732" x="401.410946" y="307.584" style="stroke: #000000; stroke-width: 0.8"/>
      </g>
     </g>
     <g id="text_7">
      <!-- 300 -->
      <g transform="translate(391.867196 322.182437)scale(0.1 -0.1)">
       <defs>
        <path id="DejaVuSans-33" d="M 2597 2516 
Q 3050 2419 3304 2112 
Q 3559 1806 3559 1356 
Q 3559 666 3084 287 
Q 2609 -91 1734 -91 
Q 1441 -91 1130 -33 
Q 819 25 488 141 
L 488 750 
Q 750 597 1062 519 
Q 1375 441 1716 441 
Q 2309 441 2620 675 
Q 2931 909 2931 1356 
Q 2931 1769 2642 2001 
Q 2353 2234 1838 2234 
L 1294 2234 
L 1294 2753 
L 1863 2753 
Q 2328 2753 2575 2939 
Q 2822 3125 2822 3475 
Q 2822 3834 2567 4026 
Q 2313 4219 1838 4219 
Q 1578 4219 1281 4162 
Q 984 4106 628 3988 
L 628 4550 
Q 988 4650 1302 4700 
Q 1616 4750 1894 4750 
Q 2613 4750 3031 4423 
Q 3450 4097 3450 3541 
Q 3450 3153 3228 2886 
Q 3006 2619 2597 2516 
z
" transform="scale(0.015625)"/>
       </defs>
       <use xlink:href="#DejaVuSans-33"/>
       <use xlink:href="#DejaVuSans-30" x="63.623047"/>
       <use xlink:href="#DejaVuSans-30" x="127.246094"/>
      </g>
     </g>
    </g>
    <g id="text_8">
     <!-- time(s) -->
     <g transform="translate(218.357656 335.860562)scale(0.1 -0.1)">
      <defs>
       <path id="DejaVuSans-74" d="M 1172 4494 
L 1172 3500 
L 2356 3500 
L 2356 3053 
L 1172 3053 
L 1172 1153 
Q 1172 725 1289 603 
Q 1406 481 1766 481 
L 2356 481 
L 2356 0 
L 1766 0 
Q 1100 0 847 248 
Q 594 497 594 1153 
L 594 3053 
L 172 3053 
L 172 3500 
L 594 3500 
L 594 4494 
L 1172 4494 
z
" transform="scale(0.015625)"/>
       <path id="DejaVuSans-69" d="M 603 3500 
L 1178 3500 
L 1178 0 
L 603 0 
L 603 3500 
z
M 603 4863 
L 1178 4863 
L 1178 4134 
L 603 4134 
L 603 4863 
z
" transform="scale(0.015625)"/>
       <path id="DejaVuSans-6d" d="M 3328 2828 
Q 3544 3216 3844 3400 
Q 4144 3584 4550 3584 
Q 5097 3584 5394 3201 
Q 5691 2819 5691 2113 
L 5691 0 
L 5113 0 
L 5113 2094 
Q 5113 2597 4934 2840 
Q 4756 3084 4391 3084 
Q 3944 3084 3684 2787 
Q 3425 2491 3425 1978 
L 3425 0 
L 2847 0 
L 2847 2094 
Q 2847 2600 2669 2842 
Q 2491 3084 2119 3084 
Q 1678 3084 1418 2786 
Q 1159 2488 1159 1978 
L 1159 0 
L 581 0 
L 581 3500 
L 1159 3500 
L 1159 2956 
Q 1356 3278 1631 3431 
Q 1906 3584 2284 3584 
Q 2666 3584 2933 3390 
Q 3200 3197 3328 2828 
z
" transform="scale(0.015625)"/>
       <path id="DejaVuSans-65" d="M 3597 1894 
L 3597 1613 
L 953 1613 
Q 991 1019 1311 708 
Q 1631 397 2203 397 
Q 2534 397 2845 478 
Q 3156 559 3463 722 
L 3463 178 
Q 3153 47 2828 -22 
Q 2503 -91 2169 -91 
Q 1331 -91 842 396 
Q 353 884 353 1716 
Q 353 2575 817 3079 
Q 1281 3584 2069 3584 
Q 2775 3584 3186 3129 
Q 3597 2675 3597 1894 
z
M 3022 2063 
Q 3016 2534 2758 2815 
Q 2500 3097 2075 3097 
Q 1594 3097 1305 2825 
Q 1016 2553 972 2059 
L 3022 2063 
z
" transform="scale(0.015625)"/>
       <path id="DejaVuSans-28" d="M 1984 4856 
Q 1566 4138 1362 3434 
Q 1159 2731 1159 2009 
Q 1159 1288 1364 580 
Q 1569 -128 1984 -844 
L 1484 -844 
Q 1016 -109 783 600 
Q 550 1309 550 2009 
Q 550 2706 781 3412 
Q 1013 4119 1484 4856 
L 1984 4856 
z
" transform="scale(0.015625)"/>
       <path id="DejaVuSans-73" d="M 2834 3397 
L 2834 2853 
Q 2591 2978 2328 3040 
Q 2066 3103 1784 3103 
Q 1356 3103 1142 2972 
Q 928 2841 928 2578 
Q 928 2378 1081 2264 
Q 1234 2150 1697 2047 
L 1894 2003 
Q 2506 1872 2764 1633 
Q 3022 1394 3022 966 
Q 3022 478 2636 193 
Q 2250 -91 1575 -91 
Q 1294 -91 989 -36 
Q 684 19 347 128 
L 347 722 
Q 666 556 975 473 
Q 1284 391 1588 391 
Q 1994 391 2212 530 
Q 2431 669 2431 922 
Q 2431 1156 2273 1281 
Q 2116 1406 1581 1522 
L 1381 1569 
Q 847 1681 609 1914 
Q 372 2147 372 2553 
Q 372 3047 722 3315 
Q 1072 3584 1716 3584 
Q 2034 3584 2315 3537 
Q 2597 3491 2834 3397 
z
" transform="scale(0.015625)"/>
       <path id="DejaVuSans-29" d="M 513 4856 
L 1013 4856 
Q 1481 4119 1714 3412 
Q 1947 2706 1947 2009 
Q 1947 1309 1714 600 
Q 1481 -109 1013 -844 
L 513 -844 
Q 928 -128 1133 580 
Q 1338 1288 1338 2009 
Q 1338 2731 1133 3434 
Q 928 4138 513 4856 
z
" transform="scale(0.015625)"/>
      </defs>
      <use xlink:href="#DejaVuSans-74"/>
      <use xlink:href="#DejaVuSans-69" x="39.208984"/>
      <use xlink:href="#DejaVuSans-6d" x="66.992188"/>
      <use xlink:href="#DejaVuSans-65" x="164.404297"/>
      <use xlink:href="#DejaVuSans-28" x="225.927734"/>
      <use xlink:href="#DejaVuSans-73" x="264.941406"/>
      <use xlink:href="#DejaVuSans-29" x="317.041016"/>
     </g>
    </g>
   </g>
   <g id="matplotlib.axis_2">
    <g id="ytick_1">
     <g id="line2d_8">
      <defs>
       <path id="m6f1089849f" d="M 0 0 
L -3.5 0 
" style="stroke: #000000; stroke-width: 0.8"/>
      </defs>
      <g>
       <use xlink:href="#m6f1089849f" x="57.6" y="307.584" style="stroke: #000000; stroke-width: 0.8"/>
      </g>
     </g>
     <g id="text_9">
      <!-- 0 -->
      <g transform="translate(44.2375 311.383219)scale(0.1 -0.1)">
       <use xlink:href="#DejaVuSans-30"/>
      </g>
     </g>
    </g>
    <g id="ytick_2">
     <g id="line2d_9">
      <g>
       <use xlink:href="#m6f1089849f" x="57.6" y="263.232" style="stroke: #000000; stroke-width: 0.8"/>
      </g>
     </g>
     <g id="text_10">
      <!-- 50 -->
      <g transform="translate(37.875 267.031219)scale(0.1 -0.1)">
       <use xlink:href="#DejaVuSans-35"/>
       <use xlink:href="#DejaVuSans-30" x="63.623047"/>
      </g>
     </g>
    </g>
    <g id="ytick_3">
     <g id="line2d_10">
      <g>
       <use xlink:href="#m6f1089849f" x="57.6" y="218.88" style="stroke: #000000; stroke-width: 0.8"/>
      </g>
     </g>
     <g id="text_11">
      <!-- 100 -->
      <g transform="translate(31.5125 222.679219)scale(0.1 -0.1)">
       <use xlink:href="#DejaVuSans-31"/>
       <use xlink:href="#DejaVuSans-30" x="63.623047"/>
       <use xlink:href="#DejaVuSans-30" x="127.246094"/>
      </g>
     </g>
    </g>
    <g id="ytick_4">
     <g id="line2d_11">
      <g>
       <use xlink:href="#m6f1089849f" x="57.6" y="174.528" style="stroke: #000000; stroke-width: 0.8"/>
      </g>
     </g>
     <g id="text_12">
      <!-- 150 -->
      <g transform="translate(31.5125 178.327219)scale(0.1 -0.1)">
       <use xlink:href="#DejaVuSans-31"/>
       <use xlink:href="#DejaVuSans-35" x="63.623047"/>
       <use xlink:href="#DejaVuSans-30" x="127.246094"/>
      </g>
     </g>
    </g>
    <g id="ytick_5">
     <g id="line2d_12">
      <g>
       <use xlink:href="#m6f1089849f" x="57.6" y="130.176" style="stroke: #000000; stroke-width: 0.8"/>
      </g>
     </g>
     <g id="text_13">
      <!-- 200 -->
      <g transform="translate(31.5125 133.975219)scale(0.1 -0.1)">
       <use xlink:href="#DejaVuSans-32"/>
       <use xlink:href="#DejaVuSans-30" x="63.623047"/>
       <use xlink:href="#DejaVuSans-30" x="127.246094"/>
      </g>
     </g>
    </g>
    <g id="ytick_6">
     <g id="line2d_13">
      <g>
       <use xlink:href="#m6f1089849f" x="57.6" y="85.824" style="stroke: #000000; stroke-width: 0.8"/>
      </g>
     </g>
     <g id="text_14">
      <!-- 250 -->
      <g transform="translate(31.5125 89.623219)scale(0.1 -0.1)">
       <use xlink:href="#DejaVuSans-32"/>
       <use xlink:href="#DejaVuSans-35" x="63.623047"/>
       <use xlink:href="#DejaVuSans-30" x="127.246094"/>
      </g>
     </g>
    </g>
    <g id="ytick_7">
     <g id="line2d_14">
      <g>
       <use xlink:href="#m6f1089849f" x="57.6" y="41.472" style="stroke: #000000; stroke-width: 0.8"/>
      </g>
     </g>
     <g id="text_15">
      <!-- 300 -->
      <g transform="translate(31.5125 45.271219)scale(0.1 -0.1)">
       <use xlink:href="#DejaVuSans-33"/>
       <use xlink:href="#DejaVuSans-30" x="63.623047"/>
       <use xlink:href="#DejaVuSans-30" x="127.246094"/>
      </g>
     </g>
    </g>
    <g id="text_16">
     <!-- Mbps -->
     <g transform="translate(25.432812 187.795187)rotate(-90)scale(0.1 -0.1)">
      <defs>
       <path id="DejaVuSans-4d" d="M 628 4666 
L 1569 4666 
L 2759 1491 
L 3956 4666 
L 4897 4666 
L 4897 0 
L 4281 0 
L 4281 4097 
L 3078 897 
L 2444 897 
L 1241 4097 
L 1241 0 
L 628 0 
L 628 4666 
z
" transform="scale(0.015625)"/>
       <path id="DejaVuSans-62" d="M 3116 1747 
Q 3116 2381 2855 2742 
Q 2594 3103 2138 3103 
Q 1681 3103 1420 2742 
Q 1159 2381 1159 1747 
Q 1159 1113 1420 752 
Q 1681 391 2138 391 
Q 2594 391 2855 752 
Q 3116 1113 3116 1747 
z
M 1159 2969 
Q 1341 3281 1617 3432 
Q 1894 3584 2278 3584 
Q 2916 3584 3314 3078 
Q 3713 2572 3713 1747 
Q 3713 922 3314 415 
Q 2916 -91 2278 -91 
Q 1894 -91 1617 61 
Q 1341 213 1159 525 
L 1159 0 
L 581 0 
L 581 4863 
L 1159 4863 
L 1159 2969 
z
" transform="scale(0.015625)"/>
       <path id="DejaVuSans-70" d="M 1159 525 
L 1159 -1331 
L 581 -1331 
L 581 3500 
L 1159 3500 
L 1159 2969 
Q 1341 3281 1617 3432 
Q 1894 3584 2278 3584 
Q 2916 3584 3314 3078 
Q 3713 2572 3713 1747 
Q 3713 922 3314 415 
Q 2916 -91 2278 -91 
Q 1894 -91 1617 61 
Q 1341 213 1159 525 
z
M 3116 1747 
Q 3116 2381 2855 2742 
Q 2594 3103 2138 3103 
Q 1681 3103 1420 2742 
Q 1159 2381 1159 1747 
Q 1159 1113 1420 752 
Q 1681 391 2138 391 
Q 2594 391 2855 752 
Q 3116 1113 3116 1747 
z
" transform="scale(0.015625)"/>
      </defs>
      <use xlink:href="#DejaVuSans-4d"/>
      <use xlink:href="#DejaVuSans-62" x="86.279297"/>
      <use xlink:href="#DejaVuSans-70" x="149.755859"/>
      <use xlink:href="#DejaVuSans-73" x="213.232422"/>
     </g>
    </g>
   </g>
   <g id="line2d_15">
    <path d="M 73.832727 301.23701 
L 73.942125 266.62851 
L 74.05137 295.73502 
L 74.160613 246.299835 
L 74.489664 299.700203 
L 74.599291 297.084992 
L 74.712874 301.729127 
L 74.822322 301.283196 
L 75.046313 294.194691 
L 75.15723 286.864457 
L 75.379086 297.202187 
L 75.488341 296.091641 
L 75.599885 293.217468 
L 75.92778 303.600432 
L 76.039792 298.458622 
L 76.151282 303.217132 
L 76.261093 294.835181 
L 76.479559 299.58503 
L 76.5891 295.869817 
L 76.705751 301.717676 
L 76.815469 300.68686 
L 76.925945 293.68377 
L 77.144812 301.028076 
L 77.366133 293.554155 
L 77.475385 299.949668 
L 77.585154 285.854669 
L 77.803858 299.333263 
L 77.916506 299.639155 
L 78.025786 290.82632 
L 78.135068 263.728405 
L 78.35406 296.165333 
L 78.463757 299.829996 
L 78.573582 299.312605 
L 78.683634 290.41582 
L 78.7964 301.333702 
L 78.907976 297.172392 
L 79.017772 305.331305 
L 79.128581 303.441305 
L 79.240332 304.101847 
L 79.460496 300.642301 
L 79.571059 283.826538 
L 79.681123 295.858474 
L 79.790408 291.080406 
L 79.900073 296.956129 
L 80.009554 288.704125 
L 80.119064 294.930964 
L 80.228325 291.593848 
L 80.343678 299.924767 
L 80.453055 290.615076 
L 80.562872 296.599559 
L 80.673492 289.679107 
L 80.783246 297.5309 
L 80.893157 292.314847 
L 81.003028 300.740125 
L 81.11227 293.4784 
L 81.225929 299.836032 
L 81.446652 297.907369 
L 81.556093 284.499408 
L 81.665698 293.449673 
L 81.774982 278.219723 
L 81.885404 278.351774 
L 82.10891 297.76012 
L 82.329028 283.637961 
L 82.439913 291.564567 
L 82.549261 290.398497 
L 82.659558 298.135851 
L 82.768793 294.32197 
L 82.883011 300.885284 
L 82.993103 293.921669 
L 83.212243 297.617922 
L 83.432282 286.180425 
L 83.54293 287.699083 
L 83.654329 294.276319 
L 83.76426 294.109296 
L 83.984571 228.847799 
L 84.093805 236.976689 
L 84.203059 229.362592 
L 84.312301 237.283635 
L 84.421588 228.471862 
L 84.640347 298.857112 
L 84.749815 288.215253 
L 84.859473 297.265857 
L 84.968966 283.510255 
L 85.297901 297.816751 
L 85.407437 293.942417 
L 85.628241 300.212387 
L 85.847063 241.432392 
L 85.956378 236.119571 
L 86.17567 295.153205 
L 86.285049 302.092473 
L 86.394976 291.611375 
L 86.505636 302.685924 
L 86.840189 296.721867 
L 86.949421 297.906286 
L 87.06145 303.465571 
L 87.280117 300.162889 
L 87.39048 294.066862 
L 87.610324 301.754151 
L 87.720039 300.710977 
L 87.83203 301.317284 
L 87.944871 304.407419 
L 88.163773 296.672921 
L 88.385558 304.336969 
L 88.49863 305.887742 
L 88.721978 299.435071 
L 88.948267 304.835765 
L 89.057788 301.851342 
L 89.167377 302.873023 
L 89.277048 291.907503 
L 89.608234 302.005034 
L 89.722346 301.790854 
L 89.831637 295.729443 
L 89.941022 297.727447 
L 90.050275 292.505957 
L 90.269177 299.287985 
L 90.490259 304.879458 
L 90.607139 302.53469 
L 90.71961 297.894915 
L 90.829583 303.707738 
L 91.051118 300.659623 
L 91.160433 301.566835 
L 91.270144 298.719935 
L 91.489416 299.901135 
L 91.710577 301.438835 
L 91.820661 303.750234 
L 91.933065 297.258225 
L 92.042646 303.019146 
L 92.152575 301.075518 
L 92.263824 302.685514 
L 92.375494 299.734036 
L 92.487675 303.801347 
L 92.598702 295.288906 
L 93.038352 303.407676 
L 93.14984 300.610679 
L 93.259116 293.376294 
L 93.368478 302.474773 
L 93.482275 299.033552 
L 93.59347 300.658466 
L 93.924566 297.69911 
L 94.035401 303.510741 
L 94.144961 293.626406 
L 94.254935 303.384755 
L 94.364176 296.997589 
L 94.474741 301.334639 
L 94.584107 292.220026 
L 94.69339 295.554381 
L 94.80309 291.18847 
L 94.913177 300.573679 
L 95.022766 294.204932 
L 95.132782 280.751079 
L 95.353079 302.161599 
L 95.463745 301.566356 
L 95.577651 304.196739 
L 96.018918 297.293371 
L 96.237451 291.903023 
L 96.347263 297.655688 
L 96.45674 289.166378 
L 96.566374 295.575173 
L 96.78498 257.10597 
L 96.898474 298.470397 
L 97.007852 298.078329 
L 97.117457 301.504753 
L 97.226851 297.487571 
L 97.336695 298.349562 
L 97.445982 295.033546 
L 97.555316 297.503456 
L 97.664749 296.706536 
L 97.775645 294.687833 
L 97.884978 288.463803 
L 98.108401 298.815551 
L 98.217755 301.15496 
L 98.32879 292.851221 
L 98.438032 300.278323 
L 98.547998 293.80664 
L 98.657588 299.003348 
L 98.876144 287.908225 
L 98.985645 299.753233 
L 99.20463 285.78253 
L 99.423678 291.63668 
L 99.533007 291.379163 
L 99.642285 290.443988 
L 99.866823 296.52256 
L 99.976833 285.285343 
L 100.086105 300.856267 
L 100.306394 298.646743 
L 100.415675 297.708722 
L 100.525097 289.866938 
L 100.74563 293.67832 
L 100.965171 274.905817 
L 101.074879 275.527856 
L 101.294669 298.699442 
L 101.404243 299.106498 
L 101.732704 291.749295 
L 101.842186 299.36873 
L 101.953137 298.721375 
L 102.063325 295.923736 
L 102.172633 299.330925 
L 102.391611 296.212315 
L 102.613763 300.579669 
L 102.723313 297.831597 
L 102.832839 302.559965 
L 103.05563 291.544111 
L 103.165694 299.304792 
L 103.384498 296.246405 
L 103.494386 292.060002 
L 103.603688 299.857006 
L 103.713432 295.030055 
L 103.824235 300.246075 
L 103.934833 299.345044 
L 104.044313 295.256122 
L 104.26299 302.582568 
L 104.372515 295.468031 
L 104.482441 296.858749 
L 104.702028 292.957001 
L 104.811319 297.383663 
L 104.921685 297.363443 
L 105.031243 293.095387 
L 105.143369 296.360412 
L 105.25345 280.832189 
L 105.363091 286.131109 
L 105.582038 302.42882 
L 105.800851 291.410784 
L 106.019363 297.135428 
L 106.132976 298.052147 
L 106.24504 301.777781 
L 106.355644 296.272645 
L 106.470739 303.363464 
L 106.580131 299.220215 
L 106.691915 299.983328 
L 106.803997 294.471673 
L 107.023969 268.822359 
L 107.245337 298.887558 
L 107.355227 303.795518 
L 107.471756 303.886487 
L 107.701773 292.457206 
L 107.814957 293.145259 
L 108.035782 303.365852 
L 108.145017 299.17672 
L 108.255137 301.144077 
L 108.365706 285.148355 
L 108.477464 302.732761 
L 108.588848 287.260426 
L 108.808663 295.171621 
L 108.918301 286.715649 
L 109.027803 300.389166 
L 109.138044 294.042675 
L 109.247511 298.284548 
L 109.357857 296.707387 
L 109.467985 293.487692 
L 109.577259 285.925788 
L 109.796455 301.537996 
L 109.911715 302.827179 
L 110.026313 302.729973 
L 110.135995 301.773658 
L 110.245343 291.253672 
L 110.35472 303.520479 
L 110.464836 303.276517 
L 110.575058 297.284115 
L 110.687534 303.525569 
L 110.797066 302.774495 
L 111.016132 287.777163 
L 111.126036 288.59507 
L 111.237731 301.041706 
L 111.349449 300.62804 
L 111.458719 292.274906 
L 111.571645 302.756281 
L 111.791214 298.989876 
L 111.900526 303.98026 
L 112.229938 300.917121 
L 112.340028 295.574282 
L 112.451482 301.041597 
L 112.56215 300.498272 
L 112.780697 231.426971 
L 112.890153 247.626974 
L 112.99993 296.002062 
L 113.219038 287.382636 
L 113.328276 290.233144 
L 113.437648 285.790561 
L 113.54689 273.73014 
L 113.656389 280.441452 
L 113.765744 278.177634 
L 113.875108 280.613725 
L 113.985129 262.865402 
L 114.204702 290.604502 
L 114.314755 293.066963 
L 114.533443 289.241952 
L 114.753173 302.91664 
L 114.86405 303.499572 
L 114.97334 301.35841 
L 115.085815 302.824001 
L 115.19945 300.587763 
L 115.308747 274.512198 
L 115.4189 279.58289 
L 115.642098 303.667637 
L 115.862341 296.970228 
L 116.082446 299.420724 
L 116.303206 293.189366 
L 116.413518 293.675857 
L 116.522861 292.369507 
L 116.6323 295.251569 
L 116.851264 287.084621 
L 116.960742 285.384018 
L 117.18238 297.893266 
L 117.291812 291.358498 
L 117.627705 297.967119 
L 117.738156 299.107093 
L 117.96054 292.939254 
L 118.070444 299.113177 
L 118.181042 298.634954 
L 118.40061 299.099482 
L 118.72996 289.744636 
L 118.839384 298.00118 
L 119.058077 290.453794 
L 119.167523 296.049034 
L 119.279391 294.61092 
L 119.500305 300.148986 
L 119.60976 291.446656 
L 119.828688 296.947846 
L 119.938233 293.141497 
L 120.050248 301.092074 
L 120.161801 297.673014 
L 120.380547 269.431024 
L 120.490738 278.195752 
L 120.605898 303.226147 
L 120.715521 301.696895 
L 120.824826 287.404892 
L 121.043802 302.141089 
L 121.262764 295.180041 
L 121.485904 287.039357 
L 121.595719 288.388193 
L 121.712465 300.312721 
L 121.824176 299.723652 
L 122.153219 286.964639 
L 122.262452 258.583941 
L 122.481597 291.165185 
L 122.812812 303.55708 
L 123.031747 298.259771 
L 123.142499 300.184944 
L 123.251974 294.120487 
L 123.361223 302.178152 
L 123.690385 292.117927 
L 123.799737 293.583552 
L 123.909084 300.689464 
L 124.019546 300.393482 
L 124.128869 302.521891 
L 124.238263 298.213819 
L 124.348003 302.520324 
L 124.457526 301.116909 
L 124.566765 302.224493 
L 124.675997 295.626335 
L 124.787156 297.232397 
L 124.8978 304.38531 
L 125.227281 301.67291 
L 125.336599 296.892983 
L 125.446168 302.440193 
L 125.665877 295.250221 
L 125.775827 304.636316 
L 126.323632 291.158464 
L 126.433555 297.714102 
L 126.547046 297.516038 
L 126.656455 290.457765 
L 126.766423 291.849361 
L 126.876241 300.409313 
L 126.985782 292.305881 
L 127.095367 295.132803 
L 127.204621 275.564361 
L 127.313978 282.95359 
L 127.532559 302.408204 
L 127.641927 302.762404 
L 127.751326 303.511358 
L 127.860991 300.776854 
L 127.974351 303.741686 
L 128.083633 298.149043 
L 128.412896 302.945131 
L 128.522814 298.346992 
L 128.632786 303.492869 
L 128.742356 298.376043 
L 128.8516 298.910581 
L 128.961111 301.881328 
L 129.070396 301.054995 
L 129.179673 301.755416 
L 129.290389 305.618558 
L 129.399721 294.013347 
L 129.510218 305.004011 
L 129.619844 303.56754 
L 129.729696 300.305741 
L 129.839011 301.93653 
L 129.948884 301.572038 
L 130.058464 299.289197 
L 130.167975 299.537334 
L 130.277261 302.292625 
L 130.386713 299.382793 
L 130.607113 303.669331 
L 130.716524 298.954571 
L 130.828352 301.778289 
L 130.951376 301.567574 
L 131.060621 302.084082 
L 131.279911 293.894232 
L 131.503872 302.645724 
L 131.724581 294.923239 
L 132.056534 302.07197 
L 132.165888 301.001441 
L 132.386532 304.502292 
L 132.501249 300.2493 
L 132.610664 305.000267 
L 132.941922 303.503445 
L 133.051378 301.255946 
L 133.160812 303.281234 
L 133.606391 294.659351 
L 133.831455 300.648532 
L 133.940804 297.246626 
L 134.05006 298.384603 
L 134.268605 279.672765 
L 134.490329 299.091446 
L 134.708908 300.61212 
L 134.818174 301.781624 
L 135.037045 290.544019 
L 135.255707 302.156015 
L 135.477198 294.694021 
L 135.586571 294.002479 
L 135.69581 291.443019 
L 135.914601 242.454893 
L 136.023981 262.434688 
L 136.137844 304.299671 
L 136.248155 302.779013 
L 136.467868 298.408054 
L 136.578547 299.448506 
L 136.688374 304.804263 
L 136.8015 303.946575 
L 136.911856 298.396717 
L 137.02139 301.133208 
L 137.131104 271.787114 
L 137.240752 303.454809 
L 137.350408 302.478891 
L 137.459924 304.609862 
L 137.682237 302.309018 
L 137.791475 304.453975 
L 138.01107 300.903461 
L 138.120484 302.13894 
L 138.229931 300.662833 
L 138.339228 297.573752 
L 138.448805 286.474496 
L 138.669576 300.204312 
L 138.779143 295.598988 
L 138.999795 297.674164 
L 139.110591 299.069851 
L 139.222856 297.924375 
L 139.441353 299.255688 
L 139.551447 300.78332 
L 139.665307 294.801179 
L 139.77455 296.800955 
L 139.886954 292.269186 
L 139.997684 299.436657 
L 140.106962 299.033746 
L 140.435519 295.760926 
L 140.545056 287.387353 
L 140.767491 299.642893 
L 140.876763 301.114553 
L 140.987902 296.656358 
L 141.097149 300.117714 
L 141.206533 293.512322 
L 141.427321 303.519915 
L 141.873562 296.023979 
L 141.982856 288.941321 
L 142.205251 302.481389 
L 142.314516 301.948614 
L 142.53501 302.750218 
L 142.644624 301.797651 
L 142.756234 305.577021 
L 143.087812 303.926776 
L 143.197651 301.735474 
L 143.424597 306.231836 
L 143.535 301.233428 
L 143.757703 303.310245 
L 143.867011 303.125684 
L 143.977926 299.658023 
L 144.428735 305.937496 
L 144.650701 302.598867 
L 144.761262 282.779465 
L 144.870626 304.214777 
L 145.092698 304.584345 
L 145.205801 302.95834 
L 145.318557 299.660619 
L 145.433428 303.674901 
L 145.543341 299.24414 
L 145.653044 301.794568 
L 145.872627 299.519991 
L 145.982232 285.825477 
L 146.09199 297.242437 
L 146.202792 295.811407 
L 146.315367 297.547316 
L 146.425532 297.244011 
L 146.534822 300.818316 
L 146.646043 297.971092 
L 146.984692 300.981485 
L 147.094913 301.15739 
L 147.313555 297.035895 
L 147.422794 301.61412 
L 147.535281 298.505843 
L 147.756739 302.718725 
L 147.866075 296.475755 
L 147.976897 305.244494 
L 148.086553 304.605931 
L 148.196149 300.852103 
L 148.420097 303.290635 
L 148.643846 303.041336 
L 148.758562 305.758185 
L 148.981897 302.55224 
L 149.092867 305.04998 
L 149.206361 302.444356 
L 149.315768 304.338519 
L 149.535622 301.701676 
L 149.645895 303.274148 
L 149.757143 302.400272 
L 150.087761 294.364696 
L 150.197556 287.185458 
L 150.308074 300.91936 
L 150.417732 297.802318 
L 150.638602 302.589901 
L 150.748022 296.586466 
L 150.857323 304.263345 
L 150.966849 300.254611 
L 151.078367 302.018737 
L 151.187614 297.555242 
L 151.29735 297.817883 
L 151.408539 291.821971 
L 151.518431 302.468713 
L 151.628327 300.209889 
L 151.970723 304.725399 
L 152.080252 302.704546 
L 152.189702 276.237188 
L 152.298953 296.682597 
L 152.63247 292.445661 
L 152.741814 297.308747 
L 152.851634 296.9253 
L 153.075764 303.08143 
L 153.185905 301.949609 
L 153.295828 300.731016 
L 153.40749 297.508699 
L 153.516844 298.637039 
L 153.740917 303.721043 
L 153.851211 300.928684 
L 153.961438 301.932493 
L 154.074452 300.809227 
L 154.184421 302.479126 
L 154.294919 299.565543 
L 154.40552 302.393908 
L 154.514997 290.13004 
L 154.624765 303.68291 
L 154.735268 298.955095 
L 154.846123 302.467906 
L 155.068672 300.697285 
L 155.178094 300.959778 
L 155.287435 296.702547 
L 155.50698 303.740248 
L 155.618202 302.327735 
L 155.727727 303.932059 
L 155.837065 297.093743 
L 156.055939 301.58484 
L 156.165299 301.534082 
L 156.279789 302.100387 
L 156.393209 303.677959 
L 156.505206 303.65723 
L 156.616211 298.800852 
L 156.728881 300.297055 
L 157.057321 297.799057 
L 157.168159 301.107141 
L 157.277529 290.910877 
L 157.49716 299.058812 
L 157.716252 283.790803 
L 157.938858 302.223652 
L 158.048351 297.567355 
L 158.15829 303.381714 
L 158.377829 280.933253 
L 158.59657 301.148114 
L 158.706174 297.513904 
L 158.930717 303.855397 
L 159.040115 296.262764 
L 159.149574 301.790262 
L 159.259073 299.364963 
L 159.371328 303.703031 
L 159.480732 299.698706 
L 159.589966 300.149165 
L 159.701051 296.611898 
L 159.810638 288.544904 
L 160.031077 303.51891 
L 160.140429 302.180794 
L 160.250445 302.406521 
L 160.470796 300.198047 
L 160.580388 300.949641 
L 160.689745 297.441319 
L 160.909096 276.725986 
L 161.019682 280.92579 
L 161.129339 299.129162 
L 161.238649 298.855932 
L 161.459872 304.55836 
L 161.571055 302.975898 
L 161.680322 299.446791 
L 161.79265 291.535187 
L 161.901887 292.248523 
L 162.011126 295.896854 
L 162.122261 295.558803 
L 162.231515 298.792279 
L 162.341278 293.275025 
L 162.451242 296.476304 
L 162.560624 288.968835 
L 162.670158 289.130846 
L 162.779437 300.482998 
L 163.003824 297.521673 
L 163.114959 294.19897 
L 163.224585 295.771436 
L 163.333954 290.954877 
L 163.557098 303.972925 
L 163.668641 257.47345 
L 163.778275 301.587711 
L 163.887538 299.146566 
L 163.997973 303.81281 
L 164.107581 295.164679 
L 164.217388 297.197452 
L 164.32678 302.091239 
L 164.547607 298.73581 
L 164.66222 301.801296 
L 164.771541 293.166889 
L 164.881499 303.658325 
L 164.990862 290.131879 
L 165.101994 302.985498 
L 165.213505 302.465476 
L 165.325437 303.339817 
L 165.434683 293.264659 
L 165.544228 265.456638 
L 165.654062 305.313042 
L 165.768484 301.685804 
L 165.881791 303.931323 
L 166.10202 301.826084 
L 166.327685 305.092155 
L 166.437129 302.175192 
L 166.546989 303.457323 
L 166.656463 300.766386 
L 166.879688 304.247425 
L 167.099836 302.435251 
L 167.540331 288.98414 
L 167.759539 297.504786 
L 167.868907 290.935786 
L 167.979001 303.519733 
L 168.198509 298.157877 
L 168.308909 299.907391 
L 168.527845 297.631901 
L 168.637104 297.661823 
L 168.863617 303.174004 
L 168.974846 304.536925 
L 169.201412 294.443649 
L 169.425678 303.598192 
L 169.535805 293.638376 
L 169.756544 305.155958 
L 169.866536 305.31517 
L 169.976749 302.253979 
L 170.086112 304.331545 
L 170.196046 302.786883 
L 170.307409 302.801166 
L 170.417111 294.158478 
L 170.52656 294.729249 
L 170.636188 290.034958 
L 170.749799 296.816751 
L 170.859947 293.104587 
L 171.082703 303.42981 
L 171.191948 300.486143 
L 171.301621 290.075488 
L 171.520616 298.899797 
L 171.630455 290.163399 
L 171.739987 300.423637 
L 171.852473 299.809904 
L 171.962583 302.081776 
L 172.181906 295.720524 
L 172.291223 298.301369 
L 172.51211 294.568824 
L 172.622855 284.345736 
L 172.732162 288.282833 
L 172.842917 287.681463 
L 172.952329 295.86703 
L 173.061985 290.002723 
L 173.181991 293.360111 
L 173.2918 299.584552 
L 173.401392 297.847394 
L 173.511157 293.101019 
L 173.731266 302.964959 
L 173.840707 303.76586 
L 173.950594 294.738639 
L 174.06009 250.249495 
L 174.169805 293.329261 
L 174.497761 283.421988 
L 174.607085 292.839853 
L 174.716416 287.521091 
L 174.826031 289.696278 
L 174.935576 294.938375 
L 175.044936 292.356392 
L 175.15589 301.230222 
L 175.376396 281.899066 
L 175.485698 291.409876 
L 175.595608 284.817112 
L 175.814563 303.188432 
L 175.925557 303.059117 
L 176.0352 276.890891 
L 176.255916 304.39743 
L 176.474546 302.079926 
L 176.58506 302.659218 
L 176.695829 302.252302 
L 176.807015 299.663771 
L 176.916408 293.44189 
L 177.026213 296.051865 
L 177.13607 288.148956 
L 177.245375 294.264175 
L 177.356109 283.260786 
L 177.465387 302.770918 
L 177.574998 302.63738 
L 177.79423 294.204953 
L 178.013168 302.361761 
L 178.231704 299.685956 
L 178.342491 303.680829 
L 178.452058 303.402511 
L 178.671005 301.354856 
L 178.780635 300.882906 
L 178.999145 290.5034 
L 179.108521 292.190926 
L 179.217846 298.737606 
L 179.327272 298.099257 
L 179.439609 293.931251 
L 179.550795 294.465971 
L 179.771031 299.904386 
L 179.989779 296.787087 
L 180.20871 299.586131 
L 180.429751 293.723618 
L 180.648499 298.326662 
L 180.757972 303.042525 
L 180.977933 288.129651 
L 181.087512 297.955958 
L 181.196766 297.039696 
L 181.306221 300.256408 
L 181.525647 286.034491 
L 181.635432 290.5485 
L 181.745053 301.276661 
L 181.855708 299.551756 
L 181.965091 302.12432 
L 182.074425 298.142412 
L 182.185961 299.85826 
L 182.295222 299.483054 
L 182.520849 301.740461 
L 182.6326 300.951829 
L 182.743875 296.382739 
L 182.856554 302.550926 
L 182.9682 299.471937 
L 183.081478 301.440472 
L 183.191958 301.32213 
L 183.302854 302.338437 
L 183.41356 301.699637 
L 183.52283 304.186038 
L 183.637467 298.231652 
L 183.856311 299.552165 
L 183.966063 297.676148 
L 184.075445 291.292586 
L 184.184727 297.990014 
L 184.294289 294.293155 
L 184.40352 296.419232 
L 184.513218 294.946165 
L 184.732467 298.942307 
L 184.842079 298.351027 
L 184.952791 285.506326 
L 185.062162 303.139847 
L 185.284086 303.277359 
L 185.394301 267.534615 
L 185.503698 303.565537 
L 185.61546 301.376253 
L 185.726286 301.419129 
L 185.836093 292.849195 
L 185.950315 302.854118 
L 186.064184 302.269692 
L 186.17347 302.670267 
L 186.391949 298.103692 
L 186.502146 298.70235 
L 186.612188 302.085456 
L 186.721649 300.790962 
L 186.832587 301.770149 
L 186.942415 304.369286 
L 187.051908 304.156699 
L 187.161489 303.431007 
L 187.270757 303.883768 
L 187.491178 300.798903 
L 187.601284 304.186783 
L 187.710624 302.722548 
L 187.819937 303.653304 
L 187.929514 300.015454 
L 188.14912 303.679254 
L 188.591116 293.223888 
L 188.811512 300.661377 
L 188.920803 302.939779 
L 189.14384 299.860214 
L 189.261176 294.318171 
L 189.482869 305.279025 
L 189.593661 303.124858 
L 189.702942 305.136843 
L 189.812246 301.724419 
L 189.930951 302.186328 
L 190.040522 301.605556 
L 190.149999 298.795723 
L 190.259984 301.723699 
L 190.370456 300.001197 
L 190.481256 292.977045 
L 190.592795 300.843595 
L 190.702081 299.931403 
L 190.922844 300.77395 
L 191.142569 303.96428 
L 191.251848 304.098168 
L 191.361598 302.752344 
L 191.47133 303.858801 
L 191.582193 301.467008 
L 191.692042 302.972865 
L 191.802252 301.116911 
L 191.912751 305.291525 
L 192.135595 302.430166 
L 192.25351 303.242195 
L 192.36457 296.869799 
L 192.474526 301.568711 
L 192.583863 278.279869 
L 192.804078 287.12994 
L 192.913856 286.722026 
L 193.133071 301.80691 
L 193.35448 269.132639 
L 193.573549 275.832314 
L 193.684765 267.591826 
L 193.903692 297.21933 
L 194.012963 295.54939 
L 194.122307 299.885436 
L 194.231617 297.751322 
L 194.341039 298.341138 
L 194.450574 301.830209 
L 194.669151 299.612559 
L 194.778617 281.444916 
L 194.888812 282.808679 
L 194.998326 289.446788 
L 195.107837 286.905953 
L 195.217727 300.465211 
L 195.326977 295.848357 
L 195.438087 298.815395 
L 195.547495 298.433517 
L 195.657958 271.067894 
L 196.095892 302.0169 
L 196.315959 264.940606 
L 196.539308 301.016798 
L 196.757857 296.989275 
L 196.867407 296.850803 
L 196.976744 275.252029 
L 197.086213 295.672147 
L 197.195594 282.564884 
L 197.30621 296.420026 
L 197.415512 286.69328 
L 197.525107 298.434634 
L 197.634795 297.546966 
L 197.744063 294.35984 
L 197.853431 294.443772 
L 197.962925 295.529188 
L 198.072503 300.492476 
L 198.18343 286.498643 
L 198.402763 300.758932 
L 198.511994 302.646947 
L 198.843216 296.89619 
L 198.952496 298.185112 
L 199.061872 290.09619 
L 199.17121 296.66632 
L 199.280455 295.339985 
L 199.389739 279.844641 
L 199.499118 281.305433 
L 199.608846 285.027854 
L 199.718935 295.124275 
L 199.828312 292.717023 
L 199.940538 287.749265 
L 200.159312 293.59392 
L 200.268557 292.374982 
L 200.377852 284.760028 
L 200.487578 292.669849 
L 200.596956 287.391495 
L 200.706782 296.712703 
L 200.816304 296.291519 
L 200.925564 288.886559 
L 201.034844 296.13142 
L 201.144192 287.704797 
L 201.363169 295.553297 
L 201.472477 296.216495 
L 201.585803 299.855328 
L 201.805236 286.351353 
L 201.918034 302.550734 
L 202.136986 287.33268 
L 202.359842 305.076646 
L 202.47408 304.345903 
L 202.583646 305.145572 
L 202.693492 302.517805 
L 202.802773 302.545199 
L 202.912135 303.638201 
L 203.022436 298.654276 
L 203.131705 301.304527 
L 203.241133 299.782786 
L 203.350984 299.952583 
L 203.57362 304.179353 
L 203.686195 303.279914 
L 203.799195 304.137737 
L 203.908462 301.233434 
L 204.0181 301.260272 
L 204.348271 304.838077 
L 204.457877 303.177021 
L 204.567425 291.982105 
L 204.789096 303.641228 
L 205.016553 300.80605 
L 205.240405 276.676913 
L 205.461099 305.545647 
L 205.575521 305.725634 
L 205.685001 302.363264 
L 205.796994 303.038244 
L 205.906679 298.288175 
L 206.021378 304.277002 
L 206.353863 303.21748 
L 206.572986 293.227661 
L 206.695692 300.692442 
L 206.914892 293.258554 
L 207.024923 289.107913 
L 207.245178 300.678498 
L 207.354734 299.523687 
L 207.464018 302.280479 
L 207.574845 294.481793 
L 207.684943 297.698549 
L 207.794509 293.556727 
L 207.903792 297.119887 
L 208.123493 286.621522 
L 208.236072 294.313727 
L 208.348194 290.397907 
L 208.457472 296.078157 
L 208.566714 295.430293 
L 208.676143 295.734473 
L 208.78541 303.719335 
L 208.89529 302.182114 
L 209.00817 296.395447 
L 209.117613 303.897242 
L 209.337151 301.494334 
L 209.447103 301.534924 
L 209.556354 304.503984 
L 209.66711 304.263483 
L 209.777498 303.563767 
L 209.888 304.968684 
L 209.997849 303.170374 
L 210.326573 255.465825 
L 210.545908 301.428756 
L 210.655825 301.761458 
L 210.765299 306.570322 
L 211.093255 292.969553 
L 211.203637 302.586553 
L 211.314563 297.36356 
L 211.425226 299.868205 
L 211.649328 297.544402 
L 211.761594 297.769533 
L 211.871708 294.560927 
L 211.981095 301.142758 
L 212.200095 296.055901 
L 212.309448 297.879769 
L 212.419693 297.211526 
L 212.529463 297.429636 
L 212.748531 292.045016 
L 212.857834 296.033798 
L 212.968907 295.37864 
L 213.079626 296.326535 
L 213.189248 300.947513 
L 213.299199 298.962229 
L 213.408495 299.285379 
L 213.51875 297.077992 
L 213.629766 297.933135 
L 213.73906 297.303617 
L 213.960173 302.508417 
L 214.069798 300.041969 
L 214.179981 300.154041 
L 214.294851 303.21995 
L 214.624544 291.632112 
L 214.733945 290.692995 
L 214.843423 295.242034 
L 215.064812 281.696475 
L 215.28334 247.816482 
L 215.504975 300.368202 
L 215.61569 298.751429 
L 215.724953 303.521829 
L 215.835363 300.918858 
L 215.945898 301.319267 
L 216.166845 297.119212 
L 216.276103 304.771517 
L 216.385887 301.83876 
L 216.497245 303.594243 
L 216.606477 300.326865 
L 216.825519 303.896808 
L 217.155622 297.480738 
L 217.264864 299.005752 
L 217.374982 295.788384 
L 217.484358 288.507194 
L 217.704092 299.398418 
L 217.813828 299.516244 
L 218.142008 294.969804 
L 218.25154 295.116652 
L 218.471372 301.724615 
L 218.581536 302.443698 
L 218.690919 301.562315 
L 218.909818 304.716019 
L 219.022275 299.10742 
L 219.132595 299.831552 
L 219.354026 304.330355 
L 219.463504 299.784553 
L 219.692364 304.994036 
L 219.911614 301.941601 
L 220.021102 302.755812 
L 220.130508 302.533029 
L 220.349812 295.132013 
L 220.461516 302.548535 
L 220.571054 301.16903 
L 220.793227 297.073265 
L 220.903311 302.617403 
L 221.023425 302.605601 
L 221.244237 295.09431 
L 221.353688 301.707739 
L 221.57229 299.482597 
L 221.682617 288.404773 
L 221.791897 290.816849 
L 221.902334 300.626593 
L 222.011586 298.001943 
L 222.120827 300.20422 
L 222.230059 297.612241 
L 222.339408 302.127957 
L 222.562896 294.154552 
L 222.781402 302.607517 
L 222.891066 295.934587 
L 223.114455 302.918777 
L 223.22388 303.708851 
L 223.334314 303.019401 
L 223.44382 301.155634 
L 223.665448 303.529023 
L 223.774735 304.226489 
L 223.993681 299.563812 
L 224.103076 296.800825 
L 224.322114 301.958196 
L 224.431352 298.556367 
L 224.540873 302.114037 
L 224.650587 298.402587 
L 224.76375 300.546701 
L 224.872988 299.991173 
L 225.091774 295.464551 
L 225.201049 298.367655 
L 225.310693 294.595352 
L 225.421112 295.839468 
L 225.531677 300.296862 
L 225.750681 292.55362 
L 225.860879 289.54077 
L 226.082093 302.884493 
L 226.193209 303.435651 
L 226.412425 298.322452 
L 226.52821 301.025127 
L 226.637594 299.297821 
L 226.746921 301.139151 
L 226.858461 299.15957 
L 226.969541 299.797565 
L 227.07964 289.472087 
L 227.299382 300.384206 
L 227.40885 299.886553 
L 227.518554 302.606325 
L 227.627866 298.75611 
L 227.73814 301.541069 
L 227.957213 301.027346 
L 228.066704 302.983006 
L 228.176401 301.751229 
L 228.291233 302.459119 
L 228.515042 302.167208 
L 228.624377 302.20711 
L 228.7343 301.297116 
L 228.843649 299.180992 
L 228.953404 300.980626 
L 229.062645 295.331781 
L 229.174118 300.089292 
L 229.28349 299.575846 
L 229.503382 302.637648 
L 229.613044 279.045171 
L 229.831597 299.131429 
L 229.94084 290.651589 
L 230.16275 302.149239 
L 230.398231 299.934071 
L 230.624865 301.563888 
L 230.844467 303.551038 
L 231.173975 299.137033 
L 231.394262 301.408592 
L 231.503821 300.481491 
L 231.613108 286.118726 
L 231.831651 298.542412 
L 231.941336 288.566686 
L 232.05124 302.12868 
L 232.270235 286.811729 
L 232.379637 296.132199 
L 232.598533 280.31271 
L 232.817897 283.499172 
L 232.927388 291.824109 
L 233.03792 291.51983 
L 233.260967 296.962558 
L 233.479926 284.909495 
L 233.699243 296.876166 
L 233.919255 303.048902 
L 234.028648 302.032503 
L 234.137895 303.17414 
L 234.249574 292.797952 
L 234.359687 294.144306 
L 234.578266 298.530954 
L 234.687614 299.952873 
L 234.797343 304.06241 
L 235.019063 296.00128 
L 235.246129 304.297741 
L 235.468488 301.752072 
L 235.57867 300.624475 
L 235.697105 302.808615 
L 235.807583 293.967948 
L 235.91872 299.008094 
L 236.028167 297.974619 
L 236.13745 299.672923 
L 236.246879 289.044124 
L 236.356466 292.467019 
L 236.579809 290.204986 
L 236.689199 291.12873 
L 236.908409 302.492126 
L 237.021139 299.026576 
L 237.130512 302.707851 
L 237.354706 300.142662 
L 237.46394 295.918312 
L 237.684722 299.739514 
L 237.794013 298.425422 
L 237.903609 291.084019 
L 238.025109 290.493422 
L 238.135986 302.648258 
L 238.245328 301.714232 
L 238.355111 302.720321 
L 238.466575 299.904139 
L 238.575945 284.723891 
L 238.794439 298.969968 
L 238.906376 297.123173 
L 239.126173 303.880651 
L 239.23598 298.362663 
L 239.346928 301.65813 
L 239.45742 299.307505 
L 239.679262 303.078827 
L 239.898498 297.182197 
L 240.010107 297.511517 
L 240.121447 298.287709 
L 240.342471 295.474836 
L 240.451828 294.977158 
L 240.672158 301.639637 
L 240.783177 298.036626 
L 241.003843 272.279859 
L 241.114359 302.747426 
L 241.227661 303.339951 
L 241.337089 302.075349 
L 241.44656 294.058905 
L 241.667988 303.10115 
L 241.778692 301.669472 
L 241.887939 298.766309 
L 241.998167 301.138592 
L 242.219921 300.926755 
L 242.331597 301.224899 
L 242.550708 296.563032 
L 242.66029 301.875916 
L 242.769541 294.114003 
L 242.878907 278.389902 
L 243.1029 303.638403 
L 243.212297 288.618658 
L 243.321546 303.541506 
L 243.433371 302.795609 
L 243.652452 303.083719 
L 243.872811 301.152617 
L 244.203826 295.250968 
L 244.314218 289.458778 
L 244.643277 302.492147 
L 244.754805 301.379547 
L 244.864203 296.703939 
L 244.973516 298.516719 
L 245.082753 292.428122 
L 245.192275 295.483597 
L 245.520625 293.455086 
L 245.630555 294.607917 
L 245.849294 300.018738 
L 245.959262 297.764841 
L 246.068575 297.928117 
L 246.177904 297.745383 
L 246.289227 296.533306 
L 246.399793 293.51565 
L 246.509764 285.335332 
L 246.620097 298.167412 
L 246.729937 269.892968 
L 246.839305 294.602338 
L 246.948578 294.48856 
L 247.058984 296.728062 
L 247.169931 294.503311 
L 247.279269 294.524269 
L 247.500133 293.806205 
L 247.610126 296.545009 
L 247.720006 292.611839 
L 247.829246 294.243324 
L 248.049643 301.549911 
L 248.271169 305.034785 
L 248.381473 302.759379 
L 248.491408 303.080574 
L 248.60913 304.591195 
L 248.721405 302.910139 
L 248.830744 304.178982 
L 249.050527 296.620532 
L 249.16113 302.51764 
L 249.271505 300.390602 
L 249.382527 301.116845 
L 249.493698 300.671199 
L 249.604337 299.669294 
L 249.713975 300.392799 
L 249.823241 303.365604 
L 250.042278 299.235191 
L 250.151667 290.000366 
L 250.373175 296.558857 
L 250.482817 289.308633 
L 250.592301 292.630956 
L 250.81566 301.487459 
L 250.927542 302.784099 
L 251.037276 286.527651 
L 251.257392 301.303685 
L 251.479799 296.880013 
L 251.589195 298.052008 
L 251.699082 294.568982 
L 251.810208 275.412659 
L 251.920586 289.430997 
L 252.032468 280.311178 
L 252.251303 297.749643 
L 252.470296 273.655478 
L 252.5801 267.420435 
L 252.689812 233.498283 
L 252.913479 298.270331 
L 253.02379 299.785303 
L 253.133057 290.454316 
L 253.242431 292.845668 
L 253.461195 275.728872 
L 253.57219 282.859723 
L 253.681667 277.530206 
L 253.798662 281.28131 
L 253.908783 288.927849 
L 254.018118 286.36933 
L 254.128665 287.361576 
L 254.238538 274.929825 
L 254.457734 281.18782 
L 254.566983 298.655179 
L 254.67631 290.052491 
L 254.786151 300.648713 
L 255.004833 283.472374 
L 255.114553 282.631836 
L 255.44776 300.67861 
L 255.55739 296.01123 
L 255.776003 273.164204 
L 255.885752 278.131311 
L 255.997803 302.481746 
L 256.107809 280.097329 
L 256.217111 280.872133 
L 256.438625 289.136791 
L 256.548489 302.930848 
L 256.657915 296.192946 
L 256.767551 296.913123 
L 256.878788 295.277331 
L 256.988803 303.888067 
L 257.100266 302.254959 
L 257.210868 302.446693 
L 257.32023 284.017963 
L 257.429681 289.789382 
L 257.539333 289.50517 
L 257.760148 303.816452 
L 257.869396 283.832756 
L 258.307208 304.357677 
L 258.418021 302.517956 
L 258.643285 302.605078 
L 258.864028 296.815546 
L 259.084322 262.689832 
L 259.193693 303.801375 
L 259.303491 298.994656 
L 259.412756 301.058421 
L 259.636083 290.035428 
L 259.748031 291.025029 
L 259.860367 293.064543 
L 259.969774 299.698469 
L 260.079817 294.073497 
L 260.190016 299.209099 
L 260.299247 296.731823 
L 260.531277 303.797034 
L 260.750132 288.813396 
L 260.859398 289.231782 
L 260.968722 283.214309 
L 261.077963 291.521541 
L 261.187384 288.464806 
L 261.296619 288.878605 
L 261.40689 284.902796 
L 261.518447 303.223848 
L 261.628226 302.740511 
L 261.73851 297.550436 
L 261.850647 298.993096 
L 261.960735 303.486562 
L 262.071439 294.53249 
L 262.181448 299.611451 
L 262.290694 292.557899 
L 262.405576 294.187445 
L 262.62655 301.460581 
L 262.846887 298.99357 
L 262.957012 294.266601 
L 263.17778 304.010688 
L 263.287173 304.588464 
L 263.396466 301.628196 
L 263.616635 305.540748 
L 263.728013 286.372126 
L 263.841732 302.535066 
L 263.951207 302.492702 
L 264.170702 298.829936 
L 264.280257 289.023615 
L 264.390778 295.602036 
L 264.500159 286.243266 
L 264.61372 290.469022 
L 264.832294 202.904852 
L 264.941601 209.361028 
L 265.160351 227.639147 
L 265.379108 284.389224 
L 265.488445 293.212117 
L 265.597813 273.587407 
L 265.707075 232.142655 
L 265.816397 238.571662 
L 265.925912 303.918096 
L 266.144943 283.599371 
L 266.366153 301.711122 
L 266.478912 282.740942 
L 266.69856 296.633467 
L 266.80805 303.383751 
L 267.026565 296.855434 
L 267.140837 300.859635 
L 267.250116 289.727321 
L 267.471862 302.144658 
L 267.59179 300.242133 
L 267.70133 302.224276 
L 267.811245 301.291769 
L 267.921822 303.984515 
L 268.033641 303.01188 
L 268.143363 305.090607 
L 268.365498 298.596076 
L 268.477453 301.234381 
L 268.587474 298.955968 
L 268.696844 303.214759 
L 268.80626 301.84908 
L 268.917333 302.082527 
L 269.136912 300.762777 
L 269.247092 289.427541 
L 269.356339 290.316715 
L 269.465798 300.873691 
L 269.575373 300.697215 
L 269.689256 304.206053 
L 269.799159 303.041027 
L 270.022892 305.89444 
L 270.24143 302.992636 
L 270.351123 297.138138 
L 270.57125 301.68718 
L 270.791506 300.117809 
L 270.900961 291.238036 
L 271.011097 295.331012 
L 271.229938 226.109062 
L 271.451267 304.524995 
L 271.673996 300.087347 
L 271.791441 300.970944 
L 271.902925 294.592563 
L 272.012658 306.315298 
L 272.126519 303.657974 
L 272.235887 305.203212 
L 272.345861 305.175108 
L 272.457986 295.736799 
L 272.567273 301.652866 
L 272.787687 292.583813 
L 272.896932 295.763779 
L 273.00623 303.053547 
L 273.11617 299.1723 
L 273.225555 301.126678 
L 273.334899 289.207143 
L 273.554222 304.278 
L 273.663459 296.124471 
L 273.777994 297.442475 
L 273.8873 303.447439 
L 274.00248 299.0504 
L 274.112633 299.653898 
L 274.225503 298.82845 
L 274.445447 290.933644 
L 274.664505 302.9908 
L 274.885524 297.626314 
L 274.99479 297.911721 
L 275.105462 297.683008 
L 275.214974 296.669324 
L 275.324369 304.807598 
L 275.544135 291.668123 
L 275.653427 290.833843 
L 275.762727 293.567305 
L 275.871968 292.369163 
L 275.981842 297.264368 
L 276.204223 294.279745 
L 276.313504 293.932631 
L 276.424049 295.314906 
L 276.534884 290.820455 
L 276.754346 294.96719 
L 276.863812 301.503336 
L 276.97459 301.015678 
L 277.088361 303.35977 
L 277.197957 301.496114 
L 277.307838 302.939413 
L 277.4177 301.157765 
L 277.527092 301.284042 
L 277.74815 297.1364 
L 277.86022 296.621645 
L 278.082607 305.389071 
L 278.30485 301.239311 
L 278.414307 297.440872 
L 278.525225 304.324139 
L 278.636681 297.131654 
L 278.965587 252.214338 
L 279.293362 35.687377 
L 279.515274 63.921719 
L 279.734075 299.562764 
L 279.968495 299.078028 
L 280.187944 300.532207 
L 280.407774 293.553134 
L 280.629894 299.758336 
L 280.739535 298.561237 
L 280.850269 287.175991 
L 280.960143 298.185281 
L 281.069958 290.373312 
L 281.180248 303.392552 
L 281.290913 297.240121 
L 281.400266 302.320711 
L 281.619214 292.984622 
L 281.955368 304.548273 
L 282.065258 301.965048 
L 282.175267 301.75179 
L 282.28458 295.953146 
L 282.505041 302.99097 
L 282.723584 285.530247 
L 282.942459 303.994687 
L 283.054327 303.123977 
L 283.16363 284.125763 
L 283.274296 301.165305 
L 283.493554 295.516583 
L 283.603052 293.55082 
L 283.712314 299.92364 
L 283.82189 298.938214 
L 283.944537 304.696404 
L 284.167492 293.324014 
L 284.281194 289.914337 
L 284.390548 292.534903 
L 284.50108 267.772848 
L 284.720639 304.527234 
L 284.940765 298.568635 
L 285.052343 298.680014 
L 285.161695 294.830841 
L 285.381383 296.384199 
L 285.601745 284.009788 
L 285.711018 297.786842 
L 285.820473 291.86849 
L 285.933861 298.759034 
L 286.156499 290.288466 
L 286.266186 298.433256 
L 286.375432 294.675292 
L 286.485015 297.362578 
L 286.594497 305.155988 
L 286.703914 300.449641 
L 286.922557 270.465988 
L 287.141362 304.563572 
L 287.360888 302.110952 
L 287.470476 301.924902 
L 287.57996 300.417995 
L 287.690153 293.826728 
L 287.911557 303.101106 
L 288.020994 302.591569 
L 288.133035 299.71518 
L 288.252297 303.795805 
L 288.361713 303.235238 
L 288.472223 297.800939 
L 288.581483 304.648032 
L 288.806178 303.4267 
L 288.91542 300.580056 
L 289.14146 303.091201 
L 289.253022 299.041287 
L 289.364188 300.879461 
L 289.583473 293.831245 
L 289.693018 299.934912 
L 289.802281 297.023084 
L 290.02134 300.784891 
L 290.239896 296.2463 
L 290.349246 273.717311 
L 290.677695 302.831931 
L 290.786947 301.2431 
L 290.897154 300.399078 
L 291.006526 303.129483 
L 291.116018 293.787228 
L 291.225378 303.887954 
L 291.44393 294.531305 
L 291.553201 301.875619 
L 291.664922 294.126192 
L 291.779236 304.197818 
L 292.108212 300.76753 
L 292.218223 284.869783 
L 292.437039 302.281319 
L 292.547418 301.922921 
L 292.656816 297.072138 
L 292.766276 279.905753 
L 292.98571 300.743234 
L 293.208996 290.875552 
L 293.428242 304.013763 
L 293.537893 303.433763 
L 293.647185 301.904367 
L 293.756875 302.178213 
L 294.08718 293.276744 
L 294.197803 303.767494 
L 294.528939 297.007494 
L 294.640581 294.944319 
L 294.759377 304.924833 
L 294.978218 298.54071 
L 295.088366 298.165631 
L 295.197832 295.185834 
L 295.308021 300.115969 
L 295.52717 299.361265 
L 295.749511 303.695804 
L 295.86238 301.521794 
L 295.972209 296.844342 
L 296.082493 284.100206 
L 296.301734 304.124417 
L 296.410971 302.121539 
L 296.524356 302.328492 
L 296.634277 300.936263 
L 296.85303 293.254391 
L 296.963295 292.014038 
L 297.072651 301.397489 
L 297.185304 294.720063 
L 297.294721 295.070355 
L 297.406688 297.396981 
L 297.517078 296.851246 
L 297.735759 284.623434 
L 298.072424 297.651604 
L 298.185075 302.115762 
L 298.296004 300.52734 
L 298.516085 289.84002 
L 298.62554 299.590564 
L 298.734907 296.384978 
L 298.954668 286.545786 
L 299.17393 300.475178 
L 299.393487 286.272058 
L 299.614162 299.854465 
L 299.72349 299.806999 
L 299.834158 293.464712 
L 300.054329 301.345521 
L 300.16576 297.756069 
L 300.275012 286.876645 
L 300.495248 298.471082 
L 300.604858 296.875097 
L 300.717712 292.861875 
L 300.828615 304.368514 
L 300.940451 304.419328 
L 301.159436 301.548394 
L 301.269092 288.678667 
L 301.378424 289.545734 
L 301.488374 301.851806 
L 301.707781 289.832556 
L 301.927284 299.818397 
L 302.146405 302.819004 
L 302.256057 298.913011 
L 302.366932 299.779487 
L 302.476375 297.80963 
L 302.585811 300.456323 
L 302.695111 298.341343 
L 302.917758 299.231277 
L 303.031014 303.278077 
L 303.256719 299.773252 
L 303.36613 300.091329 
L 303.475994 295.253377 
L 303.585586 300.940872 
L 303.805047 297.394373 
L 303.925953 303.078721 
L 304.035337 274.717984 
L 304.149717 294.203112 
L 304.259601 287.290953 
L 304.368941 292.973614 
L 304.478658 291.50354 
L 304.588114 294.006161 
L 304.807354 301.604459 
L 305.138472 298.551158 
L 305.359374 295.455443 
L 305.468608 293.967365 
L 305.578022 296.355397 
L 305.687639 294.896258 
L 305.906629 303.186075 
L 306.015978 302.577186 
L 306.131041 304.994819 
L 306.350726 257.503935 
L 306.460542 301.836715 
L 306.572013 301.93184 
L 306.681484 299.019675 
L 306.90015 285.648419 
L 307.011562 295.53575 
L 307.233702 294.580485 
L 307.342965 269.19479 
L 307.562233 298.716118 
L 307.671545 296.14121 
L 307.894566 298.512525 
L 308.115612 281.910066 
L 308.343186 302.285935 
L 308.452598 303.338682 
L 308.564709 305.56272 
L 308.673999 298.794569 
L 308.892724 304.370855 
L 309.003861 304.175667 
L 309.122122 306.299155 
L 309.234765 304.413328 
L 309.344146 296.548358 
L 309.570985 303.116385 
L 309.680558 299.21159 
L 309.790342 301.641058 
L 309.899577 300.092327 
L 310.033637 295.98766 
L 310.252493 304.125209 
L 310.585751 303.24412 
L 310.695029 300.992707 
L 310.805428 294.88509 
L 310.914954 303.700392 
L 311.024938 301.559787 
L 311.134339 304.247544 
L 311.354663 295.9465 
L 311.468227 301.083628 
L 311.578128 295.831492 
L 311.687914 299.422493 
L 311.907531 294.015657 
L 312.127892 301.817293 
L 312.237785 301.581926 
L 312.347385 300.702234 
L 312.461507 298.591352 
L 312.573484 302.782957 
L 312.685882 301.341781 
L 312.795357 293.666254 
L 312.904666 301.088212 
L 313.014801 297.801592 
L 313.12483 300.840003 
L 313.234669 291.798727 
L 313.344534 298.863142 
L 313.455061 287.981512 
L 313.564425 296.551732 
L 313.675403 294.648994 
L 313.784733 280.634514 
L 313.894061 285.885423 
L 314.00456 301.173258 
L 314.114054 299.536454 
L 314.22373 279.451327 
L 314.333268 299.967792 
L 314.442615 289.317752 
L 314.551966 301.290573 
L 314.662328 298.763382 
L 314.771653 290.064312 
L 314.880897 295.550848 
L 314.990143 294.74174 
L 315.099439 295.092783 
L 315.20874 296.511859 
L 315.32015 301.182084 
L 315.429427 296.427437 
L 315.53899 299.128474 
L 315.648366 289.274712 
L 315.758047 289.94647 
L 315.867366 294.191118 
L 315.976982 287.069378 
L 316.086321 290.705687 
L 316.195569 283.455933 
L 316.305453 290.699599 
L 316.41469 289.87025 
L 316.633739 297.142845 
L 316.743068 301.215143 
L 316.852489 299.771036 
L 316.961926 290.404186 
L 317.071183 302.577109 
L 317.292601 296.100396 
L 317.40818 291.692698 
L 317.517595 296.770536 
L 317.627601 291.913942 
L 317.846225 300.84602 
L 317.955519 300.242193 
L 318.066328 304.323226 
L 318.176063 302.0498 
L 318.397162 303.161755 
L 318.506882 303.35343 
L 318.729154 300.362753 
L 318.84238 299.484046 
L 318.951733 302.622358 
L 319.061077 300.236576 
L 319.171147 305.52738 
L 319.281504 304.626433 
L 319.503095 301.548614 
L 319.615595 302.904046 
L 319.724841 301.430081 
L 319.834125 297.345983 
L 319.943726 299.258611 
L 320.163866 283.309599 
L 320.273105 296.194176 
L 320.382341 295.484311 
L 320.602632 300.111389 
L 320.712461 289.045834 
L 320.825276 299.048485 
L 320.935505 278.477546 
L 321.155708 296.280813 
L 321.26496 294.603263 
L 321.37503 287.598728 
L 321.484451 292.558254 
L 321.704571 290.235902 
L 321.814295 283.922639 
L 321.924772 296.256727 
L 322.034176 293.957086 
L 322.143567 278.353966 
L 322.252807 279.161715 
L 322.471522 298.55615 
L 322.690608 291.789161 
L 322.800125 300.515312 
L 323.128816 293.138052 
L 323.238099 297.668604 
L 323.347468 295.755152 
L 323.456985 296.615398 
L 323.566263 293.739431 
L 323.675643 296.740588 
L 323.785091 303.00859 
L 323.895502 300.134114 
L 324.004774 304.270194 
L 324.229392 300.486716 
L 324.338907 303.517621 
L 324.4487 263.812617 
L 324.562586 303.775416 
L 324.672157 299.380288 
L 324.783508 299.614493 
L 324.894646 303.07084 
L 325.00458 289.171709 
L 325.332426 300.438867 
L 325.441766 298.663191 
L 325.551689 304.151489 
L 325.661173 302.044448 
L 325.772485 304.064867 
L 325.887216 303.119745 
L 325.996449 304.120119 
L 326.105946 300.233194 
L 326.43446 303.415816 
L 326.654009 297.867591 
L 326.763425 302.507202 
L 326.872964 301.643912 
L 326.985998 299.555602 
L 327.095793 303.118602 
L 327.205751 302.670687 
L 327.315123 303.550759 
L 327.424448 299.752131 
L 327.533828 288.627171 
L 327.64387 293.969172 
L 327.754405 290.974794 
L 328.192924 300.203931 
L 328.302252 294.112131 
L 328.411617 295.867541 
L 328.52344 291.446961 
L 328.632747 299.951463 
L 328.742961 299.648708 
L 328.961826 294.579076 
L 329.071224 283.42265 
L 329.181736 290.488531 
L 329.291015 289.171479 
L 329.401087 278.376183 
L 329.511563 284.771251 
L 329.730399 298.995212 
L 329.842208 296.179327 
L 329.95357 289.833777 
L 330.172386 298.83144 
L 330.282024 293.988567 
L 330.505839 297.942225 
L 330.618953 305.481238 
L 330.728319 300.971748 
L 330.840398 302.076163 
L 331.063549 288.471051 
L 331.172866 303.082357 
L 331.282443 301.100231 
L 331.501178 292.465638 
L 331.610849 293.43891 
L 331.720162 286.108321 
L 331.829977 297.972768 
L 331.939281 297.504794 
L 332.048795 298.888209 
L 332.158137 291.967994 
L 332.380177 299.938804 
L 332.48991 295.515789 
L 332.599154 299.287283 
L 332.708408 297.648945 
L 332.820605 301.825263 
L 332.931997 300.062743 
L 333.044563 291.688285 
L 333.153809 301.111579 
L 333.26429 295.573581 
L 333.373834 295.85269 
L 333.483157 285.245549 
L 333.592742 286.278119 
L 333.703141 280.260785 
L 334.145366 53.01119 
L 334.254607 56.921392 
L 334.363922 95.193368 
L 334.583382 290.284349 
L 334.69312 294.348338 
L 334.802367 292.072283 
L 335.028951 300.504949 
L 335.13995 299.002655 
L 335.251845 293.97657 
L 335.361484 294.93849 
L 335.580338 297.427768 
L 335.689814 297.080462 
L 335.80213 291.274641 
L 335.913363 298.842982 
L 336.02282 298.477674 
L 336.133962 296.744209 
L 336.243213 290.570157 
L 336.355069 292.129147 
L 336.46445 290.000016 
L 336.688141 299.523926 
L 336.797569 297.544163 
L 336.907144 299.008559 
L 337.016638 298.993114 
L 337.125872 293.576283 
L 337.235155 295.513172 
L 337.344511 301.53722 
L 337.563838 298.541206 
L 337.673205 303.804062 
L 337.78245 302.761422 
L 337.892053 300.421868 
L 338.0037 301.254007 
L 338.113177 301.230879 
L 338.332166 296.032588 
L 338.441433 296.438272 
L 338.550994 293.523579 
L 338.661431 294.482653 
L 338.99487 303.200916 
L 339.104427 297.965846 
L 339.323202 304.600255 
L 339.439792 303.888202 
L 339.550546 304.176917 
L 339.659989 302.33022 
L 339.77425 302.715182 
L 339.883574 304.367326 
L 339.993053 304.276443 
L 340.102899 294.164795 
L 340.327036 301.507175 
L 340.447712 305.140409 
L 340.557418 290.097496 
L 340.669167 300.606196 
L 340.779573 296.248037 
L 341.113696 300.478153 
L 341.33251 277.542412 
L 341.441836 271.556965 
L 341.552561 286.247125 
L 341.991762 268.257997 
L 342.102674 278.927632 
L 342.321219 271.539505 
L 342.541577 300.756408 
L 342.760097 264.193704 
L 342.869722 265.558555 
L 342.97899 263.392767 
L 343.197571 268.897018 
L 343.308053 285.470793 
L 343.418294 285.145233 
L 343.527617 296.907475 
L 343.748436 294.344531 
L 343.968222 292.130549 
L 344.078642 292.622477 
L 344.298796 298.303704 
L 344.408052 295.918615 
L 344.517345 287.376566 
L 344.737838 292.438229 
L 344.849042 295.889241 
L 344.958516 295.47106 
L 345.069817 297.759565 
L 345.179469 296.550231 
L 345.399073 300.543283 
L 345.727381 291.75016 
L 345.836616 292.305382 
L 346.06226 300.560021 
L 346.171588 295.325752 
L 346.391693 301.33915 
L 346.501768 299.87926 
L 346.611095 302.119983 
L 346.830881 293.622558 
L 346.941067 295.809856 
L 347.164519 301.027042 
L 347.383287 248.922643 
L 347.603778 296.951373 
L 347.71308 298.763681 
L 347.823933 297.418029 
L 348.042902 277.697587 
L 348.262135 301.808392 
L 348.371403 298.586609 
L 348.481145 278.604642 
L 348.590969 293.039267 
L 348.700322 284.426881 
L 349.030246 300.250265 
L 349.25159 298.62848 
L 349.36409 298.683394 
L 349.587135 300.818522 
L 349.697618 298.058192 
L 349.917658 301.960778 
L 350.24935 288.758754 
L 350.358992 292.561591 
L 350.578453 257.010077 
L 350.687684 257.411166 
L 350.797021 236.829754 
L 351.02281 294.362724 
L 351.244955 300.95943 
L 351.354294 214.321838 
L 351.470656 247.521228 
L 351.580563 241.219294 
L 351.692763 254.327403 
L 351.802896 301.349427 
L 351.918722 292.704059 
L 352.141797 300.98278 
L 352.251507 298.482537 
L 352.360927 292.461698 
L 352.581665 301.572 
L 352.691307 301.10148 
L 352.80351 299.583366 
L 352.915336 292.964532 
L 353.025728 279.791957 
L 353.247919 296.107674 
L 353.35762 290.413808 
L 353.57655 297.297849 
L 353.796468 293.86495 
L 354.015375 298.658633 
L 354.126523 299.595935 
L 354.345748 289.427628 
L 354.569269 298.06846 
L 354.678518 295.926324 
L 354.898883 284.913649 
L 355.226842 301.13854 
L 355.559 295.850425 
L 355.66866 294.435104 
L 355.887417 297.033765 
L 355.997472 296.74678 
L 356.107104 294.877192 
L 356.216497 281.739217 
L 356.435205 291.730935 
L 356.656189 298.808991 
L 356.765531 295.139534 
L 356.875097 287.330787 
L 356.986456 294.490815 
L 357.095719 289.691671 
L 357.206818 299.400308 
L 357.425388 292.971289 
L 357.64424 274.041408 
L 357.862877 288.970913 
L 357.972243 290.350113 
L 358.08169 279.365146 
L 358.191171 280.371827 
L 358.300678 290.90024 
L 358.410026 287.884553 
L 358.629773 298.575307 
L 358.739169 300.560928 
L 358.848485 298.670697 
L 358.959082 300.432633 
L 359.068957 299.140254 
L 359.179118 299.468771 
L 359.28913 299.22962 
L 359.398767 298.307564 
L 359.730325 287.03735 
L 359.839628 293.605256 
L 359.949469 287.30482 
L 360.170146 295.503686 
L 360.389205 299.864507 
L 360.498445 300.40878 
L 360.608899 296.490288 
L 360.718616 297.829339 
L 360.832123 294.553371 
L 360.943911 297.945713 
L 361.053325 292.843207 
L 361.162633 294.415183 
L 361.272613 277.335002 
L 361.381876 280.246992 
L 361.491795 292.597491 
L 361.60148 280.499467 
L 361.820576 293.500892 
L 361.929841 291.403932 
L 362.039251 280.407882 
L 362.260846 296.743353 
L 362.372056 298.793188 
L 362.591924 292.028306 
L 362.812372 293.397224 
L 363.033823 301.883676 
L 363.143138 298.678722 
L 363.361659 304.2318 
L 363.471335 302.545707 
L 363.582646 303.933605 
L 363.692106 301.183803 
L 363.808196 301.579773 
L 363.917527 303.534488 
L 364.029568 302.97039 
L 364.139004 305.821805 
L 364.248855 301.66337 
L 364.358132 293.148534 
L 364.467831 301.15625 
L 364.577549 300.11458 
L 364.688462 294.080102 
L 364.797718 296.353531 
L 364.907007 295.300643 
L 365.131275 301.226599 
L 365.24099 304.016475 
L 365.569685 285.344144 
L 365.790482 300.940413 
L 366.009024 285.547375 
L 366.121367 285.947174 
L 366.230939 301.350269 
L 366.559606 289.303263 
L 366.668852 288.133717 
L 366.780126 289.14615 
L 366.889442 287.773827 
L 367.108637 298.28065 
L 367.219173 291.597038 
L 367.329027 293.987272 
L 367.438705 303.142623 
L 367.549316 302.541197 
L 367.773025 297.978801 
L 368.101991 302.658201 
L 368.211583 302.865339 
L 368.433631 304.329204 
L 368.545183 302.5884 
L 368.655694 297.258348 
L 368.883302 302.896712 
L 368.994441 302.812547 
L 369.214417 300.302203 
L 369.324435 300.145053 
L 369.433889 302.216201 
L 369.546566 298.191489 
L 369.655894 303.721092 
L 369.766961 301.21383 
L 369.876384 303.946909 
L 369.985862 303.560807 
L 370.095274 304.00242 
L 370.206576 303.389771 
L 370.427293 290.21257 
L 370.647178 300.829762 
L 370.757259 304.225427 
L 370.867353 304.174696 
L 370.976876 302.605644 
L 371.197221 304.956848 
L 371.419308 301.862208 
L 371.750255 300.576285 
L 371.974793 302.521989 
L 372.084111 302.441355 
L 372.193542 301.489505 
L 372.412867 302.832262 
L 372.523077 302.915955 
L 372.632623 304.607019 
L 372.743841 303.829766 
L 373.073896 298.476277 
L 373.405865 305.775656 
L 373.523191 303.438219 
L 373.747521 288.397517 
L 373.859226 289.76969 
L 374.079521 304.416956 
L 374.191238 303.256673 
L 374.411211 290.739741 
L 374.52244 285.434288 
L 374.742158 303.515203 
L 374.852687 302.454378 
L 374.965145 303.876113 
L 375.074383 299.550445 
L 375.190949 301.333649 
L 375.30081 299.32299 
L 375.411033 299.651952 
L 375.521325 298.304845 
L 375.631442 298.339501 
L 375.742526 294.138747 
L 375.85184 304.448018 
L 376.074551 287.471858 
L 376.29446 304.454399 
L 376.410193 304.973966 
L 376.629233 302.809402 
L 376.958393 304.549981 
L 377.067734 303.613789 
L 377.179186 304.913886 
L 377.398117 293.159027 
L 377.618425 301.302942 
L 377.728983 298.964458 
L 377.949359 299.128924 
L 378.171417 302.35904 
L 378.281869 300.156858 
L 378.391369 289.401703 
L 378.502829 289.610477 
L 378.72157 300.102516 
L 378.835702 303.059759 
L 378.945526 289.454289 
L 379.054894 302.423305 
L 379.164237 294.870791 
L 379.273651 301.638114 
L 379.385495 293.371253 
L 379.495727 301.551342 
L 379.6064 275.303583 
L 379.716111 281.124009 
L 379.825374 272.832837 
L 380.044587 281.278383 
L 380.153851 278.360912 
L 380.372494 286.854174 
L 380.482146 277.579859 
L 380.70095 303.055786 
L 380.810218 301.71518 
L 380.919797 298.582622 
L 381.13992 304.713897 
L 381.249989 302.287696 
L 381.359397 305.015086 
L 381.468627 302.862714 
L 381.581073 284.378762 
L 381.799724 304.680877 
L 381.911163 304.785574 
L 382.240541 300.59011 
L 382.459463 291.823226 
L 382.576794 305.360734 
L 382.686733 301.878861 
L 382.79604 303.538805 
L 382.905534 296.864989 
L 383.017289 305.781376 
L 383.351453 298.410595 
L 383.574702 303.572909 
L 383.796271 299.56115 
L 383.907017 292.219179 
L 384.016259 302.427267 
L 384.129368 299.392663 
L 384.348774 300.46777 
L 384.459819 303.516344 
L 384.681918 303.041728 
L 384.791219 304.657233 
L 384.901013 303.993145 
L 385.121603 298.834386 
L 385.342224 304.763328 
L 385.453229 304.942097 
L 385.562852 295.083266 
L 385.783392 304.114443 
L 385.893121 302.975361 
L 386.003386 304.537423 
L 386.11637 303.381686 
L 386.336445 294.784797 
L 386.447951 301.869505 
L 386.558379 300.172445 
L 386.668211 303.281667 
L 386.77814 301.459483 
L 386.887912 304.245263 
L 386.998113 300.16877 
L 387.108194 301.582559 
L 387.217979 301.459055 
L 387.328555 301.727015 
L 387.548474 297.567112 
L 387.658439 298.848659 
L 387.768365 296.053624 
L 387.87797 302.350835 
L 387.987243 301.708514 
L 388.099413 299.61589 
L 388.209313 304.635939 
L 388.318902 302.672078 
L 388.428179 303.179186 
L 388.538194 302.255151 
L 388.648588 296.704555 
L 388.868626 300.331091 
L 389.198573 304.916622 
L 389.308141 302.810601 
L 389.417915 304.526139 
L 389.639507 291.195212 
L 389.858276 303.491048 
L 389.968164 292.068613 
L 390.191826 303.85452 
L 390.30596 293.744436 
L 390.415371 298.888629 
L 390.636588 295.286862 
L 390.7473 275.914656 
L 390.966537 303.60144 
L 391.186363 300.000024 
L 391.296675 304.532287 
L 391.407457 301.732592 
L 391.633528 303.922294 
L 391.746692 304.514871 
L 391.96549 298.162171 
L 392.074877 299.750101 
L 392.184451 304.09318 
L 392.41011 302.437093 
L 392.5199 304.078713 
L 392.629377 303.93191 
L 392.739685 300.942275 
L 392.857718 304.50468 
L 393.079765 295.853273 
L 393.30277 303.781748 
L 393.634757 296.231368 
L 393.744631 295.648331 
L 393.964409 302.697335 
L 394.074031 289.007433 
L 394.296706 303.179978 
L 394.407108 302.508434 
L 394.516356 298.253367 
L 394.62568 298.700058 
L 394.735134 297.374484 
L 394.844743 301.929616 
L 394.956023 295.046872 
L 395.065337 304.032808 
L 395.185526 297.19427 
L 395.295357 302.434298 
L 395.404628 299.806203 
L 395.623477 286.786554 
L 395.733091 290.107879 
L 395.953112 285.193362 
L 396.06319 289.579298 
L 396.173361 302.236673 
L 396.288331 302.342703 
L 396.397748 304.738323 
L 396.507543 300.683113 
L 396.617367 305.82419 
L 396.727311 305.081272 
L 396.948796 298.3576 
L 397.058497 275.92023 
L 397.167769 294.738326 
L 397.277056 288.872224 
L 397.386355 297.974003 
L 397.496358 283.677867 
L 397.605817 283.699872 
L 397.71533 286.823339 
L 397.82467 281.175362 
L 397.933997 281.406754 
L 398.0441 300.848447 
L 398.376205 281.460574 
L 398.487273 293.616365 
L 398.487273 293.616365 
" clip-path="url(#p353f2b47af)" style="fill: none; stroke: #1f77b4; stroke-width: 1.5; stroke-linecap: square"/>
   </g>
   <g id="patch_3">
    <path d="M 57.6 307.584 
L 57.6 41.472 
" style="fill: none; stroke: #000000; stroke-width: 0.8; stroke-linejoin: miter; stroke-linecap: square"/>
   </g>
   <g id="patch_4">
    <path d="M 414.72 307.584 
L 414.72 41.472 
" style="fill: none; stroke: #000000; stroke-width: 0.8; stroke-linejoin: miter; stroke-linecap: square"/>
   </g>
   <g id="patch_5">
    <path d="M 57.6 307.584 
L 414.72 307.584 
" style="fill: none; stroke: #000000; stroke-width: 0.8; stroke-linejoin: miter; stroke-linecap: square"/>
   </g>
   <g id="patch_6">
    <path d="M 57.6 41.472 
L 414.72 41.472 
" style="fill: none; stroke: #000000; stroke-width: 0.8; stroke-linejoin: miter; stroke-linecap: square"/>
   </g>
   <g id="text_17">
    <!-- pt4 link speed per 100ms -->
    <g transform="translate(159.425625 35.472)scale(0.12 -0.12)">
     <defs>
      <path id="DejaVuSans-34" d="M 2419 4116 
L 825 1625 
L 2419 1625 
L 2419 4116 
z
M 2253 4666 
L 3047 4666 
L 3047 1625 
L 3713 1625 
L 3713 1100 
L 3047 1100 
L 3047 0 
L 2419 0 
L 2419 1100 
L 313 1100 
L 313 1709 
L 2253 4666 
z
" transform="scale(0.015625)"/>
      <path id="DejaVuSans-20" transform="scale(0.015625)"/>
      <path id="DejaVuSans-6c" d="M 603 4863 
L 1178 4863 
L 1178 0 
L 603 0 
L 603 4863 
z
" transform="scale(0.015625)"/>
      <path id="DejaVuSans-6e" d="M 3513 2113 
L 3513 0 
L 2938 0 
L 2938 2094 
Q 2938 2591 2744 2837 
Q 2550 3084 2163 3084 
Q 1697 3084 1428 2787 
Q 1159 2491 1159 1978 
L 1159 0 
L 581 0 
L 581 3500 
L 1159 3500 
L 1159 2956 
Q 1366 3272 1645 3428 
Q 1925 3584 2291 3584 
Q 2894 3584 3203 3211 
Q 3513 2838 3513 2113 
z
" transform="scale(0.015625)"/>
      <path id="DejaVuSans-6b" d="M 581 4863 
L 1159 4863 
L 1159 1991 
L 2875 3500 
L 3609 3500 
L 1753 1863 
L 3688 0 
L 2938 0 
L 1159 1709 
L 1159 0 
L 581 0 
L 581 4863 
z
" transform="scale(0.015625)"/>
      <path id="DejaVuSans-64" d="M 2906 2969 
L 2906 4863 
L 3481 4863 
L 3481 0 
L 2906 0 
L 2906 525 
Q 2725 213 2448 61 
Q 2172 -91 1784 -91 
Q 1150 -91 751 415 
Q 353 922 353 1747 
Q 353 2572 751 3078 
Q 1150 3584 1784 3584 
Q 2172 3584 2448 3432 
Q 2725 3281 2906 2969 
z
M 947 1747 
Q 947 1113 1208 752 
Q 1469 391 1925 391 
Q 2381 391 2643 752 
Q 2906 1113 2906 1747 
Q 2906 2381 2643 2742 
Q 2381 3103 1925 3103 
Q 1469 3103 1208 2742 
Q 947 2381 947 1747 
z
" transform="scale(0.015625)"/>
      <path id="DejaVuSans-72" d="M 2631 2963 
Q 2534 3019 2420 3045 
Q 2306 3072 2169 3072 
Q 1681 3072 1420 2755 
Q 1159 2438 1159 1844 
L 1159 0 
L 581 0 
L 581 3500 
L 1159 3500 
L 1159 2956 
Q 1341 3275 1631 3429 
Q 1922 3584 2338 3584 
Q 2397 3584 2469 3576 
Q 2541 3569 2628 3553 
L 2631 2963 
z
" transform="scale(0.015625)"/>
     </defs>
     <use xlink:href="#DejaVuSans-70"/>
     <use xlink:href="#DejaVuSans-74" x="63.476562"/>
     <use xlink:href="#DejaVuSans-34" x="102.685547"/>
     <use xlink:href="#DejaVuSans-20" x="166.308594"/>
     <use xlink:href="#DejaVuSans-6c" x="198.095703"/>
     <use xlink:href="#DejaVuSans-69" x="225.878906"/>
     <use xlink:href="#DejaVuSans-6e" x="253.662109"/>
     <use xlink:href="#DejaVuSans-6b" x="317.041016"/>
     <use xlink:href="#DejaVuSans-20" x="374.951172"/>
     <use xlink:href="#DejaVuSans-73" x="406.738281"/>
     <use xlink:href="#DejaVuSans-70" x="458.837891"/>
     <use xlink:href="#DejaVuSans-65" x="522.314453"/>
     <use xlink:href="#DejaVuSans-65" x="583.837891"/>
     <use xlink:href="#DejaVuSans-64" x="645.361328"/>
     <use xlink:href="#DejaVuSans-20" x="708.837891"/>
     <use xlink:href="#DejaVuSans-70" x="740.625"/>
     <use xlink:href="#DejaVuSans-65" x="804.101562"/>
     <use xlink:href="#DejaVuSans-72" x="865.625"/>
     <use xlink:href="#DejaVuSans-20" x="906.738281"/>
     <use xlink:href="#DejaVuSans-31" x="938.525391"/>
     <use xlink:href="#DejaVuSans-30" x="1002.148438"/>
     <use xlink:href="#DejaVuSans-30" x="1065.771484"/>
     <use xlink:href="#DejaVuSans-6d" x="1129.394531"/>
     <use xlink:href="#DejaVuSans-73" x="1226.806641"/>
    </g>
   </g>
  </g>
 </g>
 <defs>
  <clipPath id="p353f2b47af">
   <rect x="57.6" y="41.472" width="357.12" height="266.112"/>
  </clipPath>
 </defs>
</svg>
