<?xml version="1.0" encoding="utf-8" standalone="no"?>
<!DOCTYPE svg PUBLIC "-//W3C//DTD SVG 1.1//EN"
  "http://www.w3.org/Graphics/SVG/1.1/DTD/svg11.dtd">
<svg xmlns:xlink="http://www.w3.org/1999/xlink" width="460.8pt" height="345.6pt" viewBox="0 0 460.8 345.6" xmlns="http://www.w3.org/2000/svg" version="1.1">
 <metadata>
  <rdf:RDF xmlns:dc="http://purl.org/dc/elements/1.1/" xmlns:cc="http://creativecommons.org/ns#" xmlns:rdf="http://www.w3.org/1999/02/22-rdf-syntax-ns#">
   <cc:Work>
    <dc:type rdf:resource="http://purl.org/dc/dcmitype/StillImage"/>
    <dc:date>2022-07-09T23:40:44.452192</dc:date>
    <dc:format>image/svg+xml</dc:format>
    <dc:creator>
     <cc:Agent>
      <dc:title>Matplotlib v3.5.2, https://matplotlib.org/</dc:title>
     </cc:Agent>
    </dc:creator>
   </cc:Work>
  </rdf:RDF>
 </metadata>
 <defs>
  <style type="text/css">*{stroke-linejoin: round; stroke-linecap: butt}</style>
 </defs>
 <g id="figure_1">
  <g id="patch_1">
   <path d="M 0 345.6 
L 460.8 345.6 
L 460.8 0 
L 0 0 
z
" style="fill: #ffffff"/>
  </g>
  <g id="axes_1">
   <g id="patch_2">
    <path d="M 57.6 307.584 
L 414.72 307.584 
L 414.72 41.472 
L 57.6 41.472 
z
" style="fill: #ffffff"/>
   </g>
   <g id="matplotlib.axis_1">
    <g id="xtick_1">
     <g id="line2d_1">
      <defs>
       <path id="ma0f1721b2f" d="M 0 0 
L 0 3.5 
" style="stroke: #000000; stroke-width: 0.8"/>
      </defs>
      <g>
       <use xlink:href="#ma0f1721b2f" x="73.670401" y="307.584" style="stroke: #000000; stroke-width: 0.8"/>
      </g>
     </g>
     <g id="text_1">
      <!-- 0 -->
      <g transform="translate(70.489151 322.182437)scale(0.1 -0.1)">
       <defs>
        <path id="DejaVuSans-30" d="M 2034 4250 
Q 1547 4250 1301 3770 
Q 1056 3291 1056 2328 
Q 1056 1369 1301 889 
Q 1547 409 2034 409 
Q 2525 409 2770 889 
Q 3016 1369 3016 2328 
Q 3016 3291 2770 3770 
Q 2525 4250 2034 4250 
z
M 2034 4750 
Q 2819 4750 3233 4129 
Q 3647 3509 3647 2328 
Q 3647 1150 3233 529 
Q 2819 -91 2034 -91 
Q 1250 -91 836 529 
Q 422 1150 422 2328 
Q 422 3509 836 4129 
Q 1250 4750 2034 4750 
z
" transform="scale(0.015625)"/>
       </defs>
       <use xlink:href="#DejaVuSans-30"/>
      </g>
     </g>
    </g>
    <g id="xtick_2">
     <g id="line2d_2">
      <g>
       <use xlink:href="#ma0f1721b2f" x="114.244709" y="307.584" style="stroke: #000000; stroke-width: 0.8"/>
      </g>
     </g>
     <g id="text_2">
      <!-- 25 -->
      <g transform="translate(107.882209 322.182437)scale(0.1 -0.1)">
       <defs>
        <path id="DejaVuSans-32" d="M 1228 531 
L 3431 531 
L 3431 0 
L 469 0 
L 469 531 
Q 828 903 1448 1529 
Q 2069 2156 2228 2338 
Q 2531 2678 2651 2914 
Q 2772 3150 2772 3378 
Q 2772 3750 2511 3984 
Q 2250 4219 1831 4219 
Q 1534 4219 1204 4116 
Q 875 4013 500 3803 
L 500 4441 
Q 881 4594 1212 4672 
Q 1544 4750 1819 4750 
Q 2544 4750 2975 4387 
Q 3406 4025 3406 3419 
Q 3406 3131 3298 2873 
Q 3191 2616 2906 2266 
Q 2828 2175 2409 1742 
Q 1991 1309 1228 531 
z
" transform="scale(0.015625)"/>
        <path id="DejaVuSans-35" d="M 691 4666 
L 3169 4666 
L 3169 4134 
L 1269 4134 
L 1269 2991 
Q 1406 3038 1543 3061 
Q 1681 3084 1819 3084 
Q 2600 3084 3056 2656 
Q 3513 2228 3513 1497 
Q 3513 744 3044 326 
Q 2575 -91 1722 -91 
Q 1428 -91 1123 -41 
Q 819 9 494 109 
L 494 744 
Q 775 591 1075 516 
Q 1375 441 1709 441 
Q 2250 441 2565 725 
Q 2881 1009 2881 1497 
Q 2881 1984 2565 2268 
Q 2250 2553 1709 2553 
Q 1456 2553 1204 2497 
Q 953 2441 691 2322 
L 691 4666 
z
" transform="scale(0.015625)"/>
       </defs>
       <use xlink:href="#DejaVuSans-32"/>
       <use xlink:href="#DejaVuSans-35" x="63.623047"/>
      </g>
     </g>
    </g>
    <g id="xtick_3">
     <g id="line2d_3">
      <g>
       <use xlink:href="#ma0f1721b2f" x="154.819017" y="307.584" style="stroke: #000000; stroke-width: 0.8"/>
      </g>
     </g>
     <g id="text_3">
      <!-- 50 -->
      <g transform="translate(148.456517 322.182437)scale(0.1 -0.1)">
       <use xlink:href="#DejaVuSans-35"/>
       <use xlink:href="#DejaVuSans-30" x="63.623047"/>
      </g>
     </g>
    </g>
    <g id="xtick_4">
     <g id="line2d_4">
      <g>
       <use xlink:href="#ma0f1721b2f" x="195.393326" y="307.584" style="stroke: #000000; stroke-width: 0.8"/>
      </g>
     </g>
     <g id="text_4">
      <!-- 75 -->
      <g transform="translate(189.030826 322.182437)scale(0.1 -0.1)">
       <defs>
        <path id="DejaVuSans-37" d="M 525 4666 
L 3525 4666 
L 3525 4397 
L 1831 0 
L 1172 0 
L 2766 4134 
L 525 4134 
L 525 4666 
z
" transform="scale(0.015625)"/>
       </defs>
       <use xlink:href="#DejaVuSans-37"/>
       <use xlink:href="#DejaVuSans-35" x="63.623047"/>
      </g>
     </g>
    </g>
    <g id="xtick_5">
     <g id="line2d_5">
      <g>
       <use xlink:href="#ma0f1721b2f" x="235.967634" y="307.584" style="stroke: #000000; stroke-width: 0.8"/>
      </g>
     </g>
     <g id="text_5">
      <!-- 100 -->
      <g transform="translate(226.423884 322.182437)scale(0.1 -0.1)">
       <defs>
        <path id="DejaVuSans-31" d="M 794 531 
L 1825 531 
L 1825 4091 
L 703 3866 
L 703 4441 
L 1819 4666 
L 2450 4666 
L 2450 531 
L 3481 531 
L 3481 0 
L 794 0 
L 794 531 
z
" transform="scale(0.015625)"/>
       </defs>
       <use xlink:href="#DejaVuSans-31"/>
       <use xlink:href="#DejaVuSans-30" x="63.623047"/>
       <use xlink:href="#DejaVuSans-30" x="127.246094"/>
      </g>
     </g>
    </g>
    <g id="xtick_6">
     <g id="line2d_6">
      <g>
       <use xlink:href="#ma0f1721b2f" x="276.541942" y="307.584" style="stroke: #000000; stroke-width: 0.8"/>
      </g>
     </g>
     <g id="text_6">
      <!-- 125 -->
      <g transform="translate(266.998192 322.182437)scale(0.1 -0.1)">
       <use xlink:href="#DejaVuSans-31"/>
       <use xlink:href="#DejaVuSans-32" x="63.623047"/>
       <use xlink:href="#DejaVuSans-35" x="127.246094"/>
      </g>
     </g>
    </g>
    <g id="xtick_7">
     <g id="line2d_7">
      <g>
       <use xlink:href="#ma0f1721b2f" x="317.116251" y="307.584" style="stroke: #000000; stroke-width: 0.8"/>
      </g>
     </g>
     <g id="text_7">
      <!-- 150 -->
      <g transform="translate(307.572501 322.182437)scale(0.1 -0.1)">
       <use xlink:href="#DejaVuSans-31"/>
       <use xlink:href="#DejaVuSans-35" x="63.623047"/>
       <use xlink:href="#DejaVuSans-30" x="127.246094"/>
      </g>
     </g>
    </g>
    <g id="xtick_8">
     <g id="line2d_8">
      <g>
       <use xlink:href="#ma0f1721b2f" x="357.690559" y="307.584" style="stroke: #000000; stroke-width: 0.8"/>
      </g>
     </g>
     <g id="text_8">
      <!-- 175 -->
      <g transform="translate(348.146809 322.182437)scale(0.1 -0.1)">
       <use xlink:href="#DejaVuSans-31"/>
       <use xlink:href="#DejaVuSans-37" x="63.623047"/>
       <use xlink:href="#DejaVuSans-35" x="127.246094"/>
      </g>
     </g>
    </g>
    <g id="xtick_9">
     <g id="line2d_9">
      <g>
       <use xlink:href="#ma0f1721b2f" x="398.264867" y="307.584" style="stroke: #000000; stroke-width: 0.8"/>
      </g>
     </g>
     <g id="text_9">
      <!-- 200 -->
      <g transform="translate(388.721117 322.182437)scale(0.1 -0.1)">
       <use xlink:href="#DejaVuSans-32"/>
       <use xlink:href="#DejaVuSans-30" x="63.623047"/>
       <use xlink:href="#DejaVuSans-30" x="127.246094"/>
      </g>
     </g>
    </g>
    <g id="text_10">
     <!-- time(s) -->
     <g transform="translate(218.357656 335.860562)scale(0.1 -0.1)">
      <defs>
       <path id="DejaVuSans-74" d="M 1172 4494 
L 1172 3500 
L 2356 3500 
L 2356 3053 
L 1172 3053 
L 1172 1153 
Q 1172 725 1289 603 
Q 1406 481 1766 481 
L 2356 481 
L 2356 0 
L 1766 0 
Q 1100 0 847 248 
Q 594 497 594 1153 
L 594 3053 
L 172 3053 
L 172 3500 
L 594 3500 
L 594 4494 
L 1172 4494 
z
" transform="scale(0.015625)"/>
       <path id="DejaVuSans-69" d="M 603 3500 
L 1178 3500 
L 1178 0 
L 603 0 
L 603 3500 
z
M 603 4863 
L 1178 4863 
L 1178 4134 
L 603 4134 
L 603 4863 
z
" transform="scale(0.015625)"/>
       <path id="DejaVuSans-6d" d="M 3328 2828 
Q 3544 3216 3844 3400 
Q 4144 3584 4550 3584 
Q 5097 3584 5394 3201 
Q 5691 2819 5691 2113 
L 5691 0 
L 5113 0 
L 5113 2094 
Q 5113 2597 4934 2840 
Q 4756 3084 4391 3084 
Q 3944 3084 3684 2787 
Q 3425 2491 3425 1978 
L 3425 0 
L 2847 0 
L 2847 2094 
Q 2847 2600 2669 2842 
Q 2491 3084 2119 3084 
Q 1678 3084 1418 2786 
Q 1159 2488 1159 1978 
L 1159 0 
L 581 0 
L 581 3500 
L 1159 3500 
L 1159 2956 
Q 1356 3278 1631 3431 
Q 1906 3584 2284 3584 
Q 2666 3584 2933 3390 
Q 3200 3197 3328 2828 
z
" transform="scale(0.015625)"/>
       <path id="DejaVuSans-65" d="M 3597 1894 
L 3597 1613 
L 953 1613 
Q 991 1019 1311 708 
Q 1631 397 2203 397 
Q 2534 397 2845 478 
Q 3156 559 3463 722 
L 3463 178 
Q 3153 47 2828 -22 
Q 2503 -91 2169 -91 
Q 1331 -91 842 396 
Q 353 884 353 1716 
Q 353 2575 817 3079 
Q 1281 3584 2069 3584 
Q 2775 3584 3186 3129 
Q 3597 2675 3597 1894 
z
M 3022 2063 
Q 3016 2534 2758 2815 
Q 2500 3097 2075 3097 
Q 1594 3097 1305 2825 
Q 1016 2553 972 2059 
L 3022 2063 
z
" transform="scale(0.015625)"/>
       <path id="DejaVuSans-28" d="M 1984 4856 
Q 1566 4138 1362 3434 
Q 1159 2731 1159 2009 
Q 1159 1288 1364 580 
Q 1569 -128 1984 -844 
L 1484 -844 
Q 1016 -109 783 600 
Q 550 1309 550 2009 
Q 550 2706 781 3412 
Q 1013 4119 1484 4856 
L 1984 4856 
z
" transform="scale(0.015625)"/>
       <path id="DejaVuSans-73" d="M 2834 3397 
L 2834 2853 
Q 2591 2978 2328 3040 
Q 2066 3103 1784 3103 
Q 1356 3103 1142 2972 
Q 928 2841 928 2578 
Q 928 2378 1081 2264 
Q 1234 2150 1697 2047 
L 1894 2003 
Q 2506 1872 2764 1633 
Q 3022 1394 3022 966 
Q 3022 478 2636 193 
Q 2250 -91 1575 -91 
Q 1294 -91 989 -36 
Q 684 19 347 128 
L 347 722 
Q 666 556 975 473 
Q 1284 391 1588 391 
Q 1994 391 2212 530 
Q 2431 669 2431 922 
Q 2431 1156 2273 1281 
Q 2116 1406 1581 1522 
L 1381 1569 
Q 847 1681 609 1914 
Q 372 2147 372 2553 
Q 372 3047 722 3315 
Q 1072 3584 1716 3584 
Q 2034 3584 2315 3537 
Q 2597 3491 2834 3397 
z
" transform="scale(0.015625)"/>
       <path id="DejaVuSans-29" d="M 513 4856 
L 1013 4856 
Q 1481 4119 1714 3412 
Q 1947 2706 1947 2009 
Q 1947 1309 1714 600 
Q 1481 -109 1013 -844 
L 513 -844 
Q 928 -128 1133 580 
Q 1338 1288 1338 2009 
Q 1338 2731 1133 3434 
Q 928 4138 513 4856 
z
" transform="scale(0.015625)"/>
      </defs>
      <use xlink:href="#DejaVuSans-74"/>
      <use xlink:href="#DejaVuSans-69" x="39.208984"/>
      <use xlink:href="#DejaVuSans-6d" x="66.992188"/>
      <use xlink:href="#DejaVuSans-65" x="164.404297"/>
      <use xlink:href="#DejaVuSans-28" x="225.927734"/>
      <use xlink:href="#DejaVuSans-73" x="264.941406"/>
      <use xlink:href="#DejaVuSans-29" x="317.041016"/>
     </g>
    </g>
   </g>
   <g id="matplotlib.axis_2">
    <g id="ytick_1">
     <g id="line2d_10">
      <defs>
       <path id="m1019fd9e89" d="M 0 0 
L -3.5 0 
" style="stroke: #000000; stroke-width: 0.8"/>
      </defs>
      <g>
       <use xlink:href="#m1019fd9e89" x="57.6" y="307.584" style="stroke: #000000; stroke-width: 0.8"/>
      </g>
     </g>
     <g id="text_11">
      <!-- 0 -->
      <g transform="translate(44.2375 311.383219)scale(0.1 -0.1)">
       <use xlink:href="#DejaVuSans-30"/>
      </g>
     </g>
    </g>
    <g id="ytick_2">
     <g id="line2d_11">
      <g>
       <use xlink:href="#m1019fd9e89" x="57.6" y="263.232" style="stroke: #000000; stroke-width: 0.8"/>
      </g>
     </g>
     <g id="text_12">
      <!-- 50 -->
      <g transform="translate(37.875 267.031219)scale(0.1 -0.1)">
       <use xlink:href="#DejaVuSans-35"/>
       <use xlink:href="#DejaVuSans-30" x="63.623047"/>
      </g>
     </g>
    </g>
    <g id="ytick_3">
     <g id="line2d_12">
      <g>
       <use xlink:href="#m1019fd9e89" x="57.6" y="218.88" style="stroke: #000000; stroke-width: 0.8"/>
      </g>
     </g>
     <g id="text_13">
      <!-- 100 -->
      <g transform="translate(31.5125 222.679219)scale(0.1 -0.1)">
       <use xlink:href="#DejaVuSans-31"/>
       <use xlink:href="#DejaVuSans-30" x="63.623047"/>
       <use xlink:href="#DejaVuSans-30" x="127.246094"/>
      </g>
     </g>
    </g>
    <g id="ytick_4">
     <g id="line2d_13">
      <g>
       <use xlink:href="#m1019fd9e89" x="57.6" y="174.528" style="stroke: #000000; stroke-width: 0.8"/>
      </g>
     </g>
     <g id="text_14">
      <!-- 150 -->
      <g transform="translate(31.5125 178.327219)scale(0.1 -0.1)">
       <use xlink:href="#DejaVuSans-31"/>
       <use xlink:href="#DejaVuSans-35" x="63.623047"/>
       <use xlink:href="#DejaVuSans-30" x="127.246094"/>
      </g>
     </g>
    </g>
    <g id="ytick_5">
     <g id="line2d_14">
      <g>
       <use xlink:href="#m1019fd9e89" x="57.6" y="130.176" style="stroke: #000000; stroke-width: 0.8"/>
      </g>
     </g>
     <g id="text_15">
      <!-- 200 -->
      <g transform="translate(31.5125 133.975219)scale(0.1 -0.1)">
       <use xlink:href="#DejaVuSans-32"/>
       <use xlink:href="#DejaVuSans-30" x="63.623047"/>
       <use xlink:href="#DejaVuSans-30" x="127.246094"/>
      </g>
     </g>
    </g>
    <g id="ytick_6">
     <g id="line2d_15">
      <g>
       <use xlink:href="#m1019fd9e89" x="57.6" y="85.824" style="stroke: #000000; stroke-width: 0.8"/>
      </g>
     </g>
     <g id="text_16">
      <!-- 250 -->
      <g transform="translate(31.5125 89.623219)scale(0.1 -0.1)">
       <use xlink:href="#DejaVuSans-32"/>
       <use xlink:href="#DejaVuSans-35" x="63.623047"/>
       <use xlink:href="#DejaVuSans-30" x="127.246094"/>
      </g>
     </g>
    </g>
    <g id="ytick_7">
     <g id="line2d_16">
      <g>
       <use xlink:href="#m1019fd9e89" x="57.6" y="41.472" style="stroke: #000000; stroke-width: 0.8"/>
      </g>
     </g>
     <g id="text_17">
      <!-- 300 -->
      <g transform="translate(31.5125 45.271219)scale(0.1 -0.1)">
       <defs>
        <path id="DejaVuSans-33" d="M 2597 2516 
Q 3050 2419 3304 2112 
Q 3559 1806 3559 1356 
Q 3559 666 3084 287 
Q 2609 -91 1734 -91 
Q 1441 -91 1130 -33 
Q 819 25 488 141 
L 488 750 
Q 750 597 1062 519 
Q 1375 441 1716 441 
Q 2309 441 2620 675 
Q 2931 909 2931 1356 
Q 2931 1769 2642 2001 
Q 2353 2234 1838 2234 
L 1294 2234 
L 1294 2753 
L 1863 2753 
Q 2328 2753 2575 2939 
Q 2822 3125 2822 3475 
Q 2822 3834 2567 4026 
Q 2313 4219 1838 4219 
Q 1578 4219 1281 4162 
Q 984 4106 628 3988 
L 628 4550 
Q 988 4650 1302 4700 
Q 1616 4750 1894 4750 
Q 2613 4750 3031 4423 
Q 3450 4097 3450 3541 
Q 3450 3153 3228 2886 
Q 3006 2619 2597 2516 
z
" transform="scale(0.015625)"/>
       </defs>
       <use xlink:href="#DejaVuSans-33"/>
       <use xlink:href="#DejaVuSans-30" x="63.623047"/>
       <use xlink:href="#DejaVuSans-30" x="127.246094"/>
      </g>
     </g>
    </g>
    <g id="text_18">
     <!-- Mbps -->
     <g transform="translate(25.432812 187.795187)rotate(-90)scale(0.1 -0.1)">
      <defs>
       <path id="DejaVuSans-4d" d="M 628 4666 
L 1569 4666 
L 2759 1491 
L 3956 4666 
L 4897 4666 
L 4897 0 
L 4281 0 
L 4281 4097 
L 3078 897 
L 2444 897 
L 1241 4097 
L 1241 0 
L 628 0 
L 628 4666 
z
" transform="scale(0.015625)"/>
       <path id="DejaVuSans-62" d="M 3116 1747 
Q 3116 2381 2855 2742 
Q 2594 3103 2138 3103 
Q 1681 3103 1420 2742 
Q 1159 2381 1159 1747 
Q 1159 1113 1420 752 
Q 1681 391 2138 391 
Q 2594 391 2855 752 
Q 3116 1113 3116 1747 
z
M 1159 2969 
Q 1341 3281 1617 3432 
Q 1894 3584 2278 3584 
Q 2916 3584 3314 3078 
Q 3713 2572 3713 1747 
Q 3713 922 3314 415 
Q 2916 -91 2278 -91 
Q 1894 -91 1617 61 
Q 1341 213 1159 525 
L 1159 0 
L 581 0 
L 581 4863 
L 1159 4863 
L 1159 2969 
z
" transform="scale(0.015625)"/>
       <path id="DejaVuSans-70" d="M 1159 525 
L 1159 -1331 
L 581 -1331 
L 581 3500 
L 1159 3500 
L 1159 2969 
Q 1341 3281 1617 3432 
Q 1894 3584 2278 3584 
Q 2916 3584 3314 3078 
Q 3713 2572 3713 1747 
Q 3713 922 3314 415 
Q 2916 -91 2278 -91 
Q 1894 -91 1617 61 
Q 1341 213 1159 525 
z
M 3116 1747 
Q 3116 2381 2855 2742 
Q 2594 3103 2138 3103 
Q 1681 3103 1420 2742 
Q 1159 2381 1159 1747 
Q 1159 1113 1420 752 
Q 1681 391 2138 391 
Q 2594 391 2855 752 
Q 3116 1113 3116 1747 
z
" transform="scale(0.015625)"/>
      </defs>
      <use xlink:href="#DejaVuSans-4d"/>
      <use xlink:href="#DejaVuSans-62" x="86.279297"/>
      <use xlink:href="#DejaVuSans-70" x="149.755859"/>
      <use xlink:href="#DejaVuSans-73" x="213.232422"/>
     </g>
    </g>
   </g>
   <g id="line2d_17">
    <path d="M 73.832727 297.732992 
L 74.15759 278.557979 
L 74.321945 295.991345 
L 74.4843 288.03957 
L 74.647084 290.622479 
L 74.812077 290.644052 
L 74.974738 292.577012 
L 75.138079 282.308952 
L 75.301099 287.365957 
L 75.464016 285.843437 
L 75.789579 296.937711 
L 75.95316 295.385023 
L 76.116413 268.793867 
L 76.441796 285.669046 
L 76.609334 273.421462 
L 76.771687 290.111249 
L 77.100944 297.111881 
L 77.263244 292.027341 
L 77.425594 293.120358 
L 77.58797 298.58435 
L 77.750836 287.887481 
L 77.913178 298.197561 
L 78.076125 293.199796 
L 78.240783 302.232107 
L 78.4031 293.382385 
L 78.565584 299.690644 
L 78.728514 297.434116 
L 78.896667 299.333156 
L 79.385093 293.699652 
L 79.547419 297.65802 
L 79.713249 281.714574 
L 79.877225 299.107413 
L 80.20198 294.441046 
L 80.373502 299.936952 
L 80.53646 297.95213 
L 80.698921 299.745992 
L 80.862181 298.285871 
L 81.025064 289.567694 
L 81.187708 297.025149 
L 81.35227 264.404656 
L 81.515511 289.368152 
L 82.004375 302.529059 
L 82.166883 299.863365 
L 82.493278 289.614267 
L 82.656607 288.268804 
L 82.818917 289.39204 
L 82.981375 289.236784 
L 83.311996 297.194802 
L 83.474924 287.533123 
L 83.637832 287.666516 
L 83.800515 292.417071 
L 83.964051 293.396285 
L 84.128956 288.933014 
L 84.291275 294.659335 
L 84.453806 294.440191 
L 84.61665 287.17463 
L 84.942695 282.408255 
L 85.107394 283.452929 
L 85.269718 281.820839 
L 85.432593 267.541957 
L 85.595136 290.014326 
L 85.763075 286.637117 
L 85.926757 277.320439 
L 86.09194 280.947358 
L 86.255639 270.188072 
L 86.422632 284.29412 
L 86.584934 266.313028 
L 86.747429 279.993962 
L 86.910341 277.692285 
L 87.073541 278.307003 
L 87.235994 263.259189 
L 87.399517 268.116704 
L 87.561885 259.300641 
L 87.728452 276.79693 
L 87.894668 269.870416 
L 88.063056 294.430035 
L 88.552677 291.040603 
L 88.716359 287.171283 
L 88.880941 293.747263 
L 89.043295 295.374351 
L 89.53427 292.95876 
L 89.696853 294.670975 
L 89.859415 288.587174 
L 90.021758 286.809494 
L 90.184901 280.855699 
L 90.347821 283.743766 
L 90.510225 270.907833 
L 90.673308 283.991766 
L 90.835691 255.985284 
L 90.998359 258.711158 
L 91.323088 281.191162 
L 91.650607 275.749855 
L 91.813242 275.438139 
L 91.976615 269.502818 
L 92.138963 275.131139 
L 92.301312 270.61034 
L 92.473811 279.580301 
L 92.636279 274.19798 
L 92.79928 276.146978 
L 92.96166 274.973528 
L 93.124928 276.983444 
L 93.287353 275.552979 
L 93.449797 268.05868 
L 93.613261 278.326297 
L 93.775578 276.430079 
L 93.937964 294.108636 
L 94.264193 282.805046 
L 94.426983 280.970869 
L 94.591241 281.728078 
L 94.753659 281.504337 
L 94.916076 284.681529 
L 95.078482 284.549536 
L 95.405362 277.570657 
L 95.56822 279.951285 
L 95.893162 268.503311 
L 96.057551 270.080463 
L 96.220047 283.239185 
L 96.38261 285.368771 
L 96.715602 303.36131 
L 96.881494 303.980628 
L 97.04464 300.78101 
L 97.206973 289.444723 
L 97.372456 300.21515 
L 97.536696 290.157505 
L 97.701901 291.826138 
L 97.86426 288.644821 
L 98.191677 289.628003 
L 98.354792 284.371996 
L 98.679765 287.38455 
L 98.84209 290.011181 
L 99.004725 285.373123 
L 99.330473 286.753666 
L 99.493587 289.553757 
L 99.655918 287.277544 
L 99.81839 286.696028 
L 100.145093 289.859936 
L 100.307449 289.481967 
L 100.471324 286.486692 
L 100.802207 289.465921 
L 100.965981 291.486204 
L 101.130111 290.105769 
L 101.292499 286.765121 
L 101.456179 256.500099 
L 101.619166 267.121127 
L 101.946419 304.519701 
L 102.115445 305.023008 
L 102.279219 288.722905 
L 102.441906 292.792413 
L 102.60426 286.997736 
L 102.768123 292.037573 
L 103.092948 290.327579 
L 103.25587 278.903316 
L 103.418398 287.750878 
L 103.581206 287.260892 
L 103.743551 291.482104 
L 103.908888 291.683682 
L 104.074306 298.893243 
L 104.237723 301.170764 
L 104.563535 296.367097 
L 104.726499 294.190044 
L 104.892263 295.411159 
L 105.056529 287.113903 
L 105.224469 293.690311 
L 105.392698 290.474964 
L 105.555283 301.231757 
L 105.888573 305.661489 
L 106.05601 302.476321 
L 106.38139 288.41254 
L 106.543835 296.687963 
L 106.709497 297.427229 
L 106.872422 297.411094 
L 107.197779 292.375949 
L 107.528605 299.764821 
L 107.691729 293.899366 
L 107.854379 295.879629 
L 108.017041 293.018295 
L 108.179889 294.501886 
L 108.344418 287.056892 
L 108.508781 290.029247 
L 108.840365 302.140219 
L 109.171444 297.642665 
L 109.333855 298.660427 
L 109.499609 296.665755 
L 109.663024 277.591213 
L 109.829192 286.161147 
L 109.993067 284.339435 
L 110.157266 276.979659 
L 110.320928 300.178193 
L 110.487199 302.166066 
L 110.649697 299.57665 
L 110.81785 301.990924 
L 111.307069 285.65552 
L 111.469584 287.527005 
L 111.632043 282.23844 
L 111.798843 293.111877 
L 111.961299 288.687544 
L 112.123794 288.547626 
L 112.286239 294.322884 
L 112.448785 285.717978 
L 112.611978 295.599197 
L 112.937468 286.719019 
L 113.099834 289.829068 
L 113.587678 274.105194 
L 113.749978 277.627576 
L 114.07468 291.585199 
L 114.238449 291.418658 
L 114.401793 284.197679 
L 114.564357 286.359206 
L 114.728921 285.855761 
L 114.891988 280.866366 
L 115.054556 291.622658 
L 115.380116 282.725462 
L 115.706764 289.697766 
L 115.871737 285.135992 
L 116.034736 294.114005 
L 116.206597 296.069154 
L 116.535223 293.543603 
L 116.698674 290.016157 
L 116.861091 292.931261 
L 117.023661 289.285771 
L 117.185981 296.932985 
L 117.513833 290.824061 
L 117.676805 299.529304 
L 117.83914 285.213502 
L 118.002039 284.125072 
L 118.166933 271.704645 
L 118.329672 285.919205 
L 118.492214 285.358455 
L 118.655002 284.053877 
L 118.819573 278.56399 
L 119.144825 289.326736 
L 119.307764 289.297936 
L 119.470589 289.611012 
L 119.633378 290.412273 
L 119.797883 288.677179 
L 119.963306 288.954005 
L 120.125775 288.251858 
L 120.288679 290.815544 
L 120.451062 288.886632 
L 120.615281 285.153823 
L 120.778069 291.974214 
L 121.106391 288.579892 
L 121.43576 291.355182 
L 121.598108 289.222485 
L 121.760429 283.870579 
L 122.252602 293.590658 
L 122.415036 288.244025 
L 122.577721 287.97896 
L 122.74065 292.594868 
L 122.904503 284.5118 
L 123.066848 282.944844 
L 123.393219 290.380713 
L 123.558889 291.810089 
L 123.721318 290.53715 
L 123.890155 294.173813 
L 124.0525 289.954631 
L 124.220102 301.823147 
L 124.382948 301.817347 
L 124.545703 303.258924 
L 124.708494 303.039648 
L 124.870952 297.607976 
L 125.033614 297.355689 
L 125.522489 280.928982 
L 125.684898 283.649176 
L 125.848103 282.505553 
L 126.010413 277.768639 
L 126.336118 281.504076 
L 126.660738 291.695924 
L 126.823405 283.8309 
L 126.985887 288.923576 
L 127.148383 285.200676 
L 127.311521 294.303475 
L 127.476778 286.434255 
L 127.639306 289.067806 
L 127.801614 288.727531 
L 128.295073 293.656086 
L 128.457422 291.443821 
L 128.622084 293.49827 
L 128.785986 293.107914 
L 129.111209 291.57517 
L 129.273519 290.453382 
L 129.436295 292.11766 
L 129.599121 290.951607 
L 129.763407 291.690939 
L 129.925925 289.744833 
L 130.088379 289.561758 
L 130.253111 285.957221 
L 130.415433 290.145146 
L 130.577739 285.665603 
L 130.740301 273.302473 
L 130.902782 272.634235 
L 131.065118 275.371901 
L 131.227537 287.405019 
L 131.389875 290.492491 
L 131.715493 284.921874 
L 131.879118 287.584477 
L 132.205504 284.44953 
L 132.368982 286.522519 
L 132.531689 284.076534 
L 132.695519 287.37298 
L 132.858066 279.289693 
L 133.184335 285.581156 
L 133.346847 281.89759 
L 133.509452 289.161584 
L 133.835744 286.662104 
L 133.999446 287.760662 
L 134.162566 290.351041 
L 134.325267 288.45995 
L 134.651827 290.291289 
L 134.814895 291.544688 
L 134.977364 290.181415 
L 135.139717 286.677397 
L 135.633777 298.491799 
L 135.961751 291.205243 
L 136.131861 305.774237 
L 136.294437 305.383314 
L 136.619965 285.14539 
L 136.783398 282.159681 
L 136.945997 281.758637 
L 137.113196 292.570973 
L 137.438084 291.264773 
L 137.600464 291.791451 
L 137.765236 288.246091 
L 138.090529 303.03362 
L 138.417267 285.770754 
L 138.580007 289.338745 
L 138.742585 283.895281 
L 138.905361 282.456545 
L 139.067805 296.931471 
L 139.230316 293.826484 
L 139.392656 281.823753 
L 139.723914 304.067345 
L 139.886477 302.87087 
L 140.048848 274.862325 
L 140.219687 271.926772 
L 140.382133 296.601662 
L 140.544852 284.399206 
L 140.707391 302.671088 
L 140.86969 300.809113 
L 141.032069 303.703245 
L 141.194533 302.071327 
L 141.356848 294.85748 
L 141.520025 299.405853 
L 141.846674 287.392266 
L 142.010052 301.839834 
L 142.172759 300.868401 
L 142.336901 297.62759 
L 142.662893 303.84953 
L 142.825529 301.365208 
L 142.987874 300.735979 
L 143.150299 302.343267 
L 143.312692 302.49183 
L 143.475635 301.895414 
L 143.637965 291.352165 
L 143.80083 292.200725 
L 143.963207 288.94771 
L 144.126059 276.397579 
L 144.289437 283.683288 
L 144.451856 284.944955 
L 144.61583 283.402566 
L 144.77816 279.853507 
L 144.940553 282.52369 
L 145.103397 281.001745 
L 145.265717 289.046747 
L 145.428266 282.712517 
L 145.592412 300.835425 
L 145.756415 297.626818 
L 145.919453 302.037398 
L 146.08176 299.213211 
L 146.244769 298.861574 
L 146.408431 298.240486 
L 146.571635 300.612908 
L 146.734372 299.288383 
L 146.896902 293.609714 
L 147.059752 298.40537 
L 147.22245 289.617281 
L 147.385783 299.400273 
L 147.548598 298.931776 
L 147.711397 294.035148 
L 147.875122 301.350757 
L 148.041081 303.369552 
L 148.203584 303.269464 
L 148.371002 305.348413 
L 148.541138 303.874711 
L 148.703669 301.30765 
L 148.866797 304.412842 
L 149.030294 302.911879 
L 149.193094 297.247774 
L 149.355466 285.508299 
L 149.517971 297.624451 
L 149.68306 299.619521 
L 149.84581 305.031826 
L 150.009144 298.630319 
L 150.175052 305.69742 
L 150.339416 304.152999 
L 150.502322 295.699492 
L 150.664705 301.807888 
L 150.827801 302.403394 
L 150.990653 304.417114 
L 151.156584 303.589011 
L 151.320347 301.182021 
L 151.646238 304.500101 
L 151.810314 303.244679 
L 151.973059 303.24213 
L 152.135978 303.496742 
L 152.298553 302.435301 
L 152.461382 304.337751 
L 152.625431 301.356535 
L 152.787853 304.235003 
L 152.95034 304.003876 
L 153.276923 298.506024 
L 153.439325 299.242291 
L 153.764082 303.132835 
L 153.926947 303.477662 
L 154.091202 303.463177 
L 154.254207 292.774179 
L 154.420685 301.003201 
L 154.583109 283.003432 
L 154.745502 302.937956 
L 154.90931 303.851308 
L 155.07361 302.607623 
L 155.236636 296.259091 
L 155.399204 297.568941 
L 155.561914 304.453555 
L 155.724238 300.715399 
L 155.889197 303.844121 
L 156.052262 303.247949 
L 156.215158 299.737793 
L 156.378389 301.35877 
L 156.540769 298.041979 
L 156.703264 244.675913 
L 156.865983 264.075277 
L 157.028686 264.643396 
L 157.191258 301.695939 
L 157.354358 305.011182 
L 157.521083 305.532408 
L 157.685037 304.413479 
L 158.015447 300.907897 
L 158.178396 300.571473 
L 158.503382 294.072697 
L 158.668487 299.247366 
L 158.993797 291.77806 
L 159.319666 296.803313 
L 159.483119 297.115394 
L 159.811668 285.098165 
L 159.974183 282.820439 
L 160.145827 296.430317 
L 160.308794 259.582944 
L 160.47672 302.08984 
L 160.640476 303.800356 
L 160.804049 304.154147 
L 160.966467 299.761257 
L 161.13019 303.164972 
L 161.293956 298.019384 
L 161.45626 298.75713 
L 161.618609 298.70859 
L 161.790812 302.086726 
L 161.95456 301.93988 
L 162.116956 296.23885 
L 162.285567 298.397317 
L 162.460692 296.875065 
L 162.625394 294.05838 
L 162.788191 297.417655 
L 162.953454 293.42158 
L 163.119739 297.149167 
L 163.285584 297.649662 
L 163.448537 301.634633 
L 163.610835 301.57533 
L 163.774348 303.684291 
L 163.936647 299.704182 
L 164.09953 302.360555 
L 164.263788 303.132931 
L 164.429649 296.057873 
L 164.75445 302.434909 
L 164.917101 279.031368 
L 165.08217 301.692279 
L 165.245191 298.635619 
L 165.407914 297.877113 
L 165.57122 299.376238 
L 165.736226 295.833513 
L 166.228615 303.491586 
L 166.391339 301.599469 
L 166.554342 304.299028 
L 166.722317 302.72812 
L 166.885776 304.263172 
L 167.051245 302.545787 
L 167.213565 296.522453 
L 167.377227 294.715058 
L 167.86776 298.637155 
L 168.03008 294.563581 
L 168.192678 294.124703 
L 168.355277 286.645484 
L 168.517917 288.460127 
L 168.681551 287.603387 
L 168.845205 295.922015 
L 169.010002 288.869187 
L 169.172382 294.790057 
L 169.499344 291.512136 
L 169.661804 296.314867 
L 169.825941 291.555786 
L 169.988282 290.906288 
L 170.151162 305.517157 
L 170.477047 288.631211 
L 170.979714 298.123806 
L 171.142174 285.060472 
L 171.308361 293.6517 
L 171.470819 291.07615 
L 171.633528 303.934311 
L 171.796241 301.239733 
L 171.958579 295.445052 
L 172.12129 283.037244 
L 172.445948 301.8659 
L 172.609144 299.962482 
L 172.773718 296.09968 
L 172.949217 295.871698 
L 173.112021 296.115171 
L 173.286501 296.971932 
L 173.449172 291.047828 
L 173.789772 298.986387 
L 173.953009 301.301488 
L 174.115423 291.774748 
L 174.278746 293.56679 
L 174.441064 292.77393 
L 174.604447 304.216715 
L 174.767603 296.636006 
L 174.937439 299.437038 
L 175.099983 281.438763 
L 175.262323 294.172455 
L 175.425026 295.988725 
L 175.750052 292.374674 
L 175.912656 299.276122 
L 176.239563 280.07267 
L 176.402134 284.720208 
L 176.56531 283.006439 
L 176.890545 290.214502 
L 177.05515 289.953012 
L 177.217461 298.369664 
L 177.545543 283.935389 
L 177.708715 286.423025 
L 178.034486 297.571675 
L 178.197213 291.972234 
L 178.359856 297.861089 
L 178.523577 297.625543 
L 178.698496 299.61087 
L 178.863953 291.863638 
L 179.027104 301.847588 
L 179.190133 295.616858 
L 179.692334 292.638391 
L 179.85556 297.44636 
L 180.017989 295.885768 
L 180.188307 300.26801 
L 180.352814 297.424554 
L 180.525588 298.715806 
L 180.688865 306.357812 
L 180.853946 303.548204 
L 181.016696 305.109234 
L 181.182593 303.548069 
L 181.508074 306.038488 
L 181.6712 305.219377 
L 181.835021 306.200769 
L 182.163516 304.827716 
L 182.336541 305.415341 
L 182.498947 306.543099 
L 182.664284 304.753353 
L 182.828847 305.327451 
L 183.157062 300.78056 
L 183.321213 305.741588 
L 183.486375 306.731245 
L 183.649181 304.84827 
L 183.816284 299.275722 
L 184.167791 305.798703 
L 184.331125 303.562684 
L 184.505919 304.911215 
L 184.668238 290.561626 
L 184.831325 245.027931 
L 184.993681 252.935042 
L 185.156171 254.023275 
L 185.326189 258.127195 
L 185.489515 299.599006 
L 185.6534 301.935795 
L 185.820988 301.481907 
L 185.98614 300.332192 
L 186.148507 301.929616 
L 186.313245 302.150416 
L 186.478658 300.741854 
L 186.641072 303.472611 
L 186.80396 303.344318 
L 186.971042 304.476901 
L 187.137311 303.761874 
L 187.313911 305.853249 
L 187.480725 304.684193 
L 187.649315 305.834855 
L 187.81167 294.738212 
L 188.146045 305.14292 
L 188.308639 300.565601 
L 188.470988 304.000564 
L 188.635009 300.358116 
L 188.799585 303.596158 
L 188.962241 303.679277 
L 189.124796 302.577253 
L 189.299717 300.25387 
L 189.625113 304.891167 
L 189.788267 300.261433 
L 189.951624 302.473471 
L 190.117999 292.415045 
L 190.451576 302.923375 
L 190.613885 304.063076 
L 190.777123 300.025077 
L 190.943069 285.584208 
L 191.105509 301.846962 
L 191.269014 302.141871 
L 191.434552 303.713893 
L 191.59724 294.179752 
L 191.759695 299.341708 
L 191.922069 296.980737 
L 192.247022 278.047457 
L 192.410669 282.95441 
L 192.573671 276.124135 
L 192.73597 283.917204 
L 192.898298 284.368444 
L 193.060954 279.73227 
L 193.223871 258.257172 
L 193.38627 281.096618 
L 193.711461 282.821016 
L 193.874511 284.780137 
L 194.036831 284.583681 
L 194.201418 286.433208 
L 194.364105 282.399144 
L 194.528262 284.598884 
L 194.691103 271.720726 
L 194.853564 271.197036 
L 195.01589 271.64847 
L 195.50585 299.038469 
L 195.676564 302.448964 
L 196.011798 300.239149 
L 196.175089 292.128251 
L 196.3381 299.788887 
L 196.501194 294.663233 
L 196.828077 271.77711 
L 196.991122 274.701079 
L 197.316871 269.7866 
L 197.47953 271.746688 
L 197.642162 264.869226 
L 198.129379 277.379509 
L 198.2931 273.474607 
L 198.456681 272.616065 
L 198.619306 268.186608 
L 198.78165 269.943224 
L 198.944499 267.874895 
L 199.107387 251.543862 
L 199.269758 254.224408 
L 199.432735 258.969567 
L 199.5958 271.603343 
L 199.758711 267.717869 
L 199.921772 273.055078 
L 200.246768 269.775727 
L 200.40907 255.165131 
L 200.571857 269.176162 
L 200.734326 263.477111 
L 200.896739 269.042463 
L 201.059104 260.716753 
L 201.223464 270.397905 
L 201.386091 199.363602 
L 201.873353 293.877762 
L 202.035746 291.32934 
L 202.198192 285.20776 
L 202.360618 268.864722 
L 202.847837 260.614098 
L 203.010141 262.400245 
L 203.334912 275.925635 
L 203.497218 265.136218 
L 203.821906 277.764572 
L 203.984246 270.899865 
L 204.146579 255.72984 
L 204.308918 264.919963 
L 204.471313 266.683236 
L 204.633626 259.200452 
L 204.796206 259.404646 
L 204.958531 275.600855 
L 205.120956 263.977045 
L 205.283458 279.981817 
L 205.445994 277.589047 
L 205.608361 269.757457 
L 205.933599 272.455137 
L 206.096056 270.296469 
L 206.258543 273.538723 
L 206.420903 263.651263 
L 206.583511 266.459772 
L 206.746131 262.232872 
L 206.90848 254.140957 
L 207.070926 268.904301 
L 207.233349 266.516256 
L 207.396199 275.211302 
L 207.55893 268.255547 
L 207.72129 270.374193 
L 207.884745 270.082077 
L 208.047589 267.280431 
L 208.534632 286.548591 
L 208.697004 218.379154 
L 209.022721 272.380895 
L 209.349432 269.045606 
L 209.511848 279.015898 
L 209.674189 277.903122 
L 209.837692 280.56051 
L 210.000413 285.082196 
L 210.164037 283.190028 
L 210.326651 297.405176 
L 210.652994 262.203239 
L 210.815586 280.586172 
L 210.978122 282.229859 
L 211.304146 262.169348 
L 211.466568 274.371426 
L 211.628955 273.183018 
L 211.953812 259.998049 
L 212.11642 264.924637 
L 212.279376 276.818635 
L 212.604787 270.56437 
L 212.768579 271.93688 
L 212.931033 267.514477 
L 213.093725 282.874505 
L 213.419016 272.631286 
L 213.581355 277.262914 
L 213.743923 276.467748 
L 213.915358 286.303257 
L 214.240076 220.08684 
L 214.402461 217.785447 
L 214.892126 295.57467 
L 215.054675 286.735021 
L 215.216985 296.80208 
L 215.379316 289.879605 
L 215.541758 296.198614 
L 215.873135 290.153498 
L 216.038402 293.024635 
L 216.200831 273.679165 
L 216.363565 233.570106 
L 216.526568 296.645637 
L 216.688881 282.822148 
L 216.862622 292.45195 
L 217.356898 277.039454 
L 217.521505 286.100811 
L 217.684013 282.784439 
L 218.009109 290.749921 
L 218.172312 284.203423 
L 218.335004 286.321249 
L 218.49802 284.156778 
L 218.661667 293.135645 
L 218.824625 281.708244 
L 218.987718 288.27731 
L 219.157445 288.059313 
L 219.320172 300.327137 
L 219.483175 302.175665 
L 219.65404 291.992517 
L 219.819553 305.843413 
L 219.982613 306.049894 
L 220.146299 304.624761 
L 220.309184 306.419118 
L 220.474782 302.471472 
L 220.637951 305.856917 
L 220.800256 298.430564 
L 220.963315 296.624618 
L 221.13019 292.544089 
L 221.294286 292.380309 
L 221.461981 286.483639 
L 221.624601 297.016882 
L 221.787217 285.379514 
L 221.95034 285.41412 
L 222.1128 290.432753 
L 222.600667 284.601572 
L 222.765218 287.918248 
L 222.927597 288.434899 
L 223.130173 295.099782 
L 223.293423 291.727251 
L 223.619664 294.133004 
L 223.785787 290.990451 
L 223.948464 290.259138 
L 224.112438 287.960884 
L 224.27487 290.474469 
L 224.437333 291.04683 
L 224.600092 288.069067 
L 224.762565 297.677963 
L 224.925412 285.471659 
L 225.089169 291.848923 
L 225.577758 283.445009 
L 225.740075 282.104284 
L 225.903157 288.138292 
L 226.066341 288.494161 
L 226.228786 284.772236 
L 226.391383 295.104258 
L 226.561055 296.914565 
L 226.72412 306.242784 
L 226.886419 287.041493 
L 227.05043 298.523685 
L 227.213264 296.265131 
L 227.375597 283.959792 
L 227.539001 302.379898 
L 227.70182 282.567079 
L 227.86903 296.286749 
L 228.031556 293.416223 
L 228.199376 295.397804 
L 228.36192 280.61802 
L 228.524228 295.375738 
L 228.68698 292.578441 
L 228.849641 303.697491 
L 229.013579 301.016613 
L 229.34839 285.642807 
L 229.513102 300.09604 
L 229.838534 284.980044 
L 230.001847 282.03647 
L 230.165516 297.46461 
L 230.327886 294.344589 
L 230.49031 286.128496 
L 230.65364 284.756302 
L 230.817355 291.830935 
L 230.979857 305.106331 
L 231.304627 282.026463 
L 231.472929 296.835037 
L 231.635781 294.170312 
L 231.798203 298.118303 
L 232.126065 286.60984 
L 232.458696 294.165437 
L 232.623839 296.708108 
L 232.788903 292.449325 
L 232.95172 295.134746 
L 233.114079 295.962935 
L 233.276512 291.912016 
L 233.604512 293.404725 
L 233.766903 292.752183 
L 233.929216 294.697316 
L 234.25822 291.411185 
L 234.423481 297.245143 
L 234.586642 293.17809 
L 234.751974 284.001511 
L 235.080671 296.314405 
L 235.244082 293.791277 
L 235.406774 295.389289 
L 235.731967 293.001842 
L 235.896012 292.979176 
L 236.061593 284.928139 
L 236.224013 294.333407 
L 236.388284 281.583892 
L 236.552732 288.306371 
L 236.716322 285.922473 
L 236.88342 293.470013 
L 237.046411 289.437413 
L 237.374834 297.829193 
L 237.544261 299.199549 
L 237.708955 298.915602 
L 237.871351 291.921197 
L 238.034475 295.559798 
L 238.198195 295.791238 
L 238.360825 297.920219 
L 238.523591 296.878717 
L 238.686252 289.210441 
L 238.848631 290.181144 
L 239.010998 281.307995 
L 239.173819 284.989721 
L 239.499559 287.662836 
L 239.66187 290.2074 
L 239.825058 278.991691 
L 239.987659 291.728317 
L 240.150589 289.908885 
L 240.312944 274.430133 
L 240.475334 286.26549 
L 240.637643 286.476319 
L 240.963344 277.910897 
L 241.288562 288.460526 
L 241.450956 289.346101 
L 241.613648 291.601274 
L 241.77595 290.875892 
L 241.938658 292.003847 
L 242.265549 276.488499 
L 242.428327 293.946348 
L 242.591969 292.623363 
L 242.754318 284.205979 
L 242.918469 290.118387 
L 243.082289 288.677785 
L 243.244811 295.312692 
L 243.409202 296.355593 
L 243.572337 299.695135 
L 243.737484 297.491891 
L 243.900237 283.855939 
L 244.063911 300.071873 
L 244.388817 283.469398 
L 244.552926 288.678807 
L 244.878773 258.356376 
L 245.041299 295.071607 
L 245.203609 294.251584 
L 245.366156 294.258451 
L 245.529833 294.844177 
L 245.693039 293.196974 
L 245.855922 293.52213 
L 246.018276 286.75067 
L 246.180635 285.287753 
L 246.343976 294.802373 
L 246.670622 287.580336 
L 246.833249 292.593318 
L 246.996471 287.936221 
L 247.158814 292.549298 
L 247.322586 291.434136 
L 247.650657 232.325061 
L 247.814496 280.257197 
L 247.977225 290.783848 
L 248.304931 276.58677 
L 248.630768 296.031858 
L 248.79396 297.458579 
L 249.119392 273.40741 
L 249.281877 289.497851 
L 249.446812 292.475303 
L 249.609142 291.925399 
L 249.937126 297.257018 
L 250.099466 294.524548 
L 250.265179 305.204991 
L 250.427514 290.969086 
L 250.755363 293.58735 
L 250.918111 292.247652 
L 251.243832 283.102679 
L 251.406817 281.626365 
L 251.569241 289.396041 
L 251.732163 285.729546 
L 251.89449 290.386754 
L 252.05696 284.192937 
L 252.219613 288.81111 
L 252.382426 288.816279 
L 252.544953 288.679709 
L 252.708204 284.381625 
L 252.870962 267.347467 
L 253.034261 287.904639 
L 253.196592 264.157247 
L 253.686827 290.618206 
L 254.175045 268.176821 
L 254.50043 168.864207 
L 254.663051 76.653027 
L 254.826125 49.550063 
L 254.988428 47.925053 
L 255.150831 57.789793 
L 255.477553 279.154023 
L 255.640775 296.083962 
L 255.804996 301.581767 
L 255.967507 299.507811 
L 256.134477 303.07011 
L 256.297722 301.656045 
L 256.460302 304.034896 
L 256.622614 286.941834 
L 256.785021 292.049978 
L 256.948706 291.970827 
L 257.273677 298.610777 
L 257.438354 290.332765 
L 257.763443 301.768903 
L 257.926794 303.338975 
L 258.091998 303.731325 
L 258.2613 297.851665 
L 258.423735 302.15966 
L 258.586608 300.878868 
L 258.7491 290.004384 
L 258.91231 290.140807 
L 259.074714 289.318519 
L 259.237441 290.104662 
L 259.401595 288.275955 
L 259.564766 279.198985 
L 259.727173 279.801952 
L 260.061661 305.918199 
L 260.389784 283.871867 
L 260.553534 280.648576 
L 260.878818 261.615565 
L 261.045169 287.115803 
L 261.209515 270.782161 
L 261.372049 271.153513 
L 261.697848 290.678049 
L 261.869777 287.120852 
L 262.35694 238.29382 
L 262.681575 30.837017 
L 262.843897 37.413877 
L 263.006204 43.800782 
L 263.168529 245.600341 
L 263.331204 283.762203 
L 263.493569 285.10532 
L 263.656027 290.675297 
L 263.819435 284.734988 
L 263.982327 294.977399 
L 264.145827 283.605487 
L 264.308566 287.168891 
L 264.470901 269.739474 
L 264.633227 232.983052 
L 264.797309 244.079283 
L 264.959633 285.631391 
L 265.12373 280.432899 
L 265.286689 286.549226 
L 265.451229 287.397683 
L 265.614052 296.902082 
L 265.77646 263.975498 
L 265.939406 288.837606 
L 266.102806 280.49574 
L 266.265161 289.541906 
L 266.429976 275.723049 
L 266.592883 293.610194 
L 266.755203 282.753984 
L 266.91808 280.362228 
L 267.080406 274.877986 
L 267.242973 277.445218 
L 267.405572 273.327771 
L 267.568647 264.935912 
L 267.894181 292.812118 
L 268.056704 284.008142 
L 268.219517 283.571436 
L 268.381944 281.283358 
L 268.871569 299.198368 
L 269.034048 284.517099 
L 269.199106 288.385228 
L 269.361447 284.274904 
L 269.527832 295.423695 
L 269.690469 298.313251 
L 270.015368 280.052053 
L 270.177698 281.79 
L 270.340633 292.435635 
L 270.507908 280.064823 
L 270.670285 289.746502 
L 270.835255 285.325501 
L 270.997963 288.89855 
L 271.16058 288.152837 
L 271.496321 296.840211 
L 271.659959 296.505284 
L 271.828543 301.976319 
L 271.995158 299.819018 
L 272.15759 286.587488 
L 272.322959 289.06148 
L 272.485338 289.196277 
L 272.810719 285.791763 
L 272.973073 289.483545 
L 273.136177 279.737581 
L 273.298521 290.719078 
L 273.78769 280.692595 
L 273.950167 292.431699 
L 274.277586 274.43539 
L 274.439976 281.766329 
L 274.6025 277.760228 
L 274.766375 280.402896 
L 275.422981 301.958695 
L 275.598637 302.622197 
L 275.761249 299.422839 
L 275.923796 300.91832 
L 276.092278 300.11216 
L 276.255872 302.791393 
L 276.429633 300.936017 
L 276.591946 290.820829 
L 276.754282 241.010325 
L 276.918045 242.27888 
L 277.083035 304.232198 
L 277.247447 304.579899 
L 277.57656 288.429544 
L 277.905896 297.356169 
L 278.071637 293.718556 
L 278.23527 294.105831 
L 278.398848 300.808566 
L 278.561285 292.9673 
L 278.723868 299.084466 
L 278.896253 300.021702 
L 279.058896 295.921842 
L 279.409733 302.191044 
L 279.572269 303.298302 
L 279.734691 301.375805 
L 279.89946 302.059708 
L 280.061879 297.323452 
L 280.227044 300.469155 
L 280.389442 286.845433 
L 280.715852 298.880027 
L 280.878198 303.886492 
L 281.205509 298.772379 
L 281.371278 303.669381 
L 281.534776 302.920122 
L 281.700511 300.400233 
L 281.863068 300.421692 
L 282.03477 303.242694 
L 282.197369 302.620956 
L 282.359689 297.692133 
L 282.531939 248.668219 
L 282.69713 302.965454 
L 282.866828 301.721074 
L 283.357037 295.700902 
L 283.519816 295.194846 
L 283.846084 285.792269 
L 284.008438 292.055813 
L 284.170763 270.415741 
L 284.333841 286.260886 
L 284.496315 290.778254 
L 284.659096 289.131287 
L 284.821847 294.554725 
L 284.984438 294.381207 
L 285.146755 287.991641 
L 285.309156 286.526216 
L 285.472834 288.358498 
L 285.812717 297.664058 
L 285.976363 294.778618 
L 286.139365 300.042457 
L 286.479413 297.190701 
L 286.642241 292.66608 
L 286.804616 284.028028 
L 287.291714 296.273891 
L 287.454756 294.033484 
L 287.617376 296.215503 
L 287.782715 295.907712 
L 287.9458 297.71331 
L 288.10835 291.370557 
L 288.270986 292.497978 
L 288.433305 281.95134 
L 288.595691 279.37134 
L 288.757993 282.689466 
L 288.922572 291.046459 
L 289.085189 266.441094 
L 289.247561 274.852911 
L 289.410433 292.627068 
L 289.572912 295.397736 
L 289.73544 294.957454 
L 289.897851 296.212007 
L 290.060175 272.407439 
L 290.385987 293.588365 
L 290.551857 295.548755 
L 290.714204 278.11458 
L 290.878915 291.092534 
L 291.043852 294.437077 
L 291.207581 292.134934 
L 291.370041 294.598228 
L 291.539757 294.716664 
L 291.702161 291.998335 
L 291.864804 296.001192 
L 292.027533 294.695525 
L 292.18994 289.812716 
L 292.352319 288.379095 
L 292.516421 289.930615 
L 292.684728 298.631216 
L 293.01047 284.033133 
L 293.172879 274.199022 
L 293.335238 294.379179 
L 293.665196 304.963008 
L 293.827852 304.037371 
L 293.997381 301.040591 
L 294.1606 305.366812 
L 294.488481 303.356918 
L 294.652166 293.595838 
L 294.8146 295.978757 
L 294.977136 285.199641 
L 295.48973 305.159406 
L 295.652889 299.872013 
L 295.81771 303.876643 
L 295.980522 302.273869 
L 296.149071 295.044574 
L 296.311829 304.900291 
L 296.474141 299.496322 
L 296.636474 299.920998 
L 296.799854 285.48858 
L 296.965593 297.29986 
L 297.130654 297.201697 
L 297.293206 289.929254 
L 297.456034 302.828003 
L 297.61908 300.979513 
L 297.78158 300.87455 
L 297.94389 285.865196 
L 298.106372 298.922847 
L 298.431509 304.491413 
L 298.598776 301.279558 
L 298.761889 301.921558 
L 298.926957 300.998142 
L 299.09313 301.138052 
L 299.256002 302.403351 
L 299.422924 297.423289 
L 299.585506 303.976089 
L 299.748439 302.66525 
L 299.91244 296.024668 
L 300.074765 299.838605 
L 300.40437 297.410255 
L 300.574123 298.319521 
L 300.90222 287.29938 
L 301.064704 294.777889 
L 301.228619 291.767499 
L 301.39095 302.418513 
L 301.557607 301.181275 
L 301.720216 302.574579 
L 301.882563 301.10294 
L 302.209642 303.305537 
L 302.372095 301.290645 
L 302.53444 301.322219 
L 302.697521 302.251526 
L 302.860102 299.292391 
L 303.02422 301.465593 
L 303.187009 269.232142 
L 303.353396 304.957174 
L 303.518094 305.335765 
L 303.682527 301.363688 
L 303.848439 301.660888 
L 304.01088 304.301601 
L 304.175958 303.375863 
L 304.338833 303.418226 
L 304.501141 286.571126 
L 304.827271 300.116885 
L 304.989765 303.474015 
L 305.154187 301.185099 
L 305.316631 301.351318 
L 305.481423 286.88609 
L 305.644186 300.28689 
L 305.80958 298.66385 
L 305.972367 301.790111 
L 306.298671 303.918809 
L 306.462043 300.792017 
L 306.625088 304.796225 
L 306.789964 301.517768 
L 306.95436 304.984015 
L 307.117404 304.700268 
L 307.279761 303.041049 
L 307.444577 299.620074 
L 307.609867 303.118464 
L 307.776842 298.571614 
L 307.939673 299.103296 
L 308.10209 297.295285 
L 308.264701 297.042051 
L 308.427102 290.831566 
L 308.589605 300.221563 
L 308.752767 297.147242 
L 308.915073 300.272336 
L 309.078191 297.672346 
L 309.241071 303.48039 
L 309.412011 305.194063 
L 309.737535 293.59815 
L 309.899926 284.240867 
L 310.062969 283.774499 
L 310.226215 290.212616 
L 310.388534 284.110864 
L 310.551644 284.795401 
L 310.878579 273.506148 
L 311.041502 273.719615 
L 311.204311 254.173328 
L 311.377987 290.253508 
L 311.540644 291.246385 
L 311.703524 299.674095 
L 311.866748 283.727936 
L 312.029055 291.549321 
L 312.1923 288.179761 
L 312.359408 305.018125 
L 312.524336 291.410433 
L 312.687872 295.36464 
L 312.850359 291.572642 
L 313.012674 297.191091 
L 313.175494 293.764708 
L 313.338563 283.605627 
L 313.665414 300.400654 
L 313.830064 291.570156 
L 313.992504 303.906892 
L 314.159047 289.785671 
L 314.484882 283.974622 
L 314.648167 289.316066 
L 314.811028 286.984927 
L 314.973333 286.445985 
L 315.139723 289.118219 
L 315.302094 284.998235 
L 315.465311 287.224066 
L 315.627652 282.771825 
L 315.790074 289.710106 
L 315.956195 286.911732 
L 316.119478 292.022949 
L 316.281867 284.102519 
L 316.607598 304.11424 
L 316.770061 303.797883 
L 316.932485 290.18723 
L 317.095124 288.646113 
L 317.257723 285.158773 
L 317.420235 298.727997 
L 317.582685 290.813869 
L 317.746076 290.506476 
L 317.908581 295.32716 
L 318.235037 283.873633 
L 318.397337 268.51244 
L 318.721997 260.797137 
L 318.884497 268.244178 
L 319.046822 283.257068 
L 319.20913 268.541732 
L 319.371504 264.911804 
L 319.53447 280.377611 
L 319.697164 284.128261 
L 319.860056 271.010178 
L 320.022668 279.280456 
L 320.185032 258.230827 
L 320.347489 280.142853 
L 320.510181 280.993763 
L 320.673767 273.483649 
L 320.836101 281.420808 
L 320.998517 270.442289 
L 321.160842 273.545958 
L 321.323144 273.513988 
L 321.485535 270.732495 
L 321.648376 270.440191 
L 321.973292 252.98375 
L 322.136557 278.497797 
L 322.299175 259.813266 
L 322.461479 280.0326 
L 322.624821 270.35795 
L 322.787336 283.791368 
L 322.949767 277.828822 
L 323.11226 265.807398 
L 323.274626 279.978259 
L 323.436949 270.758363 
L 323.599252 269.934423 
L 323.763322 293.559545 
L 323.925624 277.649734 
L 324.092974 291.113555 
L 324.255362 276.415033 
L 324.418857 283.993745 
L 324.745564 275.299001 
L 324.908355 287.366481 
L 325.083306 291.005295 
L 325.248918 289.484333 
L 325.412799 280.736266 
L 325.742089 296.622013 
L 326.068524 284.646006 
L 326.230957 285.586937 
L 326.39353 277.110306 
L 326.555841 274.904288 
L 326.718359 275.354267 
L 327.043959 264.782226 
L 327.206675 271.07264 
L 327.531596 258.851934 
L 327.695553 271.054231 
L 327.858086 270.780931 
L 328.020537 280.621596 
L 328.182846 279.939025 
L 328.345229 280.870488 
L 328.50962 282.77213 
L 328.67267 273.541258 
L 328.835078 280.220107 
L 328.997947 275.135947 
L 329.160695 280.740718 
L 329.323448 277.05725 
L 329.486554 278.540478 
L 329.650652 274.023479 
L 329.813177 275.350892 
L 329.975575 275.727781 
L 330.138099 265.614878 
L 330.300635 264.849806 
L 330.462957 281.26349 
L 330.625338 269.991244 
L 330.787769 267.248336 
L 330.951006 275.360305 
L 331.113549 266.79453 
L 331.279151 274.928559 
L 331.442135 274.3254 
L 331.604542 275.489605 
L 331.929645 267.420267 
L 332.09201 273.42492 
L 332.255362 263.146596 
L 332.418223 279.885333 
L 332.581606 275.482558 
L 332.744491 288.105955 
L 332.906798 281.375758 
L 333.070729 296.802387 
L 333.233575 293.002256 
L 333.396516 301.974831 
L 333.724831 273.92324 
L 334.050074 304.383488 
L 334.214686 285.783839 
L 334.385793 303.076732 
L 334.550904 301.000755 
L 334.71708 301.641301 
L 334.879897 295.673751 
L 335.042978 301.177218 
L 335.219538 296.707029 
L 335.382152 296.385058 
L 335.550749 298.744819 
L 335.713058 288.406161 
L 335.876097 289.089622 
L 336.038462 291.135272 
L 336.363944 288.005148 
L 336.695946 297.358198 
L 336.858641 283.865578 
L 337.184789 303.728613 
L 337.347385 292.721525 
L 337.509735 293.092697 
L 337.67213 288.823213 
L 337.834479 296.268035 
L 337.997664 286.274075 
L 338.160046 293.843149 
L 338.32377 294.536224 
L 338.486289 292.955077 
L 338.649594 293.733134 
L 338.812409 290.950244 
L 339.137619 291.627252 
L 339.3005 294.995469 
L 339.463749 289.324471 
L 339.629126 294.132726 
L 339.798268 290.571318 
L 340.123772 296.824962 
L 340.286385 295.116321 
L 340.450336 295.664651 
L 340.61299 293.472364 
L 340.784197 295.805886 
L 340.94809 293.990137 
L 341.111056 296.851931 
L 341.281271 296.669434 
L 341.60621 286.273383 
L 342.097067 297.472173 
L 342.259369 290.404139 
L 342.422141 300.387126 
L 342.591314 294.325686 
L 342.916208 279.448153 
L 343.080184 293.929815 
L 343.246039 291.08677 
L 343.409884 293.055098 
L 343.573606 305.077572 
L 343.898623 300.61643 
L 344.065375 302.642736 
L 344.227899 299.501225 
L 344.394468 300.490347 
L 344.556913 299.929526 
L 344.897153 303.19432 
L 345.222311 301.376705 
L 345.387242 301.85477 
L 345.55062 303.361743 
L 345.713154 295.045404 
L 345.8764 293.546241 
L 346.038797 301.97411 
L 346.202781 303.814641 
L 346.366094 304.307079 
L 346.693543 298.189799 
L 346.856775 303.171172 
L 347.019215 298.404684 
L 347.181643 299.381016 
L 347.34499 302.589493 
L 347.508949 298.388577 
L 347.67555 302.818571 
L 347.839328 298.247261 
L 348.002294 301.91373 
L 348.165107 302.283637 
L 348.329568 301.763307 
L 348.494009 303.238018 
L 348.656355 294.128813 
L 348.830076 302.164513 
L 348.993209 295.715574 
L 349.320899 272.986281 
L 349.483436 252.153218 
L 349.647554 302.019263 
L 349.812919 303.667054 
L 349.978112 296.384956 
L 350.140451 281.132625 
L 350.304118 283.305236 
L 350.467452 288.374351 
L 350.629915 282.177153 
L 350.792401 281.051695 
L 350.956267 287.32108 
L 351.118978 286.371114 
L 351.281691 283.484156 
L 351.444055 284.620533 
L 351.606443 284.027747 
L 351.76899 278.479373 
L 352.095321 230.122444 
L 352.257724 286.081409 
L 352.42023 283.408372 
L 352.583672 283.484487 
L 352.746024 283.288805 
L 352.910256 285.474474 
L 353.073891 298.854963 
L 353.240325 302.555551 
L 353.404039 302.584648 
L 353.566778 274.218825 
L 353.729323 277.887486 
L 353.892495 290.920003 
L 354.217721 278.285741 
L 354.380062 276.08936 
L 354.542408 269.550049 
L 354.70477 281.380606 
L 354.867421 278.150188 
L 355.029877 281.159967 
L 355.192275 274.842184 
L 355.51765 291.923889 
L 355.680524 301.057979 
L 356.00605 282.661282 
L 356.332441 279.066654 
L 356.494793 284.484297 
L 356.987312 266.159714 
L 357.15015 236.076115 
L 357.313083 227.044414 
L 357.47539 205.206025 
L 357.962546 61.723637 
L 358.12584 269.563238 
L 358.288163 283.537296 
L 358.450777 281.511516 
L 358.61322 277.745262 
L 358.938021 283.748164 
L 359.100325 282.215733 
L 359.262625 273.204173 
L 359.424971 283.824273 
L 359.750025 281.612736 
L 359.912846 282.600025 
L 360.076112 281.803131 
L 360.239107 283.42719 
L 360.401757 282.678472 
L 360.56499 285.166418 
L 360.889984 283.064824 
L 361.052376 283.902414 
L 361.214728 283.76393 
L 361.377249 286.569149 
L 361.539692 279.045091 
L 361.702124 279.450504 
L 361.864548 283.138002 
L 362.19017 280.604574 
L 362.353113 285.382059 
L 362.515591 280.818026 
L 362.678235 281.500454 
L 362.841526 280.340953 
L 363.003865 282.065766 
L 363.166239 296.993725 
L 363.329975 294.941823 
L 363.493358 302.056944 
L 363.818583 291.445352 
L 363.985109 300.536171 
L 364.147746 302.933903 
L 364.310567 303.532277 
L 364.472994 302.219978 
L 364.635366 302.304131 
L 364.961885 295.80148 
L 365.124202 270.682456 
L 365.290641 295.566454 
L 365.616972 300.454519 
L 365.779429 297.269018 
L 365.941841 297.255955 
L 366.268393 294.931004 
L 366.593237 284.690808 
L 366.755682 300.630956 
L 366.919987 286.9025 
L 367.084373 300.855776 
L 367.247384 298.868755 
L 367.410019 300.218262 
L 367.735571 281.398316 
L 367.89792 283.159641 
L 368.223795 279.53931 
L 368.548851 284.312899 
L 368.711513 284.372541 
L 368.874141 284.031945 
L 369.037797 284.152543 
L 369.20014 283.551277 
L 369.363052 281.680597 
L 369.691665 302.0227 
L 369.855931 299.112709 
L 370.02034 293.68929 
L 370.186378 303.239996 
L 370.350194 302.124465 
L 370.51445 301.938411 
L 370.677092 288.212135 
L 370.842867 293.190233 
L 371.005748 293.650449 
L 371.168571 292.974453 
L 371.497863 299.585592 
L 371.662077 295.146842 
L 371.826471 297.183288 
L 371.99323 278.743298 
L 372.155533 299.503903 
L 372.646656 294.072321 
L 372.971418 285.52154 
L 373.297312 295.587099 
L 373.459634 290.654533 
L 373.78603 301.058699 
L 373.948798 297.95891 
L 374.111441 297.604535 
L 374.274174 282.546681 
L 374.926351 300.220394 
L 375.252345 265.598345 
L 375.419271 300.128426 
L 375.583014 300.049249 
L 375.745349 301.069809 
L 375.90769 286.799003 
L 376.070227 291.751876 
L 376.232717 280.049645 
L 376.395375 292.561249 
L 376.721203 287.309088 
L 376.885284 291.146053 
L 377.050158 289.48272 
L 377.213334 293.962146 
L 377.539312 290.625767 
L 377.701647 294.913203 
L 377.864251 292.834599 
L 378.027358 296.637519 
L 378.1917 288.685575 
L 378.355833 293.858058 
L 378.519359 293.38738 
L 378.682851 303.733032 
L 378.846138 297.421803 
L 379.009355 296.370764 
L 379.334255 279.618435 
L 379.499436 288.843014 
L 379.661866 277.994627 
L 379.824165 285.411876 
L 379.986519 271.863622 
L 380.150715 287.140121 
L 380.313071 282.342576 
L 380.475547 290.550538 
L 380.637907 290.253983 
L 380.800794 272.752716 
L 380.96498 286.116587 
L 381.128904 286.022454 
L 381.291485 289.110724 
L 381.453785 284.810878 
L 381.779548 291.836713 
L 381.941911 291.930965 
L 382.267067 280.149028 
L 382.429425 286.585891 
L 382.59237 286.475956 
L 382.754917 288.047394 
L 382.91739 286.480038 
L 383.079785 288.860209 
L 383.244982 288.720657 
L 383.410624 294.665121 
L 383.738414 285.813307 
L 383.904082 296.09184 
L 384.070612 297.625553 
L 384.398204 296.867488 
L 384.563313 292.521728 
L 384.726014 292.879881 
L 385.542294 229.951691 
L 386.029384 85.060893 
L 386.191719 40.653068 
L 386.354552 248.282194 
L 386.519777 290.820078 
L 386.684111 298.574643 
L 386.846617 298.875751 
L 387.172223 241.917156 
L 387.334614 246.823786 
L 387.497002 246.261244 
L 387.659361 240.186666 
L 387.821835 291.54013 
L 387.987482 300.668491 
L 388.159443 303.104537 
L 388.485347 298.269078 
L 388.648274 298.617033 
L 388.82158 296.996061 
L 388.984955 300.675106 
L 389.148153 301.110735 
L 389.310573 298.545324 
L 389.474446 299.937456 
L 389.637826 299.708784 
L 389.963691 294.924268 
L 390.138755 299.513613 
L 390.301103 286.914171 
L 390.634347 298.135444 
L 390.798897 298.040919 
L 390.961964 292.592192 
L 391.124797 296.16222 
L 391.291797 295.775826 
L 391.454822 298.349457 
L 391.619135 295.039495 
L 391.946551 297.535543 
L 392.113943 298.026032 
L 392.278646 301.992589 
L 392.773537 286.816288 
L 392.937423 301.418057 
L 393.104953 300.119891 
L 393.267594 296.628387 
L 393.432447 300.481957 
L 393.594988 280.586803 
L 393.759585 280.377758 
L 394.088125 272.09747 
L 394.250456 275.632582 
L 394.412799 282.153622 
L 394.575098 276.072238 
L 394.737764 280.967439 
L 394.900165 281.092689 
L 395.063817 284.940483 
L 395.229437 285.547441 
L 395.391821 282.719336 
L 395.554197 286.49498 
L 395.717416 282.98612 
L 395.880821 285.658251 
L 396.043201 276.997423 
L 396.208301 285.040707 
L 396.372147 283.385923 
L 396.534577 284.365747 
L 396.860269 274.445035 
L 397.022766 281.091943 
L 397.185078 279.963736 
L 397.347506 279.815906 
L 397.509951 280.813083 
L 397.672789 280.419728 
L 397.835365 278.491967 
L 397.997911 286.105776 
L 398.16162 278.718438 
L 398.32394 279.712924 
L 398.487273 278.672741 
L 398.487273 278.672741 
" clip-path="url(#p227a222cce)" style="fill: none; stroke: #1f77b4; stroke-width: 1.5; stroke-linecap: square"/>
   </g>
   <g id="patch_3">
    <path d="M 57.6 307.584 
L 57.6 41.472 
" style="fill: none; stroke: #000000; stroke-width: 0.8; stroke-linejoin: miter; stroke-linecap: square"/>
   </g>
   <g id="patch_4">
    <path d="M 414.72 307.584 
L 414.72 41.472 
" style="fill: none; stroke: #000000; stroke-width: 0.8; stroke-linejoin: miter; stroke-linecap: square"/>
   </g>
   <g id="patch_5">
    <path d="M 57.6 307.584 
L 414.72 307.584 
" style="fill: none; stroke: #000000; stroke-width: 0.8; stroke-linejoin: miter; stroke-linecap: square"/>
   </g>
   <g id="patch_6">
    <path d="M 57.6 41.472 
L 414.72 41.472 
" style="fill: none; stroke: #000000; stroke-width: 0.8; stroke-linejoin: miter; stroke-linecap: square"/>
   </g>
   <g id="text_19">
    <!-- pt5 link speed per 100ms -->
    <g transform="translate(159.425625 35.472)scale(0.12 -0.12)">
     <defs>
      <path id="DejaVuSans-20" transform="scale(0.015625)"/>
      <path id="DejaVuSans-6c" d="M 603 4863 
L 1178 4863 
L 1178 0 
L 603 0 
L 603 4863 
z
" transform="scale(0.015625)"/>
      <path id="DejaVuSans-6e" d="M 3513 2113 
L 3513 0 
L 2938 0 
L 2938 2094 
Q 2938 2591 2744 2837 
Q 2550 3084 2163 3084 
Q 1697 3084 1428 2787 
Q 1159 2491 1159 1978 
L 1159 0 
L 581 0 
L 581 3500 
L 1159 3500 
L 1159 2956 
Q 1366 3272 1645 3428 
Q 1925 3584 2291 3584 
Q 2894 3584 3203 3211 
Q 3513 2838 3513 2113 
z
" transform="scale(0.015625)"/>
      <path id="DejaVuSans-6b" d="M 581 4863 
L 1159 4863 
L 1159 1991 
L 2875 3500 
L 3609 3500 
L 1753 1863 
L 3688 0 
L 2938 0 
L 1159 1709 
L 1159 0 
L 581 0 
L 581 4863 
z
" transform="scale(0.015625)"/>
      <path id="DejaVuSans-64" d="M 2906 2969 
L 2906 4863 
L 3481 4863 
L 3481 0 
L 2906 0 
L 2906 525 
Q 2725 213 2448 61 
Q 2172 -91 1784 -91 
Q 1150 -91 751 415 
Q 353 922 353 1747 
Q 353 2572 751 3078 
Q 1150 3584 1784 3584 
Q 2172 3584 2448 3432 
Q 2725 3281 2906 2969 
z
M 947 1747 
Q 947 1113 1208 752 
Q 1469 391 1925 391 
Q 2381 391 2643 752 
Q 2906 1113 2906 1747 
Q 2906 2381 2643 2742 
Q 2381 3103 1925 3103 
Q 1469 3103 1208 2742 
Q 947 2381 947 1747 
z
" transform="scale(0.015625)"/>
      <path id="DejaVuSans-72" d="M 2631 2963 
Q 2534 3019 2420 3045 
Q 2306 3072 2169 3072 
Q 1681 3072 1420 2755 
Q 1159 2438 1159 1844 
L 1159 0 
L 581 0 
L 581 3500 
L 1159 3500 
L 1159 2956 
Q 1341 3275 1631 3429 
Q 1922 3584 2338 3584 
Q 2397 3584 2469 3576 
Q 2541 3569 2628 3553 
L 2631 2963 
z
" transform="scale(0.015625)"/>
     </defs>
     <use xlink:href="#DejaVuSans-70"/>
     <use xlink:href="#DejaVuSans-74" x="63.476562"/>
     <use xlink:href="#DejaVuSans-35" x="102.685547"/>
     <use xlink:href="#DejaVuSans-20" x="166.308594"/>
     <use xlink:href="#DejaVuSans-6c" x="198.095703"/>
     <use xlink:href="#DejaVuSans-69" x="225.878906"/>
     <use xlink:href="#DejaVuSans-6e" x="253.662109"/>
     <use xlink:href="#DejaVuSans-6b" x="317.041016"/>
     <use xlink:href="#DejaVuSans-20" x="374.951172"/>
     <use xlink:href="#DejaVuSans-73" x="406.738281"/>
     <use xlink:href="#DejaVuSans-70" x="458.837891"/>
     <use xlink:href="#DejaVuSans-65" x="522.314453"/>
     <use xlink:href="#DejaVuSans-65" x="583.837891"/>
     <use xlink:href="#DejaVuSans-64" x="645.361328"/>
     <use xlink:href="#DejaVuSans-20" x="708.837891"/>
     <use xlink:href="#DejaVuSans-70" x="740.625"/>
     <use xlink:href="#DejaVuSans-65" x="804.101562"/>
     <use xlink:href="#DejaVuSans-72" x="865.625"/>
     <use xlink:href="#DejaVuSans-20" x="906.738281"/>
     <use xlink:href="#DejaVuSans-31" x="938.525391"/>
     <use xlink:href="#DejaVuSans-30" x="1002.148438"/>
     <use xlink:href="#DejaVuSans-30" x="1065.771484"/>
     <use xlink:href="#DejaVuSans-6d" x="1129.394531"/>
     <use xlink:href="#DejaVuSans-73" x="1226.806641"/>
    </g>
   </g>
  </g>
 </g>
 <defs>
  <clipPath id="p227a222cce">
   <rect x="57.6" y="41.472" width="357.12" height="266.112"/>
  </clipPath>
 </defs>
</svg>
