<?xml version="1.0" encoding="utf-8" standalone="no"?>
<!DOCTYPE svg PUBLIC "-//W3C//DTD SVG 1.1//EN"
  "http://www.w3.org/Graphics/SVG/1.1/DTD/svg11.dtd">
<svg xmlns:xlink="http://www.w3.org/1999/xlink" width="460.8pt" height="345.6pt" viewBox="0 0 460.8 345.6" xmlns="http://www.w3.org/2000/svg" version="1.1">
 <metadata>
  <rdf:RDF xmlns:dc="http://purl.org/dc/elements/1.1/" xmlns:cc="http://creativecommons.org/ns#" xmlns:rdf="http://www.w3.org/1999/02/22-rdf-syntax-ns#">
   <cc:Work>
    <dc:type rdf:resource="http://purl.org/dc/dcmitype/StillImage"/>
    <dc:date>2022-07-10T00:20:26.244965</dc:date>
    <dc:format>image/svg+xml</dc:format>
    <dc:creator>
     <cc:Agent>
      <dc:title>Matplotlib v3.5.2, https://matplotlib.org/</dc:title>
     </cc:Agent>
    </dc:creator>
   </cc:Work>
  </rdf:RDF>
 </metadata>
 <defs>
  <style type="text/css">*{stroke-linejoin: round; stroke-linecap: butt}</style>
 </defs>
 <g id="figure_1">
  <g id="patch_1">
   <path d="M 0 345.6 
L 460.8 345.6 
L 460.8 0 
L 0 0 
z
" style="fill: #ffffff"/>
  </g>
  <g id="axes_1">
   <g id="patch_2">
    <path d="M 57.6 307.584 
L 414.72 307.584 
L 414.72 41.472 
L 57.6 41.472 
z
" style="fill: #ffffff"/>
   </g>
   <g id="matplotlib.axis_1">
    <g id="xtick_1">
     <g id="line2d_1">
      <defs>
       <path id="mc8f7c1d6b1" d="M 0 0 
L 0 3.5 
" style="stroke: #000000; stroke-width: 0.8"/>
      </defs>
      <g>
       <use xlink:href="#mc8f7c1d6b1" x="73.692551" y="307.584" style="stroke: #000000; stroke-width: 0.8"/>
      </g>
     </g>
     <g id="text_1">
      <!-- 0 -->
      <g transform="translate(70.511301 322.182437)scale(0.1 -0.1)">
       <defs>
        <path id="DejaVuSans-30" d="M 2034 4250 
Q 1547 4250 1301 3770 
Q 1056 3291 1056 2328 
Q 1056 1369 1301 889 
Q 1547 409 2034 409 
Q 2525 409 2770 889 
Q 3016 1369 3016 2328 
Q 3016 3291 2770 3770 
Q 2525 4250 2034 4250 
z
M 2034 4750 
Q 2819 4750 3233 4129 
Q 3647 3509 3647 2328 
Q 3647 1150 3233 529 
Q 2819 -91 2034 -91 
Q 1250 -91 836 529 
Q 422 1150 422 2328 
Q 422 3509 836 4129 
Q 1250 4750 2034 4750 
z
" transform="scale(0.015625)"/>
       </defs>
       <use xlink:href="#DejaVuSans-30"/>
      </g>
     </g>
    </g>
    <g id="xtick_2">
     <g id="line2d_2">
      <g>
       <use xlink:href="#mc8f7c1d6b1" x="143.73152" y="307.584" style="stroke: #000000; stroke-width: 0.8"/>
      </g>
     </g>
     <g id="text_2">
      <!-- 50 -->
      <g transform="translate(137.36902 322.182437)scale(0.1 -0.1)">
       <defs>
        <path id="DejaVuSans-35" d="M 691 4666 
L 3169 4666 
L 3169 4134 
L 1269 4134 
L 1269 2991 
Q 1406 3038 1543 3061 
Q 1681 3084 1819 3084 
Q 2600 3084 3056 2656 
Q 3513 2228 3513 1497 
Q 3513 744 3044 326 
Q 2575 -91 1722 -91 
Q 1428 -91 1123 -41 
Q 819 9 494 109 
L 494 744 
Q 775 591 1075 516 
Q 1375 441 1709 441 
Q 2250 441 2565 725 
Q 2881 1009 2881 1497 
Q 2881 1984 2565 2268 
Q 2250 2553 1709 2553 
Q 1456 2553 1204 2497 
Q 953 2441 691 2322 
L 691 4666 
z
" transform="scale(0.015625)"/>
       </defs>
       <use xlink:href="#DejaVuSans-35"/>
       <use xlink:href="#DejaVuSans-30" x="63.623047"/>
      </g>
     </g>
    </g>
    <g id="xtick_3">
     <g id="line2d_3">
      <g>
       <use xlink:href="#mc8f7c1d6b1" x="213.770488" y="307.584" style="stroke: #000000; stroke-width: 0.8"/>
      </g>
     </g>
     <g id="text_3">
      <!-- 100 -->
      <g transform="translate(204.226738 322.182437)scale(0.1 -0.1)">
       <defs>
        <path id="DejaVuSans-31" d="M 794 531 
L 1825 531 
L 1825 4091 
L 703 3866 
L 703 4441 
L 1819 4666 
L 2450 4666 
L 2450 531 
L 3481 531 
L 3481 0 
L 794 0 
L 794 531 
z
" transform="scale(0.015625)"/>
       </defs>
       <use xlink:href="#DejaVuSans-31"/>
       <use xlink:href="#DejaVuSans-30" x="63.623047"/>
       <use xlink:href="#DejaVuSans-30" x="127.246094"/>
      </g>
     </g>
    </g>
    <g id="xtick_4">
     <g id="line2d_4">
      <g>
       <use xlink:href="#mc8f7c1d6b1" x="283.809457" y="307.584" style="stroke: #000000; stroke-width: 0.8"/>
      </g>
     </g>
     <g id="text_4">
      <!-- 150 -->
      <g transform="translate(274.265707 322.182437)scale(0.1 -0.1)">
       <use xlink:href="#DejaVuSans-31"/>
       <use xlink:href="#DejaVuSans-35" x="63.623047"/>
       <use xlink:href="#DejaVuSans-30" x="127.246094"/>
      </g>
     </g>
    </g>
    <g id="xtick_5">
     <g id="line2d_5">
      <g>
       <use xlink:href="#mc8f7c1d6b1" x="353.848425" y="307.584" style="stroke: #000000; stroke-width: 0.8"/>
      </g>
     </g>
     <g id="text_5">
      <!-- 200 -->
      <g transform="translate(344.304675 322.182437)scale(0.1 -0.1)">
       <defs>
        <path id="DejaVuSans-32" d="M 1228 531 
L 3431 531 
L 3431 0 
L 469 0 
L 469 531 
Q 828 903 1448 1529 
Q 2069 2156 2228 2338 
Q 2531 2678 2651 2914 
Q 2772 3150 2772 3378 
Q 2772 3750 2511 3984 
Q 2250 4219 1831 4219 
Q 1534 4219 1204 4116 
Q 875 4013 500 3803 
L 500 4441 
Q 881 4594 1212 4672 
Q 1544 4750 1819 4750 
Q 2544 4750 2975 4387 
Q 3406 4025 3406 3419 
Q 3406 3131 3298 2873 
Q 3191 2616 2906 2266 
Q 2828 2175 2409 1742 
Q 1991 1309 1228 531 
z
" transform="scale(0.015625)"/>
       </defs>
       <use xlink:href="#DejaVuSans-32"/>
       <use xlink:href="#DejaVuSans-30" x="63.623047"/>
       <use xlink:href="#DejaVuSans-30" x="127.246094"/>
      </g>
     </g>
    </g>
    <g id="text_6">
     <!-- time(s) -->
     <g transform="translate(218.357656 335.860562)scale(0.1 -0.1)">
      <defs>
       <path id="DejaVuSans-74" d="M 1172 4494 
L 1172 3500 
L 2356 3500 
L 2356 3053 
L 1172 3053 
L 1172 1153 
Q 1172 725 1289 603 
Q 1406 481 1766 481 
L 2356 481 
L 2356 0 
L 1766 0 
Q 1100 0 847 248 
Q 594 497 594 1153 
L 594 3053 
L 172 3053 
L 172 3500 
L 594 3500 
L 594 4494 
L 1172 4494 
z
" transform="scale(0.015625)"/>
       <path id="DejaVuSans-69" d="M 603 3500 
L 1178 3500 
L 1178 0 
L 603 0 
L 603 3500 
z
M 603 4863 
L 1178 4863 
L 1178 4134 
L 603 4134 
L 603 4863 
z
" transform="scale(0.015625)"/>
       <path id="DejaVuSans-6d" d="M 3328 2828 
Q 3544 3216 3844 3400 
Q 4144 3584 4550 3584 
Q 5097 3584 5394 3201 
Q 5691 2819 5691 2113 
L 5691 0 
L 5113 0 
L 5113 2094 
Q 5113 2597 4934 2840 
Q 4756 3084 4391 3084 
Q 3944 3084 3684 2787 
Q 3425 2491 3425 1978 
L 3425 0 
L 2847 0 
L 2847 2094 
Q 2847 2600 2669 2842 
Q 2491 3084 2119 3084 
Q 1678 3084 1418 2786 
Q 1159 2488 1159 1978 
L 1159 0 
L 581 0 
L 581 3500 
L 1159 3500 
L 1159 2956 
Q 1356 3278 1631 3431 
Q 1906 3584 2284 3584 
Q 2666 3584 2933 3390 
Q 3200 3197 3328 2828 
z
" transform="scale(0.015625)"/>
       <path id="DejaVuSans-65" d="M 3597 1894 
L 3597 1613 
L 953 1613 
Q 991 1019 1311 708 
Q 1631 397 2203 397 
Q 2534 397 2845 478 
Q 3156 559 3463 722 
L 3463 178 
Q 3153 47 2828 -22 
Q 2503 -91 2169 -91 
Q 1331 -91 842 396 
Q 353 884 353 1716 
Q 353 2575 817 3079 
Q 1281 3584 2069 3584 
Q 2775 3584 3186 3129 
Q 3597 2675 3597 1894 
z
M 3022 2063 
Q 3016 2534 2758 2815 
Q 2500 3097 2075 3097 
Q 1594 3097 1305 2825 
Q 1016 2553 972 2059 
L 3022 2063 
z
" transform="scale(0.015625)"/>
       <path id="DejaVuSans-28" d="M 1984 4856 
Q 1566 4138 1362 3434 
Q 1159 2731 1159 2009 
Q 1159 1288 1364 580 
Q 1569 -128 1984 -844 
L 1484 -844 
Q 1016 -109 783 600 
Q 550 1309 550 2009 
Q 550 2706 781 3412 
Q 1013 4119 1484 4856 
L 1984 4856 
z
" transform="scale(0.015625)"/>
       <path id="DejaVuSans-73" d="M 2834 3397 
L 2834 2853 
Q 2591 2978 2328 3040 
Q 2066 3103 1784 3103 
Q 1356 3103 1142 2972 
Q 928 2841 928 2578 
Q 928 2378 1081 2264 
Q 1234 2150 1697 2047 
L 1894 2003 
Q 2506 1872 2764 1633 
Q 3022 1394 3022 966 
Q 3022 478 2636 193 
Q 2250 -91 1575 -91 
Q 1294 -91 989 -36 
Q 684 19 347 128 
L 347 722 
Q 666 556 975 473 
Q 1284 391 1588 391 
Q 1994 391 2212 530 
Q 2431 669 2431 922 
Q 2431 1156 2273 1281 
Q 2116 1406 1581 1522 
L 1381 1569 
Q 847 1681 609 1914 
Q 372 2147 372 2553 
Q 372 3047 722 3315 
Q 1072 3584 1716 3584 
Q 2034 3584 2315 3537 
Q 2597 3491 2834 3397 
z
" transform="scale(0.015625)"/>
       <path id="DejaVuSans-29" d="M 513 4856 
L 1013 4856 
Q 1481 4119 1714 3412 
Q 1947 2706 1947 2009 
Q 1947 1309 1714 600 
Q 1481 -109 1013 -844 
L 513 -844 
Q 928 -128 1133 580 
Q 1338 1288 1338 2009 
Q 1338 2731 1133 3434 
Q 928 4138 513 4856 
z
" transform="scale(0.015625)"/>
      </defs>
      <use xlink:href="#DejaVuSans-74"/>
      <use xlink:href="#DejaVuSans-69" x="39.208984"/>
      <use xlink:href="#DejaVuSans-6d" x="66.992188"/>
      <use xlink:href="#DejaVuSans-65" x="164.404297"/>
      <use xlink:href="#DejaVuSans-28" x="225.927734"/>
      <use xlink:href="#DejaVuSans-73" x="264.941406"/>
      <use xlink:href="#DejaVuSans-29" x="317.041016"/>
     </g>
    </g>
   </g>
   <g id="matplotlib.axis_2">
    <g id="ytick_1">
     <g id="line2d_6">
      <defs>
       <path id="mce1b75f56f" d="M 0 0 
L -3.5 0 
" style="stroke: #000000; stroke-width: 0.8"/>
      </defs>
      <g>
       <use xlink:href="#mce1b75f56f" x="57.6" y="307.584" style="stroke: #000000; stroke-width: 0.8"/>
      </g>
     </g>
     <g id="text_7">
      <!-- 0 -->
      <g transform="translate(44.2375 311.383219)scale(0.1 -0.1)">
       <use xlink:href="#DejaVuSans-30"/>
      </g>
     </g>
    </g>
    <g id="ytick_2">
     <g id="line2d_7">
      <g>
       <use xlink:href="#mce1b75f56f" x="57.6" y="263.232" style="stroke: #000000; stroke-width: 0.8"/>
      </g>
     </g>
     <g id="text_8">
      <!-- 50 -->
      <g transform="translate(37.875 267.031219)scale(0.1 -0.1)">
       <use xlink:href="#DejaVuSans-35"/>
       <use xlink:href="#DejaVuSans-30" x="63.623047"/>
      </g>
     </g>
    </g>
    <g id="ytick_3">
     <g id="line2d_8">
      <g>
       <use xlink:href="#mce1b75f56f" x="57.6" y="218.88" style="stroke: #000000; stroke-width: 0.8"/>
      </g>
     </g>
     <g id="text_9">
      <!-- 100 -->
      <g transform="translate(31.5125 222.679219)scale(0.1 -0.1)">
       <use xlink:href="#DejaVuSans-31"/>
       <use xlink:href="#DejaVuSans-30" x="63.623047"/>
       <use xlink:href="#DejaVuSans-30" x="127.246094"/>
      </g>
     </g>
    </g>
    <g id="ytick_4">
     <g id="line2d_9">
      <g>
       <use xlink:href="#mce1b75f56f" x="57.6" y="174.528" style="stroke: #000000; stroke-width: 0.8"/>
      </g>
     </g>
     <g id="text_10">
      <!-- 150 -->
      <g transform="translate(31.5125 178.327219)scale(0.1 -0.1)">
       <use xlink:href="#DejaVuSans-31"/>
       <use xlink:href="#DejaVuSans-35" x="63.623047"/>
       <use xlink:href="#DejaVuSans-30" x="127.246094"/>
      </g>
     </g>
    </g>
    <g id="ytick_5">
     <g id="line2d_10">
      <g>
       <use xlink:href="#mce1b75f56f" x="57.6" y="130.176" style="stroke: #000000; stroke-width: 0.8"/>
      </g>
     </g>
     <g id="text_11">
      <!-- 200 -->
      <g transform="translate(31.5125 133.975219)scale(0.1 -0.1)">
       <use xlink:href="#DejaVuSans-32"/>
       <use xlink:href="#DejaVuSans-30" x="63.623047"/>
       <use xlink:href="#DejaVuSans-30" x="127.246094"/>
      </g>
     </g>
    </g>
    <g id="ytick_6">
     <g id="line2d_11">
      <g>
       <use xlink:href="#mce1b75f56f" x="57.6" y="85.824" style="stroke: #000000; stroke-width: 0.8"/>
      </g>
     </g>
     <g id="text_12">
      <!-- 250 -->
      <g transform="translate(31.5125 89.623219)scale(0.1 -0.1)">
       <use xlink:href="#DejaVuSans-32"/>
       <use xlink:href="#DejaVuSans-35" x="63.623047"/>
       <use xlink:href="#DejaVuSans-30" x="127.246094"/>
      </g>
     </g>
    </g>
    <g id="ytick_7">
     <g id="line2d_12">
      <g>
       <use xlink:href="#mce1b75f56f" x="57.6" y="41.472" style="stroke: #000000; stroke-width: 0.8"/>
      </g>
     </g>
     <g id="text_13">
      <!-- 300 -->
      <g transform="translate(31.5125 45.271219)scale(0.1 -0.1)">
       <defs>
        <path id="DejaVuSans-33" d="M 2597 2516 
Q 3050 2419 3304 2112 
Q 3559 1806 3559 1356 
Q 3559 666 3084 287 
Q 2609 -91 1734 -91 
Q 1441 -91 1130 -33 
Q 819 25 488 141 
L 488 750 
Q 750 597 1062 519 
Q 1375 441 1716 441 
Q 2309 441 2620 675 
Q 2931 909 2931 1356 
Q 2931 1769 2642 2001 
Q 2353 2234 1838 2234 
L 1294 2234 
L 1294 2753 
L 1863 2753 
Q 2328 2753 2575 2939 
Q 2822 3125 2822 3475 
Q 2822 3834 2567 4026 
Q 2313 4219 1838 4219 
Q 1578 4219 1281 4162 
Q 984 4106 628 3988 
L 628 4550 
Q 988 4650 1302 4700 
Q 1616 4750 1894 4750 
Q 2613 4750 3031 4423 
Q 3450 4097 3450 3541 
Q 3450 3153 3228 2886 
Q 3006 2619 2597 2516 
z
" transform="scale(0.015625)"/>
       </defs>
       <use xlink:href="#DejaVuSans-33"/>
       <use xlink:href="#DejaVuSans-30" x="63.623047"/>
       <use xlink:href="#DejaVuSans-30" x="127.246094"/>
      </g>
     </g>
    </g>
    <g id="text_14">
     <!-- Mbps -->
     <g transform="translate(25.432812 187.795187)rotate(-90)scale(0.1 -0.1)">
      <defs>
       <path id="DejaVuSans-4d" d="M 628 4666 
L 1569 4666 
L 2759 1491 
L 3956 4666 
L 4897 4666 
L 4897 0 
L 4281 0 
L 4281 4097 
L 3078 897 
L 2444 897 
L 1241 4097 
L 1241 0 
L 628 0 
L 628 4666 
z
" transform="scale(0.015625)"/>
       <path id="DejaVuSans-62" d="M 3116 1747 
Q 3116 2381 2855 2742 
Q 2594 3103 2138 3103 
Q 1681 3103 1420 2742 
Q 1159 2381 1159 1747 
Q 1159 1113 1420 752 
Q 1681 391 2138 391 
Q 2594 391 2855 752 
Q 3116 1113 3116 1747 
z
M 1159 2969 
Q 1341 3281 1617 3432 
Q 1894 3584 2278 3584 
Q 2916 3584 3314 3078 
Q 3713 2572 3713 1747 
Q 3713 922 3314 415 
Q 2916 -91 2278 -91 
Q 1894 -91 1617 61 
Q 1341 213 1159 525 
L 1159 0 
L 581 0 
L 581 4863 
L 1159 4863 
L 1159 2969 
z
" transform="scale(0.015625)"/>
       <path id="DejaVuSans-70" d="M 1159 525 
L 1159 -1331 
L 581 -1331 
L 581 3500 
L 1159 3500 
L 1159 2969 
Q 1341 3281 1617 3432 
Q 1894 3584 2278 3584 
Q 2916 3584 3314 3078 
Q 3713 2572 3713 1747 
Q 3713 922 3314 415 
Q 2916 -91 2278 -91 
Q 1894 -91 1617 61 
Q 1341 213 1159 525 
z
M 3116 1747 
Q 3116 2381 2855 2742 
Q 2594 3103 2138 3103 
Q 1681 3103 1420 2742 
Q 1159 2381 1159 1747 
Q 1159 1113 1420 752 
Q 1681 391 2138 391 
Q 2594 391 2855 752 
Q 3116 1113 3116 1747 
z
" transform="scale(0.015625)"/>
      </defs>
      <use xlink:href="#DejaVuSans-4d"/>
      <use xlink:href="#DejaVuSans-62" x="86.279297"/>
      <use xlink:href="#DejaVuSans-70" x="149.755859"/>
      <use xlink:href="#DejaVuSans-73" x="213.232422"/>
     </g>
    </g>
   </g>
   <g id="line2d_13">
    <path d="M 73.832727 274.169463 
L 73.972951 277.949074 
L 74.113096 277.873163 
L 74.253914 281.291978 
L 74.394594 274.707775 
L 74.534813 275.979388 
L 74.674894 267.934771 
L 74.814975 268.109642 
L 74.955081 269.254013 
L 75.095195 265.808045 
L 75.375515 279.979702 
L 75.515804 278.213342 
L 75.655985 268.915893 
L 75.79642 280.432953 
L 75.936943 276.03399 
L 76.077063 281.183747 
L 76.225526 292.405254 
L 76.365881 293.190384 
L 76.506763 297.023782 
L 76.788509 276.725229 
L 76.929279 289.125524 
L 77.070838 290.303729 
L 77.211056 293.659691 
L 77.351981 293.810779 
L 77.49691 290.617861 
L 77.638576 291.759013 
L 77.778833 291.792646 
L 77.919668 291.282039 
L 78.061505 287.50891 
L 78.201629 289.21108 
L 78.341763 285.932215 
L 78.481878 292.955758 
L 78.904853 281.570248 
L 79.327643 292.757106 
L 79.468346 283.574547 
L 79.608541 296.812837 
L 79.749433 291.651484 
L 80.031252 269.064687 
L 80.31501 287.592481 
L 80.455207 282.214423 
L 80.739078 299.956158 
L 80.88089 297.363178 
L 81.021044 276.439234 
L 81.303886 291.609472 
L 81.444093 290.719686 
L 81.5912 286.860137 
L 81.731483 255.870069 
L 82.014849 290.671913 
L 82.15692 294.583855 
L 82.297601 291.902195 
L 82.441774 285.518949 
L 82.581887 285.048388 
L 82.723491 276.183037 
L 82.872345 301.361891 
L 83.014525 300.857027 
L 83.297691 289.913853 
L 83.437838 296.590042 
L 83.577989 284.469107 
L 83.718366 288.779987 
L 83.858631 286.958002 
L 83.999021 276.338267 
L 84.139497 278.711119 
L 84.280352 270.383016 
L 84.421269 284.740439 
L 84.561438 281.613651 
L 84.701524 281.696995 
L 85.12262 291.330681 
L 85.26349 283.434084 
L 85.403578 284.703879 
L 85.543746 287.905108 
L 85.685956 279.077872 
L 85.82648 282.936939 
L 85.966802 282.839582 
L 86.111643 284.491374 
L 86.253787 280.476673 
L 86.534336 286.456189 
L 86.674493 285.787347 
L 86.814762 291.646464 
L 86.957457 291.891109 
L 87.09791 293.445979 
L 87.238319 291.117482 
L 87.378402 299.209322 
L 87.518555 290.748759 
L 87.660718 301.222987 
L 87.950852 291.554563 
L 88.091049 292.419648 
L 88.231865 296.47893 
L 88.372649 285.83791 
L 88.512881 292.201027 
L 88.796095 284.006192 
L 88.937383 285.964639 
L 89.077709 295.696134 
L 89.218091 273.472413 
L 89.358882 288.205681 
L 89.499 277.078378 
L 89.785384 289.030016 
L 89.926064 287.350336 
L 90.066509 283.006693 
L 90.207811 299.566546 
L 90.353459 277.811759 
L 90.493561 284.871335 
L 90.634877 283.743857 
L 90.775629 297.944608 
L 90.917376 277.50502 
L 91.058152 285.260716 
L 91.338449 270.815512 
L 91.479033 268.146527 
L 91.620128 268.324038 
L 91.760298 256.518496 
L 91.900408 261.543386 
L 92.043418 274.952292 
L 92.183857 268.525736 
L 92.32398 280.019406 
L 92.604462 269.172968 
L 92.744819 274.037685 
L 92.885043 271.917111 
L 93.025357 281.141875 
L 93.165456 263.182557 
L 93.307057 269.012614 
L 93.447215 265.093482 
L 93.587829 265.901198 
L 93.728981 253.506506 
L 94.011513 274.290403 
L 94.151791 275.035452 
L 94.294889 280.312295 
L 94.435071 279.32902 
L 94.576327 282.632796 
L 94.717024 272.843649 
L 94.858246 282.89785 
L 95.000584 280.209119 
L 95.140747 265.69476 
L 95.280995 266.534777 
L 95.70246 277.323567 
L 95.842574 259.535521 
L 95.982793 259.589573 
L 96.123329 279.151834 
L 96.403998 284.049487 
L 96.545684 275.800175 
L 96.68608 276.90596 
L 96.826378 272.579181 
L 96.966949 282.989216 
L 97.107502 278.78758 
L 97.247767 279.607099 
L 97.387912 274.799857 
L 97.529297 278.357822 
L 97.670905 277.07333 
L 97.812116 291.287475 
L 97.952263 290.915704 
L 98.092446 284.787727 
L 98.235884 270.568026 
L 98.376462 277.81723 
L 98.516855 277.973238 
L 98.657545 276.03822 
L 98.798326 281.594795 
L 98.940809 271.974724 
L 99.22268 287.616435 
L 99.367781 300.173415 
L 99.511817 298.734272 
L 99.933498 279.304707 
L 100.073673 252.305921 
L 100.354756 286.099028 
L 100.495788 263.173184 
L 100.635939 279.872996 
L 100.776123 266.782421 
L 100.916246 281.859328 
L 101.057537 278.740843 
L 101.197725 281.146498 
L 101.620241 264.344444 
L 101.761055 278.675047 
L 101.901362 278.396674 
L 102.041541 271.010526 
L 102.3218 275.231997 
L 102.461915 282.467115 
L 102.602358 272.546911 
L 102.74464 284.296144 
L 102.884827 271.259205 
L 103.025307 281.135738 
L 103.165624 282.830734 
L 103.306211 281.694135 
L 103.446427 284.04314 
L 103.587627 284.33995 
L 103.728658 282.842143 
L 103.869201 285.221961 
L 104.009301 285.235483 
L 104.291205 276.625245 
L 104.431292 279.068964 
L 104.571549 286.151105 
L 104.711943 286.74925 
L 104.852346 283.696945 
L 104.992431 276.569943 
L 105.273785 287.454892 
L 105.413961 281.931383 
L 105.84162 289.092157 
L 105.981928 284.33469 
L 106.122046 286.546384 
L 106.403649 280.213472 
L 106.544294 283.000851 
L 106.684396 280.809516 
L 106.824501 281.605902 
L 107.10802 287.460152 
L 107.248329 271.16691 
L 107.391875 283.136491 
L 107.672666 286.282262 
L 107.812853 283.009789 
L 107.955602 289.034937 
L 108.236538 285.263001 
L 108.376643 287.82805 
L 108.516988 282.815411 
L 108.659173 285.447491 
L 108.939439 272.366475 
L 109.079558 222.070131 
L 109.219699 224.236417 
L 109.503025 281.192704 
L 109.643275 272.869433 
L 109.924145 288.125512 
L 110.064985 285.295228 
L 110.205313 285.650678 
L 110.48606 281.745634 
L 110.626234 277.745695 
L 110.766574 283.394199 
L 110.90731 277.967712 
L 111.047535 263.161159 
L 111.188683 284.173246 
L 111.3289 283.50308 
L 111.609252 275.291827 
L 111.750624 230.378395 
L 111.890712 244.727209 
L 112.031207 239.365452 
L 112.171794 239.274907 
L 112.311886 252.949933 
L 112.457774 289.283636 
L 112.597985 252.971176 
L 112.879206 293.719792 
L 113.019906 281.434187 
L 113.161145 281.919838 
L 113.442714 296.893737 
L 113.583662 296.160681 
L 113.728822 301.589193 
L 113.869415 302.652612 
L 114.009609 301.259939 
L 114.15731 289.009777 
L 114.2974 304.546886 
L 114.437497 301.568262 
L 114.578037 302.09358 
L 114.719945 300.641798 
L 114.86591 301.304167 
L 115.006688 293.600904 
L 115.151529 294.877381 
L 115.292502 300.586911 
L 115.437499 260.277183 
L 115.578666 301.594267 
L 115.719024 301.358098 
L 115.869975 304.990438 
L 116.010257 303.597761 
L 116.573946 290.568444 
L 116.995039 300.284137 
L 117.136241 297.66845 
L 117.417515 303.830468 
L 117.567784 306.376655 
L 117.707871 304.95383 
L 117.848475 304.895645 
L 118.138803 301.228293 
L 118.279864 303.952631 
L 118.422197 304.325559 
L 118.562372 301.314781 
L 118.702639 295.19501 
L 118.843034 303.939504 
L 118.983285 301.12579 
L 119.124643 301.73297 
L 119.266286 300.663826 
L 119.407684 304.423535 
L 119.689226 298.701507 
L 119.829346 301.014111 
L 119.976294 297.140457 
L 120.257427 304.127872 
L 120.399085 286.342365 
L 120.541187 291.420132 
L 120.681464 302.818474 
L 120.822199 303.304965 
L 120.963169 305.427913 
L 121.104221 305.740399 
L 121.531858 298.672018 
L 121.673356 302.705051 
L 121.816618 302.954165 
L 121.958655 301.008906 
L 122.099121 304.808454 
L 122.239873 304.22961 
L 122.380644 302.952457 
L 122.662535 305.217359 
L 122.805149 305.096619 
L 122.945294 301.967711 
L 123.085612 304.740051 
L 123.368858 303.480074 
L 123.512675 304.698111 
L 123.656282 302.850326 
L 123.79668 305.060844 
L 123.937573 304.842573 
L 124.082493 306.589832 
L 124.222699 303.468794 
L 124.362808 296.068251 
L 124.502982 296.356349 
L 124.64413 299.716768 
L 124.788149 299.611379 
L 124.9285 297.104267 
L 125.068974 297.366599 
L 125.209848 298.607646 
L 125.350912 295.507411 
L 125.496338 301.485761 
L 125.636423 264.269064 
L 125.782468 292.522212 
L 125.922797 296.49156 
L 126.065414 292.909869 
L 126.205791 299.409394 
L 126.62819 298.204638 
L 126.770377 300.674878 
L 126.910745 298.500005 
L 127.059313 301.427132 
L 127.202749 300.221862 
L 127.345288 301.656142 
L 127.486901 298.245109 
L 127.628576 302.440734 
L 127.771272 300.973007 
L 127.911762 297.506521 
L 128.051942 299.236128 
L 128.194557 297.565344 
L 128.334717 300.744254 
L 128.478514 260.565896 
L 128.622143 288.630887 
L 128.902414 254.607293 
L 129.185834 303.163031 
L 129.330648 299.094038 
L 129.470797 305.442748 
L 129.611787 302.227009 
L 129.752997 304.584885 
L 129.896226 301.18614 
L 130.05119 302.921689 
L 130.19427 285.51104 
L 130.475191 303.619118 
L 130.620894 302.145786 
L 130.761485 304.877333 
L 130.901717 301.591405 
L 131.042742 306.338523 
L 131.183369 303.598563 
L 131.329002 304.141105 
L 131.469932 299.821142 
L 131.615374 303.766666 
L 131.755477 303.251635 
L 131.896577 301.465096 
L 132.036748 302.300858 
L 132.177261 300.842936 
L 132.32109 304.174506 
L 132.604352 298.169854 
L 132.745189 299.420191 
L 132.891009 302.998385 
L 133.038243 300.620816 
L 133.179876 301.183013 
L 133.460091 294.66887 
L 133.601324 301.2505 
L 133.882308 300.735622 
L 134.032542 299.5922 
L 134.175106 302.373547 
L 134.316601 296.704903 
L 134.457175 303.893642 
L 134.598563 303.625569 
L 134.744311 303.03705 
L 134.885857 301.636584 
L 135.026973 304.525184 
L 135.167306 287.338753 
L 135.307558 290.073693 
L 135.448326 295.235576 
L 135.592504 285.093985 
L 135.745319 299.42138 
L 136.026129 278.3623 
L 136.451197 302.830593 
L 136.591925 291.977762 
L 136.872857 296.697526 
L 137.013085 299.135192 
L 137.155904 296.324041 
L 137.296327 299.720874 
L 137.436447 297.00593 
L 137.577521 300.409471 
L 137.717649 299.790014 
L 138.138649 295.676711 
L 138.279118 295.418705 
L 138.55996 300.740114 
L 138.710486 297.513906 
L 138.850602 291.239163 
L 138.991701 298.787808 
L 139.280704 286.907879 
L 139.42085 296.477915 
L 139.56136 294.788218 
L 139.702361 299.622369 
L 139.983036 288.751033 
L 140.123136 288.427916 
L 140.40387 240.43382 
L 140.54406 230.448959 
L 140.685002 288.512071 
L 140.835337 293.602136 
L 140.978971 304.14553 
L 141.265239 300.098652 
L 141.405517 301.851734 
L 141.546104 301.035168 
L 141.689472 303.692819 
L 141.830256 298.861983 
L 141.972578 298.497839 
L 142.11287 299.369427 
L 142.256171 296.978522 
L 142.396393 301.261135 
L 142.544541 298.974616 
L 142.687307 299.63215 
L 142.828359 299.602969 
L 142.972166 303.532497 
L 143.393069 268.806139 
L 143.533535 281.605927 
L 143.673746 276.495398 
L 144.094603 305.167934 
L 144.235643 298.4765 
L 144.376235 304.401316 
L 144.657057 297.262916 
L 144.797528 301.477516 
L 144.938021 301.527889 
L 145.225861 297.207496 
L 145.36618 301.148815 
L 145.507096 301.729929 
L 145.648027 302.877322 
L 145.789999 301.32196 
L 145.934335 303.393737 
L 146.076465 298.091916 
L 146.216837 302.199855 
L 146.357339 300.978623 
L 146.639985 290.271981 
L 146.78457 303.991777 
L 146.931373 303.537763 
L 147.075547 301.308321 
L 147.21608 301.445657 
L 147.499564 305.447603 
L 147.643013 302.517073 
L 147.783537 291.857049 
L 147.924571 303.638274 
L 148.065056 302.575543 
L 148.205951 299.124174 
L 148.487733 302.473016 
L 148.628424 300.400212 
L 148.769194 300.111609 
L 148.910256 303.748734 
L 149.050817 289.626734 
L 149.191318 302.136377 
L 149.473983 302.724519 
L 149.616663 304.562848 
L 149.756905 299.113391 
L 149.897194 245.64523 
L 150.041512 303.153383 
L 150.185931 294.148816 
L 150.326225 300.658439 
L 150.46651 280.210002 
L 150.607517 299.302267 
L 150.887998 266.785952 
L 151.028186 302.910145 
L 151.169737 303.710948 
L 151.312811 305.665154 
L 151.45895 302.72506 
L 151.600742 294.204822 
L 151.744895 303.322377 
L 151.887031 300.774537 
L 152.027213 300.36644 
L 152.167863 304.441133 
L 152.451015 298.50903 
L 152.593106 297.349203 
L 152.735573 300.349036 
L 153.017047 282.388648 
L 153.157161 255.962425 
L 153.297406 259.68033 
L 153.578249 286.390956 
L 153.719222 300.596863 
L 153.859657 298.219287 
L 154.004655 303.152306 
L 154.285803 288.706504 
L 154.427199 298.551444 
L 154.570297 293.668848 
L 154.710606 300.182871 
L 154.851052 301.169168 
L 154.991344 300.356524 
L 155.132151 298.350955 
L 155.272317 287.483827 
L 155.415575 298.216129 
L 155.556895 298.502068 
L 155.697665 297.911846 
L 155.841383 304.075577 
L 155.983414 299.214467 
L 156.123772 302.094765 
L 156.265706 300.185783 
L 156.405919 301.873653 
L 156.546858 300.147164 
L 156.686947 289.832845 
L 156.968881 303.977736 
L 157.256341 299.3819 
L 157.39673 300.731609 
L 157.537556 288.146886 
L 157.678763 289.223136 
L 157.959388 278.266489 
L 158.100168 303.724903 
L 158.241063 301.469207 
L 158.662232 281.239079 
L 158.943783 292.350159 
L 159.084146 291.848163 
L 159.224799 292.153792 
L 159.365356 291.351646 
L 159.505448 273.256592 
L 159.787421 292.967658 
L 159.927699 272.174624 
L 160.070101 284.93822 
L 160.210339 284.929303 
L 160.350919 281.296728 
L 160.491479 284.98521 
L 160.918554 304.013302 
L 161.05866 304.334859 
L 161.622883 299.608336 
L 161.76309 300.840019 
L 161.903716 291.565918 
L 162.043878 296.575492 
L 162.184338 278.627029 
L 162.324615 299.575048 
L 162.74672 303.324539 
L 162.891101 303.050789 
L 163.033573 301.196357 
L 163.173662 302.164348 
L 163.32049 299.971403 
L 163.463128 300.79881 
L 163.603334 288.729954 
L 163.884002 298.279307 
L 164.024287 298.956872 
L 164.172442 303.184108 
L 164.313241 302.135869 
L 164.457243 299.841452 
L 164.597948 302.326542 
L 164.878185 289.493238 
L 165.020626 288.681475 
L 165.160854 297.812463 
L 165.300954 295.066254 
L 165.444779 297.410981 
L 165.585018 287.48406 
L 165.727241 297.098123 
L 166.009529 288.692047 
L 166.15059 293.983723 
L 166.431235 246.823627 
L 166.571636 256.391222 
L 166.712093 298.464609 
L 166.85301 299.974704 
L 166.993491 284.961186 
L 167.133964 302.992288 
L 167.422837 298.465525 
L 167.563717 287.121048 
L 167.846079 298.086795 
L 167.986533 297.53968 
L 168.127468 296.913556 
L 168.272353 288.193821 
L 168.412518 295.769719 
L 168.695273 289.634576 
L 168.83614 299.836925 
L 168.976515 300.407579 
L 169.11674 288.802306 
L 169.258789 291.494893 
L 169.398979 301.634374 
L 169.681299 295.102415 
L 169.821554 293.688045 
L 169.971263 300.759876 
L 170.117065 294.32433 
L 170.257448 299.007399 
L 170.400923 296.928855 
L 170.541276 297.040138 
L 170.821517 299.767162 
L 170.961612 277.844943 
L 171.101809 226.737322 
L 171.383054 298.707962 
L 171.524191 298.553062 
L 171.666803 296.981113 
L 171.807123 300.741567 
L 171.947919 298.394053 
L 172.088128 304.002783 
L 172.230559 299.526802 
L 172.373597 301.11771 
L 172.514434 299.411642 
L 172.654772 292.087371 
L 172.935947 294.764203 
L 173.07659 300.514788 
L 173.216697 300.208483 
L 173.356874 299.544411 
L 173.641099 295.677826 
L 173.922976 279.579502 
L 174.063849 298.951045 
L 174.204162 298.893059 
L 174.345787 285.321222 
L 174.486545 286.489786 
L 174.62874 299.502321 
L 174.769055 294.374491 
L 174.913091 294.530155 
L 175.055433 296.668337 
L 175.479181 283.886959 
L 175.768756 296.736601 
L 175.909457 288.474763 
L 176.054488 296.972009 
L 176.205006 294.595651 
L 176.485445 294.909 
L 176.625558 294.290521 
L 176.906956 279.338656 
L 177.04993 294.351395 
L 177.190087 292.385847 
L 177.334019 296.941124 
L 177.474182 290.845132 
L 177.614777 293.899291 
L 177.755424 292.191174 
L 177.899861 291.814687 
L 178.039984 297.414502 
L 178.180157 297.474293 
L 178.327532 298.95479 
L 178.469005 298.78312 
L 178.609259 297.652235 
L 178.749938 294.152956 
L 178.890092 295.652435 
L 179.030175 249.029737 
L 179.170308 249.597574 
L 179.451055 299.071569 
L 179.592162 296.599811 
L 179.732637 298.347221 
L 179.874433 296.589485 
L 180.018618 297.832578 
L 180.302628 276.542038 
L 180.587164 295.09323 
L 180.728722 299.266918 
L 180.869246 286.078094 
L 181.151389 296.912359 
L 181.291913 298.779632 
L 181.432268 293.502429 
L 181.572371 295.936185 
L 181.712494 273.565067 
L 181.852626 288.394707 
L 181.994269 289.957657 
L 182.135224 298.451946 
L 182.275362 294.774152 
L 182.561831 282.331907 
L 182.843745 293.724972 
L 183.132619 288.078043 
L 183.419988 294.402251 
L 183.560667 292.110129 
L 183.701413 293.479025 
L 183.842215 293.160724 
L 183.982467 296.378401 
L 184.263815 282.959009 
L 184.407238 288.00913 
L 184.549857 299.000926 
L 184.833852 294.906477 
L 184.974196 299.335512 
L 185.114316 295.582323 
L 185.254712 297.629022 
L 185.394976 294.884881 
L 185.535965 296.225092 
L 185.676276 295.015399 
L 185.821156 301.071413 
L 185.961243 292.247626 
L 186.104556 295.505285 
L 186.244916 292.042567 
L 186.527467 282.754563 
L 186.668392 280.282888 
L 187.229902 297.000225 
L 187.370994 286.258039 
L 187.653224 302.099175 
L 187.793508 301.157818 
L 188.07589 296.519396 
L 188.216731 297.563582 
L 188.356829 296.82005 
L 188.640883 302.001965 
L 188.781584 302.055398 
L 188.922294 298.18831 
L 189.063769 302.050704 
L 189.212757 302.000164 
L 189.353737 300.758391 
L 189.493827 300.9971 
L 189.775128 299.91483 
L 189.916108 301.354095 
L 190.062464 298.455134 
L 190.206169 301.913402 
L 190.34677 301.193994 
L 190.490651 301.987035 
L 190.631927 301.434432 
L 190.772596 290.739185 
L 190.913439 291.18353 
L 191.198335 301.383637 
L 191.338647 300.228962 
L 191.480057 301.135323 
L 191.625563 297.427453 
L 191.766792 300.504832 
L 191.912101 297.552674 
L 192.052217 297.523531 
L 192.193409 285.801202 
L 192.477427 297.936621 
L 192.617969 298.190091 
L 192.758163 297.291612 
L 192.902816 297.121012 
L 193.042909 299.801464 
L 193.184947 294.176521 
L 193.32875 297.004958 
L 193.469815 293.915918 
L 193.610809 299.710927 
L 193.892708 298.669985 
L 194.177333 302.476171 
L 194.317424 297.177078 
L 194.461451 301.98256 
L 194.601583 298.498889 
L 194.883095 299.853825 
L 195.024736 298.236047 
L 195.168393 293.33919 
L 195.308677 300.655049 
L 195.590037 301.432889 
L 195.730721 298.475074 
L 195.871356 301.443109 
L 196.012468 301.335723 
L 196.29376 299.63134 
L 196.433913 300.558852 
L 196.576739 296.286096 
L 196.716917 302.055498 
L 196.860759 300.354099 
L 197.006507 300.401123 
L 197.147086 296.125755 
L 197.427874 299.559384 
L 197.56941 301.545684 
L 197.713887 300.653433 
L 197.854582 296.780374 
L 197.997061 299.117974 
L 198.139393 295.96258 
L 198.420553 301.06776 
L 198.560959 301.008578 
L 198.702373 301.604433 
L 198.984563 299.927749 
L 199.125762 295.078281 
L 199.267005 300.782192 
L 199.549884 295.622853 
L 199.691954 299.239064 
L 199.834526 299.981022 
L 199.975439 288.243565 
L 200.256625 298.700772 
L 200.538029 301.97248 
L 200.678398 300.880108 
L 200.821052 301.357355 
L 201.101884 255.276226 
L 201.242035 254.706699 
L 201.382439 294.513371 
L 201.523341 301.567538 
L 201.804433 302.019315 
L 201.946229 300.723961 
L 202.086877 292.212221 
L 202.3692 297.939872 
L 202.509952 299.17169 
L 202.791052 289.911814 
L 202.932342 294.183638 
L 203.072679 293.992709 
L 203.213019 294.165299 
L 203.354684 293.756146 
L 203.495529 291.473949 
L 203.635912 286.509144 
L 203.916664 294.419795 
L 204.058036 285.215198 
L 204.198138 293.915545 
L 204.479942 291.283197 
L 204.620023 292.588971 
L 204.761126 287.674426 
L 204.901234 290.641678 
L 205.04235 290.997149 
L 205.182499 291.761892 
L 205.322837 290.912761 
L 205.462983 273.090443 
L 205.747292 298.422739 
L 205.889017 294.170515 
L 206.169571 293.464801 
L 206.309954 290.63703 
L 206.451615 291.317655 
L 206.73276 294.964043 
L 206.873691 288.899823 
L 207.15585 291.150744 
L 207.295971 289.830025 
L 207.57836 292.400415 
L 207.718775 291.355072 
L 207.859859 291.609995 
L 208.141025 290.431078 
L 208.281166 291.095922 
L 208.421768 283.270167 
L 208.563905 292.945636 
L 208.70479 293.926716 
L 208.844898 243.431322 
L 209.125785 226.821319 
L 209.265967 233.820482 
L 209.547962 299.604351 
L 209.830156 291.653067 
L 210.110909 296.875364 
L 210.251384 289.511683 
L 210.391525 293.516407 
L 210.531608 291.095697 
L 210.812447 300.679071 
L 210.953117 301.187408 
L 211.235557 294.177208 
L 211.376319 282.721304 
L 211.516463 280.915763 
L 211.657564 298.019967 
L 211.797915 296.966207 
L 212.223151 298.729646 
L 212.50465 300.778246 
L 212.64476 298.955292 
L 212.784856 294.341909 
L 212.924982 294.839908 
L 213.067898 294.19557 
L 213.348805 300.965095 
L 213.631143 294.314718 
L 213.912786 302.130201 
L 214.053469 300.240889 
L 214.194123 301.111089 
L 214.475862 300.123466 
L 214.617021 301.553742 
L 214.898174 297.733107 
L 215.038369 285.691798 
L 215.179566 290.949893 
L 215.319675 291.142876 
L 215.46045 290.970915 
L 215.601934 292.566401 
L 215.742178 298.19951 
L 216.02289 288.210676 
L 216.163077 299.664261 
L 216.303655 299.312755 
L 216.586524 287.754367 
L 216.727672 301.920039 
L 216.8694 302.006089 
L 217.009548 301.663435 
L 217.150679 299.568928 
L 217.291105 300.185084 
L 217.432062 298.549174 
L 217.573164 292.378767 
L 217.713784 292.526481 
L 217.853938 293.741153 
L 217.99511 297.254984 
L 218.136039 291.39685 
L 218.277123 277.41883 
L 218.557907 294.756737 
L 218.698304 298.479356 
L 218.838846 292.540336 
L 218.979202 292.19436 
L 219.261031 304.574155 
L 219.401134 300.543129 
L 219.542287 300.972837 
L 219.683375 300.21049 
L 219.823455 301.550764 
L 219.964176 299.588734 
L 220.108173 301.686744 
L 220.251603 301.060177 
L 220.393629 303.15111 
L 220.536891 300.161719 
L 220.677625 302.027093 
L 220.817857 301.773861 
L 220.965617 304.628526 
L 221.107675 301.200199 
L 221.248755 302.989183 
L 221.392272 300.203836 
L 221.532436 302.355971 
L 221.672605 284.150927 
L 221.815881 283.598774 
L 222.096417 300.57952 
L 222.237573 295.538893 
L 222.377728 301.031107 
L 222.518995 298.643662 
L 222.659788 303.366636 
L 222.801031 295.387701 
L 222.942018 301.341763 
L 223.082453 298.721581 
L 223.223517 302.437283 
L 223.365075 295.382456 
L 223.648693 300.308669 
L 223.791739 296.326197 
L 223.931957 296.003261 
L 224.21252 290.743672 
L 224.35457 285.028587 
L 224.499917 303.041996 
L 224.644471 300.142845 
L 224.784926 302.134449 
L 224.928204 295.080141 
L 225.353027 302.11989 
L 225.495237 300.319729 
L 225.636109 300.377731 
L 225.785956 300.101415 
L 225.929012 298.568117 
L 226.071247 299.119662 
L 226.212397 299.025682 
L 226.352668 302.629728 
L 226.493539 300.750069 
L 226.633639 301.577856 
L 226.776237 300.076169 
L 226.916903 301.287564 
L 227.057742 294.664262 
L 227.338724 296.690798 
L 227.48001 300.969337 
L 227.62057 298.829798 
L 227.760818 303.173942 
L 227.901228 301.083447 
L 228.043521 301.851535 
L 228.326136 299.449508 
L 228.46725 299.971306 
L 228.60734 298.033032 
L 228.747817 298.109188 
L 228.890768 291.748354 
L 229.031346 296.828246 
L 229.455222 291.282395 
L 229.596998 295.899477 
L 229.737202 295.845102 
L 229.881272 291.66838 
L 230.162978 299.990527 
L 230.304333 299.023712 
L 230.446241 302.001702 
L 230.590481 294.970151 
L 230.730927 299.306148 
L 230.873244 299.718534 
L 231.017007 301.99129 
L 231.157332 300.337781 
L 231.298677 300.291608 
L 231.439963 296.614246 
L 231.582007 301.296207 
L 231.722278 300.694571 
L 231.86268 297.589177 
L 232.0036 300.939663 
L 232.149107 300.19873 
L 232.289549 296.104632 
L 232.431796 296.005449 
L 232.572802 284.686455 
L 232.713274 295.401604 
L 232.854716 296.717498 
L 232.996094 296.451774 
L 233.279393 285.872152 
L 233.419967 294.688956 
L 233.56117 295.241795 
L 233.702698 294.393067 
L 233.842875 297.776216 
L 233.983405 294.804912 
L 234.123525 296.781787 
L 234.263612 296.609609 
L 234.409793 298.734275 
L 234.831242 295.318721 
L 235.111645 232.263935 
L 235.253159 254.463352 
L 235.394665 298.719156 
L 235.534859 298.598565 
L 235.67516 297.909496 
L 235.815381 297.894996 
L 236.099836 300.604311 
L 236.240153 296.592893 
L 236.381196 300.491919 
L 236.521315 294.173737 
L 236.662355 297.740439 
L 236.803082 284.5793 
L 236.943499 296.062334 
L 237.08362 295.005753 
L 237.225258 299.153274 
L 237.365716 298.301907 
L 237.647937 300.244915 
L 237.788366 293.998484 
L 237.92866 295.24466 
L 238.07013 298.200095 
L 238.351358 291.519005 
L 238.491748 294.598229 
L 238.633507 289.467086 
L 238.77413 291.465692 
L 239.0557 298.071204 
L 239.195915 295.439369 
L 239.336477 275.442303 
L 239.476947 278.930109 
L 239.7574 291.723489 
L 239.898018 283.915005 
L 240.038598 290.377717 
L 240.178678 287.781853 
L 240.318966 281.040227 
L 240.462233 291.475767 
L 240.602495 290.593143 
L 240.884786 298.664135 
L 241.025172 298.669934 
L 241.165756 298.21623 
L 241.306174 292.694896 
L 241.588249 294.988249 
L 241.729924 299.926412 
L 241.872277 299.151764 
L 242.012568 300.516938 
L 242.154829 300.533348 
L 242.29536 299.459371 
L 242.436218 299.745732 
L 242.576482 298.630627 
L 242.720627 298.527022 
L 242.861679 299.537386 
L 243.143018 294.520996 
L 243.283376 297.667539 
L 243.423905 294.437338 
L 243.565773 299.381357 
L 243.706449 294.71174 
L 243.846892 295.906365 
L 243.987846 294.486139 
L 244.127953 295.678946 
L 244.409685 299.855294 
L 244.550532 299.582025 
L 244.690736 297.58125 
L 244.973646 299.296931 
L 245.114035 296.503409 
L 245.396656 297.700041 
L 245.536955 300.512226 
L 245.677612 296.623223 
L 245.818366 296.267705 
L 245.958658 281.683501 
L 246.098768 279.807924 
L 246.240101 284.242576 
L 246.38137 294.007842 
L 246.662669 292.21452 
L 246.804292 294.379448 
L 246.944556 299.889549 
L 247.084799 297.968466 
L 247.366373 288.551709 
L 247.506773 298.926726 
L 247.64753 299.231225 
L 247.78782 297.404015 
L 247.929432 299.531121 
L 248.070231 297.412939 
L 248.210712 299.841518 
L 248.49373 296.77974 
L 248.634427 293.437658 
L 248.774627 300.11165 
L 248.915718 301.142629 
L 249.338532 297.336299 
L 249.618875 299.966316 
L 249.901215 288.048015 
L 250.041976 297.113946 
L 250.182141 297.207209 
L 250.323579 294.650862 
L 250.466543 296.403571 
L 250.609151 284.706946 
L 250.751222 295.761307 
L 250.892067 285.665899 
L 251.17303 298.963689 
L 251.314317 300.094327 
L 251.454494 300.11661 
L 251.59606 287.375552 
L 251.877097 297.666456 
L 252.018427 293.205026 
L 252.158533 295.921329 
L 252.299103 295.310899 
L 252.579441 284.952836 
L 252.719877 285.080736 
L 252.859975 288.67262 
L 253.001818 296.598749 
L 253.142275 292.239765 
L 253.284514 296.108182 
L 253.424604 289.771264 
L 253.70519 298.067932 
L 253.846073 280.185991 
L 254.127232 297.089777 
L 254.550682 283.591785 
L 254.692009 296.366571 
L 254.97604 300.375795 
L 255.118971 293.297252 
L 255.259203 296.46066 
L 255.399355 284.795363 
L 255.540894 289.970869 
L 255.681038 279.465882 
L 255.821285 294.691595 
L 256.112891 293.82545 
L 256.254707 284.957892 
L 256.537341 299.005045 
L 256.677422 297.721873 
L 256.818436 295.173883 
L 256.96056 299.417963 
L 257.102445 297.078519 
L 257.242798 297.130579 
L 257.387019 291.809899 
L 257.527213 295.672933 
L 257.667804 292.745644 
L 257.949893 299.444628 
L 258.230242 287.969218 
L 258.371153 297.22714 
L 258.512372 298.628207 
L 258.653703 293.930388 
L 258.793802 281.743984 
L 258.935973 255.215918 
L 259.078554 263.090733 
L 259.218674 263.14578 
L 259.360583 257.780071 
L 259.500668 276.570552 
L 259.64096 257.945318 
L 259.781127 271.165794 
L 259.921306 259.410384 
L 260.063449 269.376335 
L 260.203939 251.406705 
L 260.344038 275.484372 
L 260.484145 268.066868 
L 260.76469 298.784714 
L 260.904915 300.48624 
L 261.045879 297.807421 
L 261.187191 300.377285 
L 261.328028 294.65821 
L 261.61088 261.028489 
L 261.891631 272.835223 
L 262.031903 268.528604 
L 262.172034 269.931457 
L 262.312812 282.524702 
L 262.733445 262.840457 
L 262.875481 281.452891 
L 263.015956 267.200151 
L 263.156251 267.917431 
L 263.436911 272.677853 
L 263.577314 263.58718 
L 263.718014 277.463884 
L 263.858275 261.899553 
L 263.998419 261.507485 
L 264.138518 274.628199 
L 264.278768 261.340223 
L 264.419443 277.727299 
L 264.560208 263.854661 
L 264.701018 263.594608 
L 264.841104 277.18654 
L 264.982917 275.969325 
L 265.125938 296.010826 
L 265.266071 297.079672 
L 265.689601 266.903311 
L 265.832164 280.562695 
L 265.972306 262.93568 
L 266.252612 275.877059 
L 266.392882 225.95844 
L 266.533402 286.023156 
L 266.673501 292.620287 
L 266.954255 294.383828 
L 267.094336 295.899942 
L 267.374631 293.544692 
L 267.516017 294.419225 
L 267.658085 291.675544 
L 267.947182 294.592061 
L 268.089548 298.208554 
L 268.230277 295.105156 
L 268.371275 270.797694 
L 268.651507 294.591979 
L 268.791589 294.848071 
L 268.932505 280.42751 
L 269.073976 301.24595 
L 269.217455 299.653232 
L 269.359797 301.011026 
L 269.642236 298.213502 
L 269.782608 298.690926 
L 269.924532 298.427951 
L 270.065218 296.079238 
L 270.205677 297.871265 
L 270.346285 297.978945 
L 270.487424 286.74541 
L 270.628119 297.080509 
L 270.768428 296.783103 
L 270.908563 300.908423 
L 271.04926 291.014342 
L 271.189339 291.402747 
L 271.329716 286.89836 
L 271.61196 300.763892 
L 271.753195 294.616422 
L 271.89356 299.539764 
L 272.0345 296.237957 
L 272.176062 297.697014 
L 272.316765 294.629753 
L 272.599864 300.688426 
L 272.739987 297.764138 
L 272.880412 287.42013 
L 273.021263 229.880288 
L 273.161495 291.85146 
L 273.441886 283.873622 
L 273.583753 285.322098 
L 273.724899 294.84373 
L 273.865199 296.786848 
L 274.006938 296.770027 
L 274.147123 295.291104 
L 274.287594 234.244849 
L 274.710663 299.60448 
L 274.851753 298.469385 
L 274.992455 298.253938 
L 275.133755 295.839093 
L 275.279968 289.516097 
L 275.560481 297.725777 
L 275.70082 290.011575 
L 275.842841 291.987004 
L 276.123772 284.962001 
L 276.264199 288.098581 
L 276.404554 284.257206 
L 276.545764 291.676016 
L 276.685944 291.65825 
L 276.969238 284.063693 
L 277.250943 294.823337 
L 277.392603 291.575806 
L 277.674645 296.13318 
L 277.81476 297.413756 
L 277.95502 289.760052 
L 278.095127 295.568252 
L 278.235337 290.035652 
L 278.518461 291.56848 
L 278.658739 300.103867 
L 278.79962 299.271304 
L 279.080264 296.037875 
L 279.220548 297.705743 
L 279.361362 296.64237 
L 279.503409 293.914368 
L 279.644131 297.889104 
L 279.784865 293.438894 
L 280.066864 298.192545 
L 280.207345 294.785404 
L 280.488541 255.162119 
L 280.628654 292.427805 
L 280.768884 297.883437 
L 280.909544 296.387555 
L 281.330289 258.017277 
L 281.474565 298.972039 
L 281.614755 299.522684 
L 281.755249 301.096647 
L 281.896397 298.336374 
L 282.036695 270.022006 
L 282.176882 276.417625 
L 282.317283 299.861624 
L 282.457917 296.618645 
L 282.598169 290.206916 
L 282.740693 299.528503 
L 282.881716 299.589485 
L 283.021826 294.438025 
L 283.162175 268.856969 
L 283.302377 298.994046 
L 283.44279 297.364207 
L 283.724359 284.355218 
L 283.866753 293.285292 
L 284.007263 294.838751 
L 284.149249 298.454293 
L 284.289911 295.899571 
L 284.429998 278.848557 
L 284.711721 285.485484 
L 284.853372 277.873058 
L 284.993835 296.084078 
L 285.133933 299.056354 
L 285.275018 283.184193 
L 285.416841 298.169175 
L 285.556926 298.864615 
L 285.697043 300.865338 
L 285.837284 298.623225 
L 285.977495 299.341138 
L 286.117837 299.45857 
L 286.26075 298.299807 
L 286.401008 295.202255 
L 286.541227 299.229065 
L 286.822281 293.748508 
L 286.962965 290.045088 
L 287.103328 273.408078 
L 287.243483 293.56888 
L 287.384568 294.176375 
L 287.668926 301.006723 
L 287.950019 297.094402 
L 288.090715 298.735837 
L 288.230958 294.462058 
L 288.372088 296.096427 
L 288.513863 300.551568 
L 288.794278 294.875649 
L 289.075185 297.97288 
L 289.21551 293.869413 
L 289.356267 293.864644 
L 289.497622 296.416343 
L 289.639888 279.385025 
L 289.780948 293.781772 
L 289.92121 278.506617 
L 290.061352 287.028342 
L 290.202235 287.487708 
L 290.343063 290.095867 
L 290.483421 299.247181 
L 290.765626 295.353834 
L 290.906119 298.231887 
L 291.046198 296.68912 
L 291.186367 271.763415 
L 291.326451 297.724236 
L 291.608806 289.082487 
L 291.749543 286.223063 
L 292.030369 297.271439 
L 292.172179 289.584877 
L 292.312717 291.308369 
L 292.452977 295.840464 
L 292.593755 293.057276 
L 292.735077 293.462295 
L 292.875191 295.182051 
L 293.015554 288.215393 
L 293.156213 298.729772 
L 293.297148 291.377113 
L 293.437624 295.071161 
L 293.578467 291.95771 
L 293.722093 292.876614 
L 293.862768 283.424475 
L 294.004711 294.759048 
L 294.145165 290.842566 
L 294.285503 296.797391 
L 294.426192 291.934599 
L 294.569563 294.16125 
L 294.710245 288.782881 
L 294.852153 289.431644 
L 294.996878 292.054604 
L 295.137901 288.877722 
L 295.278227 299.972442 
L 295.418542 291.915721 
L 295.558719 297.559942 
L 295.841674 282.730634 
L 296.122407 291.413459 
L 296.262663 288.053481 
L 296.405259 296.032155 
L 296.545359 290.560648 
L 296.687341 294.329471 
L 297.10932 282.289434 
L 297.25047 283.422205 
L 297.532318 299.910611 
L 297.816282 292.661339 
L 298.240262 299.65688 
L 298.380721 299.904265 
L 298.523691 293.431596 
L 298.664621 297.30079 
L 298.806703 293.852084 
L 298.947392 293.493751 
L 299.087607 291.058204 
L 299.230421 274.106549 
L 299.370825 288.833515 
L 299.651352 294.961413 
L 299.791468 289.962195 
L 299.931564 291.403065 
L 300.071663 285.486232 
L 300.212901 290.668276 
L 300.353496 291.283259 
L 300.494 289.930299 
L 300.634129 293.028062 
L 300.77905 290.65992 
L 300.922999 291.236286 
L 301.064817 292.575033 
L 301.205482 290.167253 
L 301.34585 290.183489 
L 301.485978 292.150951 
L 301.6261 290.017767 
L 301.766491 289.584797 
L 301.906585 290.831282 
L 302.047963 284.657931 
L 302.188745 289.729507 
L 302.330407 281.571743 
L 302.475727 286.282066 
L 302.616063 280.512674 
L 302.760143 287.618799 
L 303.040453 276.724652 
L 303.180947 272.735531 
L 303.321575 280.691787 
L 303.461764 270.61702 
L 303.744299 286.114184 
L 303.884568 279.685785 
L 304.026684 283.422502 
L 304.167661 279.432739 
L 304.310014 284.194354 
L 304.590216 278.744781 
L 304.870613 260.251193 
L 305.011451 257.54486 
L 305.151839 271.890007 
L 305.293742 274.926826 
L 305.435197 271.228214 
L 305.575324 277.885133 
L 305.71544 256.230865 
L 306.136817 265.802326 
L 306.277112 277.108174 
L 306.417192 270.570148 
L 306.557277 272.12522 
L 306.697378 266.669032 
L 306.837555 281.647196 
L 306.978266 279.020067 
L 307.118352 281.766968 
L 307.261371 288.157215 
L 307.402325 286.524717 
L 307.542944 287.486883 
L 307.683571 286.082149 
L 307.823802 292.175116 
L 307.96396 283.397063 
L 308.10649 290.770641 
L 308.247325 284.280955 
L 308.387904 284.803592 
L 308.528419 287.756289 
L 308.808784 278.5487 
L 309.09094 295.446768 
L 309.51288 291.828844 
L 309.653087 291.693119 
L 309.794387 290.790815 
L 309.936544 284.106338 
L 310.076936 294.98237 
L 310.217276 290.101523 
L 310.357644 294.910535 
L 310.639751 288.295111 
L 310.78007 292.089684 
L 310.920199 287.931592 
L 311.061453 294.614201 
L 311.201654 287.067598 
L 311.342904 291.612403 
L 311.483056 288.098897 
L 311.623933 290.617816 
L 311.764218 285.231963 
L 311.904325 284.748016 
L 312.044619 286.40878 
L 312.184753 266.669512 
L 312.325005 283.124157 
L 312.465304 284.04802 
L 312.605732 289.140341 
L 312.745991 262.881852 
L 312.886112 270.602461 
L 313.026207 284.511561 
L 313.17018 283.725853 
L 313.310874 295.2581 
L 313.451598 288.784992 
L 313.592557 297.025182 
L 313.733722 289.478096 
L 313.876051 295.004565 
L 314.016146 287.736804 
L 314.156308 290.865255 
L 314.438058 282.175303 
L 314.578655 286.106441 
L 314.719979 283.883826 
L 314.86214 287.355085 
L 315.002575 286.936119 
L 315.282844 291.461722 
L 315.424293 290.661402 
L 315.564451 294.006435 
L 315.70472 285.186504 
L 315.849626 294.620228 
L 315.990493 286.056126 
L 316.130596 284.507599 
L 316.271104 273.944737 
L 316.412253 291.665332 
L 316.552365 293.005534 
L 316.692454 291.083393 
L 316.973008 263.93884 
L 317.113122 269.296974 
L 317.254344 266.672632 
L 317.675959 294.300928 
L 317.816305 293.428157 
L 318.098538 276.574909 
L 318.2398 279.986481 
L 318.521407 278.485171 
L 318.661616 290.995678 
L 318.801813 287.711183 
L 319.084454 294.618006 
L 319.224753 290.692893 
L 319.366002 293.197762 
L 319.506289 286.405357 
L 319.646993 293.370853 
L 319.787963 289.212073 
L 319.929417 292.989764 
L 320.069535 292.385855 
L 320.209724 291.085835 
L 320.349914 281.662309 
L 320.490105 290.27363 
L 320.631602 291.365074 
L 320.771764 289.149215 
L 320.912949 294.045285 
L 321.053083 286.113175 
L 321.194878 291.982321 
L 321.335522 289.577702 
L 321.476778 283.235255 
L 321.616946 287.685978 
L 321.757434 279.668997 
L 321.897861 280.71108 
L 322.178578 290.874398 
L 322.318956 275.310539 
L 322.459804 279.469576 
L 322.60012 278.408894 
L 322.740473 276.109048 
L 322.881034 290.501269 
L 323.023912 287.599411 
L 323.164113 293.888255 
L 323.305301 289.593101 
L 323.445596 291.10403 
L 323.585828 288.072067 
L 323.867222 291.951231 
L 324.008104 287.113984 
L 324.148804 293.692489 
L 324.289565 286.788689 
L 324.430282 289.523898 
L 324.713786 288.844288 
L 324.854082 276.870023 
L 324.99692 288.969941 
L 325.137132 284.466016 
L 325.417453 291.209719 
L 325.559553 281.185288 
L 325.699963 280.910545 
L 325.980326 244.958902 
L 326.120434 246.864503 
L 326.261038 246.140594 
L 326.40118 248.526284 
L 326.681503 248.947431 
L 326.821586 241.537583 
L 327.103541 288.523268 
L 327.243962 294.465113 
L 327.384157 286.242706 
L 327.524936 286.539189 
L 327.665914 288.872177 
L 327.806097 285.504214 
L 328.229053 293.188276 
L 328.36983 285.371847 
L 328.509974 287.375764 
L 328.651686 285.300903 
L 328.792554 286.096583 
L 328.934558 288.082961 
L 329.075926 285.387275 
L 329.216126 293.327641 
L 329.356324 286.237858 
L 329.497681 295.224936 
L 329.638283 290.33151 
L 329.778406 291.098853 
L 329.918593 289.172276 
L 330.200718 290.05319 
L 330.340841 291.018345 
L 330.481433 291.146257 
L 330.622395 289.154352 
L 330.762558 289.946607 
L 330.9029 285.343156 
L 331.043579 290.146615 
L 331.18382 288.679098 
L 331.324082 283.024148 
L 331.604396 281.977454 
L 331.88558 288.861241 
L 332.027504 290.089145 
L 332.168173 288.301436 
L 332.308603 291.666005 
L 332.451768 291.071093 
L 332.592105 289.398848 
L 332.733527 293.350294 
L 332.874991 285.214537 
L 333.015967 288.965007 
L 333.156185 282.616978 
L 333.297266 290.715115 
L 333.437457 282.188525 
L 333.578477 284.179481 
L 333.719734 288.444026 
L 333.86018 289.024003 
L 334.28115 283.630048 
L 334.569661 286.838931 
L 334.709875 285.39102 
L 334.849991 286.17838 
L 334.991734 288.15379 
L 335.134434 282.869173 
L 335.274916 288.415021 
L 335.418413 283.5775 
L 335.559019 282.822136 
L 335.699395 261.378175 
L 335.840776 263.448635 
L 336.121037 286.151409 
L 336.261161 286.440942 
L 336.401268 284.739965 
L 336.541449 288.623379 
L 336.681665 286.013667 
L 336.824143 289.866922 
L 336.964865 283.718553 
L 337.10819 289.518804 
L 337.249358 287.130238 
L 337.389776 293.203259 
L 337.530449 284.976145 
L 337.952437 286.769016 
L 338.0931 291.116999 
L 338.374165 284.029541 
L 338.514313 287.053312 
L 338.654994 286.01205 
L 338.795076 281.160852 
L 338.935984 287.395233 
L 339.076208 288.313736 
L 339.216595 272.573849 
L 339.497934 286.924228 
L 339.638044 287.375584 
L 339.778399 280.954062 
L 339.918489 280.813667 
L 340.199727 272.99804 
L 340.480748 278.421772 
L 340.620961 279.447261 
L 340.761121 260.489275 
L 341.041434 276.397714 
L 341.18211 286.084724 
L 341.322432 286.522452 
L 341.462511 280.030352 
L 341.603217 283.307752 
L 341.743297 281.893637 
L 341.883863 283.530125 
L 342.024641 282.841802 
L 342.165284 285.352833 
L 342.305444 285.834399 
L 342.44556 272.9989 
L 342.585701 276.887559 
L 342.726077 272.82261 
L 342.866826 280.103641 
L 343.007775 272.780763 
L 343.289216 284.222043 
L 343.429329 284.896764 
L 343.571281 287.353591 
L 343.712229 283.88157 
L 343.852678 290.458345 
L 344.133049 242.362186 
L 344.274308 256.5601 
L 344.414935 285.027698 
L 344.555079 255.806788 
L 344.835563 285.504344 
L 344.977131 286.944708 
L 345.117548 290.577154 
L 345.397971 281.442453 
L 345.538156 248.538984 
L 345.678239 280.805764 
L 345.818393 281.259816 
L 345.959016 277.765642 
L 346.099316 278.958129 
L 346.379772 291.819145 
L 346.519886 277.949713 
L 346.661588 291.289537 
L 346.801821 292.746515 
L 346.94201 283.683688 
L 347.08218 259.953617 
L 347.365216 269.02841 
L 347.505394 267.00849 
L 347.645924 267.326547 
L 348.068532 287.571163 
L 348.209525 284.990645 
L 348.350236 287.182432 
L 348.631595 283.919222 
L 348.771704 270.829925 
L 349.05456 275.893312 
L 349.194768 286.089183 
L 349.335051 281.220409 
L 349.475174 291.81619 
L 349.620303 290.297497 
L 349.760601 287.20552 
L 349.90092 289.333388 
L 350.04107 288.864326 
L 350.183976 292.084423 
L 350.324056 281.869084 
L 350.464934 282.924811 
L 350.605254 283.000801 
L 350.745351 262.734162 
L 350.887137 262.327965 
L 351.167632 280.231421 
L 351.307815 277.435192 
L 351.447936 287.694772 
L 351.588081 284.410281 
L 351.728868 278.190695 
L 351.869403 279.047197 
L 352.009888 278.197052 
L 352.150168 280.195055 
L 352.290289 277.905324 
L 352.430523 288.006351 
L 352.570609 287.245332 
L 352.851715 292.238041 
L 352.992052 291.571215 
L 353.134505 276.302651 
L 353.416395 288.89668 
L 353.556529 289.907186 
L 353.69673 293.864048 
L 353.83761 288.570895 
L 353.977884 289.094333 
L 354.11799 290.620804 
L 354.398608 286.460366 
L 354.539645 284.539014 
L 354.680447 287.374582 
L 354.820572 287.069307 
L 354.961103 291.199248 
L 355.101679 274.717733 
L 355.242394 290.057552 
L 355.38307 279.271389 
L 355.666771 291.264173 
L 355.808191 288.929488 
L 355.94852 288.949938 
L 356.089204 287.453903 
L 356.230004 288.699754 
L 356.370436 283.229143 
L 356.511174 290.889392 
L 356.652593 290.673032 
L 356.792676 289.639493 
L 356.933179 289.972333 
L 357.07573 285.931474 
L 357.215911 285.433054 
L 357.496982 290.349115 
L 357.77731 273.620533 
L 357.917627 279.321519 
L 358.058243 274.572641 
L 358.339219 282.380396 
L 358.480017 271.496489 
L 358.901529 189.360272 
L 359.181698 43.565961 
L 359.321805 51.957159 
L 359.462109 49.327527 
L 359.743251 286.174367 
L 359.883354 291.239045 
L 360.02354 286.852126 
L 360.163632 290.314529 
L 360.304376 290.511754 
L 360.444624 282.107148 
L 360.584829 286.077394 
L 360.725801 276.461399 
L 360.865898 284.901577 
L 361.00642 283.151246 
L 361.147675 290.956254 
L 361.28953 286.897207 
L 361.430066 290.097048 
L 361.710448 285.801742 
L 361.991511 291.302521 
L 362.131988 280.410438 
L 362.412892 293.284378 
L 362.552984 288.577127 
L 362.693247 289.398482 
L 362.833394 287.03065 
L 362.973668 279.606275 
L 363.114086 282.605403 
L 363.254518 278.75768 
L 363.394683 243.404483 
L 363.534848 281.811784 
L 363.817419 259.817046 
L 364.237782 -0.126025 
L 364.37792 231.506297 
L 364.518048 263.890514 
L 364.79899 229.458992 
L 364.939129 242.001931 
L 365.079217 242.033428 
L 365.219514 244.004267 
L 365.501999 292.238079 
L 365.782428 245.30027 
L 365.922713 250.50937 
L 366.203522 245.522721 
L 366.344657 235.633202 
L 366.485923 238.380736 
L 366.766924 296.135435 
L 366.907409 291.78113 
L 367.049296 291.22966 
L 367.189741 285.300779 
L 367.331554 267.196454 
L 367.471813 283.548348 
L 367.611938 283.005542 
L 367.896446 288.745749 
L 368.039155 296.600021 
L 368.179388 290.793936 
L 368.322005 290.781978 
L 368.46235 293.118725 
L 368.602448 291.617932 
L 368.885436 280.715772 
L 369.025701 287.40008 
L 369.165806 286.356922 
L 369.30596 290.546686 
L 369.586197 283.590081 
L 369.730676 293.505755 
L 370.011255 294.70035 
L 370.151378 290.311427 
L 370.295324 292.964314 
L 370.43561 292.886946 
L 370.581464 295.78227 
L 370.722767 293.51669 
L 370.871059 295.721049 
L 371.011231 292.469131 
L 371.152086 292.100847 
L 371.295821 292.341434 
L 371.435993 290.560397 
L 371.57684 295.124869 
L 371.719063 293.976723 
L 371.859512 294.518555 
L 371.999634 292.465263 
L 372.145233 294.432406 
L 372.289868 288.282379 
L 372.430462 291.852612 
L 372.570673 288.150344 
L 372.711662 290.011427 
L 372.853431 293.883277 
L 372.993861 287.481352 
L 373.134126 252.427221 
L 373.274807 282.577768 
L 373.415792 279.814653 
L 373.555916 272.689227 
L 373.836353 285.969744 
L 373.976556 282.603415 
L 374.117103 291.222291 
L 374.258178 290.25038 
L 374.398357 286.527021 
L 374.541444 286.987965 
L 374.682869 285.889167 
L 374.964822 293.043457 
L 375.247584 291.641908 
L 375.387791 293.724975 
L 375.528262 290.511557 
L 375.669211 294.398986 
L 375.809841 289.155943 
L 375.950023 294.128642 
L 376.091747 292.213721 
L 376.232463 294.303766 
L 376.372558 289.511998 
L 376.515026 294.008254 
L 376.655874 291.725522 
L 376.796638 293.782356 
L 376.936887 290.570492 
L 377.078178 289.995315 
L 377.219999 294.01101 
L 377.360199 289.298753 
L 377.504588 295.992098 
L 377.646304 293.32706 
L 378.067809 291.781957 
L 378.208488 293.888666 
L 378.34895 290.836414 
L 378.489094 290.958663 
L 378.630515 289.705244 
L 378.771939 293.948699 
L 378.913552 286.803031 
L 379.0538 287.087136 
L 379.19464 280.515707 
L 379.334909 293.293196 
L 379.476122 293.401758 
L 379.61629 289.741262 
L 379.757623 293.98747 
L 379.898212 288.020632 
L 380.039507 293.027625 
L 380.180002 292.574319 
L 380.320974 288.565006 
L 380.461164 288.133705 
L 380.601305 280.823165 
L 380.74267 290.604466 
L 381.02482 269.145451 
L 381.16641 289.488897 
L 381.306658 292.221237 
L 381.447405 282.997697 
L 381.587527 288.490122 
L 381.727837 262.322722 
L 381.867918 268.692183 
L 382.008528 267.008533 
L 382.291966 290.511367 
L 382.432078 283.945244 
L 382.5732 292.636429 
L 382.714217 281.46775 
L 382.854819 292.115944 
L 383.135964 294.661144 
L 383.276072 294.538506 
L 383.703411 288.710575 
L 383.843856 292.667748 
L 383.983976 289.236103 
L 384.124775 292.818338 
L 384.407104 285.55699 
L 384.547222 294.616276 
L 384.828585 289.992858 
L 384.97027 288.291582 
L 385.11068 288.812523 
L 385.391613 282.760608 
L 385.532302 282.704613 
L 385.672652 279.224123 
L 385.955099 248.73203 
L 386.09613 239.643713 
L 386.798873 35.103429 
L 387.082176 291.07403 
L 387.222636 287.307047 
L 387.362805 283.443904 
L 387.502892 291.90947 
L 387.643122 290.406781 
L 387.783205 285.987817 
L 387.923551 288.979307 
L 388.206506 283.252642 
L 388.346627 284.601256 
L 388.488354 281.723767 
L 388.629194 286.789434 
L 388.769297 279.454143 
L 389.04974 289.504517 
L 389.190421 291.940537 
L 389.471357 280.778095 
L 389.611474 223.125602 
L 389.753556 230.042718 
L 390.03583 294.017006 
L 390.458078 285.011467 
L 390.598285 286.293228 
L 390.738965 291.76028 
L 391.020802 56.745919 
L 391.160902 44.776022 
L 391.301154 44.928577 
L 391.441741 276.501138 
L 391.581863 290.155957 
L 391.722119 284.795713 
L 391.862309 293.366676 
L 392.003949 292.875502 
L 392.144364 293.075103 
L 392.28548 292.813575 
L 392.426659 292.269825 
L 392.568459 292.895476 
L 392.713647 292.531023 
L 392.854137 296.355356 
L 392.995028 290.040752 
L 393.135629 295.04733 
L 393.276288 294.663631 
L 393.417135 293.004856 
L 393.557308 294.600635 
L 393.837545 293.67425 
L 393.978022 287.446668 
L 394.118278 292.987817 
L 394.262337 291.306922 
L 394.403432 292.468448 
L 394.544755 291.904851 
L 394.685148 290.853412 
L 394.82534 292.665724 
L 394.965528 291.132224 
L 395.10571 291.844448 
L 395.245806 290.595459 
L 395.526564 280.548733 
L 395.669873 285.838989 
L 396.091482 271.406956 
L 396.23179 277.294081 
L 396.373543 289.481885 
L 396.513921 288.160117 
L 396.794719 277.79093 
L 396.936708 295.126032 
L 397.217301 285.835721 
L 397.358322 293.095751 
L 397.499134 284.444813 
L 397.640301 290.088879 
L 397.780388 284.569998 
L 397.921002 285.507914 
L 398.064097 281.101182 
L 398.207022 285.511701 
L 398.347129 48.971727 
L 398.487273 23.583149 
L 398.487273 23.583149 
" clip-path="url(#p91c686016c)" style="fill: none; stroke: #1f77b4; stroke-width: 1.5; stroke-linecap: square"/>
   </g>
   <g id="patch_3">
    <path d="M 57.6 307.584 
L 57.6 41.472 
" style="fill: none; stroke: #000000; stroke-width: 0.8; stroke-linejoin: miter; stroke-linecap: square"/>
   </g>
   <g id="patch_4">
    <path d="M 414.72 307.584 
L 414.72 41.472 
" style="fill: none; stroke: #000000; stroke-width: 0.8; stroke-linejoin: miter; stroke-linecap: square"/>
   </g>
   <g id="patch_5">
    <path d="M 57.6 307.584 
L 414.72 307.584 
" style="fill: none; stroke: #000000; stroke-width: 0.8; stroke-linejoin: miter; stroke-linecap: square"/>
   </g>
   <g id="patch_6">
    <path d="M 57.6 41.472 
L 414.72 41.472 
" style="fill: none; stroke: #000000; stroke-width: 0.8; stroke-linejoin: miter; stroke-linecap: square"/>
   </g>
   <g id="text_15">
    <!-- pt6 link speed per 100ms -->
    <g transform="translate(159.425625 35.472)scale(0.12 -0.12)">
     <defs>
      <path id="DejaVuSans-36" d="M 2113 2584 
Q 1688 2584 1439 2293 
Q 1191 2003 1191 1497 
Q 1191 994 1439 701 
Q 1688 409 2113 409 
Q 2538 409 2786 701 
Q 3034 994 3034 1497 
Q 3034 2003 2786 2293 
Q 2538 2584 2113 2584 
z
M 3366 4563 
L 3366 3988 
Q 3128 4100 2886 4159 
Q 2644 4219 2406 4219 
Q 1781 4219 1451 3797 
Q 1122 3375 1075 2522 
Q 1259 2794 1537 2939 
Q 1816 3084 2150 3084 
Q 2853 3084 3261 2657 
Q 3669 2231 3669 1497 
Q 3669 778 3244 343 
Q 2819 -91 2113 -91 
Q 1303 -91 875 529 
Q 447 1150 447 2328 
Q 447 3434 972 4092 
Q 1497 4750 2381 4750 
Q 2619 4750 2861 4703 
Q 3103 4656 3366 4563 
z
" transform="scale(0.015625)"/>
      <path id="DejaVuSans-20" transform="scale(0.015625)"/>
      <path id="DejaVuSans-6c" d="M 603 4863 
L 1178 4863 
L 1178 0 
L 603 0 
L 603 4863 
z
" transform="scale(0.015625)"/>
      <path id="DejaVuSans-6e" d="M 3513 2113 
L 3513 0 
L 2938 0 
L 2938 2094 
Q 2938 2591 2744 2837 
Q 2550 3084 2163 3084 
Q 1697 3084 1428 2787 
Q 1159 2491 1159 1978 
L 1159 0 
L 581 0 
L 581 3500 
L 1159 3500 
L 1159 2956 
Q 1366 3272 1645 3428 
Q 1925 3584 2291 3584 
Q 2894 3584 3203 3211 
Q 3513 2838 3513 2113 
z
" transform="scale(0.015625)"/>
      <path id="DejaVuSans-6b" d="M 581 4863 
L 1159 4863 
L 1159 1991 
L 2875 3500 
L 3609 3500 
L 1753 1863 
L 3688 0 
L 2938 0 
L 1159 1709 
L 1159 0 
L 581 0 
L 581 4863 
z
" transform="scale(0.015625)"/>
      <path id="DejaVuSans-64" d="M 2906 2969 
L 2906 4863 
L 3481 4863 
L 3481 0 
L 2906 0 
L 2906 525 
Q 2725 213 2448 61 
Q 2172 -91 1784 -91 
Q 1150 -91 751 415 
Q 353 922 353 1747 
Q 353 2572 751 3078 
Q 1150 3584 1784 3584 
Q 2172 3584 2448 3432 
Q 2725 3281 2906 2969 
z
M 947 1747 
Q 947 1113 1208 752 
Q 1469 391 1925 391 
Q 2381 391 2643 752 
Q 2906 1113 2906 1747 
Q 2906 2381 2643 2742 
Q 2381 3103 1925 3103 
Q 1469 3103 1208 2742 
Q 947 2381 947 1747 
z
" transform="scale(0.015625)"/>
      <path id="DejaVuSans-72" d="M 2631 2963 
Q 2534 3019 2420 3045 
Q 2306 3072 2169 3072 
Q 1681 3072 1420 2755 
Q 1159 2438 1159 1844 
L 1159 0 
L 581 0 
L 581 3500 
L 1159 3500 
L 1159 2956 
Q 1341 3275 1631 3429 
Q 1922 3584 2338 3584 
Q 2397 3584 2469 3576 
Q 2541 3569 2628 3553 
L 2631 2963 
z
" transform="scale(0.015625)"/>
     </defs>
     <use xlink:href="#DejaVuSans-70"/>
     <use xlink:href="#DejaVuSans-74" x="63.476562"/>
     <use xlink:href="#DejaVuSans-36" x="102.685547"/>
     <use xlink:href="#DejaVuSans-20" x="166.308594"/>
     <use xlink:href="#DejaVuSans-6c" x="198.095703"/>
     <use xlink:href="#DejaVuSans-69" x="225.878906"/>
     <use xlink:href="#DejaVuSans-6e" x="253.662109"/>
     <use xlink:href="#DejaVuSans-6b" x="317.041016"/>
     <use xlink:href="#DejaVuSans-20" x="374.951172"/>
     <use xlink:href="#DejaVuSans-73" x="406.738281"/>
     <use xlink:href="#DejaVuSans-70" x="458.837891"/>
     <use xlink:href="#DejaVuSans-65" x="522.314453"/>
     <use xlink:href="#DejaVuSans-65" x="583.837891"/>
     <use xlink:href="#DejaVuSans-64" x="645.361328"/>
     <use xlink:href="#DejaVuSans-20" x="708.837891"/>
     <use xlink:href="#DejaVuSans-70" x="740.625"/>
     <use xlink:href="#DejaVuSans-65" x="804.101562"/>
     <use xlink:href="#DejaVuSans-72" x="865.625"/>
     <use xlink:href="#DejaVuSans-20" x="906.738281"/>
     <use xlink:href="#DejaVuSans-31" x="938.525391"/>
     <use xlink:href="#DejaVuSans-30" x="1002.148438"/>
     <use xlink:href="#DejaVuSans-30" x="1065.771484"/>
     <use xlink:href="#DejaVuSans-6d" x="1129.394531"/>
     <use xlink:href="#DejaVuSans-73" x="1226.806641"/>
    </g>
   </g>
  </g>
 </g>
 <defs>
  <clipPath id="p91c686016c">
   <rect x="57.6" y="41.472" width="357.12" height="266.112"/>
  </clipPath>
 </defs>
</svg>
