<?xml version="1.0" encoding="utf-8" standalone="no"?>
<!DOCTYPE svg PUBLIC "-//W3C//DTD SVG 1.1//EN"
  "http://www.w3.org/Graphics/SVG/1.1/DTD/svg11.dtd">
<svg xmlns:xlink="http://www.w3.org/1999/xlink" width="460.8pt" height="345.6pt" viewBox="0 0 460.8 345.6" xmlns="http://www.w3.org/2000/svg" version="1.1">
 <metadata>
  <rdf:RDF xmlns:dc="http://purl.org/dc/elements/1.1/" xmlns:cc="http://creativecommons.org/ns#" xmlns:rdf="http://www.w3.org/1999/02/22-rdf-syntax-ns#">
   <cc:Work>
    <dc:type rdf:resource="http://purl.org/dc/dcmitype/StillImage"/>
    <dc:date>2022-07-10T00:59:57.055964</dc:date>
    <dc:format>image/svg+xml</dc:format>
    <dc:creator>
     <cc:Agent>
      <dc:title>Matplotlib v3.5.2, https://matplotlib.org/</dc:title>
     </cc:Agent>
    </dc:creator>
   </cc:Work>
  </rdf:RDF>
 </metadata>
 <defs>
  <style type="text/css">*{stroke-linejoin: round; stroke-linecap: butt}</style>
 </defs>
 <g id="figure_1">
  <g id="patch_1">
   <path d="M 0 345.6 
L 460.8 345.6 
L 460.8 0 
L 0 0 
z
" style="fill: #ffffff"/>
  </g>
  <g id="axes_1">
   <g id="patch_2">
    <path d="M 57.6 307.584 
L 414.72 307.584 
L 414.72 41.472 
L 57.6 41.472 
z
" style="fill: #ffffff"/>
   </g>
   <g id="matplotlib.axis_1">
    <g id="xtick_1">
     <g id="line2d_1">
      <defs>
       <path id="m763f465501" d="M 0 0 
L 0 3.5 
" style="stroke: #000000; stroke-width: 0.8"/>
      </defs>
      <g>
       <use xlink:href="#m763f465501" x="73.691668" y="307.584" style="stroke: #000000; stroke-width: 0.8"/>
      </g>
     </g>
     <g id="text_1">
      <!-- 0 -->
      <g transform="translate(70.510418 322.182437)scale(0.1 -0.1)">
       <defs>
        <path id="DejaVuSans-30" d="M 2034 4250 
Q 1547 4250 1301 3770 
Q 1056 3291 1056 2328 
Q 1056 1369 1301 889 
Q 1547 409 2034 409 
Q 2525 409 2770 889 
Q 3016 1369 3016 2328 
Q 3016 3291 2770 3770 
Q 2525 4250 2034 4250 
z
M 2034 4750 
Q 2819 4750 3233 4129 
Q 3647 3509 3647 2328 
Q 3647 1150 3233 529 
Q 2819 -91 2034 -91 
Q 1250 -91 836 529 
Q 422 1150 422 2328 
Q 422 3509 836 4129 
Q 1250 4750 2034 4750 
z
" transform="scale(0.015625)"/>
       </defs>
       <use xlink:href="#DejaVuSans-30"/>
      </g>
     </g>
    </g>
    <g id="xtick_2">
     <g id="line2d_2">
      <g>
       <use xlink:href="#m763f465501" x="143.942291" y="307.584" style="stroke: #000000; stroke-width: 0.8"/>
      </g>
     </g>
     <g id="text_2">
      <!-- 50 -->
      <g transform="translate(137.579791 322.182437)scale(0.1 -0.1)">
       <defs>
        <path id="DejaVuSans-35" d="M 691 4666 
L 3169 4666 
L 3169 4134 
L 1269 4134 
L 1269 2991 
Q 1406 3038 1543 3061 
Q 1681 3084 1819 3084 
Q 2600 3084 3056 2656 
Q 3513 2228 3513 1497 
Q 3513 744 3044 326 
Q 2575 -91 1722 -91 
Q 1428 -91 1123 -41 
Q 819 9 494 109 
L 494 744 
Q 775 591 1075 516 
Q 1375 441 1709 441 
Q 2250 441 2565 725 
Q 2881 1009 2881 1497 
Q 2881 1984 2565 2268 
Q 2250 2553 1709 2553 
Q 1456 2553 1204 2497 
Q 953 2441 691 2322 
L 691 4666 
z
" transform="scale(0.015625)"/>
       </defs>
       <use xlink:href="#DejaVuSans-35"/>
       <use xlink:href="#DejaVuSans-30" x="63.623047"/>
      </g>
     </g>
    </g>
    <g id="xtick_3">
     <g id="line2d_3">
      <g>
       <use xlink:href="#m763f465501" x="214.192913" y="307.584" style="stroke: #000000; stroke-width: 0.8"/>
      </g>
     </g>
     <g id="text_3">
      <!-- 100 -->
      <g transform="translate(204.649163 322.182437)scale(0.1 -0.1)">
       <defs>
        <path id="DejaVuSans-31" d="M 794 531 
L 1825 531 
L 1825 4091 
L 703 3866 
L 703 4441 
L 1819 4666 
L 2450 4666 
L 2450 531 
L 3481 531 
L 3481 0 
L 794 0 
L 794 531 
z
" transform="scale(0.015625)"/>
       </defs>
       <use xlink:href="#DejaVuSans-31"/>
       <use xlink:href="#DejaVuSans-30" x="63.623047"/>
       <use xlink:href="#DejaVuSans-30" x="127.246094"/>
      </g>
     </g>
    </g>
    <g id="xtick_4">
     <g id="line2d_4">
      <g>
       <use xlink:href="#m763f465501" x="284.443536" y="307.584" style="stroke: #000000; stroke-width: 0.8"/>
      </g>
     </g>
     <g id="text_4">
      <!-- 150 -->
      <g transform="translate(274.899786 322.182437)scale(0.1 -0.1)">
       <use xlink:href="#DejaVuSans-31"/>
       <use xlink:href="#DejaVuSans-35" x="63.623047"/>
       <use xlink:href="#DejaVuSans-30" x="127.246094"/>
      </g>
     </g>
    </g>
    <g id="xtick_5">
     <g id="line2d_5">
      <g>
       <use xlink:href="#m763f465501" x="354.694159" y="307.584" style="stroke: #000000; stroke-width: 0.8"/>
      </g>
     </g>
     <g id="text_5">
      <!-- 200 -->
      <g transform="translate(345.150409 322.182437)scale(0.1 -0.1)">
       <defs>
        <path id="DejaVuSans-32" d="M 1228 531 
L 3431 531 
L 3431 0 
L 469 0 
L 469 531 
Q 828 903 1448 1529 
Q 2069 2156 2228 2338 
Q 2531 2678 2651 2914 
Q 2772 3150 2772 3378 
Q 2772 3750 2511 3984 
Q 2250 4219 1831 4219 
Q 1534 4219 1204 4116 
Q 875 4013 500 3803 
L 500 4441 
Q 881 4594 1212 4672 
Q 1544 4750 1819 4750 
Q 2544 4750 2975 4387 
Q 3406 4025 3406 3419 
Q 3406 3131 3298 2873 
Q 3191 2616 2906 2266 
Q 2828 2175 2409 1742 
Q 1991 1309 1228 531 
z
" transform="scale(0.015625)"/>
       </defs>
       <use xlink:href="#DejaVuSans-32"/>
       <use xlink:href="#DejaVuSans-30" x="63.623047"/>
       <use xlink:href="#DejaVuSans-30" x="127.246094"/>
      </g>
     </g>
    </g>
    <g id="text_6">
     <!-- time(s) -->
     <g transform="translate(218.357656 335.860562)scale(0.1 -0.1)">
      <defs>
       <path id="DejaVuSans-74" d="M 1172 4494 
L 1172 3500 
L 2356 3500 
L 2356 3053 
L 1172 3053 
L 1172 1153 
Q 1172 725 1289 603 
Q 1406 481 1766 481 
L 2356 481 
L 2356 0 
L 1766 0 
Q 1100 0 847 248 
Q 594 497 594 1153 
L 594 3053 
L 172 3053 
L 172 3500 
L 594 3500 
L 594 4494 
L 1172 4494 
z
" transform="scale(0.015625)"/>
       <path id="DejaVuSans-69" d="M 603 3500 
L 1178 3500 
L 1178 0 
L 603 0 
L 603 3500 
z
M 603 4863 
L 1178 4863 
L 1178 4134 
L 603 4134 
L 603 4863 
z
" transform="scale(0.015625)"/>
       <path id="DejaVuSans-6d" d="M 3328 2828 
Q 3544 3216 3844 3400 
Q 4144 3584 4550 3584 
Q 5097 3584 5394 3201 
Q 5691 2819 5691 2113 
L 5691 0 
L 5113 0 
L 5113 2094 
Q 5113 2597 4934 2840 
Q 4756 3084 4391 3084 
Q 3944 3084 3684 2787 
Q 3425 2491 3425 1978 
L 3425 0 
L 2847 0 
L 2847 2094 
Q 2847 2600 2669 2842 
Q 2491 3084 2119 3084 
Q 1678 3084 1418 2786 
Q 1159 2488 1159 1978 
L 1159 0 
L 581 0 
L 581 3500 
L 1159 3500 
L 1159 2956 
Q 1356 3278 1631 3431 
Q 1906 3584 2284 3584 
Q 2666 3584 2933 3390 
Q 3200 3197 3328 2828 
z
" transform="scale(0.015625)"/>
       <path id="DejaVuSans-65" d="M 3597 1894 
L 3597 1613 
L 953 1613 
Q 991 1019 1311 708 
Q 1631 397 2203 397 
Q 2534 397 2845 478 
Q 3156 559 3463 722 
L 3463 178 
Q 3153 47 2828 -22 
Q 2503 -91 2169 -91 
Q 1331 -91 842 396 
Q 353 884 353 1716 
Q 353 2575 817 3079 
Q 1281 3584 2069 3584 
Q 2775 3584 3186 3129 
Q 3597 2675 3597 1894 
z
M 3022 2063 
Q 3016 2534 2758 2815 
Q 2500 3097 2075 3097 
Q 1594 3097 1305 2825 
Q 1016 2553 972 2059 
L 3022 2063 
z
" transform="scale(0.015625)"/>
       <path id="DejaVuSans-28" d="M 1984 4856 
Q 1566 4138 1362 3434 
Q 1159 2731 1159 2009 
Q 1159 1288 1364 580 
Q 1569 -128 1984 -844 
L 1484 -844 
Q 1016 -109 783 600 
Q 550 1309 550 2009 
Q 550 2706 781 3412 
Q 1013 4119 1484 4856 
L 1984 4856 
z
" transform="scale(0.015625)"/>
       <path id="DejaVuSans-73" d="M 2834 3397 
L 2834 2853 
Q 2591 2978 2328 3040 
Q 2066 3103 1784 3103 
Q 1356 3103 1142 2972 
Q 928 2841 928 2578 
Q 928 2378 1081 2264 
Q 1234 2150 1697 2047 
L 1894 2003 
Q 2506 1872 2764 1633 
Q 3022 1394 3022 966 
Q 3022 478 2636 193 
Q 2250 -91 1575 -91 
Q 1294 -91 989 -36 
Q 684 19 347 128 
L 347 722 
Q 666 556 975 473 
Q 1284 391 1588 391 
Q 1994 391 2212 530 
Q 2431 669 2431 922 
Q 2431 1156 2273 1281 
Q 2116 1406 1581 1522 
L 1381 1569 
Q 847 1681 609 1914 
Q 372 2147 372 2553 
Q 372 3047 722 3315 
Q 1072 3584 1716 3584 
Q 2034 3584 2315 3537 
Q 2597 3491 2834 3397 
z
" transform="scale(0.015625)"/>
       <path id="DejaVuSans-29" d="M 513 4856 
L 1013 4856 
Q 1481 4119 1714 3412 
Q 1947 2706 1947 2009 
Q 1947 1309 1714 600 
Q 1481 -109 1013 -844 
L 513 -844 
Q 928 -128 1133 580 
Q 1338 1288 1338 2009 
Q 1338 2731 1133 3434 
Q 928 4138 513 4856 
z
" transform="scale(0.015625)"/>
      </defs>
      <use xlink:href="#DejaVuSans-74"/>
      <use xlink:href="#DejaVuSans-69" x="39.208984"/>
      <use xlink:href="#DejaVuSans-6d" x="66.992188"/>
      <use xlink:href="#DejaVuSans-65" x="164.404297"/>
      <use xlink:href="#DejaVuSans-28" x="225.927734"/>
      <use xlink:href="#DejaVuSans-73" x="264.941406"/>
      <use xlink:href="#DejaVuSans-29" x="317.041016"/>
     </g>
    </g>
   </g>
   <g id="matplotlib.axis_2">
    <g id="ytick_1">
     <g id="line2d_6">
      <defs>
       <path id="m704717e85c" d="M 0 0 
L -3.5 0 
" style="stroke: #000000; stroke-width: 0.8"/>
      </defs>
      <g>
       <use xlink:href="#m704717e85c" x="57.6" y="307.584" style="stroke: #000000; stroke-width: 0.8"/>
      </g>
     </g>
     <g id="text_7">
      <!-- 0 -->
      <g transform="translate(44.2375 311.383219)scale(0.1 -0.1)">
       <use xlink:href="#DejaVuSans-30"/>
      </g>
     </g>
    </g>
    <g id="ytick_2">
     <g id="line2d_7">
      <g>
       <use xlink:href="#m704717e85c" x="57.6" y="263.232" style="stroke: #000000; stroke-width: 0.8"/>
      </g>
     </g>
     <g id="text_8">
      <!-- 50 -->
      <g transform="translate(37.875 267.031219)scale(0.1 -0.1)">
       <use xlink:href="#DejaVuSans-35"/>
       <use xlink:href="#DejaVuSans-30" x="63.623047"/>
      </g>
     </g>
    </g>
    <g id="ytick_3">
     <g id="line2d_8">
      <g>
       <use xlink:href="#m704717e85c" x="57.6" y="218.88" style="stroke: #000000; stroke-width: 0.8"/>
      </g>
     </g>
     <g id="text_9">
      <!-- 100 -->
      <g transform="translate(31.5125 222.679219)scale(0.1 -0.1)">
       <use xlink:href="#DejaVuSans-31"/>
       <use xlink:href="#DejaVuSans-30" x="63.623047"/>
       <use xlink:href="#DejaVuSans-30" x="127.246094"/>
      </g>
     </g>
    </g>
    <g id="ytick_4">
     <g id="line2d_9">
      <g>
       <use xlink:href="#m704717e85c" x="57.6" y="174.528" style="stroke: #000000; stroke-width: 0.8"/>
      </g>
     </g>
     <g id="text_10">
      <!-- 150 -->
      <g transform="translate(31.5125 178.327219)scale(0.1 -0.1)">
       <use xlink:href="#DejaVuSans-31"/>
       <use xlink:href="#DejaVuSans-35" x="63.623047"/>
       <use xlink:href="#DejaVuSans-30" x="127.246094"/>
      </g>
     </g>
    </g>
    <g id="ytick_5">
     <g id="line2d_10">
      <g>
       <use xlink:href="#m704717e85c" x="57.6" y="130.176" style="stroke: #000000; stroke-width: 0.8"/>
      </g>
     </g>
     <g id="text_11">
      <!-- 200 -->
      <g transform="translate(31.5125 133.975219)scale(0.1 -0.1)">
       <use xlink:href="#DejaVuSans-32"/>
       <use xlink:href="#DejaVuSans-30" x="63.623047"/>
       <use xlink:href="#DejaVuSans-30" x="127.246094"/>
      </g>
     </g>
    </g>
    <g id="ytick_6">
     <g id="line2d_11">
      <g>
       <use xlink:href="#m704717e85c" x="57.6" y="85.824" style="stroke: #000000; stroke-width: 0.8"/>
      </g>
     </g>
     <g id="text_12">
      <!-- 250 -->
      <g transform="translate(31.5125 89.623219)scale(0.1 -0.1)">
       <use xlink:href="#DejaVuSans-32"/>
       <use xlink:href="#DejaVuSans-35" x="63.623047"/>
       <use xlink:href="#DejaVuSans-30" x="127.246094"/>
      </g>
     </g>
    </g>
    <g id="ytick_7">
     <g id="line2d_12">
      <g>
       <use xlink:href="#m704717e85c" x="57.6" y="41.472" style="stroke: #000000; stroke-width: 0.8"/>
      </g>
     </g>
     <g id="text_13">
      <!-- 300 -->
      <g transform="translate(31.5125 45.271219)scale(0.1 -0.1)">
       <defs>
        <path id="DejaVuSans-33" d="M 2597 2516 
Q 3050 2419 3304 2112 
Q 3559 1806 3559 1356 
Q 3559 666 3084 287 
Q 2609 -91 1734 -91 
Q 1441 -91 1130 -33 
Q 819 25 488 141 
L 488 750 
Q 750 597 1062 519 
Q 1375 441 1716 441 
Q 2309 441 2620 675 
Q 2931 909 2931 1356 
Q 2931 1769 2642 2001 
Q 2353 2234 1838 2234 
L 1294 2234 
L 1294 2753 
L 1863 2753 
Q 2328 2753 2575 2939 
Q 2822 3125 2822 3475 
Q 2822 3834 2567 4026 
Q 2313 4219 1838 4219 
Q 1578 4219 1281 4162 
Q 984 4106 628 3988 
L 628 4550 
Q 988 4650 1302 4700 
Q 1616 4750 1894 4750 
Q 2613 4750 3031 4423 
Q 3450 4097 3450 3541 
Q 3450 3153 3228 2886 
Q 3006 2619 2597 2516 
z
" transform="scale(0.015625)"/>
       </defs>
       <use xlink:href="#DejaVuSans-33"/>
       <use xlink:href="#DejaVuSans-30" x="63.623047"/>
       <use xlink:href="#DejaVuSans-30" x="127.246094"/>
      </g>
     </g>
    </g>
    <g id="text_14">
     <!-- Mbps -->
     <g transform="translate(25.432812 187.795187)rotate(-90)scale(0.1 -0.1)">
      <defs>
       <path id="DejaVuSans-4d" d="M 628 4666 
L 1569 4666 
L 2759 1491 
L 3956 4666 
L 4897 4666 
L 4897 0 
L 4281 0 
L 4281 4097 
L 3078 897 
L 2444 897 
L 1241 4097 
L 1241 0 
L 628 0 
L 628 4666 
z
" transform="scale(0.015625)"/>
       <path id="DejaVuSans-62" d="M 3116 1747 
Q 3116 2381 2855 2742 
Q 2594 3103 2138 3103 
Q 1681 3103 1420 2742 
Q 1159 2381 1159 1747 
Q 1159 1113 1420 752 
Q 1681 391 2138 391 
Q 2594 391 2855 752 
Q 3116 1113 3116 1747 
z
M 1159 2969 
Q 1341 3281 1617 3432 
Q 1894 3584 2278 3584 
Q 2916 3584 3314 3078 
Q 3713 2572 3713 1747 
Q 3713 922 3314 415 
Q 2916 -91 2278 -91 
Q 1894 -91 1617 61 
Q 1341 213 1159 525 
L 1159 0 
L 581 0 
L 581 4863 
L 1159 4863 
L 1159 2969 
z
" transform="scale(0.015625)"/>
       <path id="DejaVuSans-70" d="M 1159 525 
L 1159 -1331 
L 581 -1331 
L 581 3500 
L 1159 3500 
L 1159 2969 
Q 1341 3281 1617 3432 
Q 1894 3584 2278 3584 
Q 2916 3584 3314 3078 
Q 3713 2572 3713 1747 
Q 3713 922 3314 415 
Q 2916 -91 2278 -91 
Q 1894 -91 1617 61 
Q 1341 213 1159 525 
z
M 3116 1747 
Q 3116 2381 2855 2742 
Q 2594 3103 2138 3103 
Q 1681 3103 1420 2742 
Q 1159 2381 1159 1747 
Q 1159 1113 1420 752 
Q 1681 391 2138 391 
Q 2594 391 2855 752 
Q 3116 1113 3116 1747 
z
" transform="scale(0.015625)"/>
      </defs>
      <use xlink:href="#DejaVuSans-4d"/>
      <use xlink:href="#DejaVuSans-62" x="86.279297"/>
      <use xlink:href="#DejaVuSans-70" x="149.755859"/>
      <use xlink:href="#DejaVuSans-73" x="213.232422"/>
     </g>
    </g>
   </g>
   <g id="line2d_13">
    <path d="M 73.832727 55.715325 
L 73.973248 55.851936 
L 74.113754 88.794289 
L 74.254903 276.830022 
L 74.396023 280.638001 
L 74.539329 290.791122 
L 74.679976 292.702751 
L 74.82079 292.16683 
L 74.961801 295.061725 
L 75.103131 293.010462 
L 75.243823 293.546966 
L 75.38724 290.745841 
L 75.529405 292.171614 
L 75.670069 288.765839 
L 75.952024 265.173817 
L 76.096804 291.470012 
L 76.237308 294.964411 
L 76.37827 291.119293 
L 76.519405 293.142018 
L 76.660007 283.300667 
L 76.80158 281.93614 
L 76.943609 272.056608 
L 77.085741 291.653522 
L 77.22664 280.984866 
L 77.367785 292.217129 
L 77.508674 292.420052 
L 77.651201 295.363906 
L 77.933385 289.11997 
L 78.074175 284.685198 
L 78.217955 293.261473 
L 78.358624 289.296756 
L 78.50063 242.172426 
L 78.781785 255.582185 
L 78.923009 287.023729 
L 79.064323 293.02172 
L 79.20604 291.843418 
L 79.34818 286.997761 
L 79.492841 286.15545 
L 79.634891 292.394937 
L 79.775548 286.432673 
L 79.916199 289.282666 
L 80.056857 274.420765 
L 80.19754 285.731272 
L 80.338609 283.089916 
L 80.483265 291.462221 
L 80.624895 290.238233 
L 80.765452 287.222547 
L 81.046765 292.721416 
L 81.187904 287.891772 
L 81.469265 253.813171 
L 81.609787 217.454394 
L 81.89352 287.224503 
L 82.03424 285.906749 
L 82.175091 277.744522 
L 82.315753 293.576599 
L 82.456321 293.936759 
L 82.59698 292.185313 
L 82.737689 293.587504 
L 82.878411 291.011924 
L 83.16113 291.714923 
L 83.301653 287.958734 
L 83.723456 229.990219 
L 84.145266 57.852152 
L 84.285799 48.855381 
L 84.426329 50.007351 
L 84.707562 288.666098 
L 84.848265 283.533499 
L 84.988997 263.83399 
L 85.129605 293.238568 
L 85.411494 277.136742 
L 85.552757 286.6511 
L 85.834615 278.249185 
L 85.975266 287.131727 
L 86.116226 284.140722 
L 86.400471 287.987266 
L 86.681548 285.105294 
L 86.82214 285.741492 
L 87.103386 284.081718 
L 87.244195 293.012156 
L 87.384793 293.873414 
L 87.52622 289.275254 
L 87.666824 292.52096 
L 87.807417 291.850539 
L 88.092541 295.191235 
L 88.233155 291.601209 
L 88.373995 291.519399 
L 88.657404 289.240709 
L 88.798175 284.987468 
L 89.080754 292.965686 
L 89.221296 293.209028 
L 89.366053 292.968569 
L 89.510594 293.651966 
L 89.651394 293.366366 
L 89.792088 291.070182 
L 90.21667 294.861292 
L 90.3572 287.476539 
L 90.501192 294.403385 
L 90.641776 290.566881 
L 90.78239 276.83047 
L 90.923848 293.755908 
L 91.064809 293.675547 
L 91.348359 292.325943 
L 91.489193 292.891488 
L 91.630912 291.651036 
L 91.771457 295.029771 
L 91.912704 294.386916 
L 92.054084 290.848561 
L 92.195036 294.005063 
L 92.336379 287.276557 
L 92.619341 291.670656 
L 92.760014 287.875005 
L 92.902141 289.608777 
L 93.043041 283.455658 
L 93.184079 291.775501 
L 93.46646 288.247241 
L 93.608124 288.268131 
L 93.748968 293.17282 
L 93.889669 293.08894 
L 94.171971 290.331245 
L 94.312749 293.370985 
L 94.593965 290.578705 
L 94.737469 291.33683 
L 94.878826 290.145121 
L 95.019517 290.072845 
L 95.302429 291.775016 
L 95.443096 289.5337 
L 95.584966 290.361307 
L 95.725801 293.360662 
L 95.867233 291.744982 
L 96.008397 293.375333 
L 96.149015 292.75129 
L 96.290851 281.990488 
L 96.431948 285.762294 
L 96.572788 295.700821 
L 96.713448 293.834756 
L 96.855135 288.766128 
L 96.996274 292.413641 
L 97.136992 287.539795 
L 97.277809 287.639075 
L 97.418663 291.733241 
L 97.559831 291.760362 
L 97.700699 288.996161 
L 97.84498 279.498254 
L 97.985798 282.830701 
L 98.12683 295.121174 
L 98.26759 293.845919 
L 98.408264 290.43622 
L 98.549269 293.481794 
L 98.691802 293.134634 
L 98.832506 294.682933 
L 98.973141 292.383233 
L 99.114561 296.107141 
L 99.397016 289.116248 
L 99.539005 293.612891 
L 99.679595 293.580687 
L 99.820405 294.039525 
L 99.961057 290.193757 
L 100.102474 294.744684 
L 100.243502 278.128264 
L 100.384381 291.227383 
L 100.525238 290.107835 
L 100.666206 291.43812 
L 100.807106 287.720115 
L 101.091409 293.222266 
L 101.233206 286.640665 
L 101.373911 287.501704 
L 101.51526 286.356378 
L 101.655898 292.941321 
L 102.079202 290.48589 
L 102.221282 285.395761 
L 102.362351 291.593335 
L 102.503095 283.953922 
L 102.644222 288.494235 
L 102.785671 288.500673 
L 102.926542 294.170813 
L 103.208007 283.309804 
L 103.349494 274.42655 
L 103.492175 284.52308 
L 103.632957 285.45456 
L 103.774515 279.907741 
L 103.915344 286.738552 
L 104.055846 279.113557 
L 104.196364 283.804772 
L 104.337161 280.246996 
L 104.478037 273.819275 
L 104.901723 285.620227 
L 105.042245 275.782101 
L 105.468982 292.980352 
L 105.609509 288.433509 
L 105.750139 291.874053 
L 105.893014 291.708819 
L 106.033533 289.069636 
L 106.175542 290.373355 
L 106.316066 235.132968 
L 106.457588 290.170254 
L 106.598197 267.272292 
L 106.739296 285.270993 
L 107.162097 276.671908 
L 107.445973 285.932727 
L 107.586748 264.670078 
L 107.727714 292.75099 
L 107.868259 288.911138 
L 108.010427 293.325241 
L 108.15119 286.019982 
L 108.29238 296.212731 
L 108.433729 296.718056 
L 108.574761 292.331161 
L 108.717214 295.559766 
L 108.86025 279.28786 
L 109.000796 288.443158 
L 109.141987 286.836721 
L 109.282748 290.575178 
L 109.564155 288.556948 
L 109.705283 283.70795 
L 109.84676 284.055419 
L 109.987289 273.890501 
L 110.128435 278.390361 
L 110.268976 286.769306 
L 110.409772 284.781496 
L 110.550331 278.548444 
L 110.831833 291.803601 
L 111.114067 285.782845 
L 111.255862 289.823307 
L 111.396478 282.412602 
L 111.537013 282.567019 
L 111.677784 288.663191 
L 111.818912 288.087883 
L 111.959527 284.049387 
L 112.100154 272.180402 
L 112.381773 265.746302 
L 112.522704 213.80265 
L 112.663249 278.187783 
L 112.803753 263.185177 
L 113.084982 210.939746 
L 113.507608 287.391489 
L 113.652472 286.890918 
L 113.795745 294.652247 
L 114.078525 281.282385 
L 114.219113 285.239738 
L 114.360393 285.974512 
L 114.501053 291.248471 
L 114.641727 290.972365 
L 114.784059 285.678807 
L 115.067398 289.833534 
L 115.20796 289.867669 
L 115.348846 286.761249 
L 115.490232 286.520913 
L 115.630982 279.010832 
L 115.771492 287.949862 
L 115.913447 286.0585 
L 116.055106 286.891618 
L 116.196673 286.025518 
L 116.478095 270.315746 
L 116.760101 205.929693 
L 117.041869 54.180589 
L 117.323301 50.79488 
L 117.464131 117.167561 
L 117.604723 288.16928 
L 117.747225 290.740855 
L 117.888801 289.838794 
L 118.17103 289.730275 
L 118.312824 289.882344 
L 118.594513 282.87945 
L 118.736508 277.732139 
L 119.01964 288.900556 
L 119.160507 290.187693 
L 119.443222 286.907694 
L 119.583854 290.111271 
L 119.725957 283.990285 
L 119.867484 286.26025 
L 120.008358 285.614632 
L 120.289739 290.660962 
L 120.430536 287.013831 
L 120.571713 288.180412 
L 120.712387 284.358965 
L 120.853024 291.774572 
L 120.994686 291.786988 
L 121.136702 294.270395 
L 121.420006 290.491686 
L 121.561218 292.662886 
L 121.702014 291.405767 
L 121.842572 287.771584 
L 121.983535 287.0928 
L 122.124385 282.702714 
L 122.264952 285.713887 
L 122.410526 279.379248 
L 122.552152 292.946908 
L 122.694354 292.756845 
L 122.835091 291.600522 
L 122.975782 293.368538 
L 123.258028 291.470793 
L 123.398752 265.306417 
L 123.539682 291.84298 
L 123.680258 268.723168 
L 123.820814 280.136069 
L 123.961425 279.563381 
L 124.244394 292.085945 
L 124.385627 291.194667 
L 124.526238 288.573339 
L 124.670421 295.93812 
L 124.810936 291.889661 
L 124.952287 293.760126 
L 125.09327 291.260825 
L 125.233873 291.640034 
L 125.374876 292.980808 
L 125.515442 292.371459 
L 125.656617 292.450704 
L 125.798834 285.598748 
L 125.939937 288.000963 
L 126.080453 281.847904 
L 126.221006 280.562193 
L 126.363309 253.556834 
L 126.503813 251.418691 
L 126.787016 292.266873 
L 126.92903 290.275077 
L 127.069696 284.482425 
L 127.211342 290.215192 
L 127.352099 282.9362 
L 127.492857 291.975533 
L 127.774599 285.231372 
L 127.915144 289.228574 
L 128.058657 288.420326 
L 128.340944 283.612074 
L 128.481723 280.178611 
L 128.62226 281.5988 
L 128.762833 278.944951 
L 128.903486 283.12383 
L 129.044025 280.539871 
L 129.327205 285.104324 
L 129.469043 292.948009 
L 129.610786 286.329294 
L 129.752823 286.710032 
L 130.033858 291.923488 
L 130.175761 291.103817 
L 130.457369 270.735723 
L 130.598541 273.195823 
L 130.740285 287.836571 
L 130.881347 281.445452 
L 131.306352 290.841411 
L 131.447615 278.504859 
L 131.588119 289.10949 
L 131.72869 284.440844 
L 131.871284 292.335027 
L 132.012115 289.888709 
L 132.153996 292.263828 
L 132.435583 286.211879 
L 132.577062 287.229515 
L 133.000258 284.010033 
L 133.142554 286.405165 
L 133.283108 283.34663 
L 133.42559 288.334741 
L 133.568506 284.945856 
L 133.70953 286.369478 
L 133.851018 285.272538 
L 133.991543 288.708373 
L 134.135592 282.245039 
L 134.276199 249.171162 
L 134.417366 293.751936 
L 134.55931 289.223376 
L 134.700484 293.20538 
L 134.843375 289.998119 
L 134.98404 289.912358 
L 135.266607 278.448426 
L 135.407127 276.450894 
L 135.688406 295.914699 
L 135.830657 293.092312 
L 135.972276 293.605375 
L 136.112825 293.578522 
L 136.253579 293.126594 
L 136.395283 293.132977 
L 136.67825 283.129445 
L 136.960035 290.617724 
L 137.100852 290.351508 
L 137.242391 292.294371 
L 137.524492 291.546125 
L 137.665597 291.028198 
L 137.807096 292.186433 
L 137.948069 289.979232 
L 138.088734 283.422943 
L 138.22945 287.395733 
L 138.369966 282.349665 
L 138.510511 285.477994 
L 138.651754 284.208227 
L 138.792624 287.688217 
L 139.073909 280.356855 
L 139.214615 286.655028 
L 139.35516 286.98399 
L 139.49574 291.287459 
L 139.636313 284.51866 
L 139.777547 293.650351 
L 139.918508 291.107729 
L 140.059115 284.909519 
L 140.200515 286.576601 
L 140.34104 280.859249 
L 140.481624 262.976314 
L 140.765819 289.682429 
L 140.907284 291.698077 
L 141.04779 290.613792 
L 141.331778 290.430194 
L 141.472348 289.636515 
L 141.612938 285.536127 
L 141.753449 288.260601 
L 141.894116 282.860351 
L 142.036422 287.938212 
L 142.178388 286.743902 
L 142.460631 277.291194 
L 142.601187 286.294193 
L 142.742705 283.963053 
L 142.883412 288.440146 
L 143.024221 288.972299 
L 143.165469 292.324569 
L 143.306072 285.019883 
L 143.450829 286.700403 
L 143.592093 280.555554 
L 143.732628 280.759562 
L 144.015575 292.623153 
L 144.156838 279.762228 
L 144.299216 294.387436 
L 144.440969 291.135641 
L 144.722631 290.781809 
L 144.864027 289.702778 
L 145.005009 289.995392 
L 145.14637 280.184631 
L 145.568282 291.84423 
L 145.710412 291.138475 
L 145.851441 287.271287 
L 146.133692 292.556483 
L 146.274537 291.773676 
L 146.4152 287.110243 
L 146.558448 287.119104 
L 146.698972 290.837533 
L 146.841061 290.232085 
L 146.981721 292.439167 
L 147.122853 290.492276 
L 147.266052 290.981322 
L 147.829265 288.092097 
L 147.970329 285.237127 
L 148.254679 294.161517 
L 148.395712 290.151885 
L 148.538214 290.269839 
L 148.685415 289.377724 
L 148.967786 280.428449 
L 149.11311 284.652828 
L 149.253664 283.291969 
L 149.537923 288.440756 
L 149.680249 286.776932 
L 149.820853 294.247665 
L 149.96235 286.781235 
L 150.104414 289.922316 
L 150.245742 289.317836 
L 150.387462 287.710328 
L 150.528795 289.743084 
L 150.669839 281.885324 
L 150.810822 282.614852 
L 150.952755 260.646408 
L 151.093269 216.880426 
L 151.377357 95.552247 
L 151.517864 85.114994 
L 151.658368 58.952687 
L 151.79887 93.254846 
L 151.939404 156.834054 
L 152.079959 292.502634 
L 152.220621 291.157473 
L 152.361943 294.390506 
L 152.502638 294.598087 
L 152.643458 286.957158 
L 152.784598 292.806475 
L 152.926169 286.791774 
L 153.067099 288.163368 
L 153.207768 281.968001 
L 153.348428 283.330892 
L 153.489135 267.122199 
L 153.631685 290.450804 
L 153.914528 285.216844 
L 154.055877 294.512806 
L 154.198976 290.551795 
L 154.339557 292.473099 
L 154.480203 290.657381 
L 154.620887 291.164462 
L 154.761407 281.669913 
L 154.904101 287.343103 
L 155.046024 282.350297 
L 155.331814 290.05516 
L 155.472982 289.073941 
L 155.615942 292.454023 
L 155.757466 286.168319 
L 155.898243 286.115804 
L 156.038765 289.484256 
L 156.179271 288.511913 
L 156.321402 293.232065 
L 156.466811 286.423589 
L 156.611816 289.745059 
L 156.894165 282.11776 
L 157.177661 296.137132 
L 157.322229 289.79686 
L 157.463881 292.481653 
L 157.604577 288.57539 
L 157.745154 289.384102 
L 158.027997 292.963842 
L 158.168629 295.516382 
L 158.310697 292.869947 
L 158.451609 295.501459 
L 158.592513 292.025663 
L 158.736697 292.129975 
L 158.877232 288.771129 
L 159.018405 288.814374 
L 159.15907 288.659021 
L 159.299695 286.715926 
L 159.441048 291.208648 
L 159.58165 290.123429 
L 159.725715 294.774601 
L 159.866488 288.986568 
L 160.00771 291.492377 
L 160.148511 286.700896 
L 160.289556 292.823578 
L 160.430073 281.561802 
L 160.713451 293.780792 
L 160.858533 288.30833 
L 161.142356 289.737995 
L 161.284763 293.543258 
L 161.425402 289.857594 
L 161.707306 293.354447 
L 161.847987 290.947983 
L 161.990007 293.280837 
L 162.131679 287.850415 
L 162.273033 290.571116 
L 162.414393 285.160339 
L 162.554952 255.289152 
L 162.837675 291.807645 
L 163.119511 280.37255 
L 163.260372 282.492807 
L 163.401451 274.93435 
L 163.825649 294.403605 
L 163.966364 290.014664 
L 164.108175 290.148696 
L 164.38986 284.861699 
L 164.530569 285.159251 
L 164.672363 283.413178 
L 164.812953 284.096893 
L 164.954022 281.972029 
L 165.3768 287.176202 
L 165.518224 285.911977 
L 165.943112 279.625503 
L 166.08578 284.946451 
L 166.226995 282.044722 
L 166.36756 274.721352 
L 166.508109 284.441676 
L 166.648812 282.456433 
L 166.789954 283.069315 
L 166.93297 282.662638 
L 167.074593 287.791194 
L 167.215434 285.989551 
L 167.356239 287.550237 
L 167.497225 279.993701 
L 167.637956 280.560645 
L 167.778524 286.093572 
L 167.919063 275.580372 
L 168.059886 285.511266 
L 168.200577 277.631545 
L 168.342362 283.523668 
L 168.482873 280.672782 
L 168.62354 284.020366 
L 168.764892 278.811719 
L 168.905658 282.702517 
L 169.046497 282.445863 
L 169.187859 282.829972 
L 169.329042 285.903976 
L 169.470881 284.463944 
L 169.752867 279.67167 
L 169.893399 288.32595 
L 170.034152 288.329514 
L 170.177106 290.747067 
L 170.31761 290.02032 
L 170.599183 285.803585 
L 170.739905 287.104909 
L 170.880425 281.365073 
L 171.161454 287.490955 
L 171.302138 285.783044 
L 171.443233 286.502701 
L 171.583838 282.260596 
L 171.724424 281.841637 
L 171.867692 287.921726 
L 172.008477 288.464082 
L 172.150443 290.449756 
L 172.431603 285.885694 
L 172.714222 291.402766 
L 172.854758 290.693911 
L 172.995509 282.28317 
L 173.136418 292.403072 
L 173.419635 258.960323 
L 173.561399 287.85789 
L 173.702087 293.122782 
L 173.843603 294.221389 
L 173.984318 291.920022 
L 174.126981 294.546453 
L 174.413515 285.970306 
L 174.696329 291.719072 
L 174.837327 283.714655 
L 174.978821 285.020545 
L 175.120421 279.927664 
L 175.402412 294.571951 
L 175.542961 290.331188 
L 175.685702 293.263598 
L 175.826598 287.104114 
L 175.967177 288.938546 
L 176.107856 288.268349 
L 176.249043 292.186696 
L 176.389603 290.048922 
L 176.6725 292.148275 
L 176.813295 288.980842 
L 176.956207 291.074439 
L 177.097613 290.294413 
L 177.238407 290.418483 
L 177.379095 289.718548 
L 177.521514 291.663217 
L 177.662444 287.982414 
L 177.803639 287.249682 
L 177.944501 282.015749 
L 178.227014 291.20229 
L 178.367659 289.431365 
L 178.5089 294.29746 
L 178.65041 291.026353 
L 178.791838 295.153141 
L 178.932655 291.552284 
L 179.216816 296.623432 
L 179.358641 293.444574 
L 179.504984 297.677261 
L 179.646029 294.035024 
L 179.786763 297.980033 
L 179.927286 292.904009 
L 180.068133 296.359634 
L 180.209283 292.145593 
L 180.350842 296.644762 
L 180.776156 288.047829 
L 181.061259 297.139259 
L 181.20185 293.55587 
L 181.345235 297.72498 
L 181.486413 291.717326 
L 181.626985 295.706799 
L 181.767586 290.681657 
L 181.908771 294.226509 
L 182.049391 251.802346 
L 182.33455 285.265346 
L 182.475456 289.625571 
L 182.616005 288.453215 
L 182.757007 285.741252 
L 183.038051 262.183798 
L 183.178584 249.872133 
L 183.319112 211.902602 
L 183.600162 44.267514 
L 183.74073 70.99198 
L 184.024537 289.928145 
L 184.166173 282.888664 
L 184.306801 291.649663 
L 184.729676 282.723733 
L 184.871475 282.819347 
L 185.156131 294.709834 
L 185.296646 295.017729 
L 185.441801 292.887484 
L 185.583159 294.456876 
L 185.86458 279.130922 
L 186.005142 233.786396 
L 186.145718 233.010231 
L 186.286298 217.518246 
L 186.429629 287.806212 
L 186.570131 294.709894 
L 186.711266 292.246914 
L 186.85226 295.353318 
L 186.995281 287.922102 
L 187.138994 287.040828 
L 187.423931 294.895142 
L 187.56499 293.008938 
L 187.710352 293.432723 
L 187.851222 292.371023 
L 187.996487 290.283478 
L 188.137486 295.410061 
L 188.278067 290.218412 
L 188.418663 293.593691 
L 188.563719 286.852761 
L 188.704248 289.346994 
L 188.844769 282.116702 
L 188.986321 293.652588 
L 189.128405 288.852466 
L 189.268907 288.102368 
L 189.41027 291.554782 
L 189.837899 285.552474 
L 189.978406 287.789084 
L 190.118996 283.424484 
L 190.260898 300.71658 
L 190.402019 301.244883 
L 190.543438 300.621099 
L 190.687041 300.785566 
L 190.82822 298.896173 
L 190.971267 300.802263 
L 191.116347 299.992455 
L 191.257202 301.636211 
L 191.538584 283.164629 
L 191.679533 299.416885 
L 191.820664 292.005527 
L 192.24423 299.679692 
L 192.392081 301.323326 
L 192.533862 298.831035 
L 192.675663 301.418782 
L 192.816263 295.823549 
L 192.956917 301.810173 
L 193.099207 297.591042 
L 193.239793 298.196234 
L 193.382948 297.628409 
L 193.523876 302.345037 
L 193.664469 301.38392 
L 193.805243 298.75374 
L 193.945911 300.92498 
L 194.086578 295.459843 
L 194.228345 299.558295 
L 194.372517 299.509496 
L 194.513501 299.12999 
L 194.797374 297.619598 
L 194.938472 296.983382 
L 195.080605 299.366184 
L 195.221641 298.172185 
L 195.362436 287.21704 
L 195.502949 298.813853 
L 195.644563 294.015339 
L 195.785546 298.708581 
L 195.926365 298.358578 
L 196.067214 297.620509 
L 196.207782 288.387718 
L 196.348357 294.42411 
L 196.488936 290.69857 
L 196.630258 300.789038 
L 196.771365 298.829565 
L 196.912567 300.477501 
L 197.053841 297.567446 
L 197.336916 299.573948 
L 197.478781 300.168089 
L 197.619399 298.277642 
L 197.760092 290.557394 
L 197.901384 294.004293 
L 198.042023 294.121456 
L 198.183347 279.332022 
L 198.325005 283.408785 
L 198.466051 301.273827 
L 198.748374 290.221382 
L 198.889046 286.260258 
L 199.171709 300.601396 
L 199.312368 301.967448 
L 199.595906 299.302796 
L 199.737333 300.164332 
L 199.877836 294.757537 
L 200.01857 294.810894 
L 200.159353 289.228396 
L 200.300295 293.544416 
L 200.443235 293.488471 
L 200.726074 299.527458 
L 201.151945 295.328015 
L 201.292512 295.591871 
L 201.433397 296.833342 
L 201.855151 256.415112 
L 201.997013 256.142792 
L 202.137599 255.463233 
L 202.281086 293.151978 
L 202.422587 294.056773 
L 202.704027 270.256612 
L 202.845181 292.146795 
L 202.986519 293.912275 
L 203.127826 290.070417 
L 203.268853 297.941277 
L 203.410499 298.560428 
L 203.551393 263.101105 
L 203.693529 299.167743 
L 203.834796 298.635141 
L 203.975355 299.689405 
L 204.115927 294.439476 
L 204.539802 300.44772 
L 204.680886 292.173008 
L 204.82278 299.625557 
L 205.105634 298.361573 
L 205.249911 299.584395 
L 205.390454 299.288693 
L 205.531856 296.83318 
L 205.672428 297.300257 
L 205.953578 294.948621 
L 206.097451 295.816345 
L 206.238572 300.796747 
L 206.379605 300.855391 
L 206.520298 299.204006 
L 206.661901 293.230025 
L 206.802566 296.300557 
L 206.943912 296.636105 
L 207.084957 295.106786 
L 207.367305 296.408947 
L 207.508096 297.332611 
L 207.648606 291.589789 
L 207.790349 295.834922 
L 207.931217 294.443649 
L 208.072976 297.444472 
L 208.213817 295.029866 
L 208.355633 296.370924 
L 208.496254 300.232335 
L 208.638018 299.185211 
L 208.77865 292.780696 
L 209.061538 297.172269 
L 209.344953 299.508515 
L 209.485533 298.538715 
L 209.76933 298.410911 
L 209.910157 297.331084 
L 210.05073 299.172739 
L 210.194696 291.532781 
L 210.335216 297.277642 
L 210.477344 297.580819 
L 210.618282 297.387194 
L 210.758886 294.825601 
L 210.899403 284.785454 
L 211.040002 295.298347 
L 211.181477 291.320184 
L 211.322001 294.926864 
L 211.462685 294.840704 
L 211.606128 286.147017 
L 211.747484 299.012259 
L 212.030099 296.352844 
L 212.170689 291.167806 
L 212.311805 293.271473 
L 212.453096 298.437318 
L 212.734624 263.300757 
L 212.877525 295.747991 
L 213.018168 293.765095 
L 213.158948 293.796034 
L 213.300004 288.469089 
L 213.442506 300.94994 
L 213.583211 297.896723 
L 213.723773 298.061375 
L 213.865515 294.312549 
L 214.006111 298.313781 
L 214.147058 296.743003 
L 214.429883 302.789741 
L 214.570457 298.42465 
L 214.711193 302.046068 
L 214.855534 300.212213 
L 214.996167 300.06214 
L 215.1383 300.086352 
L 215.278932 290.58206 
L 215.424653 299.413576 
L 215.56711 292.787665 
L 215.708323 293.441285 
L 215.98976 300.118638 
L 216.135352 297.780047 
L 216.277497 299.439159 
L 216.418188 292.915045 
L 216.559093 295.715365 
L 216.700651 294.86584 
L 216.844034 296.586346 
L 216.985873 296.475671 
L 217.127878 297.852267 
L 217.26926 300.443431 
L 217.550431 284.535098 
L 217.693269 294.801936 
L 217.833818 292.510284 
L 217.97467 293.483135 
L 218.115818 295.849467 
L 218.256339 291.821946 
L 218.396854 298.118661 
L 218.540037 292.703217 
L 218.683531 299.151928 
L 218.973394 294.034245 
L 219.114638 287.195029 
L 219.255291 290.026073 
L 219.396072 297.635696 
L 219.536659 293.482743 
L 219.678062 299.444105 
L 219.820042 298.089889 
L 219.964282 300.815301 
L 220.106198 297.561509 
L 220.246873 300.52821 
L 220.388895 292.694551 
L 220.670126 296.940547 
L 220.810686 296.600841 
L 220.952986 298.724674 
L 221.095017 297.919503 
L 221.236828 299.480165 
L 221.519914 293.49677 
L 221.8022 300.860172 
L 221.94342 297.908192 
L 222.085801 298.969893 
L 222.232906 297.081908 
L 222.514648 289.166338 
L 222.655201 290.056705 
L 222.796091 290.003765 
L 223.077623 302.212242 
L 223.359098 288.540348 
L 223.503303 293.950597 
L 223.644502 295.014784 
L 223.931704 299.332921 
L 224.072809 292.343843 
L 224.213688 298.136766 
L 224.49656 299.312823 
L 224.643972 295.446234 
L 224.93187 298.54457 
L 225.0734 298.325911 
L 225.356353 296.249264 
L 225.498276 299.897481 
L 225.64446 300.316163 
L 225.788185 300.235223 
L 225.932332 301.731805 
L 226.075591 301.300944 
L 226.358766 297.144202 
L 226.64784 299.855377 
L 226.788398 295.979471 
L 226.928992 296.764302 
L 227.069534 300.763853 
L 227.211981 298.554221 
L 227.357407 300.754895 
L 227.497929 299.349837 
L 227.639658 299.647523 
L 227.922274 298.957593 
L 228.062981 290.733476 
L 228.204864 300.030178 
L 228.48749 296.498501 
L 228.630394 299.439352 
L 228.771141 299.144507 
L 228.911928 295.156208 
L 229.054389 295.297704 
L 229.195631 296.70082 
L 229.33628 299.733528 
L 229.476968 298.08852 
L 229.620653 298.124439 
L 229.901877 291.798413 
L 230.043955 297.780441 
L 230.185153 296.407287 
L 230.467298 290.773347 
L 230.60836 291.092852 
L 230.749119 299.952371 
L 231.031036 285.527326 
L 231.171807 293.573049 
L 231.312472 247.889778 
L 231.453223 294.091134 
L 231.594881 298.578328 
L 231.736594 298.27567 
L 231.878291 299.862126 
L 232.019685 297.018818 
L 232.300884 298.943482 
L 232.58242 293.315747 
L 232.724287 294.769824 
L 232.865331 294.192574 
L 233.006148 289.15458 
L 233.148327 298.783085 
L 233.288973 300.698787 
L 233.429841 298.831326 
L 233.571647 299.638035 
L 233.712327 297.576701 
L 233.85479 299.995203 
L 234.13709 299.377438 
L 234.278634 295.603797 
L 234.41915 285.102053 
L 234.560286 292.272398 
L 234.70112 291.082066 
L 234.84164 281.395118 
L 234.982405 258.128221 
L 235.125598 256.560753 
L 235.268207 293.237468 
L 235.409836 278.182232 
L 235.551584 290.827893 
L 235.692597 266.611373 
L 236.116878 296.37727 
L 236.257558 291.93071 
L 236.399717 295.620945 
L 236.540745 295.644475 
L 236.68138 295.195806 
L 236.822449 297.234197 
L 236.963763 294.177226 
L 237.105407 295.727833 
L 237.246296 291.648309 
L 237.52875 294.014503 
L 237.669417 292.234634 
L 237.811077 288.82326 
L 238.093701 299.179293 
L 238.234431 293.110424 
L 238.375148 296.395092 
L 238.517097 292.649859 
L 238.658155 293.773142 
L 238.798887 293.757031 
L 238.939732 290.393089 
L 239.080902 293.792692 
L 239.222509 293.892659 
L 239.363149 297.462347 
L 239.50412 292.823133 
L 239.64579 298.382545 
L 239.786335 296.338756 
L 239.932196 290.720433 
L 240.072782 273.652908 
L 240.214801 295.98304 
L 240.496392 284.734099 
L 240.638181 285.666575 
L 240.779076 291.505536 
L 240.919645 291.381194 
L 241.060523 289.602213 
L 241.20362 293.991433 
L 241.34421 290.650412 
L 241.485712 293.729589 
L 241.626394 285.943282 
L 241.767251 288.290668 
L 242.049269 278.561612 
L 242.189801 287.438577 
L 242.330692 285.840851 
L 242.472199 290.703356 
L 242.612804 290.257812 
L 242.894488 297.489645 
L 243.03851 295.918831 
L 243.603759 280.461036 
L 243.744366 289.804492 
L 244.30832 271.35986 
L 244.448837 281.54766 
L 244.589494 280.92328 
L 244.730244 280.869168 
L 245.012646 297.181129 
L 245.153519 294.612308 
L 245.295543 298.038932 
L 245.580509 292.547067 
L 245.721144 289.527389 
L 245.863093 290.484193 
L 246.004223 298.813664 
L 246.144958 281.059061 
L 246.285778 298.78548 
L 246.426413 293.926467 
L 246.567924 293.490271 
L 246.850917 297.688788 
L 246.991542 294.999934 
L 247.133775 294.610469 
L 247.274845 292.133593 
L 247.41595 292.060013 
L 247.698573 285.343761 
L 247.839331 292.927681 
L 248.262774 278.120543 
L 248.544869 295.008365 
L 248.686606 287.984529 
L 248.829102 292.155163 
L 248.970879 286.701942 
L 249.113773 268.141429 
L 249.396723 299.611549 
L 249.540298 296.156907 
L 249.681066 295.642761 
L 249.824591 285.663704 
L 249.965684 298.115685 
L 250.10627 300.420553 
L 250.247094 291.574893 
L 250.388076 299.372557 
L 250.530087 300.370294 
L 250.671144 296.155661 
L 250.811664 298.551022 
L 251.092723 270.289285 
L 251.373834 302.286752 
L 251.514915 291.835917 
L 251.655446 299.583425 
L 251.798606 294.690718 
L 251.940009 294.101496 
L 252.080621 301.940441 
L 252.361969 298.298171 
L 252.502656 297.11849 
L 252.643298 301.357625 
L 252.784256 296.080298 
L 252.924762 296.315959 
L 253.065597 295.380255 
L 253.347767 284.490818 
L 253.631234 299.606885 
L 253.91663 293.872015 
L 254.057479 293.803923 
L 254.198351 293.222133 
L 254.339988 296.557483 
L 254.480783 302.595959 
L 254.767418 295.290857 
L 254.907933 288.112512 
L 255.050296 287.295759 
L 255.191257 285.489723 
L 255.331761 286.90459 
L 255.47233 298.764259 
L 255.613618 297.396224 
L 255.755985 298.868726 
L 256.037646 288.376084 
L 256.178812 300.855354 
L 256.319657 298.459229 
L 256.460292 294.078322 
L 256.601583 298.58968 
L 256.744684 296.168621 
L 257.027601 299.574175 
L 257.168701 294.111111 
L 257.314406 301.828387 
L 257.454999 298.250335 
L 257.740049 302.23927 
L 258.021413 293.688342 
L 258.162008 300.82048 
L 258.304656 300.76103 
L 258.445172 302.473907 
L 258.731135 290.422649 
L 258.871778 301.022151 
L 259.153024 284.451491 
L 259.293536 290.240761 
L 259.434083 260.654832 
L 259.575054 299.65615 
L 259.856508 279.945944 
L 259.997224 281.401116 
L 260.13805 287.041908 
L 260.278596 287.25028 
L 260.560851 296.197219 
L 260.702866 282.673155 
L 260.843576 281.869663 
L 260.985236 264.927215 
L 261.125864 273.232371 
L 261.266449 273.912763 
L 261.407845 272.832822 
L 261.548903 279.36403 
L 261.68943 267.182875 
L 261.83049 269.648677 
L 262.111611 292.677212 
L 262.252854 286.338444 
L 262.397514 288.558797 
L 262.538118 299.956552 
L 262.678785 297.314543 
L 262.820286 297.410525 
L 262.963706 298.092007 
L 263.245683 304.047023 
L 263.391258 303.815525 
L 263.672742 302.031086 
L 263.814885 304.425712 
L 263.958934 302.649097 
L 264.099852 302.962476 
L 264.241417 301.294519 
L 264.389702 302.345122 
L 264.530396 301.2474 
L 264.679562 295.274653 
L 264.820255 302.2404 
L 265.101634 289.645701 
L 265.242967 300.83277 
L 265.384539 302.778013 
L 265.525108 299.096997 
L 265.666043 298.884833 
L 265.807906 303.508533 
L 265.948434 301.866821 
L 266.090936 304.299232 
L 266.373997 295.395434 
L 266.514654 299.161082 
L 266.655256 295.862197 
L 266.802205 296.863443 
L 266.944395 296.339276 
L 267.084911 298.105127 
L 267.373259 289.148273 
L 267.515317 293.289141 
L 267.657251 287.760396 
L 268.079832 295.182766 
L 268.22769 300.113208 
L 268.36924 297.930061 
L 268.510209 292.777389 
L 268.652382 296.63188 
L 268.793636 297.229409 
L 268.934521 296.971227 
L 269.216007 286.302221 
L 269.356517 290.455678 
L 269.49707 287.242434 
L 269.638155 287.566416 
L 269.921 298.375869 
L 270.061514 295.292951 
L 270.203707 299.207514 
L 270.344459 297.781925 
L 270.48499 294.608676 
L 270.625756 287.870224 
L 270.907869 296.829689 
L 271.048375 293.095591 
L 271.189777 292.829159 
L 271.330743 289.824765 
L 271.471524 295.880498 
L 271.900091 288.56976 
L 272.041254 294.83155 
L 272.182497 292.202718 
L 272.327691 295.321809 
L 272.468533 285.462162 
L 272.610081 288.483301 
L 272.751247 279.986011 
L 272.892386 285.054218 
L 273.032942 296.881053 
L 273.173542 294.009552 
L 273.314154 298.984938 
L 273.454719 296.120618 
L 273.881091 301.82613 
L 274.021849 296.42391 
L 274.306111 301.822565 
L 274.589137 300.021237 
L 274.733231 297.079826 
L 274.875151 298.045339 
L 275.161247 302.016548 
L 275.303353 302.075699 
L 275.447716 298.298924 
L 275.731534 302.382071 
L 275.877306 297.877397 
L 276.018129 300.309946 
L 276.158693 287.012917 
L 276.44086 299.084573 
L 276.582282 300.383224 
L 276.723341 299.978538 
L 276.866352 296.042828 
L 277.006992 300.86368 
L 277.148082 295.368272 
L 277.290348 300.345627 
L 277.430891 296.347709 
L 277.575976 299.382845 
L 277.71944 299.862085 
L 277.864221 297.973141 
L 278.004891 288.766929 
L 278.145402 237.290973 
L 278.286139 231.272544 
L 278.4317 296.867487 
L 278.573539 303.136257 
L 278.715209 304.456129 
L 278.856036 302.641329 
L 278.998281 303.94917 
L 279.138899 301.51304 
L 279.280596 302.954244 
L 279.421593 303.010711 
L 279.564872 300.378554 
L 279.705744 300.111275 
L 279.847662 296.40833 
L 279.988309 296.712229 
L 280.12915 293.132025 
L 280.418206 300.894536 
L 280.559265 299.263405 
L 280.841766 305.8021 
L 280.98444 298.968095 
L 281.125919 297.809603 
L 281.267073 303.171642 
L 281.549867 298.78198 
L 281.690792 301.137791 
L 281.978015 299.214304 
L 282.120196 299.883302 
L 282.261726 289.064127 
L 282.407597 297.108014 
L 282.54819 296.180125 
L 282.689021 244.779309 
L 283.11841 305.040383 
L 283.409909 302.466921 
L 283.552228 305.395464 
L 283.987885 302.52893 
L 284.128663 296.200282 
L 284.281695 305.020536 
L 284.423236 302.875313 
L 284.563739 286.320008 
L 284.704322 255.482076 
L 284.985543 251.295369 
L 285.128274 258.742814 
L 285.2691 297.857501 
L 285.410267 303.029757 
L 285.551395 298.132393 
L 285.69198 298.325054 
L 285.841009 302.870558 
L 285.988705 296.751407 
L 286.129392 303.576455 
L 286.270607 293.534885 
L 286.412647 302.863063 
L 286.55409 302.887501 
L 286.842436 304.236565 
L 287.265053 279.387945 
L 287.406131 281.136924 
L 287.547291 270.105309 
L 287.687885 284.730354 
L 287.970154 281.121892 
L 288.252011 293.12745 
L 288.6742 285.050772 
L 288.81486 285.639412 
L 288.955516 280.012829 
L 289.096094 284.419477 
L 289.380118 303.619138 
L 289.525861 303.471168 
L 289.666531 305.317821 
L 289.811899 295.56073 
L 289.953023 303.27913 
L 290.093542 301.40438 
L 290.248459 303.661616 
L 290.389637 302.217393 
L 290.533224 303.30814 
L 290.675566 303.039282 
L 290.819584 299.200173 
L 290.960095 283.782402 
L 291.100729 284.251795 
L 291.241234 300.767899 
L 291.527957 303.487233 
L 291.668481 294.004862 
L 291.809111 303.871136 
L 291.952773 305.283001 
L 292.383153 301.231517 
L 292.525009 302.719326 
L 292.665707 299.350181 
L 292.808098 292.233694 
L 293.093372 302.233208 
L 293.23513 298.81764 
L 293.378592 302.161759 
L 293.519735 301.154272 
L 293.662642 303.793738 
L 293.803729 302.206506 
L 293.944322 304.73386 
L 294.084854 299.16076 
L 294.226288 300.184533 
L 294.370837 298.293142 
L 294.51623 303.125123 
L 294.802093 300.520439 
L 294.942631 305.577123 
L 295.083685 301.908399 
L 295.224691 303.210048 
L 295.366526 302.591362 
L 295.507992 304.593917 
L 295.661026 303.654555 
L 295.954783 303.327923 
L 296.09591 300.539372 
L 296.2375 302.257642 
L 296.380003 302.058707 
L 296.524328 303.11594 
L 296.806357 297.906237 
L 296.948367 296.67234 
L 297.09009 301.215825 
L 297.230674 299.809932 
L 297.375178 304.199323 
L 297.519296 304.261702 
L 297.661185 304.0822 
L 297.802581 302.641113 
L 297.944738 304.569298 
L 298.227225 295.426274 
L 298.368454 299.805035 
L 298.509142 294.521539 
L 298.651134 302.639619 
L 298.79225 301.571767 
L 298.932793 299.284025 
L 299.07775 301.924662 
L 299.218674 298.043429 
L 299.360097 297.924455 
L 299.502585 297.326395 
L 299.783924 301.108103 
L 300.069449 291.598812 
L 300.210122 299.997934 
L 300.350696 300.369115 
L 300.634991 303.623195 
L 300.775876 297.096761 
L 300.916707 302.998237 
L 301.058618 299.650825 
L 301.348002 303.309126 
L 301.488544 298.84668 
L 301.630462 298.998433 
L 301.771588 295.571136 
L 301.912157 302.53233 
L 302.052907 302.525999 
L 302.193438 300.653966 
L 302.334224 300.588006 
L 302.477974 300.094036 
L 302.765075 301.154439 
L 302.90785 299.247701 
L 303.048791 291.59185 
L 303.332103 298.167909 
L 303.476534 293.388656 
L 303.758009 299.963727 
L 303.898585 294.455563 
L 304.039405 295.65804 
L 304.181511 299.94637 
L 304.463824 298.688546 
L 304.604539 289.328121 
L 304.745068 288.078395 
L 305.026248 303.56015 
L 305.170444 300.517575 
L 305.313698 302.629336 
L 305.596813 299.211651 
L 305.737322 295.769144 
L 306.020002 300.125563 
L 306.165995 298.943873 
L 306.307598 296.859446 
L 306.594695 302.955457 
L 307.018718 298.882011 
L 307.159589 299.775666 
L 307.300262 297.910923 
L 307.455711 303.922355 
L 307.597398 299.736632 
L 307.738288 292.04321 
L 307.884743 298.065488 
L 308.025306 286.718451 
L 308.30832 299.857098 
L 308.590799 300.788366 
L 308.736753 294.337642 
L 309.018487 297.508725 
L 309.305123 299.02695 
L 309.445688 297.556661 
L 309.59654 300.731013 
L 309.737083 297.64771 
L 310.018978 299.519915 
L 310.159549 288.435035 
L 310.301197 262.271448 
L 310.445657 287.948295 
L 310.727149 292.02611 
L 310.869873 302.59176 
L 311.016024 300.061274 
L 311.159912 286.49224 
L 311.300879 297.084207 
L 311.441398 292.525795 
L 311.582047 295.281212 
L 311.722558 302.665262 
L 312.003896 288.658114 
L 312.144576 295.930413 
L 312.285714 284.093828 
L 312.426427 295.104684 
L 312.570529 294.847785 
L 312.711888 295.293793 
L 312.852671 297.466166 
L 312.993989 291.922777 
L 313.134516 302.364091 
L 313.275336 304.078772 
L 313.557597 300.267674 
L 313.846541 295.512482 
L 313.987639 299.394304 
L 314.131175 294.664524 
L 314.271683 296.478621 
L 314.413629 294.071083 
L 314.554193 295.508901 
L 314.703032 288.466202 
L 314.844143 289.379044 
L 314.985485 287.008472 
L 315.126109 286.836486 
L 315.267185 300.096791 
L 315.408642 300.945616 
L 315.549954 297.72133 
L 315.692728 297.587607 
L 315.833252 295.598304 
L 315.97523 299.141588 
L 316.256882 288.770348 
L 316.398286 294.86686 
L 316.539615 290.333468 
L 316.683487 293.399375 
L 316.827034 288.916393 
L 316.969288 289.629568 
L 317.251453 301.304993 
L 317.395525 299.076299 
L 317.536132 300.496623 
L 317.677757 298.479459 
L 317.81837 299.878982 
L 317.95968 296.386459 
L 318.101035 302.701776 
L 318.242568 303.500168 
L 318.383221 299.410352 
L 318.664621 299.120789 
L 318.805181 299.406042 
L 318.947285 303.679265 
L 319.087809 303.247488 
L 319.230942 303.991383 
L 319.374814 303.139165 
L 319.515448 300.504124 
L 319.666284 288.158205 
L 319.808406 302.671461 
L 320.105486 300.829639 
L 320.248036 301.237319 
L 320.394565 301.18702 
L 320.545654 302.257905 
L 320.689593 302.047569 
L 320.972233 303.657747 
L 321.115255 303.254024 
L 321.257807 299.848644 
L 321.399128 299.563468 
L 321.539681 301.895925 
L 321.680664 294.452971 
L 321.82298 296.675246 
L 321.969324 293.920845 
L 322.110157 300.583288 
L 322.25161 300.597419 
L 322.40604 303.493332 
L 322.829665 295.60539 
L 322.972413 299.964804 
L 323.113531 297.985991 
L 323.254347 300.511616 
L 323.395008 300.87699 
L 323.535573 298.093562 
L 323.676196 298.585468 
L 323.957482 259.853243 
L 324.09812 287.43251 
L 324.239412 282.652989 
L 324.526479 300.35219 
L 324.811214 292.546289 
L 324.953642 297.185719 
L 325.094295 297.72684 
L 325.238411 301.852543 
L 325.52618 284.83357 
L 325.809155 297.050803 
L 325.94996 293.794188 
L 326.092601 297.394403 
L 326.233691 293.402945 
L 326.658182 300.1851 
L 326.798884 299.543231 
L 327.221496 285.902511 
L 327.362155 278.258617 
L 327.503147 283.427855 
L 327.644111 275.587649 
L 328.066698 286.672536 
L 328.207243 280.74642 
L 328.348295 284.387693 
L 328.491984 283.911671 
L 328.632564 288.254575 
L 328.7745 288.406125 
L 328.920066 293.517066 
L 329.060811 290.520107 
L 329.20142 283.403384 
L 329.342701 286.906392 
L 329.483382 293.328545 
L 329.764735 292.294291 
L 329.906079 292.620656 
L 330.047385 290.807205 
L 330.188804 294.207455 
L 330.33141 287.26393 
L 330.47618 297.259105 
L 330.620717 298.653189 
L 330.764075 294.093946 
L 330.906023 298.841546 
L 331.051699 296.900961 
L 331.335284 300.31278 
L 331.476148 300.033335 
L 331.762831 298.872319 
L 331.903346 297.114318 
L 332.474444 303.32434 
L 332.615343 298.772982 
L 332.7566 299.389979 
L 333.038197 301.077858 
L 333.178753 296.377065 
L 333.319888 298.461099 
L 333.460564 298.211901 
L 333.601069 271.186959 
L 333.742568 297.572137 
L 334.027169 299.147339 
L 334.167905 295.822709 
L 334.308612 298.118365 
L 334.449438 295.496266 
L 334.589948 295.957322 
L 334.731097 299.524492 
L 335.012716 301.220788 
L 335.159862 298.503029 
L 335.301436 301.692357 
L 335.723801 288.363359 
L 335.864359 262.504109 
L 336.005186 284.758211 
L 336.146976 288.931096 
L 336.288039 289.198095 
L 336.428806 283.396303 
L 336.569387 284.46174 
L 336.710314 287.646623 
L 336.850832 281.729878 
L 336.992332 297.481049 
L 337.273449 293.437067 
L 337.414006 252.63504 
L 337.555974 258.71885 
L 337.698218 289.296966 
L 337.839691 282.242817 
L 338.120757 286.61875 
L 338.261309 302.094831 
L 338.40274 300.463326 
L 338.546159 302.999574 
L 338.831274 300.595196 
L 339.114219 302.848106 
L 339.254926 301.655519 
L 339.398846 303.253286 
L 339.680271 301.596803 
L 339.822551 293.339647 
L 339.963155 301.848874 
L 340.104105 293.376127 
L 340.249654 299.443674 
L 340.390382 299.642918 
L 340.671918 296.611098 
L 340.815127 305.268627 
L 340.957737 302.741329 
L 341.098417 305.341501 
L 341.246508 302.966211 
L 341.390249 303.573039 
L 341.530761 303.103342 
L 341.671545 300.795822 
L 341.812267 305.56522 
L 341.955051 303.538836 
L 342.097741 303.50678 
L 342.381073 301.445608 
L 342.52262 302.792807 
L 342.663346 300.580678 
L 342.804952 292.676943 
L 342.946113 293.808439 
L 343.08756 295.981986 
L 343.511402 286.472315 
L 343.654249 283.894148 
L 343.794859 286.308972 
L 343.935397 285.68893 
L 344.076051 286.90026 
L 344.216941 280.458212 
L 344.357715 287.762725 
L 344.498284 288.776318 
L 344.639422 291.211464 
L 344.780167 287.461443 
L 344.920673 287.954958 
L 345.062531 260.462175 
L 345.348236 300.108913 
L 345.48917 294.972548 
L 345.630273 301.014136 
L 345.776837 293.685731 
L 345.918404 280.413543 
L 346.059575 282.818043 
L 346.200242 273.191349 
L 346.341138 285.478913 
L 346.481748 277.797946 
L 346.623948 287.004301 
L 346.768558 285.843967 
L 346.910324 292.600153 
L 347.192364 287.398628 
L 347.333567 284.57744 
L 347.475077 287.224756 
L 347.756185 281.017596 
L 347.896738 272.632443 
L 348.321453 284.112825 
L 348.462257 278.640389 
L 348.602773 256.12074 
L 348.884833 285.899242 
L 349.029393 288.20186 
L 349.170372 285.199058 
L 349.312006 288.60778 
L 350.01626 273.452899 
L 350.44702 286.636139 
L 350.590502 286.836133 
L 350.873039 282.889404 
L 351.014262 287.246322 
L 351.155298 287.165708 
L 351.296631 286.550901 
L 351.578226 290.183178 
L 351.860649 283.669433 
L 352.003141 284.081886 
L 352.148287 284.948847 
L 352.288935 281.099827 
L 352.429628 285.767335 
L 352.570657 284.00451 
L 352.711977 279.331651 
L 353.136357 300.507851 
L 353.419824 295.63211 
L 353.560554 298.062311 
L 353.701725 297.700333 
L 354.135944 277.277284 
L 354.276471 259.188015 
L 354.559422 279.619091 
L 354.702063 278.757249 
L 354.986474 288.949744 
L 355.126998 289.06241 
L 355.692086 276.218764 
L 355.832699 275.189021 
L 355.973206 275.336697 
L 356.254405 259.79421 
L 356.394914 262.131428 
L 356.679048 282.351596 
L 356.822674 282.185324 
L 356.963192 279.49847 
L 357.103786 260.705878 
L 357.389689 298.470704 
L 357.532346 299.490154 
L 357.815752 297.195199 
L 357.959436 284.431689 
L 358.103261 300.178247 
L 358.246952 285.027921 
L 358.387637 287.10297 
L 358.528152 295.144743 
L 358.668922 282.976105 
L 358.809451 260.269616 
L 358.949979 269.69195 
L 359.231389 260.695061 
L 359.371903 271.64192 
L 359.512782 271.502736 
L 359.653305 273.291599 
L 359.934785 264.285019 
L 360.216411 273.455361 
L 360.358045 275.276511 
L 360.498733 291.872984 
L 360.641221 289.142226 
L 360.781777 297.610382 
L 361.062909 286.647701 
L 361.346603 291.808164 
L 361.631379 279.715298 
L 361.913974 292.847318 
L 362.057272 292.974894 
L 362.20053 292.163703 
L 362.341266 283.61253 
L 362.481936 289.650459 
L 362.622499 287.51965 
L 362.763353 294.11878 
L 362.903863 291.087868 
L 363.044399 294.352632 
L 363.184965 290.265545 
L 363.325906 291.057395 
L 363.46666 295.690073 
L 363.749377 288.161798 
L 363.890066 288.619994 
L 364.031096 289.508358 
L 364.313523 299.222008 
L 364.454439 297.992184 
L 364.738768 299.819912 
L 365.020135 296.652138 
L 365.301408 302.014342 
L 365.582519 297.946825 
L 365.723053 299.400767 
L 365.865614 298.261489 
L 366.006472 301.36908 
L 366.147847 300.847495 
L 366.289261 299.16719 
L 366.429906 299.555622 
L 366.573993 297.537032 
L 366.714626 297.699972 
L 366.855328 298.612666 
L 366.995995 296.228342 
L 367.137283 301.091001 
L 367.277929 301.157901 
L 367.419328 295.502166 
L 367.559929 298.485901 
L 367.700817 292.345459 
L 367.844543 298.912807 
L 367.985109 299.067334 
L 368.12754 296.707368 
L 368.269313 297.012011 
L 368.411339 301.593302 
L 368.551861 301.796491 
L 368.692395 297.966235 
L 368.832972 283.797573 
L 368.975776 284.204997 
L 369.26615 301.391246 
L 369.406728 293.356969 
L 369.547494 293.64882 
L 369.688062 287.21714 
L 370.110416 299.319642 
L 370.391792 291.763053 
L 370.541239 301.879274 
L 370.681854 298.496954 
L 370.823015 299.78979 
L 370.965103 297.639013 
L 371.105988 302.013654 
L 371.388657 277.337257 
L 371.670581 286.400942 
L 371.812244 271.48233 
L 371.953093 296.590559 
L 372.234233 283.490564 
L 372.374876 281.067663 
L 372.517481 283.059372 
L 372.658034 290.905993 
L 372.798969 273.635328 
L 372.942056 291.015462 
L 373.083122 292.113786 
L 373.223911 296.797275 
L 373.36448 290.018858 
L 373.505126 289.09622 
L 373.786353 276.891359 
L 374.071149 295.019007 
L 374.211778 294.701118 
L 374.354332 295.881328 
L 374.502434 302.280301 
L 374.643134 302.766052 
L 374.784791 297.377894 
L 374.926012 298.500907 
L 375.066834 298.398803 
L 375.207839 297.771723 
L 375.49057 300.360656 
L 375.631302 298.412122 
L 375.912724 278.499414 
L 376.196416 289.334852 
L 376.477824 279.581142 
L 376.618725 298.720027 
L 376.759441 294.241222 
L 377.042371 295.029722 
L 377.183847 292.99863 
L 377.324353 284.282168 
L 377.465037 286.391944 
L 377.605881 286.214794 
L 377.746566 290.284167 
L 377.88707 289.737171 
L 378.02768 283.295997 
L 378.168182 283.384195 
L 378.308815 291.294525 
L 378.449773 285.8352 
L 378.731116 301.920793 
L 378.873817 299.895297 
L 379.014401 288.201655 
L 379.155639 286.495673 
L 379.296427 288.642291 
L 379.437562 288.961185 
L 379.719893 289.957386 
L 379.860541 285.474577 
L 380.001098 285.662432 
L 380.141952 286.95386 
L 380.282562 290.981026 
L 380.423094 288.596864 
L 380.564264 291.00796 
L 380.704869 286.878013 
L 380.845737 299.86623 
L 381.127907 295.127041 
L 381.26861 284.951836 
L 381.409851 289.311553 
L 381.551085 289.082461 
L 381.691722 287.276668 
L 381.832299 293.108658 
L 381.972978 285.901822 
L 382.113699 289.7911 
L 382.254409 290.388368 
L 382.39624 298.621749 
L 382.539529 297.557123 
L 382.821198 297.325909 
L 383.105128 283.367345 
L 383.386346 291.506407 
L 383.527172 291.156768 
L 383.667883 292.301082 
L 383.808822 290.726516 
L 383.950339 291.451749 
L 384.090917 290.407281 
L 384.231676 290.207258 
L 384.372638 288.681352 
L 384.513679 296.417941 
L 384.654464 295.985535 
L 384.796293 303.194946 
L 385.077831 275.669244 
L 385.218415 285.364127 
L 385.358964 281.040161 
L 385.50224 297.628974 
L 385.78398 301.633117 
L 385.924507 293.63799 
L 386.06507 296.047648 
L 386.205872 292.679377 
L 386.348385 297.456519 
L 386.771346 280.471158 
L 387.05294 284.692191 
L 387.336221 297.860364 
L 387.481542 296.801284 
L 387.6225 296.970319 
L 387.763594 300.098097 
L 387.904546 288.501131 
L 388.186692 286.147438 
L 388.327302 293.029957 
L 388.750388 279.567872 
L 388.891175 278.827399 
L 389.031682 278.923032 
L 389.172757 280.701129 
L 389.313637 279.306295 
L 389.454487 282.150698 
L 389.594998 300.486323 
L 389.735662 290.637002 
L 390.158735 299.53768 
L 390.299315 288.854253 
L 390.440848 297.517888 
L 390.581658 281.733499 
L 390.722443 296.81924 
L 390.863584 296.005853 
L 391.004641 299.790662 
L 391.146792 295.403042 
L 391.287302 301.212504 
L 391.427869 300.333444 
L 391.568754 302.076354 
L 391.709314 297.997827 
L 391.850333 297.523862 
L 391.991092 296.326342 
L 392.13171 249.982804 
L 392.272453 297.213402 
L 392.413034 295.879851 
L 392.554037 295.658923 
L 392.694853 294.700388 
L 392.836287 295.115236 
L 392.978101 303.904724 
L 393.25975 284.379305 
L 393.400521 288.3643 
L 393.682051 279.680169 
L 393.822634 280.691369 
L 393.96329 268.153174 
L 394.244339 284.16213 
L 394.385035 284.124991 
L 394.527381 281.964155 
L 394.817729 296.244382 
L 394.958279 292.221628 
L 395.09917 282.149954 
L 395.239822 284.89455 
L 395.380397 269.379502 
L 395.662029 277.279403 
L 395.943491 280.47216 
L 396.084749 287.193557 
L 396.226397 286.315965 
L 396.367955 289.793784 
L 396.508571 287.77814 
L 396.931525 292.206407 
L 397.07283 290.247986 
L 397.354578 301.708328 
L 397.495245 277.282463 
L 397.635789 275.856284 
L 397.776641 295.265928 
L 398.058854 299.576101 
L 398.202484 290.814438 
L 398.345995 290.670024 
L 398.487273 291.68817 
L 398.487273 291.68817 
" clip-path="url(#p287ace3467)" style="fill: none; stroke: #1f77b4; stroke-width: 1.5; stroke-linecap: square"/>
   </g>
   <g id="patch_3">
    <path d="M 57.6 307.584 
L 57.6 41.472 
" style="fill: none; stroke: #000000; stroke-width: 0.8; stroke-linejoin: miter; stroke-linecap: square"/>
   </g>
   <g id="patch_4">
    <path d="M 414.72 307.584 
L 414.72 41.472 
" style="fill: none; stroke: #000000; stroke-width: 0.8; stroke-linejoin: miter; stroke-linecap: square"/>
   </g>
   <g id="patch_5">
    <path d="M 57.6 307.584 
L 414.72 307.584 
" style="fill: none; stroke: #000000; stroke-width: 0.8; stroke-linejoin: miter; stroke-linecap: square"/>
   </g>
   <g id="patch_6">
    <path d="M 57.6 41.472 
L 414.72 41.472 
" style="fill: none; stroke: #000000; stroke-width: 0.8; stroke-linejoin: miter; stroke-linecap: square"/>
   </g>
   <g id="text_15">
    <!-- pt7 link speed per 100ms -->
    <g transform="translate(159.425625 35.472)scale(0.12 -0.12)">
     <defs>
      <path id="DejaVuSans-37" d="M 525 4666 
L 3525 4666 
L 3525 4397 
L 1831 0 
L 1172 0 
L 2766 4134 
L 525 4134 
L 525 4666 
z
" transform="scale(0.015625)"/>
      <path id="DejaVuSans-20" transform="scale(0.015625)"/>
      <path id="DejaVuSans-6c" d="M 603 4863 
L 1178 4863 
L 1178 0 
L 603 0 
L 603 4863 
z
" transform="scale(0.015625)"/>
      <path id="DejaVuSans-6e" d="M 3513 2113 
L 3513 0 
L 2938 0 
L 2938 2094 
Q 2938 2591 2744 2837 
Q 2550 3084 2163 3084 
Q 1697 3084 1428 2787 
Q 1159 2491 1159 1978 
L 1159 0 
L 581 0 
L 581 3500 
L 1159 3500 
L 1159 2956 
Q 1366 3272 1645 3428 
Q 1925 3584 2291 3584 
Q 2894 3584 3203 3211 
Q 3513 2838 3513 2113 
z
" transform="scale(0.015625)"/>
      <path id="DejaVuSans-6b" d="M 581 4863 
L 1159 4863 
L 1159 1991 
L 2875 3500 
L 3609 3500 
L 1753 1863 
L 3688 0 
L 2938 0 
L 1159 1709 
L 1159 0 
L 581 0 
L 581 4863 
z
" transform="scale(0.015625)"/>
      <path id="DejaVuSans-64" d="M 2906 2969 
L 2906 4863 
L 3481 4863 
L 3481 0 
L 2906 0 
L 2906 525 
Q 2725 213 2448 61 
Q 2172 -91 1784 -91 
Q 1150 -91 751 415 
Q 353 922 353 1747 
Q 353 2572 751 3078 
Q 1150 3584 1784 3584 
Q 2172 3584 2448 3432 
Q 2725 3281 2906 2969 
z
M 947 1747 
Q 947 1113 1208 752 
Q 1469 391 1925 391 
Q 2381 391 2643 752 
Q 2906 1113 2906 1747 
Q 2906 2381 2643 2742 
Q 2381 3103 1925 3103 
Q 1469 3103 1208 2742 
Q 947 2381 947 1747 
z
" transform="scale(0.015625)"/>
      <path id="DejaVuSans-72" d="M 2631 2963 
Q 2534 3019 2420 3045 
Q 2306 3072 2169 3072 
Q 1681 3072 1420 2755 
Q 1159 2438 1159 1844 
L 1159 0 
L 581 0 
L 581 3500 
L 1159 3500 
L 1159 2956 
Q 1341 3275 1631 3429 
Q 1922 3584 2338 3584 
Q 2397 3584 2469 3576 
Q 2541 3569 2628 3553 
L 2631 2963 
z
" transform="scale(0.015625)"/>
     </defs>
     <use xlink:href="#DejaVuSans-70"/>
     <use xlink:href="#DejaVuSans-74" x="63.476562"/>
     <use xlink:href="#DejaVuSans-37" x="102.685547"/>
     <use xlink:href="#DejaVuSans-20" x="166.308594"/>
     <use xlink:href="#DejaVuSans-6c" x="198.095703"/>
     <use xlink:href="#DejaVuSans-69" x="225.878906"/>
     <use xlink:href="#DejaVuSans-6e" x="253.662109"/>
     <use xlink:href="#DejaVuSans-6b" x="317.041016"/>
     <use xlink:href="#DejaVuSans-20" x="374.951172"/>
     <use xlink:href="#DejaVuSans-73" x="406.738281"/>
     <use xlink:href="#DejaVuSans-70" x="458.837891"/>
     <use xlink:href="#DejaVuSans-65" x="522.314453"/>
     <use xlink:href="#DejaVuSans-65" x="583.837891"/>
     <use xlink:href="#DejaVuSans-64" x="645.361328"/>
     <use xlink:href="#DejaVuSans-20" x="708.837891"/>
     <use xlink:href="#DejaVuSans-70" x="740.625"/>
     <use xlink:href="#DejaVuSans-65" x="804.101562"/>
     <use xlink:href="#DejaVuSans-72" x="865.625"/>
     <use xlink:href="#DejaVuSans-20" x="906.738281"/>
     <use xlink:href="#DejaVuSans-31" x="938.525391"/>
     <use xlink:href="#DejaVuSans-30" x="1002.148438"/>
     <use xlink:href="#DejaVuSans-30" x="1065.771484"/>
     <use xlink:href="#DejaVuSans-6d" x="1129.394531"/>
     <use xlink:href="#DejaVuSans-73" x="1226.806641"/>
    </g>
   </g>
  </g>
 </g>
 <defs>
  <clipPath id="p287ace3467">
   <rect x="57.6" y="41.472" width="357.12" height="266.112"/>
  </clipPath>
 </defs>
</svg>
