<?xml version="1.0" encoding="utf-8" standalone="no"?>
<!DOCTYPE svg PUBLIC "-//W3C//DTD SVG 1.1//EN"
  "http://www.w3.org/Graphics/SVG/1.1/DTD/svg11.dtd">
<svg xmlns:xlink="http://www.w3.org/1999/xlink" width="460.8pt" height="345.6pt" viewBox="0 0 460.8 345.6" xmlns="http://www.w3.org/2000/svg" version="1.1">
 <metadata>
  <rdf:RDF xmlns:dc="http://purl.org/dc/elements/1.1/" xmlns:cc="http://creativecommons.org/ns#" xmlns:rdf="http://www.w3.org/1999/02/22-rdf-syntax-ns#">
   <cc:Work>
    <dc:type rdf:resource="http://purl.org/dc/dcmitype/StillImage"/>
    <dc:date>2022-07-10T01:39:50.708962</dc:date>
    <dc:format>image/svg+xml</dc:format>
    <dc:creator>
     <cc:Agent>
      <dc:title>Matplotlib v3.5.2, https://matplotlib.org/</dc:title>
     </cc:Agent>
    </dc:creator>
   </cc:Work>
  </rdf:RDF>
 </metadata>
 <defs>
  <style type="text/css">*{stroke-linejoin: round; stroke-linecap: butt}</style>
 </defs>
 <g id="figure_1">
  <g id="patch_1">
   <path d="M 0 345.6 
L 460.8 345.6 
L 460.8 0 
L 0 0 
z
" style="fill: #ffffff"/>
  </g>
  <g id="axes_1">
   <g id="patch_2">
    <path d="M 57.6 307.584 
L 414.72 307.584 
L 414.72 41.472 
L 57.6 41.472 
z
" style="fill: #ffffff"/>
   </g>
   <g id="matplotlib.axis_1">
    <g id="xtick_1">
     <g id="line2d_1">
      <defs>
       <path id="me83c2e0fc8" d="M 0 0 
L 0 3.5 
" style="stroke: #000000; stroke-width: 0.8"/>
      </defs>
      <g>
       <use xlink:href="#me83c2e0fc8" x="73.690421" y="307.584" style="stroke: #000000; stroke-width: 0.8"/>
      </g>
     </g>
     <g id="text_1">
      <!-- 0 -->
      <g transform="translate(70.509171 322.182437)scale(0.1 -0.1)">
       <defs>
        <path id="DejaVuSans-30" d="M 2034 4250 
Q 1547 4250 1301 3770 
Q 1056 3291 1056 2328 
Q 1056 1369 1301 889 
Q 1547 409 2034 409 
Q 2525 409 2770 889 
Q 3016 1369 3016 2328 
Q 3016 3291 2770 3770 
Q 2525 4250 2034 4250 
z
M 2034 4750 
Q 2819 4750 3233 4129 
Q 3647 3509 3647 2328 
Q 3647 1150 3233 529 
Q 2819 -91 2034 -91 
Q 1250 -91 836 529 
Q 422 1150 422 2328 
Q 422 3509 836 4129 
Q 1250 4750 2034 4750 
z
" transform="scale(0.015625)"/>
       </defs>
       <use xlink:href="#DejaVuSans-30"/>
      </g>
     </g>
    </g>
    <g id="xtick_2">
     <g id="line2d_2">
      <g>
       <use xlink:href="#me83c2e0fc8" x="143.332408" y="307.584" style="stroke: #000000; stroke-width: 0.8"/>
      </g>
     </g>
     <g id="text_2">
      <!-- 50 -->
      <g transform="translate(136.969908 322.182437)scale(0.1 -0.1)">
       <defs>
        <path id="DejaVuSans-35" d="M 691 4666 
L 3169 4666 
L 3169 4134 
L 1269 4134 
L 1269 2991 
Q 1406 3038 1543 3061 
Q 1681 3084 1819 3084 
Q 2600 3084 3056 2656 
Q 3513 2228 3513 1497 
Q 3513 744 3044 326 
Q 2575 -91 1722 -91 
Q 1428 -91 1123 -41 
Q 819 9 494 109 
L 494 744 
Q 775 591 1075 516 
Q 1375 441 1709 441 
Q 2250 441 2565 725 
Q 2881 1009 2881 1497 
Q 2881 1984 2565 2268 
Q 2250 2553 1709 2553 
Q 1456 2553 1204 2497 
Q 953 2441 691 2322 
L 691 4666 
z
" transform="scale(0.015625)"/>
       </defs>
       <use xlink:href="#DejaVuSans-35"/>
       <use xlink:href="#DejaVuSans-30" x="63.623047"/>
      </g>
     </g>
    </g>
    <g id="xtick_3">
     <g id="line2d_3">
      <g>
       <use xlink:href="#me83c2e0fc8" x="212.974395" y="307.584" style="stroke: #000000; stroke-width: 0.8"/>
      </g>
     </g>
     <g id="text_3">
      <!-- 100 -->
      <g transform="translate(203.430645 322.182437)scale(0.1 -0.1)">
       <defs>
        <path id="DejaVuSans-31" d="M 794 531 
L 1825 531 
L 1825 4091 
L 703 3866 
L 703 4441 
L 1819 4666 
L 2450 4666 
L 2450 531 
L 3481 531 
L 3481 0 
L 794 0 
L 794 531 
z
" transform="scale(0.015625)"/>
       </defs>
       <use xlink:href="#DejaVuSans-31"/>
       <use xlink:href="#DejaVuSans-30" x="63.623047"/>
       <use xlink:href="#DejaVuSans-30" x="127.246094"/>
      </g>
     </g>
    </g>
    <g id="xtick_4">
     <g id="line2d_4">
      <g>
       <use xlink:href="#me83c2e0fc8" x="282.616382" y="307.584" style="stroke: #000000; stroke-width: 0.8"/>
      </g>
     </g>
     <g id="text_4">
      <!-- 150 -->
      <g transform="translate(273.072632 322.182437)scale(0.1 -0.1)">
       <use xlink:href="#DejaVuSans-31"/>
       <use xlink:href="#DejaVuSans-35" x="63.623047"/>
       <use xlink:href="#DejaVuSans-30" x="127.246094"/>
      </g>
     </g>
    </g>
    <g id="xtick_5">
     <g id="line2d_5">
      <g>
       <use xlink:href="#me83c2e0fc8" x="352.258369" y="307.584" style="stroke: #000000; stroke-width: 0.8"/>
      </g>
     </g>
     <g id="text_5">
      <!-- 200 -->
      <g transform="translate(342.714619 322.182437)scale(0.1 -0.1)">
       <defs>
        <path id="DejaVuSans-32" d="M 1228 531 
L 3431 531 
L 3431 0 
L 469 0 
L 469 531 
Q 828 903 1448 1529 
Q 2069 2156 2228 2338 
Q 2531 2678 2651 2914 
Q 2772 3150 2772 3378 
Q 2772 3750 2511 3984 
Q 2250 4219 1831 4219 
Q 1534 4219 1204 4116 
Q 875 4013 500 3803 
L 500 4441 
Q 881 4594 1212 4672 
Q 1544 4750 1819 4750 
Q 2544 4750 2975 4387 
Q 3406 4025 3406 3419 
Q 3406 3131 3298 2873 
Q 3191 2616 2906 2266 
Q 2828 2175 2409 1742 
Q 1991 1309 1228 531 
z
" transform="scale(0.015625)"/>
       </defs>
       <use xlink:href="#DejaVuSans-32"/>
       <use xlink:href="#DejaVuSans-30" x="63.623047"/>
       <use xlink:href="#DejaVuSans-30" x="127.246094"/>
      </g>
     </g>
    </g>
    <g id="text_6">
     <!-- time(s) -->
     <g transform="translate(218.357656 335.860562)scale(0.1 -0.1)">
      <defs>
       <path id="DejaVuSans-74" d="M 1172 4494 
L 1172 3500 
L 2356 3500 
L 2356 3053 
L 1172 3053 
L 1172 1153 
Q 1172 725 1289 603 
Q 1406 481 1766 481 
L 2356 481 
L 2356 0 
L 1766 0 
Q 1100 0 847 248 
Q 594 497 594 1153 
L 594 3053 
L 172 3053 
L 172 3500 
L 594 3500 
L 594 4494 
L 1172 4494 
z
" transform="scale(0.015625)"/>
       <path id="DejaVuSans-69" d="M 603 3500 
L 1178 3500 
L 1178 0 
L 603 0 
L 603 3500 
z
M 603 4863 
L 1178 4863 
L 1178 4134 
L 603 4134 
L 603 4863 
z
" transform="scale(0.015625)"/>
       <path id="DejaVuSans-6d" d="M 3328 2828 
Q 3544 3216 3844 3400 
Q 4144 3584 4550 3584 
Q 5097 3584 5394 3201 
Q 5691 2819 5691 2113 
L 5691 0 
L 5113 0 
L 5113 2094 
Q 5113 2597 4934 2840 
Q 4756 3084 4391 3084 
Q 3944 3084 3684 2787 
Q 3425 2491 3425 1978 
L 3425 0 
L 2847 0 
L 2847 2094 
Q 2847 2600 2669 2842 
Q 2491 3084 2119 3084 
Q 1678 3084 1418 2786 
Q 1159 2488 1159 1978 
L 1159 0 
L 581 0 
L 581 3500 
L 1159 3500 
L 1159 2956 
Q 1356 3278 1631 3431 
Q 1906 3584 2284 3584 
Q 2666 3584 2933 3390 
Q 3200 3197 3328 2828 
z
" transform="scale(0.015625)"/>
       <path id="DejaVuSans-65" d="M 3597 1894 
L 3597 1613 
L 953 1613 
Q 991 1019 1311 708 
Q 1631 397 2203 397 
Q 2534 397 2845 478 
Q 3156 559 3463 722 
L 3463 178 
Q 3153 47 2828 -22 
Q 2503 -91 2169 -91 
Q 1331 -91 842 396 
Q 353 884 353 1716 
Q 353 2575 817 3079 
Q 1281 3584 2069 3584 
Q 2775 3584 3186 3129 
Q 3597 2675 3597 1894 
z
M 3022 2063 
Q 3016 2534 2758 2815 
Q 2500 3097 2075 3097 
Q 1594 3097 1305 2825 
Q 1016 2553 972 2059 
L 3022 2063 
z
" transform="scale(0.015625)"/>
       <path id="DejaVuSans-28" d="M 1984 4856 
Q 1566 4138 1362 3434 
Q 1159 2731 1159 2009 
Q 1159 1288 1364 580 
Q 1569 -128 1984 -844 
L 1484 -844 
Q 1016 -109 783 600 
Q 550 1309 550 2009 
Q 550 2706 781 3412 
Q 1013 4119 1484 4856 
L 1984 4856 
z
" transform="scale(0.015625)"/>
       <path id="DejaVuSans-73" d="M 2834 3397 
L 2834 2853 
Q 2591 2978 2328 3040 
Q 2066 3103 1784 3103 
Q 1356 3103 1142 2972 
Q 928 2841 928 2578 
Q 928 2378 1081 2264 
Q 1234 2150 1697 2047 
L 1894 2003 
Q 2506 1872 2764 1633 
Q 3022 1394 3022 966 
Q 3022 478 2636 193 
Q 2250 -91 1575 -91 
Q 1294 -91 989 -36 
Q 684 19 347 128 
L 347 722 
Q 666 556 975 473 
Q 1284 391 1588 391 
Q 1994 391 2212 530 
Q 2431 669 2431 922 
Q 2431 1156 2273 1281 
Q 2116 1406 1581 1522 
L 1381 1569 
Q 847 1681 609 1914 
Q 372 2147 372 2553 
Q 372 3047 722 3315 
Q 1072 3584 1716 3584 
Q 2034 3584 2315 3537 
Q 2597 3491 2834 3397 
z
" transform="scale(0.015625)"/>
       <path id="DejaVuSans-29" d="M 513 4856 
L 1013 4856 
Q 1481 4119 1714 3412 
Q 1947 2706 1947 2009 
Q 1947 1309 1714 600 
Q 1481 -109 1013 -844 
L 513 -844 
Q 928 -128 1133 580 
Q 1338 1288 1338 2009 
Q 1338 2731 1133 3434 
Q 928 4138 513 4856 
z
" transform="scale(0.015625)"/>
      </defs>
      <use xlink:href="#DejaVuSans-74"/>
      <use xlink:href="#DejaVuSans-69" x="39.208984"/>
      <use xlink:href="#DejaVuSans-6d" x="66.992188"/>
      <use xlink:href="#DejaVuSans-65" x="164.404297"/>
      <use xlink:href="#DejaVuSans-28" x="225.927734"/>
      <use xlink:href="#DejaVuSans-73" x="264.941406"/>
      <use xlink:href="#DejaVuSans-29" x="317.041016"/>
     </g>
    </g>
   </g>
   <g id="matplotlib.axis_2">
    <g id="ytick_1">
     <g id="line2d_6">
      <defs>
       <path id="m8c58e74d32" d="M 0 0 
L -3.5 0 
" style="stroke: #000000; stroke-width: 0.8"/>
      </defs>
      <g>
       <use xlink:href="#m8c58e74d32" x="57.6" y="307.584" style="stroke: #000000; stroke-width: 0.8"/>
      </g>
     </g>
     <g id="text_7">
      <!-- 0 -->
      <g transform="translate(44.2375 311.383219)scale(0.1 -0.1)">
       <use xlink:href="#DejaVuSans-30"/>
      </g>
     </g>
    </g>
    <g id="ytick_2">
     <g id="line2d_7">
      <g>
       <use xlink:href="#m8c58e74d32" x="57.6" y="263.232" style="stroke: #000000; stroke-width: 0.8"/>
      </g>
     </g>
     <g id="text_8">
      <!-- 50 -->
      <g transform="translate(37.875 267.031219)scale(0.1 -0.1)">
       <use xlink:href="#DejaVuSans-35"/>
       <use xlink:href="#DejaVuSans-30" x="63.623047"/>
      </g>
     </g>
    </g>
    <g id="ytick_3">
     <g id="line2d_8">
      <g>
       <use xlink:href="#m8c58e74d32" x="57.6" y="218.88" style="stroke: #000000; stroke-width: 0.8"/>
      </g>
     </g>
     <g id="text_9">
      <!-- 100 -->
      <g transform="translate(31.5125 222.679219)scale(0.1 -0.1)">
       <use xlink:href="#DejaVuSans-31"/>
       <use xlink:href="#DejaVuSans-30" x="63.623047"/>
       <use xlink:href="#DejaVuSans-30" x="127.246094"/>
      </g>
     </g>
    </g>
    <g id="ytick_4">
     <g id="line2d_9">
      <g>
       <use xlink:href="#m8c58e74d32" x="57.6" y="174.528" style="stroke: #000000; stroke-width: 0.8"/>
      </g>
     </g>
     <g id="text_10">
      <!-- 150 -->
      <g transform="translate(31.5125 178.327219)scale(0.1 -0.1)">
       <use xlink:href="#DejaVuSans-31"/>
       <use xlink:href="#DejaVuSans-35" x="63.623047"/>
       <use xlink:href="#DejaVuSans-30" x="127.246094"/>
      </g>
     </g>
    </g>
    <g id="ytick_5">
     <g id="line2d_10">
      <g>
       <use xlink:href="#m8c58e74d32" x="57.6" y="130.176" style="stroke: #000000; stroke-width: 0.8"/>
      </g>
     </g>
     <g id="text_11">
      <!-- 200 -->
      <g transform="translate(31.5125 133.975219)scale(0.1 -0.1)">
       <use xlink:href="#DejaVuSans-32"/>
       <use xlink:href="#DejaVuSans-30" x="63.623047"/>
       <use xlink:href="#DejaVuSans-30" x="127.246094"/>
      </g>
     </g>
    </g>
    <g id="ytick_6">
     <g id="line2d_11">
      <g>
       <use xlink:href="#m8c58e74d32" x="57.6" y="85.824" style="stroke: #000000; stroke-width: 0.8"/>
      </g>
     </g>
     <g id="text_12">
      <!-- 250 -->
      <g transform="translate(31.5125 89.623219)scale(0.1 -0.1)">
       <use xlink:href="#DejaVuSans-32"/>
       <use xlink:href="#DejaVuSans-35" x="63.623047"/>
       <use xlink:href="#DejaVuSans-30" x="127.246094"/>
      </g>
     </g>
    </g>
    <g id="ytick_7">
     <g id="line2d_12">
      <g>
       <use xlink:href="#m8c58e74d32" x="57.6" y="41.472" style="stroke: #000000; stroke-width: 0.8"/>
      </g>
     </g>
     <g id="text_13">
      <!-- 300 -->
      <g transform="translate(31.5125 45.271219)scale(0.1 -0.1)">
       <defs>
        <path id="DejaVuSans-33" d="M 2597 2516 
Q 3050 2419 3304 2112 
Q 3559 1806 3559 1356 
Q 3559 666 3084 287 
Q 2609 -91 1734 -91 
Q 1441 -91 1130 -33 
Q 819 25 488 141 
L 488 750 
Q 750 597 1062 519 
Q 1375 441 1716 441 
Q 2309 441 2620 675 
Q 2931 909 2931 1356 
Q 2931 1769 2642 2001 
Q 2353 2234 1838 2234 
L 1294 2234 
L 1294 2753 
L 1863 2753 
Q 2328 2753 2575 2939 
Q 2822 3125 2822 3475 
Q 2822 3834 2567 4026 
Q 2313 4219 1838 4219 
Q 1578 4219 1281 4162 
Q 984 4106 628 3988 
L 628 4550 
Q 988 4650 1302 4700 
Q 1616 4750 1894 4750 
Q 2613 4750 3031 4423 
Q 3450 4097 3450 3541 
Q 3450 3153 3228 2886 
Q 3006 2619 2597 2516 
z
" transform="scale(0.015625)"/>
       </defs>
       <use xlink:href="#DejaVuSans-33"/>
       <use xlink:href="#DejaVuSans-30" x="63.623047"/>
       <use xlink:href="#DejaVuSans-30" x="127.246094"/>
      </g>
     </g>
    </g>
    <g id="text_14">
     <!-- Mbps -->
     <g transform="translate(25.432812 187.795187)rotate(-90)scale(0.1 -0.1)">
      <defs>
       <path id="DejaVuSans-4d" d="M 628 4666 
L 1569 4666 
L 2759 1491 
L 3956 4666 
L 4897 4666 
L 4897 0 
L 4281 0 
L 4281 4097 
L 3078 897 
L 2444 897 
L 1241 4097 
L 1241 0 
L 628 0 
L 628 4666 
z
" transform="scale(0.015625)"/>
       <path id="DejaVuSans-62" d="M 3116 1747 
Q 3116 2381 2855 2742 
Q 2594 3103 2138 3103 
Q 1681 3103 1420 2742 
Q 1159 2381 1159 1747 
Q 1159 1113 1420 752 
Q 1681 391 2138 391 
Q 2594 391 2855 752 
Q 3116 1113 3116 1747 
z
M 1159 2969 
Q 1341 3281 1617 3432 
Q 1894 3584 2278 3584 
Q 2916 3584 3314 3078 
Q 3713 2572 3713 1747 
Q 3713 922 3314 415 
Q 2916 -91 2278 -91 
Q 1894 -91 1617 61 
Q 1341 213 1159 525 
L 1159 0 
L 581 0 
L 581 4863 
L 1159 4863 
L 1159 2969 
z
" transform="scale(0.015625)"/>
       <path id="DejaVuSans-70" d="M 1159 525 
L 1159 -1331 
L 581 -1331 
L 581 3500 
L 1159 3500 
L 1159 2969 
Q 1341 3281 1617 3432 
Q 1894 3584 2278 3584 
Q 2916 3584 3314 3078 
Q 3713 2572 3713 1747 
Q 3713 922 3314 415 
Q 2916 -91 2278 -91 
Q 1894 -91 1617 61 
Q 1341 213 1159 525 
z
M 3116 1747 
Q 3116 2381 2855 2742 
Q 2594 3103 2138 3103 
Q 1681 3103 1420 2742 
Q 1159 2381 1159 1747 
Q 1159 1113 1420 752 
Q 1681 391 2138 391 
Q 2594 391 2855 752 
Q 3116 1113 3116 1747 
z
" transform="scale(0.015625)"/>
      </defs>
      <use xlink:href="#DejaVuSans-4d"/>
      <use xlink:href="#DejaVuSans-62" x="86.279297"/>
      <use xlink:href="#DejaVuSans-70" x="149.755859"/>
      <use xlink:href="#DejaVuSans-73" x="213.232422"/>
     </g>
    </g>
   </g>
   <g id="line2d_13">
    <path d="M 73.832727 293.181518 
L 73.972132 287.276803 
L 74.11162 290.334332 
L 74.250979 289.616037 
L 74.3907 292.236762 
L 74.530039 290.440154 
L 74.669441 292.135449 
L 74.809059 295.303249 
L 74.948843 301.417593 
L 75.088229 301.522847 
L 75.366876 285.297034 
L 75.64554 277.363562 
L 75.78615 280.809189 
L 75.925582 271.507399 
L 76.068082 285.494795 
L 76.208302 287.337935 
L 76.487526 280.921996 
L 76.630122 279.922719 
L 76.770407 291.594296 
L 77.050793 281.548429 
L 77.332869 297.652763 
L 77.892716 277.204524 
L 78.032022 283.808362 
L 78.171752 276.683584 
L 78.311115 276.824618 
L 78.589786 288.469601 
L 79.020277 302.31445 
L 79.161317 301.182399 
L 79.300693 292.064343 
L 79.44031 290.873438 
L 79.581478 292.021902 
L 79.723576 290.77756 
L 79.863095 265.243347 
L 80.003243 290.270178 
L 80.142601 290.994698 
L 80.422157 290.414896 
L 80.563196 301.372144 
L 80.842178 289.999476 
L 81.126239 298.316187 
L 81.266352 292.887534 
L 81.405672 294.5895 
L 81.549417 288.203715 
L 81.688901 298.533666 
L 81.829719 298.483628 
L 81.969161 301.563328 
L 82.108734 299.931912 
L 82.253634 302.244722 
L 82.392929 301.225151 
L 82.535974 303.994482 
L 82.680005 299.215366 
L 82.819548 299.183397 
L 82.961038 302.025518 
L 83.101896 297.429153 
L 83.384037 304.064353 
L 83.664837 302.188758 
L 83.804864 303.239025 
L 83.944252 301.080971 
L 84.229577 302.969446 
L 84.368877 300.566052 
L 84.510008 301.19245 
L 84.649791 294.444077 
L 84.789248 296.968141 
L 84.928888 296.824431 
L 85.068206 301.098224 
L 85.20773 299.855802 
L 85.34785 296.454496 
L 85.487403 296.975519 
L 85.627619 298.854363 
L 86.188128 289.34063 
L 86.467862 294.264767 
L 86.608119 290.326303 
L 86.748488 292.968156 
L 86.887811 293.308678 
L 87.027307 270.301234 
L 87.167067 290.887893 
L 87.446589 295.833098 
L 87.586167 293.087913 
L 87.725521 276.695637 
L 87.865336 295.788521 
L 88.00466 298.3147 
L 88.144054 290.100509 
L 88.287961 293.880766 
L 88.430571 302.10889 
L 88.57097 296.478904 
L 88.711866 296.662025 
L 88.851151 298.82921 
L 88.990582 298.472699 
L 89.271771 300.734129 
L 89.411425 299.410543 
L 89.551071 290.15347 
L 89.690607 298.599451 
L 89.831801 293.636397 
L 89.972078 298.708059 
L 90.115432 297.787773 
L 90.256751 301.215696 
L 90.396148 296.587472 
L 90.536813 297.713007 
L 90.677076 299.73512 
L 91.235063 280.39238 
L 91.37456 294.381435 
L 91.514723 295.869273 
L 91.795348 292.747469 
L 91.935183 296.747786 
L 92.075159 297.35684 
L 92.214454 296.854525 
L 92.353955 301.019876 
L 92.494789 297.392642 
L 92.634752 298.124194 
L 92.913928 299.832623 
L 93.057107 300.873303 
L 93.196644 291.495617 
L 93.335988 300.71299 
L 93.47584 299.331111 
L 93.755821 300.208572 
L 93.895638 300.005793 
L 94.036362 297.438259 
L 94.176662 298.027397 
L 94.455771 284.344532 
L 94.736238 296.790075 
L 94.875692 296.949408 
L 95.017583 302.807527 
L 95.299159 299.489139 
L 95.717999 297.947986 
L 95.857288 298.417885 
L 95.996992 295.32428 
L 96.275849 299.032939 
L 96.556752 289.624014 
L 96.696083 294.241181 
L 96.835375 287.056054 
L 96.976148 301.992574 
L 97.255414 301.449675 
L 97.39627 293.867624 
L 97.538039 294.979898 
L 97.68 302.97806 
L 97.81938 298.244284 
L 97.961875 298.737097 
L 98.101233 302.464536 
L 98.241231 296.180725 
L 98.381056 295.035518 
L 98.52056 299.481799 
L 98.800655 272.498448 
L 98.939969 238.894648 
L 99.080847 249.235426 
L 99.359659 295.424262 
L 99.500043 300.917476 
L 99.639513 297.42165 
L 99.780976 300.639178 
L 99.921286 298.986134 
L 100.064588 298.820781 
L 100.20413 298.425934 
L 100.343671 300.215355 
L 100.483769 299.766002 
L 100.623133 298.031352 
L 100.762945 299.800533 
L 100.903055 297.777124 
L 101.183093 299.7227 
L 101.322397 276.117587 
L 101.742607 300.999874 
L 102.022611 302.008488 
L 102.164056 299.274456 
L 102.303383 298.760325 
L 102.444174 299.67162 
L 102.583643 289.919954 
L 102.723027 271.931675 
L 102.862331 299.630705 
L 103.002098 295.108219 
L 103.280893 300.929041 
L 103.420234 292.044229 
L 103.702149 300.118654 
L 103.842441 301.489457 
L 103.982178 299.226269 
L 104.123135 303.496544 
L 104.404401 298.498461 
L 104.543947 301.958604 
L 104.687505 288.058163 
L 104.827087 304.780777 
L 104.966803 303.052806 
L 105.106102 303.037703 
L 105.249244 303.158964 
L 105.389264 303.45033 
L 105.530694 301.480443 
L 105.670102 303.403462 
L 106.093857 300.441459 
L 106.374878 303.330629 
L 106.514212 298.170304 
L 106.654579 304.02662 
L 106.7967 305.194386 
L 106.936026 303.239774 
L 107.076223 303.414666 
L 107.215883 301.261474 
L 107.356898 301.899309 
L 107.4964 284.931462 
L 107.638194 302.409564 
L 107.781146 303.472007 
L 107.920491 301.538949 
L 108.06048 304.593717 
L 108.20085 303.105163 
L 108.340463 304.671071 
L 108.481304 304.985405 
L 108.621928 306.821657 
L 108.902766 296.749359 
L 109.044185 301.915013 
L 109.323103 298.721613 
L 109.462441 299.31792 
L 109.742151 303.507038 
L 109.882506 304.398096 
L 110.161649 301.99054 
L 110.303711 296.582456 
L 110.44429 306.122329 
L 110.593417 306.801222 
L 110.732839 302.150074 
L 110.872821 304.173713 
L 111.012278 304.244889 
L 111.152747 304.022283 
L 111.294081 306.578921 
L 111.44125 306.164013 
L 111.589096 288.972411 
L 111.741743 295.008275 
L 111.881162 305.013393 
L 112.159994 300.485282 
L 112.299509 287.980144 
L 112.438806 293.95052 
L 112.578508 292.086314 
L 112.857222 284.533744 
L 112.996982 294.737391 
L 113.276504 287.196487 
L 113.416522 304.925494 
L 113.55644 304.209609 
L 113.695788 302.281267 
L 113.836305 297.454334 
L 113.975941 300.767076 
L 114.11552 298.76316 
L 114.396261 304.386422 
L 114.536237 298.210726 
L 114.81725 297.463436 
L 114.956967 295.569392 
L 115.09707 300.320029 
L 115.379674 298.69649 
L 115.658462 303.109149 
L 115.79872 301.016494 
L 115.938844 302.217054 
L 116.219956 300.106878 
L 116.360724 303.11766 
L 116.500283 303.284678 
L 116.639594 303.245115 
L 116.7793 300.549235 
L 116.919006 294.574648 
L 117.058698 299.13642 
L 117.199843 298.863938 
L 117.33985 289.902617 
L 117.623914 299.71687 
L 117.763334 294.627784 
L 117.902671 298.374119 
L 118.044372 298.099812 
L 118.183658 297.198953 
L 118.462933 293.678933 
L 118.743112 300.423137 
L 119.022283 300.423092 
L 119.163783 301.304117 
L 119.303602 300.528619 
L 119.582493 301.980628 
L 119.722269 297.291182 
L 119.863227 302.848327 
L 120.143564 301.150157 
L 120.283086 301.068759 
L 120.422743 297.997565 
L 120.562081 298.219903 
L 120.701902 285.854806 
L 120.842003 300.726669 
L 120.984602 298.50746 
L 121.124238 291.490742 
L 121.544659 303.993042 
L 121.684302 300.725632 
L 121.965143 304.493076 
L 122.104493 295.938343 
L 122.243874 235.348033 
L 122.383239 236.768598 
L 122.524382 249.826876 
L 122.666722 301.193693 
L 122.806136 302.051304 
L 122.95432 293.766538 
L 123.098369 304.66969 
L 123.238374 293.99579 
L 123.37899 301.889852 
L 123.661192 297.704331 
L 123.946296 302.458822 
L 124.085613 296.178428 
L 124.225758 297.696427 
L 124.367818 294.248103 
L 124.647557 299.863911 
L 124.786924 279.769152 
L 125.067947 299.47762 
L 125.210352 297.875096 
L 125.350721 303.064357 
L 125.490164 302.123713 
L 125.629911 303.225532 
L 125.769314 290.535026 
L 126.049317 296.679209 
L 126.188616 275.359796 
L 126.327961 204.899173 
L 126.607255 299.913754 
L 126.746708 299.572422 
L 126.887762 300.816088 
L 127.027203 292.253269 
L 127.166569 292.752467 
L 127.306452 293.946889 
L 127.446803 288.419113 
L 127.726807 301.637477 
L 127.866445 300.848824 
L 128.005984 302.182935 
L 128.14528 301.786129 
L 128.284775 300.880076 
L 128.426417 294.139084 
L 128.566301 299.680911 
L 128.70606 298.476727 
L 128.848521 287.174539 
L 128.987837 293.578673 
L 129.129602 282.650726 
L 129.269015 298.909332 
L 129.549266 295.816887 
L 129.688809 298.659208 
L 129.828115 297.303054 
L 130.106939 302.394532 
L 130.246254 301.434978 
L 130.385721 301.956405 
L 130.664725 298.001734 
L 130.806734 303.956141 
L 130.946125 303.027109 
L 131.085721 304.537969 
L 131.225958 303.051892 
L 131.506267 305.988837 
L 131.645637 304.751562 
L 131.928573 298.105355 
L 132.069346 301.916574 
L 132.208903 302.151214 
L 132.351759 303.24276 
L 132.631904 299.913881 
L 132.771267 301.839705 
L 132.911135 298.914917 
L 133.050572 301.882969 
L 133.190844 301.596808 
L 133.330316 300.059813 
L 133.469753 300.591242 
L 133.755519 305.741576 
L 133.89538 305.559941 
L 134.036463 299.344007 
L 134.175801 300.383195 
L 134.315246 291.247243 
L 134.45519 293.66929 
L 134.597007 304.985682 
L 134.737445 303.296507 
L 135.023456 304.739403 
L 135.163151 301.852257 
L 135.302645 302.238714 
L 135.442485 301.066636 
L 135.581783 296.891281 
L 135.721479 281.483453 
L 136.00032 304.10402 
L 136.139678 302.100363 
L 136.280605 303.418575 
L 136.422771 303.157349 
L 136.562576 302.542601 
L 136.704253 302.431105 
L 136.843783 301.54434 
L 137.123978 297.565408 
L 137.265241 302.192144 
L 137.543969 284.938013 
L 137.683383 281.54208 
L 137.963793 297.990417 
L 138.103311 294.567182 
L 138.242827 297.944833 
L 138.38212 282.855038 
L 138.524492 283.519661 
L 138.803406 295.349875 
L 138.942726 297.574377 
L 139.082256 297.991221 
L 139.221876 291.306665 
L 139.36145 293.396047 
L 139.501007 298.612819 
L 139.780437 242.385781 
L 139.920148 248.836143 
L 140.198991 299.923624 
L 140.338408 287.224405 
L 140.478635 302.382664 
L 140.758245 299.23312 
L 140.897732 302.355018 
L 141.177896 301.985613 
L 141.317573 296.587647 
L 141.597682 301.861365 
L 141.73801 301.191376 
L 141.879212 293.754514 
L 142.019194 301.618422 
L 142.158627 302.600139 
L 142.299247 297.189069 
L 142.440869 300.779549 
L 142.583673 291.135129 
L 142.723174 297.436146 
L 142.862946 294.580876 
L 143.144004 300.280275 
L 143.283594 285.728072 
L 143.422945 298.928091 
L 143.562366 299.200419 
L 143.701762 302.861957 
L 143.841158 299.493606 
L 143.980511 300.517377 
L 144.120348 298.397614 
L 144.399134 302.814746 
L 144.678384 296.416314 
L 144.819007 302.555222 
L 145.241697 298.187541 
L 145.384402 303.585847 
L 145.664711 297.611902 
L 145.804073 301.916891 
L 145.9434 298.33004 
L 146.083829 298.809279 
L 146.226149 285.346565 
L 146.505511 302.264501 
L 146.645221 302.521034 
L 146.784617 302.4434 
L 146.923912 296.668025 
L 147.070024 300.190707 
L 147.20939 299.431104 
L 147.350192 303.697446 
L 147.48949 298.660081 
L 147.629303 287.686457 
L 147.908696 296.532906 
L 148.04924 290.114655 
L 148.188709 303.26837 
L 148.328042 301.776067 
L 148.746861 284.617829 
L 149.025647 292.911796 
L 149.165091 296.566938 
L 149.304641 293.181003 
L 149.445434 302.86826 
L 149.587912 297.492076 
L 149.727209 301.164173 
L 150.006477 292.262081 
L 150.145808 300.205923 
L 150.28634 300.832788 
L 150.426143 302.410602 
L 150.565448 300.607809 
L 150.706831 290.446074 
L 150.846163 298.083588 
L 151.125168 296.253566 
L 151.264634 303.065523 
L 151.403952 302.0211 
L 151.543404 302.18297 
L 151.684733 301.793461 
L 151.824173 299.291702 
L 151.963613 293.766681 
L 152.102941 295.906694 
L 152.38283 305.815398 
L 152.523135 305.149545 
L 152.664313 301.335474 
L 152.803697 304.507711 
L 152.948651 304.539302 
L 153.08831 299.789565 
L 153.230427 305.201943 
L 153.370823 303.398224 
L 153.510116 293.074584 
L 154.072445 303.437012 
L 154.492309 294.839547 
L 154.631681 282.093734 
L 154.911133 301.803907 
L 155.050779 297.997948 
L 155.190862 303.286847 
L 155.470402 296.844272 
L 155.611332 287.449616 
L 155.750676 291.664636 
L 155.890002 260.294508 
L 156.170574 301.697114 
L 156.311251 300.512752 
L 156.59058 293.275046 
L 156.72987 294.073544 
L 156.869204 297.081522 
L 157.008611 294.30822 
L 157.287805 301.12092 
L 157.427265 301.687733 
L 157.566553 292.068168 
L 157.708756 272.088617 
L 157.84845 298.98684 
L 157.987787 292.766807 
L 158.129703 301.094524 
L 158.269068 298.023032 
L 158.408427 301.462174 
L 158.549632 295.344362 
L 158.688927 303.606674 
L 158.828279 291.71727 
L 158.968001 303.304897 
L 159.10767 301.073352 
L 159.247105 296.058336 
L 159.386474 298.133293 
L 159.526118 294.267817 
L 159.666698 295.675195 
L 159.806698 305.199922 
L 159.947494 303.141618 
L 160.226459 286.379715 
L 160.366285 297.268852 
L 160.78591 302.590728 
L 160.925465 301.680446 
L 161.066516 303.005052 
L 161.21008 302.073052 
L 161.349368 288.506499 
L 161.488781 290.431554 
L 161.629457 297.220256 
L 161.769024 288.251256 
L 162.052522 290.99216 
L 162.331231 296.790644 
L 162.470558 295.736831 
L 162.609888 284.376632 
L 163.030218 297.396249 
L 163.169541 290.088551 
L 163.309233 300.08361 
L 163.448589 291.651728 
L 163.587879 275.843433 
L 163.727214 280.746541 
L 163.866656 280.075103 
L 164.006102 281.309368 
L 164.287347 304.343563 
L 164.565964 297.195481 
L 164.70674 294.202715 
L 164.986525 298.89876 
L 165.126191 295.379561 
L 165.26677 298.009416 
L 165.545774 288.325618 
L 165.685303 298.532797 
L 165.824889 299.167763 
L 165.964742 298.818393 
L 166.243453 292.928749 
L 166.522408 296.287021 
L 166.804226 294.683538 
L 166.943597 298.405976 
L 167.085255 293.4497 
L 167.224901 294.076789 
L 167.36656 292.230338 
L 167.50594 294.360208 
L 167.646406 287.922128 
L 167.785939 292.690045 
L 167.925544 275.550054 
L 168.064945 237.113797 
L 168.204358 234.317511 
L 168.344029 298.622044 
L 168.624506 286.292129 
L 168.764802 296.170485 
L 168.904392 297.075819 
L 169.043842 294.610426 
L 169.183683 289.741321 
L 169.325331 290.969339 
L 169.464683 300.067347 
L 169.604325 299.750628 
L 169.744229 300.604996 
L 169.883574 303.032776 
L 170.02328 300.828972 
L 170.165362 303.080242 
L 170.304975 282.307397 
L 170.445829 303.064652 
L 170.585629 296.643584 
L 170.728618 297.799095 
L 170.868035 302.466549 
L 171.007615 301.327841 
L 171.147158 301.196054 
L 171.286626 298.601272 
L 171.427682 301.41919 
L 171.569051 299.235429 
L 171.709191 302.660884 
L 171.848775 299.979245 
L 172.130464 303.416988 
L 172.270776 301.202371 
L 172.412056 290.840227 
L 172.692004 301.219383 
L 172.831854 301.032783 
L 172.97162 301.656957 
L 173.112572 300.920613 
L 173.252211 302.40296 
L 173.392454 301.675341 
L 173.671212 289.123549 
L 173.811815 288.499399 
L 174.090719 282.290406 
L 174.230415 300.929917 
L 174.369862 294.022549 
L 174.509444 293.62961 
L 174.648848 291.967573 
L 174.930727 296.031339 
L 175.070012 292.915421 
L 175.209689 298.89619 
L 175.351086 288.888013 
L 175.490462 293.8962 
L 175.630457 289.17598 
L 175.770687 290.772505 
L 175.910534 289.781126 
L 176.191043 300.625815 
L 176.330457 300.520413 
L 176.750074 288.837169 
L 176.889395 299.759138 
L 177.171611 289.422303 
L 177.311023 300.449551 
L 177.450677 291.938641 
L 177.592026 301.338651 
L 177.733319 289.554715 
L 177.873485 296.993994 
L 178.014644 291.195664 
L 178.153953 299.043094 
L 178.433107 295.176313 
L 178.572848 302.141026 
L 178.712149 294.672604 
L 178.85199 295.434714 
L 178.992203 290.527608 
L 179.132424 290.881077 
L 179.27186 298.364156 
L 179.411209 284.541346 
L 179.550608 301.406477 
L 179.690141 300.639158 
L 179.829443 301.022671 
L 179.968767 292.990972 
L 180.109921 294.004035 
L 180.249224 301.768825 
L 180.389073 302.854527 
L 180.532732 294.927426 
L 180.815249 302.314653 
L 180.954727 295.941473 
L 181.094979 301.376069 
L 181.23598 295.416893 
L 181.375421 296.588756 
L 181.654402 281.983911 
L 181.933082 286.839395 
L 182.072696 277.249503 
L 182.212269 289.02599 
L 182.351569 255.518471 
L 182.630598 284.619411 
L 182.769974 286.173941 
L 182.909358 285.131941 
L 183.187949 292.04731 
L 183.469584 296.439298 
L 183.608937 293.459073 
L 183.754078 297.948457 
L 184.03278 294.422122 
L 184.17222 298.707503 
L 184.311728 297.325708 
L 184.454582 298.311251 
L 184.596004 295.996168 
L 184.736502 298.386059 
L 184.877215 296.969541 
L 185.017112 297.164059 
L 185.156421 290.342773 
L 185.29712 296.171584 
L 185.436542 292.929376 
L 185.716222 298.474376 
L 185.856503 300.216709 
L 185.99879 297.590766 
L 186.138928 298.187362 
L 186.418816 300.767341 
L 186.558551 298.826704 
L 186.697962 293.923149 
L 186.837261 296.834682 
L 186.976675 290.606671 
L 187.256268 296.841413 
L 187.395801 295.664553 
L 187.535658 283.962887 
L 187.817139 294.492873 
L 188.095929 281.462606 
L 188.235243 287.165768 
L 188.374614 282.850234 
L 188.653616 295.631289 
L 188.795196 294.015954 
L 188.936023 291.021144 
L 189.214967 295.172776 
L 189.354259 224.414305 
L 189.493567 248.608898 
L 189.63331 292.447573 
L 189.772734 296.463402 
L 190.051977 293.340125 
L 190.191455 295.268493 
L 190.330858 292.496884 
L 190.610491 295.869844 
L 190.750468 293.630525 
L 190.889944 293.641051 
L 191.170065 289.958153 
L 191.4488 286.920988 
L 191.588657 287.456637 
L 191.728116 290.414496 
L 192.006743 280.958653 
L 192.285546 295.271503 
L 192.425565 293.813155 
L 192.56587 288.224116 
L 192.705159 288.692534 
L 193.12541 294.849105 
L 193.264728 298.739342 
L 193.404038 296.908211 
L 193.548406 297.153638 
L 193.688262 294.817594 
L 193.828925 296.148274 
L 194.108039 292.465962 
L 194.247665 291.007299 
L 194.387039 293.461326 
L 194.528234 287.37493 
L 194.668231 294.839041 
L 194.807734 291.001856 
L 195.226735 302.472669 
L 195.366886 303.404597 
L 195.508737 302.801183 
L 195.651428 299.032275 
L 195.793816 301.615267 
L 196.074467 296.985014 
L 196.21403 301.958265 
L 196.493184 301.625876 
L 196.632486 298.981496 
L 196.775082 299.140227 
L 196.914599 295.197617 
L 197.053923 294.646315 
L 197.473899 300.730803 
L 197.613651 298.334023 
L 197.75349 298.583751 
L 197.893637 299.236513 
L 198.035289 298.939467 
L 198.175552 299.470541 
L 198.315173 300.575605 
L 198.454665 300.786554 
L 198.876714 293.974475 
L 199.016309 295.172396 
L 199.155647 291.963686 
L 199.295399 295.924942 
L 199.434838 295.95505 
L 199.574297 297.273524 
L 199.713651 295.806114 
L 199.852946 297.576771 
L 199.992694 294.130055 
L 200.132003 301.711611 
L 200.553836 303.807139 
L 200.694152 303.194724 
L 200.836317 299.473568 
L 200.976113 278.211617 
L 201.11704 301.339943 
L 201.256442 296.092404 
L 201.395901 299.769095 
L 201.535604 296.873453 
L 201.675106 299.891933 
L 201.815038 299.030304 
L 202.094148 301.126393 
L 202.373003 298.581621 
L 202.51282 299.571826 
L 202.794358 303.099345 
L 203.221718 295.163248 
L 203.361249 295.674651 
L 203.500655 295.407863 
L 203.919051 290.594889 
L 204.05883 301.757757 
L 204.19825 302.685033 
L 204.339048 301.417883 
L 204.481137 303.42669 
L 204.622383 300.133651 
L 205.045749 302.11009 
L 205.187163 298.927974 
L 205.327054 302.509731 
L 205.46694 303.043755 
L 205.60639 301.607693 
L 206.028802 303.138208 
L 206.169433 298.469114 
L 206.310219 301.773386 
L 206.45045 300.768495 
L 206.591645 297.665424 
L 206.871319 304.855033 
L 207.01481 299.998689 
L 207.15414 303.401596 
L 207.293907 301.048084 
L 207.435761 301.372208 
L 207.576064 302.669424 
L 207.716209 299.440011 
L 207.995129 303.777356 
L 208.13491 300.438044 
L 208.275122 302.478501 
L 208.55937 297.567984 
L 208.698721 300.910717 
L 208.838969 294.968084 
L 208.97997 300.716345 
L 209.120703 300.057749 
L 209.260009 300.78401 
L 209.399534 300.070369 
L 209.538857 301.392588 
L 209.678227 298.295708 
L 209.957206 277.620238 
L 210.236171 285.206709 
L 210.3756 298.06204 
L 210.515473 299.272366 
L 210.65724 291.193353 
L 210.797357 272.722678 
L 210.936727 295.051245 
L 211.077172 291.295918 
L 211.218 295.41837 
L 211.497405 280.207257 
L 211.63692 282.483573 
L 211.915745 301.461552 
L 212.194921 296.893671 
L 212.334212 300.292502 
L 212.473714 294.283651 
L 212.613225 296.515598 
L 212.75324 295.023335 
L 213.033577 302.297951 
L 213.175708 299.915595 
L 213.316309 285.415298 
L 213.596696 294.946744 
L 213.736087 296.772118 
L 213.875806 301.67964 
L 214.01557 301.843918 
L 214.157672 301.752525 
L 214.302841 298.094651 
L 214.442948 303.493151 
L 214.724399 299.839144 
L 215.004397 300.944294 
L 215.284003 298.708219 
L 215.425094 298.85537 
L 215.565259 300.28602 
L 215.704549 294.344507 
L 215.844235 297.198036 
L 215.9836 294.979185 
L 216.402618 279.90409 
L 216.541906 292.73401 
L 216.681266 291.924181 
L 216.820947 288.216586 
L 216.960465 293.789945 
L 217.102202 293.727294 
L 217.241593 295.700959 
L 217.381093 295.84549 
L 217.52042 299.060103 
L 217.660986 298.100271 
L 217.939753 288.872862 
L 218.080499 295.273504 
L 218.359645 296.870963 
L 218.499229 297.056454 
L 218.638616 295.989567 
L 218.777932 297.28307 
L 218.917685 294.841633 
L 219.061976 301.004564 
L 219.201309 298.018331 
L 219.340941 302.563976 
L 219.480231 299.870691 
L 219.620416 301.713077 
L 219.902529 297.411346 
L 220.042359 298.321454 
L 220.181868 292.620154 
L 220.461052 299.945939 
L 220.883252 300.98691 
L 221.023442 299.305097 
L 221.162752 299.419385 
L 221.442359 288.666599 
L 221.582743 302.449061 
L 221.722795 301.094593 
L 221.862285 296.758362 
L 222.003594 300.557603 
L 222.144537 298.387501 
L 222.284613 301.231215 
L 222.423936 269.499087 
L 222.563276 271.621601 
L 222.702779 278.100976 
L 222.842639 279.347656 
L 222.981954 282.173274 
L 223.121869 301.698303 
L 223.262133 301.111173 
L 223.402507 303.740296 
L 223.822788 295.931666 
L 223.962902 297.427385 
L 224.103663 295.279398 
L 224.24353 295.976651 
L 224.384397 294.639636 
L 224.524151 289.086187 
L 224.664398 294.311167 
L 224.803714 289.7261 
L 224.943012 294.186686 
L 225.0841 290.303108 
L 225.223865 294.863826 
L 225.363558 294.606005 
L 225.503238 301.681636 
L 225.642969 303.096139 
L 225.923204 291.901631 
L 226.063578 297.796888 
L 226.202865 294.318797 
L 226.34232 295.079834 
L 226.481696 290.869774 
L 226.62134 290.420496 
L 226.760792 303.557426 
L 227.039765 292.974269 
L 227.180417 300.862463 
L 227.322219 301.320893 
L 227.462076 302.513321 
L 227.601474 302.526608 
L 227.742395 303.711815 
L 227.881771 303.627781 
L 228.022641 305.253933 
L 228.162156 299.251851 
L 228.301996 301.751489 
L 228.443794 300.482846 
L 228.585389 294.545799 
L 228.725097 299.289441 
L 228.874112 296.583602 
L 229.159712 302.670382 
L 229.450952 297.724798 
L 229.593115 295.478915 
L 229.876087 303.933719 
L 230.015513 303.51603 
L 230.160111 305.102392 
L 230.303582 303.607852 
L 230.443126 299.936455 
L 230.58358 301.469892 
L 230.72342 301.142132 
L 231.007478 303.857129 
L 231.14768 302.429536 
L 231.287578 305.034931 
L 231.433196 302.381716 
L 231.572542 302.443157 
L 231.72208 304.1032 
L 231.864248 302.694794 
L 232.011763 306.012268 
L 232.293317 305.371685 
L 232.432895 305.530988 
L 232.574047 304.5467 
L 232.717941 302.710374 
L 232.861061 297.906707 
L 233.000436 302.332795 
L 233.139923 301.890155 
L 233.285348 305.591366 
L 233.564396 300.798969 
L 233.704834 295.387284 
L 233.844554 294.664458 
L 233.996228 295.995044 
L 234.136246 295.912828 
L 234.275919 297.460066 
L 234.415208 296.62624 
L 234.554795 292.093197 
L 234.838024 294.443174 
L 235.261675 305.417848 
L 235.405281 301.662968 
L 235.544792 304.178218 
L 235.684239 274.415925 
L 235.827559 303.8857 
L 235.979315 305.554671 
L 236.122189 302.554862 
L 236.265387 305.781024 
L 236.555977 300.47544 
L 236.697298 304.903929 
L 236.838896 305.785211 
L 236.978869 304.270887 
L 237.12058 301.4931 
L 237.260027 304.337872 
L 237.53905 293.483612 
L 237.678447 287.381209 
L 237.81802 251.093619 
L 237.958091 249.182287 
L 238.238693 298.919085 
L 238.517732 303.843973 
L 238.939171 298.205833 
L 239.078577 298.918279 
L 239.224141 300.903454 
L 239.363429 294.386197 
L 239.504247 299.332657 
L 239.646815 298.935268 
L 239.79225 299.031325 
L 240.078265 300.382579 
L 240.217843 298.98188 
L 240.358667 295.52939 
L 240.49838 302.223197 
L 240.779044 293.34654 
L 240.919532 299.86245 
L 241.060673 292.840827 
L 241.20044 292.996415 
L 241.341172 285.573899 
L 241.48055 289.501844 
L 241.619861 285.660213 
L 241.759774 278.697475 
L 241.89975 291.41877 
L 242.179688 294.850104 
L 242.320421 286.203235 
L 242.459975 288.066879 
L 242.599804 296.05921 
L 242.739606 296.484975 
L 242.87921 291.559026 
L 243.018767 300.706664 
L 243.158623 291.777236 
L 243.29981 297.062428 
L 243.440912 292.309468 
L 243.580271 295.935303 
L 243.723953 292.390506 
L 243.863308 294.223494 
L 244.005346 292.074256 
L 244.145138 293.104019 
L 244.2849 287.983834 
L 244.424681 292.178803 
L 244.564578 292.462061 
L 244.705164 295.555365 
L 244.844617 302.383048 
L 244.983989 299.665982 
L 245.264189 276.527329 
L 245.407064 290.256934 
L 245.54659 288.976977 
L 245.686157 276.551531 
L 245.965397 286.24102 
L 246.10479 291.614617 
L 246.244077 292.016039 
L 246.383882 290.849256 
L 246.530324 299.970885 
L 246.679708 294.429083 
L 246.963256 302.702021 
L 247.381698 286.337661 
L 247.523564 299.72714 
L 247.666138 300.108538 
L 247.805918 300.937874 
L 247.945573 298.798284 
L 248.086149 301.039375 
L 248.225549 298.789996 
L 248.368696 301.305747 
L 248.648205 279.297652 
L 248.78814 299.06754 
L 249.07203 297.446363 
L 249.492921 246.111708 
L 249.632254 248.049743 
L 249.771608 299.945735 
L 249.914958 300.096653 
L 250.054572 300.641151 
L 250.193922 302.883602 
L 250.754879 283.21193 
L 251.317695 298.547426 
L 251.465124 299.93077 
L 251.608525 294.39657 
L 251.887941 302.136542 
L 252.027305 300.605326 
L 252.170461 301.085532 
L 252.310277 297.409306 
L 252.449922 289.499009 
L 252.732468 302.549956 
L 253.0141 291.152366 
L 253.153672 301.922391 
L 253.294825 298.426781 
L 253.435019 303.160966 
L 253.577918 299.254937 
L 253.729156 299.946339 
L 253.870521 304.448992 
L 254.018871 305.494361 
L 254.158185 296.690122 
L 254.299787 300.478456 
L 254.443216 297.822549 
L 254.587502 303.301632 
L 254.726872 304.358542 
L 254.866162 302.205615 
L 255.148104 302.117394 
L 255.287426 300.367108 
L 255.426902 301.259966 
L 255.570987 283.797612 
L 255.712302 303.185121 
L 255.992877 301.670897 
L 256.136576 303.502987 
L 256.275931 282.668401 
L 256.416856 301.37333 
L 256.699867 299.453689 
L 256.839207 269.773303 
L 256.981951 278.567424 
L 257.122171 299.96792 
L 257.268767 294.790545 
L 257.408502 303.862588 
L 257.548133 288.163119 
L 257.68773 303.513122 
L 257.832084 303.49433 
L 257.971468 301.346551 
L 258.111832 304.942042 
L 258.391581 297.326876 
L 258.533656 296.384827 
L 258.673213 301.669225 
L 258.813837 300.203223 
L 258.953558 295.67061 
L 259.092923 299.400992 
L 259.235241 296.137111 
L 259.374895 296.911427 
L 259.514394 299.451608 
L 259.654966 299.541764 
L 259.794361 295.929403 
L 259.935328 296.581336 
L 260.076056 288.932017 
L 260.217246 296.861346 
L 260.495844 285.586817 
L 261.057805 300.659015 
L 261.198819 300.039409 
L 261.338776 300.407807 
L 261.480624 302.154574 
L 261.619912 302.157648 
L 261.761497 301.858202 
L 261.901122 301.276775 
L 262.041717 299.226184 
L 262.322483 300.185635 
L 262.463498 300.20947 
L 262.603492 299.193038 
L 262.742896 300.473465 
L 263.022112 291.166775 
L 263.16154 292.039001 
L 263.303021 298.022232 
L 263.442927 297.234383 
L 263.582685 280.56778 
L 263.721972 280.774099 
L 263.862713 296.579235 
L 264.142106 301.08177 
L 264.282931 297.623734 
L 264.422283 297.55422 
L 264.562092 299.239565 
L 264.701411 299.41771 
L 264.840758 298.726181 
L 265.120327 277.145523 
L 265.259638 292.892687 
L 265.399016 290.271787 
L 265.538516 291.928059 
L 265.678623 291.962077 
L 265.818634 298.283141 
L 265.957967 298.59608 
L 266.376045 293.468335 
L 266.515415 292.975089 
L 266.798848 300.940994 
L 266.938721 293.98206 
L 267.07921 300.438742 
L 267.219058 300.956485 
L 267.359011 302.372399 
L 267.638108 299.804598 
L 267.78051 294.711708 
L 267.920695 296.637141 
L 268.06296 300.291726 
L 268.342851 293.270038 
L 268.484791 301.109088 
L 268.624229 301.58701 
L 268.903054 291.234527 
L 269.042838 291.371726 
L 269.183043 290.843789 
L 269.3231 292.514823 
L 269.463097 290.103446 
L 269.603311 292.680377 
L 269.743728 302.250789 
L 269.883477 302.180811 
L 270.026573 300.789414 
L 270.305264 303.845231 
L 270.445315 301.371755 
L 270.727904 301.931315 
L 270.870088 302.535928 
L 271.011534 298.6661 
L 271.291047 302.829949 
L 271.432957 301.266509 
L 271.572508 282.225846 
L 271.712171 297.961637 
L 271.852366 298.677105 
L 271.993369 288.884416 
L 272.133155 300.029419 
L 272.272503 299.3532 
L 272.411843 284.818852 
L 272.692966 300.018458 
L 272.832731 299.659649 
L 272.972322 300.113936 
L 273.111632 292.665002 
L 273.250932 298.548585 
L 273.392125 294.409484 
L 273.531444 284.062733 
L 273.670838 282.057438 
L 273.810162 285.696758 
L 273.94957 284.141873 
L 274.089229 288.59693 
L 274.228864 288.553882 
L 274.369889 288.822602 
L 274.509437 292.365156 
L 274.649228 292.838739 
L 274.788731 302.127612 
L 274.928315 299.189813 
L 275.070645 298.958479 
L 275.210334 294.506827 
L 275.3525 297.632241 
L 275.491793 296.564447 
L 275.631243 297.570358 
L 275.912119 295.862583 
L 276.052119 296.470693 
L 276.191464 296.090671 
L 276.333389 299.964829 
L 276.480751 295.799907 
L 276.621623 303.649584 
L 276.762562 301.442631 
L 276.902289 293.895774 
L 277.185342 301.467569 
L 277.326669 300.163855 
L 277.468761 301.438411 
L 277.612946 300.161362 
L 277.752353 296.73889 
L 277.891931 298.264069 
L 278.031382 297.82894 
L 278.175659 304.793211 
L 278.3182 305.645938 
L 278.460573 298.541936 
L 278.599892 303.41371 
L 278.739878 301.522377 
L 278.879433 302.143055 
L 279.018769 303.838516 
L 279.297806 295.769413 
L 279.446319 302.787998 
L 279.585968 302.608316 
L 279.728735 299.170695 
L 280.007459 303.051968 
L 280.146922 297.215401 
L 280.428211 299.64849 
L 280.846842 295.3749 
L 281.126383 301.155044 
L 281.267047 302.316211 
L 281.406493 301.256548 
L 281.687912 295.900846 
L 281.828008 302.16512 
L 282.109937 302.102357 
L 282.252692 302.893009 
L 282.540007 302.188834 
L 282.681312 303.139723 
L 282.963016 300.553765 
L 283.104434 298.068651 
L 283.249221 300.352234 
L 283.395763 298.105814 
L 283.53652 298.613512 
L 283.678217 292.608356 
L 283.958026 298.787556 
L 284.097345 299.92116 
L 284.237105 294.001295 
L 284.378738 301.11385 
L 284.657627 298.412902 
L 284.80099 303.132487 
L 284.941907 301.875509 
L 285.081226 302.092874 
L 285.220662 294.027684 
L 285.364902 302.794323 
L 285.506853 303.094814 
L 285.65522 303.962566 
L 285.795777 303.530052 
L 285.941796 297.968624 
L 286.08267 299.859576 
L 286.224606 297.232801 
L 286.364001 297.33945 
L 286.50335 295.809549 
L 286.642927 297.977902 
L 286.789378 298.412054 
L 286.929278 302.509765 
L 287.069725 301.807313 
L 287.211282 297.627206 
L 287.352633 299.194414 
L 287.772825 293.798884 
L 287.912124 298.314385 
L 288.051854 296.781577 
L 288.191503 293.288603 
L 288.472075 300.636968 
L 288.612844 304.018141 
L 288.753603 304.462419 
L 288.896257 303.832494 
L 289.317845 299.983241 
L 289.457235 303.959739 
L 289.608492 305.046127 
L 289.74974 304.649003 
L 289.889762 301.421081 
L 290.029526 302.272249 
L 290.1692 302.356269 
L 290.30849 301.336828 
L 290.448158 301.255914 
L 290.587567 301.559916 
L 290.727567 303.604545 
L 291.012147 301.676484 
L 291.153129 299.610655 
L 291.292588 301.270834 
L 291.431908 300.866354 
L 291.572326 296.051782 
L 291.711707 298.539778 
L 291.851188 297.622162 
L 291.990855 301.319156 
L 292.269752 296.366099 
L 292.409783 293.346756 
L 292.54964 295.206822 
L 292.828594 300.076552 
L 292.968371 298.818936 
L 293.107859 301.214582 
L 293.247164 301.256316 
L 293.390937 302.738523 
L 293.530283 301.986495 
L 293.809858 294.780017 
L 293.950243 296.0748 
L 294.231472 281.833115 
L 294.371662 301.815647 
L 294.653405 296.703268 
L 294.793555 301.935787 
L 294.935045 301.951502 
L 295.215273 299.721128 
L 295.354889 302.935856 
L 295.494638 298.000094 
L 295.635208 300.182668 
L 295.915622 296.830378 
L 296.054912 296.016912 
L 296.335292 302.364092 
L 296.616239 298.683429 
L 296.756956 300.253936 
L 297.036204 292.951479 
L 297.17575 296.133332 
L 297.315068 292.639307 
L 297.462837 298.693819 
L 297.745512 293.464216 
L 298.030491 299.431592 
L 298.313824 297.696109 
L 298.453899 297.831482 
L 298.593415 291.136272 
L 298.873097 296.487371 
L 299.01385 290.321365 
L 299.155329 297.314505 
L 299.436186 291.409088 
L 299.715091 290.742009 
L 299.855335 292.657205 
L 299.994811 291.672102 
L 300.134175 293.763482 
L 300.273872 292.03214 
L 300.414422 282.178739 
L 300.553989 282.897263 
L 300.693598 280.370413 
L 300.833334 281.108317 
L 301.112787 296.375847 
L 301.252626 291.45604 
L 301.394214 291.744629 
L 301.673147 299.576247 
L 301.813882 298.027061 
L 301.956527 302.554689 
L 302.097658 302.469945 
L 302.243601 303.043992 
L 302.383462 302.590305 
L 302.522835 296.201924 
L 302.662296 301.276439 
L 302.805778 301.602011 
L 302.94558 294.96461 
L 303.086198 297.16718 
L 303.225594 297.132325 
L 303.365692 296.10788 
L 303.505702 301.112854 
L 303.645056 301.143741 
L 303.786088 302.419039 
L 304.07734 299.519062 
L 304.216709 297.949327 
L 304.496951 303.521735 
L 304.637752 295.638829 
L 304.917693 303.268136 
L 305.057275 302.90827 
L 305.197498 298.78186 
L 305.343005 304.349143 
L 305.483185 302.619688 
L 305.626433 302.803739 
L 305.76916 300.661551 
L 305.90978 304.050694 
L 306.051429 303.284341 
L 306.190725 299.164199 
L 306.614774 304.105522 
L 306.754909 302.427077 
L 306.897309 302.9667 
L 307.036906 302.655704 
L 307.178744 300.704508 
L 307.31807 300.791728 
L 307.597447 296.276019 
L 307.737047 302.726836 
L 308.016394 302.663204 
L 308.29533 296.182316 
L 308.434802 301.057496 
L 308.574469 301.049398 
L 308.714492 301.613336 
L 308.993862 253.337346 
L 309.133162 298.352618 
L 309.27446 301.856915 
L 309.413777 296.739325 
L 309.554375 301.942016 
L 309.693867 298.434694 
L 309.973408 302.296267 
L 310.112934 299.105104 
L 310.252398 300.043614 
L 310.392267 299.028358 
L 310.534495 301.986635 
L 310.675278 298.065428 
L 310.954052 299.210786 
L 311.095672 300.709261 
L 311.23502 295.942421 
L 311.374441 298.439565 
L 311.514238 296.099049 
L 311.653732 298.293489 
L 311.935767 294.168509 
L 312.075601 296.005944 
L 312.215024 295.043563 
L 312.354531 273.235433 
L 312.494115 298.947783 
L 312.633461 291.894272 
L 312.775272 296.909248 
L 312.915549 294.33275 
L 313.054893 298.816177 
L 313.195961 299.135636 
L 313.335273 300.557208 
L 313.474869 297.493878 
L 313.614352 299.193711 
L 313.753639 289.323951 
L 313.894831 287.579755 
L 314.034671 268.278 
L 314.315059 278.191285 
L 314.454617 277.530528 
L 314.593942 263.923247 
L 314.733989 275.66779 
L 314.876415 300.286166 
L 315.016455 300.744938 
L 315.156432 299.922469 
L 315.295883 304.99215 
L 315.435235 292.483796 
L 315.574885 301.27838 
L 315.715121 302.201287 
L 315.854675 300.518887 
L 315.996076 292.989776 
L 316.137563 302.938194 
L 316.277335 304.619484 
L 316.416836 295.418833 
L 316.556148 297.307458 
L 316.696756 303.023455 
L 316.837042 295.61188 
L 316.977114 301.133515 
L 317.116588 298.624812 
L 317.400939 303.170633 
L 317.540948 302.914337 
L 317.681586 292.595154 
L 317.961855 301.797871 
L 318.102863 289.161171 
L 318.242568 301.391081 
L 318.382925 301.974897 
L 318.523002 301.769155 
L 318.662587 301.837204 
L 318.802936 299.398699 
L 318.942621 286.637695 
L 319.081992 295.161218 
L 319.223773 296.066027 
L 319.50253 275.20706 
L 319.641954 276.388507 
L 319.781529 278.584291 
L 319.921033 266.642916 
L 320.201006 286.84738 
L 320.479605 209.350143 
L 320.619382 273.432729 
L 320.759067 270.487971 
L 320.898542 281.30556 
L 321.037886 279.593828 
L 321.177802 259.323893 
L 321.317162 261.324081 
L 321.45665 238.089043 
L 321.596857 260.930584 
L 321.736457 259.193119 
L 321.876141 255.292992 
L 322.01591 262.811549 
L 322.295641 300.619501 
L 322.435068 293.088296 
L 322.575785 273.830445 
L 322.715622 300.502232 
L 322.855061 295.54789 
L 322.994391 298.248432 
L 323.133729 297.449985 
L 323.27465 285.714773 
L 323.41434 295.974687 
L 323.694428 300.34811 
L 323.834266 296.779522 
L 323.973552 298.678498 
L 324.113109 293.98049 
L 324.252799 298.955696 
L 324.392625 297.801014 
L 324.534349 300.36568 
L 324.673667 295.632821 
L 324.814009 297.35284 
L 324.955331 288.335192 
L 325.094842 289.737277 
L 325.235048 297.581751 
L 325.377001 295.264824 
L 325.516409 289.862694 
L 325.655843 292.080116 
L 325.795623 292.107032 
L 325.934974 295.4264 
L 326.076657 292.534433 
L 326.355958 298.303926 
L 326.636713 287.782832 
L 326.776264 287.57759 
L 327.058875 298.305743 
L 327.198892 298.491939 
L 327.338319 300.024416 
L 327.479085 298.005906 
L 327.618869 294.399162 
L 327.758273 297.428102 
L 327.897719 289.745798 
L 328.181127 295.980406 
L 328.321496 292.119413 
L 328.600543 297.174754 
L 328.739834 298.176183 
L 328.87997 300.16618 
L 329.019438 297.780839 
L 329.164986 298.566607 
L 329.30458 300.43558 
L 329.443997 298.979484 
L 329.58334 302.238761 
L 329.867964 294.974779 
L 330.009388 301.967902 
L 330.289734 300.038611 
L 330.430532 301.907876 
L 330.570178 298.063895 
L 330.989152 302.670711 
L 331.128805 302.735832 
L 331.268702 300.169311 
L 331.547306 268.109291 
L 331.687718 276.864794 
L 331.832041 245.56019 
L 331.971365 278.646716 
L 332.110909 270.777619 
L 332.253289 290.578691 
L 332.811113 275.611844 
L 332.952248 276.167982 
L 333.091574 282.263123 
L 333.51014 246.197076 
L 333.789485 274.32837 
L 333.928846 277.900268 
L 334.068814 289.892034 
L 334.208123 290.02949 
L 334.487127 301.322021 
L 334.767668 295.547606 
L 334.907181 300.821422 
L 335.048038 296.138341 
L 335.188161 300.173918 
L 335.328028 300.188518 
L 335.467697 295.900756 
L 335.607038 297.001072 
L 335.746684 294.207807 
L 335.887464 297.817835 
L 336.167283 298.182432 
L 336.306783 297.568147 
L 336.585512 294.604505 
L 336.864953 301.260256 
L 337.004294 300.132027 
L 337.144315 300.875192 
L 337.283839 300.02915 
L 337.562875 294.89756 
L 337.702241 301.32802 
L 337.842086 292.313592 
L 337.981479 292.177782 
L 338.260616 298.56778 
L 338.399941 288.054305 
L 338.679698 297.091655 
L 338.822736 297.957821 
L 339.101688 289.240734 
L 339.243197 290.173625 
L 339.382614 289.736216 
L 339.522188 290.285776 
L 339.941155 246.326747 
L 340.08052 250.150557 
L 340.219946 247.028231 
L 340.916783 283.531106 
L 341.195511 228.293206 
L 341.3348 230.955274 
L 341.614446 285.410528 
L 341.753922 282.882928 
L 341.893644 285.260653 
L 342.033106 281.824919 
L 342.173346 297.069337 
L 342.312636 298.074945 
L 342.452192 290.842257 
L 342.592074 293.71501 
L 342.731612 302.214144 
L 342.871813 302.612226 
L 343.011183 302.060073 
L 343.150481 298.660893 
L 343.289805 299.925593 
L 343.429211 293.04054 
L 343.569945 294.130089 
L 343.709295 298.959613 
L 343.989636 290.98839 
L 344.129348 299.714052 
L 344.268838 299.315023 
L 344.547941 293.489992 
L 344.827304 300.522376 
L 344.966959 303.94008 
L 345.246144 300.388383 
L 345.385726 298.329651 
L 345.525025 299.783397 
L 345.664484 299.919765 
L 345.803887 299.522072 
L 345.944096 300.878945 
L 346.083566 287.486454 
L 346.363778 303.236545 
L 346.503652 302.545044 
L 346.643347 292.520563 
L 346.78288 295.489992 
L 346.923085 294.02296 
L 347.062578 297.521899 
L 347.201927 296.287522 
L 347.341351 276.440768 
L 347.48064 299.943845 
L 347.620385 299.833234 
L 348.038562 299.005144 
L 348.193972 294.947362 
L 348.333625 301.785678 
L 348.473266 298.21965 
L 348.612838 271.893597 
L 348.752781 298.089938 
L 348.892073 299.50535 
L 349.031395 297.438147 
L 349.170951 287.906245 
L 349.310237 289.258191 
L 349.449801 298.606039 
L 349.589955 296.855413 
L 349.729319 300.37935 
L 349.86886 299.923603 
L 350.008146 297.675756 
L 350.287097 285.655669 
L 350.426641 288.162313 
L 350.705741 281.795103 
L 351.130288 299.144561 
L 351.269751 286.403957 
L 351.409334 284.427018 
L 351.548639 274.069077 
L 351.828176 285.258042 
L 351.967919 276.986458 
L 352.107427 282.48759 
L 352.246889 279.457943 
L 352.525637 289.740499 
L 352.665084 254.421499 
L 352.805889 287.622148 
L 352.945441 287.721932 
L 353.085044 284.062802 
L 353.224812 294.303639 
L 353.367222 295.286991 
L 353.50713 289.903662 
L 353.64959 294.652884 
L 353.788875 290.152653 
L 353.928173 295.000811 
L 354.067594 286.866752 
L 354.206908 287.438916 
L 354.346291 293.273356 
L 354.485607 293.31155 
L 354.764504 286.772462 
L 354.903792 265.328171 
L 355.182829 292.005527 
L 355.322182 289.691576 
L 355.461539 268.771598 
L 355.601294 288.276256 
L 355.881156 292.009339 
L 356.02057 296.911777 
L 356.160152 291.748999 
L 356.299615 296.610925 
L 356.718524 287.472226 
L 356.85784 295.705369 
L 357.555448 267.082751 
L 357.694919 270.575281 
L 357.834553 263.293495 
L 357.973839 262.637893 
L 358.113165 257.36259 
L 358.252501 278.745703 
L 358.391839 275.992272 
L 358.531539 283.883813 
L 358.670901 283.042533 
L 358.810334 285.476186 
L 358.950068 290.771065 
L 359.090125 286.872404 
L 359.229504 286.166794 
L 359.508902 288.461914 
L 359.649792 289.061658 
L 359.789261 287.890755 
L 359.928611 285.282792 
L 360.067936 288.687891 
L 360.347368 302.029977 
L 360.487138 300.270155 
L 360.766877 287.117393 
L 360.90628 285.915241 
L 361.185583 292.196538 
L 361.465748 290.470931 
L 361.610803 300.871333 
L 361.889594 291.745686 
L 362.029002 294.457377 
L 362.168304 291.494956 
L 362.448674 277.561899 
L 362.588409 287.945449 
L 362.727789 286.254994 
L 362.867225 276.553489 
L 363.006962 280.878223 
L 363.146516 290.935234 
L 363.28584 289.815801 
L 363.425943 291.685157 
L 363.565234 285.985881 
L 363.704692 286.676932 
L 363.983512 276.742478 
L 364.122808 276.961061 
L 364.262161 280.964927 
L 364.401597 277.131014 
L 364.540903 257.010062 
L 364.681091 265.167304 
L 364.820389 266.011473 
L 365.099309 286.952645 
L 365.23893 284.503805 
L 365.378266 289.680567 
L 365.517681 280.43661 
L 365.65704 282.541039 
L 365.796725 282.543259 
L 365.936068 281.766787 
L 366.07686 262.600156 
L 366.216282 275.461752 
L 366.356204 273.243482 
L 366.496031 274.329163 
L 366.63532 276.896156 
L 366.775482 283.261406 
L 366.915526 276.475999 
L 367.055283 277.499475 
L 367.195959 273.586837 
L 367.474745 282.878657 
L 367.614586 267.037646 
L 367.754002 269.848642 
L 367.893453 268.800613 
L 368.033034 279.759356 
L 368.172396 272.3364 
L 368.31177 274.012714 
L 368.451065 283.629367 
L 368.729858 276.981208 
L 368.869316 281.689573 
L 369.009201 279.764774 
L 369.148509 281.988227 
L 369.28878 279.881073 
L 369.429038 282.635852 
L 369.568375 273.36781 
L 369.70772 275.573972 
L 369.847195 275.114466 
L 370.12811 285.721791 
L 370.26743 281.87815 
L 370.547827 286.106534 
L 370.687173 283.238104 
L 370.82652 283.201237 
L 370.965943 274.669569 
L 371.105315 282.333629 
L 371.245068 283.052044 
L 371.385195 294.063912 
L 371.52494 285.581058 
L 371.804565 287.989928 
L 371.944179 285.163093 
L 372.223675 226.413032 
L 372.363023 224.670582 
L 372.64373 287.252692 
L 372.922747 269.357655 
L 373.062602 273.868035 
L 373.202536 267.865948 
L 373.341969 284.993633 
L 373.481406 282.003352 
L 373.622051 281.484084 
L 373.762139 279.68383 
L 373.901644 287.280928 
L 374.181937 284.459419 
L 374.321236 270.231213 
L 374.460532 273.951893 
L 374.600046 286.901149 
L 374.739481 288.968158 
L 374.881482 289.085095 
L 375.021733 290.47875 
L 375.300533 283.455172 
L 375.721714 288.009591 
L 376.002593 280.061528 
L 376.142226 279.465382 
L 376.420974 283.409258 
L 376.700713 262.475346 
L 376.979452 160.799675 
L 377.119745 274.272269 
L 377.259261 282.765763 
L 377.537996 270.169343 
L 377.677344 257.880594 
L 377.816687 230.340648 
L 377.956396 241.59814 
L 378.095781 236.598176 
L 378.23507 239.983607 
L 378.374752 231.534685 
L 378.653564 282.826018 
L 378.79288 273.492113 
L 378.932788 281.273261 
L 379.072175 277.291051 
L 379.211894 280.349411 
L 379.351316 275.788505 
L 379.490666 280.210034 
L 379.629983 279.074366 
L 379.770213 276.618191 
L 379.909668 282.463262 
L 380.049675 274.850194 
L 380.189448 277.055479 
L 380.328735 262.295596 
L 380.468371 267.358922 
L 380.747201 292.021341 
L 380.886489 273.896074 
L 381.025844 274.197547 
L 381.165604 267.666471 
L 381.30505 282.505241 
L 381.444466 284.093449 
L 381.585491 273.829459 
L 381.726373 284.747982 
L 381.865676 284.941297 
L 382.005622 289.071314 
L 382.284496 287.345138 
L 382.424339 287.241766 
L 382.563644 287.354683 
L 382.702989 284.879156 
L 382.842383 287.89318 
L 382.983848 282.318357 
L 383.123188 287.335926 
L 383.262569 277.742544 
L 383.542651 288.147682 
L 383.682175 284.367151 
L 383.821499 286.474872 
L 383.961984 282.205683 
L 384.101382 285.073529 
L 384.38033 273.774313 
L 384.519645 277.838646 
L 384.659264 274.596842 
L 384.798661 285.48018 
L 384.938754 281.756775 
L 385.078164 284.717848 
L 385.217964 283.804328 
L 385.497906 285.424076 
L 385.7778 299.346441 
L 385.91721 283.889532 
L 386.056558 285.456889 
L 386.196639 281.923028 
L 386.339171 283.592072 
L 386.479007 288.805043 
L 387.039687 275.198565 
L 387.178981 268.314831 
L 387.318323 269.586676 
L 387.457754 266.532204 
L 387.598495 280.486161 
L 387.737841 279.207456 
L 388.017501 283.421404 
L 388.575531 275.500652 
L 388.714863 275.987514 
L 388.854672 275.587461 
L 388.993993 281.751346 
L 389.133377 282.510377 
L 389.272758 280.368353 
L 389.412856 280.367147 
L 389.552149 279.642008 
L 389.69152 283.183236 
L 389.83097 281.477327 
L 389.970343 281.971438 
L 390.109733 284.05423 
L 390.249066 283.446677 
L 390.388612 283.608705 
L 390.527992 277.892451 
L 390.806756 285.346049 
L 390.946161 285.775166 
L 391.085526 289.080871 
L 391.225334 285.908076 
L 391.364776 296.93105 
L 391.504494 283.463839 
L 391.783467 279.975193 
L 391.922754 287.280251 
L 392.062046 279.228466 
L 392.201367 281.047776 
L 392.480253 278.317183 
L 392.898987 272.089059 
L 393.0384 264.617083 
L 393.177978 268.045827 
L 393.457082 259.742787 
L 393.596436 264.790787 
L 393.735723 254.471214 
L 393.875873 277.869798 
L 394.293946 268.163153 
L 394.433262 272.722884 
L 394.572939 271.220128 
L 394.712879 278.625022 
L 394.852272 275.656595 
L 394.991696 277.641789 
L 395.131087 276.887636 
L 395.270401 293.480893 
L 395.4097 291.688775 
L 395.549471 284.437601 
L 395.688787 294.483561 
L 395.828152 285.608276 
L 395.967447 289.573735 
L 396.107933 289.809135 
L 396.387701 288.790046 
L 396.527191 294.513427 
L 396.806667 290.793167 
L 396.946082 289.763378 
L 397.086618 296.290417 
L 397.226671 294.857976 
L 397.366307 300.881699 
L 397.50569 298.289646 
L 397.645184 299.000175 
L 397.784495 298.10774 
L 397.923943 281.340387 
L 398.064223 243.4902 
L 398.208481 262.24467 
L 398.3479 254.202705 
L 398.487273 259.96795 
L 398.487273 259.96795 
" clip-path="url(#pe72d46fc50)" style="fill: none; stroke: #1f77b4; stroke-width: 1.5; stroke-linecap: square"/>
   </g>
   <g id="patch_3">
    <path d="M 57.6 307.584 
L 57.6 41.472 
" style="fill: none; stroke: #000000; stroke-width: 0.8; stroke-linejoin: miter; stroke-linecap: square"/>
   </g>
   <g id="patch_4">
    <path d="M 414.72 307.584 
L 414.72 41.472 
" style="fill: none; stroke: #000000; stroke-width: 0.8; stroke-linejoin: miter; stroke-linecap: square"/>
   </g>
   <g id="patch_5">
    <path d="M 57.6 307.584 
L 414.72 307.584 
" style="fill: none; stroke: #000000; stroke-width: 0.8; stroke-linejoin: miter; stroke-linecap: square"/>
   </g>
   <g id="patch_6">
    <path d="M 57.6 41.472 
L 414.72 41.472 
" style="fill: none; stroke: #000000; stroke-width: 0.8; stroke-linejoin: miter; stroke-linecap: square"/>
   </g>
   <g id="text_15">
    <!-- pt8 link speed per 100ms -->
    <g transform="translate(159.425625 35.472)scale(0.12 -0.12)">
     <defs>
      <path id="DejaVuSans-38" d="M 2034 2216 
Q 1584 2216 1326 1975 
Q 1069 1734 1069 1313 
Q 1069 891 1326 650 
Q 1584 409 2034 409 
Q 2484 409 2743 651 
Q 3003 894 3003 1313 
Q 3003 1734 2745 1975 
Q 2488 2216 2034 2216 
z
M 1403 2484 
Q 997 2584 770 2862 
Q 544 3141 544 3541 
Q 544 4100 942 4425 
Q 1341 4750 2034 4750 
Q 2731 4750 3128 4425 
Q 3525 4100 3525 3541 
Q 3525 3141 3298 2862 
Q 3072 2584 2669 2484 
Q 3125 2378 3379 2068 
Q 3634 1759 3634 1313 
Q 3634 634 3220 271 
Q 2806 -91 2034 -91 
Q 1263 -91 848 271 
Q 434 634 434 1313 
Q 434 1759 690 2068 
Q 947 2378 1403 2484 
z
M 1172 3481 
Q 1172 3119 1398 2916 
Q 1625 2713 2034 2713 
Q 2441 2713 2670 2916 
Q 2900 3119 2900 3481 
Q 2900 3844 2670 4047 
Q 2441 4250 2034 4250 
Q 1625 4250 1398 4047 
Q 1172 3844 1172 3481 
z
" transform="scale(0.015625)"/>
      <path id="DejaVuSans-20" transform="scale(0.015625)"/>
      <path id="DejaVuSans-6c" d="M 603 4863 
L 1178 4863 
L 1178 0 
L 603 0 
L 603 4863 
z
" transform="scale(0.015625)"/>
      <path id="DejaVuSans-6e" d="M 3513 2113 
L 3513 0 
L 2938 0 
L 2938 2094 
Q 2938 2591 2744 2837 
Q 2550 3084 2163 3084 
Q 1697 3084 1428 2787 
Q 1159 2491 1159 1978 
L 1159 0 
L 581 0 
L 581 3500 
L 1159 3500 
L 1159 2956 
Q 1366 3272 1645 3428 
Q 1925 3584 2291 3584 
Q 2894 3584 3203 3211 
Q 3513 2838 3513 2113 
z
" transform="scale(0.015625)"/>
      <path id="DejaVuSans-6b" d="M 581 4863 
L 1159 4863 
L 1159 1991 
L 2875 3500 
L 3609 3500 
L 1753 1863 
L 3688 0 
L 2938 0 
L 1159 1709 
L 1159 0 
L 581 0 
L 581 4863 
z
" transform="scale(0.015625)"/>
      <path id="DejaVuSans-64" d="M 2906 2969 
L 2906 4863 
L 3481 4863 
L 3481 0 
L 2906 0 
L 2906 525 
Q 2725 213 2448 61 
Q 2172 -91 1784 -91 
Q 1150 -91 751 415 
Q 353 922 353 1747 
Q 353 2572 751 3078 
Q 1150 3584 1784 3584 
Q 2172 3584 2448 3432 
Q 2725 3281 2906 2969 
z
M 947 1747 
Q 947 1113 1208 752 
Q 1469 391 1925 391 
Q 2381 391 2643 752 
Q 2906 1113 2906 1747 
Q 2906 2381 2643 2742 
Q 2381 3103 1925 3103 
Q 1469 3103 1208 2742 
Q 947 2381 947 1747 
z
" transform="scale(0.015625)"/>
      <path id="DejaVuSans-72" d="M 2631 2963 
Q 2534 3019 2420 3045 
Q 2306 3072 2169 3072 
Q 1681 3072 1420 2755 
Q 1159 2438 1159 1844 
L 1159 0 
L 581 0 
L 581 3500 
L 1159 3500 
L 1159 2956 
Q 1341 3275 1631 3429 
Q 1922 3584 2338 3584 
Q 2397 3584 2469 3576 
Q 2541 3569 2628 3553 
L 2631 2963 
z
" transform="scale(0.015625)"/>
     </defs>
     <use xlink:href="#DejaVuSans-70"/>
     <use xlink:href="#DejaVuSans-74" x="63.476562"/>
     <use xlink:href="#DejaVuSans-38" x="102.685547"/>
     <use xlink:href="#DejaVuSans-20" x="166.308594"/>
     <use xlink:href="#DejaVuSans-6c" x="198.095703"/>
     <use xlink:href="#DejaVuSans-69" x="225.878906"/>
     <use xlink:href="#DejaVuSans-6e" x="253.662109"/>
     <use xlink:href="#DejaVuSans-6b" x="317.041016"/>
     <use xlink:href="#DejaVuSans-20" x="374.951172"/>
     <use xlink:href="#DejaVuSans-73" x="406.738281"/>
     <use xlink:href="#DejaVuSans-70" x="458.837891"/>
     <use xlink:href="#DejaVuSans-65" x="522.314453"/>
     <use xlink:href="#DejaVuSans-65" x="583.837891"/>
     <use xlink:href="#DejaVuSans-64" x="645.361328"/>
     <use xlink:href="#DejaVuSans-20" x="708.837891"/>
     <use xlink:href="#DejaVuSans-70" x="740.625"/>
     <use xlink:href="#DejaVuSans-65" x="804.101562"/>
     <use xlink:href="#DejaVuSans-72" x="865.625"/>
     <use xlink:href="#DejaVuSans-20" x="906.738281"/>
     <use xlink:href="#DejaVuSans-31" x="938.525391"/>
     <use xlink:href="#DejaVuSans-30" x="1002.148438"/>
     <use xlink:href="#DejaVuSans-30" x="1065.771484"/>
     <use xlink:href="#DejaVuSans-6d" x="1129.394531"/>
     <use xlink:href="#DejaVuSans-73" x="1226.806641"/>
    </g>
   </g>
  </g>
 </g>
 <defs>
  <clipPath id="pe72d46fc50">
   <rect x="57.6" y="41.472" width="357.12" height="266.112"/>
  </clipPath>
 </defs>
</svg>
