<?xml version="1.0" encoding="utf-8" standalone="no"?>
<!DOCTYPE svg PUBLIC "-//W3C//DTD SVG 1.1//EN"
  "http://www.w3.org/Graphics/SVG/1.1/DTD/svg11.dtd">
<svg xmlns:xlink="http://www.w3.org/1999/xlink" width="460.8pt" height="345.6pt" viewBox="0 0 460.8 345.6" xmlns="http://www.w3.org/2000/svg" version="1.1">
 <metadata>
  <rdf:RDF xmlns:dc="http://purl.org/dc/elements/1.1/" xmlns:cc="http://creativecommons.org/ns#" xmlns:rdf="http://www.w3.org/1999/02/22-rdf-syntax-ns#">
   <cc:Work>
    <dc:type rdf:resource="http://purl.org/dc/dcmitype/StillImage"/>
    <dc:date>2022-07-10T02:20:21.447962</dc:date>
    <dc:format>image/svg+xml</dc:format>
    <dc:creator>
     <cc:Agent>
      <dc:title>Matplotlib v3.5.2, https://matplotlib.org/</dc:title>
     </cc:Agent>
    </dc:creator>
   </cc:Work>
  </rdf:RDF>
 </metadata>
 <defs>
  <style type="text/css">*{stroke-linejoin: round; stroke-linecap: butt}</style>
 </defs>
 <g id="figure_1">
  <g id="patch_1">
   <path d="M 0 345.6 
L 460.8 345.6 
L 460.8 0 
L 0 0 
z
" style="fill: #ffffff"/>
  </g>
  <g id="axes_1">
   <g id="patch_2">
    <path d="M 57.6 307.584 
L 414.72 307.584 
L 414.72 41.472 
L 57.6 41.472 
z
" style="fill: #ffffff"/>
   </g>
   <g id="matplotlib.axis_1">
    <g id="xtick_1">
     <g id="line2d_1">
      <defs>
       <path id="mdf3ab4c481" d="M 0 0 
L 0 3.5 
" style="stroke: #000000; stroke-width: 0.8"/>
      </defs>
      <g>
       <use xlink:href="#mdf3ab4c481" x="73.679402" y="307.584" style="stroke: #000000; stroke-width: 0.8"/>
      </g>
     </g>
     <g id="text_1">
      <!-- 0 -->
      <g transform="translate(70.498152 322.182437)scale(0.1 -0.1)">
       <defs>
        <path id="DejaVuSans-30" d="M 2034 4250 
Q 1547 4250 1301 3770 
Q 1056 3291 1056 2328 
Q 1056 1369 1301 889 
Q 1547 409 2034 409 
Q 2525 409 2770 889 
Q 3016 1369 3016 2328 
Q 3016 3291 2770 3770 
Q 2525 4250 2034 4250 
z
M 2034 4750 
Q 2819 4750 3233 4129 
Q 3647 3509 3647 2328 
Q 3647 1150 3233 529 
Q 2819 -91 2034 -91 
Q 1250 -91 836 529 
Q 422 1150 422 2328 
Q 422 3509 836 4129 
Q 1250 4750 2034 4750 
z
" transform="scale(0.015625)"/>
       </defs>
       <use xlink:href="#DejaVuSans-30"/>
      </g>
     </g>
    </g>
    <g id="xtick_2">
     <g id="line2d_2">
      <g>
       <use xlink:href="#mdf3ab4c481" x="149.92811" y="307.584" style="stroke: #000000; stroke-width: 0.8"/>
      </g>
     </g>
     <g id="text_2">
      <!-- 50 -->
      <g transform="translate(143.56561 322.182437)scale(0.1 -0.1)">
       <defs>
        <path id="DejaVuSans-35" d="M 691 4666 
L 3169 4666 
L 3169 4134 
L 1269 4134 
L 1269 2991 
Q 1406 3038 1543 3061 
Q 1681 3084 1819 3084 
Q 2600 3084 3056 2656 
Q 3513 2228 3513 1497 
Q 3513 744 3044 326 
Q 2575 -91 1722 -91 
Q 1428 -91 1123 -41 
Q 819 9 494 109 
L 494 744 
Q 775 591 1075 516 
Q 1375 441 1709 441 
Q 2250 441 2565 725 
Q 2881 1009 2881 1497 
Q 2881 1984 2565 2268 
Q 2250 2553 1709 2553 
Q 1456 2553 1204 2497 
Q 953 2441 691 2322 
L 691 4666 
z
" transform="scale(0.015625)"/>
       </defs>
       <use xlink:href="#DejaVuSans-35"/>
       <use xlink:href="#DejaVuSans-30" x="63.623047"/>
      </g>
     </g>
    </g>
    <g id="xtick_3">
     <g id="line2d_3">
      <g>
       <use xlink:href="#mdf3ab4c481" x="226.176818" y="307.584" style="stroke: #000000; stroke-width: 0.8"/>
      </g>
     </g>
     <g id="text_3">
      <!-- 100 -->
      <g transform="translate(216.633068 322.182437)scale(0.1 -0.1)">
       <defs>
        <path id="DejaVuSans-31" d="M 794 531 
L 1825 531 
L 1825 4091 
L 703 3866 
L 703 4441 
L 1819 4666 
L 2450 4666 
L 2450 531 
L 3481 531 
L 3481 0 
L 794 0 
L 794 531 
z
" transform="scale(0.015625)"/>
       </defs>
       <use xlink:href="#DejaVuSans-31"/>
       <use xlink:href="#DejaVuSans-30" x="63.623047"/>
       <use xlink:href="#DejaVuSans-30" x="127.246094"/>
      </g>
     </g>
    </g>
    <g id="xtick_4">
     <g id="line2d_4">
      <g>
       <use xlink:href="#mdf3ab4c481" x="302.425526" y="307.584" style="stroke: #000000; stroke-width: 0.8"/>
      </g>
     </g>
     <g id="text_4">
      <!-- 150 -->
      <g transform="translate(292.881776 322.182437)scale(0.1 -0.1)">
       <use xlink:href="#DejaVuSans-31"/>
       <use xlink:href="#DejaVuSans-35" x="63.623047"/>
       <use xlink:href="#DejaVuSans-30" x="127.246094"/>
      </g>
     </g>
    </g>
    <g id="xtick_5">
     <g id="line2d_5">
      <g>
       <use xlink:href="#mdf3ab4c481" x="378.674234" y="307.584" style="stroke: #000000; stroke-width: 0.8"/>
      </g>
     </g>
     <g id="text_5">
      <!-- 200 -->
      <g transform="translate(369.130484 322.182437)scale(0.1 -0.1)">
       <defs>
        <path id="DejaVuSans-32" d="M 1228 531 
L 3431 531 
L 3431 0 
L 469 0 
L 469 531 
Q 828 903 1448 1529 
Q 2069 2156 2228 2338 
Q 2531 2678 2651 2914 
Q 2772 3150 2772 3378 
Q 2772 3750 2511 3984 
Q 2250 4219 1831 4219 
Q 1534 4219 1204 4116 
Q 875 4013 500 3803 
L 500 4441 
Q 881 4594 1212 4672 
Q 1544 4750 1819 4750 
Q 2544 4750 2975 4387 
Q 3406 4025 3406 3419 
Q 3406 3131 3298 2873 
Q 3191 2616 2906 2266 
Q 2828 2175 2409 1742 
Q 1991 1309 1228 531 
z
" transform="scale(0.015625)"/>
       </defs>
       <use xlink:href="#DejaVuSans-32"/>
       <use xlink:href="#DejaVuSans-30" x="63.623047"/>
       <use xlink:href="#DejaVuSans-30" x="127.246094"/>
      </g>
     </g>
    </g>
    <g id="text_6">
     <!-- time(s) -->
     <g transform="translate(218.357656 335.860562)scale(0.1 -0.1)">
      <defs>
       <path id="DejaVuSans-74" d="M 1172 4494 
L 1172 3500 
L 2356 3500 
L 2356 3053 
L 1172 3053 
L 1172 1153 
Q 1172 725 1289 603 
Q 1406 481 1766 481 
L 2356 481 
L 2356 0 
L 1766 0 
Q 1100 0 847 248 
Q 594 497 594 1153 
L 594 3053 
L 172 3053 
L 172 3500 
L 594 3500 
L 594 4494 
L 1172 4494 
z
" transform="scale(0.015625)"/>
       <path id="DejaVuSans-69" d="M 603 3500 
L 1178 3500 
L 1178 0 
L 603 0 
L 603 3500 
z
M 603 4863 
L 1178 4863 
L 1178 4134 
L 603 4134 
L 603 4863 
z
" transform="scale(0.015625)"/>
       <path id="DejaVuSans-6d" d="M 3328 2828 
Q 3544 3216 3844 3400 
Q 4144 3584 4550 3584 
Q 5097 3584 5394 3201 
Q 5691 2819 5691 2113 
L 5691 0 
L 5113 0 
L 5113 2094 
Q 5113 2597 4934 2840 
Q 4756 3084 4391 3084 
Q 3944 3084 3684 2787 
Q 3425 2491 3425 1978 
L 3425 0 
L 2847 0 
L 2847 2094 
Q 2847 2600 2669 2842 
Q 2491 3084 2119 3084 
Q 1678 3084 1418 2786 
Q 1159 2488 1159 1978 
L 1159 0 
L 581 0 
L 581 3500 
L 1159 3500 
L 1159 2956 
Q 1356 3278 1631 3431 
Q 1906 3584 2284 3584 
Q 2666 3584 2933 3390 
Q 3200 3197 3328 2828 
z
" transform="scale(0.015625)"/>
       <path id="DejaVuSans-65" d="M 3597 1894 
L 3597 1613 
L 953 1613 
Q 991 1019 1311 708 
Q 1631 397 2203 397 
Q 2534 397 2845 478 
Q 3156 559 3463 722 
L 3463 178 
Q 3153 47 2828 -22 
Q 2503 -91 2169 -91 
Q 1331 -91 842 396 
Q 353 884 353 1716 
Q 353 2575 817 3079 
Q 1281 3584 2069 3584 
Q 2775 3584 3186 3129 
Q 3597 2675 3597 1894 
z
M 3022 2063 
Q 3016 2534 2758 2815 
Q 2500 3097 2075 3097 
Q 1594 3097 1305 2825 
Q 1016 2553 972 2059 
L 3022 2063 
z
" transform="scale(0.015625)"/>
       <path id="DejaVuSans-28" d="M 1984 4856 
Q 1566 4138 1362 3434 
Q 1159 2731 1159 2009 
Q 1159 1288 1364 580 
Q 1569 -128 1984 -844 
L 1484 -844 
Q 1016 -109 783 600 
Q 550 1309 550 2009 
Q 550 2706 781 3412 
Q 1013 4119 1484 4856 
L 1984 4856 
z
" transform="scale(0.015625)"/>
       <path id="DejaVuSans-73" d="M 2834 3397 
L 2834 2853 
Q 2591 2978 2328 3040 
Q 2066 3103 1784 3103 
Q 1356 3103 1142 2972 
Q 928 2841 928 2578 
Q 928 2378 1081 2264 
Q 1234 2150 1697 2047 
L 1894 2003 
Q 2506 1872 2764 1633 
Q 3022 1394 3022 966 
Q 3022 478 2636 193 
Q 2250 -91 1575 -91 
Q 1294 -91 989 -36 
Q 684 19 347 128 
L 347 722 
Q 666 556 975 473 
Q 1284 391 1588 391 
Q 1994 391 2212 530 
Q 2431 669 2431 922 
Q 2431 1156 2273 1281 
Q 2116 1406 1581 1522 
L 1381 1569 
Q 847 1681 609 1914 
Q 372 2147 372 2553 
Q 372 3047 722 3315 
Q 1072 3584 1716 3584 
Q 2034 3584 2315 3537 
Q 2597 3491 2834 3397 
z
" transform="scale(0.015625)"/>
       <path id="DejaVuSans-29" d="M 513 4856 
L 1013 4856 
Q 1481 4119 1714 3412 
Q 1947 2706 1947 2009 
Q 1947 1309 1714 600 
Q 1481 -109 1013 -844 
L 513 -844 
Q 928 -128 1133 580 
Q 1338 1288 1338 2009 
Q 1338 2731 1133 3434 
Q 928 4138 513 4856 
z
" transform="scale(0.015625)"/>
      </defs>
      <use xlink:href="#DejaVuSans-74"/>
      <use xlink:href="#DejaVuSans-69" x="39.208984"/>
      <use xlink:href="#DejaVuSans-6d" x="66.992188"/>
      <use xlink:href="#DejaVuSans-65" x="164.404297"/>
      <use xlink:href="#DejaVuSans-28" x="225.927734"/>
      <use xlink:href="#DejaVuSans-73" x="264.941406"/>
      <use xlink:href="#DejaVuSans-29" x="317.041016"/>
     </g>
    </g>
   </g>
   <g id="matplotlib.axis_2">
    <g id="ytick_1">
     <g id="line2d_6">
      <defs>
       <path id="m993595058b" d="M 0 0 
L -3.5 0 
" style="stroke: #000000; stroke-width: 0.8"/>
      </defs>
      <g>
       <use xlink:href="#m993595058b" x="57.6" y="307.584" style="stroke: #000000; stroke-width: 0.8"/>
      </g>
     </g>
     <g id="text_7">
      <!-- 0 -->
      <g transform="translate(44.2375 311.383219)scale(0.1 -0.1)">
       <use xlink:href="#DejaVuSans-30"/>
      </g>
     </g>
    </g>
    <g id="ytick_2">
     <g id="line2d_7">
      <g>
       <use xlink:href="#m993595058b" x="57.6" y="263.232" style="stroke: #000000; stroke-width: 0.8"/>
      </g>
     </g>
     <g id="text_8">
      <!-- 50 -->
      <g transform="translate(37.875 267.031219)scale(0.1 -0.1)">
       <use xlink:href="#DejaVuSans-35"/>
       <use xlink:href="#DejaVuSans-30" x="63.623047"/>
      </g>
     </g>
    </g>
    <g id="ytick_3">
     <g id="line2d_8">
      <g>
       <use xlink:href="#m993595058b" x="57.6" y="218.88" style="stroke: #000000; stroke-width: 0.8"/>
      </g>
     </g>
     <g id="text_9">
      <!-- 100 -->
      <g transform="translate(31.5125 222.679219)scale(0.1 -0.1)">
       <use xlink:href="#DejaVuSans-31"/>
       <use xlink:href="#DejaVuSans-30" x="63.623047"/>
       <use xlink:href="#DejaVuSans-30" x="127.246094"/>
      </g>
     </g>
    </g>
    <g id="ytick_4">
     <g id="line2d_9">
      <g>
       <use xlink:href="#m993595058b" x="57.6" y="174.528" style="stroke: #000000; stroke-width: 0.8"/>
      </g>
     </g>
     <g id="text_10">
      <!-- 150 -->
      <g transform="translate(31.5125 178.327219)scale(0.1 -0.1)">
       <use xlink:href="#DejaVuSans-31"/>
       <use xlink:href="#DejaVuSans-35" x="63.623047"/>
       <use xlink:href="#DejaVuSans-30" x="127.246094"/>
      </g>
     </g>
    </g>
    <g id="ytick_5">
     <g id="line2d_10">
      <g>
       <use xlink:href="#m993595058b" x="57.6" y="130.176" style="stroke: #000000; stroke-width: 0.8"/>
      </g>
     </g>
     <g id="text_11">
      <!-- 200 -->
      <g transform="translate(31.5125 133.975219)scale(0.1 -0.1)">
       <use xlink:href="#DejaVuSans-32"/>
       <use xlink:href="#DejaVuSans-30" x="63.623047"/>
       <use xlink:href="#DejaVuSans-30" x="127.246094"/>
      </g>
     </g>
    </g>
    <g id="ytick_6">
     <g id="line2d_11">
      <g>
       <use xlink:href="#m993595058b" x="57.6" y="85.824" style="stroke: #000000; stroke-width: 0.8"/>
      </g>
     </g>
     <g id="text_12">
      <!-- 250 -->
      <g transform="translate(31.5125 89.623219)scale(0.1 -0.1)">
       <use xlink:href="#DejaVuSans-32"/>
       <use xlink:href="#DejaVuSans-35" x="63.623047"/>
       <use xlink:href="#DejaVuSans-30" x="127.246094"/>
      </g>
     </g>
    </g>
    <g id="ytick_7">
     <g id="line2d_12">
      <g>
       <use xlink:href="#m993595058b" x="57.6" y="41.472" style="stroke: #000000; stroke-width: 0.8"/>
      </g>
     </g>
     <g id="text_13">
      <!-- 300 -->
      <g transform="translate(31.5125 45.271219)scale(0.1 -0.1)">
       <defs>
        <path id="DejaVuSans-33" d="M 2597 2516 
Q 3050 2419 3304 2112 
Q 3559 1806 3559 1356 
Q 3559 666 3084 287 
Q 2609 -91 1734 -91 
Q 1441 -91 1130 -33 
Q 819 25 488 141 
L 488 750 
Q 750 597 1062 519 
Q 1375 441 1716 441 
Q 2309 441 2620 675 
Q 2931 909 2931 1356 
Q 2931 1769 2642 2001 
Q 2353 2234 1838 2234 
L 1294 2234 
L 1294 2753 
L 1863 2753 
Q 2328 2753 2575 2939 
Q 2822 3125 2822 3475 
Q 2822 3834 2567 4026 
Q 2313 4219 1838 4219 
Q 1578 4219 1281 4162 
Q 984 4106 628 3988 
L 628 4550 
Q 988 4650 1302 4700 
Q 1616 4750 1894 4750 
Q 2613 4750 3031 4423 
Q 3450 4097 3450 3541 
Q 3450 3153 3228 2886 
Q 3006 2619 2597 2516 
z
" transform="scale(0.015625)"/>
       </defs>
       <use xlink:href="#DejaVuSans-33"/>
       <use xlink:href="#DejaVuSans-30" x="63.623047"/>
       <use xlink:href="#DejaVuSans-30" x="127.246094"/>
      </g>
     </g>
    </g>
    <g id="text_14">
     <!-- Mbps -->
     <g transform="translate(25.432812 187.795187)rotate(-90)scale(0.1 -0.1)">
      <defs>
       <path id="DejaVuSans-4d" d="M 628 4666 
L 1569 4666 
L 2759 1491 
L 3956 4666 
L 4897 4666 
L 4897 0 
L 4281 0 
L 4281 4097 
L 3078 897 
L 2444 897 
L 1241 4097 
L 1241 0 
L 628 0 
L 628 4666 
z
" transform="scale(0.015625)"/>
       <path id="DejaVuSans-62" d="M 3116 1747 
Q 3116 2381 2855 2742 
Q 2594 3103 2138 3103 
Q 1681 3103 1420 2742 
Q 1159 2381 1159 1747 
Q 1159 1113 1420 752 
Q 1681 391 2138 391 
Q 2594 391 2855 752 
Q 3116 1113 3116 1747 
z
M 1159 2969 
Q 1341 3281 1617 3432 
Q 1894 3584 2278 3584 
Q 2916 3584 3314 3078 
Q 3713 2572 3713 1747 
Q 3713 922 3314 415 
Q 2916 -91 2278 -91 
Q 1894 -91 1617 61 
Q 1341 213 1159 525 
L 1159 0 
L 581 0 
L 581 4863 
L 1159 4863 
L 1159 2969 
z
" transform="scale(0.015625)"/>
       <path id="DejaVuSans-70" d="M 1159 525 
L 1159 -1331 
L 581 -1331 
L 581 3500 
L 1159 3500 
L 1159 2969 
Q 1341 3281 1617 3432 
Q 1894 3584 2278 3584 
Q 2916 3584 3314 3078 
Q 3713 2572 3713 1747 
Q 3713 922 3314 415 
Q 2916 -91 2278 -91 
Q 1894 -91 1617 61 
Q 1341 213 1159 525 
z
M 3116 1747 
Q 3116 2381 2855 2742 
Q 2594 3103 2138 3103 
Q 1681 3103 1420 2742 
Q 1159 2381 1159 1747 
Q 1159 1113 1420 752 
Q 1681 391 2138 391 
Q 2594 391 2855 752 
Q 3116 1113 3116 1747 
z
" transform="scale(0.015625)"/>
      </defs>
      <use xlink:href="#DejaVuSans-4d"/>
      <use xlink:href="#DejaVuSans-62" x="86.279297"/>
      <use xlink:href="#DejaVuSans-70" x="149.755859"/>
      <use xlink:href="#DejaVuSans-73" x="213.232422"/>
     </g>
    </g>
   </g>
   <g id="line2d_13">
    <path d="M 73.832727 290.686224 
L 73.985316 282.545855 
L 74.138006 298.800059 
L 74.599574 278.059411 
L 74.752278 278.798797 
L 74.905608 289.595863 
L 75.058225 279.393861 
L 75.210767 279.561698 
L 75.363355 283.097581 
L 75.51594 282.823949 
L 75.974146 286.687463 
L 76.127475 285.961068 
L 76.280405 279.80173 
L 76.433075 289.610065 
L 76.585608 288.011049 
L 76.738125 279.920654 
L 76.890666 296.996284 
L 77.043179 290.600972 
L 77.197484 290.109355 
L 77.350134 290.236825 
L 77.503063 294.013549 
L 77.961003 286.966018 
L 78.113542 289.684122 
L 78.419657 286.569682 
L 78.572181 296.094267 
L 78.725274 288.697933 
L 79.030942 287.586094 
L 79.184089 271.718518 
L 79.489259 290.451532 
L 79.642125 289.695374 
L 79.79543 289.799358 
L 79.948676 293.366368 
L 80.104601 292.677166 
L 80.257474 287.230971 
L 80.40998 286.468461 
L 80.562626 292.224923 
L 80.868103 291.904615 
L 81.02514 296.163166 
L 81.177678 290.345813 
L 81.330998 291.492634 
L 81.636514 301.184233 
L 81.789236 298.603564 
L 81.943379 298.244342 
L 82.096379 296.921 
L 82.249296 297.043586 
L 82.555419 300.754116 
L 82.70802 297.644787 
L 82.860565 282.677491 
L 83.167637 297.210934 
L 83.473786 286.875915 
L 83.626342 296.170688 
L 83.778859 293.898758 
L 84.085312 292.964156 
L 84.390797 274.479523 
L 84.543357 282.210571 
L 84.848546 273.832505 
L 85.153692 282.838816 
L 85.306256 276.303332 
L 85.45911 283.543818 
L 85.764898 273.616047 
L 85.917403 278.731332 
L 86.22268 270.939098 
L 86.528102 275.577857 
L 86.681036 271.280289 
L 86.835113 280.235378 
L 86.987673 281.103646 
L 87.140283 273.776811 
L 87.292816 275.079422 
L 87.446632 274.933966 
L 87.59938 260.947141 
L 87.90458 275.097758 
L 88.057148 274.363299 
L 88.36262 284.64444 
L 88.515421 277.971498 
L 88.820702 282.461671 
L 88.974429 277.170851 
L 89.127064 278.375501 
L 89.280748 277.981201 
L 89.435848 284.993489 
L 89.588384 281.664835 
L 89.741549 284.773762 
L 89.894101 278.418726 
L 90.047229 284.021656 
L 90.352545 272.48816 
L 90.658363 281.226979 
L 90.811225 279.854882 
L 91.1166 274.394027 
L 91.273181 280.98976 
L 91.425749 281.627119 
L 91.578267 283.026341 
L 91.730878 289.800527 
L 92.036429 272.267967 
L 92.190054 279.11011 
L 92.34256 279.199367 
L 92.495244 278.956 
L 92.954096 274.766849 
L 93.107975 282.756983 
L 93.261758 275.398292 
L 93.414576 273.840184 
L 93.567145 281.703883 
L 93.719961 268.947774 
L 93.872626 273.495105 
L 94.025299 273.970873 
L 94.178904 275.138782 
L 94.484164 283.782063 
L 94.636675 277.408731 
L 94.790162 282.654052 
L 94.942809 283.145929 
L 95.095384 282.702221 
L 95.249155 277.246444 
L 95.402317 285.787272 
L 95.708887 267.54893 
L 95.862556 279.49487 
L 96.169879 249.290426 
L 96.32371 287.608394 
L 96.47623 280.641237 
L 96.62918 282.966283 
L 96.939822 281.311927 
L 97.092627 283.079643 
L 97.24516 281.160452 
L 97.397938 280.91062 
L 97.550904 284.52733 
L 97.703404 279.421016 
L 97.855987 282.959542 
L 98.008824 278.353084 
L 98.161352 262.640299 
L 98.313865 268.487618 
L 98.466928 241.129904 
L 98.619491 273.492231 
L 98.772091 269.957383 
L 98.924867 275.257859 
L 99.077372 256.351596 
L 99.2301 256.650425 
L 99.382706 219.695362 
L 99.689099 276.102011 
L 99.84252 270.782679 
L 99.995504 272.327616 
L 100.300653 257.499253 
L 100.453306 264.400751 
L 100.60623 282.718414 
L 100.759178 282.212009 
L 100.91168 275.071026 
L 101.22211 286.754761 
L 101.374999 276.407725 
L 101.680916 269.999225 
L 101.834925 281.264487 
L 101.987464 281.528009 
L 102.140014 276.035659 
L 102.292748 277.57205 
L 102.599628 271.437077 
L 102.752307 272.487822 
L 102.904876 268.75351 
L 103.210748 279.111643 
L 103.516651 276.595442 
L 103.669356 276.814147 
L 103.82191 271.872319 
L 103.974476 273.04598 
L 104.127019 271.394472 
L 104.434824 278.414826 
L 104.740481 267.162708 
L 105.046077 269.623355 
L 105.198978 276.653269 
L 105.351602 268.06971 
L 105.504138 271.40809 
L 105.656797 267.89335 
L 105.81034 273.366884 
L 105.962896 267.390453 
L 106.115459 280.018175 
L 106.26806 244.295431 
L 106.420821 282.151518 
L 106.573346 288.016972 
L 106.881148 281.171601 
L 107.035997 282.235207 
L 107.189044 285.284844 
L 107.34259 284.070013 
L 107.496039 287.783601 
L 107.648654 275.873416 
L 107.80122 277.20556 
L 108.108891 288.729896 
L 108.261425 285.768128 
L 108.414016 288.051014 
L 108.566795 288.555747 
L 108.719701 285.695676 
L 108.872312 289.172487 
L 109.024962 283.560855 
L 109.177733 273.127381 
L 109.330261 272.511341 
L 109.483135 266.269619 
L 109.637603 277.482802 
L 109.791046 272.929924 
L 109.943545 272.957085 
L 110.096102 267.655905 
L 110.248644 268.581644 
L 110.401155 271.635153 
L 110.553814 268.208994 
L 110.706432 269.863369 
L 111.011828 256.674729 
L 111.317065 265.507101 
L 111.622162 269.649299 
L 111.775187 279.329533 
L 112.081925 282.236461 
L 112.387008 278.417422 
L 112.53971 278.983558 
L 112.692328 274.91672 
L 112.844962 274.863784 
L 112.998027 274.173449 
L 113.15136 279.834695 
L 113.304158 277.477575 
L 113.763081 291.196852 
L 113.916127 287.954989 
L 114.068958 291.542613 
L 114.222025 288.882323 
L 114.374913 282.3846 
L 114.527418 289.309678 
L 114.832501 283.621576 
L 114.985169 284.655273 
L 115.138581 289.866332 
L 115.291337 287.562457 
L 115.443935 288.927881 
L 115.597077 285.385699 
L 115.749605 289.714738 
L 115.903481 284.30546 
L 116.056222 283.0543 
L 116.208871 294.226925 
L 116.361707 294.326915 
L 116.515049 294.221072 
L 116.668117 292.238924 
L 116.821247 292.804982 
L 116.973978 290.525551 
L 117.126768 291.768825 
L 117.279276 292.08009 
L 117.431876 286.161914 
L 117.737642 292.630169 
L 117.890382 288.506685 
L 118.044316 290.031688 
L 118.196859 287.890977 
L 118.349659 291.023838 
L 118.502247 290.585245 
L 118.809513 286.988785 
L 118.963395 288.459428 
L 119.11707 288.619577 
L 119.270266 285.379691 
L 119.422931 285.322514 
L 119.576955 287.523891 
L 119.730454 286.156238 
L 119.886564 289.000645 
L 120.043575 296.798402 
L 120.19614 294.592177 
L 120.348994 285.663674 
L 120.501919 286.093835 
L 120.655398 288.462183 
L 120.807955 287.976701 
L 120.960538 286.539143 
L 121.113261 286.26817 
L 121.265832 278.910609 
L 121.725256 287.630979 
L 121.877759 290.241354 
L 122.031056 287.143725 
L 122.183558 288.214216 
L 122.336304 292.340311 
L 122.489109 284.722807 
L 122.641672 283.777776 
L 122.794325 284.578412 
L 122.947674 284.315815 
L 123.405506 294.502846 
L 123.558316 293.754381 
L 123.864226 285.78744 
L 124.016777 286.902617 
L 124.169957 286.015377 
L 124.322508 287.503909 
L 124.475275 287.739094 
L 124.627806 284.875379 
L 124.780365 289.946152 
L 124.933185 287.741906 
L 125.086067 288.246394 
L 125.238578 291.196296 
L 125.391274 290.414777 
L 125.543974 290.782485 
L 125.696569 289.857726 
L 125.849158 291.838525 
L 126.154363 288.209551 
L 126.306904 283.832255 
L 126.45972 292.501895 
L 126.765172 286.318529 
L 126.917677 284.094302 
L 127.071308 286.864099 
L 127.223811 284.974223 
L 127.376731 285.126819 
L 127.52935 285.813402 
L 127.681863 283.752868 
L 127.834944 289.329883 
L 127.987785 287.340011 
L 128.140424 289.148666 
L 128.292932 275.598266 
L 128.445889 277.606964 
L 128.599464 287.781104 
L 128.752651 289.282731 
L 128.905525 283.798947 
L 129.058123 284.978087 
L 129.211601 289.413218 
L 129.364347 286.145487 
L 129.51917 286.869512 
L 129.671828 285.603855 
L 129.825318 282.170635 
L 129.977841 284.903069 
L 130.130418 283.211939 
L 130.282966 287.320302 
L 130.435513 281.352996 
L 130.7409 289.688244 
L 130.894142 289.835742 
L 131.046815 287.062113 
L 131.199489 289.803526 
L 131.352177 288.194627 
L 131.505027 284.60289 
L 131.659072 284.686452 
L 131.811607 281.220384 
L 131.964504 288.657974 
L 132.117104 287.479761 
L 132.422597 281.674698 
L 132.575142 282.577294 
L 132.728291 284.693767 
L 132.881619 284.874567 
L 133.034251 275.10594 
L 133.340055 286.707838 
L 133.645718 282.775163 
L 133.798306 286.360403 
L 134.103546 282.734445 
L 134.410214 286.009868 
L 134.562793 285.464543 
L 134.720357 287.281528 
L 134.872892 284.990539 
L 135.026041 287.944768 
L 135.179836 287.476876 
L 135.332472 291.424329 
L 135.638455 273.68725 
L 135.79103 285.194464 
L 135.944112 286.724059 
L 136.096779 286.206684 
L 136.249454 279.248615 
L 136.401982 277.629719 
L 136.55473 278.591464 
L 136.707253 286.339514 
L 137.012567 272.969485 
L 137.165587 284.015606 
L 137.318159 284.199535 
L 137.470869 285.287331 
L 137.623542 285.04377 
L 137.77606 286.006703 
L 137.929852 285.055425 
L 138.235006 285.767052 
L 138.391118 282.282434 
L 138.544072 285.830049 
L 138.849269 273.123124 
L 139.002527 268.780745 
L 139.155149 269.436801 
L 139.307866 273.719348 
L 139.460381 272.938826 
L 139.612907 283.761576 
L 140.378944 290.933708 
L 140.531741 287.489772 
L 140.68673 292.022313 
L 140.840313 280.881862 
L 140.993207 289.012243 
L 141.145963 285.859243 
L 141.298801 286.383383 
L 141.60589 290.856808 
L 141.75893 291.243788 
L 142.065094 282.885878 
L 142.217606 290.071084 
L 142.370124 285.994523 
L 142.677902 288.154272 
L 142.830833 288.185823 
L 142.983812 288.664789 
L 143.136456 293.132514 
L 143.289138 284.732972 
L 143.442241 289.324003 
L 143.595064 289.016481 
L 143.748512 282.070749 
L 143.901147 282.611576 
L 144.054943 289.494089 
L 144.207463 288.68438 
L 144.360412 288.949206 
L 144.666167 293.783414 
L 144.818919 293.881558 
L 144.973934 294.592309 
L 145.126799 301.025307 
L 145.432458 290.302802 
L 145.585032 292.227719 
L 145.737542 284.516931 
L 145.890783 288.050976 
L 146.043549 284.927719 
L 146.200169 299.494509 
L 146.353711 299.451614 
L 146.659413 287.290603 
L 146.812411 288.651942 
L 146.964954 288.260308 
L 147.118728 292.682738 
L 147.271907 287.623529 
L 147.425371 288.426859 
L 147.578007 290.281783 
L 147.730861 285.288478 
L 147.883888 287.777165 
L 148.036998 292.282568 
L 148.19419 287.253691 
L 148.347093 287.525939 
L 148.500316 286.432321 
L 148.653704 288.884414 
L 148.807347 286.905173 
L 148.960264 283.172801 
L 149.121433 291.167883 
L 149.274963 289.434882 
L 149.427567 302.475077 
L 149.582583 302.560995 
L 149.88922 289.666119 
L 150.197795 286.879721 
L 150.351918 289.682857 
L 150.50457 289.346945 
L 150.657512 290.060378 
L 150.963489 286.334456 
L 151.116434 279.243278 
L 151.269103 279.928682 
L 151.42347 296.670607 
L 151.580729 295.394589 
L 151.733322 290.022776 
L 152.041288 295.66279 
L 152.194163 292.151116 
L 152.346818 278.931028 
L 152.499544 279.57812 
L 152.654692 296.991208 
L 152.963318 301.282846 
L 153.116417 301.27966 
L 153.269877 301.475822 
L 153.578396 281.469292 
L 153.733207 287.821981 
L 153.885791 285.062765 
L 154.039204 284.903532 
L 154.498555 296.65979 
L 154.804436 278.159521 
L 154.957008 280.284447 
L 155.109531 280.227535 
L 155.415389 290.128345 
L 155.720637 246.255548 
L 155.873208 245.171883 
L 156.025769 251.295165 
L 156.179625 293.799649 
L 156.33214 292.215505 
L 156.484854 288.747139 
L 156.637503 290.252374 
L 156.790468 293.88631 
L 156.94409 287.132126 
L 157.098985 287.901109 
L 157.404845 292.395868 
L 157.862922 276.936947 
L 158.016774 278.13288 
L 158.169375 273.925396 
L 158.477325 278.538968 
L 158.632546 275.673738 
L 158.937614 279.84904 
L 159.090452 274.818815 
L 159.24323 279.469206 
L 159.395822 276.913132 
L 159.548327 279.284892 
L 159.858318 297.091591 
L 160.010853 295.316027 
L 160.163788 282.208433 
L 160.316555 280.15564 
L 160.469329 284.874064 
L 160.622162 278.971366 
L 160.774803 281.607315 
L 161.081246 278.520159 
L 161.23633 279.822263 
L 161.541834 272.444621 
L 162.001592 223.028721 
L 162.154229 268.882008 
L 162.306753 272.856198 
L 162.614812 271.996559 
L 162.767773 272.072837 
L 162.920301 270.392633 
L 163.074374 278.228534 
L 163.379396 282.430189 
L 163.532114 277.722589 
L 163.684696 277.831683 
L 163.837466 280.443566 
L 164.143108 269.321443 
L 164.296038 282.164619 
L 164.449243 284.695933 
L 164.601901 280.605292 
L 164.754906 281.38745 
L 164.9076 283.30442 
L 165.213252 273.580043 
L 165.365753 253.350593 
L 165.824219 281.705341 
L 165.97786 277.826203 
L 166.130359 280.114607 
L 166.283342 279.995383 
L 166.435871 283.20222 
L 166.589253 273.938546 
L 166.741859 277.41877 
L 166.894521 266.167704 
L 167.199772 280.133911 
L 167.35244 273.348013 
L 167.505262 281.201433 
L 167.6579 265.194344 
L 167.813173 290.312851 
L 167.965722 288.403896 
L 168.118239 289.20585 
L 168.27083 276.117105 
L 168.423338 276.577195 
L 168.575838 269.454468 
L 168.728366 268.608447 
L 168.881056 261.986559 
L 169.187891 280.250557 
L 169.340735 274.515933 
L 169.494198 231.266246 
L 169.647712 227.482919 
L 169.800214 272.927392 
L 169.954331 280.003417 
L 170.107105 281.519965 
L 170.413062 274.837073 
L 170.566767 279.748783 
L 170.719283 278.830319 
L 170.871998 281.771606 
L 171.024707 278.411149 
L 171.177246 282.414119 
L 171.330543 276.467911 
L 171.483688 282.453693 
L 171.636462 283.74207 
L 171.789104 278.568841 
L 171.941708 278.678387 
L 172.246961 280.55736 
L 172.399549 275.299825 
L 172.552683 287.170401 
L 172.70527 281.168876 
L 172.860818 283.260196 
L 173.013416 281.71245 
L 173.31858 284.418777 
L 173.472206 280.023619 
L 173.625052 279.43686 
L 173.777804 282.100268 
L 173.930884 272.196501 
L 174.236271 283.430049 
L 174.388816 283.117586 
L 174.694741 289.366162 
L 174.847328 286.740517 
L 174.999964 281.65008 
L 175.308345 282.592508 
L 175.615685 290.18517 
L 175.768248 303.8474 
L 175.930766 304.666863 
L 176.086821 304.157853 
L 176.553895 297.251651 
L 176.706516 283.615125 
L 176.859434 289.07237 
L 177.012082 276.64734 
L 177.170041 289.68106 
L 177.322564 286.504953 
L 177.475133 289.347316 
L 177.628134 285.577466 
L 177.783712 288.64765 
L 177.937171 300.527039 
L 178.090328 301.013926 
L 178.243102 296.238164 
L 178.395601 283.400978 
L 178.548723 284.528106 
L 178.701392 276.730555 
L 179.006526 303.671402 
L 179.159272 287.966854 
L 179.311882 295.798592 
L 179.465676 294.60347 
L 179.618556 287.427214 
L 179.771342 290.320863 
L 180.076899 288.352842 
L 180.534489 275.666974 
L 180.687154 287.307901 
L 180.839818 288.956716 
L 180.992338 288.849484 
L 181.150569 286.279826 
L 181.303904 288.622478 
L 181.456581 283.242539 
L 181.609233 283.875741 
L 181.763725 293.59626 
L 182.07128 280.538525 
L 182.223918 281.399493 
L 182.376444 281.017032 
L 182.529488 279.258127 
L 182.683531 263.748164 
L 182.836418 269.436407 
L 182.988949 280.850909 
L 183.141455 272.733131 
L 183.293991 281.229451 
L 183.446721 272.405 
L 183.599448 283.341069 
L 183.752041 284.350991 
L 183.904703 283.857185 
L 184.057202 288.025489 
L 184.209855 288.731162 
L 184.515227 275.608104 
L 184.668423 284.780392 
L 184.821141 279.799931 
L 184.974563 291.374263 
L 185.12943 289.719897 
L 185.434928 296.970055 
L 185.587843 301.86172 
L 185.7404 290.275834 
L 185.893192 298.424976 
L 186.054121 300.175122 
L 186.207489 294.802509 
L 186.517197 301.134982 
L 186.670265 301.954465 
L 186.830888 297.938813 
L 186.984973 299.156091 
L 187.137479 302.198346 
L 187.45303 299.247566 
L 187.758935 286.921744 
L 187.912255 290.061762 
L 188.525245 266.152928 
L 188.678807 265.411876 
L 188.831777 278.938409 
L 189.137956 271.787221 
L 189.290465 276.707432 
L 189.445578 286.315049 
L 189.598251 284.724775 
L 189.750965 288.93785 
L 190.056324 284.600802 
L 190.208827 281.998299 
L 190.361499 284.443269 
L 190.514074 239.554725 
L 190.668751 290.718733 
L 190.82189 285.410934 
L 191.135416 285.30104 
L 191.288148 281.193662 
L 191.441098 286.794903 
L 191.593705 279.46141 
L 191.899763 286.564637 
L 192.053351 284.923919 
L 192.205874 287.754713 
L 192.512559 284.13136 
L 192.665491 285.653227 
L 192.819048 293.341943 
L 192.972738 285.038769 
L 193.125374 290.681586 
L 193.27791 284.559755 
L 193.430866 285.864542 
L 193.583443 280.311983 
L 193.735948 279.684971 
L 193.888555 272.877439 
L 194.194107 279.818165 
L 194.348818 278.643751 
L 194.502208 276.156359 
L 194.654777 276.100458 
L 194.807331 282.06661 
L 194.959903 275.509079 
L 195.265957 276.134011 
L 195.41933 286.447212 
L 195.571922 284.61541 
L 195.724686 288.133639 
L 196.336302 276.951072 
L 196.488817 275.612316 
L 196.641734 278.497283 
L 196.948318 273.804391 
L 197.100924 265.161711 
L 197.558729 280.199071 
L 197.713029 273.814734 
L 197.865654 280.350455 
L 198.018231 279.514568 
L 198.170942 281.557681 
L 198.32442 294.643544 
L 198.478448 294.5247 
L 198.631209 284.293878 
L 198.784084 284.500163 
L 198.937729 284.062815 
L 199.090442 287.281333 
L 199.396013 280.862847 
L 199.548552 284.120713 
L 199.853711 283.549639 
L 200.160576 288.358155 
L 200.465663 283.154421 
L 200.621005 285.575237 
L 200.926723 282.734169 
L 201.079252 283.901096 
L 201.232085 287.127641 
L 201.384822 284.044474 
L 201.537787 284.512217 
L 201.692511 279.578393 
L 201.845628 282.965575 
L 201.998429 281.455484 
L 202.151005 283.908096 
L 202.304165 281.63306 
L 202.609426 283.76209 
L 202.761959 286.607099 
L 202.914507 278.339102 
L 203.220706 286.237346 
L 203.373525 301.100602 
L 203.526064 301.064454 
L 203.678673 300.440284 
L 203.831371 287.785935 
L 203.983995 285.061853 
L 204.144423 290.651417 
L 204.44989 287.929352 
L 204.757581 293.591246 
L 204.910097 291.428549 
L 205.062687 284.693163 
L 205.216316 286.255401 
L 205.521345 277.814831 
L 205.673854 280.63766 
L 205.826588 243.866598 
L 206.13353 299.269784 
L 206.286137 290.523105 
L 206.438707 289.773405 
L 206.591247 293.488848 
L 206.905236 290.204259 
L 207.058238 294.233326 
L 207.210789 292.778946 
L 207.363337 286.755869 
L 207.668598 291.667902 
L 207.821556 286.512759 
L 207.974635 285.128445 
L 208.128779 290.826344 
L 208.433858 282.562376 
L 208.743658 295.009855 
L 208.899858 290.792969 
L 209.052407 283.550621 
L 209.360531 302.011403 
L 209.513132 292.583306 
L 209.821212 255.540001 
L 209.973787 253.003301 
L 210.129062 253.428487 
L 210.282001 296.958653 
L 210.434801 284.487321 
L 210.589255 299.180438 
L 210.749642 302.051617 
L 210.902852 295.144743 
L 211.056601 297.407629 
L 211.362613 272.630045 
L 211.516334 279.098701 
L 211.669003 221.996745 
L 211.822774 210.451082 
L 211.976238 230.893367 
L 212.129672 279.628913 
L 212.282333 280.951623 
L 212.435434 285.984252 
L 212.590071 282.793506 
L 212.743014 283.433088 
L 213.048523 276.523934 
L 213.201079 271.615695 
L 213.353717 270.33372 
L 213.507032 270.918544 
L 213.814692 280.456263 
L 213.967585 279.518183 
L 214.120854 280.154051 
L 214.426149 276.163164 
L 214.578674 282.007226 
L 214.73119 269.291209 
L 215.036348 284.847017 
L 215.341744 279.528125 
L 215.494326 284.224641 
L 215.646897 256.431518 
L 215.799654 260.801841 
L 215.952316 282.234043 
L 216.10514 282.217164 
L 216.258029 289.121918 
L 216.412135 278.063483 
L 216.564639 286.422088 
L 216.717318 280.534236 
L 216.86989 279.466918 
L 217.175095 282.612757 
L 217.327655 276.746909 
L 217.480479 291.50251 
L 217.785962 285.666821 
L 217.93866 288.08906 
L 218.091208 282.317261 
L 218.245903 283.502227 
L 218.551341 280.07628 
L 218.704113 284.034139 
L 218.856896 280.382304 
L 219.009525 282.103581 
L 219.3158 289.645369 
L 219.470812 290.486326 
L 219.624214 293.35892 
L 219.930301 287.91207 
L 220.087247 292.110506 
L 220.24094 288.315164 
L 220.393852 289.801289 
L 220.546415 284.36177 
L 220.69894 285.739212 
L 220.853418 284.540737 
L 221.008532 293.978783 
L 221.313815 287.206971 
L 221.466665 287.566537 
L 221.621734 293.783561 
L 221.774534 289.586588 
L 222.389936 300.960985 
L 222.543388 292.246012 
L 222.695918 295.258159 
L 222.848574 294.300404 
L 223.001149 290.9736 
L 223.153982 273.253903 
L 223.307178 291.08455 
L 223.460846 294.154419 
L 223.766192 253.030669 
L 223.918978 293.727382 
L 224.071791 298.901169 
L 224.531692 283.249839 
L 224.684342 286.368623 
L 224.836876 281.627025 
L 224.989436 285.473913 
L 225.142339 276.867946 
L 225.299692 283.223041 
L 225.452359 278.265219 
L 225.606953 282.843403 
L 225.759524 278.372912 
L 225.914417 284.938255 
L 226.070448 283.120459 
L 226.223238 285.160791 
L 226.375836 282.58665 
L 226.529825 276.81363 
L 226.6826 279.165738 
L 226.836293 275.908519 
L 227.145681 286.509489 
L 227.298334 283.615218 
L 227.452965 278.543529 
L 227.60602 284.550863 
L 227.911953 287.650706 
L 228.064568 285.110477 
L 228.218543 288.077136 
L 228.372601 283.938843 
L 228.525449 287.342102 
L 228.834393 302.400201 
L 228.987039 288.860437 
L 229.140854 287.614129 
L 229.293991 283.571026 
L 229.447166 285.872892 
L 229.599762 283.942756 
L 229.752539 287.797432 
L 229.905511 286.189396 
L 230.210977 277.848623 
L 230.363794 285.304074 
L 230.516479 299.331276 
L 230.670029 298.264919 
L 230.822616 284.630345 
L 230.977442 283.646609 
L 231.131718 287.53373 
L 231.28443 282.265374 
L 231.438447 289.116156 
L 231.591289 284.256565 
L 231.744527 284.049415 
L 231.897947 285.869226 
L 232.355662 275.364836 
L 232.508475 268.848197 
L 232.661259 273.057787 
L 232.966546 285.913203 
L 233.119157 281.791057 
L 233.273517 286.440776 
L 233.426031 276.247131 
L 233.578666 281.847121 
L 233.731206 278.33967 
L 233.883712 283.288566 
L 234.190569 279.570297 
L 234.343483 286.237037 
L 234.496131 283.075116 
L 234.648786 288.288124 
L 235.108114 271.376031 
L 235.414576 287.793059 
L 235.721175 299.480551 
L 236.032437 287.209847 
L 236.186111 292.586478 
L 236.339191 284.314054 
L 236.493948 259.396766 
L 236.646708 282.857802 
L 236.79978 283.471406 
L 236.952311 286.943164 
L 237.104982 286.233959 
L 237.257597 281.22421 
L 237.410278 285.162376 
L 237.716009 285.943723 
L 237.868576 285.410417 
L 238.021083 287.766675 
L 238.173846 287.255391 
L 238.480782 274.062743 
L 238.633834 284.323029 
L 238.786376 282.661094 
L 239.094802 285.0652 
L 239.251103 283.451385 
L 239.404003 279.442028 
L 239.556642 283.517796 
L 239.862785 281.844805 
L 240.015642 283.002479 
L 240.168562 271.016861 
L 240.473967 284.699712 
L 240.6273 283.800622 
L 240.933183 279.03157 
L 241.085787 279.720609 
L 241.238551 282.85861 
L 241.391096 281.464373 
L 241.54367 274.724956 
L 241.696242 275.843031 
L 241.84878 287.473481 
L 242.154815 275.487603 
L 242.460313 283.610257 
L 242.612846 284.168016 
L 242.918474 273.592895 
L 243.070997 281.382226 
L 243.223569 280.840266 
L 243.376359 276.239573 
L 243.53016 277.569518 
L 243.835387 281.938982 
L 243.988029 280.329987 
L 244.140534 280.686929 
L 244.293052 282.85395 
L 244.445801 287.970219 
L 244.59864 284.231926 
L 244.751508 284.678081 
L 244.904074 281.419864 
L 245.058715 280.677261 
L 245.211254 281.578549 
L 245.365105 274.945636 
L 245.517704 283.690255 
L 245.67037 285.04625 
L 245.976071 274.614608 
L 246.435848 285.870258 
L 246.741697 273.981004 
L 246.895236 279.724093 
L 247.047785 280.020363 
L 247.505896 281.913797 
L 247.811525 284.210009 
L 247.96456 282.664298 
L 248.117091 284.865839 
L 248.271789 284.377911 
L 248.578034 286.170445 
L 248.730848 283.771591 
L 248.883782 285.644673 
L 249.03668 282.55632 
L 249.190569 284.43513 
L 249.343161 276.867885 
L 249.497525 275.731776 
L 249.803053 279.480472 
L 249.955845 288.450747 
L 250.108673 279.657619 
L 250.261355 278.078411 
L 250.413937 283.001096 
L 250.719011 284.840046 
L 250.873338 277.039018 
L 251.179951 302.787197 
L 251.332634 300.435128 
L 251.638581 278.647145 
L 251.791101 258.179563 
L 252.097459 286.424619 
L 252.25092 289.38998 
L 252.403924 284.966049 
L 252.556827 288.396978 
L 253.014919 277.873746 
L 253.474798 290.800654 
L 253.783937 283.689984 
L 253.938437 292.875658 
L 254.091735 292.916078 
L 254.244829 290.615001 
L 254.550702 291.272953 
L 254.858991 288.559301 
L 255.012815 290.945835 
L 255.168824 291.541738 
L 255.321398 289.260334 
L 255.475056 291.174868 
L 255.784969 287.235845 
L 256.092071 289.018637 
L 256.245268 288.875024 
L 256.551017 290.939948 
L 256.703523 286.21794 
L 256.85658 295.731045 
L 257.011635 290.703493 
L 257.322594 301.609022 
L 257.476792 301.459748 
L 257.629602 298.503876 
L 257.785279 291.991224 
L 257.938476 302.263254 
L 258.091649 299.250439 
L 258.244508 298.665572 
L 258.397968 296.393699 
L 258.551758 300.739316 
L 258.704286 297.624455 
L 258.858005 301.236236 
L 259.010606 301.932246 
L 259.165538 301.996398 
L 259.31854 303.685312 
L 259.471328 300.444982 
L 259.627461 299.710041 
L 259.933039 294.375633 
L 260.246383 300.670907 
L 260.708904 291.911561 
L 260.861664 295.57596 
L 261.014227 294.803172 
L 261.168356 294.759148 
L 261.320934 292.873803 
L 261.473487 296.021898 
L 261.786218 292.240255 
L 261.939523 294.858557 
L 262.092094 293.668621 
L 262.247803 289.334949 
L 262.401804 293.777098 
L 262.554324 280.726158 
L 262.706948 284.221679 
L 262.864265 294.781758 
L 263.172026 297.647865 
L 263.325057 293.052354 
L 263.478771 274.140691 
L 263.631302 273.847262 
L 263.783978 293.767642 
L 263.938095 297.75125 
L 264.092833 286.358259 
L 264.24564 300.198848 
L 264.398334 257.525726 
L 264.705093 288.425077 
L 264.857912 286.926108 
L 265.010478 288.509367 
L 265.163461 288.274363 
L 265.316548 294.664342 
L 265.469067 294.381491 
L 265.621789 296.384015 
L 265.77514 296.407872 
L 265.929713 301.257953 
L 266.082916 296.813525 
L 266.235658 296.617091 
L 266.38826 292.823539 
L 266.543181 296.288848 
L 266.695796 292.711923 
L 266.848658 293.739358 
L 267.153765 297.58011 
L 267.306284 296.305718 
L 267.458992 297.07992 
L 267.764759 286.444442 
L 267.91761 289.296644 
L 268.072399 286.658333 
L 268.379651 294.23215 
L 268.537562 291.004773 
L 268.690438 291.871429 
L 268.843771 297.034243 
L 268.99874 297.207771 
L 269.152595 291.608384 
L 269.458078 300.21415 
L 269.610583 294.364332 
L 269.768727 302.204225 
L 269.921321 301.414367 
L 270.074753 303.115689 
L 270.229469 303.56501 
L 270.382218 302.930847 
L 270.535638 302.813902 
L 270.854954 301.711585 
L 271.013733 304.111715 
L 271.171603 303.961241 
L 271.325293 301.609673 
L 271.484001 304.080528 
L 271.636645 301.785691 
L 271.791741 304.921193 
L 271.945582 305.60131 
L 272.09816 301.204946 
L 272.255088 301.398576 
L 272.416247 299.336879 
L 272.721449 290.794123 
L 272.874726 305.337545 
L 273.032872 303.409472 
L 273.185508 304.027355 
L 273.338039 300.700857 
L 273.492261 302.637888 
L 273.646447 301.301432 
L 273.799411 301.425602 
L 273.953409 295.6632 
L 274.115794 301.599672 
L 274.271608 299.668831 
L 274.424151 301.054772 
L 274.577709 300.380775 
L 274.730912 300.459259 
L 274.883451 298.944744 
L 275.19213 301.819895 
L 275.34463 300.215067 
L 275.497206 294.064469 
L 275.651126 297.572935 
L 275.961522 292.111551 
L 276.114748 303.702264 
L 276.267475 302.041816 
L 276.57542 303.931654 
L 276.732942 302.622922 
L 276.88872 303.187535 
L 277.044611 300.187231 
L 277.204012 303.664869 
L 277.357895 300.990526 
L 277.513491 303.781615 
L 277.667933 297.767052 
L 277.82083 303.442603 
L 278.12676 291.7594 
L 278.289485 292.238905 
L 278.446126 303.051 
L 278.606674 304.575138 
L 278.760807 302.848108 
L 278.913521 302.945524 
L 279.06839 304.149332 
L 279.533022 297.091172 
L 279.686015 297.954308 
L 279.841651 303.374174 
L 279.999002 303.339793 
L 280.156612 302.14732 
L 280.309443 302.14321 
L 280.462088 295.164682 
L 280.61813 301.75083 
L 280.772058 299.018023 
L 280.925032 299.528995 
L 281.082669 298.039993 
L 281.239046 298.98039 
L 281.549483 296.846855 
L 281.702786 297.965069 
L 281.855326 302.471173 
L 282.170253 302.971039 
L 282.325837 301.469472 
L 282.480145 303.283896 
L 282.633193 298.31158 
L 282.787829 301.843275 
L 282.94038 296.811756 
L 283.092881 302.562693 
L 283.24545 295.215026 
L 283.399201 303.218119 
L 283.552348 303.668379 
L 283.860925 301.385726 
L 284.018898 298.409346 
L 284.324384 300.958041 
L 284.480394 299.650554 
L 284.645088 295.950694 
L 284.80026 303.031977 
L 284.953046 300.69497 
L 285.113439 301.974872 
L 285.266076 295.820608 
L 285.418762 297.604316 
L 285.571372 296.812167 
L 285.880713 297.972372 
L 286.186908 300.907908 
L 286.495752 291.36406 
L 286.649532 280.275778 
L 286.802823 300.271084 
L 286.956275 298.405944 
L 287.108804 294.383633 
L 287.261323 301.788922 
L 287.414227 296.20364 
L 287.720079 302.421396 
L 287.880363 300.554298 
L 288.039258 300.539016 
L 288.357598 302.659669 
L 288.510873 302.773236 
L 288.671555 301.462241 
L 288.827293 301.686913 
L 289.135887 303.868781 
L 289.292067 302.35549 
L 289.453499 302.287901 
L 289.759783 304.800277 
L 290.223088 302.023639 
L 290.376101 302.433483 
L 290.682859 298.24765 
L 290.835807 298.340118 
L 290.98968 297.743774 
L 291.143296 294.061004 
L 291.296118 298.849487 
L 291.602105 291.195687 
L 291.759971 298.734568 
L 291.913693 287.780091 
L 292.219089 295.292547 
L 292.371796 293.879685 
L 292.524396 282.005616 
L 292.678603 290.758249 
L 292.832326 288.94315 
L 293.142512 302.201402 
L 293.29605 299.430064 
L 293.44922 301.229992 
L 293.766285 300.145534 
L 293.919176 297.698184 
L 294.227021 274.468063 
L 294.380363 299.283194 
L 294.692565 302.090756 
L 294.845515 303.059371 
L 294.998022 301.300139 
L 295.150827 297.534415 
L 295.303846 303.31351 
L 295.456947 303.520595 
L 295.609869 301.666705 
L 295.762479 302.423683 
L 295.917096 304.118712 
L 296.070441 300.636861 
L 296.223017 285.462391 
L 296.376183 294.26008 
L 296.528696 288.809638 
L 296.834484 303.140531 
L 296.987163 301.001971 
L 297.139678 296.333778 
L 297.29256 302.831331 
L 297.447133 301.096777 
L 297.599753 301.820333 
L 297.753532 303.262699 
L 297.906306 300.015507 
L 298.059282 300.951417 
L 298.211946 293.251747 
L 298.36462 301.398908 
L 298.519278 296.739539 
L 298.672049 295.998612 
L 298.824548 292.90439 
L 298.977176 298.933677 
L 299.132632 298.28897 
L 299.285944 301.001407 
L 299.43854 299.558538 
L 299.592087 300.511139 
L 299.751314 299.848468 
L 299.904499 303.783549 
L 300.058795 300.438175 
L 300.213282 301.087446 
L 300.366005 296.940411 
L 300.522484 299.082037 
L 300.681644 299.593227 
L 300.834207 296.598177 
L 300.987255 302.583082 
L 301.157552 301.882901 
L 301.310059 302.594293 
L 301.464556 300.743142 
L 301.619101 300.366399 
L 301.771867 301.669125 
L 302.078708 292.281807 
L 302.231616 293.887398 
L 302.387185 302.624378 
L 302.540092 301.609344 
L 302.696469 297.85983 
L 302.849139 300.836566 
L 303.004979 300.087625 
L 303.312537 297.517805 
L 303.469915 301.031778 
L 303.622449 296.244396 
L 303.778679 303.704044 
L 303.942269 301.187499 
L 304.095112 304.616761 
L 304.247627 303.317825 
L 304.400251 293.849771 
L 304.557763 300.265976 
L 304.710541 300.04593 
L 304.86345 296.226861 
L 305.016292 278.821016 
L 305.176562 298.372619 
L 305.329081 293.989906 
L 305.482574 298.270974 
L 305.63575 280.50412 
L 305.950798 300.292317 
L 306.107321 303.108062 
L 306.260073 299.984384 
L 306.566494 302.16687 
L 306.733096 301.608592 
L 306.885618 299.511774 
L 307.038299 303.756693 
L 307.191889 302.486277 
L 307.347884 302.172729 
L 307.501492 299.712679 
L 307.655156 303.106041 
L 307.961051 301.200191 
L 308.116157 302.105649 
L 308.269146 296.101675 
L 308.424929 294.766642 
L 308.577479 295.901583 
L 308.731498 296.18791 
L 308.885254 293.468104 
L 309.343621 297.117322 
L 309.496692 299.701055 
L 309.64965 297.424604 
L 309.802481 303.114599 
L 310.264147 296.781918 
L 310.426701 299.641489 
L 310.579273 299.023283 
L 310.897006 303.26163 
L 311.049541 301.613579 
L 311.203213 302.840382 
L 311.356021 299.895744 
L 311.508796 304.705236 
L 311.664022 301.984121 
L 311.821094 304.070904 
L 312.127106 301.627836 
L 312.285429 301.016151 
L 312.439256 302.119995 
L 312.745183 296.539558 
L 312.902456 303.933398 
L 313.212301 298.0602 
L 313.517565 304.119103 
L 313.673005 302.466139 
L 313.829362 297.406924 
L 313.983482 296.421018 
L 314.136289 294.342029 
L 314.289597 302.084956 
L 314.442574 294.179454 
L 314.59632 296.812825 
L 314.904127 286.981206 
L 315.212882 302.297209 
L 315.525616 298.59954 
L 315.686887 300.169377 
L 315.99195 299.470606 
L 316.144451 300.030383 
L 316.449796 287.790818 
L 316.60291 301.734053 
L 316.756002 302.29755 
L 317.221845 299.174042 
L 317.537806 304.118618 
L 317.844118 296.531307 
L 317.996619 284.597975 
L 318.15136 300.05837 
L 318.309069 303.926545 
L 318.463708 301.607543 
L 318.771722 303.879061 
L 318.931934 300.677024 
L 319.085826 294.141994 
L 319.238838 297.16446 
L 319.393872 293.747154 
L 319.547522 293.533598 
L 319.700105 287.901573 
L 319.863758 297.6916 
L 320.017548 291.207277 
L 320.17097 300.636749 
L 320.478563 303.885448 
L 320.631642 302.06111 
L 320.785284 298.442319 
L 320.93805 304.031927 
L 321.396378 291.91724 
L 321.549893 299.382933 
L 321.708673 301.422137 
L 321.861262 299.47224 
L 322.013797 302.674605 
L 322.168042 303.20126 
L 322.320564 301.047701 
L 322.473088 301.654376 
L 322.630921 301.610165 
L 322.790737 301.316956 
L 322.946321 301.854802 
L 323.251469 297.771417 
L 323.405002 288.240889 
L 323.558552 290.043411 
L 323.719626 301.010369 
L 323.872135 299.710079 
L 324.024735 300.545832 
L 324.178805 299.863223 
L 324.331365 294.190161 
L 324.484118 299.120203 
L 324.637679 292.572366 
L 324.944134 299.608724 
L 325.09704 290.596682 
L 325.250779 295.411032 
L 325.403879 279.731737 
L 325.558458 296.707805 
L 325.711265 296.119039 
L 325.865239 297.572652 
L 326.018541 303.55811 
L 326.324651 293.219464 
L 326.478574 290.0882 
L 326.633488 299.032409 
L 326.938829 289.539785 
L 327.092597 289.434638 
L 327.245177 283.682654 
L 327.398022 290.514751 
L 327.550696 284.872501 
L 327.856675 289.976705 
L 328.011081 289.291715 
L 328.316866 285.384861 
L 328.469599 289.59634 
L 328.622987 286.207633 
L 328.776452 289.885944 
L 328.929381 300.327832 
L 329.086966 303.057 
L 329.239509 293.663613 
L 329.392033 233.827365 
L 329.545648 234.953112 
L 329.698362 224.088865 
L 329.853758 298.374273 
L 330.009615 298.425524 
L 330.162613 295.141135 
L 330.315244 295.304478 
L 330.467781 296.920799 
L 330.621618 301.25309 
L 330.927157 290.8895 
L 331.082454 299.83454 
L 331.24031 300.172249 
L 331.393929 292.879743 
L 331.54782 299.722962 
L 331.700872 299.052242 
L 332.006959 302.191366 
L 332.159501 300.163743 
L 332.468965 304.120721 
L 332.634333 303.054328 
L 332.787028 304.373609 
L 332.941858 302.888689 
L 333.094444 302.575378 
L 333.24699 298.12372 
L 333.404227 303.094313 
L 333.557849 302.611288 
L 333.711191 301.091489 
L 333.86487 304.768983 
L 334.017869 303.033091 
L 334.171844 304.27766 
L 334.326465 302.015659 
L 334.481033 302.092779 
L 334.634107 302.743245 
L 334.795542 303.952838 
L 334.950152 300.458902 
L 335.262579 304.018516 
L 335.574543 303.439544 
L 335.886539 303.166544 
L 336.040107 304.694362 
L 336.192887 289.2016 
L 336.345575 302.937234 
L 336.49974 304.349696 
L 336.806227 294.86382 
L 336.959256 301.011392 
L 337.112928 299.889565 
L 337.265785 300.530422 
L 337.418763 299.90108 
L 337.571334 294.857925 
L 337.876629 300.208471 
L 338.335096 293.188198 
L 338.487695 254.319663 
L 338.641394 293.314394 
L 338.794111 301.925182 
L 338.947604 301.497463 
L 339.104219 302.79378 
L 339.256857 295.616126 
L 339.409556 296.520822 
L 339.563769 304.27754 
L 339.717547 302.763409 
L 339.873244 299.40899 
L 340.182224 303.252724 
L 340.335098 302.564906 
L 340.487691 293.784601 
L 340.640745 294.342298 
L 340.793975 302.324579 
L 340.946904 300.179635 
L 341.100368 303.196379 
L 341.252902 303.58045 
L 341.405793 303.011305 
L 341.559817 295.998624 
L 341.713144 301.860461 
L 341.86782 300.849516 
L 342.025597 302.414876 
L 342.178355 295.292425 
L 342.330917 302.226058 
L 342.645071 303.001939 
L 342.960888 301.34036 
L 343.11439 298.933704 
L 343.267298 301.874731 
L 343.421162 301.825897 
L 343.574291 297.691369 
L 343.726915 303.795406 
L 343.880905 299.188782 
L 344.03413 303.849462 
L 344.187169 296.685202 
L 344.342246 298.071244 
L 344.500395 302.607932 
L 344.662465 303.040654 
L 345.12036 292.294317 
L 345.272876 297.033394 
L 345.578044 299.722081 
L 345.739878 302.762351 
L 345.892741 301.346742 
L 346.047405 293.049798 
L 346.199952 302.230732 
L 346.352733 276.410219 
L 346.660498 301.917063 
L 346.966013 260.852324 
L 347.119101 257.095914 
L 347.271802 264.984091 
L 347.576867 301.336151 
L 347.729444 301.021982 
L 347.882585 302.207313 
L 348.19334 292.82267 
L 348.500454 303.448078 
L 348.653345 302.966821 
L 348.805846 304.212257 
L 348.958416 296.776222 
L 349.111135 299.559407 
L 349.263776 250.033961 
L 349.417949 262.000664 
L 349.570474 303.5185 
L 350.028408 302.645128 
L 350.18098 301.848175 
L 350.336381 303.075535 
L 350.488886 302.651697 
L 350.64161 301.175925 
L 350.794404 302.121711 
L 350.947361 297.933381 
L 351.106164 300.506947 
L 351.259195 295.338831 
L 351.565395 301.704886 
L 351.871085 280.125522 
L 352.176365 301.696264 
L 352.328894 302.115524 
L 352.48254 303.426984 
L 352.635367 298.552887 
L 352.788024 266.120288 
L 352.942244 297.382342 
L 353.095722 293.50592 
L 353.401256 301.464624 
L 353.554085 298.446281 
L 353.706959 297.81443 
L 353.860435 281.862066 
L 354.014772 288.394172 
L 354.172306 288.845821 
L 354.327904 287.138728 
L 354.480519 298.366077 
L 354.633487 297.297057 
L 354.786052 292.164632 
L 354.939938 298.441791 
L 355.246461 295.82901 
L 355.399187 287.615691 
L 355.711095 301.160156 
L 355.868112 300.072188 
L 356.175164 303.61611 
L 356.328444 300.958152 
L 356.48112 303.962304 
L 356.637073 302.25238 
L 356.790339 296.449589 
L 357.095771 299.300123 
L 357.248432 299.143913 
L 357.404455 302.323172 
L 357.71625 298.020312 
L 357.869613 302.05718 
L 358.022251 299.534739 
L 358.333723 305.114331 
L 358.487406 304.308932 
L 358.644105 304.475742 
L 358.950712 290.931657 
L 359.103418 293.868667 
L 359.259963 286.845164 
L 359.412573 300.520018 
L 359.565473 303.998933 
L 359.718068 301.635113 
L 359.871099 302.351148 
L 360.181284 291.684206 
L 360.33424 299.000327 
L 360.486745 299.14823 
L 360.641861 298.101127 
L 360.794724 300.368536 
L 360.947847 298.824566 
L 361.102363 293.409048 
L 361.254969 299.798556 
L 361.407718 286.64508 
L 361.562335 299.898837 
L 361.715992 301.18113 
L 361.868576 301.170976 
L 362.021439 296.057243 
L 362.329246 301.388038 
L 362.635626 303.373304 
L 362.788738 299.205058 
L 362.941926 301.291721 
L 363.095953 301.252616 
L 363.24897 298.380347 
L 363.402346 302.906663 
L 363.86536 295.837744 
L 364.017881 297.057731 
L 364.170587 300.781143 
L 364.323101 301.613217 
L 364.478585 296.270188 
L 364.783653 279.865251 
L 365.089233 294.152583 
L 365.243039 296.275626 
L 365.39634 287.941348 
L 365.548949 292.224621 
L 365.701507 288.267855 
L 366.011467 302.142504 
L 366.16477 299.161082 
L 366.470108 303.122789 
L 366.623174 303.921513 
L 366.778958 301.763969 
L 366.935859 302.156677 
L 367.241743 301.231633 
L 367.396882 299.999113 
L 367.708053 293.753528 
L 367.863713 295.184044 
L 368.016398 291.420707 
L 368.170329 291.890513 
L 368.323587 296.530179 
L 368.477594 295.673424 
L 368.630215 300.046016 
L 368.783934 298.958579 
L 368.938637 300.716622 
L 369.094434 295.6115 
L 369.248164 300.412078 
L 369.556061 290.350044 
L 369.86178 302.790274 
L 370.014628 296.928457 
L 370.167203 299.388176 
L 370.320088 291.780091 
L 370.47265 245.268326 
L 370.625193 255.231036 
L 370.778716 246.59728 
L 370.93181 293.365958 
L 371.084574 297.967114 
L 371.238563 298.987571 
L 371.391079 295.98265 
L 371.543756 278.572735 
L 371.696394 297.375635 
L 371.852582 299.062085 
L 372.005142 294.660788 
L 372.164038 295.461646 
L 372.318323 298.236605 
L 372.470938 296.125297 
L 372.630788 300.117274 
L 372.935837 279.769667 
L 373.243422 302.210037 
L 373.396019 303.125169 
L 373.548686 302.178104 
L 373.702723 303.497926 
L 373.856101 303.088184 
L 374.015474 305.151508 
L 374.168746 302.83805 
L 374.322136 303.495329 
L 374.474833 296.371074 
L 374.6276 298.741028 
L 374.783666 303.902633 
L 374.939465 302.924761 
L 375.092052 304.503051 
L 375.244705 303.9262 
L 375.560316 300.625072 
L 375.713074 303.581055 
L 375.866741 284.877048 
L 376.02012 297.987278 
L 376.173613 298.738673 
L 376.480121 303.45117 
L 376.635145 299.159095 
L 376.789248 300.43489 
L 376.947812 303.287501 
L 377.10466 303.613518 
L 377.258412 301.792395 
L 377.411038 301.663958 
L 377.565368 300.776031 
L 378.180534 286.47216 
L 378.333449 295.203005 
L 378.48781 292.961386 
L 378.643525 301.797061 
L 378.79691 300.289519 
L 378.950814 278.722447 
L 379.259415 300.502266 
L 379.414284 301.371996 
L 379.567054 303.664197 
L 379.719855 303.430543 
L 379.872389 299.036976 
L 380.027235 302.413008 
L 380.180682 298.256158 
L 380.333273 300.773339 
L 380.486485 270.538904 
L 380.641122 271.240044 
L 380.793659 294.859051 
L 380.946486 294.990819 
L 381.259698 299.816897 
L 381.418322 300.601849 
L 381.571047 291.492748 
L 381.723546 299.46292 
L 381.880481 298.088281 
L 382.039357 299.29139 
L 382.193159 299.03654 
L 382.346815 294.208832 
L 382.499576 301.837034 
L 382.652196 302.211187 
L 382.957643 293.325773 
L 383.110487 291.053951 
L 383.272997 297.397705 
L 383.730735 295.500489 
L 383.88364 301.239619 
L 384.036207 301.515394 
L 384.189373 293.539244 
L 384.343468 295.602303 
L 384.496432 291.319305 
L 384.802723 302.211279 
L 385.107955 301.146529 
L 385.260516 299.827891 
L 385.414028 299.902044 
L 385.566569 293.91096 
L 385.71909 300.922725 
L 385.871605 290.556313 
L 386.024209 247.107266 
L 386.176869 247.334058 
L 386.329512 239.424801 
L 386.482155 255.20283 
L 386.787668 299.630867 
L 386.941817 302.71963 
L 387.094587 298.798626 
L 387.24737 285.98364 
L 387.555151 305.028156 
L 387.707758 299.824806 
L 387.860268 302.21862 
L 388.013994 299.70917 
L 388.168064 304.792728 
L 388.476132 301.036969 
L 388.632068 303.162026 
L 388.78509 292.969946 
L 389.246835 301.697115 
L 389.399528 299.065725 
L 389.552789 299.803652 
L 389.705366 298.721389 
L 389.860296 301.905283 
L 390.323403 296.927652 
L 390.476172 292.798796 
L 390.781967 300.737951 
L 390.938661 300.748714 
L 391.248348 301.776075 
L 391.401264 297.37594 
L 391.553783 252.241215 
L 391.708104 241.096805 
L 391.860738 290.513394 
L 392.013388 301.194419 
L 392.166609 300.061221 
L 392.471698 263.431973 
L 392.6242 264.295064 
L 392.776737 299.467791 
L 392.933622 303.119031 
L 393.087255 302.657227 
L 393.242277 296.730976 
L 393.394911 300.472194 
L 393.547503 298.060207 
L 393.700095 243.341245 
L 393.860007 294.855052 
L 394.165772 304.094794 
L 394.320189 302.742721 
L 394.472897 303.668404 
L 394.625585 302.857679 
L 394.778365 303.505552 
L 395.084506 301.356749 
L 395.396104 302.037839 
L 395.548942 303.533366 
L 395.701555 300.728443 
L 396.007396 303.654833 
L 396.160551 303.307456 
L 396.46669 299.391515 
L 396.619672 300.354245 
L 396.773191 302.084897 
L 396.930375 302.00897 
L 397.084034 300.23908 
L 397.250563 299.979097 
L 397.404042 301.329215 
L 397.564822 293.762815 
L 397.721739 298.430163 
L 397.874922 295.7116 
L 398.027682 295.375917 
L 398.180919 291.744493 
L 398.334617 295.225936 
L 398.487273 293.299843 
L 398.487273 293.299843 
" clip-path="url(#pbbbc84a9de)" style="fill: none; stroke: #1f77b4; stroke-width: 1.5; stroke-linecap: square"/>
   </g>
   <g id="patch_3">
    <path d="M 57.6 307.584 
L 57.6 41.472 
" style="fill: none; stroke: #000000; stroke-width: 0.8; stroke-linejoin: miter; stroke-linecap: square"/>
   </g>
   <g id="patch_4">
    <path d="M 414.72 307.584 
L 414.72 41.472 
" style="fill: none; stroke: #000000; stroke-width: 0.8; stroke-linejoin: miter; stroke-linecap: square"/>
   </g>
   <g id="patch_5">
    <path d="M 57.6 307.584 
L 414.72 307.584 
" style="fill: none; stroke: #000000; stroke-width: 0.8; stroke-linejoin: miter; stroke-linecap: square"/>
   </g>
   <g id="patch_6">
    <path d="M 57.6 41.472 
L 414.72 41.472 
" style="fill: none; stroke: #000000; stroke-width: 0.8; stroke-linejoin: miter; stroke-linecap: square"/>
   </g>
   <g id="text_15">
    <!-- pt9 link speed per 100ms -->
    <g transform="translate(159.425625 35.472)scale(0.12 -0.12)">
     <defs>
      <path id="DejaVuSans-39" d="M 703 97 
L 703 672 
Q 941 559 1184 500 
Q 1428 441 1663 441 
Q 2288 441 2617 861 
Q 2947 1281 2994 2138 
Q 2813 1869 2534 1725 
Q 2256 1581 1919 1581 
Q 1219 1581 811 2004 
Q 403 2428 403 3163 
Q 403 3881 828 4315 
Q 1253 4750 1959 4750 
Q 2769 4750 3195 4129 
Q 3622 3509 3622 2328 
Q 3622 1225 3098 567 
Q 2575 -91 1691 -91 
Q 1453 -91 1209 -44 
Q 966 3 703 97 
z
M 1959 2075 
Q 2384 2075 2632 2365 
Q 2881 2656 2881 3163 
Q 2881 3666 2632 3958 
Q 2384 4250 1959 4250 
Q 1534 4250 1286 3958 
Q 1038 3666 1038 3163 
Q 1038 2656 1286 2365 
Q 1534 2075 1959 2075 
z
" transform="scale(0.015625)"/>
      <path id="DejaVuSans-20" transform="scale(0.015625)"/>
      <path id="DejaVuSans-6c" d="M 603 4863 
L 1178 4863 
L 1178 0 
L 603 0 
L 603 4863 
z
" transform="scale(0.015625)"/>
      <path id="DejaVuSans-6e" d="M 3513 2113 
L 3513 0 
L 2938 0 
L 2938 2094 
Q 2938 2591 2744 2837 
Q 2550 3084 2163 3084 
Q 1697 3084 1428 2787 
Q 1159 2491 1159 1978 
L 1159 0 
L 581 0 
L 581 3500 
L 1159 3500 
L 1159 2956 
Q 1366 3272 1645 3428 
Q 1925 3584 2291 3584 
Q 2894 3584 3203 3211 
Q 3513 2838 3513 2113 
z
" transform="scale(0.015625)"/>
      <path id="DejaVuSans-6b" d="M 581 4863 
L 1159 4863 
L 1159 1991 
L 2875 3500 
L 3609 3500 
L 1753 1863 
L 3688 0 
L 2938 0 
L 1159 1709 
L 1159 0 
L 581 0 
L 581 4863 
z
" transform="scale(0.015625)"/>
      <path id="DejaVuSans-64" d="M 2906 2969 
L 2906 4863 
L 3481 4863 
L 3481 0 
L 2906 0 
L 2906 525 
Q 2725 213 2448 61 
Q 2172 -91 1784 -91 
Q 1150 -91 751 415 
Q 353 922 353 1747 
Q 353 2572 751 3078 
Q 1150 3584 1784 3584 
Q 2172 3584 2448 3432 
Q 2725 3281 2906 2969 
z
M 947 1747 
Q 947 1113 1208 752 
Q 1469 391 1925 391 
Q 2381 391 2643 752 
Q 2906 1113 2906 1747 
Q 2906 2381 2643 2742 
Q 2381 3103 1925 3103 
Q 1469 3103 1208 2742 
Q 947 2381 947 1747 
z
" transform="scale(0.015625)"/>
      <path id="DejaVuSans-72" d="M 2631 2963 
Q 2534 3019 2420 3045 
Q 2306 3072 2169 3072 
Q 1681 3072 1420 2755 
Q 1159 2438 1159 1844 
L 1159 0 
L 581 0 
L 581 3500 
L 1159 3500 
L 1159 2956 
Q 1341 3275 1631 3429 
Q 1922 3584 2338 3584 
Q 2397 3584 2469 3576 
Q 2541 3569 2628 3553 
L 2631 2963 
z
" transform="scale(0.015625)"/>
     </defs>
     <use xlink:href="#DejaVuSans-70"/>
     <use xlink:href="#DejaVuSans-74" x="63.476562"/>
     <use xlink:href="#DejaVuSans-39" x="102.685547"/>
     <use xlink:href="#DejaVuSans-20" x="166.308594"/>
     <use xlink:href="#DejaVuSans-6c" x="198.095703"/>
     <use xlink:href="#DejaVuSans-69" x="225.878906"/>
     <use xlink:href="#DejaVuSans-6e" x="253.662109"/>
     <use xlink:href="#DejaVuSans-6b" x="317.041016"/>
     <use xlink:href="#DejaVuSans-20" x="374.951172"/>
     <use xlink:href="#DejaVuSans-73" x="406.738281"/>
     <use xlink:href="#DejaVuSans-70" x="458.837891"/>
     <use xlink:href="#DejaVuSans-65" x="522.314453"/>
     <use xlink:href="#DejaVuSans-65" x="583.837891"/>
     <use xlink:href="#DejaVuSans-64" x="645.361328"/>
     <use xlink:href="#DejaVuSans-20" x="708.837891"/>
     <use xlink:href="#DejaVuSans-70" x="740.625"/>
     <use xlink:href="#DejaVuSans-65" x="804.101562"/>
     <use xlink:href="#DejaVuSans-72" x="865.625"/>
     <use xlink:href="#DejaVuSans-20" x="906.738281"/>
     <use xlink:href="#DejaVuSans-31" x="938.525391"/>
     <use xlink:href="#DejaVuSans-30" x="1002.148438"/>
     <use xlink:href="#DejaVuSans-30" x="1065.771484"/>
     <use xlink:href="#DejaVuSans-6d" x="1129.394531"/>
     <use xlink:href="#DejaVuSans-73" x="1226.806641"/>
    </g>
   </g>
  </g>
 </g>
 <defs>
  <clipPath id="pbbbc84a9de">
   <rect x="57.6" y="41.472" width="357.12" height="266.112"/>
  </clipPath>
 </defs>
</svg>
