<!-- <svg width="128" height="100" xmlns="http://www.w3.org/2000/svg"><path d="M27.429 63.638c0-2.508-.893-4.65-2.679-6.424-1.786-1.775-3.94-2.662-6.464-2.662-2.524 0-4.679.887-6.465 2.662-1.785 1.774-2.678 3.916-2.678 6.424 0 2.508.893 4.65 2.678 6.424 1.786 1.775 3.94 2.662 6.465 2.662 2.524 0 4.678-.887 6.464-2.662 1.786-1.775 2.679-3.916 2.679-6.424zm13.714-31.801c0-2.508-.893-4.65-2.679-6.424-1.785-1.775-3.94-2.662-6.464-2.662-2.524 0-4.679.887-6.464 2.662-1.786 1.774-2.679 3.916-2.679 6.424 0 2.508.893 4.65 2.679 6.424 1.785 1.774 3.94 2.662 6.464 2.662 2.524 0 4.679-.888 6.464-2.662 1.786-1.775 2.679-3.916 2.679-6.424zM71.714 65.98l7.215-27.116c.285-1.23.107-2.378-.536-3.443-.643-1.064-1.56-1.762-2.75-2.094-1.19-.33-2.333-.177-3.429.462-1.095.639-1.81 1.573-2.143 2.804l-7.214 27.116c-2.857.237-5.405 1.266-7.643 3.088-2.238 1.822-3.738 4.152-4.5 6.992-.952 3.644-.476 7.098 1.429 10.364 1.905 3.265 4.69 5.37 8.357 6.317 3.667.947 7.143.474 10.429-1.42 3.285-1.892 5.404-4.66 6.357-8.305.762-2.84.619-5.607-.429-8.305-1.047-2.697-2.762-4.85-5.143-6.46zm47.143-2.342c0-2.508-.893-4.65-2.678-6.424-1.786-1.775-3.94-2.662-6.465-2.662-2.524 0-4.678.887-6.464 2.662-1.786 1.774-2.679 3.916-2.679 6.424 0 2.508.893 4.65 2.679 6.424 1.786 1.775 3.94 2.662 6.464 2.662 2.524 0 4.679-.887 6.465-2.662 1.785-1.775 2.678-3.916 2.678-6.424zm-45.714-45.43c0-2.509-.893-4.65-2.679-6.425C68.68 10.01 66.524 9.122 64 9.122c-2.524 0-4.679.887-6.464 2.661-1.786 1.775-2.679 3.916-2.679 6.425 0 2.508.893 4.65 2.679 6.424 1.785 1.774 3.94 2.662 6.464 2.662 2.524 0 4.679-.888 6.464-2.662 1.786-1.775 2.679-3.916 2.679-6.424zm32 13.629c0-2.508-.893-4.65-2.679-6.424-1.785-1.775-3.94-2.662-6.464-2.662-2.524 0-4.679.887-6.464 2.662-1.786 1.774-2.679 3.916-2.679 6.424 0 2.508.893 4.65 2.679 6.424 1.785 1.774 3.94 2.662 6.464 2.662 2.524 0 4.679-.888 6.464-2.662 1.786-1.775 2.679-3.916 2.679-6.424zM128 63.638c0 12.351-3.357 23.78-10.071 34.286-.905 1.372-2.19 2.058-3.858 2.058H13.93c-1.667 0-2.953-.686-3.858-2.058C3.357 87.465 0 76.037 0 63.638c0-8.613 1.69-16.847 5.071-24.703C8.452 31.08 13 24.312 18.714 18.634c5.715-5.68 12.524-10.199 20.429-13.559C47.048 1.715 55.333.035 64 .035c8.667 0 16.952 1.68 24.857 5.04 7.905 3.36 14.714 7.88 20.429 13.559 5.714 5.678 10.262 12.446 13.643 20.301 3.38 7.856 5.071 16.09 5.071 24.703z"/></svg> -->
<!-- <svg t="1653897201250" class="icon" viewBox="0 0 1024 1024" version="1.1" xmlns="http://www.w3.org/2000/svg" p-id="2501" width="200" height="200"><path d="M820.48 728.32a118.4 118.4 0 0 0-24.32 0h-5.12l-17.92 5.76h-3.2a117.76 117.76 0 0 0-17.92 10.24l-5.76 4.48L640 658.56a198.4 198.4 0 0 0-4.48-256L768 270.72a117.12 117.12 0 0 0 24.96 15.36 116.48 116.48 0 0 0 19.2 5.76h3.2a118.4 118.4 0 1 0-92.16-92.16v5.76a116.48 116.48 0 0 0 5.12 16.64l3.2 5.76a117.12 117.12 0 0 0 7.68 14.08l3.84 5.12L613.76 384a200.32 200.32 0 0 0-275.2 10.24l-56.96-48v-5.76A116.48 116.48 0 0 0 292.48 320c0-3.84 0-7.04 3.2-10.88s0-6.4 0-9.6a115.84 115.84 0 0 0 0-22.4 118.4 118.4 0 1 0-93.44 115.2A117.12 117.12 0 0 0 231.04 384 118.4 118.4 0 0 0 256 373.76l6.4-5.12 57.6 47.36a200.96 200.96 0 0 0 19.2 259.84l-64 72.32h-8.32l-14.72-7.04h-8.32l-12.16-3.2a114.56 114.56 0 0 0-21.76 0 118.4 118.4 0 1 0 115.2 93.44 117.12 117.12 0 0 0-5.12-33.28 117.76 117.76 0 0 0-12.16-19.84L298.24 768l64-72.96a199.68 199.68 0 0 0 256-14.08l104.32 96.64V785.28a117.12 117.12 0 0 0-8.32 16v7.68a99.84 99.84 0 0 0-6.4 35.84 118.4 118.4 0 1 0 118.4-118.4zM96 279.68a86.4 86.4 0 0 1 172.16 0 85.12 85.12 0 0 1-6.4 30.72 88.32 88.32 0 0 1-5.76 14.72 87.04 87.04 0 0 1-8.32 12.16l-6.4 6.4a85.76 85.76 0 0 1-21.76 14.72h-4.48a85.12 85.12 0 0 1-30.08 6.4A86.4 86.4 0 0 1 96 279.68z m745.6-188.8a86.4 86.4 0 1 1-64 147.2 87.68 87.68 0 0 1-5.12-7.68 86.4 86.4 0 0 1-13.44-19.84 86.4 86.4 0 0 1 79.36-119.68zM209.28 933.12a86.4 86.4 0 1 1 0-172.16 85.12 85.12 0 0 1 31.36 6.4 87.68 87.68 0 0 1 15.36 8.96 87.04 87.04 0 0 1 11.52 7.68l5.76 6.4a85.76 85.76 0 0 1 14.72 21.76v4.48a85.12 85.12 0 0 1 6.4 30.72 86.4 86.4 0 0 1-85.12 85.76z m272.64-260.48A138.88 138.88 0 1 1 620.8 533.76a138.88 138.88 0 0 1-138.24 138.88z m338.56 260.48a86.4 86.4 0 0 1-86.4-86.4 85.12 85.12 0 0 1 6.4-32 87.68 87.68 0 0 1 11.52-17.92 87.68 87.68 0 0 1 6.4-9.6l4.48-4.48a86.4 86.4 0 0 1 23.68-16 85.12 85.12 0 0 1 32-6.4 86.4 86.4 0 1 1 0 172.16z" fill="#1B213F" p-id="2502"></path></svg> -->
<!-- <svg t="1653897080400" class="icon" viewBox="0 0 1024 1024" version="1.1" xmlns="http://www.w3.org/2000/svg" p-id="2197" width="128" height="128"><path d="M192 832V128h-64v768h768v-64z" p-id="2198"></path><path d="M605.6 640l-184-161.6L299.2 632l-50.4-40 164.8-206.4 184.8 163.2 248.8-296.8 48.8 40.8z" p-id="2199"></path></svg> -->
<svg t="1653897246196" class="icon" viewBox="0 0 1024 1024" version="1.1" xmlns="http://www.w3.org/2000/svg" p-id="2673" width="200" height="200"><path d="M883.2 704l-217.6-89.6c6.4-25.6 12.8-51.2 12.8-76.8 0-32-6.4-57.6-19.2-83.2L768 377.6c6.4-6.4 6.4-12.8 6.4-19.2s-12.8-6.4-19.2-6.4l-108.8 76.8c-32-51.2-83.2-89.6-140.8-102.4l12.8-217.6c0-6.4-6.4-19.2-12.8-19.2s-19.2 6.4-19.2 12.8l-12.8 224h-12.8c-83.2 0-153.6 51.2-192 115.2L121.6 384c-6.4-6.4-19.2 0-19.2 6.4-6.4 6.4 0 19.2 6.4 19.2l153.6 57.6c-6.4 25.6-12.8 44.8-12.8 70.4 0 57.6 19.2 108.8 57.6 147.2l-121.6 121.6c-6.4 6.4-6.4 19.2 0 25.6 6.4 0 19.2 0 25.6-6.4L332.8 704c38.4 32 83.2 44.8 134.4 44.8 83.2 0 147.2-44.8 185.6-108.8l224 89.6c6.4 6.4 19.2 0 19.2-6.4s0-19.2-12.8-19.2z" fill="#5B8FD9" p-id="2674"></path><path d="M940.8 742.4m-83.2 0a83.2 83.2 0 1 0 166.4 0 83.2 83.2 0 1 0-166.4 0Z" fill="#68D279" p-id="2675"></path><path d="M153.6 876.8m-102.4 0a102.4 102.4 0 1 0 204.8 0 102.4 102.4 0 1 0-204.8 0Z" fill="#FE6D68" p-id="2676"></path><path d="M505.6 96m-57.6 0a57.6 57.6 0 1 0 115.2 0 57.6 57.6 0 1 0-115.2 0Z" fill="#5B8FD9" p-id="2677"></path><path d="M96 384m-76.8 0a76.8 76.8 0 1 0 153.6 0 76.8 76.8 0 1 0-153.6 0Z" fill="#68D279" p-id="2678"></path><path d="M774.4 352m-76.8 0a76.8 76.8 0 1 0 153.6 0 76.8 76.8 0 1 0-153.6 0Z" fill="#F9D65D" p-id="2679"></path></svg>