<!-- <svg width="128" height="128" xmlns="http://www.w3.org/2000/svg"><path d="M.006.064h127.988v31.104H.006V.064zm0 38.016h38.396v41.472H.006V38.08zm0 48.384h38.396v41.472H.006V86.464zM44.802 38.08h38.396v41.472H44.802V38.08zm0 48.384h38.396v41.472H44.802V86.464zM89.598 38.08h38.396v41.472H89.598zm0 48.384h38.396v41.472H89.598z"/><path d="M.006.064h127.988v31.104H.006V.064zm0 38.016h38.396v41.472H.006V38.08zm0 48.384h38.396v41.472H.006V86.464zM44.802 38.08h38.396v41.472H44.802V38.08zm0 48.384h38.396v41.472H44.802V86.464zM89.598 38.08h38.396v41.472H89.598zm0 48.384h38.396v41.472H89.598z"/></svg> -->
<svg t="1653897386073" class="icon" viewBox="0 0 1024 1024" version="1.1" xmlns="http://www.w3.org/2000/svg" p-id="3562" width="200" height="200"><path d="M979 1024H127.1C57 1024 0 967 0 896.9V45C0 20.1 20.1 0 45 0s45 20.1 45 45v851.9c0 20.5 16.6 37.1 37.1 37.1H979c24.9 0 45 20.1 45 45s-20.1 45-45 45z" p-id="3563"></path><path d="M207.3 877.7c-6.3 0-12.6-1.3-18.7-4.1-22.6-10.4-32.5-37.1-22.2-59.7L323.1 472c5-10.8 14.1-19.3 25.2-23.4 11.2-4.2 23.6-3.7 34.4 1.3l278 127.5 217.6-474.7c10.4-22.6 37.1-32.5 59.7-22.2 22.6 10.4 32.5 37.1 22.2 59.7L723.9 655.8c-5 10.8-14.1 19.3-25.2 23.4-11.2 4.2-23.6 3.7-34.4-1.3l-278-127.5-138 301c-7.6 16.6-24 26.3-41 26.3z" p-id="3564"></path></svg>